<?xml version="1.0" encoding="UTF-8" standalone="no"?>
<!-- Created with Inkscape (http://www.inkscape.org/) -->

<svg
   version="1.1"
   id="svg1"
   width="1243.3105"
   height="1279.7085"
   viewBox="0 0 1243.3105 1279.7085"
   sodipodi:docname="rabbit.svg"
   inkscape:version="1.3.2 (091e20ef0f, 2023-11-25)"
   xmlns:inkscape="http://www.inkscape.org/namespaces/inkscape"
   xmlns:sodipodi="http://sodipodi.sourceforge.net/DTD/sodipodi-0.dtd"
   xmlns="http://www.w3.org/2000/svg"
   xmlns:svg="http://www.w3.org/2000/svg">
  <defs
     id="defs1" />
  <sodipodi:namedview
     id="namedview1"
     pagecolor="#ffffff"
     bordercolor="#000000"
     borderopacity="0.25"
     inkscape:showpageshadow="2"
     inkscape:pageopacity="0.0"
     inkscape:pagecheckerboard="0"
     inkscape:deskcolor="#d1d1d1"
     inkscape:zoom="0.7571272"
     inkscape:cx="569.91745"
     inkscape:cy="589.72918"
     inkscape:window-width="2540"
     inkscape:window-height="1391"
     inkscape:window-x="0"
     inkscape:window-y="0"
     inkscape:window-maximized="0"
     inkscape:current-layer="g1" />
  <g
     inkscape:groupmode="layer"
     inkscape:label="Image"
     id="g1"
     transform="translate(-51.9842,2.9200494)">
    <path
       style="fill:#ffffff;stroke:#000000"
       d="m 597.66012,1275.7825 c -36.27027,-1.4817 -193.35737,-11.4933 -218.5,-13.9256 -35.83877,-3.467 -70.45241,-12.3529 -95,-24.3879 -13.34265,-6.5416 -17.5501,-7.9059 -33,-10.7011 -10.31703,-1.8666 -15.99704,-2.19 -40.5,-2.3058 -30.72549,-0.1452 -29.99113,-0.041 -44,-6.23 -17.51711,-7.7387 -47.97303,-28.725 -63.03776,-43.4376 -8.402775,-8.2063 -37.901515,-41.027 -43.136965,-47.9948 -10.98975,-14.6259 -10.74023,-21.6369 1.25451,-35.2487 2.35478,-2.6723 7.27101,-7.4317 10.92495,-10.5766 l 6.64353,-5.7179 -1.35301,-3.908 c -2.26459,-6.5412 -5.29568,-22.9316 -5.28825,-28.596 0.0129,-9.846 4.95746,-26.1082 14.32007,-47.09752 2.79332,-6.2621 5.02424,-7.762 11.48802,-7.7234 6.025425,0.036 12.033555,3.547 21.214665,12.39762 9.84598,9.4915 13.47533,11.0848 17.84009,7.8316 1.44658,-1.0781 3.50647,-3.4569 4.57753,-5.2861 1.8487,-3.15732 1.95421,-5.68532 2.08236,-49.89546 0.0785,-27.09228 0.6406,-52.21594 1.34389,-60.06967 6.05038,-67.56601 14.43093,-108.89459 27.48508,-135.5423 7.70116,-15.72054 23.21848,-34.76358 53.64129,-65.82922 54.78589,-55.94352 120.55111,-107.95075 157.68411,-124.69682 15.17905,-6.84539 45.76842,-15.09621 73.81589,-19.91025 32.88862,-5.64496 59.09944,-8.02141 88.47154,-8.02141 30.47317,0 47.25841,2.11488 79.62291,10.0322 30.51476,7.46482 52.85029,16.5967 71.74762,29.33399 8.9335,6.02141 10.31216,6.63381 14.93428,6.63381 7.80118,0 12.5166,-2.96763 27.66995,-17.41393 20.58834,-19.62769 37.00627,-30.00322 49.51991,-31.29474 7.75855,-0.80075 11.3522,-3.47232 15.22941,-11.32177 4.95959,-10.04071 7.19683,-23.42136 8.31594,-49.73654 0.53173,-12.50316 1.40099,-28.13302 1.9317,-34.73302 3.74053,-46.51789 1.6913,-73.52031 -6.90601,-91 -1.6231,-3.3 -6.53461,-10.38924 -10.91448,-15.75388 -38.28342,-46.89096 -65.4253,-89.88712 -74.96002,-118.74612 -6.10886,-18.48985 -7.84884,-55.0838 -6.18129,-129.999998 1.25065,-56.186425 1.73574,-63.49443 4.61773,-69.567785 6.08383,-12.8207142 24.34332,-19.7243952 45.67698,-17.2698802 19.86284,2.28529302 35.28275,10.327744 52.31552,27.2858352 10.974,10.925874 14.8118,16.089419 28.0492,37.738964 18.3578,30.023896 27.3492,39.786714 33.2639,36.117876 3.5046,-2.17384 4.3613,-6.43393 5.1741,-25.728306 0.85,-20.175716 1.1931,-23.106436 3.6385,-31.076699 3.2299,-10.527428 7.5072,-13.691084 24.1805,-17.884731 21.2623,-5.347865 31.3922,-2.983894 39.4714,9.211264 30.4459,45.956834 69.90299,146.30379 84.80409,215.67346 2.398,11.1635 3.1831,17.95083 3.8752,33.5 0.7574,17.01773 1.6841,31.27364 3.4669,53.33475 0.9579,11.85266 4.757,14.19492 24.4845,15.09535 17.9777,0.82056 33.5365,4.51652 56,13.3027 31.4905,12.3169 38.8816,19.47802 67.6836,65.57728 15.5775,24.93261 21.0469,33.0979 28.5953,42.68992 7.8376,9.95947 11.3375,16.49312 18.7487,35 10.9672,27.38681 15.2715,33.73154 29.8304,43.97216 7.065,4.96945 13.4117,13.08647 18.0889,23.13438 4.4163,9.48772 6.1358,17.2402 6.1866,27.89346 0.058,12.12265 -2.0024,17.85568 -10.4706,29.13642 -3.4531,4.59997 -10.7383,14.66358 -16.1895,22.36358 -25.144,35.51717 -35.0499,44.9228 -53.9845,51.25794 -18.528,6.19913 -64.8553,15.46996 -84.2257,16.85491 -10.7725,0.77023 -15.3496,2.65206 -21.8417,8.98012 -6.7643,6.59349 -10.7564,14.85931 -10.7497,22.25783 0.01,6.83251 0.9637,8.79072 11.9433,24.42861 11.7772,16.77372 12.9292,20.72587 12.7439,43.72059 -0.2899,35.98498 -4.9934,63.87525 -13.0759,77.53697 -7.4641,12.61638 -12.2831,34.02993 -12.2831,54.58084 0,33.5651 -10.2371,63.84482 -26.6593,78.85382 -8.8339,8.0737 -20.3596,13.0127 -41.188,17.65 -15.595,3.472 -24.7919,7.7824 -31.49879,14.7626 -10.9438,11.3898 -14.2095,24.8049 -9.6839,39.7798 5.6435,18.6738 14.12849,26.4546 60.39969,55.386 32.4872,20.3129 41.5468,26.5679 47.2553,32.6266 5.8869,6.248 7.9003,9.7431 9.3569,16.2427 2.211,9.866 -3.333,19.2399 -14.4744,24.4737 -25.5928,12.0223 -115.54409,18.8617 -146.06289,11.1057 -15.2525,-3.8762 -29.7536,-12.1448 -63.9446,-36.4611 -22.6343,-16.0973 -32.9058,-22.7104 -43.5922,-28.066 -11.2484,-5.6373 -16.0649,-9.6332 -25.82434,-21.4246 -10.70936,-12.9392 -14.64693,-15.3558 -24.95296,-15.3146 -11.73215,0.047 -23.69016,3.9854 -51.63049,17.0045 -8.8,4.1005 -17.8,8.1079 -20,8.9053 -2.23245,0.8092 -10.98676,1.8719 -19.81114,2.4049 -22.3742,1.3513 -29.15865,3.3092 -32.03306,9.2442 -2.85147,5.8876 0.58701,13.593 14.67671,32.8893 10.64223,14.5748 12.26134,17.304 13.72884,23.1412 1.90433,7.5747 0.33564,11.0782 -8.91942,19.9204 -4.32133,4.1286 -9.86955,8.6859 -12.32936,10.1275 -13.58101,7.959 -31.93542,10.1323 -71.81257,8.5032 z"
       id="path2" />
  </g>
</svg>
