999
dxfrw 0.6.3
  0
SECTION
  2
HEADER
  9
$ACADVER
  1
AC1021
  9
$DWGCODEPAGE
  3
ANSI_1252
  9
$INSBASE
 10
0
 20
0
 30
0
  9
$EXTMIN
 10
0.018939234375
 20
0.01971534375
 30
0
  9
$EXTMAX
 10
46.241180859375
 20
47.59542970312501
 30
0
  9
$LIMMIN
 10
0
 20
0
  9
$LIMMAX
 10
420
 20
297
  9
$ORTHOMODE
 70
    0
  9
$REGENMODE
 70
    1
  9
$FILLMODE
 70
    1
  9
$QTEXTMODE
 70
    0
  9
$MIRRTEXT
 70
    0
  9
$LTSCALE
 40
1
  9
$ATTMODE
 70
    0
  9
$TEXTSIZE
 40
2.5
  9
$TRACEWID
 40
15.68
  9
$TEXTSTYLE
  7
STANDARD
  9
$CLAYER
  8
0
  9
$CELTYPE
  6
BYLAYER
  9
$CECOLOR
 62
  256
  9
$CELTSCALE
 40
1
  9
$DISPSILH
 70
    0
  9
$DIMSCALE
 40
2.5
  9
$DIMASZ
 40
2.5
  9
$DIMEXO
 40
0.625
  9
$DIMDLI
 40
3.75
  9
$DIMRND
 40
0
  9
$DIMDLE
 40
0
  9
$DIMEXE
 40
1.25
  9
$DIMTP
 40
0
  9
$DIMTM
 40
0
  9
$DIMTXT
 40
2.5
  9
$DIMCEN
 40
2.5
  9
$DIMTSZ
 40
0
  9
$DIMTOL
 70
    0
  9
$DIMLIM
 70
    0
  9
$DIMTIH
 70
    0
  9
$DIMTOH
 70
    0
  9
$DIMSE1
 70
    0
  9
$DIMSE2
 70
    0
  9
$DIMTAD
 70
    1
  9
$DIMZIN
 70
    8
  9
$DIMBLK
  1

  9
$DIMASO
 70
    1
  9
$DIMSHO
 70
    1
  9
$DIMPOST
  1

  9
$DIMAPOST
  1

  9
$DIMALT
 70
    0
  9
$DIMALTD
 70
    3
  9
$DIMALTF
 40
0.03937
  9
$DIMLFAC
 40
1
  9
$DIMTOFL
 70
    1
  9
$DIMTVP
 40
0
  9
$DIMTIX
 70
    0
  9
$DIMSOXD
 70
    0
  9
$DIMSAH
 70
    0
  9
$DIMBLK1
  1

  9
$DIMBLK2
  1

  9
$DIMSTYLE
  2
Standard
  9
$DIMCLRD
 70
    0
  9
$DIMCLRE
 70
    0
  9
$DIMCLRT
 70
    0
  9
$DIMTFAC
 40
1
  9
$DIMGAP
 40
0.625
  9
$DIMJUST
 70
    0
  9
$DIMSD1
 70
    0
  9
$DIMSD2
 70
    0
  9
$DIMTOLJ
 70
    0
  9
$DIMTZIN
 70
    8
  9
$DIMALTZ
 70
    0
  9
$DIMALTTZ
 70
    0
  9
$DIMUPT
 70
    0
  9
$DIMDEC
 70
    2
  9
$DIMTDEC
 70
    2
  9
$DIMALTU
 70
    2
  9
$DIMALTTD
 70
    3
  9
$DIMTXSTY
  7
STANDARD
  9
$DIMAUNIT
 70
    0
  9
$DIMADEC
 70
    0
  9
$DIMALTRND
 40
0
  9
$DIMAZIN
 70
    0
  9
$DIMDSEP
 70
   44
  9
$DIMATFIT
 70
    3
  9
$DIMFRAC
 70
    0
  9
$DIMLDRBLK
  1
STANDARD
  9
$DIMLUNIT
 70
    2
  9
$DIMLWD
 70
   -2
  9
$DIMLWE
 70
   -2
  9
$DIMTMOVE
 70
    0
  9
$DIMFXL
 40
1
  9
$DIMFXLON
 70
    0
  9
$DIMJOGANG
 40
0.7854
  9
$DIMTFILL
 70
    0
  9
$DIMTFILLCLR
 70
    0
  9
$DIMARCSYM
 70
    0
  9
$DIMLTYPE
  6

  9
$DIMLTEX1
  6

  9
$DIMLTEX2
  6

  9
$LUNITS
 70
    2
  9
$LUPREC
 70
    4
  9
$SKETCHINC
 40
1
  9
$FILLETRAD
 40
0
  9
$AUNITS
 70
    0
  9
$AUPREC
 70
    2
  9
$MENU
  1
.
  9
$ELEVATION
 40
0
  9
$PELEVATION
 40
0
  9
$THICKNESS
 40
0
  9
$LIMCHECK
 70
    0
  9
$CHAMFERA
 40
0
  9
$CHAMFERB
 40
0
  9
$CHAMFERC
 40
0
  9
$CHAMFERD
 40
0
  9
$SKPOLY
 70
    0
  9
$USRTIMER
 70
    1
  9
$ANGBASE
 50
0
  9
$ANGDIR
 70
    0
  9
$PDMODE
 70
   34
  9
$PDSIZE
 40
0
  9
$PLINEWID
 40
0
  9
$SPLFRAME
 70
    0
  9
$SPLINETYPE
 70
    2
  9
$SPLINESEGS
 70
    8
  9
$HANDSEED
  5
20000
  9
$SURFTAB1
 70
    6
  9
$SURFTAB2
 70
    6
  9
$SURFTYPE
 70
    6
  9
$SURFU
 70
    6
  9
$SURFV
 70
    6
  9
$UCSBASE
  2

  9
$UCSNAME
  2

  9
$UCSORG
 10
0
 20
0
 30
0
  9
$UCSXDIR
 10
1
 20
0
 30
0
  9
$UCSYDIR
 10
0
 20
1
 30
0
  9
$UCSORTHOREF
  2

  9
$UCSORTHOVIEW
 70
    0
  9
$UCSORGTOP
 10
0
 20
0
 30
0
  9
$UCSORGBOTTOM
 10
0
 20
0
 30
0
  9
$UCSORGLEFT
 10
0
 20
0
 30
0
  9
$UCSORGRIGHT
 10
0
 20
0
 30
0
  9
$UCSORGFRONT
 10
0
 20
0
 30
0
  9
$UCSORGBACK
 10
0
 20
0
 30
0
  9
$PUCSBASE
  2

  9
$PUCSNAME
  2

  9
$PUCSORG
 10
0
 20
0
 30
0
  9
$PUCSXDIR
 10
1
 20
0
 30
0
  9
$PUCSYDIR
 10
0
 20
1
 30
0
  9
$PUCSORTHOREF
  2

  9
$PUCSORTHOVIEW
 70
    0
  9
$PUCSORGTOP
 10
0
 20
0
 30
0
  9
$PUCSORGBOTTOM
 10
0
 20
0
 30
0
  9
$PUCSORGLEFT
 10
0
 20
0
 30
0
  9
$PUCSORGRIGHT
 10
0
 20
0
 30
0
  9
$PUCSORGFRONT
 10
0
 20
0
 30
0
  9
$PUCSORGBACK
 10
0
 20
0
 30
0
  9
$USERI1
 70
    0
  9
$USERI2
 70
    0
  9
$USERI3
 70
    0
  9
$USERI4
 70
    0
  9
$USERI5
 70
    0
  9
$USERR1
 40
0
  9
$USERR2
 40
0
  9
$USERR3
 40
0
  9
$USERR4
 40
0
  9
$USERR5
 40
0
  9
$WORLDVIEW
 70
    1
  9
$SHADEDGE
 70
    3
  9
$SHADEDIF
 70
   70
  9
$TILEMODE
 70
    1
  9
$MAXACTVP
 70
   64
  9
$PINSBASE
 10
0
 20
0
 30
0
  9
$PLIMCHECK
 70
    0
  9
$PEXTMIN
 10
0
 20
0
 30
0
  9
$PEXTMAX
 10
0
 20
0
 30
0
  9
$SNAPSTYLE
 70
    0
  9
$PLIMMIN
 10
0
 20
0
  9
$PLIMMAX
 10
210
 20
297
  9
$UNITMODE
 70
    0
  9
$VISRETAIN
 70
    1
  9
$PLINEGEN
 70
    0
  9
$PSLTSCALE
 70
    1
  9
$TREEDEPTH
 70
 3020
  9
$CMLSTYLE
  2
Standard
  9
$CMLJUST
 70
    0
  9
$CMLSCALE
 40
20
  9
$PROXYGRAPHICS
 70
    1
  9
$MEASUREMENT
 70
    1
  9
$CELWEIGHT
370
   -1
  9
$ENDCAPS
280
    0
  9
$JOINSTYLE
280
    0
  9
$LWDISPLAY
290
    0
  9
$INSUNITS
 70
    4
  9
$HYPERLINKBASE
  1

  9
$STYLESHEET
  1

  9
$XEDIT
290
    1
  9
$CEPSNTYPE
380
    0
  9
$PSTYLEMODE
290
    1
  9
$EXTNAMES
290
    1
  9
$PSVPSCALE
 40
1
  9
$OLESTARTUP
290
    0
  9
$SORTENTS
280
  127
  9
$INDEXCTL
280
    0
  9
$HIDETEXT
280
    1
  9
$XCLIPFRAME
290
    0
  9
$HALOGAP
280
    0
  9
$OBSCOLOR
 70
  257
  9
$OBSLTYPE
280
    0
  9
$INTERSECTIONDISPLAY
280
    0
  9
$INTERSECTIONCOLOR
 70
  257
  9
$DIMASSOC
280
    1
  9
$PROJECTNAME
  1

  9
$CAMERADISPLAY
290
    0
  9
$LENSLENGTH
 40
50
  9
$CAMERAHEIGHT
 40
0
  9
$STEPSPERSEC
 40
2
  9
$STEPSIZE
 40
50
  9
$3DDWFPREC
 40
2
  9
$PSOLWIDTH
 40
5
  9
$PSOLHEIGHT
 40
80
  9
$LOFTANG1
 40
1.570796326794897
  9
$LOFTANG2
 40
1.570796326794897
  9
$LOFTMAG1
 40
0
  9
$LOFTMAG2
 40
0
  9
$LOFTPARAM
 70
    7
  9
$LOFTNORMALS
280
    1
  9
$LATITUDE
 40
1
  9
$LONGITUDE
 40
1
  9
$NORTHDIRECTION
 40
0
  9
$TIMEZONE
 70
-8000
  9
$LIGHTGLYPHDISPLAY
280
    1
  9
$TILEMODELIGHTSYNCH
280
    1
  9
$SOLIDHIST
280
    1
  9
$SHOWHIST
280
    1
  9
$DWFFRAME
280
    2
  9
$DGNFRAME
280
    0
  9
$REALWORLDSCALE
290
    1
  9
$INTERFERECOLOR
 62
    1
  9
$CSHADOW
280
    0
  9
$SHADOWPLANELOCATION
 40
0
  0
ENDSEC
  0
SECTION
  2
CLASSES
  0
ENDSEC
  0
SECTION
  2
TABLES
  0
TABLE
  2
VPORT
  5
8
330
0
100
AcDbSymbolTable
 70
    1
  0
VPORT
  5
31
330
2
100
AcDbSymbolTableRecord
100
AcDbViewportTableRecord
  2
*ACTIVE
 70
    0
 10
0
 20
0
 11
1
 21
1
 12
31.37294336289527
 22
29.00154621391238
 13
0
 23
0
 14
10
 24
10
 15
10
 25
10
 16
0
 26
0
 36
1
 17
0
 27
0
 37
0
 40
37.84621666147019
 41
1.85774767146486
 42
50
 43
0
 44
0
 50
0
 51
0
 71
    0
 72
  100
 73
    1
 74
    3
 75
    0
 76
    1
 77
    0
 78
    0
281
    0
 65
    1
110
0
120
0
130
0
111
1
121
0
131
0
112
0
122
1
132
0
 79
    0
146
0
348
10020
 60
    7
 61
    5
292
1
282
    1
141
0
142
0
 63
  250
421
3358443
  0
ENDTAB
  0
TABLE
  2
LTYPE
  5
5
330
0
100
AcDbSymbolTable
 70
    4
  0
LTYPE
  5
14
330
5
100
AcDbSymbolTableRecord
100
AcDbLinetypeTableRecord
  2
ByBlock
 70
    0
  3

 72
   65
 73
    0
 40
0
  0
LTYPE
  5
15
330
5
100
AcDbSymbolTableRecord
100
AcDbLinetypeTableRecord
  2
ByLayer
 70
    0
  3

 72
   65
 73
    0
 40
0
  0
LTYPE
  5
16
330
5
100
AcDbSymbolTableRecord
100
AcDbLinetypeTableRecord
  2
Continuous
 70
    0
  3
Solid line
 72
   65
 73
    0
 40
0
  0
LTYPE
  5
32
330
5
100
AcDbSymbolTableRecord
100
AcDbLinetypeTableRecord
  2
DOT
 70
    0
  3
Dot . . . . . . . . . . . . . . . . . . . . . .
 72
   65
 73
    2
 40
6.35
 49
0
 74
    0
 49
-6.35
 74
    0
  0
LTYPE
  5
33
330
5
100
AcDbSymbolTableRecord
100
AcDbLinetypeTableRecord
  2
DOTTINY
 70
    0
  3
Dot (.15x) .....................................
 72
   65
 73
    2
 40
0.9525
 49
0
 74
    0
 49
-0.9525
 74
    0
  0
LTYPE
  5
34
330
5
100
AcDbSymbolTableRecord
100
AcDbLinetypeTableRecord
  2
DOT2
 70
    0
  3
Dot (.5x) .....................................
 72
   65
 73
    2
 40
3.175
 49
0
 74
    0
 49
-3.175
 74
    0
  0
LTYPE
  5
35
330
5
100
AcDbSymbolTableRecord
100
AcDbLinetypeTableRecord
  2
DOTX2
 70
    0
  3
Dot (2x) .  .  .  .  .  .  .  .  .  .  .  .  .
 72
   65
 73
    2
 40
12.7
 49
0
 74
    0
 49
-12.7
 74
    0
  0
LTYPE
  5
36
330
5
100
AcDbSymbolTableRecord
100
AcDbLinetypeTableRecord
  2
DASHED
 70
    0
  3
Dashed _ _ _ _ _ _ _ _ _ _ _ _ _ _ _ _ _
 72
   65
 73
    2
 40
19.05
 49
12.7
 74
    0
 49
-6.35
 74
    0
  0
LTYPE
  5
37
330
5
100
AcDbSymbolTableRecord
100
AcDbLinetypeTableRecord
  2
DASHEDTINY
 70
    0
  3
Dashed (.15x) _ _ _ _ _ _ _ _ _ _ _ _ _ _ _ _ _
 72
   65
 73
    2
 40
2.8575
 49
1.905
 74
    0
 49
-0.9525
 74
    0
  0
LTYPE
  5
38
330
5
100
AcDbSymbolTableRecord
100
AcDbLinetypeTableRecord
  2
DASHED2
 70
    0
  3
Dashed (.5x) _ _ _ _ _ _ _ _ _ _ _ _ _ _ _ _ _
 72
   65
 73
    2
 40
9.524999999999999
 49
6.35
 74
    0
 49
-3.175
 74
    0
  0
LTYPE
  5
39
330
5
100
AcDbSymbolTableRecord
100
AcDbLinetypeTableRecord
  2
DASHEDX2
 70
    0
  3
Dashed (2x) ____  ____  ____  ____  ____  ___
 72
   65
 73
    2
 40
38.09999999999999
 49
25.4
 74
    0
 49
-12.7
 74
    0
  0
LTYPE
  5
3A
330
5
100
AcDbSymbolTableRecord
100
AcDbLinetypeTableRecord
  2
DASHDOT
 70
    0
  3
Dash dot __ . __ . __ . __ . __ . __ . __ . __
 72
   65
 73
    4
 40
25.4
 49
12.7
 74
    0
 49
-6.35
 74
    0
 49
0
 74
    0
 49
-6.35
 74
    0
  0
LTYPE
  5
3B
330
5
100
AcDbSymbolTableRecord
100
AcDbLinetypeTableRecord
  2
DASHDOTTINY
 70
    0
  3
Dash dot (.15x) _._._._._._._._._._._._._._._.
 72
   65
 73
    4
 40
3.81
 49
1.905
 74
    0
 49
-0.9525
 74
    0
 49
0
 74
    0
 49
-0.9525
 74
    0
  0
LTYPE
  5
3C
330
5
100
AcDbSymbolTableRecord
100
AcDbLinetypeTableRecord
  2
DASHDOT2
 70
    0
  3
Dash dot (.5x) _._._._._._._._._._._._._._._.
 72
   65
 73
    4
 40
12.7
 49
6.35
 74
    0
 49
-3.175
 74
    0
 49
0
 74
    0
 49
-3.175
 74
    0
  0
LTYPE
  5
3D
330
5
100
AcDbSymbolTableRecord
100
AcDbLinetypeTableRecord
  2
DASHDOTX2
 70
    0
  3
Dash dot (2x) ____  .  ____  .  ____  .  ___
 72
   65
 73
    4
 40
50.8
 49
25.4
 74
    0
 49
-12.7
 74
    0
 49
0
 74
    0
 49
-12.7
 74
    0
  0
LTYPE
  5
3E
330
5
100
AcDbSymbolTableRecord
100
AcDbLinetypeTableRecord
  2
DIVIDE
 70
    0
  3
Divide ____ . . ____ . . ____ . . ____ . . ____
 72
   65
 73
    6
 40
31.75
 49
12.7
 74
    0
 49
-6.35
 74
    0
 49
0
 74
    0
 49
-6.35
 74
    0
 49
0
 74
    0
 49
-6.35
 74
    0
  0
LTYPE
  5
3F
330
5
100
AcDbSymbolTableRecord
100
AcDbLinetypeTableRecord
  2
DIVIDETINY
 70
    0
  3
Divide (.15x) __..__..__..__..__..__..__..__.._
 72
   65
 73
    6
 40
4.7625
 49
1.905
 74
    0
 49
-0.9525
 74
    0
 49
0
 74
    0
 49
-0.9525
 74
    0
 49
0
 74
    0
 49
-0.9525
 74
    0
  0
LTYPE
  5
40
330
5
100
AcDbSymbolTableRecord
100
AcDbLinetypeTableRecord
  2
DIVIDE2
 70
    0
  3
Divide (.5x) __..__..__..__..__..__..__..__.._
 72
   65
 73
    6
 40
15.875
 49
6.35
 74
    0
 49
-3.175
 74
    0
 49
0
 74
    0
 49
-3.175
 74
    0
 49
0
 74
    0
 49
-3.175
 74
    0
  0
LTYPE
  5
41
330
5
100
AcDbSymbolTableRecord
100
AcDbLinetypeTableRecord
  2
DIVIDEX2
 70
    0
  3
Divide (2x) ________  .  .  ________  .  .  _
 72
   65
 73
    6
 40
63.5
 49
25.4
 74
    0
 49
-12.7
 74
    0
 49
0
 74
    0
 49
-12.7
 74
    0
 49
0
 74
    0
 49
-12.7
 74
    0
  0
LTYPE
  5
42
330
5
100
AcDbSymbolTableRecord
100
AcDbLinetypeTableRecord
  2
BORDER
 70
    0
  3
Border __ __ . __ __ . __ __ . __ __ . __ __ .
 72
   65
 73
    6
 40
44.45
 49
12.7
 74
    0
 49
-6.35
 74
    0
 49
12.7
 74
    0
 49
-6.35
 74
    0
 49
0
 74
    0
 49
-6.35
 74
    0
  0
LTYPE
  5
43
330
5
100
AcDbSymbolTableRecord
100
AcDbLinetypeTableRecord
  2
BORDERTINY
 70
    0
  3
Border (.15x) __.__.__.__.__.__.__.__.__.__.__.
 72
   65
 73
    6
 40
6.6675
 49
1.905
 74
    0
 49
-0.9525
 74
    0
 49
1.905
 74
    0
 49
-0.9525
 74
    0
 49
0
 74
    0
 49
-0.9525
 74
    0
  0
LTYPE
  5
44
330
5
100
AcDbSymbolTableRecord
100
AcDbLinetypeTableRecord
  2
BORDER2
 70
    0
  3
Border (.5x) __.__.__.__.__.__.__.__.__.__.__.
 72
   65
 73
    6
 40
22.225
 49
6.35
 74
    0
 49
-3.175
 74
    0
 49
6.35
 74
    0
 49
-3.175
 74
    0
 49
0
 74
    0
 49
-3.175
 74
    0
  0
LTYPE
  5
45
330
5
100
AcDbSymbolTableRecord
100
AcDbLinetypeTableRecord
  2
BORDERX2
 70
    0
  3
Border (2x) ____  ____  .  ____  ____  .  ___
 72
   65
 73
    6
 40
88.89999999999999
 49
25.4
 74
    0
 49
-12.7
 74
    0
 49
25.4
 74
    0
 49
-12.7
 74
    0
 49
0
 74
    0
 49
-12.7
 74
    0
  0
LTYPE
  5
46
330
5
100
AcDbSymbolTableRecord
100
AcDbLinetypeTableRecord
  2
CENTER
 70
    0
  3
Center ____ _ ____ _ ____ _ ____ _ ____ _ ____
 72
   65
 73
    4
 40
50.8
 49
31.75
 74
    0
 49
-6.35
 74
    0
 49
6.35
 74
    0
 49
-6.35
 74
    0
  0
LTYPE
  5
47
330
5
100
AcDbSymbolTableRecord
100
AcDbLinetypeTableRecord
  2
CENTERTINY
 70
    0
  3
Center (.15x) ___ _ ___ _ ___ _ ___ _ ___ _ ___
 72
   65
 73
    4
 40
7.619999999999999
 49
4.7625
 74
    0
 49
-0.9525
 74
    0
 49
0.9525
 74
    0
 49
-0.9525
 74
    0
  0
LTYPE
  5
48
330
5
100
AcDbSymbolTableRecord
100
AcDbLinetypeTableRecord
  2
CENTER2
 70
    0
  3
Center (.5x) ___ _ ___ _ ___ _ ___ _ ___ _ ___
 72
   65
 73
    4
 40
28.575
 49
19.05
 74
    0
 49
-3.175
 74
    0
 49
3.175
 74
    0
 49
-3.175
 74
    0
  0
LTYPE
  5
49
330
5
100
AcDbSymbolTableRecord
100
AcDbLinetypeTableRecord
  2
CENTERX2
 70
    0
  3
Center (2x) ________  __  ________  __  _____
 72
   65
 73
    4
 40
101.6
 49
63.5
 74
    0
 49
-12.7
 74
    0
 49
12.7
 74
    0
 49
-12.7
 74
    0
  0
ENDTAB
  0
TABLE
  2
LAYER
  5
2
330
0
100
AcDbSymbolTable
 70
    1
  0
LAYER
  5
10
330
2
100
AcDbSymbolTableRecord
100
AcDbLayerTableRecord
  2
0
 70
    0
 62
    7
  6
CONTINUOUS
370
    0
390
F
  0
LAYER
  5
4A
330
2
100
AcDbSymbolTableRecord
100
AcDbLayerTableRecord
  2
Image
 70
    0
 62
    7
  6
CONTINUOUS
370
   -3
390
F
  0
ENDTAB
  0
TABLE
  2
STYLE
  5
3
330
0
100
AcDbSymbolTable
 70
    3
  0
STYLE
  5
4B
330
2
100
AcDbSymbolTableRecord
100
AcDbTextStyleTableRecord
  2
Standard
 70
    0
 40
0
 41
1
 50
0
 71
    0
 42
1
  3
txt
  4

  0
ENDTAB
  0
TABLE
  2
VIEW
  5
6
330
0
100
AcDbSymbolTable
 70
    0
  0
ENDTAB
  0
TABLE
  2
UCS
  5
7
330
0
100
AcDbSymbolTable
 70
    0
  0
ENDTAB
  0
TABLE
  2
APPID
  5
9
330
0
100
AcDbSymbolTable
 70
    1
  0
APPID
  5
12
330
9
100
AcDbSymbolTableRecord
100
AcDbRegAppTableRecord
  2
ACAD
 70
    0
  0
APPID
  5
4C
330
9
100
AcDbSymbolTableRecord
100
AcDbRegAppTableRecord
  2
LibreCad
 70
    0
  0
ENDTAB
  0
TABLE
  2
DIMSTYLE
  5
A
330
0
100
AcDbSymbolTable
 70
    1
100
AcDbDimStyleTable
 71
    1
  0
DIMSTYLE
105
4D
330
A
100
AcDbSymbolTableRecord
100
AcDbDimStyleTableRecord
  2
Standard
 70
    0
 40
1
 41
2.5
 42
0.625
 43
0.38
 44
1.25
 45
0
 46
0
 47
0
 48
0
 49
1
140
2.5
141
0.09
142
2.5
143
25.4
144
1
145
0
146
1
147
0.625
148
0
 71
    0
 72
    0
 73
    0
 74
    1
 75
    0
 76
    0
 77
    0
 78
    1
 79
    0
170
    0
171
    2
172
    0
173
    0
174
    0
175
    0
176
    0
177
    0
178
    0
179
    0
271
    2
272
    4
273
    2
274
    2
275
    0
276
    0
277
    2
278
    0
279
    0
280
    0
281
    0
282
    0
283
    1
284
    0
285
    0
286
    0
288
    0
289
    3
340
standard
341

371
   -2
372
   -2
  0
ENDTAB
  0
TABLE
  2
BLOCK_RECORD
  5
1
330
0
100
AcDbSymbolTable
 70
    2
  0
BLOCK_RECORD
  5
1F
330
1
100
AcDbSymbolTableRecord
100
AcDbBlockTableRecord
  2
*Model_Space
 70
    0
280
    1
281
    0
  0
BLOCK_RECORD
  5
1E
330
1
100
AcDbSymbolTableRecord
100
AcDbBlockTableRecord
  2
*Paper_Space
 70
    0
280
    1
281
    0
  0
ENDTAB
  0
ENDSEC
  0
SECTION
  2
BLOCKS
  0
BLOCK
  5
20
330
1F
100
AcDbEntity
  8
0
100
AcDbBlockBegin
  2
*Model_Space
 70
    0
 10
0
 20
0
 30
0
  3
*Model_Space
  1

  0
ENDBLK
  5
21
330
1F
100
AcDbEntity
  8
0
100
AcDbBlockEnd
  0
BLOCK
  5
1C
330
1B
100
AcDbEntity
  8
0
100
AcDbBlockBegin
  2
*Paper_Space
 70
    0
 10
0
 20
0
 30
0
  3
*Paper_Space
  1

  0
ENDBLK
  5
1D
330
1F
100
AcDbEntity
  8
0
100
AcDbBlockEnd
  0
ENDSEC
  0
SECTION
  2
ENTITIES
  0
LWPOLYLINE
  5
4E
100
AcDbEntity
  8
0
  6
ByLayer
 62
  256
370
   -1
100
AcDbPolyline
 90
  382
 70
    1
 43
0
 10
16.09877846872832
 20
0.5327919127913209
 10
12.19866450038819
 20
0.8044591041062205
 10
11.22978107091124
 20
0.9353245715369739
 10
10.31089877465675
 20
1.132053153028131
 10
9.469908799487676
 20
1.387074886957357
 10
9.094365176441036
 20
1.531542775980182
 10
8.743067392547824
 20
1.690139956101533
 10
8.415998020383382
 20
1.84351369798764
 10
8.131387860713808
 20
1.952459183000036
 10
7.831969147529156
 20
2.032956766894508
 10
7.449994003716888
 20
2.108251878919852
 10
6.872725658990049
 20
2.178212857238603
 10
5.907419451078397
 20
2.196951056686582
 10
5.248416555428136
 20
2.203013468078777
 10
4.890892827623665
 20
2.226531501058134
 10
4.660966043213682
 20
2.284034094301307
 10
4.3738060679666
 20
2.404947620294142
 10
3.830251460566596
 20
2.691906168457268
 10
3.201664045684902
 20
3.095565987670907
 10
2.588849705799123
 20
3.547366023755956
 10
2.095166647042248
 20
3.975089634227571
 10
1.260670570352151
 20
4.872132112943183
 10
0.513878201066837
 20
5.734428657475558
 10
0.3952787995183931
 20
5.90458925216742
 10
0.3175650743721001
 20
6.04593201862816
 10
0.2795750231375034
 20
6.15532142035353
 10
0.2710483042552571
 20
6.241583915665439
 10
0.2856132213101064
 20
6.326442213829606
 10
0.3309323380979947
 20
6.431386688052654
 10
0.4180348625561976
 20
6.564807429942639
 10
0.5472502513794719
 20
6.722635376398991
 10
0.9380865726175367
 20
7.101009527018023
 10
1.308446286210214
 20
7.419767737555898
 10
1.206580867069826
 20
7.713993794665833
 10
1.082483280807096
 20
8.233181990160553
 10
1.021269237434414
 20
8.710333144799025
 10
1.050678140266251
 20
8.982128364193676
 10
1.145224550908311
 20
9.356800671496673
 10
1.305861793938101
 20
9.819222076888394
 10
1.528427211022544
 20
10.35280132393913
 10
1.582945214175282
 20
10.4545778182114
 10
1.606891263290507
 20
10.47922370156203
 10
1.632976254518645
 20
10.48959242756873
 10
1.719860429837638
 20
10.49611313467154
 10
1.827936169176194
 20
10.47936094774071
 10
1.956028071402336
 20
10.42173520192341
 10
2.127408761531029
 20
10.30103318035989
 10
2.352281061055008
 20
10.10009327360767
 10
2.602115225392085
 20
9.875611483959974
 10
2.834685503981001
 20
9.725018406095121
 10
3.09599939406127
 20
9.680263868679557
 10
3.326148807041057
 20
9.78550239227247
 10
3.462461744620598
 20
9.91798905832688
 10
3.575257290447943
 20
10.07157506672375
 10
3.639628273149131
 20
10.24392573695213
 10
3.665842109766308
 20
10.53453093033559
 10
3.680671117345113
 20
12.04533657180803
 10
3.696910771657688
 20
13.42753585698317
 10
3.730148415857895
 20
14.26450469504085
 10
3.915150707107832
 20
15.96030621982536
 10
4.021813000841215
 20
16.68131624789859
 10
4.139295994565086
 20
17.32555369906206
 10
4.268119089361187
 20
17.89632341446756
 10
4.408880137274656
 20
18.39834610884743
 10
4.562027333726347
 20
18.83644918060672
 10
4.726477682640499
 20
19.21249884839995
 10
4.98542998102965
 20
19.65450072101416
 10
5.378827118809399
 20
20.17952405273245
 10
5.935077538265624
 20
20.81916457754836
 10
6.67765944538268
 20
21.6003942629815
 10
7.452765214379287
 20
22.3663063773903
 10
8.248799494046523
 20
23.10507379292475
 10
9.048405984531332
 20
23.80294835966692
 10
9.833914233773868
 20
24.44595885329511
 10
10.58746528450881
 20
25.02007965517223
 10
11.29077942191012
 20
25.51114268466641
 10
11.9245815533729
 20
25.90468556572166
 10
12.46838903056946
 20
26.18649338464142
 10
12.96701990400429
 20
26.37613259792049
 10
13.62525278139395
 20
26.57244747358932
 10
14.37646986052481
 20
26.75617101228606
 10
15.15578531161449
 20
26.90957213874609
 10
16.0226186942196
 20
27.0432601808929
 10
16.82999778314507
 20
27.13479862399839
 10
17.61208334275244
 20
27.1873968145682
 10
18.40425525736646
 20
27.20425740483557
 10
19.16265926232609
 20
27.1876547378004
 10
19.82806799777796
 20
27.12991166558061
 10
20.50762287766777
 20
27.01814448397541
 10
21.30597966635969
 20
26.83849594394423
 10
22.08834791009453
 20
26.62154897718522
 10
22.76854981927101
 20
26.37743687637958
 10
23.36507792091911
 20
26.09983403531766
 10
23.90682014476373
 20
25.77580011082246
 10
24.2705600712078
 20
25.55256732404172
 10
24.43417508841993
 20
25.50219967593673
 10
24.59987224908195
 20
25.49181205428657
 10
24.8660064862901
 20
25.52527127563751
 10
25.13411947725041
 20
25.64988810915101
 10
25.42415388109594
 20
25.87071012197343
 10
25.78889634467072
 20
26.20497596662249
 10
26.32384833176465
 20
26.67882624470599
 10
26.79201360208048
 20
27.01894352660423
 10
26.99422496493689
 20
27.13626845870077
 10
27.18041127315926
 20
27.2230923512396
 10
27.34570395886373
 20
27.27868236326259
 10
27.51106533340429
 20
27.30955811859248
 10
27.73636661930231
 20
27.35380300451679
 10
27.95196788341511
 20
27.4634130220389
 10
28.12215719870055
 20
27.63893062702799
 10
28.25633330068567
 20
27.86687804979024
 10
28.39074826815808
 20
28.21209571490147
 10
28.48560497238389
 20
28.63178434411606
 10
28.54919354607322
 20
29.15442695862141
 10
28.58965856945731
 20
29.8122769573625
 10
28.66158036438361
 20
31.10547007722183
 10
28.72549723979135
 20
32.27999662231671
 10
28.7261682362759
 20
32.78531654559839
 10
28.7049929016847
 20
33.23665927086251
 10
28.66107057348967
 20
33.64089268825666
 10
28.59319867228643
 20
34.00279664920065
 10
28.49989471488233
 20
34.32666909549977
 10
28.37801421255384
 20
34.61986311362848
 10
28.19690105980391
 20
34.91067493864514
 10
27.94677385123265
 20
35.24404214543863
 10
27.43245175655589
 20
35.89084433122165
 10
26.96415668312791
 20
36.51382063573122
 10
26.54063340661837
 20
37.11353056140082
 10
26.16481760657997
 20
37.68519139656892
 10
25.83966964839039
 20
38.22386007641418
 10
25.56817323614817
 20
38.72431854961145
 10
25.35330601315213
 20
39.18085653236076
 10
25.19803898773019
 20
39.58651106218907
 10
25.12661564858177
 20
39.8540803384005
 10
25.06699662232412
 20
40.19833131347891
 10
25.01998440840672
 20
40.62881371095536
 10
24.98621113584079
 20
41.15122262032089
 10
24.95771689218026
 20
42.51243005847374
 10
24.97983978070784
 20
44.34081609014347
 10
25.04259516561709
 20
46.32194679523101
 10
25.08190467636661
 20
46.67669473067721
 10
25.1303235955469
 20
46.82872666698124
 10
25.20447942152489
 20
46.94707921968575
 10
25.31239693569287
 20
47.05665440681532
 10
25.4539958608459
 20
47.1538585254987
 10
25.62786757689923
 20
47.23485738554465
 10
25.83085421736229
 20
47.29579918875218
 10
26.05890055719516
 20
47.33341946773312
 10
26.30763000494676
 20
47.34506524147839
 10
26.57407361078486
 20
47.32845987586298
 10
26.82160422004904
 20
47.28978748737252
 10
27.05647712949911
 20
47.23164305543741
 10
27.28072229972179
 20
47.15307828696746
 10
27.49834797863232
 20
47.05238619825177
 10
27.71314517341685
 20
46.92744265282536
 10
27.92499024441005
 20
46.77836644418688
 10
28.37442081842943
 20
46.38152787068894
 10
28.62635563873689
 20
46.11864420836127
 10
28.83766895304833
 20
45.85957870601533
 10
29.06870514713919
 20
45.52294285551903
 10
29.38016139829992
 20
45.02404825304021
 10
29.8375670408195
 20
44.31301034072411
 10
30.19746218670132
 20
43.84812227438774
 10
30.36558197754084
 20
43.68717549982595
 10
30.54154602350837
 20
43.57482190011304
 10
30.7511423409529
 20
43.52837999343973
 10
30.96341007589223
 20
43.59389388803329
 10
31.12847645486136
 20
43.76285112741405
 10
31.20778810339881
 20
43.99792409221254
 10
31.24613811115672
 20
44.30795105557828
 10
31.27107264112075
 20
44.756806226035
 10
31.31566132602152
 20
45.49139683888353
 10
31.3462134513939
 20
45.67337292638893
 10
31.39360406437016
 20
45.84560120842479
 10
31.47967066908562
 20
46.05016954601405
 10
31.51668234269484
 20
46.10010190247844
 10
31.56231764360728
 20
46.14118569967487
 10
31.76480415716926
 20
46.24533443348397
 10
32.11910454171354
 20
46.35079859092299
 10
32.37825105202569
 20
46.40769211820158
 10
32.59709349735789
 20
46.43757664336413
 10
32.77527738628743
 20
46.44130641066318
 10
32.91667883210744
 20
46.4220387700952
 10
33.02993526122866
 20
46.38305185109947
 10
33.1280518517454
 20
46.32318134167096
 10
33.22218278740927
 20
46.2351373591143
 10
33.31799945873983
 20
46.10966570028507
 10
33.7447327207289
 20
45.39869021313052
 10
34.19324708552897
 20
44.52865133116608
 10
34.6459028106793
 20
43.54055645735561
 10
35.0870333786896
 20
42.47314357158182
 10
35.50149122663218
 20
41.364597967961
 10
35.87433097215578
 20
40.2529723013829
 10
36.19069182903758
 20
39.17648698965539
 10
36.43552014561899
 20
38.1749671641676
 10
36.52785222275297
 20
37.63381794458156
 10
36.57522629115525
 20
36.96239741699857
 10
36.70468856227398
 20
34.97075176772864
 10
36.7274626260043
 20
34.7942282618121
 10
36.77684168873968
 20
34.62478400654289
 10
36.87074397874825
 20
34.46845379326104
 10
37.01241154966714
 20
34.3476830829503
 10
37.18290121315853
 20
34.27144594150489
 10
37.37775966274188
 20
34.22566826189011
 10
37.84229861377929
 20
34.18422644149967
 10
38.32040940790972
 20
34.14107386977983
 10
38.78646956051784
 20
34.05330199264403
 10
39.28744959552145
 20
33.91111971369874
 10
39.85786102924881
 20
33.70510661042589
 10
40.24524051299629
 20
33.54454218887251
 10
40.56168277571319
 20
33.38717618032294
 10
40.82813906644729
 20
33.21586103979404
 10
41.07116858555366
 20
33.00922018314018
 10
41.31584410131143
 20
32.74262027373191
 10
41.58146384091746
 20
32.39430919732737
 10
42.25659010525455
 20
31.36260246204157
 10
42.90376127380915
 20
30.34941411905483
 10
43.3284944671634
 20
29.76265958559958
 10
43.51539052119337
 20
29.50832485088711
 10
43.66502629928598
 20
29.25918288367272
 10
43.81563048804031
 20
28.94707167689381
 10
43.99770755674493
 20
28.51058757799656
 10
44.27251689759284
 20
27.8659496337704
 10
44.52293103818008
 20
27.41356739587451
 10
44.66586401461187
 20
27.22553560765093
 10
44.82461550722998
 20
27.0595186552834
 10
45.18019342240972
 20
26.7777046660204
 10
45.35528166285926
 20
26.63155162806911
 10
45.51076854760154
 20
26.45743961941709
 10
45.65533518209291
 20
26.24717080601234
 10
45.78448389123383
 20
26.00438924914553
 10
45.87954108077879
 20
25.7732702546347
 10
45.94248240499935
 20
25.553973513769
 10
45.97848392021771
 20
25.32705148423961
 10
45.99086333108772
 20
25.07347407640009
 10
45.97704721331147
 20
24.80811974444553
 10
45.92843851321258
 20
24.60363199458957
 10
45.82886968844473
 20
24.39787551311162
 10
45.64722754958551
 20
24.13300941072522
 10
45.04755268071126
 20
23.30464051701835
 10
44.44342608951737
 20
22.48947729753621
 10
44.20235240750841
 20
22.20217328198484
 10
43.98656581937308
 20
21.97823671278506
 10
43.78757127189662
 20
21.8077265466222
 10
43.59349647292795
 20
21.67744969779375
 10
43.3895258863208
 20
21.57410123633834
 10
43.16256636995308
 20
21.48754468835778
 10
42.50125415915133
 20
21.30443183903981
 10
41.63643686842394
 20
21.11420949385801
 10
40.76585779179182
 20
20.95715039944134
 10
40.07654590665835
 20
20.87079253089811
 10
39.79529436121765
 20
20.83732715140648
 10
39.54426535801648
 20
20.76553489993403
 10
39.32317661067956
 20
20.64221925764476
 10
39.11763042316539
 20
20.4664740353512
 10
38.9225478659169
 20
20.24193179085905
 10
38.77324232062994
 20
19.99418525453904
 10
38.67681179966583
 20
19.7310083191968
 10
38.64307039707132
 20
19.46725444821159
 10
38.65940411008964
 20
19.24201650294638
 10
38.73542472276191
 20
19.0230451890874
 10
38.88604667218218
 20
18.76856214337955
 10
39.13096467378101
 20
18.41218339020811
 10
39.3818524937851
 20
18.02883332643941
 10
39.45333371988139
 20
17.88820414900438
 10
39.50212094339168
 20
17.75457844222259
 10
39.53430364013614
 20
17.60990880296921
 10
39.55345325601728
 20
17.43610171695674
 10
39.56267098275722
 20
16.9275400550311
 10
39.52508314416652
 20
16.00045424216302
 10
39.43111353948068
 20
15.20985713631059
 10
39.36584193767774
 20
14.87956173275658
 10
39.28885388711927
 20
14.59162190941856
 10
39.20277654466381
 20
14.35319175407303
 10
39.10079897038285
 20
14.14791927500433
 10
38.90283098354406
 20
13.71977687388045
 10
38.74940440382161
 20
13.19068315415021
 10
38.65274834818734
 20
12.61057604888431
 10
38.61949836716505
 20
12.0208215632558
 10
38.60221847302251
 20
11.56646247401373
 10
38.55297730495079
 20
11.14096133828164
 10
38.47331126148619
 20
10.73811947654671
 10
38.36541772396852
 20
10.36362441790187
 10
38.23179489465043
 20
10.02319629042609
 10
38.07537454621296
 20
9.722502000549328
 10
37.8996692170659
 20
9.466927128730433
 10
37.70865026882014
 20
9.260904919991223
 10
37.47382718715673
 20
9.081972814896083
 10
37.17842299687189
 20
8.92858605912855
 10
36.79191187544337
 20
8.79092507889577
 10
36.28190286301268
 20
8.660368529541756
 10
35.87501874527299
 20
8.552851246214697
 10
35.52717046606769
 20
8.419179587324017
 10
35.23485788308751
 20
8.251517179741006
 10
34.99559890879029
 20
8.046477594262242
 10
34.83381886985976
 20
7.857844568386396
 10
34.70361069579737
 20
7.661858343176266
 10
34.60295221939483
 20
7.454929120234232
 10
34.53332191877858
 20
7.238397735270744
 10
34.49569378373699
 20
7.014277076196627
 10
34.49022186104221
 20
6.784817626367406
 10
34.51627250366337
 20
6.551963331430776
 10
34.57251847256782
 20
6.317979673101106
 10
34.66847761528035
 20
6.046606234822337
 10
34.79606912811487
 20
5.794763487499764
 10
34.96996530264428
 20
5.554375793612628
 10
35.19918064142664
 20
5.318166241147706
 10
35.49419058111098
 20
5.072605322762538
 10
35.87065566620544
 20
4.800368590547282
 10
36.92428740939302
 20
4.118255091054131
 10
38.1706002681418
 20
3.316541563592328
 10
38.46449324565839
 20
3.099675602874502
 10
38.63907673615338
 20
2.939330020426106
 10
38.75976658552641
 20
2.801892873776854
 10
38.83609607627115
 20
2.69125842295275
 10
38.88463636587579
 20
2.586559528942609
 10
38.9206087227604
 20
2.459764149019762
 10
38.93266058878766
 20
2.36563349868787
 10
38.92715055324086
 20
2.28056391234922
 10
38.90547969160576
 20
2.198282280683188
 10
38.86702001821713
 20
2.117527536047435
 10
38.81039591124056
 20
2.03830872263658
 10
38.73428389575795
 20
1.961880651882159
 10
38.63786697307368
 20
1.890314936877908
 10
38.52094665000987
 20
1.826058746096794
 10
38.33999874461553
 20
1.754266267703563
 10
38.10498281273619
 20
1.683728018417908
 10
37.49198398287977
 20
1.551736186429854
 10
36.75877345800649
 20
1.444265854936424
 10
35.96013758182601
 20
1.366214020736275
 10
35.15276626556069
 20
1.322160418664316
 10
34.39320356469457
 20
1.316202141521529
 10
33.74022844481674
 20
1.351707370585053
 10
33.25320240244619
 20
1.429789410499546
 10
32.85728999267045
 20
1.563130585042634
 10
32.39026896437938
 20
1.79757257570522
 10
31.77992494521687
 20
2.178421567864914
 10
30.9558515987784
 20
2.748643498366299
 10
29.97245024143949
 20
3.424582340212968
 10
29.61938556326738
 20
3.640900497067729
 10
29.31140958224562
 20
3.806724011759367
 10
29.04971369722956
 20
3.950417862923044
 10
28.85034355502965
 20
4.093039016211506
 10
28.65625246665185
 20
4.277311663817327
 10
28.41884858124942
 20
4.549359996697531
 10
28.14600068731589
 20
4.8570519186304
 10
27.89030527296432
 20
5.067907620286919
 10
27.6114938817675
 20
5.179427610287938
 10
27.30139288622456
 20
5.205003493256315
 10
26.92101606260798
 20
5.169594092381474
 10
26.49186382574541
 20
5.05709314309022
 10
25.96336172644494
 20
4.855398973455625
 10
25.27981597464957
 20
4.549656911981604
 10
24.5639857867465
 20
4.230922781998665
 10
24.32823452369665
 20
4.189503117472323
 10
23.87892548666867
 20
4.149613537535036
 10
23.34470669570632
 20
4.104719758021061
 10
22.95639541990043
 20
4.032677718849651
 10
22.68035903567812
 20
3.906105160056703
 10
22.56107115259987
 20
3.791823359569499
 10
22.48077958112153
 20
3.663895566660495
 10
22.43203020847682
 20
3.51673575090334
 10
22.42430766645922
 20
3.356480818406272
 10
22.45484346790221
 20
3.19502999480243
 10
22.51774839835104
 20
3.026424000403059
 10
22.72101359593997
 20
2.663526843509316
 10
23.04927573139189
 20
2.190355963613738
 10
23.42280799654763
 20
1.652176557441881
 10
23.48597651182553
 20
1.527223806279118
 10
23.52078816897621
 20
1.416588406692114
 10
23.53806134586169
 20
1.293583765771274
 10
23.52128093464227
 20
1.218370291872413
 10
23.44477113025743
 20
1.102611043878937
 10
23.26049066647917
 20
0.9113201313098661
 10
23.02067155426062
 20
0.6991557373519138
 10
22.84284750754951
 20
0.5672134942100882
 10
22.67583820712174
 20
0.4823781701673812
 10
22.47938651271466
 20
0.410324742274172
 10
22.24900424966391
 20
0.3529348762121572
 10
21.97924506091563
 20
0.3107884929388511
 10
21.27038656295226
 20
0.2698472747749933
 10
20.3125039269652
 20
0.2873631347594642
  0
ENDSEC
  0
SECTION
  2
OBJECTS
  0
DICTIONARY
  5
C
330
0
100
AcDbDictionary
281
    1
  3
ACAD_GROUP
350
D
  0
DICTIONARY
  5
D
330
C
100
AcDbDictionary
281
    1
  0
PLOTSETTINGS
  5
4F
100
AcDbPlotSettings
  6
1x1
 40
0
 41
0
 42
0
 43
0
  0
ENDSEC
  0
EOF
