999
dxfrw 0.6.3
  0
SECTION
  2
HEADER
  9
$ACADVER
  1
AC1021
  9
$DWGCODEPAGE
  3
ANSI_1252
  9
$INSBASE
 10
0
 20
0
 30
0
  9
$EXTMIN
 10
-42.89629743768242
 20
48.10115659828733
 30
0
  9
$EXTMAX
 10
112.7940505803526
 20
115.3897625982873
 30
0
  9
$LIMMIN
 10
0
 20
0
  9
$LIMMAX
 10
420
 20
297
  9
$ORTHOMODE
 70
    0
  9
$REGENMODE
 70
    1
  9
$FILLMODE
 70
    1
  9
$QTEXTMODE
 70
    0
  9
$MIRRTEXT
 70
    0
  9
$LTSCALE
 40
1
  9
$ATTMODE
 70
    0
  9
$TEXTSIZE
 40
2.5
  9
$TRACEWID
 40
15.68
  9
$TEXTSTYLE
  7
STANDARD
  9
$CLAYER
  8
1mm
  9
$CELTYPE
  6
BYLAYER
  9
$CECOLOR
 62
  256
  9
$CELTSCALE
 40
1
  9
$DISPSILH
 70
    0
  9
$DIMSCALE
 40
2.5
  9
$DIMASZ
 40
2.5
  9
$DIMEXO
 40
0.625
  9
$DIMDLI
 40
3.75
  9
$DIMRND
 40
0
  9
$DIMDLE
 40
0
  9
$DIMEXE
 40
1.25
  9
$DIMTP
 40
0
  9
$DIMTM
 40
0
  9
$DIMTXT
 40
2.5
  9
$DIMCEN
 40
2.5
  9
$DIMTSZ
 40
0
  9
$DIMTOL
 70
    0
  9
$DIMLIM
 70
    0
  9
$DIMTIH
 70
    0
  9
$DIMTOH
 70
    0
  9
$DIMSE1
 70
    0
  9
$DIMSE2
 70
    0
  9
$DIMTAD
 70
    1
  9
$DIMZIN
 70
    8
  9
$DIMBLK
  1

  9
$DIMASO
 70
    1
  9
$DIMSHO
 70
    1
  9
$DIMPOST
  1

  9
$DIMAPOST
  1

  9
$DIMALT
 70
    0
  9
$DIMALTD
 70
    3
  9
$DIMALTF
 40
0.03937
  9
$DIMLFAC
 40
1
  9
$DIMTOFL
 70
    1
  9
$DIMTVP
 40
0
  9
$DIMTIX
 70
    0
  9
$DIMSOXD
 70
    0
  9
$DIMSAH
 70
    0
  9
$DIMBLK1
  1

  9
$DIMBLK2
  1

  9
$DIMSTYLE
  2
Standard
  9
$DIMCLRD
 70
    0
  9
$DIMCLRE
 70
    0
  9
$DIMCLRT
 70
    0
  9
$DIMTFAC
 40
1
  9
$DIMGAP
 40
0.625
  9
$DIMJUST
 70
    0
  9
$DIMSD1
 70
    0
  9
$DIMSD2
 70
    0
  9
$DIMTOLJ
 70
    0
  9
$DIMTZIN
 70
    8
  9
$DIMALTZ
 70
    0
  9
$DIMALTTZ
 70
    0
  9
$DIMUPT
 70
    0
  9
$DIMDEC
 70
    2
  9
$DIMTDEC
 70
    2
  9
$DIMALTU
 70
    2
  9
$DIMALTTD
 70
    3
  9
$DIMTXSTY
  7
STANDARD
  9
$DIMAUNIT
 70
    0
  9
$DIMADEC
 70
    0
  9
$DIMALTRND
 40
0
  9
$DIMAZIN
 70
    0
  9
$DIMDSEP
 70
   44
  9
$DIMATFIT
 70
    3
  9
$DIMFRAC
 70
    0
  9
$DIMLDRBLK
  1
STANDARD
  9
$DIMLUNIT
 70
    2
  9
$DIMLWD
 70
   -2
  9
$DIMLWE
 70
   -2
  9
$DIMTMOVE
 70
    0
  9
$DIMFXL
 40
1
  9
$DIMFXLON
 70
    0
  9
$DIMJOGANG
 40
0.7854
  9
$DIMTFILL
 70
    0
  9
$DIMTFILLCLR
 70
    0
  9
$DIMARCSYM
 70
    0
  9
$DIMLTYPE
  6

  9
$DIMLTEX1
  6

  9
$DIMLTEX2
  6

  9
$LUNITS
 70
    2
  9
$LUPREC
 70
    4
  9
$SKETCHINC
 40
1
  9
$FILLETRAD
 40
0
  9
$AUNITS
 70
    0
  9
$AUPREC
 70
    2
  9
$MENU
  1
.
  9
$ELEVATION
 40
0
  9
$PELEVATION
 40
0
  9
$THICKNESS
 40
0
  9
$LIMCHECK
 70
    0
  9
$CHAMFERA
 40
0
  9
$CHAMFERB
 40
0
  9
$CHAMFERC
 40
0
  9
$CHAMFERD
 40
0
  9
$SKPOLY
 70
    0
  9
$USRTIMER
 70
    1
  9
$ANGBASE
 50
0
  9
$ANGDIR
 70
    0
  9
$PDMODE
 70
   34
  9
$PDSIZE
 40
0
  9
$PLINEWID
 40
0
  9
$SPLFRAME
 70
    0
  9
$SPLINETYPE
 70
    2
  9
$SPLINESEGS
 70
    8
  9
$HANDSEED
  5
20000
  9
$SURFTAB1
 70
    6
  9
$SURFTAB2
 70
    6
  9
$SURFTYPE
 70
    6
  9
$SURFU
 70
    6
  9
$SURFV
 70
    6
  9
$UCSBASE
  2

  9
$UCSNAME
  2

  9
$UCSORG
 10
0
 20
0
 30
0
  9
$UCSXDIR
 10
1
 20
0
 30
0
  9
$UCSYDIR
 10
0
 20
1
 30
0
  9
$UCSORTHOREF
  2

  9
$UCSORTHOVIEW
 70
    0
  9
$UCSORGTOP
 10
0
 20
0
 30
0
  9
$UCSORGBOTTOM
 10
0
 20
0
 30
0
  9
$UCSORGLEFT
 10
0
 20
0
 30
0
  9
$UCSORGRIGHT
 10
0
 20
0
 30
0
  9
$UCSORGFRONT
 10
0
 20
0
 30
0
  9
$UCSORGBACK
 10
0
 20
0
 30
0
  9
$PUCSBASE
  2

  9
$PUCSNAME
  2

  9
$PUCSORG
 10
0
 20
0
 30
0
  9
$PUCSXDIR
 10
1
 20
0
 30
0
  9
$PUCSYDIR
 10
0
 20
1
 30
0
  9
$PUCSORTHOREF
  2

  9
$PUCSORTHOVIEW
 70
    0
  9
$PUCSORGTOP
 10
0
 20
0
 30
0
  9
$PUCSORGBOTTOM
 10
0
 20
0
 30
0
  9
$PUCSORGLEFT
 10
0
 20
0
 30
0
  9
$PUCSORGRIGHT
 10
0
 20
0
 30
0
  9
$PUCSORGFRONT
 10
0
 20
0
 30
0
  9
$PUCSORGBACK
 10
0
 20
0
 30
0
  9
$USERI1
 70
    0
  9
$USERI2
 70
    0
  9
$USERI3
 70
    0
  9
$USERI4
 70
    0
  9
$USERI5
 70
    0
  9
$USERR1
 40
0
  9
$USERR2
 40
0
  9
$USERR3
 40
0
  9
$USERR4
 40
0
  9
$USERR5
 40
0
  9
$WORLDVIEW
 70
    1
  9
$SHADEDGE
 70
    3
  9
$SHADEDIF
 70
   70
  9
$TILEMODE
 70
    1
  9
$MAXACTVP
 70
   64
  9
$PINSBASE
 10
0
 20
0
 30
0
  9
$PLIMCHECK
 70
    0
  9
$PEXTMIN
 10
0
 20
0
 30
0
  9
$PEXTMAX
 10
0
 20
0
 30
0
  9
$GRIDMODE
 70
    1
  9
$SNAPSTYLE
 70
    0
  9
$PLIMMIN
 10
0
 20
0
  9
$PLIMMAX
 10
210
 20
297
  9
$UNITMODE
 70
    0
  9
$VISRETAIN
 70
    1
  9
$PLINEGEN
 70
    0
  9
$PSLTSCALE
 70
    1
  9
$TREEDEPTH
 70
 3020
  9
$CMLSTYLE
  2
Standard
  9
$CMLJUST
 70
    0
  9
$CMLSCALE
 40
20
  9
$PROXYGRAPHICS
 70
    1
  9
$MEASUREMENT
 70
    1
  9
$CELWEIGHT
370
   -1
  9
$ENDCAPS
280
    0
  9
$JOINSTYLE
280
    0
  9
$LWDISPLAY
290
    0
  9
$INSUNITS
 70
    4
  9
$HYPERLINKBASE
  1

  9
$STYLESHEET
  1

  9
$XEDIT
290
    1
  9
$CEPSNTYPE
380
    0
  9
$PSTYLEMODE
290
    1
  9
$EXTNAMES
290
    1
  9
$PSVPSCALE
 40
1
  9
$OLESTARTUP
290
    0
  9
$SORTENTS
280
  127
  9
$INDEXCTL
280
    0
  9
$HIDETEXT
280
    1
  9
$XCLIPFRAME
290
    0
  9
$HALOGAP
280
    0
  9
$OBSCOLOR
 70
  257
  9
$OBSLTYPE
280
    0
  9
$INTERSECTIONDISPLAY
280
    0
  9
$INTERSECTIONCOLOR
 70
  257
  9
$DIMASSOC
280
    1
  9
$PROJECTNAME
  1

  9
$CAMERADISPLAY
290
    0
  9
$LENSLENGTH
 40
50
  9
$CAMERAHEIGHT
 40
0
  9
$STEPSPERSEC
 40
2
  9
$STEPSIZE
 40
50
  9
$3DDWFPREC
 40
2
  9
$PSOLWIDTH
 40
5
  9
$PSOLHEIGHT
 40
80
  9
$LOFTANG1
 40
1.570796326794897
  9
$LOFTANG2
 40
1.570796326794897
  9
$LOFTMAG1
 40
0
  9
$LOFTMAG2
 40
0
  9
$LOFTPARAM
 70
    7
  9
$LOFTNORMALS
280
    1
  9
$LATITUDE
 40
1
  9
$LONGITUDE
 40
1
  9
$NORTHDIRECTION
 40
0
  9
$TIMEZONE
 70
-8000
  9
$LIGHTGLYPHDISPLAY
280
    1
  9
$TILEMODELIGHTSYNCH
280
    1
  9
$SOLIDHIST
280
    1
  9
$SHOWHIST
280
    1
  9
$DWFFRAME
280
    2
  9
$DGNFRAME
280
    0
  9
$REALWORLDSCALE
290
    1
  9
$INTERFERECOLOR
 62
    1
  9
$CSHADOW
280
    0
  9
$SHADOWPLANELOCATION
 40
0
  0
ENDSEC
  0
SECTION
  2
CLASSES
  0
ENDSEC
  0
SECTION
  2
TABLES
  0
TABLE
  2
VPORT
  5
8
330
0
100
AcDbSymbolTable
 70
    1
  0
VPORT
  5
31
330
2
100
AcDbSymbolTableRecord
100
AcDbViewportTableRecord
  2
*ACTIVE
 70
    0
 10
0
 20
0
 11
1
 21
1
 12
57.19237274131897
 22
61.08463144176984
 13
0
 23
0
 14
10
 24
10
 15
10
 25
10
 16
0
 26
0
 36
1
 17
0
 27
0
 37
0
 40
80.86366034814264
 41
1.964636542239686
 42
50
 43
0
 44
0
 50
0
 51
0
 71
    0
 72
  100
 73
    1
 74
    3
 75
    0
 76
    1
 77
    0
 78
    0
281
    0
 65
    1
110
0
120
0
130
0
111
1
121
0
131
0
112
0
122
1
132
0
 79
    0
146
0
348
10020
 60
    7
 61
    5
292
1
282
    1
141
0
142
0
 63
  250
421
3358443
  0
ENDTAB
  0
TABLE
  2
LTYPE
  5
5
330
0
100
AcDbSymbolTable
 70
    4
  0
LTYPE
  5
14
330
5
100
AcDbSymbolTableRecord
100
AcDbLinetypeTableRecord
  2
ByBlock
 70
    0
  3

 72
   65
 73
    0
 40
0
  0
LTYPE
  5
15
330
5
100
AcDbSymbolTableRecord
100
AcDbLinetypeTableRecord
  2
ByLayer
 70
    0
  3

 72
   65
 73
    0
 40
0
  0
LTYPE
  5
16
330
5
100
AcDbSymbolTableRecord
100
AcDbLinetypeTableRecord
  2
Continuous
 70
    0
  3
Solid line
 72
   65
 73
    0
 40
0
  0
LTYPE
  5
32
330
5
100
AcDbSymbolTableRecord
100
AcDbLinetypeTableRecord
  2
DOT
 70
    0
  3
Dot . . . . . . . . . . . . . . . . . . . . . .
 72
   65
 73
    2
 40
6.35
 49
0
 74
    0
 49
-6.35
 74
    0
  0
LTYPE
  5
33
330
5
100
AcDbSymbolTableRecord
100
AcDbLinetypeTableRecord
  2
DOTTINY
 70
    0
  3
Dot (.15x) .....................................
 72
   65
 73
    2
 40
0.9525
 49
0
 74
    0
 49
-0.9525
 74
    0
  0
LTYPE
  5
34
330
5
100
AcDbSymbolTableRecord
100
AcDbLinetypeTableRecord
  2
DOT2
 70
    0
  3
Dot (.5x) .....................................
 72
   65
 73
    2
 40
3.175
 49
0
 74
    0
 49
-3.175
 74
    0
  0
LTYPE
  5
35
330
5
100
AcDbSymbolTableRecord
100
AcDbLinetypeTableRecord
  2
DOTX2
 70
    0
  3
Dot (2x) .  .  .  .  .  .  .  .  .  .  .  .  .
 72
   65
 73
    2
 40
12.7
 49
0
 74
    0
 49
-12.7
 74
    0
  0
LTYPE
  5
36
330
5
100
AcDbSymbolTableRecord
100
AcDbLinetypeTableRecord
  2
DASHED
 70
    0
  3
Dashed _ _ _ _ _ _ _ _ _ _ _ _ _ _ _ _ _
 72
   65
 73
    2
 40
19.05
 49
12.7
 74
    0
 49
-6.35
 74
    0
  0
LTYPE
  5
37
330
5
100
AcDbSymbolTableRecord
100
AcDbLinetypeTableRecord
  2
DASHEDTINY
 70
    0
  3
Dashed (.15x) _ _ _ _ _ _ _ _ _ _ _ _ _ _ _ _ _
 72
   65
 73
    2
 40
2.8575
 49
1.905
 74
    0
 49
-0.9525
 74
    0
  0
LTYPE
  5
38
330
5
100
AcDbSymbolTableRecord
100
AcDbLinetypeTableRecord
  2
DASHED2
 70
    0
  3
Dashed (.5x) _ _ _ _ _ _ _ _ _ _ _ _ _ _ _ _ _
 72
   65
 73
    2
 40
9.524999999999999
 49
6.35
 74
    0
 49
-3.175
 74
    0
  0
LTYPE
  5
39
330
5
100
AcDbSymbolTableRecord
100
AcDbLinetypeTableRecord
  2
DASHEDX2
 70
    0
  3
Dashed (2x) ____  ____  ____  ____  ____  ___
 72
   65
 73
    2
 40
38.09999999999999
 49
25.4
 74
    0
 49
-12.7
 74
    0
  0
LTYPE
  5
3A
330
5
100
AcDbSymbolTableRecord
100
AcDbLinetypeTableRecord
  2
DASHDOT
 70
    0
  3
Dash dot __ . __ . __ . __ . __ . __ . __ . __
 72
   65
 73
    4
 40
25.4
 49
12.7
 74
    0
 49
-6.35
 74
    0
 49
0
 74
    0
 49
-6.35
 74
    0
  0
LTYPE
  5
3B
330
5
100
AcDbSymbolTableRecord
100
AcDbLinetypeTableRecord
  2
DASHDOTTINY
 70
    0
  3
Dash dot (.15x) _._._._._._._._._._._._._._._.
 72
   65
 73
    4
 40
3.81
 49
1.905
 74
    0
 49
-0.9525
 74
    0
 49
0
 74
    0
 49
-0.9525
 74
    0
  0
LTYPE
  5
3C
330
5
100
AcDbSymbolTableRecord
100
AcDbLinetypeTableRecord
  2
DASHDOT2
 70
    0
  3
Dash dot (.5x) _._._._._._._._._._._._._._._.
 72
   65
 73
    4
 40
12.7
 49
6.35
 74
    0
 49
-3.175
 74
    0
 49
0
 74
    0
 49
-3.175
 74
    0
  0
LTYPE
  5
3D
330
5
100
AcDbSymbolTableRecord
100
AcDbLinetypeTableRecord
  2
DASHDOTX2
 70
    0
  3
Dash dot (2x) ____  .  ____  .  ____  .  ___
 72
   65
 73
    4
 40
50.8
 49
25.4
 74
    0
 49
-12.7
 74
    0
 49
0
 74
    0
 49
-12.7
 74
    0
  0
LTYPE
  5
3E
330
5
100
AcDbSymbolTableRecord
100
AcDbLinetypeTableRecord
  2
DIVIDE
 70
    0
  3
Divide ____ . . ____ . . ____ . . ____ . . ____
 72
   65
 73
    6
 40
31.75
 49
12.7
 74
    0
 49
-6.35
 74
    0
 49
0
 74
    0
 49
-6.35
 74
    0
 49
0
 74
    0
 49
-6.35
 74
    0
  0
LTYPE
  5
3F
330
5
100
AcDbSymbolTableRecord
100
AcDbLinetypeTableRecord
  2
DIVIDETINY
 70
    0
  3
Divide (.15x) __..__..__..__..__..__..__..__.._
 72
   65
 73
    6
 40
4.7625
 49
1.905
 74
    0
 49
-0.9525
 74
    0
 49
0
 74
    0
 49
-0.9525
 74
    0
 49
0
 74
    0
 49
-0.9525
 74
    0
  0
LTYPE
  5
40
330
5
100
AcDbSymbolTableRecord
100
AcDbLinetypeTableRecord
  2
DIVIDE2
 70
    0
  3
Divide (.5x) __..__..__..__..__..__..__..__.._
 72
   65
 73
    6
 40
15.875
 49
6.35
 74
    0
 49
-3.175
 74
    0
 49
0
 74
    0
 49
-3.175
 74
    0
 49
0
 74
    0
 49
-3.175
 74
    0
  0
LTYPE
  5
41
330
5
100
AcDbSymbolTableRecord
100
AcDbLinetypeTableRecord
  2
DIVIDEX2
 70
    0
  3
Divide (2x) ________  .  .  ________  .  .  _
 72
   65
 73
    6
 40
63.5
 49
25.4
 74
    0
 49
-12.7
 74
    0
 49
0
 74
    0
 49
-12.7
 74
    0
 49
0
 74
    0
 49
-12.7
 74
    0
  0
LTYPE
  5
42
330
5
100
AcDbSymbolTableRecord
100
AcDbLinetypeTableRecord
  2
BORDER
 70
    0
  3
Border __ __ . __ __ . __ __ . __ __ . __ __ .
 72
   65
 73
    6
 40
44.45
 49
12.7
 74
    0
 49
-6.35
 74
    0
 49
12.7
 74
    0
 49
-6.35
 74
    0
 49
0
 74
    0
 49
-6.35
 74
    0
  0
LTYPE
  5
43
330
5
100
AcDbSymbolTableRecord
100
AcDbLinetypeTableRecord
  2
BORDERTINY
 70
    0
  3
Border (.15x) __.__.__.__.__.__.__.__.__.__.__.
 72
   65
 73
    6
 40
6.6675
 49
1.905
 74
    0
 49
-0.9525
 74
    0
 49
1.905
 74
    0
 49
-0.9525
 74
    0
 49
0
 74
    0
 49
-0.9525
 74
    0
  0
LTYPE
  5
44
330
5
100
AcDbSymbolTableRecord
100
AcDbLinetypeTableRecord
  2
BORDER2
 70
    0
  3
Border (.5x) __.__.__.__.__.__.__.__.__.__.__.
 72
   65
 73
    6
 40
22.225
 49
6.35
 74
    0
 49
-3.175
 74
    0
 49
6.35
 74
    0
 49
-3.175
 74
    0
 49
0
 74
    0
 49
-3.175
 74
    0
  0
LTYPE
  5
45
330
5
100
AcDbSymbolTableRecord
100
AcDbLinetypeTableRecord
  2
BORDERX2
 70
    0
  3
Border (2x) ____  ____  .  ____  ____  .  ___
 72
   65
 73
    6
 40
88.89999999999999
 49
25.4
 74
    0
 49
-12.7
 74
    0
 49
25.4
 74
    0
 49
-12.7
 74
    0
 49
0
 74
    0
 49
-12.7
 74
    0
  0
LTYPE
  5
46
330
5
100
AcDbSymbolTableRecord
100
AcDbLinetypeTableRecord
  2
CENTER
 70
    0
  3
Center ____ _ ____ _ ____ _ ____ _ ____ _ ____
 72
   65
 73
    4
 40
50.8
 49
31.75
 74
    0
 49
-6.35
 74
    0
 49
6.35
 74
    0
 49
-6.35
 74
    0
  0
LTYPE
  5
47
330
5
100
AcDbSymbolTableRecord
100
AcDbLinetypeTableRecord
  2
CENTERTINY
 70
    0
  3
Center (.15x) ___ _ ___ _ ___ _ ___ _ ___ _ ___
 72
   65
 73
    4
 40
7.619999999999999
 49
4.7625
 74
    0
 49
-0.9525
 74
    0
 49
0.9525
 74
    0
 49
-0.9525
 74
    0
  0
LTYPE
  5
48
330
5
100
AcDbSymbolTableRecord
100
AcDbLinetypeTableRecord
  2
CENTER2
 70
    0
  3
Center (.5x) ___ _ ___ _ ___ _ ___ _ ___ _ ___
 72
   65
 73
    4
 40
28.575
 49
19.05
 74
    0
 49
-3.175
 74
    0
 49
3.175
 74
    0
 49
-3.175
 74
    0
  0
LTYPE
  5
49
330
5
100
AcDbSymbolTableRecord
100
AcDbLinetypeTableRecord
  2
CENTERX2
 70
    0
  3
Center (2x) ________  __  ________  __  _____
 72
   65
 73
    4
 40
101.6
 49
63.5
 74
    0
 49
-12.7
 74
    0
 49
12.7
 74
    0
 49
-12.7
 74
    0
  0
ENDTAB
  0
TABLE
  2
LAYER
  5
2
330
0
100
AcDbSymbolTable
 70
    1
  0
LAYER
  5
10
330
2
100
AcDbSymbolTableRecord
100
AcDbLayerTableRecord
  2
0
 70
    1
 62
    7
  6
CONTINUOUS
370
    0
390
F
  0
LAYER
  5
4A
330
2
100
AcDbSymbolTableRecord
100
AcDbLayerTableRecord
  2
1mm
 70
    0
 62
    7
  6
CONTINUOUS
370
    0
390
F
  0
LAYER
  5
4B
330
2
100
AcDbSymbolTableRecord
100
AcDbLayerTableRecord
  2
tall
 70
    0
 62
    1
  6
CONTINUOUS
370
    0
390
F
  0
ENDTAB
  0
TABLE
  2
STYLE
  5
3
330
0
100
AcDbSymbolTable
 70
    3
  0
STYLE
  5
4C
330
2
100
AcDbSymbolTableRecord
100
AcDbTextStyleTableRecord
  2
Standard
 70
    0
 40
0
 41
1
 50
0
 71
    0
 42
1
  3
txt
  4

  0
ENDTAB
  0
TABLE
  2
VIEW
  5
6
330
0
100
AcDbSymbolTable
 70
    0
  0
ENDTAB
  0
TABLE
  2
UCS
  5
7
330
0
100
AcDbSymbolTable
 70
    0
  0
ENDTAB
  0
TABLE
  2
APPID
  5
9
330
0
100
AcDbSymbolTable
 70
    1
  0
APPID
  5
12
330
9
100
AcDbSymbolTableRecord
100
AcDbRegAppTableRecord
  2
ACAD
 70
    0
  0
APPID
  5
4D
330
9
100
AcDbSymbolTableRecord
100
AcDbRegAppTableRecord
  2
LibreCad
 70
    0
  0
ENDTAB
  0
TABLE
  2
DIMSTYLE
  5
A
330
0
100
AcDbSymbolTable
 70
    1
100
AcDbDimStyleTable
 71
    1
  0
DIMSTYLE
105
4E
330
A
100
AcDbSymbolTableRecord
100
AcDbDimStyleTableRecord
  2
Standard
 70
    0
 40
2.5
 41
2.5
 42
0.625
 43
0.38
 44
1.25
 45
0
 46
0
 47
0
 48
0
 49
1
140
2.5
141
0.09
142
0
143
25.4
144
1
145
0
146
1
147
0.625
148
0
 71
    0
 72
    0
 73
    0
 74
    1
 75
    0
 76
    0
 77
    0
 78
    8
 79
    0
170
    0
171
    2
172
    0
173
    0
174
    0
175
    0
176
    0
177
    0
178
    0
179
    0
271
    2
272
    4
273
    2
274
    2
275
    0
276
    0
277
    2
278
   44
279
    0
280
    0
281
    0
282
    0
283
    1
284
    0
285
    0
286
    0
288
    0
289
    3
340
STANDARD
341

371
   -2
372
   -2
  0
ENDTAB
  0
TABLE
  2
BLOCK_RECORD
  5
1
330
0
100
AcDbSymbolTable
 70
    2
  0
BLOCK_RECORD
  5
1F
330
1
100
AcDbSymbolTableRecord
100
AcDbBlockTableRecord
  2
*Model_Space
 70
    0
280
    1
281
    0
  0
BLOCK_RECORD
  5
1E
330
1
100
AcDbSymbolTableRecord
100
AcDbBlockTableRecord
  2
*Paper_Space
 70
    0
280
    1
281
    0
  0
ENDTAB
  0
ENDSEC
  0
SECTION
  2
BLOCKS
  0
BLOCK
  5
20
330
1F
100
AcDbEntity
  8
0
100
AcDbBlockBegin
  2
*Model_Space
 70
    0
 10
0
 20
0
 30
0
  3
*Model_Space
  1

  0
ENDBLK
  5
21
330
1F
100
AcDbEntity
  8
0
100
AcDbBlockEnd
  0
BLOCK
  5
1C
330
1B
100
AcDbEntity
  8
0
100
AcDbBlockBegin
  2
*Paper_Space
 70
    0
 10
0
 20
0
 30
0
  3
*Paper_Space
  1

  0
ENDBLK
  5
1D
330
1F
100
AcDbEntity
  8
0
100
AcDbBlockEnd
  0
ENDSEC
  0
SECTION
  2
ENTITIES
  0
LINE
  5
4F
100
AcDbEntity
  8
1mm
  6
ByLayer
 62
  256
370
   -1
100
AcDbLine
 10
80.10024556231757
 20
79.44150459828734
 11
77.40930456231757
 21
72.44279259828733
  0
LINE
  5
50
100
AcDbEntity
  8
1mm
  6
ByLayer
 62
  256
370
   -1
100
AcDbLine
 10
77.40930456231757
 20
72.44279259828733
 11
74.73480056231757
 21
65.79014759828732
  0
LINE
  5
51
100
AcDbEntity
  8
1mm
  6
ByLayer
 62
  256
370
   -1
100
AcDbLine
 10
74.73480056231757
 20
65.79014759828732
 11
73.98239956231757
 21
64.40633959828733
  0
LINE
  5
52
100
AcDbEntity
  8
1mm
  6
ByLayer
 62
  256
370
   -1
100
AcDbLine
 10
73.98239956231757
 20
64.40633959828733
 11
73.46584856231757
 21
63.98722259828733
  0
LINE
  5
53
100
AcDbEntity
  8
1mm
  6
ByLayer
 62
  256
370
   -1
100
AcDbLine
 10
73.46584856231757
 20
63.98722259828733
 11
73.18835156231758
 21
64.36799359828734
  0
LINE
  5
54
100
AcDbEntity
  8
1mm
  6
ByLayer
 62
  256
370
   -1
100
AcDbLine
 10
73.18835156231758
 20
64.36799359828734
 11
72.87283356231758
 21
65.29905159828732
  0
LINE
  5
55
100
AcDbEntity
  8
1mm
  6
ByLayer
 62
  256
370
   -1
100
AcDbLine
 10
72.87283356231758
 20
65.29905159828732
 11
72.34055556231758
 21
69.01673559828734
  0
LINE
  5
56
100
AcDbEntity
  8
1mm
  6
ByLayer
 62
  256
370
   -1
100
AcDbLine
 10
72.34055556231758
 20
69.01673559828734
 11
71.21841956231758
 21
81.62341259828733
  0
LINE
  5
57
100
AcDbEntity
  8
1mm
  6
ByLayer
 62
  256
370
   -1
100
AcDbLine
 10
71.21841956231758
 20
81.62341259828733
 11
70.62884156231758
 21
88.51098159828732
  0
LINE
  5
58
100
AcDbEntity
  8
1mm
  6
ByLayer
 62
  256
370
   -1
100
AcDbLine
 10
70.62884156231758
 20
88.51098159828732
 11
72.52533256231757
 21
91.58114759828732
  0
LINE
  5
59
100
AcDbEntity
  8
1mm
  6
ByLayer
 62
  256
370
   -1
100
AcDbLine
 10
72.52533256231757
 20
91.58114759828732
 11
74.19552356231758
 21
93.98891759828732
  0
LINE
  5
5A
100
AcDbEntity
  8
1mm
  6
ByLayer
 62
  256
370
   -1
100
AcDbLine
 10
74.19552356231758
 20
93.98891759828732
 11
74.85874456231757
 21
94.69135459828732
  0
LINE
  5
5B
100
AcDbEntity
  8
1mm
  6
ByLayer
 62
  256
370
   -1
100
AcDbLine
 10
74.85874456231757
 20
94.69135459828732
 11
75.40991656231758
 21
95.06255159828731
  0
LINE
  5
5C
100
AcDbEntity
  8
1mm
  6
ByLayer
 62
  256
370
   -1
100
AcDbLine
 10
75.40991656231758
 20
95.06255159828731
 11
76.10019556231758
 21
95.56130959828732
  0
LINE
  5
5D
100
AcDbEntity
  8
1mm
  6
ByLayer
 62
  256
370
   -1
100
AcDbLine
 10
76.10019556231758
 20
95.56130959828732
 11
76.30757056231758
 21
96.17984659828733
  0
LINE
  5
5E
100
AcDbEntity
  8
1mm
  6
ByLayer
 62
  256
370
   -1
100
AcDbLine
 10
76.30757056231758
 20
96.17984659828733
 11
76.03958156231758
 21
96.76804159828734
  0
LINE
  5
5F
100
AcDbEntity
  8
1mm
  6
ByLayer
 62
  256
370
   -1
100
AcDbLine
 10
76.03958156231758
 20
96.76804159828734
 11
75.30376856231757
 21
97.17577359828732
  0
LINE
  5
60
100
AcDbEntity
  8
1mm
  6
ByLayer
 62
  256
370
   -1
100
AcDbLine
 10
75.30376856231757
 20
97.17577359828732
 11
72.66600256231757
 21
97.36616059828734
  0
LINE
  5
61
100
AcDbEntity
  8
1mm
  6
ByLayer
 62
  256
370
   -1
100
AcDbLine
 10
72.66600256231757
 20
97.36616059828734
 11
67.99080756231757
 21
97.44958859828733
  0
LINE
  5
62
100
AcDbEntity
  8
1mm
  6
ByLayer
 62
  256
370
   -1
100
AcDbLine
 10
67.99080756231757
 20
97.44958859828733
 11
63.53251356231758
 21
97.41419959828733
  0
LINE
  5
63
100
AcDbEntity
  8
1mm
  6
ByLayer
 62
  256
370
   -1
100
AcDbLine
 10
63.53251356231758
 20
97.41419959828733
 11
61.54545256231758
 21
97.24813659828732
  0
LINE
  5
64
100
AcDbEntity
  8
1mm
  6
ByLayer
 62
  256
370
   -1
100
AcDbLine
 10
61.54545256231758
 20
97.24813659828732
 11
62.20147556231757
 21
96.27799859828733
  0
LINE
  5
65
100
AcDbEntity
  8
1mm
  6
ByLayer
 62
  256
370
   -1
100
AcDbLine
 10
62.20147556231757
 20
96.27799859828733
 11
62.88715956231758
 21
94.85841259828732
  0
LINE
  5
66
100
AcDbEntity
  8
1mm
  6
ByLayer
 62
  256
370
   -1
100
AcDbLine
 10
62.88715956231758
 20
94.85841259828732
 11
63.61449156231757
 21
92.46807459828733
  0
LINE
  5
67
100
AcDbEntity
  8
1mm
  6
ByLayer
 62
  256
370
   -1
100
AcDbLine
 10
63.61449156231757
 20
92.46807459828733
 11
64.37148256231758
 21
89.38644159828732
  0
LINE
  5
68
100
AcDbEntity
  8
1mm
  6
ByLayer
 62
  256
370
   -1
100
AcDbLine
 10
64.37148256231758
 20
89.38644159828732
 11
59.18202556231758
 21
78.08902259828733
  0
LINE
  5
69
100
AcDbEntity
  8
1mm
  6
ByLayer
 62
  256
370
   -1
100
AcDbLine
 10
59.18202556231758
 20
78.08902259828733
 11
55.04765056231757
 21
69.36440859828733
  0
LINE
  5
6A
100
AcDbEntity
  8
1mm
  6
ByLayer
 62
  256
370
   -1
100
AcDbLine
 10
55.04765056231757
 20
69.36440859828733
 11
54.08352456231758
 21
67.65804159828733
  0
LINE
  5
6B
100
AcDbEntity
  8
1mm
  6
ByLayer
 62
  256
370
   -1
100
AcDbLine
 10
54.08352456231758
 20
67.65804159828733
 11
53.81706156231758
 21
67.35176059828731
  0
LINE
  5
6C
100
AcDbEntity
  8
1mm
  6
ByLayer
 62
  256
370
   -1
100
AcDbLine
 10
53.81706156231758
 20
67.35176059828731
 11
53.67140956231758
 21
67.36547659828733
  0
LINE
  5
6D
100
AcDbEntity
  8
1mm
  6
ByLayer
 62
  256
370
   -1
100
AcDbLine
 10
53.67140956231758
 20
67.36547659828733
 11
53.28447356231757
 21
71.22476759828731
  0
LINE
  5
6E
100
AcDbEntity
  8
1mm
  6
ByLayer
 62
  256
370
   -1
100
AcDbLine
 10
53.28447356231757
 20
71.22476759828731
 11
52.80516556231757
 21
79.69761859828733
  0
LINE
  5
6F
100
AcDbEntity
  8
1mm
  6
ByLayer
 62
  256
370
   -1
100
AcDbLine
 10
52.80516556231757
 20
79.69761859828733
 11
52.26007656231758
 21
91.45588859828732
  0
LINE
  5
70
100
AcDbEntity
  8
1mm
  6
ByLayer
 62
  256
370
   -1
100
AcDbLine
 10
52.26007656231758
 20
91.45588859828732
 11
54.10304256231757
 21
94.26306659828734
  0
LINE
  5
71
100
AcDbEntity
  8
1mm
  6
ByLayer
 62
  256
370
   -1
100
AcDbLine
 10
54.10304256231757
 20
94.26306659828734
 11
55.74039256231758
 21
96.46442059828732
  0
LINE
  5
72
100
AcDbEntity
  8
1mm
  6
ByLayer
 62
  256
370
   -1
100
AcDbLine
 10
55.74039256231758
 20
96.46442059828732
 11
56.41573056231758
 21
97.13343259828733
  0
LINE
  5
73
100
AcDbEntity
  8
1mm
  6
ByLayer
 62
  256
370
   -1
100
AcDbLine
 10
56.41573056231758
 20
97.13343259828733
 11
56.98184356231758
 21
97.49929959828734
  0
LINE
  5
74
100
AcDbEntity
  8
1mm
  6
ByLayer
 62
  256
370
   -1
100
AcDbLine
 10
56.98184356231758
 20
97.49929959828734
 11
57.76279456231758
 21
98.01349759828733
  0
LINE
  5
75
100
AcDbEntity
  8
1mm
  6
ByLayer
 62
  256
370
   -1
100
AcDbLine
 10
57.76279456231758
 20
98.01349759828733
 11
58.01768056231758
 21
98.70341759828733
  0
LINE
  5
76
100
AcDbEntity
  8
1mm
  6
ByLayer
 62
  256
370
   -1
100
AcDbLine
 10
58.01768056231758
 20
98.70341759828733
 11
57.65062956231758
 21
99.36833459828733
  0
LINE
  5
77
100
AcDbEntity
  8
1mm
  6
ByLayer
 62
  256
370
   -1
100
AcDbLine
 10
57.65062956231758
 20
99.36833459828733
 11
56.66450256231758
 21
100.2901065982873
  0
LINE
  5
78
100
AcDbEntity
  8
1mm
  6
ByLayer
 62
  256
370
   -1
100
AcDbLine
 10
56.66450256231758
 20
100.2901065982873
 11
53.52516956231757
 21
102.4782435982873
  0
LINE
  5
79
100
AcDbEntity
  8
1mm
  6
ByLayer
 62
  256
370
   -1
100
AcDbLine
 10
53.52516956231757
 20
102.4782435982873
 11
49.97998756231758
 21
104.4158835982873
  0
LINE
  5
7A
100
AcDbEntity
  8
1mm
  6
ByLayer
 62
  256
370
   -1
100
AcDbLine
 10
49.97998756231758
 20
104.4158835982873
 11
48.48654756231757
 21
105.0245355982873
  0
LINE
  5
7B
100
AcDbEntity
  8
1mm
  6
ByLayer
 62
  256
370
   -1
100
AcDbLine
 10
48.48654756231757
 20
105.0245355982873
 11
47.40925956231757
 21
105.2510845982873
  0
LINE
  5
7C
100
AcDbEntity
  8
1mm
  6
ByLayer
 62
  256
370
   -1
100
AcDbLine
 10
47.40925956231757
 20
105.2510845982873
 11
47.11659056231757
 21
105.0672675982873
  0
LINE
  5
7D
100
AcDbEntity
  8
1mm
  6
ByLayer
 62
  256
370
   -1
100
AcDbLine
 10
47.11659056231757
 20
105.0672675982873
 11
46.93384456231757
 21
104.6312285982873
  0
LINE
  5
7E
100
AcDbEntity
  8
1mm
  6
ByLayer
 62
  256
370
   -1
100
AcDbLine
 10
46.93384456231757
 20
104.6312285982873
 11
46.90037556231758
 21
104.1160895982873
  0
LINE
  5
7F
100
AcDbEntity
  8
1mm
  6
ByLayer
 62
  256
370
   -1
100
AcDbLine
 10
46.90037556231758
 20
104.1160895982873
 11
47.05553556231757
 21
103.6949685982873
  0
LINE
  5
80
100
AcDbEntity
  8
1mm
  6
ByLayer
 62
  256
370
   -1
100
AcDbLine
 10
47.05553556231757
 20
103.6949685982873
 11
47.38649656231757
 21
102.7865555982873
  0
LINE
  5
81
100
AcDbEntity
  8
1mm
  6
ByLayer
 62
  256
370
   -1
100
AcDbLine
 10
47.38649656231757
 20
102.7865555982873
 11
47.73933956231757
 21
101.1100495982873
  0
LINE
  5
82
100
AcDbEntity
  8
1mm
  6
ByLayer
 62
  256
370
   -1
100
AcDbLine
 10
47.73933956231757
 20
101.1100495982873
 11
48.13724856231758
 21
97.56790659828732
  0
LINE
  5
83
100
AcDbEntity
  8
1mm
  6
ByLayer
 62
  256
370
   -1
100
AcDbLine
 10
48.13724856231758
 20
97.56790659828732
 11
47.83625756231757
 21
96.50709959828734
  0
LINE
  5
84
100
AcDbEntity
  8
1mm
  6
ByLayer
 62
  256
370
   -1
100
AcDbLine
 10
47.83625756231757
 20
96.50709959828734
 11
46.84386156231757
 21
94.45303459828733
  0
LINE
  5
85
100
AcDbEntity
  8
1mm
  6
ByLayer
 62
  256
370
   -1
100
AcDbLine
 10
46.84386156231757
 20
94.45303459828733
 11
42.26736156231757
 21
86.37837359828734
  0
LINE
  5
86
100
AcDbEntity
  8
1mm
  6
ByLayer
 62
  256
370
   -1
100
AcDbLine
 10
42.26736156231757
 20
86.37837359828734
 11
38.03143856231758
 21
79.34741059828733
  0
LINE
  5
87
100
AcDbEntity
  8
1mm
  6
ByLayer
 62
  256
370
   -1
100
AcDbLine
 10
38.03143856231758
 20
79.34741059828733
 11
36.09375856231757
 21
76.53170059828733
  0
LINE
  5
88
100
AcDbEntity
  8
1mm
  6
ByLayer
 62
  256
370
   -1
100
AcDbLine
 10
36.09375856231757
 20
76.53170059828733
 11
35.87062056231757
 21
77.64571659828732
  0
LINE
  5
89
100
AcDbEntity
  8
1mm
  6
ByLayer
 62
  256
370
   -1
100
AcDbLine
 10
35.87062056231757
 20
77.64571659828732
 11
35.80917056231758
 21
80.57908259828733
  0
LINE
  5
8A
100
AcDbEntity
  8
1mm
  6
ByLayer
 62
  256
370
   -1
100
AcDbLine
 10
35.80917056231758
 20
80.57908259828733
 11
36.17034256231757
 21
91.70684559828732
  0
LINE
  5
8B
100
AcDbEntity
  8
1mm
  6
ByLayer
 62
  256
370
   -1
100
AcDbLine
 10
36.17034256231757
 20
91.70684559828732
 11
36.54797656231757
 21
99.73965359828733
  0
LINE
  5
8C
100
AcDbEntity
  8
1mm
  6
ByLayer
 62
  256
370
   -1
100
AcDbLine
 10
36.54797656231757
 20
99.73965359828733
 11
38.71724756231758
 21
102.3189805982873
  0
LINE
  5
8D
100
AcDbEntity
  8
1mm
  6
ByLayer
 62
  256
370
   -1
100
AcDbLine
 10
38.71724756231758
 20
102.3189805982873
 11
40.36592256231758
 21
104.1406285982873
  0
LINE
  5
8E
100
AcDbEntity
  8
1mm
  6
ByLayer
 62
  256
370
   -1
100
AcDbLine
 10
40.36592256231758
 20
104.1406285982873
 11
41.28354656231757
 21
104.8983055982873
  0
LINE
  5
8F
100
AcDbEntity
  8
1mm
  6
ByLayer
 62
  256
370
   -1
100
AcDbLine
 10
41.28354656231757
 20
104.8983055982873
 11
41.74537656231757
 21
105.0987865982873
  0
LINE
  5
90
100
AcDbEntity
  8
1mm
  6
ByLayer
 62
  256
370
   -1
100
AcDbLine
 10
41.74537656231757
 20
105.0987865982873
 11
42.29820956231758
 21
105.5807915982873
  0
LINE
  5
91
100
AcDbEntity
  8
1mm
  6
ByLayer
 62
  256
370
   -1
100
AcDbLine
 10
42.29820956231758
 20
105.5807915982873
 11
42.60965056231757
 21
105.9855015982873
  0
LINE
  5
92
100
AcDbEntity
  8
1mm
  6
ByLayer
 62
  256
370
   -1
100
AcDbLine
 10
42.60965056231757
 20
105.9855015982873
 11
42.57404356231757
 21
106.3001375982873
  0
LINE
  5
93
100
AcDbEntity
  8
1mm
  6
ByLayer
 62
  256
370
   -1
100
AcDbLine
 10
42.57404356231757
 20
106.3001375982873
 11
41.02997256231757
 21
107.2157455982873
  0
LINE
  5
94
100
AcDbEntity
  8
1mm
  6
ByLayer
 62
  256
370
   -1
100
AcDbLine
 10
41.02997256231757
 20
107.2157455982873
 11
37.61173756231757
 21
109.2187795982873
  0
LINE
  5
95
100
AcDbEntity
  8
1mm
  6
ByLayer
 62
  256
370
   -1
100
AcDbLine
 10
37.61173756231757
 20
109.2187795982873
 11
36.07938456231757
 21
110.2693405982873
  0
LINE
  5
96
100
AcDbEntity
  8
1mm
  6
ByLayer
 62
  256
370
   -1
100
AcDbLine
 10
36.07938456231757
 20
110.2693405982873
 11
33.63888656231758
 21
108.6018215982873
  0
LINE
  5
97
100
AcDbEntity
  8
1mm
  6
ByLayer
 62
  256
370
   -1
100
AcDbLine
 10
33.63888656231758
 20
108.6018215982873
 11
31.98020356231757
 21
107.4412495982873
  0
LINE
  5
98
100
AcDbEntity
  8
1mm
  6
ByLayer
 62
  256
370
   -1
100
AcDbLine
 10
31.98020356231757
 20
107.4412495982873
 11
31.16040156231757
 21
106.7226205982873
  0
LINE
  5
99
100
AcDbEntity
  8
1mm
  6
ByLayer
 62
  256
370
   -1
100
AcDbLine
 10
31.16040156231757
 20
106.7226205982873
 11
30.97381156231758
 21
106.1902865982873
  0
LINE
  5
9A
100
AcDbEntity
  8
1mm
  6
ByLayer
 62
  256
370
   -1
100
AcDbLine
 10
30.97381156231758
 20
106.1902865982873
 11
31.21476956231757
 21
105.5886025982873
  0
LINE
  5
9B
100
AcDbEntity
  8
1mm
  6
ByLayer
 62
  256
370
   -1
100
AcDbLine
 10
31.21476956231757
 20
105.5886025982873
 11
31.43137756231758
 21
104.9099155982873
  0
LINE
  5
9C
100
AcDbEntity
  8
1mm
  6
ByLayer
 62
  256
370
   -1
100
AcDbLine
 10
31.43137756231758
 20
104.9099155982873
 11
31.20892156231757
 21
104.3719305982873
  0
LINE
  5
9D
100
AcDbEntity
  8
1mm
  6
ByLayer
 62
  256
370
   -1
100
AcDbLine
 10
31.20892156231757
 20
104.3719305982873
 11
31.01513856231757
 21
103.7648955982873
  0
LINE
  5
9E
100
AcDbEntity
  8
1mm
  6
ByLayer
 62
  256
370
   -1
100
AcDbLine
 10
31.01513856231757
 20
103.7648955982873
 11
31.35823656231757
 21
102.8295205982873
  0
LINE
  5
9F
100
AcDbEntity
  8
1mm
  6
ByLayer
 62
  256
370
   -1
100
AcDbLine
 10
31.35823656231757
 20
102.8295205982873
 11
31.61347956231758
 21
102.1862965982873
  0
LINE
  5
A0
100
AcDbEntity
  8
1mm
  6
ByLayer
 62
  256
370
   -1
100
AcDbLine
 10
31.61347956231758
 20
102.1862965982873
 11
31.74546856231757
 21
101.4153815982873
  0
LINE
  5
A1
100
AcDbEntity
  8
1mm
  6
ByLayer
 62
  256
370
   -1
100
AcDbLine
 10
31.74546856231757
 20
101.4153815982873
 11
31.68002756231758
 21
99.01182059828733
  0
LINE
  5
A2
100
AcDbEntity
  8
1mm
  6
ByLayer
 62
  256
370
   -1
100
AcDbLine
 10
31.68002756231758
 20
99.01182059828733
 11
31.51787156231758
 21
97.19044659828734
  0
LINE
  5
A3
100
AcDbEntity
  8
1mm
  6
ByLayer
 62
  256
370
   -1
100
AcDbLine
 10
31.51787156231758
 20
97.19044659828734
 11
31.26838556231758
 21
96.43481859828734
  0
LINE
  5
A4
100
AcDbEntity
  8
1mm
  6
ByLayer
 62
  256
370
   -1
100
AcDbLine
 10
31.26838556231758
 20
96.43481859828734
 11
30.73320556231758
 21
95.53333059828734
  0
LINE
  5
A5
100
AcDbEntity
  8
1mm
  6
ByLayer
 62
  256
370
   -1
100
AcDbLine
 10
30.73320556231758
 20
95.53333059828734
 11
28.28548956231758
 21
92.54507259828733
  0
LINE
  5
A6
100
AcDbEntity
  8
1mm
  6
ByLayer
 62
  256
370
   -1
100
AcDbLine
 10
28.28548956231758
 20
92.54507259828733
 11
23.13418456231757
 21
86.73027459828734
  0
LINE
  5
A7
100
AcDbEntity
  8
1mm
  6
ByLayer
 62
  256
370
   -1
100
AcDbLine
 10
23.13418456231757
 20
86.73027459828734
 11
17.70167356231758
 21
80.77967059828734
  0
LINE
  5
A8
100
AcDbEntity
  8
1mm
  6
ByLayer
 62
  256
370
   -1
100
AcDbLine
 10
17.70167356231758
 20
80.77967059828734
 11
16.74390056231758
 21
80.00506459828733
  0
LINE
  5
A9
100
AcDbEntity
  8
1mm
  6
ByLayer
 62
  256
370
   -1
100
AcDbLine
 10
16.74390056231758
 20
80.00506459828733
 11
16.54185256231757
 21
80.00892359828734
  0
LINE
  5
AA
100
AcDbEntity
  8
1mm
  6
ByLayer
 62
  256
370
   -1
100
AcDbLine
 10
16.54185256231757
 20
80.00892359828734
 11
16.46235156231756
 21
80.21298159828731
  0
LINE
  5
AB
100
AcDbEntity
  8
1mm
  6
ByLayer
 62
  256
370
   -1
100
AcDbLine
 10
16.46235156231756
 20
80.21298159828731
 11
16.96468056231757
 21
83.57594159828733
  0
LINE
  5
AC
100
AcDbEntity
  8
1mm
  6
ByLayer
 62
  256
370
   -1
100
AcDbLine
 10
16.96468056231757
 20
83.57594159828733
 11
18.31843756231757
 21
90.41012159828733
  0
LINE
  5
AD
100
AcDbEntity
  8
1mm
  6
ByLayer
 62
  256
370
   -1
100
AcDbLine
 10
18.31843756231757
 20
90.41012159828733
 11
20.14844456231756
 21
99.84630259828734
  0
LINE
  5
AE
100
AcDbEntity
  8
1mm
  6
ByLayer
 62
  256
370
   -1
100
AcDbLine
 10
20.14844456231756
 20
99.84630259828734
 11
17.81895256231758
 21
98.35725259828732
  0
LINE
  5
AF
100
AcDbEntity
  8
1mm
  6
ByLayer
 62
  256
370
   -1
100
AcDbLine
 10
17.81895256231758
 20
98.35725259828732
 11
16.04146256231758
 21
96.86960959828733
  0
LINE
  5
B0
100
AcDbEntity
  8
1mm
  6
ByLayer
 62
  256
370
   -1
100
AcDbLine
 10
16.04146256231758
 20
96.86960959828733
 11
15.79861956231758
 21
96.37987159828734
  0
LINE
  5
B1
100
AcDbEntity
  8
1mm
  6
ByLayer
 62
  256
370
   -1
100
AcDbLine
 10
15.79861956231758
 20
96.37987159828734
 11
15.83689556231758
 21
95.87209859828732
  0
LINE
  5
B2
100
AcDbEntity
  8
1mm
  6
ByLayer
 62
  256
370
   -1
100
AcDbLine
 10
15.83689556231758
 20
95.87209859828732
 11
15.87690356231758
 21
95.04838159828734
  0
LINE
  5
B3
100
AcDbEntity
  8
1mm
  6
ByLayer
 62
  256
370
   -1
100
AcDbLine
 10
15.87690356231758
 20
95.04838159828734
 11
15.66786656231758
 21
94.28409059828732
  0
LINE
  5
B4
100
AcDbEntity
  8
1mm
  6
ByLayer
 62
  256
370
   -1
100
AcDbLine
 10
15.66786656231758
 20
94.28409059828732
 11
15.47954556231758
 21
93.53602859828732
  0
LINE
  5
B5
100
AcDbEntity
  8
1mm
  6
ByLayer
 62
  256
370
   -1
100
AcDbLine
 10
15.47954556231758
 20
93.53602859828732
 11
15.83571856231757
 21
92.71624259828732
  0
LINE
  5
B6
100
AcDbEntity
  8
1mm
  6
ByLayer
 62
  256
370
   -1
100
AcDbLine
 10
15.83571856231757
 20
92.71624259828732
 11
16.25505456231758
 21
91.43277659828732
  0
LINE
  5
B7
100
AcDbEntity
  8
1mm
  6
ByLayer
 62
  256
370
   -1
100
AcDbLine
 10
16.25505456231758
 20
91.43277659828732
 11
16.38995556231757
 21
89.22667359828733
  0
LINE
  5
B8
100
AcDbEntity
  8
1mm
  6
ByLayer
 62
  256
370
   -1
100
AcDbLine
 10
16.38995556231757
 20
89.22667359828733
 11
16.38995556231757
 21
86.58298159828732
  0
LINE
  5
B9
100
AcDbEntity
  8
1mm
  6
ByLayer
 62
  256
370
   -1
100
AcDbLine
 10
16.38995556231757
 20
86.58298159828732
 11
14.36148856231758
 21
84.16856359828734
  0
LINE
  5
BA
100
AcDbEntity
  8
1mm
  6
ByLayer
 62
  256
370
   -1
100
AcDbLine
 10
14.36148856231758
 20
84.16856359828734
 11
6.314041562317584
 21
74.84695359828731
  0
LINE
  5
BB
100
AcDbEntity
  8
1mm
  6
ByLayer
 62
  256
370
   -1
100
AcDbLine
 10
6.314041562317584
 20
74.84695359828731
 11
1.538023562317576
 21
69.62057259828734
  0
LINE
  5
BC
100
AcDbEntity
  8
1mm
  6
ByLayer
 62
  256
370
   -1
100
AcDbLine
 10
1.538023562317576
 20
69.62057259828734
 11
1.318682562317576
 21
69.71864559828734
  0
LINE
  5
BD
100
AcDbEntity
  8
1mm
  6
ByLayer
 62
  256
370
   -1
100
AcDbLine
 10
1.318682562317576
 20
69.71864559828734
 11
1.19715956231758
 21
70.05199559828733
  0
LINE
  5
BE
100
AcDbEntity
  8
1mm
  6
ByLayer
 62
  256
370
   -1
100
AcDbLine
 10
1.19715956231758
 20
70.05199559828733
 11
1.278912562317572
 21
71.65932059828734
  0
LINE
  5
BF
100
AcDbEntity
  8
1mm
  6
ByLayer
 62
  256
370
   -1
100
AcDbLine
 10
1.278912562317572
 20
71.65932059828734
 11
2.961019562317574
 21
80.28001659828732
  0
LINE
  5
C0
100
AcDbEntity
  8
1mm
  6
ByLayer
 62
  256
370
   -1
100
AcDbLine
 10
2.961019562317574
 20
80.28001659828732
 11
4.944259562317569
 21
89.99359359828733
  0
LINE
  5
C1
100
AcDbEntity
  8
1mm
  6
ByLayer
 62
  256
370
   -1
100
AcDbLine
 10
4.944259562317569
 20
89.99359359828733
 11
2.846931562317565
 21
88.67829759828732
  0
LINE
  5
C2
100
AcDbEntity
  8
1mm
  6
ByLayer
 62
  256
370
   -1
100
AcDbLine
 10
2.846931562317565
 20
88.67829759828732
 11
0.3940985623175663
 21
86.90789459828733
  0
LINE
  5
C3
100
AcDbEntity
  8
1mm
  6
ByLayer
 62
  256
370
   -1
100
AcDbLine
 10
0.3940985623175663
 20
86.90789459828733
 11
0.3045745623175833
 21
86.48636559828734
  0
LINE
  5
C4
100
AcDbEntity
  8
1mm
  6
ByLayer
 62
  256
370
   -1
100
AcDbLine
 10
0.3045745623175833
 20
86.48636559828734
 11
0.5067735623175764
 21
85.86365459828733
  0
LINE
  5
C5
100
AcDbEntity
  8
1mm
  6
ByLayer
 62
  256
370
   -1
100
AcDbLine
 10
0.5067735623175764
 20
85.86365459828733
 11
0.7386685623175708
 21
85.15111359828734
  0
LINE
  5
C6
100
AcDbEntity
  8
1mm
  6
ByLayer
 62
  256
370
   -1
100
AcDbLine
 10
0.7386685623175708
 20
85.15111359828734
 11
0.4895235623175722
 21
84.58295359828733
  0
LINE
  5
C7
100
AcDbEntity
  8
1mm
  6
ByLayer
 62
  256
370
   -1
100
AcDbLine
 10
0.4895235623175722
 20
84.58295359828733
 11
0.3079495623175745
 21
84.26779959828733
  0
LINE
  5
C8
100
AcDbEntity
  8
1mm
  6
ByLayer
 62
  256
370
   -1
100
AcDbLine
 10
0.3079495623175745
 20
84.26779959828733
 11
0.2764445623175789
 21
83.88946559828733
  0
LINE
  5
C9
100
AcDbEntity
  8
1mm
  6
ByLayer
 62
  256
370
   -1
100
AcDbLine
 10
0.2764445623175789
 20
83.88946559828733
 11
0.6925905623175765
 21
82.67059459828732
  0
LINE
  5
CA
100
AcDbEntity
  8
1mm
  6
ByLayer
 62
  256
370
   -1
100
AcDbLine
 10
0.6925905623175765
 20
82.67059459828732
 11
0.9938705623175679
 21
81.87138559828733
  0
LINE
  5
CB
100
AcDbEntity
  8
1mm
  6
ByLayer
 62
  256
370
   -1
100
AcDbLine
 10
0.9938705623175679
 20
81.87138559828733
 11
1.150737562317573
 21
81.05473859828732
  0
LINE
  5
CC
100
AcDbEntity
  8
1mm
  6
ByLayer
 62
  256
370
   -1
100
AcDbLine
 10
1.150737562317573
 20
81.05473859828732
 11
1.091388562317576
 21
78.78268559828732
  0
LINE
  5
CD
100
AcDbEntity
  8
1mm
  6
ByLayer
 62
  256
370
   -1
100
AcDbLine
 10
1.091388562317576
 20
78.78268559828732
 11
0.859941562317573
 21
76.29241159828732
  0
LINE
  5
CE
100
AcDbEntity
  8
1mm
  6
ByLayer
 62
  256
370
   -1
100
AcDbLine
 10
0.859941562317573
 20
76.29241159828732
 11
-7.133914437682421
 21
66.79931959828733
  0
LINE
  5
CF
100
AcDbEntity
  8
1mm
  6
ByLayer
 62
  256
370
   -1
100
AcDbLine
 10
-7.133914437682421
 20
66.79931959828733
 11
-12.86550343768242
 21
60.14792559828732
  0
LINE
  5
D0
100
AcDbEntity
  8
1mm
  6
ByLayer
 62
  256
370
   -1
100
AcDbLine
 10
-12.86550343768242
 20
60.14792559828732
 11
-15.42028243768243
 21
57.48700559828734
  0
LINE
  5
D1
100
AcDbEntity
  8
1mm
  6
ByLayer
 62
  256
370
   -1
100
AcDbLine
 10
-15.42028243768243
 20
57.48700559828734
 11
-15.59458643768242
 21
57.70326659828731
  0
LINE
  5
D2
100
AcDbEntity
  8
1mm
  6
ByLayer
 62
  256
370
   -1
100
AcDbLine
 10
-15.59458643768242
 20
57.70326659828731
 11
-15.66509843768242
 21
58.13231159828732
  0
LINE
  5
D3
100
AcDbEntity
  8
1mm
  6
ByLayer
 62
  256
370
   -1
100
AcDbLine
 10
-15.66509843768242
 20
58.13231159828732
 11
-15.43177443768242
 21
59.94899159828734
  0
LINE
  5
D4
100
AcDbEntity
  8
1mm
  6
ByLayer
 62
  256
370
   -1
100
AcDbLine
 10
-15.43177443768242
 20
59.94899159828734
 11
-13.02694343768243
 21
69.65836559828733
  0
LINE
  5
D5
100
AcDbEntity
  8
1mm
  6
ByLayer
 62
  256
370
   -1
100
AcDbLine
 10
-13.02694343768243
 20
69.65836559828733
 11
-10.47513343768242
 21
80.02271159828732
  0
LINE
  5
D6
100
AcDbEntity
  8
1mm
  6
ByLayer
 62
  256
370
   -1
100
AcDbLine
 10
-10.47513343768242
 20
80.02271159828732
 11
-13.17525843768243
 21
78.88299659828732
  0
LINE
  5
D7
100
AcDbEntity
  8
1mm
  6
ByLayer
 62
  256
370
   -1
100
AcDbLine
 10
-13.17525843768243
 20
78.88299659828732
 11
-15.31950743768243
 21
77.66175059828734
  0
LINE
  5
D8
100
AcDbEntity
  8
1mm
  6
ByLayer
 62
  256
370
   -1
100
AcDbLine
 10
-15.31950743768243
 20
77.66175059828734
 11
-15.58266143768242
 21
77.22176259828734
  0
LINE
  5
D9
100
AcDbEntity
  8
1mm
  6
ByLayer
 62
  256
370
   -1
100
AcDbLine
 10
-15.58266143768242
 20
77.22176259828734
 11
-15.53731543768242
 21
76.68028759828732
  0
LINE
  5
DA
100
AcDbEntity
  8
1mm
  6
ByLayer
 62
  256
370
   -1
100
AcDbLine
 10
-15.53731543768242
 20
76.68028759828732
 11
-15.54261243768242
 21
75.82248959828732
  0
LINE
  5
DB
100
AcDbEntity
  8
1mm
  6
ByLayer
 62
  256
370
   -1
100
AcDbLine
 10
-15.54261243768242
 20
75.82248959828732
 11
-16.02376143768242
 21
75.12645259828733
  0
LINE
  5
DC
100
AcDbEntity
  8
1mm
  6
ByLayer
 62
  256
370
   -1
100
AcDbLine
 10
-16.02376143768242
 20
75.12645259828733
 11
-16.51535243768242
 21
74.43093559828733
  0
LINE
  5
DD
100
AcDbEntity
  8
1mm
  6
ByLayer
 62
  256
370
   -1
100
AcDbLine
 10
-16.51535243768242
 20
74.43093559828733
 11
-16.36805243768242
 21
73.50849559828734
  0
LINE
  5
DE
100
AcDbEntity
  8
1mm
  6
ByLayer
 62
  256
370
   -1
100
AcDbLine
 10
-16.36805243768242
 20
73.50849559828734
 11
-16.24217443768242
 21
72.88049059828734
  0
LINE
  5
DF
100
AcDbEntity
  8
1mm
  6
ByLayer
 62
  256
370
   -1
100
AcDbLine
 10
-16.24217443768242
 20
72.88049059828734
 11
-16.25942643768242
 21
72.04853659828734
  0
LINE
  5
E0
100
AcDbEntity
  8
1mm
  6
ByLayer
 62
  256
370
   -1
100
AcDbLine
 10
-16.25942643768242
 20
72.04853659828734
 11
-16.75950843768243
 21
69.39230159828733
  0
LINE
  5
E1
100
AcDbEntity
  8
1mm
  6
ByLayer
 62
  256
370
   -1
100
AcDbLine
 10
-16.75950843768243
 20
69.39230159828733
 11
-17.49714443768242
 21
66.26918759828732
  0
LINE
  5
E2
100
AcDbEntity
  8
1mm
  6
ByLayer
 62
  256
370
   -1
100
AcDbLine
 10
-17.49714443768242
 20
66.26918759828732
 11
-26.56837843768243
 21
57.18517159828733
  0
LINE
  5
E3
100
AcDbEntity
  8
1mm
  6
ByLayer
 62
  256
370
   -1
100
AcDbLine
 10
-26.56837843768243
 20
57.18517159828733
 11
-33.10521943768242
 21
50.76958659828733
  0
LINE
  5
E4
100
AcDbEntity
  8
1mm
  6
ByLayer
 62
  256
370
   -1
100
AcDbLine
 10
-33.10521943768242
 20
50.76958659828733
 11
-36.08312743768242
 21
48.10115659828733
  0
LINE
  5
E5
100
AcDbEntity
  8
1mm
  6
ByLayer
 62
  256
370
   -1
100
AcDbLine
 10
-36.08312743768242
 20
48.10115659828733
 11
-36.34366943768242
 21
48.20201359828732
  0
LINE
  5
E6
100
AcDbEntity
  8
1mm
  6
ByLayer
 62
  256
370
   -1
100
AcDbLine
 10
-36.34366943768242
 20
48.20201359828732
 11
-36.45633043768242
 21
48.55854259828732
  0
LINE
  5
E7
100
AcDbEntity
  8
1mm
  6
ByLayer
 62
  256
370
   -1
100
AcDbLine
 10
-36.45633043768242
 20
48.55854259828732
 11
-36.15443643768242
 21
50.36237059828733
  0
LINE
  5
E8
100
AcDbEntity
  8
1mm
  6
ByLayer
 62
  256
370
   -1
100
AcDbLine
 10
-36.15443643768242
 20
50.36237059828733
 11
-35.01029443768243
 21
54.16014659828733
  0
LINE
  5
E9
100
AcDbEntity
  8
1mm
  6
ByLayer
 62
  256
370
   -1
100
AcDbLine
 10
-35.01029443768243
 20
54.16014659828733
 11
-32.85675143768242
 21
60.59937459828734
  0
LINE
  5
EA
100
AcDbEntity
  8
1mm
  6
ByLayer
 62
  256
370
   -1
100
AcDbLine
 10
-32.85675143768242
 20
60.59937459828734
 11
-30.35575443768242
 21
68.21634159828733
  0
LINE
  5
EB
100
AcDbEntity
  8
1mm
  6
ByLayer
 62
  256
370
   -1
100
AcDbLine
 10
-30.35575443768242
 20
68.21634159828733
 11
-29.49618343768242
 21
71.38446059828732
  0
LINE
  5
EC
100
AcDbEntity
  8
1mm
  6
ByLayer
 62
  256
370
   -1
100
AcDbLine
 10
-29.49618343768242
 20
71.38446059828732
 11
-32.54871543768243
 21
70.28369959828734
  0
LINE
  5
ED
100
AcDbEntity
  8
1mm
  6
ByLayer
 62
  256
370
   -1
100
AcDbLine
 10
-32.54871543768243
 20
70.28369959828734
 11
-38.50704343768243
 21
68.09575359828733
  0
LINE
  5
EE
100
AcDbEntity
  8
1mm
  6
ByLayer
 62
  256
370
   -1
100
AcDbLine
 10
-38.50704343768243
 20
68.09575359828733
 11
-42.59317343768242
 21
66.79835359828732
  0
LINE
  5
EF
100
AcDbEntity
  8
1mm
  6
ByLayer
 62
  256
370
   -1
100
AcDbLine
 10
-42.59317343768242
 20
66.79835359828732
 11
-42.89629743768242
 21
66.90604359828734
  0
LINE
  5
F0
100
AcDbEntity
  8
1mm
  6
ByLayer
 62
  256
370
   -1
100
AcDbLine
 10
-42.89629743768242
 20
66.90604359828734
 11
-42.68339043768242
 21
67.24476459828733
  0
LINE
  5
F1
100
AcDbEntity
  8
1mm
  6
ByLayer
 62
  256
370
   -1
100
AcDbLine
 10
-42.68339043768242
 20
67.24476459828733
 11
-40.55544643768243
 21
68.70921059828731
  0
LINE
  5
F2
100
AcDbEntity
  8
1mm
  6
ByLayer
 62
  256
370
   -1
100
AcDbLine
 10
-40.55544643768243
 20
68.70921059828731
 11
-35.90126443768243
 21
71.37951159828734
  0
LINE
  5
F3
100
AcDbEntity
  8
1mm
  6
ByLayer
 62
  256
370
   -1
100
AcDbLine
 10
-35.90126443768243
 20
71.37951159828734
 11
-28.41276543768242
 21
75.44348959828733
  0
LINE
  5
F4
100
AcDbEntity
  8
1mm
  6
ByLayer
 62
  256
370
   -1
100
AcDbLine
 10
-28.41276543768242
 20
75.44348959828733
 11
-19.08825643768242
 21
80.51571059828734
  0
LINE
  5
F5
100
AcDbEntity
  8
1mm
  6
ByLayer
 62
  256
370
   -1
100
AcDbLine
 10
-19.08825643768242
 20
80.51571059828734
 11
-10.94414243768243
 21
85.26755359828732
  0
LINE
  5
F6
100
AcDbEntity
  8
1mm
  6
ByLayer
 62
  256
370
   -1
100
AcDbLine
 10
-10.94414243768243
 20
85.26755359828732
 11
-0.8187314376824304
 21
91.62085759828733
  0
LINE
  5
F7
100
AcDbEntity
  8
1mm
  6
ByLayer
 62
  256
370
   -1
100
AcDbLine
 10
-0.8187314376824304
 20
91.62085759828733
 11
14.44967056231758
 21
101.4974585982873
  0
LINE
  5
F8
100
AcDbEntity
  8
1mm
  6
ByLayer
 62
  256
370
   -1
100
AcDbLine
 10
14.44967056231758
 20
101.4974585982873
 11
29.65768156231758
 21
111.2526555982873
  0
LINE
  5
F9
100
AcDbEntity
  8
1mm
  6
ByLayer
 62
  256
370
   -1
100
AcDbLine
 10
29.65768156231758
 20
111.2526555982873
 11
36.49825356231757
 21
115.3897625982873
  0
LINE
  5
FA
100
AcDbEntity
  8
1mm
  6
ByLayer
 62
  256
370
   -1
100
AcDbLine
 10
36.49825356231757
 20
115.3897625982873
 11
37.05071456231758
 21
115.3506095982873
  0
LINE
  5
FB
100
AcDbEntity
  8
1mm
  6
ByLayer
 62
  256
370
   -1
100
AcDbLine
 10
37.05071456231758
 20
115.3506095982873
 11
37.83457456231757
 21
115.1027615982873
  0
LINE
  5
FC
100
AcDbEntity
  8
1mm
  6
ByLayer
 62
  256
370
   -1
100
AcDbLine
 10
37.83457456231757
 20
115.1027615982873
 11
40.04539356231757
 21
114.0009845982873
  0
LINE
  5
FD
100
AcDbEntity
  8
1mm
  6
ByLayer
 62
  256
370
   -1
100
AcDbLine
 10
40.04539356231757
 20
114.0009845982873
 11
44.27872156231757
 21
111.8111205982873
  0
LINE
  5
FE
100
AcDbEntity
  8
1mm
  6
ByLayer
 62
  256
370
   -1
100
AcDbLine
 10
44.27872156231757
 20
111.8111205982873
 11
49.37748856231758
 21
109.5011615982873
  0
LINE
  5
FF
100
AcDbEntity
  8
1mm
  6
ByLayer
 62
  256
370
   -1
100
AcDbLine
 10
49.37748856231758
 20
109.5011615982873
 11
53.08503856231758
 21
107.3851155982873
  0
LINE
  5
100
100
AcDbEntity
  8
1mm
  6
ByLayer
 62
  256
370
   -1
100
AcDbLine
 10
53.08503856231758
 20
107.3851155982873
 11
55.75674756231757
 21
105.7886495982873
  0
LINE
  5
101
100
AcDbEntity
  8
1mm
  6
ByLayer
 62
  256
370
   -1
100
AcDbLine
 10
55.75674756231757
 20
105.7886495982873
 11
58.72921056231758
 21
104.1945015982873
  0
LINE
  5
102
100
AcDbEntity
  8
1mm
  6
ByLayer
 62
  256
370
   -1
100
AcDbLine
 10
58.72921056231758
 20
104.1945015982873
 11
61.55300356231757
 21
102.8319255982873
  0
LINE
  5
103
100
AcDbEntity
  8
1mm
  6
ByLayer
 62
  256
370
   -1
100
AcDbLine
 10
61.55300356231757
 20
102.8319255982873
 11
63.77870556231757
 21
101.9301765982873
  0
LINE
  5
104
100
AcDbEntity
  8
1mm
  6
ByLayer
 62
  256
370
   -1
100
AcDbLine
 10
63.77870556231757
 20
101.9301765982873
 11
66.93361856231758
 21
101.1410625982873
  0
LINE
  5
105
100
AcDbEntity
  8
1mm
  6
ByLayer
 62
  256
370
   -1
100
AcDbLine
 10
66.93361856231758
 20
101.1410625982873
 11
70.44398156231757
 21
100.7564625982873
  0
LINE
  5
106
100
AcDbEntity
  8
1mm
  6
ByLayer
 62
  256
370
   -1
100
AcDbLine
 10
70.44398156231757
 20
100.7564625982873
 11
74.25262156231757
 21
100.7792035982873
  0
LINE
  5
107
100
AcDbEntity
  8
1mm
  6
ByLayer
 62
  256
370
   -1
100
AcDbLine
 10
74.25262156231757
 20
100.7792035982873
 11
78.30236756231757
 21
101.2121115982873
  0
LINE
  5
108
100
AcDbEntity
  8
1mm
  6
ByLayer
 62
  256
370
   -1
100
AcDbLine
 10
78.30236756231757
 20
101.2121115982873
 11
83.41764056231757
 21
101.9427335982873
  0
LINE
  5
109
100
AcDbEntity
  8
1mm
  6
ByLayer
 62
  256
370
   -1
100
AcDbLine
 10
83.41764056231757
 20
101.9427335982873
 11
85.00513856231757
 21
102.1303805982873
  0
LINE
  5
10A
100
AcDbEntity
  8
1mm
  6
ByLayer
 62
  256
370
   -1
100
AcDbLine
 10
85.00513856231757
 20
102.1303805982873
 11
86.46901856231759
 21
99.54559859828734
  0
LINE
  5
10B
100
AcDbEntity
  8
1mm
  6
ByLayer
 62
  256
370
   -1
100
AcDbLine
 10
86.46901856231759
 20
99.54559859828734
 11
89.04126756231759
 21
95.44439459828732
  0
LINE
  5
10C
100
AcDbEntity
  8
1mm
  6
ByLayer
 62
  256
370
   -1
100
AcDbLine
 10
89.04126756231759
 20
95.44439459828732
 11
90.14963456231757
 21
93.92797159828731
  0
LINE
  5
10D
100
AcDbEntity
  8
1mm
  6
ByLayer
 62
  256
370
   -1
100
AcDbLine
 10
86.94541256231759
 20
90.44895459828732
 11
86.16234156231758
 21
91.47629159828733
  0
LINE
  5
10E
100
AcDbEntity
  8
1mm
  6
ByLayer
 62
  256
370
   -1
100
AcDbLine
 10
86.16234156231758
 20
91.47629159828733
 11
84.41482956231758
 21
93.39516859828734
  0
LINE
  5
10F
100
AcDbEntity
  8
1mm
  6
ByLayer
 62
  256
370
   -1
100
AcDbLine
 10
84.41482956231758
 20
93.39516859828734
 11
82.60543456231757
 21
95.24841859828732
  0
LINE
  5
110
100
AcDbEntity
  8
1mm
  6
ByLayer
 62
  256
370
   -1
100
AcDbLine
 10
82.60543456231757
 20
95.24841859828732
 11
81.63671156231757
 21
96.07887259828732
  0
LINE
  5
111
100
AcDbEntity
  8
1mm
  6
ByLayer
 62
  256
370
   -1
100
AcDbLine
 10
81.63671156231757
 20
96.07887259828732
 11
81.23276456231757
 21
95.84980759828733
  0
LINE
  5
112
100
AcDbEntity
  8
1mm
  6
ByLayer
 62
  256
370
   -1
100
AcDbLine
 10
81.23276456231757
 20
95.84980759828733
 11
80.91514456231758
 21
95.31181159828733
  0
LINE
  5
113
100
AcDbEntity
  8
1mm
  6
ByLayer
 62
  256
370
   -1
100
AcDbLine
 10
80.91514456231758
 20
95.31181159828733
 11
80.77255456231758
 21
94.68868859828731
  0
LINE
  5
114
100
AcDbEntity
  8
1mm
  6
ByLayer
 62
  256
370
   -1
100
AcDbLine
 10
80.77255456231758
 20
94.68868859828731
 11
80.89370156231757
 21
94.20424159828733
  0
LINE
  5
115
100
AcDbEntity
  8
1mm
  6
ByLayer
 62
  256
370
   -1
100
AcDbLine
 10
80.89370156231757
 20
94.20424159828733
 11
81.38076656231758
 21
93.01129759828731
  0
LINE
  5
116
100
AcDbEntity
  8
1mm
  6
ByLayer
 62
  256
370
   -1
100
AcDbLine
 10
81.38076656231758
 20
93.01129759828731
 11
81.98423156231758
 21
90.84530659828732
  0
LINE
  5
117
100
AcDbEntity
  8
1mm
  6
ByLayer
 62
  256
370
   -1
100
AcDbLine
 10
81.98423156231758
 20
90.84530659828732
 11
82.50118856231758
 21
88.51969359828732
  0
LINE
  5
118
100
AcDbEntity
  8
1mm
  6
ByLayer
 62
  256
370
   -1
100
AcDbLine
 10
82.50118856231758
 20
88.51969359828732
 11
82.72872956231757
 21
86.84788459828732
  0
LINE
  5
119
100
AcDbEntity
  8
1mm
  6
ByLayer
 62
  256
370
   -1
100
AcDbLine
 10
82.72872956231757
 20
86.84788459828732
 11
82.74537256231757
 21
85.67194259828733
  0
LINE
  5
11A
100
AcDbEntity
  8
1mm
  6
ByLayer
 62
  256
370
   -1
100
AcDbLine
 10
86.94541256231759
 20
90.44895459828732
 11
86.94541256231759
 21
90.44895459828732
  0
LINE
  5
11B
100
AcDbEntity
  8
1mm
  6
ByLayer
 62
  256
370
   -1
100
AcDbLine
 10
82.74537256231757
 20
85.67194259828733
 11
80.10024556231757
 21
79.44150459828734
  0
LINE
  5
11C
100
AcDbEntity
  8
tall
  6
ByLayer
 62
  256
370
   -1
100
AcDbLine
 10
80.10024556231757
 20
79.44150459828734
 11
77.40930456231757
 21
72.44279259828733
  0
LINE
  5
11D
100
AcDbEntity
  8
tall
  6
ByLayer
 62
  256
370
   -1
100
AcDbLine
 10
77.40930456231757
 20
72.44279259828733
 11
74.73480056231757
 21
65.79014759828732
  0
LINE
  5
11E
100
AcDbEntity
  8
tall
  6
ByLayer
 62
  256
370
   -1
100
AcDbLine
 10
74.73480056231757
 20
65.79014759828732
 11
73.98239956231757
 21
64.40633959828733
  0
LINE
  5
11F
100
AcDbEntity
  8
tall
  6
ByLayer
 62
  256
370
   -1
100
AcDbLine
 10
73.98239956231757
 20
64.40633959828733
 11
73.46584856231757
 21
63.98722259828733
  0
LINE
  5
120
100
AcDbEntity
  8
tall
  6
ByLayer
 62
  256
370
   -1
100
AcDbLine
 10
73.46584856231757
 20
63.98722259828733
 11
73.18835156231758
 21
64.36799359828734
  0
LINE
  5
121
100
AcDbEntity
  8
tall
  6
ByLayer
 62
  256
370
   -1
100
AcDbLine
 10
73.18835156231758
 20
64.36799359828734
 11
72.87283356231758
 21
65.29905159828732
  0
LINE
  5
122
100
AcDbEntity
  8
tall
  6
ByLayer
 62
  256
370
   -1
100
AcDbLine
 10
72.87283356231758
 20
65.29905159828732
 11
72.34055556231758
 21
69.01673559828734
  0
LINE
  5
123
100
AcDbEntity
  8
tall
  6
ByLayer
 62
  256
370
   -1
100
AcDbLine
 10
72.34055556231758
 20
69.01673559828734
 11
71.21841956231758
 21
81.62341259828733
  0
LINE
  5
124
100
AcDbEntity
  8
tall
  6
ByLayer
 62
  256
370
   -1
100
AcDbLine
 10
71.21841956231758
 20
81.62341259828733
 11
70.62884156231758
 21
88.51098159828732
  0
LINE
  5
125
100
AcDbEntity
  8
tall
  6
ByLayer
 62
  256
370
   -1
100
AcDbLine
 10
70.62884156231758
 20
88.51098159828732
 11
72.52533256231757
 21
91.58114759828732
  0
LINE
  5
126
100
AcDbEntity
  8
tall
  6
ByLayer
 62
  256
370
   -1
100
AcDbLine
 10
72.52533256231757
 20
91.58114759828732
 11
74.19552356231758
 21
93.98891759828732
  0
LINE
  5
127
100
AcDbEntity
  8
tall
  6
ByLayer
 62
  256
370
   -1
100
AcDbLine
 10
74.19552356231758
 20
93.98891759828732
 11
74.85874456231757
 21
94.69135459828732
  0
LINE
  5
128
100
AcDbEntity
  8
tall
  6
ByLayer
 62
  256
370
   -1
100
AcDbLine
 10
74.85874456231757
 20
94.69135459828732
 11
75.40991656231758
 21
95.06255159828731
  0
LINE
  5
129
100
AcDbEntity
  8
tall
  6
ByLayer
 62
  256
370
   -1
100
AcDbLine
 10
75.40991656231758
 20
95.06255159828731
 11
76.10019556231758
 21
95.56130959828732
  0
LINE
  5
12A
100
AcDbEntity
  8
tall
  6
ByLayer
 62
  256
370
   -1
100
AcDbLine
 10
76.10019556231758
 20
95.56130959828732
 11
76.30757056231758
 21
96.17984659828733
  0
LINE
  5
12B
100
AcDbEntity
  8
tall
  6
ByLayer
 62
  256
370
   -1
100
AcDbLine
 10
76.30757056231758
 20
96.17984659828733
 11
76.03958156231758
 21
96.76804159828734
  0
LINE
  5
12C
100
AcDbEntity
  8
tall
  6
ByLayer
 62
  256
370
   -1
100
AcDbLine
 10
76.03958156231758
 20
96.76804159828734
 11
75.30376856231757
 21
97.17577359828732
  0
LINE
  5
12D
100
AcDbEntity
  8
tall
  6
ByLayer
 62
  256
370
   -1
100
AcDbLine
 10
75.30376856231757
 20
97.17577359828732
 11
72.66600256231757
 21
97.36616059828734
  0
LINE
  5
12E
100
AcDbEntity
  8
tall
  6
ByLayer
 62
  256
370
   -1
100
AcDbLine
 10
72.66600256231757
 20
97.36616059828734
 11
67.99080756231757
 21
97.44958859828733
  0
LINE
  5
12F
100
AcDbEntity
  8
tall
  6
ByLayer
 62
  256
370
   -1
100
AcDbLine
 10
67.99080756231757
 20
97.44958859828733
 11
63.53251356231758
 21
97.41419959828733
  0
LINE
  5
130
100
AcDbEntity
  8
tall
  6
ByLayer
 62
  256
370
   -1
100
AcDbLine
 10
63.53251356231758
 20
97.41419959828733
 11
61.54545256231758
 21
97.24813659828732
  0
LINE
  5
131
100
AcDbEntity
  8
tall
  6
ByLayer
 62
  256
370
   -1
100
AcDbLine
 10
61.54545256231758
 20
97.24813659828732
 11
62.20147556231757
 21
96.27799859828733
  0
LINE
  5
132
100
AcDbEntity
  8
tall
  6
ByLayer
 62
  256
370
   -1
100
AcDbLine
 10
62.20147556231757
 20
96.27799859828733
 11
62.88715956231758
 21
94.85841259828732
  0
LINE
  5
133
100
AcDbEntity
  8
tall
  6
ByLayer
 62
  256
370
   -1
100
AcDbLine
 10
62.88715956231758
 20
94.85841259828732
 11
63.61449156231757
 21
92.46807459828733
  0
LINE
  5
134
100
AcDbEntity
  8
tall
  6
ByLayer
 62
  256
370
   -1
100
AcDbLine
 10
63.61449156231757
 20
92.46807459828733
 11
64.37148256231758
 21
89.38644159828732
  0
LINE
  5
135
100
AcDbEntity
  8
tall
  6
ByLayer
 62
  256
370
   -1
100
AcDbLine
 10
64.37148256231758
 20
89.38644159828732
 11
59.18202556231758
 21
78.08902259828733
  0
LINE
  5
136
100
AcDbEntity
  8
tall
  6
ByLayer
 62
  256
370
   -1
100
AcDbLine
 10
59.18202556231758
 20
78.08902259828733
 11
55.04765056231757
 21
69.36440859828733
  0
LINE
  5
137
100
AcDbEntity
  8
tall
  6
ByLayer
 62
  256
370
   -1
100
AcDbLine
 10
55.04765056231757
 20
69.36440859828733
 11
54.08352456231758
 21
67.65804159828733
  0
LINE
  5
138
100
AcDbEntity
  8
tall
  6
ByLayer
 62
  256
370
   -1
100
AcDbLine
 10
54.08352456231758
 20
67.65804159828733
 11
53.81706156231758
 21
67.35176059828731
  0
LINE
  5
139
100
AcDbEntity
  8
tall
  6
ByLayer
 62
  256
370
   -1
100
AcDbLine
 10
53.81706156231758
 20
67.35176059828731
 11
53.67140956231758
 21
67.36547659828733
  0
LINE
  5
13A
100
AcDbEntity
  8
tall
  6
ByLayer
 62
  256
370
   -1
100
AcDbLine
 10
53.67140956231758
 20
67.36547659828733
 11
53.28447356231757
 21
71.22476759828731
  0
LINE
  5
13B
100
AcDbEntity
  8
tall
  6
ByLayer
 62
  256
370
   -1
100
AcDbLine
 10
53.28447356231757
 20
71.22476759828731
 11
52.80516556231757
 21
79.69761859828733
  0
LINE
  5
13C
100
AcDbEntity
  8
tall
  6
ByLayer
 62
  256
370
   -1
100
AcDbLine
 10
52.80516556231757
 20
79.69761859828733
 11
52.26007656231758
 21
91.45588859828732
  0
LINE
  5
13D
100
AcDbEntity
  8
tall
  6
ByLayer
 62
  256
370
   -1
100
AcDbLine
 10
52.26007656231758
 20
91.45588859828732
 11
54.10304256231757
 21
94.26306659828734
  0
LINE
  5
13E
100
AcDbEntity
  8
tall
  6
ByLayer
 62
  256
370
   -1
100
AcDbLine
 10
54.10304256231757
 20
94.26306659828734
 11
55.74039256231758
 21
96.46442059828732
  0
LINE
  5
13F
100
AcDbEntity
  8
tall
  6
ByLayer
 62
  256
370
   -1
100
AcDbLine
 10
55.74039256231758
 20
96.46442059828732
 11
56.41573056231758
 21
97.13343259828733
  0
LINE
  5
140
100
AcDbEntity
  8
tall
  6
ByLayer
 62
  256
370
   -1
100
AcDbLine
 10
56.41573056231758
 20
97.13343259828733
 11
56.98184356231758
 21
97.49929959828734
  0
LINE
  5
141
100
AcDbEntity
  8
tall
  6
ByLayer
 62
  256
370
   -1
100
AcDbLine
 10
56.98184356231758
 20
97.49929959828734
 11
57.76279456231758
 21
98.01349759828733
  0
LINE
  5
142
100
AcDbEntity
  8
tall
  6
ByLayer
 62
  256
370
   -1
100
AcDbLine
 10
57.76279456231758
 20
98.01349759828733
 11
58.01768056231758
 21
98.70341759828733
  0
LINE
  5
143
100
AcDbEntity
  8
tall
  6
ByLayer
 62
  256
370
   -1
100
AcDbLine
 10
58.01768056231758
 20
98.70341759828733
 11
57.65062956231758
 21
99.36833459828733
  0
LINE
  5
144
100
AcDbEntity
  8
tall
  6
ByLayer
 62
  256
370
   -1
100
AcDbLine
 10
57.65062956231758
 20
99.36833459828733
 11
56.66450256231758
 21
100.2901065982873
  0
LINE
  5
145
100
AcDbEntity
  8
tall
  6
ByLayer
 62
  256
370
   -1
100
AcDbLine
 10
56.66450256231758
 20
100.2901065982873
 11
53.52516956231757
 21
102.4782435982873
  0
LINE
  5
146
100
AcDbEntity
  8
tall
  6
ByLayer
 62
  256
370
   -1
100
AcDbLine
 10
53.52516956231757
 20
102.4782435982873
 11
49.97998756231758
 21
104.4158835982873
  0
LINE
  5
147
100
AcDbEntity
  8
tall
  6
ByLayer
 62
  256
370
   -1
100
AcDbLine
 10
49.97998756231758
 20
104.4158835982873
 11
48.48654756231757
 21
105.0245355982873
  0
LINE
  5
148
100
AcDbEntity
  8
tall
  6
ByLayer
 62
  256
370
   -1
100
AcDbLine
 10
48.48654756231757
 20
105.0245355982873
 11
47.40925956231757
 21
105.2510845982873
  0
LINE
  5
149
100
AcDbEntity
  8
tall
  6
ByLayer
 62
  256
370
   -1
100
AcDbLine
 10
47.40925956231757
 20
105.2510845982873
 11
47.11659056231757
 21
105.0672675982873
  0
LINE
  5
14A
100
AcDbEntity
  8
tall
  6
ByLayer
 62
  256
370
   -1
100
AcDbLine
 10
47.11659056231757
 20
105.0672675982873
 11
46.93384456231757
 21
104.6312285982873
  0
LINE
  5
14B
100
AcDbEntity
  8
tall
  6
ByLayer
 62
  256
370
   -1
100
AcDbLine
 10
46.93384456231757
 20
104.6312285982873
 11
46.90037556231758
 21
104.1160895982873
  0
LINE
  5
14C
100
AcDbEntity
  8
tall
  6
ByLayer
 62
  256
370
   -1
100
AcDbLine
 10
46.90037556231758
 20
104.1160895982873
 11
47.05553556231757
 21
103.6949685982873
  0
LINE
  5
14D
100
AcDbEntity
  8
tall
  6
ByLayer
 62
  256
370
   -1
100
AcDbLine
 10
47.05553556231757
 20
103.6949685982873
 11
47.38649656231757
 21
102.7865555982873
  0
LINE
  5
14E
100
AcDbEntity
  8
tall
  6
ByLayer
 62
  256
370
   -1
100
AcDbLine
 10
47.38649656231757
 20
102.7865555982873
 11
47.73933956231757
 21
101.1100495982873
  0
LINE
  5
14F
100
AcDbEntity
  8
tall
  6
ByLayer
 62
  256
370
   -1
100
AcDbLine
 10
47.73933956231757
 20
101.1100495982873
 11
48.13724856231758
 21
97.56790659828732
  0
LINE
  5
150
100
AcDbEntity
  8
tall
  6
ByLayer
 62
  256
370
   -1
100
AcDbLine
 10
48.13724856231758
 20
97.56790659828732
 11
47.83625756231757
 21
96.50709959828734
  0
LINE
  5
151
100
AcDbEntity
  8
tall
  6
ByLayer
 62
  256
370
   -1
100
AcDbLine
 10
47.83625756231757
 20
96.50709959828734
 11
46.84386156231757
 21
94.45303459828733
  0
LINE
  5
152
100
AcDbEntity
  8
tall
  6
ByLayer
 62
  256
370
   -1
100
AcDbLine
 10
46.84386156231757
 20
94.45303459828733
 11
42.26736156231757
 21
86.37837359828734
  0
LINE
  5
153
100
AcDbEntity
  8
tall
  6
ByLayer
 62
  256
370
   -1
100
AcDbLine
 10
42.26736156231757
 20
86.37837359828734
 11
38.03143856231758
 21
79.34741059828733
  0
LINE
  5
154
100
AcDbEntity
  8
tall
  6
ByLayer
 62
  256
370
   -1
100
AcDbLine
 10
38.03143856231758
 20
79.34741059828733
 11
36.09375856231757
 21
76.53170059828733
  0
LINE
  5
155
100
AcDbEntity
  8
tall
  6
ByLayer
 62
  256
370
   -1
100
AcDbLine
 10
36.09375856231757
 20
76.53170059828733
 11
35.87062056231757
 21
77.64571659828732
  0
LINE
  5
156
100
AcDbEntity
  8
tall
  6
ByLayer
 62
  256
370
   -1
100
AcDbLine
 10
35.87062056231757
 20
77.64571659828732
 11
35.80917056231758
 21
80.57908259828733
  0
LINE
  5
157
100
AcDbEntity
  8
tall
  6
ByLayer
 62
  256
370
   -1
100
AcDbLine
 10
35.80917056231758
 20
80.57908259828733
 11
36.17034256231757
 21
91.70684559828732
  0
LINE
  5
158
100
AcDbEntity
  8
tall
  6
ByLayer
 62
  256
370
   -1
100
AcDbLine
 10
36.17034256231757
 20
91.70684559828732
 11
36.54797656231757
 21
99.73965359828733
  0
LINE
  5
159
100
AcDbEntity
  8
tall
  6
ByLayer
 62
  256
370
   -1
100
AcDbLine
 10
36.54797656231757
 20
99.73965359828733
 11
38.71724756231758
 21
102.3189805982873
  0
LINE
  5
15A
100
AcDbEntity
  8
tall
  6
ByLayer
 62
  256
370
   -1
100
AcDbLine
 10
38.71724756231758
 20
102.3189805982873
 11
40.36592256231758
 21
104.1406285982873
  0
LINE
  5
15B
100
AcDbEntity
  8
tall
  6
ByLayer
 62
  256
370
   -1
100
AcDbLine
 10
40.36592256231758
 20
104.1406285982873
 11
41.28354656231757
 21
104.8983055982873
  0
LINE
  5
15C
100
AcDbEntity
  8
tall
  6
ByLayer
 62
  256
370
   -1
100
AcDbLine
 10
41.28354656231757
 20
104.8983055982873
 11
41.74537656231757
 21
105.0987865982873
  0
LINE
  5
15D
100
AcDbEntity
  8
tall
  6
ByLayer
 62
  256
370
   -1
100
AcDbLine
 10
41.74537656231757
 20
105.0987865982873
 11
42.29820956231758
 21
105.5807915982873
  0
LINE
  5
15E
100
AcDbEntity
  8
tall
  6
ByLayer
 62
  256
370
   -1
100
AcDbLine
 10
42.29820956231758
 20
105.5807915982873
 11
42.60965056231757
 21
105.9855015982873
  0
LINE
  5
15F
100
AcDbEntity
  8
tall
  6
ByLayer
 62
  256
370
   -1
100
AcDbLine
 10
42.60965056231757
 20
105.9855015982873
 11
42.57404356231757
 21
106.3001375982873
  0
LINE
  5
160
100
AcDbEntity
  8
tall
  6
ByLayer
 62
  256
370
   -1
100
AcDbLine
 10
42.57404356231757
 20
106.3001375982873
 11
41.02997256231757
 21
107.2157455982873
  0
LINE
  5
161
100
AcDbEntity
  8
tall
  6
ByLayer
 62
  256
370
   -1
100
AcDbLine
 10
41.02997256231757
 20
107.2157455982873
 11
37.61173756231757
 21
109.2187795982873
  0
LINE
  5
162
100
AcDbEntity
  8
tall
  6
ByLayer
 62
  256
370
   -1
100
AcDbLine
 10
37.61173756231757
 20
109.2187795982873
 11
36.07938456231757
 21
110.2693405982873
  0
LINE
  5
163
100
AcDbEntity
  8
tall
  6
ByLayer
 62
  256
370
   -1
100
AcDbLine
 10
36.07938456231757
 20
110.2693405982873
 11
33.63888656231758
 21
108.6018215982873
  0
LINE
  5
164
100
AcDbEntity
  8
tall
  6
ByLayer
 62
  256
370
   -1
100
AcDbLine
 10
33.63888656231758
 20
108.6018215982873
 11
31.98020356231757
 21
107.4412495982873
  0
LINE
  5
165
100
AcDbEntity
  8
tall
  6
ByLayer
 62
  256
370
   -1
100
AcDbLine
 10
31.98020356231757
 20
107.4412495982873
 11
31.16040156231757
 21
106.7226205982873
  0
LINE
  5
166
100
AcDbEntity
  8
tall
  6
ByLayer
 62
  256
370
   -1
100
AcDbLine
 10
31.16040156231757
 20
106.7226205982873
 11
30.97381156231758
 21
106.1902865982873
  0
LINE
  5
167
100
AcDbEntity
  8
tall
  6
ByLayer
 62
  256
370
   -1
100
AcDbLine
 10
30.97381156231758
 20
106.1902865982873
 11
31.21476956231757
 21
105.5886025982873
  0
LINE
  5
168
100
AcDbEntity
  8
tall
  6
ByLayer
 62
  256
370
   -1
100
AcDbLine
 10
31.21476956231757
 20
105.5886025982873
 11
31.43137756231758
 21
104.9099155982873
  0
LINE
  5
169
100
AcDbEntity
  8
tall
  6
ByLayer
 62
  256
370
   -1
100
AcDbLine
 10
31.43137756231758
 20
104.9099155982873
 11
31.20892156231757
 21
104.3719305982873
  0
LINE
  5
16A
100
AcDbEntity
  8
tall
  6
ByLayer
 62
  256
370
   -1
100
AcDbLine
 10
31.20892156231757
 20
104.3719305982873
 11
31.01513856231757
 21
103.7648955982873
  0
LINE
  5
16B
100
AcDbEntity
  8
tall
  6
ByLayer
 62
  256
370
   -1
100
AcDbLine
 10
31.01513856231757
 20
103.7648955982873
 11
31.35823656231757
 21
102.8295205982873
  0
LINE
  5
16C
100
AcDbEntity
  8
tall
  6
ByLayer
 62
  256
370
   -1
100
AcDbLine
 10
31.35823656231757
 20
102.8295205982873
 11
31.61347956231758
 21
102.1862965982873
  0
LINE
  5
16D
100
AcDbEntity
  8
tall
  6
ByLayer
 62
  256
370
   -1
100
AcDbLine
 10
31.61347956231758
 20
102.1862965982873
 11
31.74546856231757
 21
101.4153815982873
  0
LINE
  5
16E
100
AcDbEntity
  8
tall
  6
ByLayer
 62
  256
370
   -1
100
AcDbLine
 10
31.74546856231757
 20
101.4153815982873
 11
31.68002756231758
 21
99.01182059828733
  0
LINE
  5
16F
100
AcDbEntity
  8
tall
  6
ByLayer
 62
  256
370
   -1
100
AcDbLine
 10
31.68002756231758
 20
99.01182059828733
 11
31.51787156231758
 21
97.19044659828734
  0
LINE
  5
170
100
AcDbEntity
  8
tall
  6
ByLayer
 62
  256
370
   -1
100
AcDbLine
 10
31.51787156231758
 20
97.19044659828734
 11
31.26838556231758
 21
96.43481859828734
  0
LINE
  5
171
100
AcDbEntity
  8
tall
  6
ByLayer
 62
  256
370
   -1
100
AcDbLine
 10
31.26838556231758
 20
96.43481859828734
 11
30.73320556231758
 21
95.53333059828734
  0
LINE
  5
172
100
AcDbEntity
  8
tall
  6
ByLayer
 62
  256
370
   -1
100
AcDbLine
 10
30.73320556231758
 20
95.53333059828734
 11
28.28548956231758
 21
92.54507259828733
  0
LINE
  5
173
100
AcDbEntity
  8
tall
  6
ByLayer
 62
  256
370
   -1
100
AcDbLine
 10
28.28548956231758
 20
92.54507259828733
 11
23.13418456231757
 21
86.73027459828734
  0
LINE
  5
174
100
AcDbEntity
  8
tall
  6
ByLayer
 62
  256
370
   -1
100
AcDbLine
 10
23.13418456231757
 20
86.73027459828734
 11
17.70167356231758
 21
80.77967059828734
  0
LINE
  5
175
100
AcDbEntity
  8
tall
  6
ByLayer
 62
  256
370
   -1
100
AcDbLine
 10
17.70167356231758
 20
80.77967059828734
 11
16.74390056231758
 21
80.00506459828733
  0
LINE
  5
176
100
AcDbEntity
  8
tall
  6
ByLayer
 62
  256
370
   -1
100
AcDbLine
 10
16.74390056231758
 20
80.00506459828733
 11
16.54185256231757
 21
80.00892359828734
  0
LINE
  5
177
100
AcDbEntity
  8
tall
  6
ByLayer
 62
  256
370
   -1
100
AcDbLine
 10
16.54185256231757
 20
80.00892359828734
 11
16.46235156231756
 21
80.21298159828731
  0
LINE
  5
178
100
AcDbEntity
  8
tall
  6
ByLayer
 62
  256
370
   -1
100
AcDbLine
 10
16.46235156231756
 20
80.21298159828731
 11
16.96468056231757
 21
83.57594159828733
  0
LINE
  5
179
100
AcDbEntity
  8
tall
  6
ByLayer
 62
  256
370
   -1
100
AcDbLine
 10
16.96468056231757
 20
83.57594159828733
 11
18.31843756231757
 21
90.41012159828733
  0
LINE
  5
17A
100
AcDbEntity
  8
tall
  6
ByLayer
 62
  256
370
   -1
100
AcDbLine
 10
18.31843756231757
 20
90.41012159828733
 11
20.14844456231756
 21
99.84630259828734
  0
LINE
  5
17B
100
AcDbEntity
  8
tall
  6
ByLayer
 62
  256
370
   -1
100
AcDbLine
 10
20.14844456231756
 20
99.84630259828734
 11
17.81895256231758
 21
98.35725259828732
  0
LINE
  5
17C
100
AcDbEntity
  8
tall
  6
ByLayer
 62
  256
370
   -1
100
AcDbLine
 10
17.81895256231758
 20
98.35725259828732
 11
16.04146256231758
 21
96.86960959828733
  0
LINE
  5
17D
100
AcDbEntity
  8
tall
  6
ByLayer
 62
  256
370
   -1
100
AcDbLine
 10
16.04146256231758
 20
96.86960959828733
 11
15.79861956231758
 21
96.37987159828734
  0
LINE
  5
17E
100
AcDbEntity
  8
tall
  6
ByLayer
 62
  256
370
   -1
100
AcDbLine
 10
15.79861956231758
 20
96.37987159828734
 11
15.83689556231758
 21
95.87209859828732
  0
LINE
  5
17F
100
AcDbEntity
  8
tall
  6
ByLayer
 62
  256
370
   -1
100
AcDbLine
 10
15.83689556231758
 20
95.87209859828732
 11
15.87690356231758
 21
95.04838159828734
  0
LINE
  5
180
100
AcDbEntity
  8
tall
  6
ByLayer
 62
  256
370
   -1
100
AcDbLine
 10
15.87690356231758
 20
95.04838159828734
 11
15.66786656231758
 21
94.28409059828732
  0
LINE
  5
181
100
AcDbEntity
  8
tall
  6
ByLayer
 62
  256
370
   -1
100
AcDbLine
 10
15.66786656231758
 20
94.28409059828732
 11
15.47954556231758
 21
93.53602859828732
  0
LINE
  5
182
100
AcDbEntity
  8
tall
  6
ByLayer
 62
  256
370
   -1
100
AcDbLine
 10
15.47954556231758
 20
93.53602859828732
 11
15.83571856231757
 21
92.71624259828732
  0
LINE
  5
183
100
AcDbEntity
  8
tall
  6
ByLayer
 62
  256
370
   -1
100
AcDbLine
 10
15.83571856231757
 20
92.71624259828732
 11
16.25505456231758
 21
91.43277659828732
  0
LINE
  5
184
100
AcDbEntity
  8
tall
  6
ByLayer
 62
  256
370
   -1
100
AcDbLine
 10
16.25505456231758
 20
91.43277659828732
 11
16.38995556231757
 21
89.22667359828733
  0
LINE
  5
185
100
AcDbEntity
  8
tall
  6
ByLayer
 62
  256
370
   -1
100
AcDbLine
 10
16.38995556231757
 20
89.22667359828733
 11
16.38995556231757
 21
86.58298159828732
  0
LINE
  5
186
100
AcDbEntity
  8
tall
  6
ByLayer
 62
  256
370
   -1
100
AcDbLine
 10
16.38995556231757
 20
86.58298159828732
 11
14.36148856231758
 21
84.16856359828734
  0
LINE
  5
187
100
AcDbEntity
  8
tall
  6
ByLayer
 62
  256
370
   -1
100
AcDbLine
 10
14.36148856231758
 20
84.16856359828734
 11
6.314041562317584
 21
74.84695359828731
  0
LINE
  5
188
100
AcDbEntity
  8
tall
  6
ByLayer
 62
  256
370
   -1
100
AcDbLine
 10
6.314041562317584
 20
74.84695359828731
 11
1.538023562317576
 21
69.62057259828734
  0
LINE
  5
189
100
AcDbEntity
  8
tall
  6
ByLayer
 62
  256
370
   -1
100
AcDbLine
 10
1.538023562317576
 20
69.62057259828734
 11
1.318682562317576
 21
69.71864559828734
  0
LINE
  5
18A
100
AcDbEntity
  8
tall
  6
ByLayer
 62
  256
370
   -1
100
AcDbLine
 10
1.318682562317576
 20
69.71864559828734
 11
1.19715956231758
 21
70.05199559828733
  0
LINE
  5
18B
100
AcDbEntity
  8
tall
  6
ByLayer
 62
  256
370
   -1
100
AcDbLine
 10
1.19715956231758
 20
70.05199559828733
 11
1.278912562317572
 21
71.65932059828734
  0
LINE
  5
18C
100
AcDbEntity
  8
tall
  6
ByLayer
 62
  256
370
   -1
100
AcDbLine
 10
1.278912562317572
 20
71.65932059828734
 11
2.961019562317574
 21
80.28001659828732
  0
LINE
  5
18D
100
AcDbEntity
  8
tall
  6
ByLayer
 62
  256
370
   -1
100
AcDbLine
 10
2.961019562317574
 20
80.28001659828732
 11
4.944259562317569
 21
89.99359359828733
  0
LINE
  5
18E
100
AcDbEntity
  8
tall
  6
ByLayer
 62
  256
370
   -1
100
AcDbLine
 10
4.944259562317569
 20
89.99359359828733
 11
2.846931562317565
 21
88.67829759828732
  0
LINE
  5
18F
100
AcDbEntity
  8
tall
  6
ByLayer
 62
  256
370
   -1
100
AcDbLine
 10
2.846931562317565
 20
88.67829759828732
 11
0.3940985623175663
 21
86.90789459828733
  0
LINE
  5
190
100
AcDbEntity
  8
tall
  6
ByLayer
 62
  256
370
   -1
100
AcDbLine
 10
0.3940985623175663
 20
86.90789459828733
 11
0.3045745623175833
 21
86.48636559828734
  0
LINE
  5
191
100
AcDbEntity
  8
tall
  6
ByLayer
 62
  256
370
   -1
100
AcDbLine
 10
0.3045745623175833
 20
86.48636559828734
 11
0.5067735623175764
 21
85.86365459828733
  0
LINE
  5
192
100
AcDbEntity
  8
tall
  6
ByLayer
 62
  256
370
   -1
100
AcDbLine
 10
0.5067735623175764
 20
85.86365459828733
 11
0.7386685623175708
 21
85.15111359828734
  0
LINE
  5
193
100
AcDbEntity
  8
tall
  6
ByLayer
 62
  256
370
   -1
100
AcDbLine
 10
0.7386685623175708
 20
85.15111359828734
 11
0.4895235623175722
 21
84.58295359828733
  0
LINE
  5
194
100
AcDbEntity
  8
tall
  6
ByLayer
 62
  256
370
   -1
100
AcDbLine
 10
0.4895235623175722
 20
84.58295359828733
 11
0.3079495623175745
 21
84.26779959828733
  0
LINE
  5
195
100
AcDbEntity
  8
tall
  6
ByLayer
 62
  256
370
   -1
100
AcDbLine
 10
0.3079495623175745
 20
84.26779959828733
 11
0.2764445623175789
 21
83.88946559828733
  0
LINE
  5
196
100
AcDbEntity
  8
tall
  6
ByLayer
 62
  256
370
   -1
100
AcDbLine
 10
0.2764445623175789
 20
83.88946559828733
 11
0.6925905623175765
 21
82.67059459828732
  0
LINE
  5
197
100
AcDbEntity
  8
tall
  6
ByLayer
 62
  256
370
   -1
100
AcDbLine
 10
0.6925905623175765
 20
82.67059459828732
 11
0.9938705623175679
 21
81.87138559828733
  0
LINE
  5
198
100
AcDbEntity
  8
tall
  6
ByLayer
 62
  256
370
   -1
100
AcDbLine
 10
0.9938705623175679
 20
81.87138559828733
 11
1.150737562317573
 21
81.05473859828732
  0
LINE
  5
199
100
AcDbEntity
  8
tall
  6
ByLayer
 62
  256
370
   -1
100
AcDbLine
 10
1.150737562317573
 20
81.05473859828732
 11
1.091388562317576
 21
78.78268559828732
  0
LINE
  5
19A
100
AcDbEntity
  8
tall
  6
ByLayer
 62
  256
370
   -1
100
AcDbLine
 10
1.091388562317576
 20
78.78268559828732
 11
0.859941562317573
 21
76.29241159828732
  0
LINE
  5
19B
100
AcDbEntity
  8
tall
  6
ByLayer
 62
  256
370
   -1
100
AcDbLine
 10
0.859941562317573
 20
76.29241159828732
 11
-7.133914437682421
 21
66.79931959828733
  0
LINE
  5
19C
100
AcDbEntity
  8
tall
  6
ByLayer
 62
  256
370
   -1
100
AcDbLine
 10
-7.133914437682421
 20
66.79931959828733
 11
-12.86550343768242
 21
60.14792559828732
  0
LINE
  5
19D
100
AcDbEntity
  8
tall
  6
ByLayer
 62
  256
370
   -1
100
AcDbLine
 10
-12.86550343768242
 20
60.14792559828732
 11
-15.42028243768243
 21
57.48700559828734
  0
LINE
  5
19E
100
AcDbEntity
  8
tall
  6
ByLayer
 62
  256
370
   -1
100
AcDbLine
 10
-15.42028243768243
 20
57.48700559828734
 11
-15.59458643768242
 21
57.70326659828731
  0
LINE
  5
19F
100
AcDbEntity
  8
tall
  6
ByLayer
 62
  256
370
   -1
100
AcDbLine
 10
-15.59458643768242
 20
57.70326659828731
 11
-15.66509843768242
 21
58.13231159828732
  0
LINE
  5
1A0
100
AcDbEntity
  8
tall
  6
ByLayer
 62
  256
370
   -1
100
AcDbLine
 10
-15.66509843768242
 20
58.13231159828732
 11
-15.43177443768242
 21
59.94899159828734
  0
LINE
  5
1A1
100
AcDbEntity
  8
tall
  6
ByLayer
 62
  256
370
   -1
100
AcDbLine
 10
-15.43177443768242
 20
59.94899159828734
 11
-13.02694343768243
 21
69.65836559828733
  0
LINE
  5
1A2
100
AcDbEntity
  8
tall
  6
ByLayer
 62
  256
370
   -1
100
AcDbLine
 10
-13.02694343768243
 20
69.65836559828733
 11
-10.47513343768242
 21
80.02271159828732
  0
LINE
  5
1A3
100
AcDbEntity
  8
tall
  6
ByLayer
 62
  256
370
   -1
100
AcDbLine
 10
-10.47513343768242
 20
80.02271159828732
 11
-13.17525843768243
 21
78.88299659828732
  0
LINE
  5
1A4
100
AcDbEntity
  8
tall
  6
ByLayer
 62
  256
370
   -1
100
AcDbLine
 10
-13.17525843768243
 20
78.88299659828732
 11
-15.31950743768243
 21
77.66175059828734
  0
LINE
  5
1A5
100
AcDbEntity
  8
tall
  6
ByLayer
 62
  256
370
   -1
100
AcDbLine
 10
-15.31950743768243
 20
77.66175059828734
 11
-15.58266143768242
 21
77.22176259828734
  0
LINE
  5
1A6
100
AcDbEntity
  8
tall
  6
ByLayer
 62
  256
370
   -1
100
AcDbLine
 10
-15.58266143768242
 20
77.22176259828734
 11
-15.53731543768242
 21
76.68028759828732
  0
LINE
  5
1A7
100
AcDbEntity
  8
tall
  6
ByLayer
 62
  256
370
   -1
100
AcDbLine
 10
-15.53731543768242
 20
76.68028759828732
 11
-15.54261243768242
 21
75.82248959828732
  0
LINE
  5
1A8
100
AcDbEntity
  8
tall
  6
ByLayer
 62
  256
370
   -1
100
AcDbLine
 10
-15.54261243768242
 20
75.82248959828732
 11
-16.02376143768242
 21
75.12645259828733
  0
LINE
  5
1A9
100
AcDbEntity
  8
tall
  6
ByLayer
 62
  256
370
   -1
100
AcDbLine
 10
-16.02376143768242
 20
75.12645259828733
 11
-16.51535243768242
 21
74.43093559828733
  0
LINE
  5
1AA
100
AcDbEntity
  8
tall
  6
ByLayer
 62
  256
370
   -1
100
AcDbLine
 10
-16.51535243768242
 20
74.43093559828733
 11
-16.36805243768242
 21
73.50849559828734
  0
LINE
  5
1AB
100
AcDbEntity
  8
tall
  6
ByLayer
 62
  256
370
   -1
100
AcDbLine
 10
-16.36805243768242
 20
73.50849559828734
 11
-16.24217443768242
 21
72.88049059828734
  0
LINE
  5
1AC
100
AcDbEntity
  8
tall
  6
ByLayer
 62
  256
370
   -1
100
AcDbLine
 10
-16.24217443768242
 20
72.88049059828734
 11
-16.25942643768242
 21
72.04853659828734
  0
LINE
  5
1AD
100
AcDbEntity
  8
tall
  6
ByLayer
 62
  256
370
   -1
100
AcDbLine
 10
-16.25942643768242
 20
72.04853659828734
 11
-16.75950843768243
 21
69.39230159828733
  0
LINE
  5
1AE
100
AcDbEntity
  8
tall
  6
ByLayer
 62
  256
370
   -1
100
AcDbLine
 10
-16.75950843768243
 20
69.39230159828733
 11
-17.49714443768242
 21
66.26918759828732
  0
LINE
  5
1AF
100
AcDbEntity
  8
tall
  6
ByLayer
 62
  256
370
   -1
100
AcDbLine
 10
-17.49714443768242
 20
66.26918759828732
 11
-26.56837843768243
 21
57.18517159828733
  0
LINE
  5
1B0
100
AcDbEntity
  8
tall
  6
ByLayer
 62
  256
370
   -1
100
AcDbLine
 10
-26.56837843768243
 20
57.18517159828733
 11
-33.10521943768242
 21
50.76958659828733
  0
LINE
  5
1B1
100
AcDbEntity
  8
tall
  6
ByLayer
 62
  256
370
   -1
100
AcDbLine
 10
-33.10521943768242
 20
50.76958659828733
 11
-36.08312743768242
 21
48.10115659828733
  0
LINE
  5
1B2
100
AcDbEntity
  8
tall
  6
ByLayer
 62
  256
370
   -1
100
AcDbLine
 10
-36.08312743768242
 20
48.10115659828733
 11
-36.34366943768242
 21
48.20201359828732
  0
LINE
  5
1B3
100
AcDbEntity
  8
tall
  6
ByLayer
 62
  256
370
   -1
100
AcDbLine
 10
-36.34366943768242
 20
48.20201359828732
 11
-36.45633043768242
 21
48.55854259828732
  0
LINE
  5
1B4
100
AcDbEntity
  8
tall
  6
ByLayer
 62
  256
370
   -1
100
AcDbLine
 10
-36.45633043768242
 20
48.55854259828732
 11
-36.15443643768242
 21
50.36237059828733
  0
LINE
  5
1B5
100
AcDbEntity
  8
tall
  6
ByLayer
 62
  256
370
   -1
100
AcDbLine
 10
-36.15443643768242
 20
50.36237059828733
 11
-35.01029443768243
 21
54.16014659828733
  0
LINE
  5
1B6
100
AcDbEntity
  8
tall
  6
ByLayer
 62
  256
370
   -1
100
AcDbLine
 10
-35.01029443768243
 20
54.16014659828733
 11
-32.85675143768242
 21
60.59937459828734
  0
LINE
  5
1B7
100
AcDbEntity
  8
tall
  6
ByLayer
 62
  256
370
   -1
100
AcDbLine
 10
-32.85675143768242
 20
60.59937459828734
 11
-30.35575443768242
 21
68.21634159828733
  0
LINE
  5
1B8
100
AcDbEntity
  8
tall
  6
ByLayer
 62
  256
370
   -1
100
AcDbLine
 10
-30.35575443768242
 20
68.21634159828733
 11
-29.49618343768242
 21
71.38446059828732
  0
LINE
  5
1B9
100
AcDbEntity
  8
tall
  6
ByLayer
 62
  256
370
   -1
100
AcDbLine
 10
-29.49618343768242
 20
71.38446059828732
 11
-32.54871543768243
 21
70.28369959828734
  0
LINE
  5
1BA
100
AcDbEntity
  8
tall
  6
ByLayer
 62
  256
370
   -1
100
AcDbLine
 10
-32.54871543768243
 20
70.28369959828734
 11
-38.50704343768243
 21
68.09575359828733
  0
LINE
  5
1BB
100
AcDbEntity
  8
tall
  6
ByLayer
 62
  256
370
   -1
100
AcDbLine
 10
-38.50704343768243
 20
68.09575359828733
 11
-42.59317343768242
 21
66.79835359828732
  0
LINE
  5
1BC
100
AcDbEntity
  8
tall
  6
ByLayer
 62
  256
370
   -1
100
AcDbLine
 10
-42.59317343768242
 20
66.79835359828732
 11
-42.89629743768242
 21
66.90604359828734
  0
LINE
  5
1BD
100
AcDbEntity
  8
tall
  6
ByLayer
 62
  256
370
   -1
100
AcDbLine
 10
-42.89629743768242
 20
66.90604359828734
 11
-42.68339043768242
 21
67.24476459828733
  0
LINE
  5
1BE
100
AcDbEntity
  8
tall
  6
ByLayer
 62
  256
370
   -1
100
AcDbLine
 10
-42.68339043768242
 20
67.24476459828733
 11
-40.55544643768243
 21
68.70921059828731
  0
LINE
  5
1BF
100
AcDbEntity
  8
tall
  6
ByLayer
 62
  256
370
   -1
100
AcDbLine
 10
-40.55544643768243
 20
68.70921059828731
 11
-35.90126443768243
 21
71.37951159828734
  0
LINE
  5
1C0
100
AcDbEntity
  8
tall
  6
ByLayer
 62
  256
370
   -1
100
AcDbLine
 10
-35.90126443768243
 20
71.37951159828734
 11
-28.41276543768242
 21
75.44348959828733
  0
LINE
  5
1C1
100
AcDbEntity
  8
tall
  6
ByLayer
 62
  256
370
   -1
100
AcDbLine
 10
-28.41276543768242
 20
75.44348959828733
 11
-19.08825643768242
 21
80.51571059828734
  0
LINE
  5
1C2
100
AcDbEntity
  8
tall
  6
ByLayer
 62
  256
370
   -1
100
AcDbLine
 10
-19.08825643768242
 20
80.51571059828734
 11
-10.94414243768243
 21
85.26755359828732
  0
LINE
  5
1C3
100
AcDbEntity
  8
tall
  6
ByLayer
 62
  256
370
   -1
100
AcDbLine
 10
-10.94414243768243
 20
85.26755359828732
 11
-0.8187314376824304
 21
91.62085759828733
  0
LINE
  5
1C4
100
AcDbEntity
  8
tall
  6
ByLayer
 62
  256
370
   -1
100
AcDbLine
 10
-0.8187314376824304
 20
91.62085759828733
 11
14.44967056231758
 21
101.4974585982873
  0
LINE
  5
1C5
100
AcDbEntity
  8
tall
  6
ByLayer
 62
  256
370
   -1
100
AcDbLine
 10
14.44967056231758
 20
101.4974585982873
 11
29.65768156231758
 21
111.2526555982873
  0
LINE
  5
1C6
100
AcDbEntity
  8
tall
  6
ByLayer
 62
  256
370
   -1
100
AcDbLine
 10
29.65768156231758
 20
111.2526555982873
 11
36.49825356231757
 21
115.3897625982873
  0
LINE
  5
1C7
100
AcDbEntity
  8
tall
  6
ByLayer
 62
  256
370
   -1
100
AcDbLine
 10
36.49825356231757
 20
115.3897625982873
 11
37.05071456231758
 21
115.3506095982873
  0
LINE
  5
1C8
100
AcDbEntity
  8
tall
  6
ByLayer
 62
  256
370
   -1
100
AcDbLine
 10
37.05071456231758
 20
115.3506095982873
 11
37.83457456231757
 21
115.1027615982873
  0
LINE
  5
1C9
100
AcDbEntity
  8
tall
  6
ByLayer
 62
  256
370
   -1
100
AcDbLine
 10
37.83457456231757
 20
115.1027615982873
 11
40.04539356231757
 21
114.0009845982873
  0
LINE
  5
1CA
100
AcDbEntity
  8
tall
  6
ByLayer
 62
  256
370
   -1
100
AcDbLine
 10
40.04539356231757
 20
114.0009845982873
 11
44.27872156231757
 21
111.8111205982873
  0
LINE
  5
1CB
100
AcDbEntity
  8
tall
  6
ByLayer
 62
  256
370
   -1
100
AcDbLine
 10
44.27872156231757
 20
111.8111205982873
 11
49.37748856231758
 21
109.5011615982873
  0
LINE
  5
1CC
100
AcDbEntity
  8
tall
  6
ByLayer
 62
  256
370
   -1
100
AcDbLine
 10
49.37748856231758
 20
109.5011615982873
 11
53.08503856231758
 21
107.3851155982873
  0
LINE
  5
1CD
100
AcDbEntity
  8
tall
  6
ByLayer
 62
  256
370
   -1
100
AcDbLine
 10
53.08503856231758
 20
107.3851155982873
 11
55.75674756231757
 21
105.7886495982873
  0
LINE
  5
1CE
100
AcDbEntity
  8
tall
  6
ByLayer
 62
  256
370
   -1
100
AcDbLine
 10
55.75674756231757
 20
105.7886495982873
 11
58.72921056231758
 21
104.1945015982873
  0
LINE
  5
1CF
100
AcDbEntity
  8
tall
  6
ByLayer
 62
  256
370
   -1
100
AcDbLine
 10
58.72921056231758
 20
104.1945015982873
 11
61.55300356231757
 21
102.8319255982873
  0
LINE
  5
1D0
100
AcDbEntity
  8
tall
  6
ByLayer
 62
  256
370
   -1
100
AcDbLine
 10
61.55300356231757
 20
102.8319255982873
 11
63.77870556231757
 21
101.9301765982873
  0
LINE
  5
1D1
100
AcDbEntity
  8
tall
  6
ByLayer
 62
  256
370
   -1
100
AcDbLine
 10
63.77870556231757
 20
101.9301765982873
 11
66.93361856231758
 21
101.1410625982873
  0
LINE
  5
1D2
100
AcDbEntity
  8
tall
  6
ByLayer
 62
  256
370
   -1
100
AcDbLine
 10
66.93361856231758
 20
101.1410625982873
 11
70.44398156231757
 21
100.7564625982873
  0
LINE
  5
1D3
100
AcDbEntity
  8
tall
  6
ByLayer
 62
  256
370
   -1
100
AcDbLine
 10
70.44398156231757
 20
100.7564625982873
 11
74.25262156231757
 21
100.7792035982873
  0
LINE
  5
1D4
100
AcDbEntity
  8
tall
  6
ByLayer
 62
  256
370
   -1
100
AcDbLine
 10
74.25262156231757
 20
100.7792035982873
 11
78.30236756231757
 21
101.2121115982873
  0
LINE
  5
1D5
100
AcDbEntity
  8
tall
  6
ByLayer
 62
  256
370
   -1
100
AcDbLine
 10
78.30236756231757
 20
101.2121115982873
 11
83.41764056231757
 21
101.9427335982873
  0
LINE
  5
1D6
100
AcDbEntity
  8
tall
  6
ByLayer
 62
  256
370
   -1
100
AcDbLine
 10
83.41764056231757
 20
101.9427335982873
 11
85.00513856231757
 21
102.1303805982873
  0
LINE
  5
1D7
100
AcDbEntity
  8
tall
  6
ByLayer
 62
  256
370
   -1
100
AcDbLine
 10
85.00513856231757
 20
102.1303805982873
 11
86.46901856231759
 21
99.54559859828734
  0
LINE
  5
1D8
100
AcDbEntity
  8
tall
  6
ByLayer
 62
  256
370
   -1
100
AcDbLine
 10
86.46901856231759
 20
99.54559859828734
 11
89.04126756231759
 21
95.44439459828732
  0
LINE
  5
1D9
100
AcDbEntity
  8
tall
  6
ByLayer
 62
  256
370
   -1
100
AcDbLine
 10
89.04126756231759
 20
95.44439459828732
 11
90.14963456231757
 21
93.92797159828731
  0
LINE
  5
1DA
100
AcDbEntity
  8
tall
  6
ByLayer
 62
  256
370
   -1
100
AcDbLine
 10
86.94541256231759
 20
90.44895459828732
 11
86.16234156231758
 21
91.47629159828733
  0
LINE
  5
1DB
100
AcDbEntity
  8
tall
  6
ByLayer
 62
  256
370
   -1
100
AcDbLine
 10
86.16234156231758
 20
91.47629159828733
 11
84.41482956231758
 21
93.39516859828734
  0
LINE
  5
1DC
100
AcDbEntity
  8
tall
  6
ByLayer
 62
  256
370
   -1
100
AcDbLine
 10
84.41482956231758
 20
93.39516859828734
 11
82.60543456231757
 21
95.24841859828732
  0
LINE
  5
1DD
100
AcDbEntity
  8
tall
  6
ByLayer
 62
  256
370
   -1
100
AcDbLine
 10
82.60543456231757
 20
95.24841859828732
 11
81.63671156231757
 21
96.07887259828732
  0
LINE
  5
1DE
100
AcDbEntity
  8
tall
  6
ByLayer
 62
  256
370
   -1
100
AcDbLine
 10
81.63671156231757
 20
96.07887259828732
 11
81.23276456231757
 21
95.84980759828733
  0
LINE
  5
1DF
100
AcDbEntity
  8
tall
  6
ByLayer
 62
  256
370
   -1
100
AcDbLine
 10
81.23276456231757
 20
95.84980759828733
 11
80.91514456231758
 21
95.31181159828733
  0
LINE
  5
1E0
100
AcDbEntity
  8
tall
  6
ByLayer
 62
  256
370
   -1
100
AcDbLine
 10
80.91514456231758
 20
95.31181159828733
 11
80.77255456231758
 21
94.68868859828731
  0
LINE
  5
1E1
100
AcDbEntity
  8
tall
  6
ByLayer
 62
  256
370
   -1
100
AcDbLine
 10
80.77255456231758
 20
94.68868859828731
 11
80.89370156231757
 21
94.20424159828733
  0
LINE
  5
1E2
100
AcDbEntity
  8
tall
  6
ByLayer
 62
  256
370
   -1
100
AcDbLine
 10
80.89370156231757
 20
94.20424159828733
 11
81.38076656231758
 21
93.01129759828731
  0
LINE
  5
1E3
100
AcDbEntity
  8
tall
  6
ByLayer
 62
  256
370
   -1
100
AcDbLine
 10
81.38076656231758
 20
93.01129759828731
 11
81.98423156231758
 21
90.84530659828732
  0
LINE
  5
1E4
100
AcDbEntity
  8
tall
  6
ByLayer
 62
  256
370
   -1
100
AcDbLine
 10
81.98423156231758
 20
90.84530659828732
 11
82.50118856231758
 21
88.51969359828732
  0
LINE
  5
1E5
100
AcDbEntity
  8
tall
  6
ByLayer
 62
  256
370
   -1
100
AcDbLine
 10
82.50118856231758
 20
88.51969359828732
 11
82.72872956231757
 21
86.84788459828732
  0
LINE
  5
1E6
100
AcDbEntity
  8
tall
  6
ByLayer
 62
  256
370
   -1
100
AcDbLine
 10
82.72872956231757
 20
86.84788459828732
 11
82.74537256231757
 21
85.67194259828733
  0
LINE
  5
1E7
100
AcDbEntity
  8
tall
  6
ByLayer
 62
  256
370
   -1
100
AcDbLine
 10
86.94541256231759
 20
90.44895459828732
 11
86.94541256231759
 21
90.44895459828732
  0
LINE
  5
1E8
100
AcDbEntity
  8
tall
  6
ByLayer
 62
  256
370
   -1
100
AcDbLine
 10
82.74537256231757
 20
85.67194259828733
 11
80.10024556231757
 21
79.44150459828734
  0
LINE
  5
1E9
100
AcDbEntity
  8
1mm
  6
CONTINUOUS
 62
  256
370
   -1
100
AcDbLine
 10
110.5440505803525
 20
79.02658866300666
 11
95.54405558035255
 21
70.36633566300664
  0
ARC
  5
1EA
100
AcDbEntity
  8
1mm
  6
ByLayer
 62
  256
370
   -1
100
AcDbCircle
 10
110.7940505803525
 20
82.30286366300665
 40
0.25
100
AcDbArc
 50
1.526666247102488e-13
 51
90.00000000000006
  0
LINE
  5
1EB
100
AcDbEntity
  8
1mm
  6
CONTINUOUS
 62
  256
370
   -1
100
AcDbLine
 10
110.5440505803525
 20
98.07913266300665
 11
95.54405558035251
 21
106.7393856630066
  0
LINE
  5
1EC
100
AcDbEntity
  8
1mm
  6
CONTINUOUS
 62
  256
370
   -1
100
AcDbLine
 10
111.0440505803525
 20
82.30286366300663
 11
111.0440505803525
 21
79.89261366300664
  0
ARC
  5
1ED
100
AcDbEntity
  8
1mm
  6
ByLayer
 62
  256
370
   -1
100
AcDbCircle
 10
110.0440505803526
 20
79.89266366300666
 40
1.00000000125
100
AcDbArc
 50
299.99857923
 51
359.99713521
  0
LINE
  5
1EE
100
AcDbEntity
  8
1mm
  6
CONTINUOUS
 62
  256
370
   -1
100
AcDbLine
 10
111.0440505803525
 20
94.80286366300665
 11
111.0440505803525
 21
97.21310666300664
  0
ARC
  5
1EF
100
AcDbEntity
  8
1mm
  6
ByLayer
 62
  256
370
   -1
100
AcDbCircle
 10
110.7940505803525
 20
94.80286366300665
 40
0.25
100
AcDbArc
 50
270
 51
1.526666247102488e-13
  0
ARC
  5
1F0
100
AcDbEntity
  8
1mm
  6
ByLayer
 62
  256
370
   -1
100
AcDbCircle
 10
110.0440505803526
 20
97.21306366300666
 40
1.000037755667755
100
AcDbArc
 50
0.002463720000018729
 51
60.00124889000004
  0
LINE
  5
1F1
100
AcDbEntity
  8
1mm
  6
CONTINUOUS
 62
  256
370
   -1
100
AcDbLine
 10
112.7940505803525
 20
92.95286366300665
 11
112.7940505803526
 21
84.15286366300666
  0
LINE
  5
1F2
100
AcDbEntity
  8
1mm
  6
CONTINUOUS
 62
  256
370
   -1
100
AcDbLine
 10
106.5440505803525
 20
82.55286366300663
 11
110.7940505803525
 21
82.55286366300665
  0
LINE
  5
1F3
100
AcDbEntity
  8
1mm
  6
CONTINUOUS
 62
  256
370
   -1
100
AcDbLine
 10
106.5440505803525
 20
83.95286366300662
 11
112.5940505803525
 21
83.95286366300664
  0
LINE
  5
1F4
100
AcDbEntity
  8
1mm
  6
CONTINUOUS
 62
  256
370
   -1
100
AcDbLine
 10
106.5440505803525
 20
93.15286366300663
 11
112.5940505803526
 21
93.15286366300666
  0
LINE
  5
1F5
100
AcDbEntity
  8
1mm
  6
CONTINUOUS
 62
  256
370
   -1
100
AcDbLine
 10
106.5440505803525
 20
94.55286366300663
 11
110.7940505803525
 21
94.55286366300665
  0
ARC
  5
1F6
100
AcDbEntity
  8
1mm
  6
ByLayer
 62
  256
370
   -1
100
AcDbCircle
 10
112.5940505803525
 20
84.15286366300666
 40
0.2
100
AcDbArc
 50
270
 51
1.526666247102488e-13
  0
ARC
  5
1F7
100
AcDbEntity
  8
1mm
  6
ByLayer
 62
  256
370
   -1
100
AcDbCircle
 10
112.5940505803525
 20
92.95286366300664
 40
0.2
100
AcDbArc
 50
1.526666247102488e-13
 51
90.00000000000006
  0
ARC
  5
1F8
100
AcDbEntity
  8
1mm
  6
ByLayer
 62
  256
370
   -1
100
AcDbCircle
 10
106.5440505803525
 20
83.25286366300664
 40
0.7
100
AcDbArc
 50
180
 51
270
  0
ARC
  5
1F9
100
AcDbEntity
  8
1mm
  6
ByLayer
 62
  256
370
   -1
100
AcDbCircle
 10
106.5440505803525
 20
93.85286366300663
 40
0.7
100
AcDbArc
 50
180
 51
270
  0
ARC
  5
1FA
100
AcDbEntity
  8
1mm
  6
ByLayer
 62
  256
370
   -1
100
AcDbCircle
 10
106.5440505803525
 20
83.25286366300664
 40
0.7
100
AcDbArc
 50
90.00000000000006
 51
180
  0
ARC
  5
1FB
100
AcDbEntity
  8
1mm
  6
ByLayer
 62
  256
370
   -1
100
AcDbCircle
 10
106.5440505803525
 20
93.85286366300663
 40
0.7
100
AcDbArc
 50
90.00000000000006
 51
180
  0
CIRCLE
  5
1FC
100
AcDbEntity
  8
1mm
  6
ByLayer
 62
  256
370
   -1
100
AcDbCircle
 10
98.54405058035252
 20
101.0528636630066
 40
1.15
  0
CIRCLE
  5
1FD
100
AcDbEntity
  8
1mm
  6
ByLayer
 62
  256
370
   -1
100
AcDbCircle
 10
98.54405058035252
 20
76.05286366300665
 40
1.15
  0
ARC
  5
1FE
100
AcDbEntity
  8
1mm
  6
ByLayer
 62
  256
370
   -1
100
AcDbCircle
 10
95.04405558035252
 20
105.8733636630067
 40
0.9999970522376526
100
AcDbArc
 50
59.99994307224193
 51
180.0000000000024
  0
ARC
  5
1FF
100
AcDbEntity
  8
1mm
  6
ByLayer
 62
  256
370
   -1
100
AcDbCircle
 10
95.04405558035255
 20
71.23235766300664
 40
0.9999970522376516
100
AcDbArc
 50
179.9998972834379
 51
300.0000975115286
  0
LINE
  5
200
100
AcDbEntity
  8
tall
  6
CONTINUOUS
 62
  256
370
   -1
100
AcDbLine
 10
110.5440505803525
 20
79.02658866300666
 11
95.54405558035255
 21
70.36633566300664
  0
ARC
  5
201
100
AcDbEntity
  8
tall
  6
ByLayer
 62
  256
370
   -1
100
AcDbCircle
 10
110.7940505803525
 20
82.30286366300665
 40
0.25
100
AcDbArc
 50
1.526666247102488e-13
 51
90.00000000000006
  0
LINE
  5
202
100
AcDbEntity
  8
tall
  6
CONTINUOUS
 62
  256
370
   -1
100
AcDbLine
 10
110.5440505803525
 20
98.07913266300665
 11
95.54405558035251
 21
106.7393856630066
  0
LINE
  5
203
100
AcDbEntity
  8
tall
  6
CONTINUOUS
 62
  256
370
   -1
100
AcDbLine
 10
111.0440505803525
 20
82.30286366300663
 11
111.0440505803525
 21
79.89261366300664
  0
ARC
  5
204
100
AcDbEntity
  8
tall
  6
ByLayer
 62
  256
370
   -1
100
AcDbCircle
 10
110.0440505803526
 20
79.89266366300666
 40
1.00000000125
100
AcDbArc
 50
299.99857923
 51
359.99713521
  0
LINE
  5
205
100
AcDbEntity
  8
tall
  6
CONTINUOUS
 62
  256
370
   -1
100
AcDbLine
 10
111.0440505803525
 20
94.80286366300665
 11
111.0440505803525
 21
97.21310666300664
  0
ARC
  5
206
100
AcDbEntity
  8
tall
  6
ByLayer
 62
  256
370
   -1
100
AcDbCircle
 10
110.7940505803525
 20
94.80286366300665
 40
0.25
100
AcDbArc
 50
270
 51
1.526666247102488e-13
  0
ARC
  5
207
100
AcDbEntity
  8
tall
  6
ByLayer
 62
  256
370
   -1
100
AcDbCircle
 10
110.0440505803526
 20
97.21306366300666
 40
1.000037755667755
100
AcDbArc
 50
0.002463720000018729
 51
60.00124889000004
  0
CIRCLE
  5
208
100
AcDbEntity
  8
tall
  6
ByLayer
 62
  256
370
   -1
100
AcDbCircle
 10
98.54405058035252
 20
101.0528636630066
 40
1.15
  0
CIRCLE
  5
209
100
AcDbEntity
  8
tall
  6
ByLayer
 62
  256
370
   -1
100
AcDbCircle
 10
98.54405058035252
 20
76.05286366300665
 40
1.15
  0
ARC
  5
20A
100
AcDbEntity
  8
tall
  6
ByLayer
 62
  256
370
   -1
100
AcDbCircle
 10
95.04405558035252
 20
105.8733636630067
 40
0.9999970522376526
100
AcDbArc
 50
59.99994307224193
 51
180.0000000000024
  0
ARC
  5
20B
100
AcDbEntity
  8
tall
  6
ByLayer
 62
  256
370
   -1
100
AcDbCircle
 10
95.04405558035255
 20
71.23235766300664
 40
0.9999970522376516
100
AcDbArc
 50
179.9998972834379
 51
300.0000975115286
  0
LINE
  5
20C
100
AcDbEntity
  8
tall
  6
CONTINUOUS
 62
  256
370
   -1
100
AcDbLine
 10
104.5440505803525
 20
94.55286366300663
 11
110.7940505803525
 21
94.55286366300665
  0
LINE
  5
20D
100
AcDbEntity
  8
tall
  6
CONTINUOUS
 62
  256
370
   -1
100
AcDbLine
 10
104.5440505803525
 20
82.55286366300663
 11
110.7940505803525
 21
82.55286366300665
  0
LINE
  5
20E
100
AcDbEntity
  8
tall
  6
ByLayer
 62
  256
370
   -1
100
AcDbLine
 10
104.5440505803525
 20
94.55286366300663
 11
104.5440505803525
 21
82.55286366300663
  0
LINE
  5
20F
100
AcDbEntity
  8
1mm
  6
ByLayer
 62
  256
370
   -1
100
AcDbLine
 10
90.14963456231757
 20
93.92797159828731
 11
94.04405852811487
 21
91.31948782171445
  0
LINE
  5
210
100
AcDbEntity
  8
1mm
  6
ByLayer
 62
  256
370
   -1
100
AcDbLine
 10
94.04405852811487
 20
91.31948782171446
 11
94.04405852811485
 21
105.8733636630066
  0
LINE
  5
211
100
AcDbEntity
  8
1mm
  6
ByLayer
 62
  256
370
   -1
100
AcDbLine
 10
94.0440628597722
 20
71.23235389338721
 11
94.04400900055371
 21
83.82516092121477
  0
LINE
  5
212
100
AcDbEntity
  8
1mm
  6
ByLayer
 62
  256
370
   -1
100
AcDbLine
 10
86.94541256231759
 20
90.44895459828732
 11
94.04400900055371
 21
83.82516092121476
  0
LINE
  5
213
100
AcDbEntity
  8
tall
  6
ByLayer
 62
  256
370
   -1
100
AcDbLine
 10
90.14963456231757
 20
93.92797159828731
 11
94.04405852811487
 21
91.31948782171445
  0
LINE
  5
214
100
AcDbEntity
  8
tall
  6
ByLayer
 62
  256
370
   -1
100
AcDbLine
 10
86.94541256231759
 20
90.44895459828732
 11
94.04400900055371
 21
83.82516092121476
  0
LINE
  5
215
100
AcDbEntity
  8
tall
  6
ByLayer
 62
  256
370
   -1
100
AcDbLine
 10
94.04405852811487
 20
91.31948782171445
 11
94.04405852811485
 21
105.8733636630066
  0
LINE
  5
216
100
AcDbEntity
  8
tall
  6
ByLayer
 62
  256
370
   -1
100
AcDbLine
 10
94.0440628597722
 20
71.23235389338721
 11
94.04400900055371
 21
83.82516092121476
  0
ENDSEC
  0
SECTION
  2
OBJECTS
  0
DICTIONARY
  5
C
330
0
100
AcDbDictionary
281
    1
  3
ACAD_GROUP
350
D
  0
DICTIONARY
  5
D
330
C
100
AcDbDictionary
281
    1
  0
PLOTSETTINGS
  5
217
100
AcDbPlotSettings
  6
1x1
 40
0
 41
0
 42
0
 43
0
  0
ENDSEC
  0
EOF
