G04 #@! TF.GenerationSoftware,KiCad,Pcbnew,8.0.1*
G04 #@! TF.CreationDate,2024-04-20T17:21:34+01:00*
G04 #@! TF.ProjectId,rabbit,72616262-6974-42e6-9b69-6361645f7063,rev?*
G04 #@! TF.SameCoordinates,Original*
G04 #@! TF.FileFunction,Legend,Top*
G04 #@! TF.FilePolarity,Positive*
%FSLAX46Y46*%
G04 Gerber Fmt 4.6, Leading zero omitted, Abs format (unit mm)*
G04 Created by KiCad (PCBNEW 8.0.1) date 2024-04-20 17:21:34*
%MOMM*%
%LPD*%
G01*
G04 APERTURE LIST*
G04 Aperture macros list*
%AMRoundRect*
0 Rectangle with rounded corners*
0 $1 Rounding radius*
0 $2 $3 $4 $5 $6 $7 $8 $9 X,Y pos of 4 corners*
0 Add a 4 corners polygon primitive as box body*
4,1,4,$2,$3,$4,$5,$6,$7,$8,$9,$2,$3,0*
0 Add four circle primitives for the rounded corners*
1,1,$1+$1,$2,$3*
1,1,$1+$1,$4,$5*
1,1,$1+$1,$6,$7*
1,1,$1+$1,$8,$9*
0 Add four rect primitives between the rounded corners*
20,1,$1+$1,$2,$3,$4,$5,0*
20,1,$1+$1,$4,$5,$6,$7,0*
20,1,$1+$1,$6,$7,$8,$9,0*
20,1,$1+$1,$8,$9,$2,$3,0*%
G04 Aperture macros list end*
%ADD10C,0.150000*%
%ADD11C,0.100000*%
%ADD12C,0.250000*%
%ADD13C,0.120000*%
%ADD14RoundRect,0.150000X1.600000X0.150000X-1.600000X0.150000X-1.600000X-0.150000X1.600000X-0.150000X0*%
%ADD15RoundRect,0.150000X1.200000X0.150000X-1.200000X0.150000X-1.200000X-0.150000X1.200000X-0.150000X0*%
%ADD16C,1.000000*%
%ADD17C,0.700000*%
%ADD18C,4.400000*%
%ADD19R,1.800000X1.070000*%
%ADD20O,1.800000X1.070000*%
G04 APERTURE END LIST*
D10*
X136422766Y-121084024D02*
X136265707Y-120213445D01*
X155937371Y-104467571D02*
X156459780Y-104433798D01*
X120163956Y-105410949D02*
X119858214Y-104727403D01*
X123355035Y-114443186D02*
X123166402Y-114281406D01*
X136882658Y-122837113D02*
X136796102Y-122610153D01*
X116440610Y-89758486D02*
X116695632Y-88917496D01*
X124775484Y-117347256D02*
X124569462Y-117156237D01*
X149311354Y-108040786D02*
X149635226Y-107947482D01*
X145071217Y-122776081D02*
X144816882Y-122962978D01*
X127919133Y-118100335D02*
X127329379Y-118067085D01*
X160065363Y-110718660D02*
X160799954Y-110763248D01*
X140116677Y-125424634D02*
X139912189Y-125376026D01*
X162462416Y-104901583D02*
X162543414Y-105075455D01*
X115718882Y-101926974D02*
X115661492Y-101696591D01*
X142351817Y-95470206D02*
X142443356Y-96277585D01*
X148317777Y-120518756D02*
X148051177Y-120763431D01*
X125787781Y-81054478D02*
X125798149Y-81080563D01*
X134521056Y-84174065D02*
X134963058Y-84433017D01*
X159156679Y-109645049D02*
X158995732Y-109813169D01*
X135302742Y-118220829D02*
X135039565Y-118124399D01*
X119341235Y-102403982D02*
X119214662Y-102127946D01*
X121213146Y-79842866D02*
X121354489Y-79765152D01*
X117674190Y-118380248D02*
X117589121Y-118374738D01*
X148524418Y-120275726D02*
X148317777Y-120518756D01*
X125184168Y-82049702D02*
X125033575Y-82282273D01*
X116835781Y-102933564D02*
X116725145Y-102968375D01*
X146414027Y-108109167D02*
X147588554Y-108173084D01*
X149580003Y-116630488D02*
X149534225Y-116825347D01*
X136908951Y-86125246D02*
X137674863Y-86900352D01*
X123541739Y-80530070D02*
X124018890Y-80468856D01*
X140862531Y-125390069D02*
X140635608Y-125426071D01*
X117506839Y-118353067D02*
X117426085Y-118314607D01*
X121634999Y-79733200D02*
X121739944Y-79778519D01*
X142495954Y-97059670D02*
X142512814Y-97851842D01*
X151199401Y-106880039D02*
X151822378Y-106411744D01*
X162236000Y-107160732D02*
X162086923Y-107372577D01*
X149928420Y-107825601D02*
X150219232Y-107644488D01*
X162137284Y-104577911D02*
X162255636Y-104652066D01*
X118408233Y-117912080D02*
X118247887Y-118086664D01*
X117972084Y-102168601D02*
X117498913Y-102496863D01*
X149361859Y-118234057D02*
X149219677Y-118735037D01*
X162255636Y-104652066D02*
X162365211Y-104759984D01*
X116871688Y-112304877D02*
X117106130Y-111837856D01*
X158849113Y-114093490D02*
X157781701Y-114534620D01*
X161553891Y-111212391D02*
X161659356Y-111566692D01*
X131309011Y-118972670D02*
X130518414Y-118878701D01*
X122031192Y-79994837D02*
X122409567Y-80385674D01*
X116411168Y-102892358D02*
X116219877Y-102708078D01*
X156459780Y-104433798D02*
X157820987Y-104405304D01*
X137510730Y-123649939D02*
X137286794Y-123434153D01*
X116526927Y-102968868D02*
X116411168Y-102892358D01*
X155162637Y-104574203D02*
X155506888Y-104514584D01*
X141685994Y-102216137D02*
X141408391Y-102812665D01*
X135775031Y-118565217D02*
X135550489Y-118370135D01*
X143174507Y-123720104D02*
X142722124Y-123970518D01*
X135039565Y-118124399D02*
X134775811Y-118090657D01*
X142064728Y-93824057D02*
X142218129Y-94603372D01*
X133720740Y-118578552D02*
X133337390Y-118829439D01*
X147588554Y-108173084D02*
X148093874Y-108173755D01*
X136612989Y-121948841D02*
X136422766Y-121084024D01*
X141940109Y-124802869D02*
X141765997Y-124958356D01*
X119498060Y-103775822D02*
X119458171Y-103326512D01*
X142327501Y-106239601D02*
X142444825Y-106441812D01*
X117589121Y-118374738D02*
X117506839Y-118353067D01*
X115790935Y-102123425D02*
X115718882Y-101926974D01*
X132918466Y-118981891D02*
X132744659Y-119001040D01*
X117416809Y-86897581D02*
X117486770Y-86320313D01*
X140328637Y-90035052D02*
X140819700Y-90738366D01*
X122093375Y-113937809D02*
X121860520Y-113963860D01*
X117511570Y-84696004D02*
X117535089Y-84338480D01*
X141881004Y-93072840D02*
X142064728Y-93824057D01*
X125798149Y-81080563D02*
X125804670Y-81167447D01*
X135950776Y-118770764D02*
X135775031Y-118565217D01*
X161449743Y-111009905D02*
X161553891Y-111212391D01*
X121739944Y-79778519D02*
X121873364Y-79865622D01*
X121103320Y-114243656D02*
X120862933Y-114417552D01*
X150219232Y-107644488D02*
X150552599Y-107394361D01*
X117152071Y-87863585D02*
X117261016Y-87578975D01*
X116660264Y-113187815D02*
X116738346Y-112700789D01*
X137286794Y-123434153D02*
X137116284Y-123235158D01*
X121626537Y-114020105D02*
X121355163Y-114116065D01*
X117062823Y-117787586D02*
X116992285Y-117552570D01*
X138613198Y-124495140D02*
X137798034Y-123891013D01*
X116113016Y-91646252D02*
X116243882Y-90677368D01*
X119426812Y-116371874D02*
X118625099Y-117618187D01*
X116602141Y-102985648D02*
X116526927Y-102968868D01*
X117134616Y-117968534D02*
X117062823Y-117787586D01*
X116738346Y-112700789D02*
X116871688Y-112304877D01*
X150279309Y-116152276D02*
X150102785Y-116175050D01*
X120376465Y-107337892D02*
X120487985Y-107059081D01*
X133196761Y-118900921D02*
X133063135Y-118949708D01*
X142368076Y-124272203D02*
X142086262Y-124627780D01*
X124569462Y-117156237D02*
X124390530Y-116921414D01*
X141495050Y-91915976D02*
X141684690Y-92414607D01*
X139706433Y-125276457D02*
X139441566Y-125094815D01*
X121463878Y-79727162D02*
X121550141Y-79718635D01*
X119858214Y-104727403D02*
X119539480Y-104011573D01*
X133204880Y-83715706D02*
X133706903Y-83856467D01*
X115578404Y-100717974D02*
X115595920Y-99760091D01*
X116624759Y-113840791D02*
X116660264Y-113187815D01*
X130188119Y-118813429D02*
X129900179Y-118736441D01*
X116674771Y-115407725D02*
X116630717Y-114600353D01*
X124988821Y-82543586D02*
X125094059Y-82773736D01*
X134331602Y-118183012D02*
X134077119Y-118333634D01*
X120165609Y-107593588D02*
X120376465Y-107337892D01*
X125843088Y-83113429D02*
X127353894Y-83128258D01*
X116695632Y-88917496D02*
X116840100Y-88541952D01*
X142722124Y-123970518D02*
X142534093Y-124113451D01*
X125730292Y-81403615D02*
X125609590Y-81574996D01*
X116992285Y-117552570D02*
X116860293Y-116939571D01*
X115875770Y-102290435D02*
X115790935Y-102123425D01*
X130518414Y-118878701D02*
X130188119Y-118813429D01*
X142496212Y-98610246D02*
X142438469Y-99275655D01*
X141179267Y-104871741D02*
X141513533Y-105236483D01*
X161716249Y-111825838D02*
X161746134Y-112044680D01*
X148695733Y-120009270D02*
X148524418Y-120275726D01*
X117498913Y-102496863D02*
X116960734Y-102870395D01*
X118665038Y-101871895D02*
X118503587Y-101902430D01*
X154032876Y-105015760D02*
X154489414Y-104800893D01*
X129573062Y-83177735D02*
X131268863Y-83362738D01*
X161659356Y-111566692D02*
X161716249Y-111825838D01*
X118972453Y-101928367D02*
X118825293Y-101879617D01*
X142443356Y-96277585D02*
X142495954Y-97059670D01*
X117198872Y-118085454D02*
X117134616Y-117968534D01*
X143819145Y-123445295D02*
X143174507Y-123720104D01*
X133063135Y-118949708D02*
X132918466Y-118981891D01*
X125033575Y-82282273D02*
X124988821Y-82543586D01*
X155506888Y-104514584D02*
X155937371Y-104467571D01*
X158995732Y-109813169D02*
X158883379Y-109989133D01*
X122546955Y-113980909D02*
X122322834Y-113943281D01*
X143940341Y-107933192D02*
X144462984Y-107996781D01*
X115595920Y-99760091D02*
X115841349Y-95546365D01*
X140382031Y-125438450D02*
X140116677Y-125424634D01*
X153483524Y-115883107D02*
X152942375Y-115975439D01*
X119214662Y-102127946D02*
X119100380Y-102008658D01*
X115619345Y-101426832D02*
X115578404Y-100717974D01*
X138413631Y-87696386D02*
X139111505Y-88495993D01*
X117895117Y-118332223D02*
X117768321Y-118368196D01*
X117486770Y-86320313D02*
X117505508Y-85355006D01*
X129661749Y-118650364D02*
X129456476Y-118548386D01*
X161154158Y-110841191D02*
X161358727Y-110927258D01*
X161746134Y-112044680D02*
X161749863Y-112222864D01*
X162360943Y-106945935D02*
X162236000Y-107160732D01*
X136796102Y-122610153D02*
X136612989Y-121948841D01*
X161631738Y-112575639D02*
X161543694Y-112669770D01*
X148051177Y-120763431D02*
X147702866Y-121029051D01*
X119115281Y-108758997D02*
X119258975Y-108497301D01*
X148853099Y-119692828D02*
X148695733Y-120009270D01*
X123560074Y-114682445D02*
X123355035Y-114443186D01*
X120487985Y-107059081D02*
X120513560Y-106748980D01*
X161749863Y-112222864D02*
X161730596Y-112364266D01*
X124018890Y-80468856D02*
X124290685Y-80498265D01*
X152993748Y-105612405D02*
X153532417Y-105287257D01*
X119413277Y-102792294D02*
X119341235Y-102403982D01*
X158836937Y-110198729D02*
X158902451Y-110410997D01*
X143520653Y-107838335D02*
X143940341Y-107933192D01*
X119258975Y-108497301D02*
X119401596Y-108297931D01*
X148949450Y-108108658D02*
X149311354Y-108040786D01*
X131268863Y-83362738D02*
X131989873Y-83469400D01*
X144462984Y-107996781D02*
X145120834Y-108037246D01*
X124665358Y-80592812D02*
X125127779Y-80753449D01*
X147702866Y-121029051D02*
X146671159Y-121704177D01*
X117486979Y-111227512D02*
X118057200Y-110403439D01*
X125380132Y-83022844D02*
X125552483Y-83087215D01*
X136127722Y-85382665D02*
X136908951Y-86125246D01*
X134550574Y-118106991D02*
X134331602Y-118183012D01*
X122763486Y-114050539D02*
X122546955Y-113980909D01*
X118110450Y-118207354D02*
X117999815Y-118283683D01*
X119857917Y-107866436D02*
X120165609Y-107593588D01*
X158902451Y-110410997D02*
X159071408Y-110576063D01*
X136265707Y-120213445D02*
X136179350Y-119524133D01*
X162598344Y-106269191D02*
X162540200Y-106504064D01*
X161358727Y-110927258D02*
X161408659Y-110964269D01*
X118825293Y-101879617D02*
X118665038Y-101871895D01*
X142326701Y-99955210D02*
X142147053Y-100753567D01*
X149933341Y-116224429D02*
X149777011Y-116318331D01*
X159649373Y-104427427D02*
X161630504Y-104490182D01*
X137116284Y-123235158D02*
X136986007Y-123041083D01*
X146671159Y-121704177D02*
X145657971Y-122351348D01*
X126875019Y-118049805D02*
X126449518Y-118000564D01*
X117341514Y-87279556D02*
X117416809Y-86897581D01*
X162641976Y-105506488D02*
X162653622Y-105755217D01*
X162637017Y-106021661D02*
X162598344Y-106269191D01*
X149013664Y-119305448D02*
X148853099Y-119692828D01*
X140833828Y-104313593D02*
X140958445Y-104581706D01*
X139754516Y-89281501D02*
X140328637Y-90035052D01*
X162461635Y-106728309D02*
X162360943Y-106945935D01*
X161418223Y-112765586D02*
X160707247Y-113192320D01*
X142086262Y-124627780D02*
X141940109Y-124802869D01*
X160707247Y-113192320D02*
X159837208Y-113640834D01*
X132744659Y-119001040D02*
X132236097Y-119010258D01*
X159616508Y-110693725D02*
X160065363Y-110718660D01*
X121355163Y-114116065D02*
X121103320Y-114243656D01*
X137798034Y-123891013D02*
X137510730Y-123649939D01*
X154489414Y-104800893D02*
X154895068Y-104645626D01*
X118057200Y-110403439D02*
X118733139Y-109420037D01*
X142512814Y-97851842D02*
X142496212Y-98610246D01*
X161168136Y-108285256D02*
X160831500Y-108516292D01*
X120478151Y-106368603D02*
X120365650Y-105939451D01*
X142947488Y-107569744D02*
X143175435Y-107703920D01*
X161690085Y-107822008D02*
X161427201Y-108073943D01*
X121042986Y-79961465D02*
X121213146Y-79842866D01*
X125031059Y-117522962D02*
X124775484Y-117347256D01*
X121354489Y-79765152D02*
X121463878Y-79727162D01*
X162604356Y-105278441D02*
X162641976Y-105506488D01*
X154895068Y-104645626D02*
X155162637Y-104574203D01*
X137674863Y-86900352D02*
X138413631Y-87696386D01*
X140635608Y-125426071D02*
X140382031Y-125438450D01*
X116007713Y-102468259D02*
X115875770Y-102290435D01*
X149777011Y-116318331D02*
X149656240Y-116459999D01*
X142771970Y-107399555D02*
X142947488Y-107569744D01*
X149449631Y-117767996D02*
X149361859Y-118234057D01*
X123166402Y-114281406D02*
X122970415Y-114151198D01*
X156673155Y-114949078D02*
X155561529Y-115321918D01*
X116630717Y-114600353D02*
X116624759Y-113840791D01*
X141765997Y-124958356D02*
X141555728Y-125102922D01*
X149656240Y-116459999D02*
X149580003Y-116630488D01*
X125661358Y-80976014D02*
X125763135Y-81030532D01*
X116725145Y-102968375D02*
X116602141Y-102985648D01*
X116860293Y-116939571D02*
X116752823Y-116206360D01*
X116243882Y-90677368D02*
X116440610Y-89758486D01*
X149635226Y-107947482D02*
X149928420Y-107825601D01*
X120381162Y-114941778D02*
X120108926Y-115318243D01*
X118334981Y-101965335D02*
X117972084Y-102168601D01*
X117346866Y-118257983D02*
X117270438Y-118181871D01*
X125127779Y-80753449D02*
X125661358Y-80976014D01*
X123968926Y-115729490D02*
X123861408Y-115322606D01*
X135550489Y-118370135D02*
X135302742Y-118220829D01*
X120180689Y-80708258D02*
X121042986Y-79961465D01*
X161543694Y-112669770D02*
X161418223Y-112765586D01*
X140800369Y-104047459D02*
X140833828Y-104313593D01*
X150102785Y-116175050D02*
X149933341Y-116224429D01*
X148093874Y-108173755D02*
X148545216Y-108152580D01*
X118733139Y-109420037D02*
X118949457Y-109066973D01*
X142618115Y-106958652D02*
X142662360Y-107183954D01*
X120862933Y-114417552D02*
X120626723Y-114646768D01*
X160332605Y-108827748D02*
X159621567Y-109285154D01*
X141513533Y-105236483D02*
X141987383Y-105771435D01*
X135488081Y-84826414D02*
X136127722Y-85382665D01*
X125226546Y-82910049D02*
X125380132Y-83022844D01*
X132236097Y-119010258D02*
X131309011Y-118972670D01*
X144255629Y-123263217D02*
X143819145Y-123445295D01*
X141213243Y-91372169D02*
X141495050Y-91915976D01*
X123727737Y-114974757D02*
X123560074Y-114682445D01*
X120513560Y-106748980D02*
X120478151Y-106368603D01*
X149492783Y-117289886D02*
X149449631Y-117767996D01*
X123861408Y-115322606D02*
X123727737Y-114974757D01*
X143175435Y-107703920D02*
X143520653Y-107838335D01*
X141081827Y-125327128D02*
X140862531Y-125390069D01*
X129456476Y-118548386D02*
X129028334Y-118350418D01*
X125094059Y-82773736D02*
X125226546Y-82910049D01*
X122409567Y-80385674D02*
X122728325Y-80756033D01*
X142534093Y-124113451D02*
X142368076Y-124272203D01*
X152270954Y-116022813D02*
X150279309Y-116152276D01*
X136145884Y-119242881D02*
X136074092Y-118991852D01*
X124390530Y-116921414D02*
X124237143Y-116626010D01*
X140861124Y-103718147D02*
X140810757Y-103881762D01*
X125787918Y-81275523D02*
X125730292Y-81403615D01*
X115841349Y-95546365D02*
X116113016Y-91646252D01*
X142218129Y-94603372D02*
X142351817Y-95470206D01*
X128499240Y-118196991D02*
X127919133Y-118100335D01*
X161630504Y-104490182D02*
X161985252Y-104529492D01*
X120365650Y-105939451D02*
X120163956Y-105410949D01*
X153532417Y-105287257D02*
X154032876Y-105015760D01*
X122322834Y-113943281D02*
X122093375Y-113937809D01*
X124290685Y-80498265D02*
X124665358Y-80592812D01*
X121873364Y-79865622D02*
X122031192Y-79994837D01*
X158883379Y-109989133D02*
X158836937Y-110198729D01*
X136179350Y-119524133D02*
X136145884Y-119242881D01*
X125552483Y-83087215D02*
X125843088Y-83113429D01*
X148545216Y-108152580D02*
X148949450Y-108108658D01*
X161427201Y-108073943D02*
X161168136Y-108285256D01*
X149534225Y-116825347D02*
X149492783Y-117289886D01*
X144567740Y-123112613D02*
X144255629Y-123263217D01*
X142438469Y-99275655D02*
X142326701Y-99955210D01*
X162653622Y-105755217D02*
X162637017Y-106021661D01*
X159306481Y-110655375D02*
X159616508Y-110693725D01*
X117768321Y-118368196D02*
X117674190Y-118380248D01*
X133337390Y-118829439D02*
X133196761Y-118900921D01*
X162365211Y-104759984D02*
X162462416Y-104901583D01*
X162543414Y-105075455D02*
X162604356Y-105278441D01*
X139441566Y-125094815D02*
X138613198Y-124495140D01*
X117505508Y-85355006D02*
X117511570Y-84696004D01*
X152942375Y-115975439D02*
X152270954Y-116022813D01*
X139111505Y-88495993D02*
X139754516Y-89281501D01*
X125331753Y-117679382D02*
X125031059Y-117522962D01*
X129028334Y-118350418D02*
X128499240Y-118196991D01*
X119458171Y-103326512D02*
X119413277Y-102792294D01*
X140958445Y-104581706D02*
X141179267Y-104871741D01*
X117535089Y-84338480D02*
X117592591Y-84108553D01*
X126449518Y-118000564D02*
X126046676Y-117920898D01*
X144816882Y-122962978D02*
X144567740Y-123112613D01*
X141084357Y-103354407D02*
X140861124Y-103718147D01*
X155561529Y-115321918D02*
X154485044Y-115638279D01*
X117592591Y-84108553D02*
X117713505Y-83821393D01*
X118625099Y-117618187D02*
X118408233Y-117912080D01*
X117261016Y-87578975D02*
X117341514Y-87279556D01*
X126046676Y-117920898D02*
X125672181Y-117813005D01*
X133706903Y-83856467D02*
X134145006Y-84009614D01*
X117713505Y-83821393D02*
X118000463Y-83277838D01*
X159071408Y-110576063D02*
X159306481Y-110655375D01*
X123022551Y-80654168D02*
X123541739Y-80530070D01*
X136074092Y-118991852D02*
X135950776Y-118770764D01*
X122728325Y-80756033D02*
X123022551Y-80654168D01*
X134077119Y-118333634D02*
X133720740Y-118578552D01*
X142587239Y-106793291D02*
X142618115Y-106958652D01*
X159837208Y-113640834D02*
X158849113Y-114093490D01*
X162086923Y-107372577D02*
X161690085Y-107822008D01*
X125408650Y-81799868D02*
X125184168Y-82049702D01*
X118503587Y-101902430D02*
X118334981Y-101965335D01*
X125672181Y-117813005D02*
X125331753Y-117679382D01*
X118404123Y-82649251D02*
X118855923Y-82036437D01*
X134145006Y-84009614D02*
X134521056Y-84174065D01*
X139912189Y-125376026D02*
X139706433Y-125276457D01*
X142531649Y-106627998D02*
X142587239Y-106793291D01*
X120108926Y-115318243D02*
X119426812Y-116371874D01*
X118247887Y-118086664D02*
X118110450Y-118207354D01*
X127329379Y-118067085D02*
X126875019Y-118049805D01*
X116960734Y-102870395D02*
X116835781Y-102933564D01*
X152422088Y-105988220D02*
X152993748Y-105612405D01*
X117999815Y-118283683D02*
X117895117Y-118332223D01*
X160799954Y-110763248D02*
X160981930Y-110793800D01*
X154485044Y-115638279D02*
X153483524Y-115883107D01*
X134775811Y-118090657D02*
X134550574Y-118106991D01*
X141930106Y-101535935D02*
X141685994Y-102216137D01*
X151822378Y-106411744D02*
X152422088Y-105988220D01*
X119283647Y-81542754D02*
X120180689Y-80708258D01*
X141684690Y-92414607D02*
X141881004Y-93072840D01*
X142147053Y-100753567D02*
X141930106Y-101535935D01*
X117270438Y-118181871D02*
X117198872Y-118085454D01*
X118949457Y-109066973D02*
X119115281Y-108758997D01*
X141312946Y-125232071D02*
X141081827Y-125327128D01*
X119539480Y-104011573D02*
X119498060Y-103775822D01*
X125804670Y-81167447D02*
X125787918Y-81275523D01*
X162540200Y-106504064D02*
X162461635Y-106728309D01*
X161691609Y-112477522D02*
X161631738Y-112575639D01*
X134963058Y-84433017D02*
X135488081Y-84826414D01*
X131989873Y-83469400D02*
X132634111Y-83586883D01*
X141555728Y-125102922D02*
X141312946Y-125232071D01*
X150552599Y-107394361D02*
X151199401Y-106880039D01*
X125609590Y-81574996D02*
X125408650Y-81799868D01*
X118000463Y-83277838D02*
X118404123Y-82649251D01*
X117426085Y-118314607D02*
X117346866Y-118257983D01*
X122970415Y-114151198D02*
X122763486Y-114050539D01*
X124237143Y-116626010D02*
X124099482Y-116239499D01*
X121860520Y-113963860D02*
X121626537Y-114020105D01*
X132634111Y-83586883D02*
X133204880Y-83715706D01*
X119401596Y-108297931D02*
X119585869Y-108103839D01*
X161985252Y-104529492D02*
X162137284Y-104577911D01*
X116998697Y-88190654D02*
X117152071Y-87863585D01*
X117106130Y-111837856D02*
X117486979Y-111227512D01*
X116840100Y-88541952D02*
X116998697Y-88190654D01*
X116219877Y-102708078D02*
X116007713Y-102468259D01*
X141408391Y-102812665D02*
X141084357Y-103354407D01*
X145657971Y-122351348D02*
X145071217Y-122776081D01*
X141987383Y-105771435D02*
X142327501Y-106239601D01*
X140810757Y-103881762D02*
X140800369Y-104047459D01*
X115661492Y-101696591D02*
X115619345Y-101426832D01*
X127353894Y-83128258D02*
X128736093Y-83144498D01*
X125763135Y-81030532D02*
X125787781Y-81054478D01*
X116752823Y-116206360D02*
X116674771Y-115407725D01*
X159621567Y-109285154D02*
X159156679Y-109645049D01*
X124099482Y-116239499D02*
X123968926Y-115729490D01*
X121550141Y-79718635D02*
X121634999Y-79733200D01*
X161730596Y-112364266D02*
X161691609Y-112477522D01*
X145120834Y-108037246D02*
X146414027Y-108109167D01*
X149219677Y-118735037D02*
X149013664Y-119305448D01*
X119585869Y-108103839D02*
X119857917Y-107866436D01*
X160981930Y-110793800D02*
X161154158Y-110841191D01*
X128736093Y-83144498D02*
X129573062Y-83177735D01*
X161408659Y-110964269D02*
X161449743Y-111009905D01*
X157820987Y-104405304D02*
X159649373Y-104427427D01*
X157781701Y-114534620D02*
X156673155Y-114949078D01*
X119100380Y-102008658D02*
X118972453Y-101928367D01*
X142444825Y-106441812D02*
X142531649Y-106627998D01*
X118855923Y-82036437D02*
X119283647Y-81542754D01*
X160831500Y-108516292D02*
X160332605Y-108827748D01*
X129900179Y-118736441D02*
X129661749Y-118650364D01*
X140819700Y-90738366D02*
X141213243Y-91372169D01*
X142662360Y-107183954D02*
X142771970Y-107399555D01*
X120626723Y-114646768D02*
X120381162Y-114941778D01*
X136986007Y-123041083D02*
X136882658Y-122837113D01*
D11*
G36*
X113616755Y-91191818D02*
G01*
X113338977Y-91191818D01*
X113338977Y-90447211D01*
X113427866Y-90447211D01*
X113431672Y-91075869D01*
X113458732Y-91102929D01*
X113497000Y-91102929D01*
X113524060Y-91075869D01*
X113527866Y-91056735D01*
X113524060Y-90428077D01*
X113497000Y-90401017D01*
X113458732Y-90401017D01*
X113431672Y-90428077D01*
X113427866Y-90447211D01*
X113338977Y-90447211D01*
X113338977Y-90312128D01*
X113616755Y-90312128D01*
X113616755Y-91191818D01*
G37*
G36*
X113917711Y-104653818D02*
G01*
X113038021Y-104653818D01*
X113038021Y-104233107D01*
X113126910Y-104233107D01*
X113153970Y-104260167D01*
X113173104Y-104263973D01*
X113430004Y-104262417D01*
X113431672Y-104537869D01*
X113458732Y-104564929D01*
X113497000Y-104564929D01*
X113524060Y-104537869D01*
X113527866Y-104518735D01*
X113526310Y-104261834D01*
X113801762Y-104260167D01*
X113828822Y-104233107D01*
X113828822Y-104194839D01*
X113801762Y-104167779D01*
X113782628Y-104163973D01*
X113525727Y-104165528D01*
X113524060Y-103890077D01*
X113497000Y-103863017D01*
X113458732Y-103863017D01*
X113431672Y-103890077D01*
X113427866Y-103909211D01*
X113429421Y-104166111D01*
X113153970Y-104167779D01*
X113126910Y-104194839D01*
X113126910Y-104233107D01*
X113038021Y-104233107D01*
X113038021Y-103774128D01*
X113917711Y-103774128D01*
X113917711Y-104653818D01*
G37*
G36*
X112333993Y-92284008D02*
G01*
X111260021Y-92284008D01*
X111260021Y-91787107D01*
X111348910Y-91787107D01*
X111375970Y-91814167D01*
X111395104Y-91817973D01*
X111764794Y-91816255D01*
X111767958Y-92053773D01*
X111795018Y-92080833D01*
X111833286Y-92080833D01*
X111860346Y-92053773D01*
X111864152Y-92034639D01*
X111861237Y-91815807D01*
X112145546Y-91814486D01*
X112148910Y-92168059D01*
X112175970Y-92195119D01*
X112214238Y-92195119D01*
X112241298Y-92168059D01*
X112245104Y-92148925D01*
X112241298Y-91748839D01*
X112214238Y-91721779D01*
X112195104Y-91717973D01*
X111375970Y-91721779D01*
X111348910Y-91748839D01*
X111348910Y-91787107D01*
X111260021Y-91787107D01*
X111260021Y-91629084D01*
X112333993Y-91629084D01*
X112333993Y-92284008D01*
G37*
G36*
X112330187Y-107964154D02*
G01*
X111260021Y-107964154D01*
X111260021Y-107844399D01*
X111348910Y-107844399D01*
X111375970Y-107871459D01*
X111395104Y-107875265D01*
X112214238Y-107871459D01*
X112241298Y-107844399D01*
X112241298Y-107806131D01*
X112214238Y-107779071D01*
X112195104Y-107775265D01*
X111375970Y-107779071D01*
X111348910Y-107806131D01*
X111348910Y-107844399D01*
X111260021Y-107844399D01*
X111260021Y-107686376D01*
X112330187Y-107686376D01*
X112330187Y-107964154D01*
G37*
G36*
X113917711Y-96123872D02*
G01*
X113038021Y-96123872D01*
X113038021Y-95703161D01*
X113126910Y-95703161D01*
X113153970Y-95730221D01*
X113173104Y-95734027D01*
X113430004Y-95732471D01*
X113431672Y-96007923D01*
X113458732Y-96034983D01*
X113497000Y-96034983D01*
X113524060Y-96007923D01*
X113527866Y-95988789D01*
X113526310Y-95731888D01*
X113801762Y-95730221D01*
X113828822Y-95703161D01*
X113828822Y-95664893D01*
X113801762Y-95637833D01*
X113782628Y-95634027D01*
X113525727Y-95635582D01*
X113524060Y-95360131D01*
X113497000Y-95333071D01*
X113458732Y-95333071D01*
X113431672Y-95360131D01*
X113427866Y-95379265D01*
X113429421Y-95636165D01*
X113153970Y-95637833D01*
X113126910Y-95664893D01*
X113126910Y-95703161D01*
X113038021Y-95703161D01*
X113038021Y-95244182D01*
X113917711Y-95244182D01*
X113917711Y-96123872D01*
G37*
G36*
X112330187Y-103641624D02*
G01*
X111260021Y-103641624D01*
X111260021Y-103521869D01*
X111348910Y-103521869D01*
X111375970Y-103548929D01*
X111395104Y-103552735D01*
X112214238Y-103548929D01*
X112241298Y-103521869D01*
X112241298Y-103483601D01*
X112214238Y-103456541D01*
X112195104Y-103452735D01*
X111863764Y-103454274D01*
X111860881Y-103093427D01*
X112214238Y-103091786D01*
X112241298Y-103064726D01*
X112241298Y-103026458D01*
X112214238Y-102999398D01*
X112195104Y-102995592D01*
X111375970Y-102999398D01*
X111348910Y-103026458D01*
X111348910Y-103064726D01*
X111375970Y-103091786D01*
X111395104Y-103095592D01*
X111764537Y-103093875D01*
X111767421Y-103454722D01*
X111375970Y-103456541D01*
X111348910Y-103483601D01*
X111348910Y-103521869D01*
X111260021Y-103521869D01*
X111260021Y-102906703D01*
X112330187Y-102906703D01*
X112330187Y-103641624D01*
G37*
G36*
X113616755Y-109585872D02*
G01*
X113338977Y-109585872D01*
X113338977Y-108841265D01*
X113427866Y-108841265D01*
X113431672Y-109469923D01*
X113458732Y-109496983D01*
X113497000Y-109496983D01*
X113524060Y-109469923D01*
X113527866Y-109450789D01*
X113524060Y-108822131D01*
X113497000Y-108795071D01*
X113458732Y-108795071D01*
X113431672Y-108822131D01*
X113427866Y-108841265D01*
X113338977Y-108841265D01*
X113338977Y-108706182D01*
X113616755Y-108706182D01*
X113616755Y-109585872D01*
G37*
G36*
X112333993Y-96991297D02*
G01*
X111256215Y-96991297D01*
X111256215Y-96623836D01*
X111345104Y-96623836D01*
X111345243Y-96627334D01*
X111345230Y-96627380D01*
X111345246Y-96627413D01*
X111347799Y-96691344D01*
X111345230Y-96696483D01*
X111347670Y-96715839D01*
X111387006Y-96823931D01*
X111387006Y-96833446D01*
X111394609Y-96844826D01*
X111395427Y-96847072D01*
X111396452Y-96847584D01*
X111397844Y-96849667D01*
X111452160Y-96898601D01*
X111452161Y-96898602D01*
X111471295Y-96902408D01*
X111757095Y-96898602D01*
X111784155Y-96871542D01*
X111787961Y-96852408D01*
X111784155Y-96680893D01*
X111757095Y-96653833D01*
X111718827Y-96653833D01*
X111691767Y-96680893D01*
X111687961Y-96700027D01*
X111690246Y-96803043D01*
X111494001Y-96805656D01*
X111477988Y-96791229D01*
X111444996Y-96700569D01*
X111445104Y-96700027D01*
X111442675Y-96639195D01*
X111472567Y-96540644D01*
X111531395Y-96478178D01*
X111531751Y-96478081D01*
X111594226Y-96443941D01*
X111597707Y-96443772D01*
X111734364Y-96406453D01*
X111737961Y-96407169D01*
X111837282Y-96404335D01*
X111840120Y-96405676D01*
X111978592Y-96437133D01*
X111982268Y-96439986D01*
X112045542Y-96468789D01*
X112111640Y-96531037D01*
X112145212Y-96623292D01*
X112145104Y-96623836D01*
X112147882Y-96721253D01*
X112107135Y-96810767D01*
X112119236Y-96847072D01*
X112153464Y-96864186D01*
X112189769Y-96852085D01*
X112201730Y-96836673D01*
X112235027Y-96763526D01*
X112241298Y-96757256D01*
X112243949Y-96743926D01*
X112244978Y-96741667D01*
X112244615Y-96740578D01*
X112245104Y-96738122D01*
X112242108Y-96633118D01*
X112244978Y-96627380D01*
X112242538Y-96608025D01*
X112203203Y-96499931D01*
X112203203Y-96490416D01*
X112195599Y-96479037D01*
X112194782Y-96476790D01*
X112193754Y-96476276D01*
X112192364Y-96474195D01*
X112120592Y-96406603D01*
X112118591Y-96400600D01*
X112103180Y-96388639D01*
X112099961Y-96387173D01*
X112099953Y-96387166D01*
X112099944Y-96387166D01*
X112036241Y-96358168D01*
X112034395Y-96355091D01*
X112016755Y-96346758D01*
X111874949Y-96314543D01*
X111871381Y-96310975D01*
X111852247Y-96307169D01*
X111749306Y-96310105D01*
X111745320Y-96307714D01*
X111725834Y-96308662D01*
X111586222Y-96346786D01*
X111582035Y-96345391D01*
X111563219Y-96350544D01*
X111496201Y-96387166D01*
X111490256Y-96387166D01*
X111474035Y-96398005D01*
X111403764Y-96472621D01*
X111395427Y-96476790D01*
X111388663Y-96488656D01*
X111387006Y-96490416D01*
X111387006Y-96491563D01*
X111385766Y-96493739D01*
X111353501Y-96600110D01*
X111348910Y-96604702D01*
X111345104Y-96623836D01*
X111256215Y-96623836D01*
X111256215Y-96218280D01*
X112333993Y-96218280D01*
X112333993Y-96991297D01*
G37*
D12*
G36*
X103706378Y-99891473D02*
G01*
X103762565Y-99945988D01*
X103789921Y-99998278D01*
X103791391Y-100129751D01*
X103767304Y-100180219D01*
X103710169Y-100239105D01*
X103573476Y-100274863D01*
X103271346Y-100276892D01*
X103122858Y-100241482D01*
X103066673Y-100186969D01*
X103039316Y-100134677D01*
X103037846Y-100003203D01*
X103061934Y-99952735D01*
X103119066Y-99893851D01*
X103255760Y-99858092D01*
X103557890Y-99856063D01*
X103706378Y-99891473D01*
G37*
G36*
X103266982Y-98880710D02*
G01*
X103287147Y-98899847D01*
X103313586Y-98950384D01*
X103314953Y-99180979D01*
X103038890Y-99181626D01*
X103037554Y-98956197D01*
X103062184Y-98904590D01*
X103081321Y-98884425D01*
X103132302Y-98857754D01*
X103216352Y-98856547D01*
X103266982Y-98880710D01*
G37*
G36*
X104164619Y-102840103D02*
G01*
X102617185Y-102840103D01*
X102617185Y-102406616D01*
X102742185Y-102406616D01*
X102746579Y-102423767D01*
X102749083Y-102441292D01*
X102752584Y-102447205D01*
X102754290Y-102453862D01*
X102767000Y-102474812D01*
X102926410Y-102683356D01*
X102968377Y-102708205D01*
X103016661Y-102715103D01*
X103063907Y-102702998D01*
X103102925Y-102673735D01*
X103127774Y-102631768D01*
X103134672Y-102583484D01*
X103122567Y-102536238D01*
X103109857Y-102515288D01*
X103021892Y-102400210D01*
X103122567Y-102263386D01*
X103134672Y-102216140D01*
X103127774Y-102167856D01*
X103102925Y-102125889D01*
X103063907Y-102096626D01*
X103016661Y-102084521D01*
X102968377Y-102091419D01*
X102926410Y-102116268D01*
X102909857Y-102134336D01*
X102778368Y-102313037D01*
X102773932Y-102316365D01*
X102765738Y-102330202D01*
X102754290Y-102345762D01*
X102752584Y-102352418D01*
X102749083Y-102358332D01*
X102746579Y-102375856D01*
X102742185Y-102393008D01*
X102743157Y-102399812D01*
X102742185Y-102406616D01*
X102617185Y-102406616D01*
X102617185Y-100685526D01*
X102789619Y-100685526D01*
X102792021Y-101281340D01*
X102810685Y-101326400D01*
X102845173Y-101360888D01*
X102890233Y-101379552D01*
X102939005Y-101379552D01*
X102984065Y-101360888D01*
X103018553Y-101326400D01*
X103037217Y-101281340D01*
X103039619Y-101256954D01*
X103038969Y-101095948D01*
X103939005Y-101093838D01*
X103984065Y-101075174D01*
X104018553Y-101040686D01*
X104037217Y-100995626D01*
X104037217Y-100946854D01*
X104018553Y-100901794D01*
X103984065Y-100867306D01*
X103939005Y-100848642D01*
X103914619Y-100846240D01*
X103037971Y-100848295D01*
X103037217Y-100661140D01*
X103018553Y-100616080D01*
X102984065Y-100581592D01*
X102939005Y-100562928D01*
X102890233Y-100562928D01*
X102845173Y-100581592D01*
X102810685Y-100616080D01*
X102792021Y-100661140D01*
X102789619Y-100685526D01*
X102617185Y-100685526D01*
X102617185Y-99971240D01*
X102789619Y-99971240D01*
X102791542Y-100143256D01*
X102790600Y-100146082D01*
X102791755Y-100162335D01*
X102792021Y-100186102D01*
X102793739Y-100190250D01*
X102794058Y-100194732D01*
X102802816Y-100217618D01*
X102852901Y-100313354D01*
X102858305Y-100326400D01*
X102862224Y-100331176D01*
X102863489Y-100333593D01*
X102865983Y-100335756D01*
X102873850Y-100345342D01*
X102961305Y-100430195D01*
X102964896Y-100436180D01*
X102975800Y-100444259D01*
X102988030Y-100456125D01*
X102996615Y-100459681D01*
X103004084Y-100465215D01*
X103027159Y-100473460D01*
X103211547Y-100517430D01*
X103223566Y-100522409D01*
X103238655Y-100523895D01*
X103241875Y-100524663D01*
X103243697Y-100524391D01*
X103247952Y-100524811D01*
X103573657Y-100522623D01*
X103587361Y-100524663D01*
X103602460Y-100522430D01*
X103605671Y-100522409D01*
X103607372Y-100521704D01*
X103611602Y-100521079D01*
X103788551Y-100474790D01*
X103796147Y-100474790D01*
X103809168Y-100469396D01*
X103825153Y-100465215D01*
X103832619Y-100459682D01*
X103841207Y-100456126D01*
X103860149Y-100440581D01*
X103954428Y-100343411D01*
X103965749Y-100333593D01*
X103969063Y-100328327D01*
X103970933Y-100326401D01*
X103972196Y-100323350D01*
X103978803Y-100312856D01*
X104017099Y-100232615D01*
X104018553Y-100231162D01*
X104023544Y-100219112D01*
X104035180Y-100194732D01*
X104035498Y-100190251D01*
X104037217Y-100186102D01*
X104039619Y-100161716D01*
X104037695Y-99989696D01*
X104038637Y-99986873D01*
X104037482Y-99970630D01*
X104037217Y-99946854D01*
X104035498Y-99942704D01*
X104035180Y-99938224D01*
X104026422Y-99915338D01*
X103976338Y-99819604D01*
X103970933Y-99806555D01*
X103967011Y-99801777D01*
X103965749Y-99799363D01*
X103963257Y-99797201D01*
X103955388Y-99787613D01*
X103867930Y-99702757D01*
X103864341Y-99696776D01*
X103853441Y-99688700D01*
X103841207Y-99676830D01*
X103832619Y-99673273D01*
X103825153Y-99667741D01*
X103802078Y-99659496D01*
X103617690Y-99615525D01*
X103605671Y-99610547D01*
X103590579Y-99609060D01*
X103587361Y-99608293D01*
X103585539Y-99608564D01*
X103581285Y-99608145D01*
X103255579Y-99610332D01*
X103241875Y-99608293D01*
X103226776Y-99610525D01*
X103223566Y-99610547D01*
X103221864Y-99611251D01*
X103217635Y-99611877D01*
X103040686Y-99658166D01*
X103033089Y-99658166D01*
X103020068Y-99663559D01*
X103004084Y-99667741D01*
X102996615Y-99673274D01*
X102988030Y-99676831D01*
X102969088Y-99692376D01*
X102874814Y-99789540D01*
X102863489Y-99799363D01*
X102860172Y-99804631D01*
X102858305Y-99806556D01*
X102857043Y-99809602D01*
X102850434Y-99820101D01*
X102812138Y-99900340D01*
X102810685Y-99901794D01*
X102805694Y-99913842D01*
X102794058Y-99938224D01*
X102793739Y-99942705D01*
X102792021Y-99946854D01*
X102789619Y-99971240D01*
X102617185Y-99971240D01*
X102617185Y-98923621D01*
X102789619Y-98923621D01*
X102792021Y-99328959D01*
X102810685Y-99374019D01*
X102845173Y-99408507D01*
X102890233Y-99427171D01*
X102914619Y-99429573D01*
X103939005Y-99427171D01*
X103984065Y-99408507D01*
X104018553Y-99374019D01*
X104037217Y-99328959D01*
X104037217Y-99280187D01*
X104018553Y-99235127D01*
X103984065Y-99200639D01*
X103939005Y-99181975D01*
X103914619Y-99179573D01*
X103562692Y-99180398D01*
X103561283Y-98942740D01*
X103562446Y-98939254D01*
X103561155Y-98921093D01*
X103561026Y-98899235D01*
X103559307Y-98895085D01*
X103558989Y-98890605D01*
X103550231Y-98867719D01*
X103500147Y-98771985D01*
X103494742Y-98758936D01*
X103490820Y-98754158D01*
X103489558Y-98751744D01*
X103487066Y-98749582D01*
X103479197Y-98739994D01*
X103427875Y-98691292D01*
X103419829Y-98682015D01*
X103414689Y-98678779D01*
X103412636Y-98676831D01*
X103409589Y-98675569D01*
X103399091Y-98668960D01*
X103318851Y-98630664D01*
X103317398Y-98629211D01*
X103305349Y-98624220D01*
X103280968Y-98612584D01*
X103276486Y-98612265D01*
X103272338Y-98610547D01*
X103247952Y-98608145D01*
X103123159Y-98609937D01*
X103120728Y-98609127D01*
X103105820Y-98610186D01*
X103080709Y-98610547D01*
X103076559Y-98612265D01*
X103072079Y-98612584D01*
X103049193Y-98621342D01*
X102953459Y-98671425D01*
X102940410Y-98676831D01*
X102935632Y-98680752D01*
X102933218Y-98682015D01*
X102931056Y-98684506D01*
X102921468Y-98692376D01*
X102872766Y-98743697D01*
X102863489Y-98751744D01*
X102860253Y-98756883D01*
X102858305Y-98758937D01*
X102857043Y-98761983D01*
X102850434Y-98772482D01*
X102812138Y-98852721D01*
X102810685Y-98854175D01*
X102805694Y-98866223D01*
X102794058Y-98890605D01*
X102793739Y-98895086D01*
X102792021Y-98899235D01*
X102789619Y-98923621D01*
X102617185Y-98923621D01*
X102617185Y-97501853D01*
X102742185Y-97501853D01*
X102746579Y-97519004D01*
X102749083Y-97536529D01*
X102752584Y-97542442D01*
X102754290Y-97549099D01*
X102767000Y-97570049D01*
X102926410Y-97778593D01*
X102968377Y-97803442D01*
X103016661Y-97810340D01*
X103063907Y-97798235D01*
X103102925Y-97768972D01*
X103127774Y-97727005D01*
X103134672Y-97678721D01*
X103122567Y-97631475D01*
X103109857Y-97610525D01*
X103021892Y-97495447D01*
X103122567Y-97358623D01*
X103134672Y-97311377D01*
X103127774Y-97263093D01*
X103102925Y-97221126D01*
X103063907Y-97191863D01*
X103016661Y-97179758D01*
X102968377Y-97186656D01*
X102926410Y-97211505D01*
X102909857Y-97229573D01*
X102778368Y-97408274D01*
X102773932Y-97411602D01*
X102765738Y-97425439D01*
X102754290Y-97440999D01*
X102752584Y-97447655D01*
X102749083Y-97453569D01*
X102746579Y-97471093D01*
X102742185Y-97488245D01*
X102743157Y-97495049D01*
X102742185Y-97501853D01*
X102617185Y-97501853D01*
X102617185Y-97054758D01*
X104164619Y-97054758D01*
X104164619Y-102840103D01*
G37*
D13*
X114238000Y-105664000D02*
G75*
G02*
X112838000Y-105664000I-700000J0D01*
G01*
X112838000Y-105664000D02*
G75*
G02*
X114238000Y-105664000I700000J0D01*
G01*
X144455000Y-120655000D02*
X144920000Y-120655000D01*
X147080000Y-120655000D02*
X147545000Y-120655000D01*
X144455170Y-120654999D02*
G75*
G02*
X144919173Y-115307186I1544830J2559999D01*
G01*
X144920000Y-120349683D02*
G75*
G02*
X144919572Y-115840522I1080000J2254683D01*
G01*
X147080429Y-115840521D02*
G75*
G02*
X147080000Y-120349684I-1080429J-2254479D01*
G01*
X147080827Y-115307186D02*
G75*
G02*
X147544830Y-120654999I-1080827J-2787814D01*
G01*
X112460000Y-93218000D02*
G75*
G02*
X111060000Y-93218000I-700000J0D01*
G01*
X111060000Y-93218000D02*
G75*
G02*
X112460000Y-93218000I700000J0D01*
G01*
X112460000Y-95250000D02*
G75*
G02*
X111060000Y-95250000I-700000J0D01*
G01*
X111060000Y-95250000D02*
G75*
G02*
X112460000Y-95250000I700000J0D01*
G01*
X114238000Y-107696000D02*
G75*
G02*
X112838000Y-107696000I-700000J0D01*
G01*
X112838000Y-107696000D02*
G75*
G02*
X114238000Y-107696000I700000J0D01*
G01*
X112460000Y-106680000D02*
G75*
G02*
X111060000Y-106680000I-700000J0D01*
G01*
X111060000Y-106680000D02*
G75*
G02*
X112460000Y-106680000I700000J0D01*
G01*
X112460000Y-104648000D02*
G75*
G02*
X111060000Y-104648000I-700000J0D01*
G01*
X111060000Y-104648000D02*
G75*
G02*
X112460000Y-104648000I700000J0D01*
G01*
X114238000Y-94234000D02*
G75*
G02*
X112838000Y-94234000I-700000J0D01*
G01*
X112838000Y-94234000D02*
G75*
G02*
X114238000Y-94234000I700000J0D01*
G01*
X114238000Y-92202000D02*
G75*
G02*
X112838000Y-92202000I-700000J0D01*
G01*
X112838000Y-92202000D02*
G75*
G02*
X114238000Y-92202000I700000J0D01*
G01*
%LPC*%
D14*
X100500000Y-96600000D03*
D15*
X100900000Y-97400000D03*
X100900000Y-98200000D03*
D14*
X100500000Y-99000000D03*
D15*
X100900000Y-99800000D03*
X100900000Y-100600000D03*
D14*
X100500000Y-101400000D03*
D15*
X100900000Y-102200000D03*
X100900000Y-103000000D03*
D14*
X100500000Y-103800000D03*
D16*
X113538000Y-105664000D03*
D17*
X110850000Y-87500000D03*
X111333274Y-86333274D03*
X111333274Y-88666726D03*
X112500000Y-85850000D03*
D18*
X112500000Y-87500000D03*
D17*
X112500000Y-89150000D03*
X113666726Y-86333274D03*
X113666726Y-88666726D03*
X114150000Y-87500000D03*
D19*
X146000000Y-120000000D03*
D20*
X146000000Y-118730000D03*
X146000000Y-117460000D03*
X146000000Y-116190000D03*
D16*
X111760000Y-93218000D03*
X111760000Y-95250000D03*
X113538000Y-107696000D03*
X111760000Y-106680000D03*
X111760000Y-104648000D03*
X113538000Y-94234000D03*
D17*
X110850000Y-112500000D03*
X111333274Y-111333274D03*
X111333274Y-113666726D03*
X112500000Y-110850000D03*
D18*
X112500000Y-112500000D03*
D17*
X112500000Y-114150000D03*
X113666726Y-111333274D03*
X113666726Y-113666726D03*
X114150000Y-112500000D03*
D16*
X113538000Y-92202000D03*
%LPD*%
M02*
