M48
; DRILL file {KiCad 8.0.1} date 2024-04-19T20:50:41+0100
; FORMAT={-:-/ absolute / metric / decimal}
; #@! TF.CreationDate,2024-04-19T20:50:41+01:00
; #@! TF.GenerationSoftware,Kicad,Pcbnew,8.0.1
; #@! TF.FileFunction,Plated,1,2,PTH
FMAT,2
METRIC
; #@! TA.AperFunction,Plated,PTH,ViaDrill
T1C0.300
; #@! TA.AperFunction,Plated,PTH,ComponentDrill
T2C0.400
; #@! TA.AperFunction,Plated,PTH,ComponentDrill
T3C0.900
; #@! TA.AperFunction,Plated,PTH,ComponentDrill
T4C2.200
%
G90
G05
T1
X104.775Y-96.266
X104.775Y-99.06
X104.775Y-101.473
X104.775Y-103.632
X105.537Y-99.568
X108.966Y-107.442
X113.538Y-105.664
T2
X110.85Y-87.5
X110.85Y-112.5
X111.333Y-86.333
X111.333Y-88.667
X111.333Y-111.333
X111.333Y-113.667
X112.5Y-85.85
X112.5Y-89.15
X112.5Y-110.85
X112.5Y-114.15
X113.667Y-86.333
X113.667Y-88.667
X113.667Y-111.333
X113.667Y-113.667
X114.15Y-87.5
X114.15Y-112.5
T3
X146.0Y-116.19
X146.0Y-117.46
X146.0Y-118.73
X146.0Y-120.0
T4
X112.5Y-87.5
X112.5Y-112.5
M30
