G04 #@! TF.GenerationSoftware,KiCad,Pcbnew,8.0.1*
G04 #@! TF.CreationDate,2024-04-20T17:21:34+01:00*
G04 #@! TF.ProjectId,rabbit,72616262-6974-42e6-9b69-6361645f7063,rev?*
G04 #@! TF.SameCoordinates,Original*
G04 #@! TF.FileFunction,Legend,Bot*
G04 #@! TF.FilePolarity,Positive*
%FSLAX46Y46*%
G04 Gerber Fmt 4.6, Leading zero omitted, Abs format (unit mm)*
G04 Created by KiCad (PCBNEW 8.0.1) date 2024-04-20 17:21:34*
%MOMM*%
%LPD*%
G01*
G04 APERTURE LIST*
G04 Aperture macros list*
%AMRoundRect*
0 Rectangle with rounded corners*
0 $1 Rounding radius*
0 $2 $3 $4 $5 $6 $7 $8 $9 X,Y pos of 4 corners*
0 Add a 4 corners polygon primitive as box body*
4,1,4,$2,$3,$4,$5,$6,$7,$8,$9,$2,$3,0*
0 Add four circle primitives for the rounded corners*
1,1,$1+$1,$2,$3*
1,1,$1+$1,$4,$5*
1,1,$1+$1,$6,$7*
1,1,$1+$1,$8,$9*
0 Add four rect primitives between the rounded corners*
20,1,$1+$1,$2,$3,$4,$5,0*
20,1,$1+$1,$4,$5,$6,$7,0*
20,1,$1+$1,$6,$7,$8,$9,0*
20,1,$1+$1,$8,$9,$2,$3,0*%
G04 Aperture macros list end*
%ADD10C,0.150000*%
%ADD11C,0.100000*%
%ADD12C,0.250000*%
%ADD13C,0.200000*%
%ADD14C,0.120000*%
%ADD15RoundRect,0.150000X-1.600000X-0.150000X1.600000X-0.150000X1.600000X0.150000X-1.600000X0.150000X0*%
%ADD16RoundRect,0.150000X-1.200000X-0.150000X1.200000X-0.150000X1.200000X0.150000X-1.200000X0.150000X0*%
%ADD17C,0.700000*%
%ADD18C,4.400000*%
%ADD19R,1.800000X1.070000*%
%ADD20O,1.800000X1.070000*%
%ADD21R,1.000000X1.000000*%
%ADD22RoundRect,0.100000X0.637500X0.100000X-0.637500X0.100000X-0.637500X-0.100000X0.637500X-0.100000X0*%
%ADD23RoundRect,0.200000X-0.275000X0.200000X-0.275000X-0.200000X0.275000X-0.200000X0.275000X0.200000X0*%
G04 APERTURE END LIST*
D10*
X136127722Y-85382665D02*
X136908951Y-86125246D01*
X141555728Y-125102922D02*
X141312946Y-125232071D01*
X161358727Y-110927258D02*
X161408659Y-110964269D01*
X120165609Y-107593588D02*
X120376465Y-107337892D01*
X160065363Y-110718660D02*
X160799954Y-110763248D01*
X158883379Y-109989133D02*
X158836937Y-110198729D01*
X125127779Y-80753449D02*
X125661358Y-80976014D01*
X162236000Y-107160732D02*
X162086923Y-107372577D01*
X116440610Y-89758486D02*
X116695632Y-88917496D01*
X123355035Y-114443186D02*
X123166402Y-114281406D01*
X133706903Y-83856467D02*
X134145006Y-84009614D01*
X147702866Y-121029051D02*
X146671159Y-121704177D01*
X150552599Y-107394361D02*
X151199401Y-106880039D01*
X161408659Y-110964269D02*
X161449743Y-111009905D01*
X145071217Y-122776081D02*
X144816882Y-122962978D01*
X121739944Y-79778519D02*
X121873364Y-79865622D01*
X159306481Y-110655375D02*
X159616508Y-110693725D01*
X116007713Y-102468259D02*
X115875770Y-102290435D01*
X120365650Y-105939451D02*
X120163956Y-105410949D01*
X123560074Y-114682445D02*
X123355035Y-114443186D01*
X117535089Y-84338480D02*
X117592591Y-84108553D01*
X136612989Y-121948841D02*
X136422766Y-121084024D01*
X116602141Y-102985648D02*
X116526927Y-102968868D01*
X124290685Y-80498265D02*
X124665358Y-80592812D01*
X149580003Y-116630488D02*
X149534225Y-116825347D01*
X152270954Y-116022813D02*
X150279309Y-116152276D01*
X143175435Y-107703920D02*
X143520653Y-107838335D01*
X139441566Y-125094815D02*
X138613198Y-124495140D01*
X116219877Y-102708078D02*
X116007713Y-102468259D01*
X119214662Y-102127946D02*
X119100380Y-102008658D01*
X158902451Y-110410997D02*
X159071408Y-110576063D01*
X161730596Y-112364266D02*
X161691609Y-112477522D01*
X125787918Y-81275523D02*
X125730292Y-81403615D01*
X149449631Y-117767996D02*
X149361859Y-118234057D01*
X118825293Y-101879617D02*
X118665038Y-101871895D01*
X119283647Y-81542754D02*
X120180689Y-80708258D01*
X118247887Y-118086664D02*
X118110450Y-118207354D01*
X159071408Y-110576063D02*
X159306481Y-110655375D01*
X161543694Y-112669770D02*
X161418223Y-112765586D01*
X123166402Y-114281406D02*
X122970415Y-114151198D01*
X136074092Y-118991852D02*
X135950776Y-118770764D01*
X120376465Y-107337892D02*
X120487985Y-107059081D01*
X116738346Y-112700789D02*
X116871688Y-112304877D01*
X142947488Y-107569744D02*
X143175435Y-107703920D01*
X127353894Y-83128258D02*
X128736093Y-83144498D01*
X132236097Y-119010258D02*
X131309011Y-118972670D01*
X149656240Y-116459999D02*
X149580003Y-116630488D01*
X160981930Y-110793800D02*
X161154158Y-110841191D01*
X137116284Y-123235158D02*
X136986007Y-123041083D01*
X125031059Y-117522962D02*
X124775484Y-117347256D01*
X117426085Y-118314607D02*
X117346866Y-118257983D01*
X137510730Y-123649939D02*
X137286794Y-123434153D01*
X118972453Y-101928367D02*
X118825293Y-101879617D01*
X116752823Y-116206360D02*
X116674771Y-115407725D01*
X161553891Y-111212391D02*
X161659356Y-111566692D01*
X116725145Y-102968375D02*
X116602141Y-102985648D01*
X115578404Y-100717974D02*
X115595920Y-99760091D01*
X121873364Y-79865622D02*
X122031192Y-79994837D01*
X157820987Y-104405304D02*
X159649373Y-104427427D01*
X132634111Y-83586883D02*
X133204880Y-83715706D01*
X138613198Y-124495140D02*
X137798034Y-123891013D01*
X125763135Y-81030532D02*
X125787781Y-81054478D01*
X120478151Y-106368603D02*
X120365650Y-105939451D01*
X148853099Y-119692828D02*
X148695733Y-120009270D01*
X118733139Y-109420037D02*
X118949457Y-109066973D01*
X125804670Y-81167447D02*
X125787918Y-81275523D01*
X159616508Y-110693725D02*
X160065363Y-110718660D01*
X117505508Y-85355006D02*
X117511570Y-84696004D01*
X116998697Y-88190654D02*
X117152071Y-87863585D01*
X155561529Y-115321918D02*
X154485044Y-115638279D01*
X115619345Y-101426832D02*
X115578404Y-100717974D01*
X118404123Y-82649251D02*
X118855923Y-82036437D01*
X115595920Y-99760091D02*
X115841349Y-95546365D01*
X152422088Y-105988220D02*
X152993748Y-105612405D01*
X156459780Y-104433798D02*
X157820987Y-104405304D01*
X148695733Y-120009270D02*
X148524418Y-120275726D01*
X116674771Y-115407725D02*
X116630717Y-114600353D01*
X156673155Y-114949078D02*
X155561529Y-115321918D01*
X140635608Y-125426071D02*
X140382031Y-125438450D01*
X135550489Y-118370135D02*
X135302742Y-118220829D01*
X117511570Y-84696004D02*
X117535089Y-84338480D01*
X140328637Y-90035052D02*
X140819700Y-90738366D01*
X116992285Y-117552570D02*
X116860293Y-116939571D01*
X117486979Y-111227512D02*
X118057200Y-110403439D01*
X118855923Y-82036437D02*
X119283647Y-81542754D01*
X120381162Y-114941778D02*
X120108926Y-115318243D01*
X124390530Y-116921414D02*
X124237143Y-116626010D01*
X144567740Y-123112613D02*
X144255629Y-123263217D01*
X136145884Y-119242881D02*
X136074092Y-118991852D01*
X125798149Y-81080563D02*
X125804670Y-81167447D01*
X117062823Y-117787586D02*
X116992285Y-117552570D01*
X122763486Y-114050539D02*
X122546955Y-113980909D01*
X133204880Y-83715706D02*
X133706903Y-83856467D01*
X149219677Y-118735037D02*
X149013664Y-119305448D01*
X153483524Y-115883107D02*
X152942375Y-115975439D01*
X139912189Y-125376026D02*
X139706433Y-125276457D01*
X125331753Y-117679382D02*
X125031059Y-117522962D01*
X162604356Y-105278441D02*
X162641976Y-105506488D01*
X117972084Y-102168601D02*
X117498913Y-102496863D01*
X128736093Y-83144498D02*
X129573062Y-83177735D01*
X131989873Y-83469400D02*
X132634111Y-83586883D01*
X155506888Y-104514584D02*
X155937371Y-104467571D01*
X116840100Y-88541952D02*
X116998697Y-88190654D01*
X125787781Y-81054478D02*
X125798149Y-81080563D01*
X160707247Y-113192320D02*
X159837208Y-113640834D01*
X118625099Y-117618187D02*
X118408233Y-117912080D01*
X142438469Y-99275655D02*
X142326701Y-99955210D01*
X129900179Y-118736441D02*
X129661749Y-118650364D01*
X139111505Y-88495993D02*
X139754516Y-89281501D01*
X141213243Y-91372169D02*
X141495050Y-91915976D01*
X120163956Y-105410949D02*
X119858214Y-104727403D01*
X145657971Y-122351348D02*
X145071217Y-122776081D01*
X142327501Y-106239601D02*
X142444825Y-106441812D01*
X119115281Y-108758997D02*
X119258975Y-108497301D01*
X162255636Y-104652066D02*
X162365211Y-104759984D01*
X161631738Y-112575639D02*
X161543694Y-112669770D01*
X150279309Y-116152276D02*
X150102785Y-116175050D01*
X153532417Y-105287257D02*
X154032876Y-105015760D01*
X129661749Y-118650364D02*
X129456476Y-118548386D01*
X155162637Y-104574203D02*
X155506888Y-104514584D01*
X140833828Y-104313593D02*
X140958445Y-104581706D01*
X144816882Y-122962978D02*
X144567740Y-123112613D01*
X162641976Y-105506488D02*
X162653622Y-105755217D01*
X142444825Y-106441812D02*
X142531649Y-106627998D01*
X148524418Y-120275726D02*
X148317777Y-120518756D01*
X162637017Y-106021661D02*
X162598344Y-106269191D01*
X161427201Y-108073943D02*
X161168136Y-108285256D01*
X126046676Y-117920898D02*
X125672181Y-117813005D01*
X161168136Y-108285256D02*
X160831500Y-108516292D01*
X134521056Y-84174065D02*
X134963058Y-84433017D01*
X136179350Y-119524133D02*
X136145884Y-119242881D01*
X117270438Y-118181871D02*
X117198872Y-118085454D01*
X143940341Y-107933192D02*
X144462984Y-107996781D01*
X139754516Y-89281501D02*
X140328637Y-90035052D01*
X142086262Y-124627780D02*
X141940109Y-124802869D01*
X125843088Y-83113429D02*
X127353894Y-83128258D01*
X149933341Y-116224429D02*
X149777011Y-116318331D01*
X116860293Y-116939571D02*
X116752823Y-116206360D01*
X152993748Y-105612405D02*
X153532417Y-105287257D01*
X115718882Y-101926974D02*
X115661492Y-101696591D01*
X141408391Y-102812665D02*
X141084357Y-103354407D01*
X162137284Y-104577911D02*
X162255636Y-104652066D01*
X141881004Y-93072840D02*
X142064728Y-93824057D01*
X150102785Y-116175050D02*
X149933341Y-116224429D01*
X117152071Y-87863585D02*
X117261016Y-87578975D01*
X120180689Y-80708258D02*
X121042986Y-79961465D01*
X121860520Y-113963860D02*
X121626537Y-114020105D01*
X129573062Y-83177735D02*
X131268863Y-83362738D01*
X142218129Y-94603372D02*
X142351817Y-95470206D01*
X147588554Y-108173084D02*
X148093874Y-108173755D01*
X141495050Y-91915976D02*
X141684690Y-92414607D01*
X117198872Y-118085454D02*
X117134616Y-117968534D01*
X129456476Y-118548386D02*
X129028334Y-118350418D01*
X119258975Y-108497301D02*
X119401596Y-108297931D01*
X115841349Y-95546365D02*
X116113016Y-91646252D01*
X122093375Y-113937809D02*
X121860520Y-113963860D01*
X136265707Y-120213445D02*
X136179350Y-119524133D01*
X148093874Y-108173755D02*
X148545216Y-108152580D01*
X117713505Y-83821393D02*
X118000463Y-83277838D01*
X142587239Y-106793291D02*
X142618115Y-106958652D01*
X121463878Y-79727162D02*
X121550141Y-79718635D01*
X141513533Y-105236483D02*
X141987383Y-105771435D01*
X151822378Y-106411744D02*
X152422088Y-105988220D01*
X142351817Y-95470206D02*
X142443356Y-96277585D01*
X133720740Y-118578552D02*
X133337390Y-118829439D01*
X142326701Y-99955210D02*
X142147053Y-100753567D01*
X116243882Y-90677368D02*
X116440610Y-89758486D01*
X122409567Y-80385674D02*
X122728325Y-80756033D01*
X121213146Y-79842866D02*
X121354489Y-79765152D01*
X135302742Y-118220829D02*
X135039565Y-118124399D01*
X154489414Y-104800893D02*
X154895068Y-104645626D01*
X142368076Y-124272203D02*
X142086262Y-124627780D01*
X121626537Y-114020105D02*
X121355163Y-114116065D01*
X123968926Y-115729490D02*
X123861408Y-115322606D01*
X149928420Y-107825601D02*
X150219232Y-107644488D01*
X119401596Y-108297931D02*
X119585869Y-108103839D01*
X142147053Y-100753567D02*
X141930106Y-101535935D01*
X123022551Y-80654168D02*
X123541739Y-80530070D01*
X135039565Y-118124399D02*
X134775811Y-118090657D01*
X145120834Y-108037246D02*
X146414027Y-108109167D01*
X124569462Y-117156237D02*
X124390530Y-116921414D01*
X133063135Y-118949708D02*
X132918466Y-118981891D01*
X149635226Y-107947482D02*
X149928420Y-107825601D01*
X161630504Y-104490182D02*
X161985252Y-104529492D01*
X119458171Y-103326512D02*
X119413277Y-102792294D01*
X118949457Y-109066973D02*
X119115281Y-108758997D01*
X140958445Y-104581706D02*
X141179267Y-104871741D01*
X149311354Y-108040786D02*
X149635226Y-107947482D01*
X161659356Y-111566692D02*
X161716249Y-111825838D01*
X141987383Y-105771435D02*
X142327501Y-106239601D01*
X134963058Y-84433017D02*
X135488081Y-84826414D01*
X125380132Y-83022844D02*
X125552483Y-83087215D01*
X127329379Y-118067085D02*
X126875019Y-118049805D01*
X141765997Y-124958356D02*
X141555728Y-125102922D01*
X124018890Y-80468856D02*
X124290685Y-80498265D01*
X142771970Y-107399555D02*
X142947488Y-107569744D01*
X117134616Y-117968534D02*
X117062823Y-117787586D01*
X157781701Y-114534620D02*
X156673155Y-114949078D01*
X158849113Y-114093490D02*
X157781701Y-114534620D01*
X116630717Y-114600353D02*
X116624759Y-113840791D01*
X125609590Y-81574996D02*
X125408650Y-81799868D01*
X158836937Y-110198729D02*
X158902451Y-110410997D01*
X125730292Y-81403615D02*
X125609590Y-81574996D01*
X149777011Y-116318331D02*
X149656240Y-116459999D01*
X131268863Y-83362738D02*
X131989873Y-83469400D01*
X144462984Y-107996781D02*
X145120834Y-108037246D01*
X117498913Y-102496863D02*
X116960734Y-102870395D01*
X118665038Y-101871895D02*
X118503587Y-101902430D01*
X122728325Y-80756033D02*
X123022551Y-80654168D01*
X141312946Y-125232071D02*
X141081827Y-125327128D01*
X142534093Y-124113451D02*
X142368076Y-124272203D01*
X124237143Y-116626010D02*
X124099482Y-116239499D01*
X121550141Y-79718635D02*
X121634999Y-79733200D01*
X140800369Y-104047459D02*
X140833828Y-104313593D01*
X116660264Y-113187815D02*
X116738346Y-112700789D01*
X129028334Y-118350418D02*
X128499240Y-118196991D01*
X133337390Y-118829439D02*
X133196761Y-118900921D01*
X122970415Y-114151198D02*
X122763486Y-114050539D01*
X149013664Y-119305448D02*
X148853099Y-119692828D01*
X120862933Y-114417552D02*
X120626723Y-114646768D01*
X149492783Y-117289886D02*
X149449631Y-117767996D01*
X121103320Y-114243656D02*
X120862933Y-114417552D01*
X142722124Y-123970518D02*
X142534093Y-124113451D01*
X162086923Y-107372577D02*
X161690085Y-107822008D01*
X143819145Y-123445295D02*
X143174507Y-123720104D01*
X144255629Y-123263217D02*
X143819145Y-123445295D01*
X155937371Y-104467571D02*
X156459780Y-104433798D01*
X115875770Y-102290435D02*
X115790935Y-102123425D01*
X118334981Y-101965335D02*
X117972084Y-102168601D01*
X135950776Y-118770764D02*
X135775031Y-118565217D01*
X117674190Y-118380248D02*
X117589121Y-118374738D01*
X117592591Y-84108553D02*
X117713505Y-83821393D01*
X140861124Y-103718147D02*
X140810757Y-103881762D01*
X142064728Y-93824057D02*
X142218129Y-94603372D01*
X124665358Y-80592812D02*
X125127779Y-80753449D01*
X148949450Y-108108658D02*
X149311354Y-108040786D01*
X118408233Y-117912080D02*
X118247887Y-118086664D01*
X117341514Y-87279556D02*
X117416809Y-86897581D01*
X118000463Y-83277838D02*
X118404123Y-82649251D01*
X121634999Y-79733200D02*
X121739944Y-79778519D01*
X142496212Y-98610246D02*
X142438469Y-99275655D01*
X130518414Y-118878701D02*
X130188119Y-118813429D01*
X141685994Y-102216137D02*
X141408391Y-102812665D01*
X151199401Y-106880039D02*
X151822378Y-106411744D01*
X140116677Y-125424634D02*
X139912189Y-125376026D01*
X119341235Y-102403982D02*
X119214662Y-102127946D01*
X141081827Y-125327128D02*
X140862531Y-125390069D01*
X131309011Y-118972670D02*
X130518414Y-118878701D01*
X158995732Y-109813169D02*
X158883379Y-109989133D01*
X123541739Y-80530070D02*
X124018890Y-80468856D01*
X117346866Y-118257983D02*
X117270438Y-118181871D01*
X142531649Y-106627998D02*
X142587239Y-106793291D01*
X134331602Y-118183012D02*
X134077119Y-118333634D01*
X134077119Y-118333634D02*
X133720740Y-118578552D01*
X124775484Y-117347256D02*
X124569462Y-117156237D01*
X130188119Y-118813429D02*
X129900179Y-118736441D01*
X160799954Y-110763248D02*
X160981930Y-110793800D01*
X161449743Y-111009905D02*
X161553891Y-111212391D01*
X137286794Y-123434153D02*
X137116284Y-123235158D01*
X132744659Y-119001040D02*
X132236097Y-119010258D01*
X116835781Y-102933564D02*
X116725145Y-102968375D01*
X118057200Y-110403439D02*
X118733139Y-109420037D01*
X141940109Y-124802869D02*
X141765997Y-124958356D01*
X137798034Y-123891013D02*
X137510730Y-123649939D01*
X120108926Y-115318243D02*
X119426812Y-116371874D01*
X161716249Y-111825838D02*
X161746134Y-112044680D01*
X143174507Y-123720104D02*
X142722124Y-123970518D01*
X116960734Y-102870395D02*
X116835781Y-102933564D01*
X160831500Y-108516292D02*
X160332605Y-108827748D01*
X117768321Y-118368196D02*
X117674190Y-118380248D01*
X161418223Y-112765586D02*
X160707247Y-113192320D01*
X137674863Y-86900352D02*
X138413631Y-87696386D01*
X125094059Y-82773736D02*
X125226546Y-82910049D01*
X120513560Y-106748980D02*
X120478151Y-106368603D01*
X141684690Y-92414607D02*
X141881004Y-93072840D01*
X125184168Y-82049702D02*
X125033575Y-82282273D01*
X152942375Y-115975439D02*
X152270954Y-116022813D01*
X143520653Y-107838335D02*
X143940341Y-107933192D01*
X136908951Y-86125246D02*
X137674863Y-86900352D01*
X140862531Y-125390069D02*
X140635608Y-125426071D01*
X142512814Y-97851842D02*
X142496212Y-98610246D01*
X127919133Y-118100335D02*
X127329379Y-118067085D01*
X119426812Y-116371874D02*
X118625099Y-117618187D01*
X136986007Y-123041083D02*
X136882658Y-122837113D01*
X142618115Y-106958652D02*
X142662360Y-107183954D01*
X148545216Y-108152580D02*
X148949450Y-108108658D01*
X150219232Y-107644488D02*
X150552599Y-107394361D01*
X117895117Y-118332223D02*
X117768321Y-118368196D01*
X142662360Y-107183954D02*
X142771970Y-107399555D01*
X125226546Y-82910049D02*
X125380132Y-83022844D01*
X117486770Y-86320313D02*
X117505508Y-85355006D01*
X121042986Y-79961465D02*
X121213146Y-79842866D01*
X119498060Y-103775822D02*
X119458171Y-103326512D01*
X118503587Y-101902430D02*
X118334981Y-101965335D01*
X116695632Y-88917496D02*
X116840100Y-88541952D01*
X148317777Y-120518756D02*
X148051177Y-120763431D01*
X149534225Y-116825347D02*
X149492783Y-117289886D01*
X162462416Y-104901583D02*
X162543414Y-105075455D01*
X118110450Y-118207354D02*
X117999815Y-118283683D01*
X117589121Y-118374738D02*
X117506839Y-118353067D01*
X159621567Y-109285154D02*
X159156679Y-109645049D01*
X141930106Y-101535935D02*
X141685994Y-102216137D01*
X122322834Y-113943281D02*
X122093375Y-113937809D01*
X117506839Y-118353067D02*
X117426085Y-118314607D01*
X162653622Y-105755217D02*
X162637017Y-106021661D01*
X120626723Y-114646768D02*
X120381162Y-114941778D01*
X126449518Y-118000564D02*
X126046676Y-117920898D01*
X135488081Y-84826414D02*
X136127722Y-85382665D01*
X119585869Y-108103839D02*
X119857917Y-107866436D01*
X140819700Y-90738366D02*
X141213243Y-91372169D01*
X159837208Y-113640834D02*
X158849113Y-114093490D01*
X121354489Y-79765152D02*
X121463878Y-79727162D01*
X140810757Y-103881762D02*
X140800369Y-104047459D01*
X116624759Y-113840791D02*
X116660264Y-113187815D01*
X133196761Y-118900921D02*
X133063135Y-118949708D01*
X154485044Y-115638279D02*
X153483524Y-115883107D01*
X136882658Y-122837113D02*
X136796102Y-122610153D01*
X139706433Y-125276457D02*
X139441566Y-125094815D01*
X148051177Y-120763431D02*
X147702866Y-121029051D01*
X119100380Y-102008658D02*
X118972453Y-101928367D01*
X125552483Y-83087215D02*
X125843088Y-83113429D01*
X126875019Y-118049805D02*
X126449518Y-118000564D01*
X162360943Y-106945935D02*
X162236000Y-107160732D01*
X136422766Y-121084024D02*
X136265707Y-120213445D01*
X161985252Y-104529492D02*
X162137284Y-104577911D01*
X162461635Y-106728309D02*
X162360943Y-106945935D01*
X135775031Y-118565217D02*
X135550489Y-118370135D01*
X117261016Y-87578975D02*
X117341514Y-87279556D01*
X125408650Y-81799868D02*
X125184168Y-82049702D01*
X141084357Y-103354407D02*
X140861124Y-103718147D01*
X159649373Y-104427427D02*
X161630504Y-104490182D01*
X117106130Y-111837856D02*
X117486979Y-111227512D01*
X119857917Y-107866436D02*
X120165609Y-107593588D01*
X120487985Y-107059081D02*
X120513560Y-106748980D01*
X161746134Y-112044680D02*
X161749863Y-112222864D01*
X162365211Y-104759984D02*
X162462416Y-104901583D01*
X115661492Y-101696591D02*
X115619345Y-101426832D01*
X124988821Y-82543586D02*
X125094059Y-82773736D01*
X119413277Y-102792294D02*
X119341235Y-102403982D01*
X161690085Y-107822008D02*
X161427201Y-108073943D01*
X132918466Y-118981891D02*
X132744659Y-119001040D01*
X142443356Y-96277585D02*
X142495954Y-97059670D01*
X134550574Y-118106991D02*
X134331602Y-118183012D01*
X146671159Y-121704177D02*
X145657971Y-122351348D01*
X122546955Y-113980909D02*
X122322834Y-113943281D01*
X142495954Y-97059670D02*
X142512814Y-97851842D01*
X117416809Y-86897581D02*
X117486770Y-86320313D01*
X154032876Y-105015760D02*
X154489414Y-104800893D01*
X149361859Y-118234057D02*
X149219677Y-118735037D01*
X140382031Y-125438450D02*
X140116677Y-125424634D01*
X115790935Y-102123425D02*
X115718882Y-101926974D01*
X123861408Y-115322606D02*
X123727737Y-114974757D01*
X125661358Y-80976014D02*
X125763135Y-81030532D01*
X161691609Y-112477522D02*
X161631738Y-112575639D01*
X162598344Y-106269191D02*
X162540200Y-106504064D01*
X146414027Y-108109167D02*
X147588554Y-108173084D01*
X116526927Y-102968868D02*
X116411168Y-102892358D01*
X159156679Y-109645049D02*
X158995732Y-109813169D01*
X116871688Y-112304877D02*
X117106130Y-111837856D01*
X161749863Y-112222864D02*
X161730596Y-112364266D01*
X121355163Y-114116065D02*
X121103320Y-114243656D01*
X134145006Y-84009614D02*
X134521056Y-84174065D01*
X116411168Y-102892358D02*
X116219877Y-102708078D01*
X117999815Y-118283683D02*
X117895117Y-118332223D01*
X162540200Y-106504064D02*
X162461635Y-106728309D01*
X141179267Y-104871741D02*
X141513533Y-105236483D01*
X116113016Y-91646252D02*
X116243882Y-90677368D01*
X123727737Y-114974757D02*
X123560074Y-114682445D01*
X161154158Y-110841191D02*
X161358727Y-110927258D01*
X134775811Y-118090657D02*
X134550574Y-118106991D01*
X119539480Y-104011573D02*
X119498060Y-103775822D01*
X154895068Y-104645626D02*
X155162637Y-104574203D01*
X125033575Y-82282273D02*
X124988821Y-82543586D01*
X136796102Y-122610153D02*
X136612989Y-121948841D01*
X122031192Y-79994837D02*
X122409567Y-80385674D01*
X162543414Y-105075455D02*
X162604356Y-105278441D01*
X138413631Y-87696386D02*
X139111505Y-88495993D01*
X119858214Y-104727403D02*
X119539480Y-104011573D01*
X124099482Y-116239499D02*
X123968926Y-115729490D01*
X160332605Y-108827748D02*
X159621567Y-109285154D01*
X128499240Y-118196991D02*
X127919133Y-118100335D01*
X125672181Y-117813005D02*
X125331753Y-117679382D01*
D11*
G36*
X106942690Y-105913119D02*
G01*
X106971269Y-105938865D01*
X107004260Y-106029524D01*
X107004152Y-106030068D01*
X107007063Y-106248722D01*
X106684557Y-106250221D01*
X106681736Y-106010134D01*
X106708633Y-105951050D01*
X106735195Y-105921566D01*
X106794051Y-105889403D01*
X106884901Y-105886812D01*
X106942690Y-105913119D01*
G37*
G36*
X107323645Y-105951214D02*
G01*
X107353130Y-105977778D01*
X107385188Y-106036446D01*
X107387992Y-106246952D01*
X107103506Y-106248274D01*
X107100841Y-106048104D01*
X107127679Y-105989145D01*
X107154243Y-105959660D01*
X107213246Y-105927418D01*
X107266683Y-105925285D01*
X107323645Y-105951214D01*
G37*
G36*
X107573993Y-106435623D02*
G01*
X106496215Y-106435623D01*
X106496215Y-105991972D01*
X106585104Y-105991972D01*
X106588910Y-106315868D01*
X106615970Y-106342928D01*
X106635104Y-106346734D01*
X107454238Y-106342928D01*
X107481298Y-106315868D01*
X107485104Y-106296734D01*
X107481639Y-106036540D01*
X107484978Y-106026524D01*
X107481328Y-106013193D01*
X107481298Y-106010934D01*
X107480487Y-106010123D01*
X107479826Y-106007708D01*
X107443203Y-105940688D01*
X107443203Y-105934742D01*
X107432364Y-105918521D01*
X107429853Y-105916258D01*
X107429769Y-105916105D01*
X107429631Y-105916059D01*
X107398285Y-105887819D01*
X107396686Y-105883022D01*
X107381275Y-105871061D01*
X107378057Y-105869596D01*
X107378048Y-105869588D01*
X107378039Y-105869588D01*
X107308128Y-105837764D01*
X107301857Y-105831493D01*
X107288525Y-105828841D01*
X107286267Y-105827813D01*
X107285179Y-105828175D01*
X107282723Y-105827687D01*
X107211180Y-105830543D01*
X107202989Y-105827813D01*
X107189916Y-105831392D01*
X107187399Y-105831493D01*
X107186588Y-105832303D01*
X107184173Y-105832965D01*
X107117154Y-105869588D01*
X107111207Y-105869588D01*
X107094986Y-105880427D01*
X107092723Y-105882937D01*
X107092570Y-105883022D01*
X107092524Y-105883159D01*
X107064998Y-105913713D01*
X107062250Y-105906161D01*
X107062250Y-105896647D01*
X107054647Y-105885268D01*
X107053830Y-105883022D01*
X107052803Y-105882508D01*
X107051412Y-105880426D01*
X107017332Y-105849724D01*
X107015733Y-105844927D01*
X107000322Y-105832966D01*
X106997103Y-105831501D01*
X106997095Y-105831493D01*
X106997086Y-105831493D01*
X106927176Y-105799668D01*
X106920905Y-105793397D01*
X106907575Y-105790745D01*
X106905316Y-105789717D01*
X106904227Y-105790079D01*
X106901771Y-105789591D01*
X106792880Y-105792697D01*
X106783939Y-105789717D01*
X106770751Y-105793328D01*
X106768351Y-105793397D01*
X106767539Y-105794208D01*
X106765123Y-105794870D01*
X106698105Y-105831493D01*
X106692160Y-105831493D01*
X106675939Y-105842332D01*
X106673677Y-105844841D01*
X106673522Y-105844927D01*
X106673475Y-105845066D01*
X106645237Y-105876410D01*
X106640440Y-105878010D01*
X106628479Y-105893421D01*
X106627014Y-105896639D01*
X106627006Y-105896648D01*
X106627006Y-105896656D01*
X106595181Y-105966566D01*
X106588910Y-105972838D01*
X106586258Y-105986167D01*
X106585230Y-105988427D01*
X106585592Y-105989515D01*
X106585104Y-105991972D01*
X106496215Y-105991972D01*
X106496215Y-105700702D01*
X107573993Y-105700702D01*
X107573993Y-106435623D01*
G37*
D10*
X133983906Y-107329887D02*
X133936287Y-107187030D01*
X133936287Y-107187030D02*
X133888668Y-107139411D01*
X133888668Y-107139411D02*
X133793430Y-107091792D01*
X133793430Y-107091792D02*
X133650573Y-107091792D01*
X133650573Y-107091792D02*
X133555335Y-107139411D01*
X133555335Y-107139411D02*
X133507716Y-107187030D01*
X133507716Y-107187030D02*
X133460096Y-107282268D01*
X133460096Y-107282268D02*
X133460096Y-107663220D01*
X133460096Y-107663220D02*
X134460096Y-107663220D01*
X134460096Y-107663220D02*
X134460096Y-107329887D01*
X134460096Y-107329887D02*
X134412477Y-107234649D01*
X134412477Y-107234649D02*
X134364858Y-107187030D01*
X134364858Y-107187030D02*
X134269620Y-107139411D01*
X134269620Y-107139411D02*
X134174382Y-107139411D01*
X134174382Y-107139411D02*
X134079144Y-107187030D01*
X134079144Y-107187030D02*
X134031525Y-107234649D01*
X134031525Y-107234649D02*
X133983906Y-107329887D01*
X133983906Y-107329887D02*
X133983906Y-107663220D01*
X134126763Y-106234649D02*
X133460096Y-106234649D01*
X134126763Y-106663220D02*
X133602954Y-106663220D01*
X133602954Y-106663220D02*
X133507716Y-106615601D01*
X133507716Y-106615601D02*
X133460096Y-106520363D01*
X133460096Y-106520363D02*
X133460096Y-106377506D01*
X133460096Y-106377506D02*
X133507716Y-106282268D01*
X133507716Y-106282268D02*
X133555335Y-106234649D01*
X133460096Y-105758458D02*
X134126763Y-105758458D01*
X133936287Y-105758458D02*
X134031525Y-105710839D01*
X134031525Y-105710839D02*
X134079144Y-105663220D01*
X134079144Y-105663220D02*
X134126763Y-105567982D01*
X134126763Y-105567982D02*
X134126763Y-105472744D01*
X133460096Y-105139410D02*
X134126763Y-105139410D01*
X133936287Y-105139410D02*
X134031525Y-105091791D01*
X134031525Y-105091791D02*
X134079144Y-105044172D01*
X134079144Y-105044172D02*
X134126763Y-104948934D01*
X134126763Y-104948934D02*
X134126763Y-104853696D01*
X133460096Y-104377505D02*
X133507716Y-104472743D01*
X133507716Y-104472743D02*
X133555335Y-104520362D01*
X133555335Y-104520362D02*
X133650573Y-104567981D01*
X133650573Y-104567981D02*
X133936287Y-104567981D01*
X133936287Y-104567981D02*
X134031525Y-104520362D01*
X134031525Y-104520362D02*
X134079144Y-104472743D01*
X134079144Y-104472743D02*
X134126763Y-104377505D01*
X134126763Y-104377505D02*
X134126763Y-104234648D01*
X134126763Y-104234648D02*
X134079144Y-104139410D01*
X134079144Y-104139410D02*
X134031525Y-104091791D01*
X134031525Y-104091791D02*
X133936287Y-104044172D01*
X133936287Y-104044172D02*
X133650573Y-104044172D01*
X133650573Y-104044172D02*
X133555335Y-104091791D01*
X133555335Y-104091791D02*
X133507716Y-104139410D01*
X133507716Y-104139410D02*
X133460096Y-104234648D01*
X133460096Y-104234648D02*
X133460096Y-104377505D01*
X134126763Y-103710838D02*
X133460096Y-103520362D01*
X133460096Y-103520362D02*
X133936287Y-103329886D01*
X133936287Y-103329886D02*
X133460096Y-103139410D01*
X133460096Y-103139410D02*
X134126763Y-102948934D01*
X133460096Y-102567981D02*
X134126763Y-102567981D01*
X134460096Y-102567981D02*
X134412477Y-102615600D01*
X134412477Y-102615600D02*
X134364858Y-102567981D01*
X134364858Y-102567981D02*
X134412477Y-102520362D01*
X134412477Y-102520362D02*
X134460096Y-102567981D01*
X134460096Y-102567981D02*
X134364858Y-102567981D01*
X134126763Y-102091791D02*
X133460096Y-102091791D01*
X134031525Y-102091791D02*
X134079144Y-102044172D01*
X134079144Y-102044172D02*
X134126763Y-101948934D01*
X134126763Y-101948934D02*
X134126763Y-101806077D01*
X134126763Y-101806077D02*
X134079144Y-101710839D01*
X134079144Y-101710839D02*
X133983906Y-101663220D01*
X133983906Y-101663220D02*
X133460096Y-101663220D01*
X134126763Y-100758458D02*
X133317239Y-100758458D01*
X133317239Y-100758458D02*
X133222001Y-100806077D01*
X133222001Y-100806077D02*
X133174382Y-100853696D01*
X133174382Y-100853696D02*
X133126763Y-100948934D01*
X133126763Y-100948934D02*
X133126763Y-101091791D01*
X133126763Y-101091791D02*
X133174382Y-101187029D01*
X133507716Y-100758458D02*
X133460096Y-100853696D01*
X133460096Y-100853696D02*
X133460096Y-101044172D01*
X133460096Y-101044172D02*
X133507716Y-101139410D01*
X133507716Y-101139410D02*
X133555335Y-101187029D01*
X133555335Y-101187029D02*
X133650573Y-101234648D01*
X133650573Y-101234648D02*
X133936287Y-101234648D01*
X133936287Y-101234648D02*
X134031525Y-101187029D01*
X134031525Y-101187029D02*
X134079144Y-101139410D01*
X134079144Y-101139410D02*
X134126763Y-101044172D01*
X134126763Y-101044172D02*
X134126763Y-100853696D01*
X134126763Y-100853696D02*
X134079144Y-100758458D01*
X133460096Y-99520362D02*
X134460096Y-99520362D01*
X134079144Y-99520362D02*
X134126763Y-99425124D01*
X134126763Y-99425124D02*
X134126763Y-99234648D01*
X134126763Y-99234648D02*
X134079144Y-99139410D01*
X134079144Y-99139410D02*
X134031525Y-99091791D01*
X134031525Y-99091791D02*
X133936287Y-99044172D01*
X133936287Y-99044172D02*
X133650573Y-99044172D01*
X133650573Y-99044172D02*
X133555335Y-99091791D01*
X133555335Y-99091791D02*
X133507716Y-99139410D01*
X133507716Y-99139410D02*
X133460096Y-99234648D01*
X133460096Y-99234648D02*
X133460096Y-99425124D01*
X133460096Y-99425124D02*
X133507716Y-99520362D01*
X133460096Y-98472743D02*
X133507716Y-98567981D01*
X133507716Y-98567981D02*
X133555335Y-98615600D01*
X133555335Y-98615600D02*
X133650573Y-98663219D01*
X133650573Y-98663219D02*
X133936287Y-98663219D01*
X133936287Y-98663219D02*
X134031525Y-98615600D01*
X134031525Y-98615600D02*
X134079144Y-98567981D01*
X134079144Y-98567981D02*
X134126763Y-98472743D01*
X134126763Y-98472743D02*
X134126763Y-98329886D01*
X134126763Y-98329886D02*
X134079144Y-98234648D01*
X134079144Y-98234648D02*
X134031525Y-98187029D01*
X134031525Y-98187029D02*
X133936287Y-98139410D01*
X133936287Y-98139410D02*
X133650573Y-98139410D01*
X133650573Y-98139410D02*
X133555335Y-98187029D01*
X133555335Y-98187029D02*
X133507716Y-98234648D01*
X133507716Y-98234648D02*
X133460096Y-98329886D01*
X133460096Y-98329886D02*
X133460096Y-98472743D01*
X134126763Y-97282267D02*
X133460096Y-97282267D01*
X134126763Y-97710838D02*
X133602954Y-97710838D01*
X133602954Y-97710838D02*
X133507716Y-97663219D01*
X133507716Y-97663219D02*
X133460096Y-97567981D01*
X133460096Y-97567981D02*
X133460096Y-97425124D01*
X133460096Y-97425124D02*
X133507716Y-97329886D01*
X133507716Y-97329886D02*
X133555335Y-97282267D01*
X134126763Y-96806076D02*
X133460096Y-96806076D01*
X134031525Y-96806076D02*
X134079144Y-96758457D01*
X134079144Y-96758457D02*
X134126763Y-96663219D01*
X134126763Y-96663219D02*
X134126763Y-96520362D01*
X134126763Y-96520362D02*
X134079144Y-96425124D01*
X134079144Y-96425124D02*
X133983906Y-96377505D01*
X133983906Y-96377505D02*
X133460096Y-96377505D01*
X133460096Y-95472743D02*
X134460096Y-95472743D01*
X133507716Y-95472743D02*
X133460096Y-95567981D01*
X133460096Y-95567981D02*
X133460096Y-95758457D01*
X133460096Y-95758457D02*
X133507716Y-95853695D01*
X133507716Y-95853695D02*
X133555335Y-95901314D01*
X133555335Y-95901314D02*
X133650573Y-95948933D01*
X133650573Y-95948933D02*
X133936287Y-95948933D01*
X133936287Y-95948933D02*
X134031525Y-95901314D01*
X134031525Y-95901314D02*
X134079144Y-95853695D01*
X134079144Y-95853695D02*
X134126763Y-95758457D01*
X134126763Y-95758457D02*
X134126763Y-95567981D01*
X134126763Y-95567981D02*
X134079144Y-95472743D01*
X133507716Y-94615600D02*
X133460096Y-94710838D01*
X133460096Y-94710838D02*
X133460096Y-94901314D01*
X133460096Y-94901314D02*
X133507716Y-94996552D01*
X133507716Y-94996552D02*
X133602954Y-95044171D01*
X133602954Y-95044171D02*
X133983906Y-95044171D01*
X133983906Y-95044171D02*
X134079144Y-94996552D01*
X134079144Y-94996552D02*
X134126763Y-94901314D01*
X134126763Y-94901314D02*
X134126763Y-94710838D01*
X134126763Y-94710838D02*
X134079144Y-94615600D01*
X134079144Y-94615600D02*
X133983906Y-94567981D01*
X133983906Y-94567981D02*
X133888668Y-94567981D01*
X133888668Y-94567981D02*
X133793430Y-95044171D01*
X133460096Y-94139409D02*
X134126763Y-94139409D01*
X133936287Y-94139409D02*
X134031525Y-94091790D01*
X134031525Y-94091790D02*
X134079144Y-94044171D01*
X134079144Y-94044171D02*
X134126763Y-93948933D01*
X134126763Y-93948933D02*
X134126763Y-93853695D01*
X133507716Y-93567980D02*
X133460096Y-93472742D01*
X133460096Y-93472742D02*
X133460096Y-93282266D01*
X133460096Y-93282266D02*
X133507716Y-93187028D01*
X133507716Y-93187028D02*
X133602954Y-93139409D01*
X133602954Y-93139409D02*
X133650573Y-93139409D01*
X133650573Y-93139409D02*
X133745811Y-93187028D01*
X133745811Y-93187028D02*
X133793430Y-93282266D01*
X133793430Y-93282266D02*
X133793430Y-93425123D01*
X133793430Y-93425123D02*
X133841049Y-93520361D01*
X133841049Y-93520361D02*
X133936287Y-93567980D01*
X133936287Y-93567980D02*
X133983906Y-93567980D01*
X133983906Y-93567980D02*
X134079144Y-93520361D01*
X134079144Y-93520361D02*
X134126763Y-93425123D01*
X134126763Y-93425123D02*
X134126763Y-93282266D01*
X134126763Y-93282266D02*
X134079144Y-93187028D01*
X133555335Y-92710837D02*
X133507716Y-92663218D01*
X133507716Y-92663218D02*
X133460096Y-92710837D01*
X133460096Y-92710837D02*
X133507716Y-92758456D01*
X133507716Y-92758456D02*
X133555335Y-92710837D01*
X133555335Y-92710837D02*
X133460096Y-92710837D01*
X133841049Y-92710837D02*
X134412477Y-92758456D01*
X134412477Y-92758456D02*
X134460096Y-92710837D01*
X134460096Y-92710837D02*
X134412477Y-92663218D01*
X134412477Y-92663218D02*
X133841049Y-92710837D01*
X133841049Y-92710837D02*
X134460096Y-92710837D01*
X132850152Y-107806077D02*
X132850152Y-107234649D01*
X131850152Y-107520363D02*
X132850152Y-107520363D01*
X131850152Y-106901315D02*
X132850152Y-106901315D01*
X131850152Y-106472744D02*
X132373962Y-106472744D01*
X132373962Y-106472744D02*
X132469200Y-106520363D01*
X132469200Y-106520363D02*
X132516819Y-106615601D01*
X132516819Y-106615601D02*
X132516819Y-106758458D01*
X132516819Y-106758458D02*
X132469200Y-106853696D01*
X132469200Y-106853696D02*
X132421581Y-106901315D01*
X131897772Y-105615601D02*
X131850152Y-105710839D01*
X131850152Y-105710839D02*
X131850152Y-105901315D01*
X131850152Y-105901315D02*
X131897772Y-105996553D01*
X131897772Y-105996553D02*
X131993010Y-106044172D01*
X131993010Y-106044172D02*
X132373962Y-106044172D01*
X132373962Y-106044172D02*
X132469200Y-105996553D01*
X132469200Y-105996553D02*
X132516819Y-105901315D01*
X132516819Y-105901315D02*
X132516819Y-105710839D01*
X132516819Y-105710839D02*
X132469200Y-105615601D01*
X132469200Y-105615601D02*
X132373962Y-105567982D01*
X132373962Y-105567982D02*
X132278724Y-105567982D01*
X132278724Y-105567982D02*
X132183486Y-106044172D01*
X132516819Y-105234648D02*
X131850152Y-104996553D01*
X132516819Y-104758458D02*
X131850152Y-104996553D01*
X131850152Y-104996553D02*
X131612057Y-105091791D01*
X131612057Y-105091791D02*
X131564438Y-105139410D01*
X131564438Y-105139410D02*
X131516819Y-105234648D01*
X131850152Y-103615600D02*
X132516819Y-103615600D01*
X132421581Y-103615600D02*
X132469200Y-103567981D01*
X132469200Y-103567981D02*
X132516819Y-103472743D01*
X132516819Y-103472743D02*
X132516819Y-103329886D01*
X132516819Y-103329886D02*
X132469200Y-103234648D01*
X132469200Y-103234648D02*
X132373962Y-103187029D01*
X132373962Y-103187029D02*
X131850152Y-103187029D01*
X132373962Y-103187029D02*
X132469200Y-103139410D01*
X132469200Y-103139410D02*
X132516819Y-103044172D01*
X132516819Y-103044172D02*
X132516819Y-102901315D01*
X132516819Y-102901315D02*
X132469200Y-102806076D01*
X132469200Y-102806076D02*
X132373962Y-102758457D01*
X132373962Y-102758457D02*
X131850152Y-102758457D01*
X132516819Y-101853696D02*
X131850152Y-101853696D01*
X132516819Y-102282267D02*
X131993010Y-102282267D01*
X131993010Y-102282267D02*
X131897772Y-102234648D01*
X131897772Y-102234648D02*
X131850152Y-102139410D01*
X131850152Y-102139410D02*
X131850152Y-101996553D01*
X131850152Y-101996553D02*
X131897772Y-101901315D01*
X131897772Y-101901315D02*
X131945391Y-101853696D01*
X131897772Y-101425124D02*
X131850152Y-101329886D01*
X131850152Y-101329886D02*
X131850152Y-101139410D01*
X131850152Y-101139410D02*
X131897772Y-101044172D01*
X131897772Y-101044172D02*
X131993010Y-100996553D01*
X131993010Y-100996553D02*
X132040629Y-100996553D01*
X132040629Y-100996553D02*
X132135867Y-101044172D01*
X132135867Y-101044172D02*
X132183486Y-101139410D01*
X132183486Y-101139410D02*
X132183486Y-101282267D01*
X132183486Y-101282267D02*
X132231105Y-101377505D01*
X132231105Y-101377505D02*
X132326343Y-101425124D01*
X132326343Y-101425124D02*
X132373962Y-101425124D01*
X132373962Y-101425124D02*
X132469200Y-101377505D01*
X132469200Y-101377505D02*
X132516819Y-101282267D01*
X132516819Y-101282267D02*
X132516819Y-101139410D01*
X132516819Y-101139410D02*
X132469200Y-101044172D01*
X132516819Y-100710838D02*
X132516819Y-100329886D01*
X132850152Y-100567981D02*
X131993010Y-100567981D01*
X131993010Y-100567981D02*
X131897772Y-100520362D01*
X131897772Y-100520362D02*
X131850152Y-100425124D01*
X131850152Y-100425124D02*
X131850152Y-100329886D01*
X131850152Y-99234647D02*
X132850152Y-99234647D01*
X132469200Y-99234647D02*
X132516819Y-99139409D01*
X132516819Y-99139409D02*
X132516819Y-98948933D01*
X132516819Y-98948933D02*
X132469200Y-98853695D01*
X132469200Y-98853695D02*
X132421581Y-98806076D01*
X132421581Y-98806076D02*
X132326343Y-98758457D01*
X132326343Y-98758457D02*
X132040629Y-98758457D01*
X132040629Y-98758457D02*
X131945391Y-98806076D01*
X131945391Y-98806076D02*
X131897772Y-98853695D01*
X131897772Y-98853695D02*
X131850152Y-98948933D01*
X131850152Y-98948933D02*
X131850152Y-99139409D01*
X131850152Y-99139409D02*
X131897772Y-99234647D01*
X131897772Y-97948933D02*
X131850152Y-98044171D01*
X131850152Y-98044171D02*
X131850152Y-98234647D01*
X131850152Y-98234647D02*
X131897772Y-98329885D01*
X131897772Y-98329885D02*
X131993010Y-98377504D01*
X131993010Y-98377504D02*
X132373962Y-98377504D01*
X132373962Y-98377504D02*
X132469200Y-98329885D01*
X132469200Y-98329885D02*
X132516819Y-98234647D01*
X132516819Y-98234647D02*
X132516819Y-98044171D01*
X132516819Y-98044171D02*
X132469200Y-97948933D01*
X132469200Y-97948933D02*
X132373962Y-97901314D01*
X132373962Y-97901314D02*
X132278724Y-97901314D01*
X132278724Y-97901314D02*
X132183486Y-98377504D01*
X131850152Y-96710837D02*
X132850152Y-96710837D01*
X132469200Y-96710837D02*
X132516819Y-96615599D01*
X132516819Y-96615599D02*
X132516819Y-96425123D01*
X132516819Y-96425123D02*
X132469200Y-96329885D01*
X132469200Y-96329885D02*
X132421581Y-96282266D01*
X132421581Y-96282266D02*
X132326343Y-96234647D01*
X132326343Y-96234647D02*
X132040629Y-96234647D01*
X132040629Y-96234647D02*
X131945391Y-96282266D01*
X131945391Y-96282266D02*
X131897772Y-96329885D01*
X131897772Y-96329885D02*
X131850152Y-96425123D01*
X131850152Y-96425123D02*
X131850152Y-96615599D01*
X131850152Y-96615599D02*
X131897772Y-96710837D01*
X131850152Y-95806075D02*
X132516819Y-95806075D01*
X132326343Y-95806075D02*
X132421581Y-95758456D01*
X132421581Y-95758456D02*
X132469200Y-95710837D01*
X132469200Y-95710837D02*
X132516819Y-95615599D01*
X132516819Y-95615599D02*
X132516819Y-95520361D01*
X131897772Y-94806075D02*
X131850152Y-94901313D01*
X131850152Y-94901313D02*
X131850152Y-95091789D01*
X131850152Y-95091789D02*
X131897772Y-95187027D01*
X131897772Y-95187027D02*
X131993010Y-95234646D01*
X131993010Y-95234646D02*
X132373962Y-95234646D01*
X132373962Y-95234646D02*
X132469200Y-95187027D01*
X132469200Y-95187027D02*
X132516819Y-95091789D01*
X132516819Y-95091789D02*
X132516819Y-94901313D01*
X132516819Y-94901313D02*
X132469200Y-94806075D01*
X132469200Y-94806075D02*
X132373962Y-94758456D01*
X132373962Y-94758456D02*
X132278724Y-94758456D01*
X132278724Y-94758456D02*
X132183486Y-95234646D01*
X131897772Y-93948932D02*
X131850152Y-94044170D01*
X131850152Y-94044170D02*
X131850152Y-94234646D01*
X131850152Y-94234646D02*
X131897772Y-94329884D01*
X131897772Y-94329884D02*
X131993010Y-94377503D01*
X131993010Y-94377503D02*
X132373962Y-94377503D01*
X132373962Y-94377503D02*
X132469200Y-94329884D01*
X132469200Y-94329884D02*
X132516819Y-94234646D01*
X132516819Y-94234646D02*
X132516819Y-94044170D01*
X132516819Y-94044170D02*
X132469200Y-93948932D01*
X132469200Y-93948932D02*
X132373962Y-93901313D01*
X132373962Y-93901313D02*
X132278724Y-93901313D01*
X132278724Y-93901313D02*
X132183486Y-94377503D01*
X131850152Y-93044170D02*
X132850152Y-93044170D01*
X131897772Y-93044170D02*
X131850152Y-93139408D01*
X131850152Y-93139408D02*
X131850152Y-93329884D01*
X131850152Y-93329884D02*
X131897772Y-93425122D01*
X131897772Y-93425122D02*
X131945391Y-93472741D01*
X131945391Y-93472741D02*
X132040629Y-93520360D01*
X132040629Y-93520360D02*
X132326343Y-93520360D01*
X132326343Y-93520360D02*
X132421581Y-93472741D01*
X132421581Y-93472741D02*
X132469200Y-93425122D01*
X132469200Y-93425122D02*
X132516819Y-93329884D01*
X132516819Y-93329884D02*
X132516819Y-93139408D01*
X132516819Y-93139408D02*
X132469200Y-93044170D01*
X131850152Y-92567979D02*
X132516819Y-92567979D01*
X132850152Y-92567979D02*
X132802533Y-92615598D01*
X132802533Y-92615598D02*
X132754914Y-92567979D01*
X132754914Y-92567979D02*
X132802533Y-92520360D01*
X132802533Y-92520360D02*
X132850152Y-92567979D01*
X132850152Y-92567979D02*
X132754914Y-92567979D01*
X132516819Y-92091789D02*
X131850152Y-92091789D01*
X132421581Y-92091789D02*
X132469200Y-92044170D01*
X132469200Y-92044170D02*
X132516819Y-91948932D01*
X132516819Y-91948932D02*
X132516819Y-91806075D01*
X132516819Y-91806075D02*
X132469200Y-91710837D01*
X132469200Y-91710837D02*
X132373962Y-91663218D01*
X132373962Y-91663218D02*
X131850152Y-91663218D01*
X132516819Y-90758456D02*
X131707295Y-90758456D01*
X131707295Y-90758456D02*
X131612057Y-90806075D01*
X131612057Y-90806075D02*
X131564438Y-90853694D01*
X131564438Y-90853694D02*
X131516819Y-90948932D01*
X131516819Y-90948932D02*
X131516819Y-91091789D01*
X131516819Y-91091789D02*
X131564438Y-91187027D01*
X131897772Y-90758456D02*
X131850152Y-90853694D01*
X131850152Y-90853694D02*
X131850152Y-91044170D01*
X131850152Y-91044170D02*
X131897772Y-91139408D01*
X131897772Y-91139408D02*
X131945391Y-91187027D01*
X131945391Y-91187027D02*
X132040629Y-91234646D01*
X132040629Y-91234646D02*
X132326343Y-91234646D01*
X132326343Y-91234646D02*
X132421581Y-91187027D01*
X132421581Y-91187027D02*
X132469200Y-91139408D01*
X132469200Y-91139408D02*
X132516819Y-91044170D01*
X132516819Y-91044170D02*
X132516819Y-90853694D01*
X132516819Y-90853694D02*
X132469200Y-90758456D01*
X131850152Y-89377503D02*
X131897772Y-89472741D01*
X131897772Y-89472741D02*
X131993010Y-89520360D01*
X131993010Y-89520360D02*
X132850152Y-89520360D01*
X131850152Y-88996550D02*
X132516819Y-88996550D01*
X132850152Y-88996550D02*
X132802533Y-89044169D01*
X132802533Y-89044169D02*
X132754914Y-88996550D01*
X132754914Y-88996550D02*
X132802533Y-88948931D01*
X132802533Y-88948931D02*
X132850152Y-88996550D01*
X132850152Y-88996550D02*
X132754914Y-88996550D01*
X131850152Y-88520360D02*
X132850152Y-88520360D01*
X132231105Y-88425122D02*
X131850152Y-88139408D01*
X132516819Y-88139408D02*
X132135867Y-88520360D01*
X131897772Y-87329884D02*
X131850152Y-87425122D01*
X131850152Y-87425122D02*
X131850152Y-87615598D01*
X131850152Y-87615598D02*
X131897772Y-87710836D01*
X131897772Y-87710836D02*
X131993010Y-87758455D01*
X131993010Y-87758455D02*
X132373962Y-87758455D01*
X132373962Y-87758455D02*
X132469200Y-87710836D01*
X132469200Y-87710836D02*
X132516819Y-87615598D01*
X132516819Y-87615598D02*
X132516819Y-87425122D01*
X132516819Y-87425122D02*
X132469200Y-87329884D01*
X132469200Y-87329884D02*
X132373962Y-87282265D01*
X132373962Y-87282265D02*
X132278724Y-87282265D01*
X132278724Y-87282265D02*
X132183486Y-87758455D01*
X131945391Y-86853693D02*
X131897772Y-86806074D01*
X131897772Y-86806074D02*
X131850152Y-86853693D01*
X131850152Y-86853693D02*
X131897772Y-86901312D01*
X131897772Y-86901312D02*
X131945391Y-86853693D01*
X131945391Y-86853693D02*
X131850152Y-86853693D01*
X131945391Y-86377503D02*
X131897772Y-86329884D01*
X131897772Y-86329884D02*
X131850152Y-86377503D01*
X131850152Y-86377503D02*
X131897772Y-86425122D01*
X131897772Y-86425122D02*
X131945391Y-86377503D01*
X131945391Y-86377503D02*
X131850152Y-86377503D01*
X131945391Y-85901313D02*
X131897772Y-85853694D01*
X131897772Y-85853694D02*
X131850152Y-85901313D01*
X131850152Y-85901313D02*
X131897772Y-85948932D01*
X131897772Y-85948932D02*
X131945391Y-85901313D01*
X131945391Y-85901313D02*
X131850152Y-85901313D01*
X130906875Y-107758458D02*
X130240208Y-107567982D01*
X130240208Y-107567982D02*
X130716399Y-107377506D01*
X130716399Y-107377506D02*
X130240208Y-107187030D01*
X130240208Y-107187030D02*
X130906875Y-106996554D01*
X130287828Y-106234649D02*
X130240208Y-106329887D01*
X130240208Y-106329887D02*
X130240208Y-106520363D01*
X130240208Y-106520363D02*
X130287828Y-106615601D01*
X130287828Y-106615601D02*
X130383066Y-106663220D01*
X130383066Y-106663220D02*
X130764018Y-106663220D01*
X130764018Y-106663220D02*
X130859256Y-106615601D01*
X130859256Y-106615601D02*
X130906875Y-106520363D01*
X130906875Y-106520363D02*
X130906875Y-106329887D01*
X130906875Y-106329887D02*
X130859256Y-106234649D01*
X130859256Y-106234649D02*
X130764018Y-106187030D01*
X130764018Y-106187030D02*
X130668780Y-106187030D01*
X130668780Y-106187030D02*
X130573542Y-106663220D01*
X130240208Y-105615601D02*
X130287828Y-105710839D01*
X130287828Y-105710839D02*
X130383066Y-105758458D01*
X130383066Y-105758458D02*
X131240208Y-105758458D01*
X130240208Y-105091791D02*
X130287828Y-105187029D01*
X130287828Y-105187029D02*
X130383066Y-105234648D01*
X130383066Y-105234648D02*
X131240208Y-105234648D01*
X130335447Y-104710838D02*
X130287828Y-104663219D01*
X130287828Y-104663219D02*
X130240208Y-104710838D01*
X130240208Y-104710838D02*
X130287828Y-104758457D01*
X130287828Y-104758457D02*
X130335447Y-104710838D01*
X130335447Y-104710838D02*
X130240208Y-104710838D01*
X130335447Y-104234648D02*
X130287828Y-104187029D01*
X130287828Y-104187029D02*
X130240208Y-104234648D01*
X130240208Y-104234648D02*
X130287828Y-104282267D01*
X130287828Y-104282267D02*
X130335447Y-104234648D01*
X130335447Y-104234648D02*
X130240208Y-104234648D01*
X130335447Y-103758458D02*
X130287828Y-103710839D01*
X130287828Y-103710839D02*
X130240208Y-103758458D01*
X130240208Y-103758458D02*
X130287828Y-103806077D01*
X130287828Y-103806077D02*
X130335447Y-103758458D01*
X130335447Y-103758458D02*
X130240208Y-103758458D01*
X128630264Y-107663220D02*
X129296931Y-107663220D01*
X129106455Y-107663220D02*
X129201693Y-107615601D01*
X129201693Y-107615601D02*
X129249312Y-107567982D01*
X129249312Y-107567982D02*
X129296931Y-107472744D01*
X129296931Y-107472744D02*
X129296931Y-107377506D01*
X128630264Y-106615601D02*
X129154074Y-106615601D01*
X129154074Y-106615601D02*
X129249312Y-106663220D01*
X129249312Y-106663220D02*
X129296931Y-106758458D01*
X129296931Y-106758458D02*
X129296931Y-106948934D01*
X129296931Y-106948934D02*
X129249312Y-107044172D01*
X128677884Y-106615601D02*
X128630264Y-106710839D01*
X128630264Y-106710839D02*
X128630264Y-106948934D01*
X128630264Y-106948934D02*
X128677884Y-107044172D01*
X128677884Y-107044172D02*
X128773122Y-107091791D01*
X128773122Y-107091791D02*
X128868360Y-107091791D01*
X128868360Y-107091791D02*
X128963598Y-107044172D01*
X128963598Y-107044172D02*
X129011217Y-106948934D01*
X129011217Y-106948934D02*
X129011217Y-106710839D01*
X129011217Y-106710839D02*
X129058836Y-106615601D01*
X128630264Y-106139410D02*
X129630264Y-106139410D01*
X129249312Y-106139410D02*
X129296931Y-106044172D01*
X129296931Y-106044172D02*
X129296931Y-105853696D01*
X129296931Y-105853696D02*
X129249312Y-105758458D01*
X129249312Y-105758458D02*
X129201693Y-105710839D01*
X129201693Y-105710839D02*
X129106455Y-105663220D01*
X129106455Y-105663220D02*
X128820741Y-105663220D01*
X128820741Y-105663220D02*
X128725503Y-105710839D01*
X128725503Y-105710839D02*
X128677884Y-105758458D01*
X128677884Y-105758458D02*
X128630264Y-105853696D01*
X128630264Y-105853696D02*
X128630264Y-106044172D01*
X128630264Y-106044172D02*
X128677884Y-106139410D01*
X128630264Y-105234648D02*
X129630264Y-105234648D01*
X129249312Y-105234648D02*
X129296931Y-105139410D01*
X129296931Y-105139410D02*
X129296931Y-104948934D01*
X129296931Y-104948934D02*
X129249312Y-104853696D01*
X129249312Y-104853696D02*
X129201693Y-104806077D01*
X129201693Y-104806077D02*
X129106455Y-104758458D01*
X129106455Y-104758458D02*
X128820741Y-104758458D01*
X128820741Y-104758458D02*
X128725503Y-104806077D01*
X128725503Y-104806077D02*
X128677884Y-104853696D01*
X128677884Y-104853696D02*
X128630264Y-104948934D01*
X128630264Y-104948934D02*
X128630264Y-105139410D01*
X128630264Y-105139410D02*
X128677884Y-105234648D01*
X128630264Y-104329886D02*
X129296931Y-104329886D01*
X129630264Y-104329886D02*
X129582645Y-104377505D01*
X129582645Y-104377505D02*
X129535026Y-104329886D01*
X129535026Y-104329886D02*
X129582645Y-104282267D01*
X129582645Y-104282267D02*
X129630264Y-104329886D01*
X129630264Y-104329886D02*
X129535026Y-104329886D01*
X129296931Y-103996553D02*
X129296931Y-103615601D01*
X129630264Y-103853696D02*
X128773122Y-103853696D01*
X128773122Y-103853696D02*
X128677884Y-103806077D01*
X128677884Y-103806077D02*
X128630264Y-103710839D01*
X128630264Y-103710839D02*
X128630264Y-103615601D01*
X128677884Y-103329886D02*
X128630264Y-103234648D01*
X128630264Y-103234648D02*
X128630264Y-103044172D01*
X128630264Y-103044172D02*
X128677884Y-102948934D01*
X128677884Y-102948934D02*
X128773122Y-102901315D01*
X128773122Y-102901315D02*
X128820741Y-102901315D01*
X128820741Y-102901315D02*
X128915979Y-102948934D01*
X128915979Y-102948934D02*
X128963598Y-103044172D01*
X128963598Y-103044172D02*
X128963598Y-103187029D01*
X128963598Y-103187029D02*
X129011217Y-103282267D01*
X129011217Y-103282267D02*
X129106455Y-103329886D01*
X129106455Y-103329886D02*
X129154074Y-103329886D01*
X129154074Y-103329886D02*
X129249312Y-103282267D01*
X129249312Y-103282267D02*
X129296931Y-103187029D01*
X129296931Y-103187029D02*
X129296931Y-103044172D01*
X129296931Y-103044172D02*
X129249312Y-102948934D01*
X128725503Y-102472743D02*
X128677884Y-102425124D01*
X128677884Y-102425124D02*
X128630264Y-102472743D01*
X128630264Y-102472743D02*
X128677884Y-102520362D01*
X128677884Y-102520362D02*
X128725503Y-102472743D01*
X128725503Y-102472743D02*
X128630264Y-102472743D01*
X129011217Y-102472743D02*
X129582645Y-102520362D01*
X129582645Y-102520362D02*
X129630264Y-102472743D01*
X129630264Y-102472743D02*
X129582645Y-102425124D01*
X129582645Y-102425124D02*
X129011217Y-102472743D01*
X129011217Y-102472743D02*
X129630264Y-102472743D01*
D11*
G36*
X106282868Y-110897355D02*
G01*
X105913041Y-111022447D01*
X105910688Y-110775118D01*
X106282868Y-110897355D01*
G37*
G36*
X106573867Y-111304075D02*
G01*
X105496341Y-111304075D01*
X105496341Y-111161768D01*
X105585230Y-111161768D01*
X105597331Y-111198072D01*
X105631560Y-111215186D01*
X105650915Y-111212746D01*
X105879833Y-111135316D01*
X105882810Y-111135316D01*
X105884331Y-111133794D01*
X106435319Y-110947425D01*
X106438648Y-110948519D01*
X106452366Y-110941659D01*
X106467864Y-110936418D01*
X106469534Y-110933075D01*
X106472877Y-110931405D01*
X106477890Y-110916365D01*
X106484978Y-110902189D01*
X106483796Y-110898645D01*
X106484978Y-110895101D01*
X106477890Y-110880924D01*
X106472877Y-110865885D01*
X106469534Y-110864214D01*
X106467864Y-110860872D01*
X106450916Y-110851211D01*
X105886755Y-110665920D01*
X105882810Y-110661975D01*
X105874743Y-110661975D01*
X105631560Y-110582105D01*
X105597331Y-110599219D01*
X105585230Y-110635523D01*
X105602344Y-110669752D01*
X105619293Y-110679413D01*
X105814010Y-110743365D01*
X105816974Y-111054941D01*
X105602344Y-111127539D01*
X105585230Y-111161768D01*
X105496341Y-111161768D01*
X105496341Y-110493216D01*
X106573867Y-110493216D01*
X106573867Y-111304075D01*
G37*
G36*
X109573993Y-106508008D02*
G01*
X108496215Y-106508008D01*
X108496215Y-106030068D01*
X108585104Y-106030068D01*
X108588518Y-106252316D01*
X108585230Y-106262184D01*
X108588874Y-106275493D01*
X108588910Y-106277773D01*
X108589721Y-106278584D01*
X108590383Y-106281000D01*
X108627006Y-106348018D01*
X108627006Y-106353964D01*
X108637845Y-106370185D01*
X108640354Y-106372446D01*
X108640440Y-106372602D01*
X108640579Y-106372648D01*
X108692160Y-106419119D01*
X108730429Y-106419119D01*
X108757489Y-106392059D01*
X108757489Y-106353790D01*
X108746650Y-106337569D01*
X108717079Y-106310929D01*
X108685005Y-106252234D01*
X108681866Y-106047943D01*
X108708632Y-105989145D01*
X108735195Y-105959661D01*
X108793922Y-105927570D01*
X108960304Y-105924549D01*
X109018883Y-105951214D01*
X109048368Y-105977778D01*
X109080529Y-106036633D01*
X109083735Y-106149012D01*
X109082978Y-106160372D01*
X109084095Y-106161649D01*
X109084148Y-106163487D01*
X109096588Y-106175927D01*
X109108177Y-106189172D01*
X109109951Y-106189290D01*
X109111208Y-106190547D01*
X109128807Y-106190547D01*
X109146361Y-106191717D01*
X109148393Y-106190547D01*
X109149476Y-106190547D01*
X109150946Y-106189076D01*
X109163267Y-106181982D01*
X109385887Y-105983633D01*
X109388910Y-106392059D01*
X109415970Y-106419119D01*
X109454238Y-106419119D01*
X109481298Y-106392059D01*
X109485104Y-106372925D01*
X109481435Y-105877164D01*
X109482469Y-105861668D01*
X109481311Y-105860344D01*
X109481298Y-105858553D01*
X109468861Y-105846116D01*
X109457269Y-105832868D01*
X109455494Y-105832749D01*
X109454238Y-105831493D01*
X109436647Y-105831493D01*
X109419085Y-105830322D01*
X109417052Y-105831493D01*
X109415970Y-105831493D01*
X109414501Y-105832961D01*
X109402179Y-105840058D01*
X109177375Y-106040350D01*
X109177235Y-106035464D01*
X109180216Y-106026524D01*
X109176604Y-106013334D01*
X109176536Y-106010934D01*
X109175725Y-106010123D01*
X109175064Y-106007708D01*
X109138441Y-105940688D01*
X109138441Y-105934742D01*
X109127602Y-105918521D01*
X109125091Y-105916258D01*
X109125007Y-105916105D01*
X109124869Y-105916059D01*
X109093523Y-105887819D01*
X109091924Y-105883022D01*
X109076513Y-105871061D01*
X109073295Y-105869596D01*
X109073286Y-105869588D01*
X109073277Y-105869588D01*
X109003366Y-105837764D01*
X108997095Y-105831493D01*
X108983763Y-105828841D01*
X108981505Y-105827813D01*
X108980417Y-105828175D01*
X108977961Y-105827687D01*
X108793604Y-105831034D01*
X108783940Y-105827813D01*
X108770655Y-105831451D01*
X108768351Y-105831493D01*
X108767539Y-105832304D01*
X108765124Y-105832966D01*
X108698106Y-105869588D01*
X108692160Y-105869588D01*
X108675939Y-105880427D01*
X108673677Y-105882936D01*
X108673522Y-105883022D01*
X108673475Y-105883161D01*
X108645237Y-105914505D01*
X108640440Y-105916105D01*
X108628479Y-105931516D01*
X108627014Y-105934734D01*
X108627006Y-105934743D01*
X108627006Y-105934751D01*
X108595181Y-106004662D01*
X108588910Y-106010934D01*
X108586258Y-106024263D01*
X108585230Y-106026523D01*
X108585592Y-106027611D01*
X108585104Y-106030068D01*
X108496215Y-106030068D01*
X108496215Y-105553963D01*
X108588910Y-105553963D01*
X108599749Y-105570184D01*
X108654066Y-105619119D01*
X108692335Y-105619119D01*
X108708556Y-105608280D01*
X108757489Y-105553963D01*
X108757489Y-105537570D01*
X108757489Y-105515695D01*
X108757489Y-105515694D01*
X108746650Y-105499473D01*
X108692334Y-105450540D01*
X108654066Y-105450540D01*
X108637845Y-105461378D01*
X108588910Y-105515694D01*
X108588910Y-105515695D01*
X108588910Y-105553963D01*
X108496215Y-105553963D01*
X108496215Y-104887211D01*
X108585104Y-104887211D01*
X108588518Y-105109459D01*
X108585230Y-105119327D01*
X108588874Y-105132636D01*
X108588910Y-105134916D01*
X108589721Y-105135727D01*
X108590383Y-105138143D01*
X108627006Y-105205161D01*
X108627006Y-105211107D01*
X108637845Y-105227328D01*
X108640354Y-105229589D01*
X108640440Y-105229745D01*
X108640579Y-105229791D01*
X108692160Y-105276262D01*
X108730429Y-105276262D01*
X108757489Y-105249202D01*
X108757489Y-105210933D01*
X108746650Y-105194712D01*
X108717079Y-105168072D01*
X108685005Y-105109377D01*
X108681866Y-104905086D01*
X108708632Y-104846288D01*
X108735195Y-104816804D01*
X108793922Y-104784713D01*
X108960304Y-104781692D01*
X109018883Y-104808357D01*
X109048368Y-104834921D01*
X109080529Y-104893776D01*
X109083735Y-105006155D01*
X109082978Y-105017515D01*
X109084095Y-105018792D01*
X109084148Y-105020630D01*
X109096588Y-105033070D01*
X109108177Y-105046315D01*
X109109951Y-105046433D01*
X109111208Y-105047690D01*
X109128807Y-105047690D01*
X109146361Y-105048860D01*
X109148393Y-105047690D01*
X109149476Y-105047690D01*
X109150946Y-105046219D01*
X109163267Y-105039125D01*
X109385887Y-104840776D01*
X109388910Y-105249202D01*
X109415970Y-105276262D01*
X109454238Y-105276262D01*
X109481298Y-105249202D01*
X109485104Y-105230068D01*
X109481435Y-104734307D01*
X109482469Y-104718811D01*
X109481311Y-104717487D01*
X109481298Y-104715696D01*
X109468861Y-104703259D01*
X109457269Y-104690011D01*
X109455494Y-104689892D01*
X109454238Y-104688636D01*
X109436647Y-104688636D01*
X109419085Y-104687465D01*
X109417052Y-104688636D01*
X109415970Y-104688636D01*
X109414501Y-104690104D01*
X109402179Y-104697201D01*
X109177375Y-104897493D01*
X109177235Y-104892607D01*
X109180216Y-104883667D01*
X109176604Y-104870477D01*
X109176536Y-104868077D01*
X109175725Y-104867266D01*
X109175064Y-104864851D01*
X109138441Y-104797831D01*
X109138441Y-104791885D01*
X109127602Y-104775664D01*
X109125091Y-104773401D01*
X109125007Y-104773248D01*
X109124869Y-104773202D01*
X109093523Y-104744962D01*
X109091924Y-104740165D01*
X109076513Y-104728204D01*
X109073295Y-104726739D01*
X109073286Y-104726731D01*
X109073277Y-104726731D01*
X109003366Y-104694907D01*
X108997095Y-104688636D01*
X108983763Y-104685984D01*
X108981505Y-104684956D01*
X108980417Y-104685318D01*
X108977961Y-104684830D01*
X108793604Y-104688177D01*
X108783940Y-104684956D01*
X108770655Y-104688594D01*
X108768351Y-104688636D01*
X108767539Y-104689447D01*
X108765124Y-104690109D01*
X108698106Y-104726731D01*
X108692160Y-104726731D01*
X108675939Y-104737570D01*
X108673677Y-104740079D01*
X108673522Y-104740165D01*
X108673475Y-104740304D01*
X108645237Y-104771648D01*
X108640440Y-104773248D01*
X108628479Y-104788659D01*
X108627014Y-104791877D01*
X108627006Y-104791886D01*
X108627006Y-104791894D01*
X108595181Y-104861805D01*
X108588910Y-104868077D01*
X108586258Y-104881406D01*
X108585230Y-104883666D01*
X108585592Y-104884754D01*
X108585104Y-104887211D01*
X108496215Y-104887211D01*
X108496215Y-104243135D01*
X108585230Y-104243135D01*
X108592317Y-104257311D01*
X108597331Y-104272351D01*
X108600673Y-104274021D01*
X108602344Y-104277364D01*
X108619293Y-104287025D01*
X109438648Y-104556132D01*
X109472877Y-104539018D01*
X109484978Y-104502714D01*
X109467864Y-104468485D01*
X109450915Y-104458824D01*
X108787338Y-104240880D01*
X109467864Y-104010698D01*
X109484978Y-103976469D01*
X109472877Y-103940165D01*
X109438648Y-103923051D01*
X109419293Y-103925491D01*
X108634888Y-104190810D01*
X108631560Y-104189717D01*
X108617841Y-104196576D01*
X108602344Y-104201818D01*
X108600673Y-104205160D01*
X108597331Y-104206831D01*
X108592317Y-104221870D01*
X108585230Y-104236047D01*
X108586411Y-104239591D01*
X108585230Y-104243135D01*
X108496215Y-104243135D01*
X108496215Y-103834162D01*
X109573993Y-103834162D01*
X109573993Y-106508008D01*
G37*
D10*
X127511133Y-99663220D02*
X127511133Y-98901316D01*
X128130180Y-97758458D02*
X127130180Y-97520363D01*
X127130180Y-97520363D02*
X127844466Y-97329887D01*
X127844466Y-97329887D02*
X127130180Y-97139411D01*
X127130180Y-97139411D02*
X128130180Y-96901316D01*
X127130180Y-96091792D02*
X127653990Y-96091792D01*
X127653990Y-96091792D02*
X127749228Y-96139411D01*
X127749228Y-96139411D02*
X127796847Y-96234649D01*
X127796847Y-96234649D02*
X127796847Y-96425125D01*
X127796847Y-96425125D02*
X127749228Y-96520363D01*
X127177800Y-96091792D02*
X127130180Y-96187030D01*
X127130180Y-96187030D02*
X127130180Y-96425125D01*
X127130180Y-96425125D02*
X127177800Y-96520363D01*
X127177800Y-96520363D02*
X127273038Y-96567982D01*
X127273038Y-96567982D02*
X127368276Y-96567982D01*
X127368276Y-96567982D02*
X127463514Y-96520363D01*
X127463514Y-96520363D02*
X127511133Y-96425125D01*
X127511133Y-96425125D02*
X127511133Y-96187030D01*
X127511133Y-96187030D02*
X127558752Y-96091792D01*
X127130180Y-95472744D02*
X127177800Y-95567982D01*
X127177800Y-95567982D02*
X127273038Y-95615601D01*
X127273038Y-95615601D02*
X128130180Y-95615601D01*
X127130180Y-94948934D02*
X127177800Y-95044172D01*
X127177800Y-95044172D02*
X127273038Y-95091791D01*
X127273038Y-95091791D02*
X128130180Y-95091791D01*
X127130180Y-94139410D02*
X127653990Y-94139410D01*
X127653990Y-94139410D02*
X127749228Y-94187029D01*
X127749228Y-94187029D02*
X127796847Y-94282267D01*
X127796847Y-94282267D02*
X127796847Y-94472743D01*
X127796847Y-94472743D02*
X127749228Y-94567981D01*
X127177800Y-94139410D02*
X127130180Y-94234648D01*
X127130180Y-94234648D02*
X127130180Y-94472743D01*
X127130180Y-94472743D02*
X127177800Y-94567981D01*
X127177800Y-94567981D02*
X127273038Y-94615600D01*
X127273038Y-94615600D02*
X127368276Y-94615600D01*
X127368276Y-94615600D02*
X127463514Y-94567981D01*
X127463514Y-94567981D02*
X127511133Y-94472743D01*
X127511133Y-94472743D02*
X127511133Y-94234648D01*
X127511133Y-94234648D02*
X127558752Y-94139410D01*
X127177800Y-93234648D02*
X127130180Y-93329886D01*
X127130180Y-93329886D02*
X127130180Y-93520362D01*
X127130180Y-93520362D02*
X127177800Y-93615600D01*
X127177800Y-93615600D02*
X127225419Y-93663219D01*
X127225419Y-93663219D02*
X127320657Y-93710838D01*
X127320657Y-93710838D02*
X127606371Y-93710838D01*
X127606371Y-93710838D02*
X127701609Y-93663219D01*
X127701609Y-93663219D02*
X127749228Y-93615600D01*
X127749228Y-93615600D02*
X127796847Y-93520362D01*
X127796847Y-93520362D02*
X127796847Y-93329886D01*
X127796847Y-93329886D02*
X127749228Y-93234648D01*
X127177800Y-92425124D02*
X127130180Y-92520362D01*
X127130180Y-92520362D02*
X127130180Y-92710838D01*
X127130180Y-92710838D02*
X127177800Y-92806076D01*
X127177800Y-92806076D02*
X127273038Y-92853695D01*
X127273038Y-92853695D02*
X127653990Y-92853695D01*
X127653990Y-92853695D02*
X127749228Y-92806076D01*
X127749228Y-92806076D02*
X127796847Y-92710838D01*
X127796847Y-92710838D02*
X127796847Y-92520362D01*
X127796847Y-92520362D02*
X127749228Y-92425124D01*
X127749228Y-92425124D02*
X127653990Y-92377505D01*
X127653990Y-92377505D02*
X127558752Y-92377505D01*
X127558752Y-92377505D02*
X127463514Y-92853695D01*
X127177800Y-91901314D02*
X127130180Y-91901314D01*
X127130180Y-91901314D02*
X127034942Y-91948933D01*
X127034942Y-91948933D02*
X126987323Y-91996552D01*
X128034942Y-90758457D02*
X128082561Y-90710838D01*
X128082561Y-90710838D02*
X128130180Y-90615600D01*
X128130180Y-90615600D02*
X128130180Y-90377505D01*
X128130180Y-90377505D02*
X128082561Y-90282267D01*
X128082561Y-90282267D02*
X128034942Y-90234648D01*
X128034942Y-90234648D02*
X127939704Y-90187029D01*
X127939704Y-90187029D02*
X127844466Y-90187029D01*
X127844466Y-90187029D02*
X127701609Y-90234648D01*
X127701609Y-90234648D02*
X127130180Y-90806076D01*
X127130180Y-90806076D02*
X127130180Y-90187029D01*
X128130180Y-89567981D02*
X128130180Y-89472743D01*
X128130180Y-89472743D02*
X128082561Y-89377505D01*
X128082561Y-89377505D02*
X128034942Y-89329886D01*
X128034942Y-89329886D02*
X127939704Y-89282267D01*
X127939704Y-89282267D02*
X127749228Y-89234648D01*
X127749228Y-89234648D02*
X127511133Y-89234648D01*
X127511133Y-89234648D02*
X127320657Y-89282267D01*
X127320657Y-89282267D02*
X127225419Y-89329886D01*
X127225419Y-89329886D02*
X127177800Y-89377505D01*
X127177800Y-89377505D02*
X127130180Y-89472743D01*
X127130180Y-89472743D02*
X127130180Y-89567981D01*
X127130180Y-89567981D02*
X127177800Y-89663219D01*
X127177800Y-89663219D02*
X127225419Y-89710838D01*
X127225419Y-89710838D02*
X127320657Y-89758457D01*
X127320657Y-89758457D02*
X127511133Y-89806076D01*
X127511133Y-89806076D02*
X127749228Y-89806076D01*
X127749228Y-89806076D02*
X127939704Y-89758457D01*
X127939704Y-89758457D02*
X128034942Y-89710838D01*
X128034942Y-89710838D02*
X128082561Y-89663219D01*
X128082561Y-89663219D02*
X128130180Y-89567981D01*
X128130180Y-88615600D02*
X128130180Y-88520362D01*
X128130180Y-88520362D02*
X128082561Y-88425124D01*
X128082561Y-88425124D02*
X128034942Y-88377505D01*
X128034942Y-88377505D02*
X127939704Y-88329886D01*
X127939704Y-88329886D02*
X127749228Y-88282267D01*
X127749228Y-88282267D02*
X127511133Y-88282267D01*
X127511133Y-88282267D02*
X127320657Y-88329886D01*
X127320657Y-88329886D02*
X127225419Y-88377505D01*
X127225419Y-88377505D02*
X127177800Y-88425124D01*
X127177800Y-88425124D02*
X127130180Y-88520362D01*
X127130180Y-88520362D02*
X127130180Y-88615600D01*
X127130180Y-88615600D02*
X127177800Y-88710838D01*
X127177800Y-88710838D02*
X127225419Y-88758457D01*
X127225419Y-88758457D02*
X127320657Y-88806076D01*
X127320657Y-88806076D02*
X127511133Y-88853695D01*
X127511133Y-88853695D02*
X127749228Y-88853695D01*
X127749228Y-88853695D02*
X127939704Y-88806076D01*
X127939704Y-88806076D02*
X128034942Y-88758457D01*
X128034942Y-88758457D02*
X128082561Y-88710838D01*
X128082561Y-88710838D02*
X128130180Y-88615600D01*
X128130180Y-87377505D02*
X128130180Y-87853695D01*
X128130180Y-87853695D02*
X127653990Y-87901314D01*
X127653990Y-87901314D02*
X127701609Y-87853695D01*
X127701609Y-87853695D02*
X127749228Y-87758457D01*
X127749228Y-87758457D02*
X127749228Y-87520362D01*
X127749228Y-87520362D02*
X127701609Y-87425124D01*
X127701609Y-87425124D02*
X127653990Y-87377505D01*
X127653990Y-87377505D02*
X127558752Y-87329886D01*
X127558752Y-87329886D02*
X127320657Y-87329886D01*
X127320657Y-87329886D02*
X127225419Y-87377505D01*
X127225419Y-87377505D02*
X127177800Y-87425124D01*
X127177800Y-87425124D02*
X127130180Y-87520362D01*
X127130180Y-87520362D02*
X127130180Y-87758457D01*
X127130180Y-87758457D02*
X127177800Y-87853695D01*
X127177800Y-87853695D02*
X127225419Y-87901314D01*
G36*
X112531956Y-107512229D02*
G01*
X112533046Y-107667398D01*
X112499795Y-107735927D01*
X112469550Y-107767255D01*
X112400827Y-107802644D01*
X112150508Y-107803845D01*
X112081823Y-107770518D01*
X112050495Y-107740272D01*
X112015070Y-107671482D01*
X112013980Y-107516314D01*
X112033557Y-107475966D01*
X112512851Y-107475128D01*
X112531956Y-107512229D01*
G37*
G36*
X112465205Y-103698908D02*
G01*
X112496532Y-103729152D01*
X112531956Y-103797943D01*
X112533046Y-103953112D01*
X112513376Y-103993652D01*
X112034194Y-103994332D01*
X112015070Y-103957196D01*
X112013980Y-103802028D01*
X112047232Y-103733498D01*
X112077477Y-103702170D01*
X112146200Y-103666781D01*
X112396519Y-103665580D01*
X112465205Y-103698908D01*
G37*
G36*
X112465205Y-101460813D02*
G01*
X112496532Y-101491057D01*
X112531990Y-101559914D01*
X112532975Y-101667546D01*
X112499795Y-101735927D01*
X112469550Y-101767255D01*
X112400827Y-101802644D01*
X112150508Y-101803845D01*
X112081823Y-101770518D01*
X112050495Y-101740272D01*
X112015036Y-101671417D01*
X112014051Y-101563786D01*
X112047232Y-101495403D01*
X112077477Y-101464075D01*
X112146200Y-101428686D01*
X112396519Y-101427485D01*
X112465205Y-101460813D01*
G37*
G36*
X112670902Y-98088654D02*
G01*
X112750712Y-98127379D01*
X112826437Y-98201658D01*
X112865228Y-98314734D01*
X112866110Y-98469342D01*
X112014759Y-98470551D01*
X112013912Y-98321885D01*
X112051651Y-98205288D01*
X112124442Y-98131079D01*
X112199577Y-98092388D01*
X112373007Y-98047770D01*
X112497779Y-98046628D01*
X112670902Y-98088654D01*
G37*
G36*
X112248796Y-97191095D02*
G01*
X112248605Y-97193782D01*
X112247574Y-97196272D01*
X112246133Y-97210904D01*
X112247377Y-97429211D01*
X112218832Y-97488041D01*
X112162474Y-97517063D01*
X112102313Y-97517852D01*
X112043994Y-97489555D01*
X112015091Y-97433428D01*
X112013935Y-97230693D01*
X112033478Y-97190416D01*
X112249405Y-97189838D01*
X112248796Y-97191095D01*
G37*
G36*
X112465205Y-93032242D02*
G01*
X112496532Y-93062486D01*
X112531990Y-93131343D01*
X112532975Y-93238975D01*
X112499795Y-93307356D01*
X112469550Y-93338684D01*
X112400827Y-93374073D01*
X112150508Y-93375274D01*
X112081823Y-93341947D01*
X112050495Y-93311701D01*
X112015036Y-93242846D01*
X112014051Y-93135215D01*
X112047232Y-93066832D01*
X112077477Y-93035504D01*
X112146200Y-93000115D01*
X112396519Y-92998914D01*
X112465205Y-93032242D01*
G37*
G36*
X113173911Y-108063681D02*
G01*
X111420736Y-108063681D01*
X111420736Y-107591856D01*
X111531847Y-107591856D01*
X111533051Y-107723485D01*
X111532436Y-107725332D01*
X111533161Y-107735546D01*
X111533288Y-107749345D01*
X111534319Y-107751834D01*
X111534510Y-107754522D01*
X111539765Y-107768254D01*
X111595216Y-107875935D01*
X111617324Y-107895108D01*
X111645085Y-107904362D01*
X111674275Y-107902288D01*
X111700450Y-107889200D01*
X111719623Y-107867093D01*
X111728877Y-107839331D01*
X111726803Y-107810141D01*
X111721548Y-107796410D01*
X111681703Y-107719035D01*
X111680718Y-107611403D01*
X111713899Y-107543021D01*
X111744143Y-107511694D01*
X111812774Y-107476352D01*
X111868110Y-107476256D01*
X111867843Y-107476808D01*
X111867651Y-107479497D01*
X111866621Y-107481986D01*
X111865180Y-107496618D01*
X111866438Y-107675706D01*
X111865769Y-107677714D01*
X111866527Y-107688386D01*
X111866621Y-107701726D01*
X111867651Y-107704214D01*
X111867843Y-107706904D01*
X111873098Y-107720636D01*
X111921790Y-107815188D01*
X111925440Y-107824000D01*
X111927823Y-107826904D01*
X111928551Y-107828317D01*
X111930049Y-107829616D01*
X111934767Y-107835365D01*
X111983802Y-107882706D01*
X111989435Y-107889201D01*
X111992580Y-107891180D01*
X111993751Y-107892311D01*
X111995578Y-107893068D01*
X112001878Y-107897033D01*
X112087767Y-107938708D01*
X112088989Y-107939930D01*
X112097848Y-107943599D01*
X112110847Y-107949907D01*
X112113536Y-107950098D01*
X112116025Y-107951129D01*
X112130657Y-107952570D01*
X112404811Y-107951254D01*
X112406990Y-107951981D01*
X112418110Y-107951190D01*
X112431003Y-107951129D01*
X112433492Y-107950097D01*
X112436180Y-107949907D01*
X112449912Y-107944652D01*
X112544468Y-107895959D01*
X112553277Y-107892311D01*
X112556179Y-107889928D01*
X112557593Y-107889201D01*
X112558892Y-107887702D01*
X112564642Y-107882984D01*
X112611983Y-107833948D01*
X112618478Y-107828316D01*
X112620457Y-107825170D01*
X112621588Y-107824000D01*
X112622345Y-107822172D01*
X112626310Y-107815873D01*
X112667985Y-107729983D01*
X112669207Y-107728762D01*
X112672876Y-107719902D01*
X112679184Y-107706904D01*
X112679375Y-107704214D01*
X112680406Y-107701726D01*
X112681847Y-107687094D01*
X112680588Y-107508005D01*
X112681258Y-107505998D01*
X112680499Y-107495325D01*
X112680406Y-107481986D01*
X112679375Y-107479497D01*
X112679184Y-107476808D01*
X112673929Y-107463077D01*
X112665515Y-107446739D01*
X112669207Y-107443048D01*
X112680406Y-107416012D01*
X112680406Y-107386748D01*
X112669207Y-107359712D01*
X112648515Y-107339020D01*
X112621479Y-107327821D01*
X112606847Y-107326380D01*
X111985422Y-107327466D01*
X111978420Y-107326969D01*
X111976882Y-107327481D01*
X111809120Y-107327774D01*
X111806703Y-107326969D01*
X111795015Y-107327799D01*
X111782691Y-107327821D01*
X111780202Y-107328851D01*
X111777513Y-107329043D01*
X111763782Y-107334298D01*
X111669227Y-107382989D01*
X111660417Y-107386639D01*
X111657514Y-107389021D01*
X111656101Y-107389749D01*
X111654801Y-107391247D01*
X111649052Y-107395966D01*
X111601710Y-107445001D01*
X111595216Y-107450634D01*
X111593236Y-107453779D01*
X111592106Y-107454950D01*
X111591348Y-107456777D01*
X111587384Y-107463077D01*
X111545709Y-107548965D01*
X111544487Y-107550188D01*
X111540814Y-107559053D01*
X111534510Y-107572047D01*
X111534319Y-107574734D01*
X111533288Y-107577224D01*
X111531847Y-107591856D01*
X111420736Y-107591856D01*
X111420736Y-106939821D01*
X111866621Y-106939821D01*
X111877820Y-106966857D01*
X111898512Y-106987549D01*
X111925548Y-106998748D01*
X111940180Y-107000189D01*
X112621479Y-106998748D01*
X112648515Y-106987549D01*
X112669207Y-106966857D01*
X112680406Y-106939821D01*
X112680406Y-106939820D01*
X112771383Y-106939820D01*
X112782582Y-106966857D01*
X112791909Y-106978222D01*
X112850893Y-107035168D01*
X112877929Y-107046367D01*
X112877930Y-107046367D01*
X112907192Y-107046367D01*
X112934229Y-107035168D01*
X112945594Y-107025841D01*
X113002540Y-106966857D01*
X113013739Y-106939821D01*
X113013739Y-106910558D01*
X113006136Y-106892202D01*
X113002540Y-106883521D01*
X112993213Y-106872156D01*
X112934229Y-106815210D01*
X112907192Y-106804011D01*
X112877929Y-106804011D01*
X112850893Y-106815210D01*
X112839528Y-106824537D01*
X112782582Y-106883521D01*
X112771383Y-106910558D01*
X112771383Y-106939820D01*
X112680406Y-106939820D01*
X112680406Y-106910557D01*
X112669207Y-106883521D01*
X112648515Y-106862829D01*
X112621479Y-106851630D01*
X112606847Y-106850189D01*
X111925548Y-106851630D01*
X111898512Y-106862829D01*
X111877820Y-106883521D01*
X111866621Y-106910557D01*
X111866621Y-106939821D01*
X111420736Y-106939821D01*
X111420736Y-106210904D01*
X111865180Y-106210904D01*
X111866285Y-106295211D01*
X111865769Y-106296762D01*
X111866427Y-106306032D01*
X111866621Y-106320774D01*
X111867651Y-106323262D01*
X111867843Y-106325952D01*
X111873098Y-106339684D01*
X111920157Y-106431066D01*
X111922643Y-106438522D01*
X111925976Y-106442365D01*
X111928551Y-106447365D01*
X111935655Y-106453525D01*
X111941816Y-106460630D01*
X111949221Y-106465290D01*
X111950659Y-106466538D01*
X111951813Y-106466922D01*
X111954259Y-106468462D01*
X112040148Y-106510137D01*
X112041370Y-106511359D01*
X112050229Y-106515028D01*
X112063228Y-106521336D01*
X112065917Y-106521527D01*
X112068406Y-106522558D01*
X112083038Y-106523999D01*
X112532984Y-106523255D01*
X112533288Y-106606488D01*
X112544487Y-106633524D01*
X112565179Y-106654216D01*
X112592215Y-106665415D01*
X112621479Y-106665415D01*
X112648515Y-106654216D01*
X112669207Y-106633524D01*
X112680406Y-106606488D01*
X112681847Y-106591856D01*
X112681596Y-106523009D01*
X112954812Y-106522558D01*
X112981848Y-106511359D01*
X113002540Y-106490667D01*
X113013739Y-106463631D01*
X113013739Y-106434367D01*
X113002540Y-106407331D01*
X112981848Y-106386639D01*
X112954812Y-106375440D01*
X112940180Y-106373999D01*
X112681054Y-106374427D01*
X112680406Y-106196272D01*
X112669207Y-106169236D01*
X112648515Y-106148544D01*
X112621479Y-106137345D01*
X112592215Y-106137345D01*
X112565179Y-106148544D01*
X112544487Y-106169236D01*
X112533288Y-106196272D01*
X112531847Y-106210904D01*
X112532443Y-106374672D01*
X112103112Y-106375382D01*
X112043994Y-106346698D01*
X112014972Y-106290341D01*
X112013739Y-106196272D01*
X112002540Y-106169236D01*
X111981848Y-106148544D01*
X111954812Y-106137345D01*
X111925548Y-106137345D01*
X111898512Y-106148544D01*
X111877820Y-106169236D01*
X111866621Y-106196272D01*
X111865180Y-106210904D01*
X111420736Y-106210904D01*
X111420736Y-105892202D01*
X111866621Y-105892202D01*
X111877820Y-105919238D01*
X111898512Y-105939930D01*
X111925548Y-105951129D01*
X111940180Y-105952570D01*
X112954812Y-105951129D01*
X112981848Y-105939930D01*
X113002540Y-105919238D01*
X113013739Y-105892202D01*
X113013739Y-105862938D01*
X113002540Y-105835902D01*
X112981848Y-105815210D01*
X112954812Y-105804011D01*
X112940180Y-105802570D01*
X112655674Y-105802974D01*
X112667985Y-105777602D01*
X112669207Y-105776381D01*
X112672876Y-105767521D01*
X112679184Y-105754523D01*
X112679375Y-105751833D01*
X112680406Y-105749345D01*
X112681847Y-105734713D01*
X112680642Y-105603082D01*
X112681258Y-105601236D01*
X112680532Y-105591021D01*
X112680406Y-105577224D01*
X112679375Y-105574735D01*
X112679184Y-105572046D01*
X112673929Y-105558315D01*
X112626869Y-105466930D01*
X112624385Y-105459476D01*
X112621052Y-105455633D01*
X112618478Y-105450634D01*
X112611373Y-105444472D01*
X112605212Y-105437368D01*
X112597806Y-105432706D01*
X112596370Y-105431461D01*
X112595216Y-105431076D01*
X112592769Y-105429536D01*
X112506880Y-105387861D01*
X112505658Y-105386639D01*
X112496792Y-105382966D01*
X112483799Y-105376662D01*
X112481111Y-105376471D01*
X112478622Y-105375440D01*
X112463990Y-105373999D01*
X111925548Y-105375440D01*
X111898512Y-105386639D01*
X111877820Y-105407331D01*
X111866621Y-105434367D01*
X111866621Y-105463631D01*
X111877820Y-105490667D01*
X111898512Y-105511359D01*
X111925548Y-105522558D01*
X111940180Y-105523999D01*
X112443988Y-105522650D01*
X112503032Y-105551300D01*
X112531990Y-105607533D01*
X112532975Y-105715165D01*
X112499795Y-105783546D01*
X112480799Y-105803222D01*
X111925548Y-105804011D01*
X111898512Y-105815210D01*
X111877820Y-105835902D01*
X111866621Y-105862938D01*
X111866621Y-105892202D01*
X111420736Y-105892202D01*
X111420736Y-104687094D01*
X111865180Y-104687094D01*
X111866384Y-104818724D01*
X111865769Y-104820571D01*
X111866494Y-104830785D01*
X111866621Y-104844583D01*
X111867651Y-104847071D01*
X111867843Y-104849761D01*
X111873098Y-104863493D01*
X111920157Y-104954875D01*
X111922643Y-104962331D01*
X111925976Y-104966174D01*
X111928551Y-104971174D01*
X111935655Y-104977334D01*
X111941816Y-104984439D01*
X111949221Y-104989099D01*
X111950659Y-104990347D01*
X111951813Y-104990731D01*
X111954259Y-104992271D01*
X112040148Y-105033946D01*
X112041370Y-105035168D01*
X112050229Y-105038837D01*
X112063228Y-105045145D01*
X112065917Y-105045336D01*
X112068406Y-105046367D01*
X112083038Y-105047808D01*
X112621479Y-105046367D01*
X112648515Y-105035168D01*
X112669207Y-105014476D01*
X112680406Y-104987440D01*
X112680406Y-104958176D01*
X112669207Y-104931140D01*
X112648515Y-104910448D01*
X112621479Y-104899249D01*
X112606847Y-104897808D01*
X112103039Y-104899156D01*
X112043994Y-104870507D01*
X112015036Y-104814274D01*
X112014051Y-104706643D01*
X112047232Y-104638260D01*
X112065855Y-104618971D01*
X112621479Y-104617796D01*
X112648515Y-104606597D01*
X112669207Y-104585905D01*
X112680406Y-104558869D01*
X112680406Y-104529605D01*
X112669207Y-104502569D01*
X112648515Y-104481877D01*
X112621479Y-104470678D01*
X112606847Y-104469237D01*
X111925548Y-104470678D01*
X111898512Y-104481877D01*
X111877820Y-104502569D01*
X111866621Y-104529605D01*
X111866621Y-104558869D01*
X111877820Y-104585905D01*
X111897689Y-104605774D01*
X111879041Y-104644204D01*
X111877820Y-104645426D01*
X111874149Y-104654285D01*
X111867843Y-104667284D01*
X111867651Y-104669973D01*
X111866621Y-104672462D01*
X111865180Y-104687094D01*
X111420736Y-104687094D01*
X111420736Y-103782332D01*
X111865180Y-103782332D01*
X111866438Y-103961420D01*
X111865769Y-103963428D01*
X111866527Y-103974100D01*
X111866621Y-103987440D01*
X111867651Y-103989928D01*
X111867843Y-103992618D01*
X111873098Y-104006350D01*
X111881511Y-104022686D01*
X111877820Y-104026378D01*
X111866621Y-104053414D01*
X111866621Y-104082678D01*
X111877820Y-104109714D01*
X111898512Y-104130406D01*
X111925548Y-104141605D01*
X111940180Y-104143046D01*
X112564421Y-104142159D01*
X112568609Y-104142457D01*
X112569523Y-104142152D01*
X112954812Y-104141605D01*
X112981848Y-104130406D01*
X113002540Y-104109714D01*
X113013739Y-104082678D01*
X113013739Y-104053414D01*
X113002540Y-104026378D01*
X112981848Y-104005686D01*
X112954812Y-103994487D01*
X112940180Y-103993046D01*
X112678796Y-103993417D01*
X112679184Y-103992618D01*
X112679375Y-103989928D01*
X112680406Y-103987440D01*
X112681847Y-103972808D01*
X112680588Y-103793719D01*
X112681258Y-103791712D01*
X112680499Y-103781039D01*
X112680406Y-103767700D01*
X112679375Y-103765211D01*
X112679184Y-103762522D01*
X112673929Y-103748791D01*
X112625237Y-103654236D01*
X112621588Y-103645426D01*
X112619205Y-103642523D01*
X112618478Y-103641110D01*
X112616979Y-103639810D01*
X112612261Y-103634061D01*
X112563225Y-103586719D01*
X112557593Y-103580225D01*
X112554447Y-103578245D01*
X112553277Y-103577115D01*
X112551449Y-103576357D01*
X112545150Y-103572393D01*
X112459261Y-103530718D01*
X112458039Y-103529496D01*
X112449173Y-103525823D01*
X112436180Y-103519519D01*
X112433492Y-103519328D01*
X112431003Y-103518297D01*
X112416371Y-103516856D01*
X112142216Y-103518171D01*
X112140037Y-103517445D01*
X112128916Y-103518235D01*
X112116025Y-103518297D01*
X112113536Y-103519327D01*
X112110847Y-103519519D01*
X112097116Y-103524774D01*
X112002561Y-103573465D01*
X111993751Y-103577115D01*
X111990848Y-103579497D01*
X111989435Y-103580225D01*
X111988135Y-103581723D01*
X111982386Y-103586442D01*
X111935045Y-103635476D01*
X111928551Y-103641109D01*
X111926570Y-103644254D01*
X111925440Y-103645426D01*
X111924683Y-103647253D01*
X111920718Y-103653552D01*
X111879041Y-103739442D01*
X111877820Y-103740664D01*
X111874149Y-103749523D01*
X111867843Y-103762522D01*
X111867651Y-103765211D01*
X111866621Y-103767700D01*
X111865180Y-103782332D01*
X111420736Y-103782332D01*
X111420736Y-103177915D01*
X111866621Y-103177915D01*
X111877819Y-103204951D01*
X111877820Y-103204952D01*
X111887148Y-103216318D01*
X111946133Y-103273264D01*
X111973169Y-103284462D01*
X112002431Y-103284462D01*
X112002432Y-103284462D01*
X112029468Y-103273263D01*
X112040833Y-103263936D01*
X112097779Y-103204952D01*
X112108978Y-103177916D01*
X112108978Y-103148653D01*
X112101375Y-103130297D01*
X112097779Y-103121616D01*
X112088452Y-103110251D01*
X112029468Y-103053305D01*
X112029466Y-103053304D01*
X112002432Y-103042106D01*
X111973169Y-103042106D01*
X111946133Y-103053304D01*
X111934767Y-103062632D01*
X111877820Y-103121616D01*
X111877819Y-103121617D01*
X111874224Y-103130297D01*
X111866621Y-103148652D01*
X111866621Y-103177915D01*
X111420736Y-103177915D01*
X111420736Y-102353761D01*
X111865180Y-102353761D01*
X111866438Y-102532849D01*
X111865769Y-102534857D01*
X111866527Y-102545529D01*
X111866621Y-102558869D01*
X111867651Y-102561357D01*
X111867843Y-102564047D01*
X111873098Y-102577779D01*
X111921790Y-102672331D01*
X111925440Y-102681143D01*
X111927823Y-102684047D01*
X111928551Y-102685460D01*
X111930049Y-102686759D01*
X111934767Y-102692508D01*
X111983802Y-102739849D01*
X111989435Y-102746344D01*
X111992580Y-102748323D01*
X111993751Y-102749454D01*
X111995578Y-102750211D01*
X112001878Y-102754176D01*
X112087767Y-102795851D01*
X112088989Y-102797073D01*
X112097848Y-102800742D01*
X112110847Y-102807050D01*
X112113536Y-102807241D01*
X112116025Y-102808272D01*
X112130657Y-102809713D01*
X112404811Y-102808397D01*
X112406990Y-102809124D01*
X112418110Y-102808333D01*
X112431003Y-102808272D01*
X112433492Y-102807240D01*
X112436180Y-102807050D01*
X112449912Y-102801795D01*
X112544468Y-102753102D01*
X112553277Y-102749454D01*
X112556179Y-102747071D01*
X112557593Y-102746344D01*
X112558892Y-102744845D01*
X112564642Y-102740127D01*
X112611983Y-102691091D01*
X112618478Y-102685459D01*
X112620457Y-102682313D01*
X112621588Y-102681143D01*
X112622345Y-102679315D01*
X112626310Y-102673016D01*
X112667985Y-102587126D01*
X112669207Y-102585905D01*
X112672876Y-102577045D01*
X112679184Y-102564047D01*
X112679375Y-102561357D01*
X112680406Y-102558869D01*
X112681847Y-102544237D01*
X112680588Y-102365148D01*
X112681258Y-102363141D01*
X112680499Y-102352468D01*
X112680406Y-102339129D01*
X112679375Y-102336640D01*
X112679184Y-102333951D01*
X112673929Y-102320220D01*
X112618478Y-102212539D01*
X112596370Y-102193366D01*
X112568609Y-102184112D01*
X112539419Y-102186186D01*
X112513244Y-102199273D01*
X112494071Y-102221381D01*
X112484817Y-102249142D01*
X112486891Y-102278332D01*
X112492146Y-102292064D01*
X112531956Y-102369372D01*
X112533046Y-102524541D01*
X112499795Y-102593070D01*
X112469550Y-102624398D01*
X112400827Y-102659787D01*
X112150508Y-102660988D01*
X112081823Y-102627661D01*
X112050495Y-102597415D01*
X112015070Y-102528625D01*
X112013980Y-102373457D01*
X112060137Y-102278333D01*
X112062211Y-102249143D01*
X112052958Y-102221381D01*
X112033784Y-102199274D01*
X112007610Y-102186186D01*
X111978420Y-102184112D01*
X111950659Y-102193365D01*
X111928551Y-102212538D01*
X111920718Y-102224981D01*
X111879041Y-102310871D01*
X111877820Y-102312093D01*
X111874149Y-102320952D01*
X111867843Y-102333951D01*
X111867651Y-102336640D01*
X111866621Y-102339129D01*
X111865180Y-102353761D01*
X111420736Y-102353761D01*
X111420736Y-101544237D01*
X111865180Y-101544237D01*
X111866384Y-101675867D01*
X111865769Y-101677714D01*
X111866494Y-101687928D01*
X111866621Y-101701726D01*
X111867651Y-101704214D01*
X111867843Y-101706904D01*
X111873098Y-101720636D01*
X111921790Y-101815188D01*
X111925440Y-101824000D01*
X111927823Y-101826904D01*
X111928551Y-101828317D01*
X111930049Y-101829616D01*
X111934767Y-101835365D01*
X111983802Y-101882706D01*
X111989435Y-101889201D01*
X111992580Y-101891180D01*
X111993751Y-101892311D01*
X111995578Y-101893068D01*
X112001878Y-101897033D01*
X112087767Y-101938708D01*
X112088989Y-101939930D01*
X112097848Y-101943599D01*
X112110847Y-101949907D01*
X112113536Y-101950098D01*
X112116025Y-101951129D01*
X112130657Y-101952570D01*
X112404811Y-101951254D01*
X112406990Y-101951981D01*
X112418110Y-101951190D01*
X112431003Y-101951129D01*
X112433492Y-101950097D01*
X112436180Y-101949907D01*
X112449912Y-101944652D01*
X112544468Y-101895959D01*
X112553277Y-101892311D01*
X112556179Y-101889928D01*
X112557593Y-101889201D01*
X112558892Y-101887702D01*
X112564642Y-101882984D01*
X112611983Y-101833948D01*
X112618478Y-101828316D01*
X112620457Y-101825170D01*
X112621588Y-101824000D01*
X112622345Y-101822172D01*
X112626310Y-101815873D01*
X112667985Y-101729983D01*
X112669207Y-101728762D01*
X112672876Y-101719902D01*
X112679184Y-101706904D01*
X112679375Y-101704214D01*
X112680406Y-101701726D01*
X112681847Y-101687094D01*
X112680642Y-101555463D01*
X112681258Y-101553617D01*
X112680532Y-101543402D01*
X112680406Y-101529605D01*
X112679375Y-101527116D01*
X112679184Y-101524427D01*
X112673929Y-101510696D01*
X112625237Y-101416141D01*
X112621588Y-101407331D01*
X112619205Y-101404428D01*
X112618478Y-101403015D01*
X112616979Y-101401715D01*
X112612261Y-101395966D01*
X112563225Y-101348624D01*
X112557593Y-101342130D01*
X112554447Y-101340150D01*
X112553277Y-101339020D01*
X112551449Y-101338262D01*
X112545150Y-101334298D01*
X112459261Y-101292623D01*
X112458039Y-101291401D01*
X112449173Y-101287728D01*
X112436180Y-101281424D01*
X112433492Y-101281233D01*
X112431003Y-101280202D01*
X112416371Y-101278761D01*
X112142216Y-101280076D01*
X112140037Y-101279350D01*
X112128916Y-101280140D01*
X112116025Y-101280202D01*
X112113536Y-101281232D01*
X112110847Y-101281424D01*
X112097116Y-101286679D01*
X112002561Y-101335370D01*
X111993751Y-101339020D01*
X111990848Y-101341402D01*
X111989435Y-101342130D01*
X111988135Y-101343628D01*
X111982386Y-101348347D01*
X111935045Y-101397381D01*
X111928551Y-101403014D01*
X111926570Y-101406159D01*
X111925440Y-101407331D01*
X111924683Y-101409158D01*
X111920718Y-101415457D01*
X111879041Y-101501347D01*
X111877820Y-101502569D01*
X111874149Y-101511428D01*
X111867843Y-101524427D01*
X111867651Y-101527116D01*
X111866621Y-101529605D01*
X111865180Y-101544237D01*
X111420736Y-101544237D01*
X111420736Y-100939821D01*
X111866621Y-100939821D01*
X111877820Y-100966857D01*
X111898512Y-100987549D01*
X111925548Y-100998748D01*
X111940180Y-101000189D01*
X112621479Y-100998748D01*
X112648515Y-100987549D01*
X112669207Y-100966857D01*
X112680406Y-100939821D01*
X112680406Y-100910557D01*
X112669207Y-100883521D01*
X112649338Y-100863652D01*
X112667985Y-100825221D01*
X112669207Y-100824000D01*
X112672876Y-100815140D01*
X112679184Y-100802142D01*
X112679375Y-100799452D01*
X112680406Y-100796964D01*
X112681847Y-100782332D01*
X112680642Y-100650701D01*
X112681258Y-100648855D01*
X112680532Y-100638640D01*
X112680406Y-100624843D01*
X112679375Y-100622354D01*
X112679184Y-100619665D01*
X112673929Y-100605934D01*
X112626869Y-100514549D01*
X112624385Y-100507095D01*
X112621052Y-100503252D01*
X112618478Y-100498253D01*
X112616592Y-100496618D01*
X112618478Y-100494983D01*
X112623139Y-100487577D01*
X112624385Y-100486141D01*
X112624769Y-100484987D01*
X112626310Y-100482540D01*
X112667985Y-100396650D01*
X112669207Y-100395429D01*
X112672876Y-100386569D01*
X112679184Y-100373571D01*
X112679375Y-100370881D01*
X112680406Y-100368393D01*
X112681847Y-100353761D01*
X112680642Y-100222131D01*
X112681258Y-100220285D01*
X112680532Y-100210070D01*
X112680406Y-100196272D01*
X112679374Y-100193782D01*
X112679184Y-100191095D01*
X112673929Y-100177363D01*
X112626869Y-100085977D01*
X112624385Y-100078523D01*
X112621052Y-100074680D01*
X112618478Y-100069681D01*
X112611373Y-100063519D01*
X112605212Y-100056415D01*
X112597806Y-100051753D01*
X112596370Y-100050508D01*
X112595216Y-100050123D01*
X112592769Y-100048583D01*
X112506880Y-100006908D01*
X112505658Y-100005686D01*
X112496792Y-100002013D01*
X112483799Y-99995709D01*
X112481111Y-99995518D01*
X112478622Y-99994487D01*
X112463990Y-99993046D01*
X111925548Y-99994487D01*
X111898512Y-100005686D01*
X111877820Y-100026378D01*
X111866621Y-100053414D01*
X111866621Y-100082678D01*
X111877820Y-100109714D01*
X111898512Y-100130406D01*
X111925548Y-100141605D01*
X111940180Y-100143046D01*
X112443988Y-100141697D01*
X112503032Y-100170347D01*
X112531990Y-100226580D01*
X112532975Y-100334213D01*
X112504546Y-100392803D01*
X112448510Y-100421659D01*
X111925548Y-100423059D01*
X111898512Y-100434258D01*
X111877820Y-100454950D01*
X111866621Y-100481986D01*
X111866621Y-100511250D01*
X111877820Y-100538286D01*
X111898512Y-100558978D01*
X111925548Y-100570177D01*
X111940180Y-100571618D01*
X112443988Y-100570269D01*
X112503032Y-100598919D01*
X112531990Y-100655152D01*
X112532975Y-100762784D01*
X112499795Y-100831165D01*
X112481172Y-100850454D01*
X111925548Y-100851630D01*
X111898512Y-100862829D01*
X111877820Y-100883521D01*
X111866621Y-100910557D01*
X111866621Y-100939821D01*
X111420736Y-100939821D01*
X111420736Y-99734634D01*
X111627085Y-99734634D01*
X111632764Y-99763342D01*
X111648997Y-99787691D01*
X111673312Y-99803974D01*
X111702006Y-99809713D01*
X111730714Y-99804034D01*
X111743687Y-99797117D01*
X113040777Y-98930660D01*
X113057061Y-98906345D01*
X113062800Y-98877650D01*
X113057121Y-98848943D01*
X113040888Y-98824593D01*
X113016573Y-98808310D01*
X112987879Y-98802571D01*
X112959171Y-98808250D01*
X112946197Y-98815167D01*
X111649107Y-99681625D01*
X111632824Y-99705940D01*
X111627085Y-99734634D01*
X111420736Y-99734634D01*
X111420736Y-98306142D01*
X111865180Y-98306142D01*
X111866621Y-98558869D01*
X111877820Y-98585905D01*
X111898512Y-98606597D01*
X111925548Y-98617796D01*
X111940180Y-98619237D01*
X112954812Y-98617796D01*
X112981848Y-98606597D01*
X113002540Y-98585905D01*
X113013739Y-98558869D01*
X113015180Y-98544237D01*
X113013829Y-98307466D01*
X113014591Y-98296761D01*
X113013747Y-98293052D01*
X113013739Y-98291510D01*
X113012980Y-98289679D01*
X113011331Y-98282424D01*
X112966120Y-98150633D01*
X112966120Y-98148654D01*
X112962164Y-98139104D01*
X112957718Y-98126142D01*
X112955953Y-98124107D01*
X112954922Y-98121617D01*
X112945594Y-98110252D01*
X112849831Y-98016320D01*
X112843307Y-98008797D01*
X112840110Y-98006784D01*
X112838991Y-98005687D01*
X112837163Y-98004929D01*
X112830864Y-98000965D01*
X112739632Y-97956698D01*
X112734121Y-97952614D01*
X112723101Y-97948676D01*
X112721894Y-97948091D01*
X112721354Y-97948052D01*
X112720275Y-97947667D01*
X112533909Y-97902426D01*
X112526241Y-97899250D01*
X112517126Y-97898352D01*
X112515255Y-97897898D01*
X112514162Y-97898060D01*
X112511609Y-97897809D01*
X112373029Y-97899076D01*
X112365106Y-97897898D01*
X112356081Y-97899232D01*
X112354120Y-97899250D01*
X112353098Y-97899672D01*
X112350562Y-97900048D01*
X112165863Y-97947565D01*
X112158466Y-97948091D01*
X112147483Y-97952294D01*
X112146240Y-97952614D01*
X112145804Y-97952936D01*
X112144735Y-97953346D01*
X112050185Y-98002034D01*
X112041370Y-98005686D01*
X112038464Y-98008070D01*
X112037054Y-98008797D01*
X112035755Y-98010293D01*
X112030005Y-98015014D01*
X111943522Y-98103182D01*
X111941817Y-98104035D01*
X111935180Y-98111686D01*
X111925440Y-98121617D01*
X111924409Y-98124105D01*
X111922643Y-98126142D01*
X111916649Y-98139567D01*
X111870498Y-98282149D01*
X111866621Y-98291510D01*
X111866250Y-98295273D01*
X111865769Y-98296761D01*
X111865909Y-98298736D01*
X111865180Y-98306142D01*
X111420736Y-98306142D01*
X111420736Y-97210904D01*
X111865180Y-97210904D01*
X111866472Y-97437509D01*
X111865769Y-97439619D01*
X111866546Y-97450561D01*
X111866621Y-97463631D01*
X111867651Y-97466119D01*
X111867843Y-97468809D01*
X111873098Y-97482541D01*
X111920157Y-97573923D01*
X111922643Y-97581379D01*
X111925976Y-97585222D01*
X111928551Y-97590222D01*
X111935655Y-97596382D01*
X111941816Y-97603487D01*
X111949221Y-97608147D01*
X111950659Y-97609395D01*
X111951813Y-97609779D01*
X111954259Y-97611319D01*
X112040148Y-97652994D01*
X112041370Y-97654216D01*
X112050229Y-97657885D01*
X112063228Y-97664193D01*
X112065917Y-97664384D01*
X112068406Y-97665415D01*
X112083038Y-97666856D01*
X112167344Y-97665750D01*
X112168895Y-97666267D01*
X112178164Y-97665608D01*
X112192908Y-97665415D01*
X112195397Y-97664383D01*
X112198085Y-97664193D01*
X112211817Y-97658938D01*
X112303201Y-97611878D01*
X112310656Y-97609394D01*
X112314498Y-97606061D01*
X112319498Y-97603487D01*
X112325659Y-97596382D01*
X112332764Y-97590221D01*
X112337425Y-97582815D01*
X112338671Y-97581379D01*
X112339055Y-97580225D01*
X112340596Y-97577778D01*
X112382271Y-97491888D01*
X112383493Y-97490667D01*
X112387162Y-97481807D01*
X112393470Y-97468809D01*
X112393661Y-97466119D01*
X112394692Y-97463631D01*
X112396133Y-97448999D01*
X112394888Y-97230691D01*
X112414926Y-97189395D01*
X112443988Y-97189317D01*
X112503032Y-97217967D01*
X112531956Y-97274134D01*
X112533046Y-97429303D01*
X112486891Y-97524428D01*
X112484817Y-97553618D01*
X112494071Y-97581379D01*
X112513244Y-97603487D01*
X112539419Y-97616574D01*
X112568609Y-97618648D01*
X112596370Y-97609394D01*
X112618478Y-97590221D01*
X112626310Y-97577778D01*
X112667985Y-97491888D01*
X112669207Y-97490667D01*
X112672876Y-97481807D01*
X112679184Y-97468809D01*
X112679375Y-97466119D01*
X112680406Y-97463631D01*
X112681847Y-97448999D01*
X112680588Y-97269910D01*
X112681258Y-97267903D01*
X112680499Y-97257230D01*
X112680406Y-97243891D01*
X112679375Y-97241402D01*
X112679184Y-97238713D01*
X112673929Y-97224982D01*
X112626869Y-97133597D01*
X112624385Y-97126143D01*
X112621052Y-97122300D01*
X112618478Y-97117301D01*
X112611373Y-97111139D01*
X112605212Y-97104035D01*
X112597806Y-97099373D01*
X112596370Y-97098128D01*
X112595216Y-97097743D01*
X112592769Y-97096203D01*
X112506880Y-97054528D01*
X112505658Y-97053306D01*
X112496792Y-97049633D01*
X112483799Y-97043329D01*
X112481111Y-97043138D01*
X112478622Y-97042107D01*
X112463990Y-97040666D01*
X111988056Y-97041939D01*
X111978420Y-97041255D01*
X111976271Y-97041971D01*
X111925548Y-97042107D01*
X111898512Y-97053306D01*
X111877820Y-97073998D01*
X111866621Y-97101034D01*
X111866621Y-97130298D01*
X111877820Y-97157334D01*
X111882131Y-97161645D01*
X111879041Y-97168014D01*
X111877820Y-97169236D01*
X111874149Y-97178095D01*
X111867843Y-97191094D01*
X111867651Y-97193783D01*
X111866621Y-97196272D01*
X111865180Y-97210904D01*
X111420736Y-97210904D01*
X111420736Y-96654107D01*
X111866621Y-96654107D01*
X111877820Y-96681143D01*
X111898512Y-96701835D01*
X111925548Y-96713034D01*
X111940180Y-96714475D01*
X112621479Y-96713034D01*
X112648515Y-96701835D01*
X112669207Y-96681143D01*
X112680406Y-96654107D01*
X112680406Y-96624843D01*
X112669207Y-96597807D01*
X112649338Y-96577938D01*
X112667985Y-96539507D01*
X112669207Y-96538286D01*
X112672876Y-96529426D01*
X112679184Y-96516428D01*
X112679375Y-96513738D01*
X112680406Y-96511250D01*
X112681847Y-96496618D01*
X112680642Y-96364987D01*
X112681258Y-96363141D01*
X112680532Y-96352926D01*
X112680406Y-96339129D01*
X112679375Y-96336640D01*
X112679184Y-96333951D01*
X112673929Y-96320220D01*
X112626869Y-96228835D01*
X112624385Y-96221381D01*
X112621052Y-96217538D01*
X112618478Y-96212539D01*
X112611373Y-96206377D01*
X112605212Y-96199273D01*
X112597806Y-96194611D01*
X112596370Y-96193366D01*
X112595216Y-96192981D01*
X112592769Y-96191441D01*
X112506880Y-96149766D01*
X112505658Y-96148544D01*
X112496792Y-96144871D01*
X112483799Y-96138567D01*
X112481111Y-96138376D01*
X112478622Y-96137345D01*
X112463990Y-96135904D01*
X111925548Y-96137345D01*
X111898512Y-96148544D01*
X111877820Y-96169236D01*
X111866621Y-96196272D01*
X111866621Y-96225536D01*
X111877820Y-96252572D01*
X111898512Y-96273264D01*
X111925548Y-96284463D01*
X111940180Y-96285904D01*
X112443988Y-96284555D01*
X112503032Y-96313205D01*
X112531990Y-96369438D01*
X112532975Y-96477070D01*
X112499795Y-96545451D01*
X112481172Y-96564740D01*
X111925548Y-96565916D01*
X111898512Y-96577115D01*
X111877820Y-96597807D01*
X111866621Y-96624843D01*
X111866621Y-96654107D01*
X111420736Y-96654107D01*
X111420736Y-95168524D01*
X111865363Y-95168524D01*
X111866621Y-95173136D01*
X111866621Y-95177917D01*
X111870438Y-95187132D01*
X111873063Y-95196756D01*
X111875990Y-95200536D01*
X111877820Y-95204953D01*
X111884870Y-95212003D01*
X111890980Y-95219893D01*
X111897112Y-95224245D01*
X111898512Y-95225645D01*
X111899886Y-95226214D01*
X111902970Y-95228403D01*
X112660628Y-95660110D01*
X111925548Y-95661154D01*
X111898512Y-95672353D01*
X111877820Y-95693045D01*
X111866621Y-95720081D01*
X111866621Y-95749345D01*
X111877820Y-95776381D01*
X111898512Y-95797073D01*
X111925548Y-95808272D01*
X111940180Y-95809713D01*
X112935735Y-95808299D01*
X112945419Y-95809530D01*
X112950006Y-95808278D01*
X112954812Y-95808272D01*
X112964027Y-95804454D01*
X112973651Y-95801830D01*
X112977431Y-95798902D01*
X112981848Y-95797073D01*
X112988898Y-95790022D01*
X112996788Y-95783913D01*
X112999161Y-95779759D01*
X113002540Y-95776381D01*
X113006356Y-95767168D01*
X113011307Y-95758504D01*
X113011909Y-95753760D01*
X113013739Y-95749345D01*
X113013739Y-95739370D01*
X113014997Y-95729474D01*
X113013739Y-95724861D01*
X113013739Y-95720081D01*
X113009921Y-95710864D01*
X113007297Y-95701243D01*
X113004370Y-95697463D01*
X113002540Y-95693045D01*
X112995488Y-95685993D01*
X112989380Y-95678105D01*
X112983245Y-95673750D01*
X112981848Y-95672353D01*
X112980475Y-95671784D01*
X112977391Y-95669595D01*
X112219731Y-95237887D01*
X112954812Y-95236844D01*
X112981848Y-95225645D01*
X113002540Y-95204953D01*
X113013739Y-95177917D01*
X113013739Y-95148653D01*
X113002540Y-95121617D01*
X112981848Y-95100925D01*
X112954812Y-95089726D01*
X112940180Y-95088285D01*
X111944624Y-95089698D01*
X111934941Y-95088468D01*
X111930353Y-95089719D01*
X111925548Y-95089726D01*
X111916332Y-95093543D01*
X111906709Y-95096168D01*
X111902928Y-95099095D01*
X111898512Y-95100925D01*
X111891461Y-95107975D01*
X111883572Y-95114085D01*
X111881198Y-95118238D01*
X111877820Y-95121617D01*
X111874003Y-95130829D01*
X111869053Y-95139494D01*
X111868450Y-95144237D01*
X111866621Y-95148653D01*
X111866621Y-95158627D01*
X111865363Y-95168524D01*
X111420736Y-95168524D01*
X111420736Y-94701726D01*
X111866621Y-94701726D01*
X111877820Y-94728762D01*
X111898512Y-94749454D01*
X111925548Y-94760653D01*
X111940180Y-94762094D01*
X112621479Y-94760653D01*
X112648515Y-94749454D01*
X112669207Y-94728762D01*
X112680406Y-94701726D01*
X112680406Y-94701725D01*
X112771383Y-94701725D01*
X112782582Y-94728762D01*
X112791909Y-94740127D01*
X112850893Y-94797073D01*
X112877929Y-94808272D01*
X112877930Y-94808272D01*
X112907192Y-94808272D01*
X112934229Y-94797073D01*
X112945594Y-94787746D01*
X113002540Y-94728762D01*
X113013739Y-94701726D01*
X113013739Y-94672463D01*
X113006136Y-94654107D01*
X113002540Y-94645426D01*
X112993213Y-94634061D01*
X112934229Y-94577115D01*
X112907192Y-94565916D01*
X112877929Y-94565916D01*
X112850893Y-94577115D01*
X112839528Y-94586442D01*
X112782582Y-94645426D01*
X112771383Y-94672463D01*
X112771383Y-94701725D01*
X112680406Y-94701725D01*
X112680406Y-94672462D01*
X112669207Y-94645426D01*
X112648515Y-94624734D01*
X112621479Y-94613535D01*
X112606847Y-94612094D01*
X111925548Y-94613535D01*
X111898512Y-94624734D01*
X111877820Y-94645426D01*
X111866621Y-94672462D01*
X111866621Y-94701726D01*
X111420736Y-94701726D01*
X111420736Y-94311905D01*
X111865402Y-94311905D01*
X111873299Y-94340083D01*
X111891379Y-94363094D01*
X111916889Y-94377434D01*
X111945943Y-94380920D01*
X111974121Y-94373023D01*
X111986517Y-94365116D01*
X112273671Y-94138718D01*
X112572906Y-94373023D01*
X112601084Y-94380920D01*
X112630138Y-94377434D01*
X112655648Y-94363094D01*
X112673728Y-94340083D01*
X112681625Y-94311905D01*
X112678139Y-94282851D01*
X112663799Y-94257341D01*
X112653184Y-94247168D01*
X112393761Y-94044036D01*
X112663799Y-93831134D01*
X112678139Y-93805624D01*
X112681625Y-93776570D01*
X112673728Y-93748392D01*
X112655648Y-93725381D01*
X112630138Y-93711041D01*
X112601084Y-93707555D01*
X112572906Y-93715452D01*
X112560510Y-93723359D01*
X112273355Y-93949756D01*
X111974121Y-93715452D01*
X111945943Y-93707555D01*
X111916889Y-93711041D01*
X111891379Y-93725381D01*
X111873299Y-93748392D01*
X111865402Y-93776570D01*
X111868888Y-93805624D01*
X111883228Y-93831134D01*
X111893843Y-93841307D01*
X112153265Y-94044438D01*
X111883228Y-94257341D01*
X111868888Y-94282851D01*
X111865402Y-94311905D01*
X111420736Y-94311905D01*
X111420736Y-93115666D01*
X111865180Y-93115666D01*
X111866384Y-93247296D01*
X111865769Y-93249143D01*
X111866494Y-93259357D01*
X111866621Y-93273155D01*
X111867651Y-93275643D01*
X111867843Y-93278333D01*
X111873098Y-93292065D01*
X111921790Y-93386617D01*
X111925440Y-93395429D01*
X111927823Y-93398333D01*
X111928551Y-93399746D01*
X111930049Y-93401045D01*
X111934767Y-93406794D01*
X111983802Y-93454135D01*
X111989435Y-93460630D01*
X111992580Y-93462609D01*
X111993751Y-93463740D01*
X111995578Y-93464497D01*
X112001878Y-93468462D01*
X112087767Y-93510137D01*
X112088989Y-93511359D01*
X112097848Y-93515028D01*
X112110847Y-93521336D01*
X112113536Y-93521527D01*
X112116025Y-93522558D01*
X112130657Y-93523999D01*
X112404811Y-93522683D01*
X112406990Y-93523410D01*
X112418110Y-93522619D01*
X112431003Y-93522558D01*
X112433492Y-93521526D01*
X112436180Y-93521336D01*
X112449912Y-93516081D01*
X112544468Y-93467388D01*
X112553277Y-93463740D01*
X112556179Y-93461357D01*
X112557593Y-93460630D01*
X112558892Y-93459131D01*
X112564642Y-93454413D01*
X112611983Y-93405377D01*
X112618478Y-93399745D01*
X112620457Y-93396599D01*
X112621588Y-93395429D01*
X112622345Y-93393601D01*
X112626310Y-93387302D01*
X112667985Y-93301412D01*
X112669207Y-93300191D01*
X112672876Y-93291331D01*
X112679184Y-93278333D01*
X112679375Y-93275643D01*
X112680406Y-93273155D01*
X112681847Y-93258523D01*
X112680642Y-93126892D01*
X112681258Y-93125046D01*
X112680532Y-93114831D01*
X112680406Y-93101034D01*
X112679375Y-93098545D01*
X112679184Y-93095856D01*
X112673929Y-93082125D01*
X112625237Y-92987570D01*
X112621588Y-92978760D01*
X112619205Y-92975857D01*
X112618478Y-92974444D01*
X112616979Y-92973144D01*
X112612261Y-92967395D01*
X112563225Y-92920053D01*
X112557593Y-92913559D01*
X112554447Y-92911579D01*
X112553277Y-92910449D01*
X112551449Y-92909691D01*
X112545150Y-92905727D01*
X112459261Y-92864052D01*
X112458039Y-92862830D01*
X112449173Y-92859157D01*
X112436180Y-92852853D01*
X112433492Y-92852662D01*
X112431003Y-92851631D01*
X112416371Y-92850190D01*
X112142216Y-92851505D01*
X112140037Y-92850779D01*
X112128916Y-92851569D01*
X112116025Y-92851631D01*
X112113536Y-92852661D01*
X112110847Y-92852853D01*
X112097116Y-92858108D01*
X112002561Y-92906799D01*
X111993751Y-92910449D01*
X111990848Y-92912831D01*
X111989435Y-92913559D01*
X111988135Y-92915057D01*
X111982386Y-92919776D01*
X111935045Y-92968810D01*
X111928551Y-92974443D01*
X111926570Y-92977588D01*
X111925440Y-92978760D01*
X111924683Y-92980587D01*
X111920718Y-92986886D01*
X111879041Y-93072776D01*
X111877820Y-93073998D01*
X111874149Y-93082857D01*
X111867843Y-93095856D01*
X111867651Y-93098545D01*
X111866621Y-93101034D01*
X111865180Y-93115666D01*
X111420736Y-93115666D01*
X111420736Y-92511250D01*
X111866621Y-92511250D01*
X111877820Y-92538286D01*
X111898512Y-92558978D01*
X111925548Y-92570177D01*
X111940180Y-92571618D01*
X112621479Y-92570177D01*
X112648515Y-92558978D01*
X112669207Y-92538286D01*
X112680406Y-92511250D01*
X112680406Y-92481986D01*
X112669207Y-92454950D01*
X112649338Y-92435081D01*
X112667985Y-92396650D01*
X112669207Y-92395429D01*
X112672876Y-92386569D01*
X112679184Y-92373571D01*
X112679375Y-92370881D01*
X112680406Y-92368393D01*
X112681847Y-92353761D01*
X112680642Y-92222130D01*
X112681258Y-92220284D01*
X112680532Y-92210069D01*
X112680406Y-92196272D01*
X112679375Y-92193783D01*
X112679184Y-92191094D01*
X112673929Y-92177363D01*
X112626869Y-92085978D01*
X112624385Y-92078524D01*
X112621052Y-92074681D01*
X112618478Y-92069682D01*
X112611373Y-92063520D01*
X112605212Y-92056416D01*
X112597806Y-92051754D01*
X112596370Y-92050509D01*
X112595216Y-92050124D01*
X112592769Y-92048584D01*
X112506880Y-92006909D01*
X112505658Y-92005687D01*
X112496792Y-92002014D01*
X112483799Y-91995710D01*
X112481111Y-91995519D01*
X112478622Y-91994488D01*
X112463990Y-91993047D01*
X111925548Y-91994488D01*
X111898512Y-92005687D01*
X111877820Y-92026379D01*
X111866621Y-92053415D01*
X111866621Y-92082679D01*
X111877820Y-92109715D01*
X111898512Y-92130407D01*
X111925548Y-92141606D01*
X111940180Y-92143047D01*
X112443988Y-92141698D01*
X112503032Y-92170348D01*
X112531990Y-92226581D01*
X112532975Y-92334213D01*
X112499795Y-92402594D01*
X112481172Y-92421883D01*
X111925548Y-92423059D01*
X111898512Y-92434258D01*
X111877820Y-92454950D01*
X111866621Y-92481986D01*
X111866621Y-92511250D01*
X111420736Y-92511250D01*
X111420736Y-91881936D01*
X113173911Y-91881936D01*
X113173911Y-108063681D01*
G37*
D11*
X106861104Y-103644238D02*
X106289676Y-103644238D01*
X106289676Y-103644238D02*
X106175390Y-103682333D01*
X106175390Y-103682333D02*
X106099200Y-103758524D01*
X106099200Y-103758524D02*
X106061104Y-103872809D01*
X106061104Y-103872809D02*
X106061104Y-103949000D01*
X106061104Y-102882333D02*
X106061104Y-103263285D01*
X106061104Y-103263285D02*
X106861104Y-103263285D01*
X106137295Y-102158523D02*
X106099200Y-102196619D01*
X106099200Y-102196619D02*
X106061104Y-102310904D01*
X106061104Y-102310904D02*
X106061104Y-102387095D01*
X106061104Y-102387095D02*
X106099200Y-102501381D01*
X106099200Y-102501381D02*
X106175390Y-102577571D01*
X106175390Y-102577571D02*
X106251580Y-102615666D01*
X106251580Y-102615666D02*
X106403961Y-102653762D01*
X106403961Y-102653762D02*
X106518247Y-102653762D01*
X106518247Y-102653762D02*
X106670628Y-102615666D01*
X106670628Y-102615666D02*
X106746819Y-102577571D01*
X106746819Y-102577571D02*
X106823009Y-102501381D01*
X106823009Y-102501381D02*
X106861104Y-102387095D01*
X106861104Y-102387095D02*
X106861104Y-102310904D01*
X106861104Y-102310904D02*
X106823009Y-102196619D01*
X106823009Y-102196619D02*
X106784914Y-102158523D01*
X106861104Y-101587095D02*
X106289676Y-101587095D01*
X106289676Y-101587095D02*
X106175390Y-101625190D01*
X106175390Y-101625190D02*
X106099200Y-101701381D01*
X106099200Y-101701381D02*
X106061104Y-101815666D01*
X106061104Y-101815666D02*
X106061104Y-101891857D01*
X106061104Y-100825190D02*
X106061104Y-101206142D01*
X106061104Y-101206142D02*
X106861104Y-101206142D01*
X106137295Y-100101380D02*
X106099200Y-100139476D01*
X106099200Y-100139476D02*
X106061104Y-100253761D01*
X106061104Y-100253761D02*
X106061104Y-100329952D01*
X106061104Y-100329952D02*
X106099200Y-100444238D01*
X106099200Y-100444238D02*
X106175390Y-100520428D01*
X106175390Y-100520428D02*
X106251580Y-100558523D01*
X106251580Y-100558523D02*
X106403961Y-100596619D01*
X106403961Y-100596619D02*
X106518247Y-100596619D01*
X106518247Y-100596619D02*
X106670628Y-100558523D01*
X106670628Y-100558523D02*
X106746819Y-100520428D01*
X106746819Y-100520428D02*
X106823009Y-100444238D01*
X106823009Y-100444238D02*
X106861104Y-100329952D01*
X106861104Y-100329952D02*
X106861104Y-100253761D01*
X106861104Y-100253761D02*
X106823009Y-100139476D01*
X106823009Y-100139476D02*
X106784914Y-100101380D01*
X106861104Y-99529952D02*
X106289676Y-99529952D01*
X106289676Y-99529952D02*
X106175390Y-99568047D01*
X106175390Y-99568047D02*
X106099200Y-99644238D01*
X106099200Y-99644238D02*
X106061104Y-99758523D01*
X106061104Y-99758523D02*
X106061104Y-99834714D01*
X106061104Y-98768047D02*
X106061104Y-99148999D01*
X106061104Y-99148999D02*
X106861104Y-99148999D01*
X106137295Y-98044237D02*
X106099200Y-98082333D01*
X106099200Y-98082333D02*
X106061104Y-98196618D01*
X106061104Y-98196618D02*
X106061104Y-98272809D01*
X106061104Y-98272809D02*
X106099200Y-98387095D01*
X106099200Y-98387095D02*
X106175390Y-98463285D01*
X106175390Y-98463285D02*
X106251580Y-98501380D01*
X106251580Y-98501380D02*
X106403961Y-98539476D01*
X106403961Y-98539476D02*
X106518247Y-98539476D01*
X106518247Y-98539476D02*
X106670628Y-98501380D01*
X106670628Y-98501380D02*
X106746819Y-98463285D01*
X106746819Y-98463285D02*
X106823009Y-98387095D01*
X106823009Y-98387095D02*
X106861104Y-98272809D01*
X106861104Y-98272809D02*
X106861104Y-98196618D01*
X106861104Y-98196618D02*
X106823009Y-98082333D01*
X106823009Y-98082333D02*
X106784914Y-98044237D01*
X106861104Y-97472809D02*
X106289676Y-97472809D01*
X106289676Y-97472809D02*
X106175390Y-97510904D01*
X106175390Y-97510904D02*
X106099200Y-97587095D01*
X106099200Y-97587095D02*
X106061104Y-97701380D01*
X106061104Y-97701380D02*
X106061104Y-97777571D01*
X106061104Y-96710904D02*
X106061104Y-97091856D01*
X106061104Y-97091856D02*
X106861104Y-97091856D01*
X106137295Y-95987094D02*
X106099200Y-96025190D01*
X106099200Y-96025190D02*
X106061104Y-96139475D01*
X106061104Y-96139475D02*
X106061104Y-96215666D01*
X106061104Y-96215666D02*
X106099200Y-96329952D01*
X106099200Y-96329952D02*
X106175390Y-96406142D01*
X106175390Y-96406142D02*
X106251580Y-96444237D01*
X106251580Y-96444237D02*
X106403961Y-96482333D01*
X106403961Y-96482333D02*
X106518247Y-96482333D01*
X106518247Y-96482333D02*
X106670628Y-96444237D01*
X106670628Y-96444237D02*
X106746819Y-96406142D01*
X106746819Y-96406142D02*
X106823009Y-96329952D01*
X106823009Y-96329952D02*
X106861104Y-96215666D01*
X106861104Y-96215666D02*
X106861104Y-96139475D01*
X106861104Y-96139475D02*
X106823009Y-96025190D01*
X106823009Y-96025190D02*
X106784914Y-95987094D01*
G36*
X108080120Y-110756676D02*
G01*
X108218592Y-110788133D01*
X108222268Y-110790986D01*
X108285542Y-110819789D01*
X108351640Y-110882037D01*
X108385212Y-110974292D01*
X108385104Y-110974836D01*
X108387658Y-111115532D01*
X107684259Y-111118800D01*
X107681951Y-110991677D01*
X107682538Y-110990648D01*
X107712567Y-110891644D01*
X107771395Y-110829178D01*
X107771751Y-110829081D01*
X107834226Y-110794941D01*
X107837707Y-110794772D01*
X107974364Y-110757453D01*
X107977961Y-110758169D01*
X108077282Y-110755335D01*
X108080120Y-110756676D01*
G37*
G36*
X108573993Y-112980392D02*
G01*
X107496215Y-112980392D01*
X107496215Y-112498645D01*
X107585104Y-112498645D01*
X107585243Y-112502143D01*
X107585230Y-112502189D01*
X107585246Y-112502222D01*
X107587799Y-112566153D01*
X107585230Y-112571292D01*
X107587670Y-112590648D01*
X107627006Y-112698741D01*
X107627006Y-112708256D01*
X107634609Y-112719634D01*
X107635427Y-112721882D01*
X107636454Y-112722395D01*
X107637845Y-112724477D01*
X107709615Y-112792067D01*
X107711617Y-112798072D01*
X107727029Y-112810033D01*
X107730247Y-112811498D01*
X107730256Y-112811506D01*
X107730265Y-112811506D01*
X107793966Y-112840504D01*
X107795813Y-112843581D01*
X107813453Y-112851914D01*
X107955258Y-112884128D01*
X107958827Y-112887697D01*
X107977961Y-112891503D01*
X108080901Y-112888566D01*
X108084888Y-112890958D01*
X108104374Y-112890010D01*
X108243985Y-112851885D01*
X108248172Y-112853281D01*
X108266988Y-112848128D01*
X108334007Y-112811506D01*
X108339953Y-112811506D01*
X108356174Y-112800667D01*
X108426444Y-112726050D01*
X108434782Y-112721882D01*
X108441545Y-112710015D01*
X108443203Y-112708256D01*
X108443203Y-112707108D01*
X108444443Y-112704933D01*
X108476706Y-112598561D01*
X108481298Y-112593970D01*
X108485104Y-112574836D01*
X108481997Y-112465946D01*
X108484978Y-112457005D01*
X108481366Y-112443817D01*
X108481298Y-112441416D01*
X108480486Y-112440604D01*
X108479825Y-112438189D01*
X108429769Y-112346587D01*
X108393464Y-112334486D01*
X108359236Y-112351600D01*
X108347135Y-112387905D01*
X108352288Y-112406721D01*
X108385291Y-112467116D01*
X108387901Y-112558618D01*
X108387670Y-112559025D01*
X108357641Y-112658028D01*
X108298814Y-112720492D01*
X108298459Y-112720590D01*
X108235982Y-112754730D01*
X108232501Y-112754900D01*
X108095843Y-112792218D01*
X108092247Y-112791503D01*
X107992925Y-112794336D01*
X107990088Y-112792996D01*
X107851616Y-112761538D01*
X107847941Y-112758686D01*
X107784665Y-112729882D01*
X107718568Y-112667634D01*
X107684996Y-112575378D01*
X107685104Y-112574836D01*
X107682675Y-112514004D01*
X107712655Y-112415164D01*
X107729905Y-112396016D01*
X107929006Y-112393364D01*
X107931767Y-112517779D01*
X107958827Y-112544839D01*
X107997095Y-112544839D01*
X108024155Y-112517779D01*
X108027961Y-112498645D01*
X108024155Y-112327130D01*
X107997095Y-112300070D01*
X107977961Y-112296264D01*
X107692161Y-112300070D01*
X107692160Y-112300071D01*
X107675939Y-112310909D01*
X107642440Y-112348093D01*
X107635427Y-112351600D01*
X107628786Y-112363249D01*
X107627006Y-112365226D01*
X107627006Y-112366373D01*
X107625766Y-112368549D01*
X107593501Y-112474919D01*
X107588910Y-112479511D01*
X107585104Y-112498645D01*
X107496215Y-112498645D01*
X107496215Y-111539958D01*
X107585503Y-111539958D01*
X107588910Y-111552450D01*
X107588910Y-111565398D01*
X107593765Y-111570253D01*
X107595572Y-111576878D01*
X107610297Y-111589676D01*
X108254331Y-111954246D01*
X107615970Y-111957213D01*
X107588910Y-111984273D01*
X107588910Y-112022541D01*
X107615970Y-112049601D01*
X107635104Y-112053407D01*
X108423035Y-112049745D01*
X108428798Y-112053008D01*
X108441066Y-112049662D01*
X108454238Y-112049601D01*
X108459092Y-112044746D01*
X108465719Y-112042939D01*
X108472144Y-112031694D01*
X108481298Y-112022541D01*
X108481298Y-112015675D01*
X108484705Y-112009713D01*
X108481298Y-111997220D01*
X108481298Y-111984273D01*
X108476442Y-111979417D01*
X108474636Y-111972793D01*
X108459911Y-111959995D01*
X107815876Y-111595424D01*
X108454238Y-111592458D01*
X108481298Y-111565398D01*
X108481298Y-111527130D01*
X108454238Y-111500070D01*
X108435104Y-111496264D01*
X107647172Y-111499925D01*
X107641410Y-111496663D01*
X107629141Y-111500008D01*
X107615970Y-111500070D01*
X107611114Y-111504925D01*
X107604490Y-111506732D01*
X107598065Y-111517974D01*
X107588910Y-111527130D01*
X107588910Y-111533995D01*
X107585503Y-111539958D01*
X107496215Y-111539958D01*
X107496215Y-110974836D01*
X107585104Y-110974836D01*
X107588910Y-111184446D01*
X107615970Y-111211506D01*
X107635104Y-111215312D01*
X108454238Y-111211506D01*
X108481298Y-111184446D01*
X108485104Y-111165312D01*
X108481824Y-110984687D01*
X108484978Y-110978380D01*
X108482538Y-110959025D01*
X108443203Y-110850931D01*
X108443203Y-110841416D01*
X108435599Y-110830037D01*
X108434782Y-110827790D01*
X108433754Y-110827276D01*
X108432364Y-110825195D01*
X108360592Y-110757603D01*
X108358591Y-110751600D01*
X108343180Y-110739639D01*
X108339961Y-110738173D01*
X108339953Y-110738166D01*
X108339944Y-110738166D01*
X108276241Y-110709168D01*
X108274395Y-110706091D01*
X108256755Y-110697758D01*
X108114949Y-110665543D01*
X108111381Y-110661975D01*
X108092247Y-110658169D01*
X107989306Y-110661105D01*
X107985320Y-110658714D01*
X107965834Y-110659662D01*
X107826222Y-110697786D01*
X107822035Y-110696391D01*
X107803219Y-110701544D01*
X107736201Y-110738166D01*
X107730256Y-110738166D01*
X107714035Y-110749005D01*
X107643764Y-110823621D01*
X107635427Y-110827790D01*
X107628663Y-110839656D01*
X107627006Y-110841416D01*
X107627006Y-110842563D01*
X107625766Y-110844739D01*
X107593501Y-110951110D01*
X107588910Y-110955702D01*
X107585104Y-110974836D01*
X107496215Y-110974836D01*
X107496215Y-110569280D01*
X108573993Y-110569280D01*
X108573993Y-112980392D01*
G37*
D12*
X103290809Y-96435901D02*
X103338428Y-96578758D01*
X103338428Y-96578758D02*
X103386047Y-96626377D01*
X103386047Y-96626377D02*
X103481285Y-96673996D01*
X103481285Y-96673996D02*
X103624142Y-96673996D01*
X103624142Y-96673996D02*
X103719380Y-96626377D01*
X103719380Y-96626377D02*
X103767000Y-96578758D01*
X103767000Y-96578758D02*
X103814619Y-96483520D01*
X103814619Y-96483520D02*
X103814619Y-96102568D01*
X103814619Y-96102568D02*
X102814619Y-96102568D01*
X102814619Y-96102568D02*
X102814619Y-96435901D01*
X102814619Y-96435901D02*
X102862238Y-96531139D01*
X102862238Y-96531139D02*
X102909857Y-96578758D01*
X102909857Y-96578758D02*
X103005095Y-96626377D01*
X103005095Y-96626377D02*
X103100333Y-96626377D01*
X103100333Y-96626377D02*
X103195571Y-96578758D01*
X103195571Y-96578758D02*
X103243190Y-96531139D01*
X103243190Y-96531139D02*
X103290809Y-96435901D01*
X103290809Y-96435901D02*
X103290809Y-96102568D01*
X102814619Y-97293044D02*
X102814619Y-97483520D01*
X102814619Y-97483520D02*
X102862238Y-97578758D01*
X102862238Y-97578758D02*
X102957476Y-97673996D01*
X102957476Y-97673996D02*
X103147952Y-97721615D01*
X103147952Y-97721615D02*
X103481285Y-97721615D01*
X103481285Y-97721615D02*
X103671761Y-97673996D01*
X103671761Y-97673996D02*
X103767000Y-97578758D01*
X103767000Y-97578758D02*
X103814619Y-97483520D01*
X103814619Y-97483520D02*
X103814619Y-97293044D01*
X103814619Y-97293044D02*
X103767000Y-97197806D01*
X103767000Y-97197806D02*
X103671761Y-97102568D01*
X103671761Y-97102568D02*
X103481285Y-97054949D01*
X103481285Y-97054949D02*
X103147952Y-97054949D01*
X103147952Y-97054949D02*
X102957476Y-97102568D01*
X102957476Y-97102568D02*
X102862238Y-97197806D01*
X102862238Y-97197806D02*
X102814619Y-97293044D01*
X102814619Y-98007330D02*
X102814619Y-98578758D01*
X103814619Y-98293044D02*
X102814619Y-98293044D01*
X102814619Y-98769235D02*
X102814619Y-99340663D01*
X103814619Y-99054949D02*
X102814619Y-99054949D01*
X102814619Y-99864473D02*
X102814619Y-100054949D01*
X102814619Y-100054949D02*
X102862238Y-100150187D01*
X102862238Y-100150187D02*
X102957476Y-100245425D01*
X102957476Y-100245425D02*
X103147952Y-100293044D01*
X103147952Y-100293044D02*
X103481285Y-100293044D01*
X103481285Y-100293044D02*
X103671761Y-100245425D01*
X103671761Y-100245425D02*
X103767000Y-100150187D01*
X103767000Y-100150187D02*
X103814619Y-100054949D01*
X103814619Y-100054949D02*
X103814619Y-99864473D01*
X103814619Y-99864473D02*
X103767000Y-99769235D01*
X103767000Y-99769235D02*
X103671761Y-99673997D01*
X103671761Y-99673997D02*
X103481285Y-99626378D01*
X103481285Y-99626378D02*
X103147952Y-99626378D01*
X103147952Y-99626378D02*
X102957476Y-99673997D01*
X102957476Y-99673997D02*
X102862238Y-99769235D01*
X102862238Y-99769235D02*
X102814619Y-99864473D01*
X103814619Y-100721616D02*
X102814619Y-100721616D01*
X102814619Y-100721616D02*
X103528904Y-101054949D01*
X103528904Y-101054949D02*
X102814619Y-101388282D01*
X102814619Y-101388282D02*
X103814619Y-101388282D01*
X103719380Y-101864473D02*
X103767000Y-101912092D01*
X103767000Y-101912092D02*
X103814619Y-101864473D01*
X103814619Y-101864473D02*
X103767000Y-101816854D01*
X103767000Y-101816854D02*
X103719380Y-101864473D01*
X103719380Y-101864473D02*
X103814619Y-101864473D01*
X103433666Y-101864473D02*
X102862238Y-101816854D01*
X102862238Y-101816854D02*
X102814619Y-101864473D01*
X102814619Y-101864473D02*
X102862238Y-101912092D01*
X102862238Y-101912092D02*
X103433666Y-101864473D01*
X103433666Y-101864473D02*
X102814619Y-101864473D01*
D13*
X103341695Y-103791101D02*
X103341695Y-103333958D01*
X103341695Y-103562530D02*
X102541695Y-103562530D01*
X102541695Y-103562530D02*
X102655980Y-103486339D01*
X102655980Y-103486339D02*
X102732171Y-103410149D01*
X102732171Y-103410149D02*
X102770266Y-103333958D01*
D14*
X108300000Y-106800000D02*
X109700000Y-106800000D01*
X108300000Y-108200000D02*
X108300000Y-106800000D01*
X109700000Y-106800000D02*
X109700000Y-108200000D01*
X109700000Y-108200000D02*
X108300000Y-108200000D01*
X126300000Y-111390000D02*
X128500000Y-111390000D01*
X126300000Y-114610000D02*
X128500000Y-114610000D01*
X130700000Y-111390000D02*
X128500000Y-111390000D01*
X130700000Y-114610000D02*
X128500000Y-114610000D01*
X131400000Y-111565000D02*
X131160000Y-111235000D01*
X131640000Y-111235000D01*
X131400000Y-111565000D01*
G36*
X131400000Y-111565000D02*
G01*
X131160000Y-111235000D01*
X131640000Y-111235000D01*
X131400000Y-111565000D01*
G37*
X105300000Y-108800000D02*
X106700000Y-108800000D01*
X105300000Y-110200000D02*
X105300000Y-108800000D01*
X106700000Y-108800000D02*
X106700000Y-110200000D01*
X106700000Y-110200000D02*
X105300000Y-110200000D01*
X116977500Y-106737258D02*
X116977500Y-106262742D01*
X118022500Y-106737258D02*
X118022500Y-106262742D01*
X107300000Y-108800000D02*
X108700000Y-108800000D01*
X107300000Y-110200000D02*
X107300000Y-108800000D01*
X108700000Y-108800000D02*
X108700000Y-110200000D01*
X108700000Y-110200000D02*
X107300000Y-110200000D01*
X114977500Y-106737258D02*
X114977500Y-106262742D01*
X116022500Y-106737258D02*
X116022500Y-106262742D01*
X106300000Y-106800000D02*
X107700000Y-106800000D01*
X106300000Y-108200000D02*
X106300000Y-106800000D01*
X107700000Y-106800000D02*
X107700000Y-108200000D01*
X107700000Y-108200000D02*
X106300000Y-108200000D01*
%LPC*%
D15*
X100500000Y-103400000D03*
D16*
X100900000Y-102600000D03*
X100900000Y-101800000D03*
X100900000Y-101000000D03*
X100900000Y-100200000D03*
X100900000Y-99400000D03*
X100900000Y-98600000D03*
X100900000Y-97800000D03*
D15*
X100500000Y-97000000D03*
X100500000Y-96200000D03*
D17*
X110850000Y-87500000D03*
X111333274Y-86333274D03*
X111333274Y-88666726D03*
X112500000Y-85850000D03*
D18*
X112500000Y-87500000D03*
D17*
X112500000Y-89150000D03*
X113666726Y-86333274D03*
X113666726Y-88666726D03*
X114150000Y-87500000D03*
D19*
X146000000Y-120000000D03*
D20*
X146000000Y-118730000D03*
X146000000Y-117460000D03*
X146000000Y-116190000D03*
D17*
X110850000Y-112500000D03*
X111333274Y-111333274D03*
X111333274Y-113666726D03*
X112500000Y-110850000D03*
D18*
X112500000Y-112500000D03*
D17*
X112500000Y-114150000D03*
X113666726Y-111333274D03*
X113666726Y-113666726D03*
X114150000Y-112500000D03*
D21*
X109000000Y-107500000D03*
D22*
X131362500Y-112025000D03*
X131362500Y-112675000D03*
X131362500Y-113325000D03*
X131362500Y-113975000D03*
X125637500Y-113975000D03*
X125637500Y-113325000D03*
X125637500Y-112675000D03*
X125637500Y-112025000D03*
D21*
X106000000Y-109500000D03*
D23*
X117500000Y-105675000D03*
X117500000Y-107325000D03*
D21*
X108000000Y-109500000D03*
D23*
X115500000Y-105675000D03*
X115500000Y-107325000D03*
D21*
X107000000Y-107500000D03*
%LPD*%
M02*
