%TF.GenerationSoftware,KiCad,Pcbnew,8.0.1*%
%TF.CreationDate,2024-04-19T20:50:41+01:00*%
%TF.ProjectId,rabbit,72616262-6974-42e6-9b69-6361645f7063,rev?*%
%TF.SameCoordinates,Original*%
%TF.FileFunction,Drillmap*%
%TF.FilePolarity,Positive*%
%FSLAX45Y45*%
G04 Gerber Fmt 4.5, Leading zero omitted, Abs format (unit mm)*
G04 Created by KiCad (PCBNEW 8.0.1) date 2024-04-19 20:50:41*
%MOMM*%
%LPD*%
G01*
G04 APERTURE LIST*
%ADD10C,0.050000*%
%ADD11C,0.100000*%
%ADD12C,0.200000*%
G04 APERTURE END LIST*
D10*
X12787920Y-11833727D02*
X12730532Y-11830491D01*
X15962654Y-11043268D02*
X16006760Y-11045718D01*
X14296366Y-10723719D02*
X14308779Y-10735756D01*
X16223098Y-10433738D02*
X16239929Y-10444284D01*
X16198351Y-11201318D02*
X16198795Y-11222531D01*
X15480566Y-10439556D02*
X15509669Y-10431787D01*
X14906849Y-11978457D02*
X14890119Y-12012100D01*
X12101181Y-11459763D02*
X12079809Y-11480502D01*
X14101626Y-9058887D02*
X14141847Y-9123663D01*
X12384786Y-11630069D02*
X12371470Y-11578052D01*
X16102366Y-11053747D02*
X16122387Y-11059256D01*
X12209207Y-11417624D02*
X12189153Y-11419867D01*
X15390768Y-10478070D02*
X15437909Y-10455883D01*
X13573230Y-11890239D02*
X13558480Y-11872987D01*
X15964257Y-10416557D02*
X16163598Y-10422872D01*
X14275060Y-9784002D02*
X14273370Y-9861190D01*
X13475665Y-11832991D02*
X13458921Y-11834205D01*
X13267181Y-8332997D02*
X13325392Y-8346135D01*
X16266800Y-10476530D02*
X16276539Y-10497436D01*
X12521583Y-11789536D02*
X12488980Y-11772576D01*
X12087698Y-7975198D02*
X12106880Y-7961828D01*
X14890058Y-10784926D02*
X14924131Y-10778536D01*
X12030301Y-11544761D02*
X11962460Y-11649553D01*
X12537103Y-8219023D02*
X12525905Y-8236316D01*
X12523598Y-8249786D02*
X12529118Y-8261857D01*
X10050000Y-9047373D02*
X11549999Y-8181347D01*
X15993433Y-11385380D02*
X15893668Y-11431083D01*
X12584329Y-8285164D02*
X12734432Y-8286637D01*
X12144147Y-11433447D02*
X12122161Y-11444586D01*
X15674443Y-11517284D02*
X15562428Y-11554854D01*
X14924131Y-10778536D02*
X14954010Y-10769928D01*
X14215627Y-10159976D02*
X14190518Y-10229939D01*
X13582940Y-11907648D02*
X13573230Y-11890239D01*
X14226795Y-12477365D02*
X14210802Y-12496523D01*
X13419947Y-11853256D02*
X13384773Y-11877428D01*
X12603232Y-8101183D02*
X12604385Y-8116546D01*
X15975372Y-10947761D02*
X15931214Y-10981945D01*
X14434588Y-12347943D02*
X14390402Y-12366375D01*
X16081671Y-11339893D02*
X15993433Y-11385380D01*
D11*
X10025000Y-9400000D02*
G75*
G02*
X10000000Y-9375000I0J25000D01*
G01*
D10*
X12730532Y-11830491D02*
X12684360Y-11828735D01*
X12124026Y-7952401D02*
X12139755Y-7946938D01*
X16177459Y-11110685D02*
X16188930Y-11149224D01*
X14006870Y-12566121D02*
X13981557Y-12560104D01*
X14851356Y-10789131D02*
X14890058Y-10784926D01*
X14944551Y-11879982D02*
X14923456Y-11938392D01*
X14288870Y-10708975D02*
X14296366Y-10723719D01*
X15780761Y-10414337D02*
X15964257Y-10416557D01*
X11649999Y-8181347D02*
X11804759Y-8270698D01*
X11841066Y-11825375D02*
X11825217Y-11839294D01*
X15166286Y-10619777D02*
X15226900Y-10576971D01*
X15226900Y-10576971D02*
X15284816Y-10538896D01*
X13518196Y-11843542D02*
X13496768Y-11835691D01*
X12575648Y-8073803D02*
X12589988Y-8081484D01*
X16276777Y-10656369D02*
X16268132Y-10681045D01*
X13628368Y-8518575D02*
X13707175Y-8593484D01*
X12558257Y-8195480D02*
X12537103Y-8219023D01*
X13328436Y-11911870D02*
X13312118Y-11917827D01*
X12139755Y-7946938D02*
X12154688Y-7945462D01*
X13690462Y-12337478D02*
X13675764Y-12315582D01*
X13345058Y-11903420D02*
X13328436Y-11911870D01*
X12559617Y-8282934D02*
X12584329Y-8285164D01*
X14641549Y-10784764D02*
X14758324Y-10791119D01*
X13011926Y-11904518D02*
X12981304Y-11896330D01*
X12981304Y-11896330D02*
X12955109Y-11886874D01*
X14161731Y-10291798D02*
X14128590Y-10347206D01*
X12371470Y-11578052D02*
X12361090Y-11538770D01*
X11649999Y-11818652D02*
X11686438Y-11797614D01*
X14494329Y-12315941D02*
X14467440Y-12332091D01*
X12892829Y-11857336D02*
X12843142Y-11842928D01*
X13600621Y-12023930D02*
X13591892Y-11954254D01*
X12106880Y-7961828D02*
X12124026Y-7952401D01*
X11649999Y-11818652D02*
G75*
G02*
X11549999Y-11818652I-50000J86602D01*
G01*
X14036935Y-12567686D02*
X14006870Y-12566121D01*
X13046710Y-11911392D02*
X13011926Y-11904518D01*
X11825217Y-11839294D02*
X11811200Y-11848964D01*
X16158069Y-10824945D02*
X16130586Y-10847362D01*
X12169444Y-7947995D02*
X12184642Y-7954558D01*
X11706854Y-11833395D02*
X11697571Y-11820888D01*
X14980566Y-11669892D02*
X14976939Y-11685334D01*
X12734432Y-8286637D02*
X12873025Y-8288265D01*
X14819956Y-12094341D02*
X14783502Y-12122140D01*
X14128590Y-10347206D02*
X14107848Y-10381004D01*
X11780632Y-11860190D02*
X11766979Y-11861938D01*
X13222102Y-11924845D02*
X13127689Y-11921017D01*
X13654604Y-12267632D02*
X13635799Y-12199719D01*
X14281751Y-10671829D02*
X14285138Y-10689972D01*
X14140718Y-12544668D02*
X14115184Y-12555170D01*
X13707175Y-8593484D02*
X13784317Y-8671552D01*
X16287875Y-10546830D02*
X16289171Y-10574525D01*
X14992849Y-11649970D02*
X14985752Y-11658294D01*
X12955109Y-11886874D02*
X12933611Y-11876193D01*
X16287354Y-10603689D02*
X16283138Y-10630672D01*
X14255993Y-9999108D02*
X14237733Y-10080254D01*
X14327263Y-10746636D02*
X14358170Y-10758670D01*
X11818584Y-8249548D02*
X11864826Y-8186826D01*
X10050000Y-10952627D02*
X11549999Y-11818652D01*
X14285138Y-10689972D02*
X14288870Y-10708975D01*
X14848594Y-12068058D02*
X14819956Y-12094341D01*
X14467440Y-12332091D02*
X14434588Y-12347943D01*
X16181954Y-11271581D02*
X16169974Y-11284389D01*
X12525905Y-8236316D02*
X12523598Y-8249786D01*
X13981557Y-12560104D02*
X13956830Y-12548138D01*
X14972951Y-11730033D02*
X14968527Y-11779054D01*
X15284816Y-10538896D02*
X15339588Y-10505835D01*
X15643682Y-10417206D02*
X15780761Y-10414337D01*
X14980132Y-10759069D02*
X15006559Y-10742611D01*
X13384773Y-11877428D02*
X13345058Y-11903420D01*
X12348901Y-11507052D02*
X12334265Y-11481535D01*
X15590345Y-10420655D02*
X15643682Y-10417206D01*
X13709245Y-12359398D02*
X13690462Y-12337478D01*
X12334265Y-11481535D02*
X12316543Y-11460855D01*
X14103908Y-10402772D02*
X14106473Y-10423174D01*
X13993846Y-8911462D02*
X14051837Y-8987577D01*
X15918099Y-10995645D02*
X15910562Y-11007449D01*
X12639856Y-11823585D02*
X12597544Y-11815218D01*
X14217027Y-10560281D02*
X14252503Y-10609114D01*
X14254103Y-12442908D02*
X14226795Y-12477365D01*
X14168700Y-10505723D02*
X14217027Y-10560281D01*
X12218848Y-7979865D02*
X12258200Y-8020514D01*
X16095622Y-10871358D02*
X16045416Y-10902702D01*
X12472482Y-8034117D02*
X12520473Y-8050788D01*
X16202519Y-10427184D02*
X16223098Y-10433738D01*
X14171135Y-9180179D02*
X14190936Y-9232244D01*
X15786097Y-11475539D02*
X15674443Y-11517284D01*
X12579338Y-8171888D02*
X12558257Y-8195480D01*
X14107848Y-10381004D02*
X14104614Y-10391508D01*
X15103419Y-10667034D02*
X15166286Y-10619777D01*
X12601751Y-8133534D02*
X12593619Y-8151610D01*
X10000000Y-9375000D02*
X10000000Y-9133975D01*
X14167340Y-12530507D02*
X14140718Y-12544668D01*
X11753656Y-11861075D02*
X11740823Y-11857695D01*
X15437909Y-10455883D02*
X15480566Y-10439556D01*
X13845319Y-12468492D02*
X13763085Y-12407547D01*
X12247541Y-11421255D02*
X12228676Y-11418088D01*
X14106473Y-10423174D02*
X14116148Y-10443989D01*
X16227117Y-10751582D02*
X16185832Y-10798339D01*
X13201833Y-8321080D02*
X13267181Y-8332997D01*
X11728639Y-11851892D02*
X11717263Y-11843761D01*
X14284675Y-12416858D02*
X14268437Y-12429201D01*
X16164496Y-11085483D02*
X16177459Y-11110685D01*
X14265440Y-10631412D02*
X14275187Y-10652313D01*
X13274837Y-11923889D02*
X13222102Y-11924845D01*
X13508937Y-8421256D02*
X13563300Y-8461990D01*
X16198795Y-11222531D02*
X16196271Y-11241048D01*
X14968527Y-11779054D02*
X14959318Y-11827953D01*
X13733118Y-12382402D02*
X13709245Y-12359398D01*
X11881875Y-11774827D02*
X11858916Y-11805941D01*
X16289171Y-10574525D02*
X16287354Y-10603689D01*
X12957933Y-8291637D02*
X13128845Y-8310283D01*
X16045416Y-10902702D02*
X15975372Y-10947761D01*
X16122387Y-11059256D02*
X16147115Y-11069659D01*
X10000000Y-9133975D02*
G75*
G02*
X10050002Y-9047376I100000J-5D01*
G01*
X13956830Y-12548138D02*
X13928527Y-12528728D01*
X12873025Y-8288265D02*
X12957933Y-8291637D01*
X13294715Y-11921699D02*
X13274837Y-11923889D01*
X15893668Y-11431083D02*
X15786097Y-11475539D01*
X10000000Y-10625000D02*
X10000000Y-10866024D01*
X16283614Y-10521002D02*
X16287875Y-10546830D01*
X12184642Y-7954558D02*
X12200904Y-7965174D01*
X12557946Y-11803809D02*
X12521583Y-11789536D01*
X16163598Y-10422872D02*
X16202519Y-10427184D01*
X13539061Y-11856117D02*
X13518196Y-11843542D01*
X11797008Y-11855544D02*
X11780632Y-11860190D01*
X13591892Y-11954254D02*
X13588773Y-11928043D01*
X14520626Y-12296616D02*
X14494329Y-12315941D01*
X14116148Y-10443989D02*
X14135900Y-10469933D01*
X12400412Y-8020522D02*
X12432266Y-8023969D01*
X13442505Y-11839904D02*
X13419947Y-11853256D01*
X12488980Y-11772576D02*
X12460658Y-11753105D01*
X12933611Y-11876193D02*
X12892829Y-11857336D01*
X12079809Y-11480502D02*
X12056648Y-11508327D01*
X14115184Y-12555170D02*
X14090453Y-12562268D01*
X14245215Y-9454826D02*
X14258739Y-9542515D01*
X13462245Y-8393901D02*
X13508937Y-8421256D01*
X14758324Y-10791119D02*
X14807591Y-10791184D01*
X14273350Y-9703671D02*
X14275060Y-9784002D01*
X12348437Y-8027190D02*
X12400412Y-8020522D01*
X14871341Y-12041306D02*
X14848594Y-12068058D01*
X13928527Y-12528728D02*
X13845319Y-12468492D01*
X16283138Y-10630672D02*
X16276777Y-10656369D01*
X14064909Y-12566321D02*
X14036935Y-12567686D01*
X16276539Y-10497436D02*
X16283614Y-10521002D01*
X16243440Y-10728387D02*
X16227117Y-10751582D01*
X11811200Y-11848964D02*
X11797008Y-11855544D01*
X11858916Y-11805941D02*
X11841066Y-11825375D01*
X12598807Y-8090054D02*
X12603232Y-8101183D01*
X15352202Y-11611615D02*
X15296000Y-11621205D01*
D11*
X10000000Y-10625000D02*
G75*
G02*
X10025000Y-10600000I25000J0D01*
G01*
D10*
X12000139Y-8051028D02*
X12087698Y-7975198D01*
X15910562Y-11007449D02*
X15908306Y-11017632D01*
X12168534Y-11424824D02*
X12144147Y-11433447D01*
X12460658Y-11753105D02*
X12437141Y-11731300D01*
X16188930Y-11149224D02*
X16195032Y-11177015D01*
X14512318Y-10777577D02*
X14641549Y-10784764D01*
X15006559Y-10742611D02*
X15038748Y-10718460D01*
X13784317Y-8671552D02*
X13858720Y-8751722D01*
X15029116Y-11638933D02*
X15014179Y-11640860D01*
X13422420Y-8376485D02*
X13462245Y-8393901D01*
X14090453Y-12562268D02*
X14064909Y-12566321D01*
X13616531Y-12112118D02*
X13600621Y-12023930D01*
X14985752Y-11658294D02*
X14980566Y-11669892D01*
X14210802Y-12496523D02*
X14190842Y-12514348D01*
X14252503Y-10609114D02*
X14265440Y-10631412D01*
X12279475Y-8045232D02*
X12294015Y-8040198D01*
X16169974Y-11284389D02*
X16154658Y-11296085D01*
X14976939Y-11685334D02*
X14972951Y-11730033D01*
X14211009Y-9299548D02*
X14229665Y-9375829D01*
X14275187Y-10652313D02*
X14281751Y-10671829D01*
X13376970Y-8360597D02*
X13422420Y-8376485D01*
X16006760Y-11045718D02*
X16081603Y-11050261D01*
X13929018Y-8832268D02*
X13993846Y-8911462D01*
X16257065Y-10704962D02*
X16243440Y-10728387D01*
X14141847Y-9123663D02*
X14171135Y-9180179D01*
X15339588Y-10505835D02*
X15390768Y-10478070D01*
X16239929Y-10444284D02*
X16254546Y-10458680D01*
X15509669Y-10431787D02*
X15545968Y-10425501D01*
X14890119Y-12012100D02*
X14871341Y-12041306D01*
X16156541Y-11076646D02*
X16164496Y-11085483D01*
X12520473Y-8050788D02*
X12575648Y-8073803D01*
X15908306Y-11017632D02*
X15911032Y-11026467D01*
X11864826Y-8186826D02*
X11909124Y-8135697D01*
X12300301Y-11446925D02*
X12283374Y-11435679D01*
X10050000Y-10952627D02*
G75*
G02*
X9999996Y-10866024I50000J86607D01*
G01*
X16190689Y-11257266D02*
X16181954Y-11271581D01*
X12294015Y-8040198D02*
X12348437Y-8027190D01*
X12684360Y-11828735D02*
X12639856Y-11823585D01*
X16195032Y-11177015D02*
X16198351Y-11201318D01*
X14273370Y-9861190D02*
X14267443Y-9929489D01*
X11766979Y-11861938D02*
X11753656Y-11861075D01*
X15453773Y-11586786D02*
X15352202Y-11611615D01*
X16081603Y-11050261D02*
X16102366Y-11053747D01*
X14229665Y-9375829D02*
X14245215Y-9454826D01*
X11697571Y-11820888D02*
X11689573Y-11806335D01*
X11740823Y-11857695D02*
X11728639Y-11851892D01*
X16268132Y-10681045D02*
X16257065Y-10704962D01*
X15911032Y-11026467D02*
X15919307Y-11034550D01*
X13312118Y-11917827D02*
X13294715Y-11921699D01*
X14268437Y-12429201D02*
X14254103Y-12442908D01*
X13763085Y-12407547D02*
X13733118Y-12382402D01*
X14051837Y-8987577D02*
X14101626Y-9058887D01*
X13588773Y-11928043D02*
X13582940Y-11907648D01*
X15038748Y-10718460D02*
X15103419Y-10667034D01*
X14190936Y-9232244D02*
X14211009Y-9299548D01*
X13664146Y-12292653D02*
X13654604Y-12267632D01*
X12258200Y-8020514D02*
X12279475Y-8045232D01*
X12189153Y-11419867D02*
X12168534Y-11424824D01*
X13558480Y-11872987D02*
X13539061Y-11856117D01*
X14190518Y-10229939D02*
X14161731Y-10291798D01*
X11962460Y-11649553D02*
X11881875Y-11774827D01*
X12529118Y-8261857D02*
X12537904Y-8270897D01*
X12154688Y-7945462D02*
X12169444Y-7947995D01*
X13675764Y-12315582D02*
X13664146Y-12292653D01*
X14959318Y-11827953D02*
X14944551Y-11879982D01*
X12437141Y-11731300D02*
X12416633Y-11704387D01*
X12283374Y-11435679D02*
X12265780Y-11427120D01*
X15014179Y-11640860D02*
X15002207Y-11644349D01*
X14679462Y-12190222D02*
X14578640Y-12254622D01*
X11549999Y-8181347D02*
G75*
G02*
X11649999Y-8181347I50000J-86602D01*
G01*
X12548786Y-8278889D02*
X12559617Y-8282934D01*
X12416633Y-11704387D02*
X12399511Y-11671412D01*
X16185832Y-10798339D02*
X16158069Y-10824945D01*
X14237733Y-10080254D02*
X14215627Y-10159976D01*
X13563300Y-8461990D02*
X13628368Y-8518575D01*
X13635799Y-12199719D02*
X13616531Y-12112118D01*
X14783502Y-12122140D02*
X14679462Y-12190222D01*
X14807591Y-10791184D02*
X14851356Y-10789131D01*
X11804759Y-8270698D02*
X11818584Y-8249548D01*
X11689573Y-11806335D02*
X11686438Y-11797614D01*
X14954010Y-10769928D02*
X14980132Y-10759069D01*
X12228676Y-11418088D02*
X12209207Y-11417624D01*
X15227559Y-11626034D02*
X15029116Y-11638933D01*
X14358170Y-10758670D02*
X14397083Y-10767465D01*
X11909124Y-8135697D02*
X12000139Y-8051028D01*
X14447350Y-10773581D02*
X14512318Y-10777577D01*
X14267443Y-9929489D02*
X14255993Y-9999108D01*
X14258739Y-9542515D02*
X14268014Y-9624320D01*
X14397083Y-10767465D02*
X14447350Y-10773581D01*
X12604385Y-8116546D02*
X12601751Y-8133534D01*
X12200904Y-7965174D02*
X12218848Y-7979865D01*
X12265780Y-11427120D02*
X12247541Y-11421255D01*
X13496768Y-11835691D02*
X13475665Y-11832991D01*
X13458921Y-11834205D02*
X13442505Y-11839904D01*
X14135900Y-10469933D02*
X14168700Y-10505723D01*
X12361090Y-11538770D02*
X12348901Y-11507052D01*
X15931214Y-10981945D02*
X15918099Y-10995645D01*
X12122161Y-11444586D02*
X12101181Y-11459763D01*
X16154658Y-11296085D02*
X16081671Y-11339893D01*
X12399511Y-11671412D02*
X12384786Y-11630069D01*
X12432266Y-8023969D02*
X12472482Y-8034117D01*
X14104614Y-10391508D02*
X14103908Y-10402772D01*
X13325392Y-8346135D02*
X13376970Y-8360597D01*
X12589988Y-8081484D02*
X12598807Y-8090054D01*
X16130586Y-10847362D02*
X16095622Y-10871358D01*
X12537904Y-8270897D02*
X12548786Y-8278889D01*
X15562428Y-11554854D02*
X15453773Y-11586786D01*
X14268014Y-9624320D02*
X14273350Y-9703671D01*
X13858720Y-8751722D02*
X13929018Y-8832268D01*
X13128845Y-8310283D02*
X13201833Y-8321080D01*
X14190842Y-12514348D02*
X14167340Y-12530507D01*
X12593619Y-8151610D02*
X12579338Y-8171888D01*
X16254546Y-10458680D02*
X16266800Y-10476530D01*
X14923456Y-11938392D02*
X14906849Y-11978457D01*
X15296000Y-11621205D02*
X15227559Y-11626034D01*
X13127689Y-11921017D02*
X13046710Y-11911392D01*
X12597544Y-11815218D02*
X12557946Y-11803809D01*
X14308779Y-10735756D02*
X14327263Y-10746636D01*
X15935008Y-11039848D02*
X15962654Y-11043268D01*
X11717263Y-11843761D02*
X11706854Y-11833395D01*
X14390402Y-12366375D02*
X14327208Y-12393314D01*
X12056648Y-11508327D02*
X12030301Y-11544761D01*
X14327208Y-12393314D02*
X14284675Y-12416858D01*
X12843142Y-11842928D02*
X12787920Y-11833727D01*
X14578640Y-12254622D02*
X14520626Y-12296616D01*
X12316543Y-11460855D02*
X12300301Y-11446925D01*
X15545968Y-10425501D02*
X15590345Y-10420655D01*
X16196271Y-11241048D02*
X16190689Y-11257266D01*
X15919307Y-11034550D02*
X15935008Y-11039848D01*
X15002207Y-11644349D02*
X14992849Y-11649970D01*
X16147115Y-11069659D02*
X16156541Y-11076646D01*
X9825000Y-10440000D02*
X9825000Y-9560000D01*
X10450000Y-9400000D02*
X10025000Y-9400000D01*
X10450000Y-9540000D02*
X9845000Y-9540000D01*
X10450000Y-10460000D02*
X9845000Y-10460000D01*
X10450000Y-10600000D02*
X10025000Y-10600000D01*
X9825000Y-9560000D02*
G75*
G02*
X9845000Y-9540000I20000J0D01*
G01*
X9845000Y-10460000D02*
G75*
G02*
X9825000Y-10440000I0J20000D01*
G01*
X10450000Y-9400000D02*
G75*
G02*
X10520000Y-9470000I0J-70000D01*
G01*
X10450000Y-10460000D02*
G75*
G02*
X10520000Y-10530000I0J-70000D01*
G01*
X10520000Y-9470000D02*
G75*
G02*
X10450000Y-9540000I-70000J0D01*
G01*
X10520000Y-10530000D02*
G75*
G02*
X10450000Y-10600000I-70000J0D01*
G01*
D12*
X10083277Y-12881670D02*
X10083277Y-12681670D01*
X10083277Y-12681670D02*
X10130896Y-12681670D01*
X10130896Y-12681670D02*
X10159467Y-12691194D01*
X10159467Y-12691194D02*
X10178515Y-12710242D01*
X10178515Y-12710242D02*
X10188039Y-12729289D01*
X10188039Y-12729289D02*
X10197563Y-12767384D01*
X10197563Y-12767384D02*
X10197563Y-12795956D01*
X10197563Y-12795956D02*
X10188039Y-12834051D01*
X10188039Y-12834051D02*
X10178515Y-12853099D01*
X10178515Y-12853099D02*
X10159467Y-12872146D01*
X10159467Y-12872146D02*
X10130896Y-12881670D01*
X10130896Y-12881670D02*
X10083277Y-12881670D01*
X10283277Y-12881670D02*
X10283277Y-12748337D01*
X10283277Y-12786432D02*
X10292801Y-12767384D01*
X10292801Y-12767384D02*
X10302324Y-12757861D01*
X10302324Y-12757861D02*
X10321372Y-12748337D01*
X10321372Y-12748337D02*
X10340420Y-12748337D01*
X10407086Y-12881670D02*
X10407086Y-12748337D01*
X10407086Y-12681670D02*
X10397563Y-12691194D01*
X10397563Y-12691194D02*
X10407086Y-12700718D01*
X10407086Y-12700718D02*
X10416610Y-12691194D01*
X10416610Y-12691194D02*
X10407086Y-12681670D01*
X10407086Y-12681670D02*
X10407086Y-12700718D01*
X10530896Y-12881670D02*
X10511848Y-12872146D01*
X10511848Y-12872146D02*
X10502324Y-12853099D01*
X10502324Y-12853099D02*
X10502324Y-12681670D01*
X10635658Y-12881670D02*
X10616610Y-12872146D01*
X10616610Y-12872146D02*
X10607086Y-12853099D01*
X10607086Y-12853099D02*
X10607086Y-12681670D01*
X10864229Y-12881670D02*
X10864229Y-12681670D01*
X10864229Y-12681670D02*
X10930896Y-12824527D01*
X10930896Y-12824527D02*
X10997563Y-12681670D01*
X10997563Y-12681670D02*
X10997563Y-12881670D01*
X11178515Y-12881670D02*
X11178515Y-12776908D01*
X11178515Y-12776908D02*
X11168991Y-12757861D01*
X11168991Y-12757861D02*
X11149944Y-12748337D01*
X11149944Y-12748337D02*
X11111848Y-12748337D01*
X11111848Y-12748337D02*
X11092801Y-12757861D01*
X11178515Y-12872146D02*
X11159467Y-12881670D01*
X11159467Y-12881670D02*
X11111848Y-12881670D01*
X11111848Y-12881670D02*
X11092801Y-12872146D01*
X11092801Y-12872146D02*
X11083277Y-12853099D01*
X11083277Y-12853099D02*
X11083277Y-12834051D01*
X11083277Y-12834051D02*
X11092801Y-12815004D01*
X11092801Y-12815004D02*
X11111848Y-12805480D01*
X11111848Y-12805480D02*
X11159467Y-12805480D01*
X11159467Y-12805480D02*
X11178515Y-12795956D01*
X11273753Y-12748337D02*
X11273753Y-12948337D01*
X11273753Y-12757861D02*
X11292801Y-12748337D01*
X11292801Y-12748337D02*
X11330896Y-12748337D01*
X11330896Y-12748337D02*
X11349943Y-12757861D01*
X11349943Y-12757861D02*
X11359467Y-12767384D01*
X11359467Y-12767384D02*
X11368991Y-12786432D01*
X11368991Y-12786432D02*
X11368991Y-12843575D01*
X11368991Y-12843575D02*
X11359467Y-12862623D01*
X11359467Y-12862623D02*
X11349943Y-12872146D01*
X11349943Y-12872146D02*
X11330896Y-12881670D01*
X11330896Y-12881670D02*
X11292801Y-12881670D01*
X11292801Y-12881670D02*
X11273753Y-12872146D01*
X11454705Y-12862623D02*
X11464229Y-12872146D01*
X11464229Y-12872146D02*
X11454705Y-12881670D01*
X11454705Y-12881670D02*
X11445182Y-12872146D01*
X11445182Y-12872146D02*
X11454705Y-12862623D01*
X11454705Y-12862623D02*
X11454705Y-12881670D01*
X11454705Y-12757861D02*
X11464229Y-12767384D01*
X11464229Y-12767384D02*
X11454705Y-12776908D01*
X11454705Y-12776908D02*
X11445182Y-12767384D01*
X11445182Y-12767384D02*
X11454705Y-12757861D01*
X11454705Y-12757861D02*
X11454705Y-12776908D01*
M02*
