G04 #@! TF.GenerationSoftware,KiCad,Pcbnew,8.0.1*
G04 #@! TF.CreationDate,2024-04-19T20:50:38+01:00*
G04 #@! TF.ProjectId,rabbit,72616262-6974-42e6-9b69-6361645f7063,rev?*
G04 #@! TF.SameCoordinates,Original*
G04 #@! TF.FileFunction,Profile,NP*
%FSLAX46Y46*%
G04 Gerber Fmt 4.6, Leading zero omitted, Abs format (unit mm)*
G04 Created by KiCad (PCBNEW 8.0.1) date 2024-04-19 20:50:38*
%MOMM*%
%LPD*%
G01*
G04 APERTURE LIST*
G04 #@! TA.AperFunction,Profile*
%ADD10C,0.050000*%
G04 #@! TD*
G04 #@! TA.AperFunction,Profile*
%ADD11C,0.100000*%
G04 #@! TD*
G04 APERTURE END LIST*
D10*
X127879199Y-118337270D02*
X127305319Y-118304915D01*
X159626540Y-110432676D02*
X160067598Y-110457177D01*
X142963659Y-107237193D02*
X143087790Y-107357556D01*
X162230979Y-104337384D02*
X162399292Y-104442843D01*
X161983506Y-112013184D02*
X161987947Y-112225310D01*
X154805664Y-104395559D02*
X155096690Y-104317874D01*
X149068492Y-119784568D02*
X148901186Y-120121000D01*
X121011811Y-114597629D02*
X120798092Y-114805020D01*
X141016263Y-90588866D02*
X141418475Y-91236629D01*
X123847859Y-116300688D02*
X123714703Y-115780521D01*
X161023658Y-110537465D02*
X161223868Y-110592555D01*
X122092070Y-114176238D02*
X121891529Y-114198674D01*
X153907676Y-104780702D02*
X154379093Y-104558832D01*
X135732303Y-118902393D02*
X135584797Y-118729874D01*
X159642572Y-104165572D02*
X161635984Y-104228716D01*
X142750601Y-97840015D02*
X142733703Y-98611900D01*
X134756650Y-118329910D02*
X134589206Y-118342053D01*
X132671806Y-83329969D02*
X133253916Y-83461352D01*
X162667997Y-104765299D02*
X162765389Y-104974360D01*
X125215834Y-117895365D02*
X124889801Y-117725763D01*
X120876982Y-79751979D02*
X121068803Y-79618282D01*
X148900580Y-107849260D02*
X149241306Y-107785359D01*
X120303012Y-115447612D02*
X119624598Y-116495528D01*
X125371031Y-82190226D02*
X125259051Y-82363164D01*
X125235981Y-82497864D02*
X125291177Y-82618575D01*
X100500000Y-90473725D02*
X115499995Y-81813472D01*
X159934332Y-113853800D02*
X158936680Y-114310834D01*
X125843293Y-82851637D02*
X127344317Y-82866370D01*
X121441466Y-114334475D02*
X121221612Y-114445860D01*
X156744431Y-115172840D02*
X155624278Y-115548540D01*
X149241306Y-107785359D02*
X149540102Y-107699280D01*
X142156268Y-101599761D02*
X141905183Y-102299394D01*
X135829405Y-119076484D02*
X135732303Y-118902393D01*
X142267946Y-124773647D02*
X142108021Y-124965233D01*
X134199467Y-118532560D02*
X133847735Y-118774285D01*
X126032316Y-81011834D02*
X126043846Y-81165465D01*
X159753716Y-109477608D02*
X159312142Y-109819454D01*
X144345879Y-123479427D02*
X143904017Y-123663748D01*
X160816707Y-113398927D02*
X159934332Y-113853800D01*
D11*
X100250000Y-94000000D02*
G75*
G02*
X100000000Y-93750000I0J250000D01*
G01*
D10*
X127305319Y-118304915D02*
X126843599Y-118287355D01*
X121240262Y-79524010D02*
X121397554Y-79469384D01*
X161774586Y-111106847D02*
X161889305Y-111492238D01*
X140068704Y-125661211D02*
X139815568Y-125601038D01*
X148513565Y-107891311D02*
X148900580Y-107849260D01*
X149445515Y-118799817D02*
X149234558Y-119383917D01*
X142888701Y-107089752D02*
X142963659Y-107237193D01*
X157807611Y-104143369D02*
X159642572Y-104165572D01*
X116499995Y-81813472D02*
X118047592Y-82706977D01*
X118410661Y-118253755D02*
X118252167Y-118392936D01*
X151662856Y-106197773D02*
X152269002Y-105769705D01*
X152269002Y-105769705D02*
X152848164Y-105388957D01*
X135181956Y-118435419D02*
X134967682Y-118356907D01*
X125756481Y-80738031D02*
X125899878Y-80814843D01*
X162767768Y-106563689D02*
X162681316Y-106810445D01*
X136283677Y-85185747D02*
X137071755Y-85934839D01*
X125582568Y-81954799D02*
X125371031Y-82190226D01*
X133284359Y-119118696D02*
X133121179Y-119178274D01*
X121397554Y-79469384D02*
X121546880Y-79454623D01*
X136904621Y-123374777D02*
X136757640Y-123155818D01*
X133450584Y-119034205D02*
X133284359Y-119118696D01*
X125596171Y-82829345D02*
X125843293Y-82851637D01*
X146415489Y-107847642D02*
X147583245Y-107911190D01*
X130119264Y-119045179D02*
X129813038Y-118963302D01*
X129813038Y-118963302D02*
X129551094Y-118868736D01*
X141617315Y-102917980D02*
X141285904Y-103472056D01*
X123714703Y-115780521D02*
X123610902Y-115387702D01*
X116499995Y-118186522D02*
X116864385Y-117976142D01*
X144943288Y-123159409D02*
X144674398Y-123320906D01*
X128928288Y-118573361D02*
X128431421Y-118429280D01*
X136006212Y-120239301D02*
X135918920Y-119542538D01*
X121068803Y-79618282D02*
X121240262Y-79524010D01*
X116499995Y-118186522D02*
G75*
G02*
X115499995Y-118186522I-500000J866022D01*
G01*
X140369354Y-125676865D02*
X140068704Y-125661211D01*
X130467098Y-119113916D02*
X130119264Y-119045179D01*
X118252167Y-118392936D02*
X118112001Y-118489641D01*
X161580692Y-108249450D02*
X161305862Y-108473622D01*
X121694437Y-79479950D02*
X121846424Y-79545583D01*
X117068539Y-118333948D02*
X116975707Y-118208881D01*
X149805664Y-116698920D02*
X149769387Y-116853339D01*
X127344317Y-82866370D02*
X128730251Y-82882653D01*
X148199557Y-120943415D02*
X147835025Y-121221405D01*
X141285904Y-103472056D02*
X141078477Y-103810041D01*
X117806319Y-118601897D02*
X117669786Y-118619378D01*
X132221024Y-119248447D02*
X131276892Y-119210168D01*
X136546041Y-122676323D02*
X136357994Y-121997191D01*
X142817507Y-106718291D02*
X142851382Y-106899718D01*
X141407185Y-125446680D02*
X141151839Y-125551702D01*
X137071755Y-85934839D02*
X137843172Y-86715516D01*
X162878748Y-105468303D02*
X162891715Y-105745249D01*
X149928487Y-116499703D02*
X149857525Y-116582944D01*
X129551094Y-118868736D02*
X129336107Y-118761932D01*
X162873539Y-106036886D02*
X162831383Y-106306716D01*
X142559932Y-99991076D02*
X142377333Y-100802544D01*
X143272631Y-107466358D02*
X143581698Y-107586697D01*
X118185845Y-82495481D02*
X118648263Y-81868264D01*
X100500000Y-109526269D02*
X115499995Y-118186522D01*
X142851382Y-106899718D02*
X142888701Y-107089752D01*
X148485944Y-120680580D02*
X148199557Y-120943415D01*
X144674398Y-123320906D02*
X144345879Y-123479427D01*
X161819537Y-112715812D02*
X161699744Y-112843887D01*
X125259051Y-82363164D02*
X125235981Y-82497864D01*
X139815568Y-125601038D02*
X139568304Y-125481383D01*
X149729511Y-117300326D02*
X149685266Y-117790544D01*
X152848164Y-105388957D02*
X153395877Y-105058350D01*
X156436822Y-104172064D02*
X157807611Y-104143369D01*
X149801324Y-107590690D02*
X150065594Y-107426107D01*
X133847735Y-118774285D02*
X133450584Y-119034205D01*
X123489015Y-115070522D02*
X123342654Y-114815347D01*
X155903453Y-104206546D02*
X156436822Y-104172064D01*
X137092452Y-123593985D02*
X136904621Y-123374777D01*
X123342654Y-114815347D02*
X123165431Y-114608546D01*
X141039079Y-104027716D02*
X141064730Y-104231744D01*
X139938459Y-89114618D02*
X140518372Y-89875772D01*
X159180988Y-109956453D02*
X159105619Y-110074493D01*
X126398564Y-118235853D02*
X125975442Y-118152177D01*
X142170266Y-105602814D02*
X142525028Y-106091138D01*
X142541032Y-124429081D02*
X142267946Y-124773647D01*
X141686999Y-105057231D02*
X142170266Y-105602814D01*
X122188480Y-79798655D02*
X122582003Y-80205140D01*
X160956221Y-108713584D02*
X160454162Y-109027015D01*
X124724825Y-80341175D02*
X125204729Y-80507885D01*
X162025189Y-104271844D02*
X162230979Y-104337384D01*
X141711348Y-91801789D02*
X141909360Y-92322435D01*
X157860973Y-114755393D02*
X156744431Y-115172840D01*
X125793380Y-81718879D02*
X125582568Y-81954799D01*
X141078477Y-103810041D02*
X141046140Y-103915084D01*
X151034193Y-106670343D02*
X151662856Y-106197773D01*
X126017514Y-81335340D02*
X125936194Y-81516102D01*
X100000000Y-93750000D02*
X100000000Y-91339750D01*
X141673397Y-125305068D02*
X141407185Y-125446680D01*
X117536560Y-118610749D02*
X117408232Y-118576950D01*
X154379093Y-104558832D02*
X154805664Y-104395559D01*
X138453194Y-124684923D02*
X137630846Y-124075472D01*
X122475409Y-114212553D02*
X122286765Y-114180881D01*
X141064730Y-104231744D02*
X141161476Y-104439891D01*
X162271173Y-107515817D02*
X161858316Y-107983389D01*
X132018331Y-83210801D02*
X132671806Y-83329969D01*
X117286392Y-118518924D02*
X117172630Y-118437610D01*
X142846747Y-124168584D02*
X142684374Y-124292012D01*
X161644959Y-110854826D02*
X161774586Y-111106847D01*
X142654403Y-106314117D02*
X142751871Y-106523129D01*
X132748375Y-119238889D02*
X132221024Y-119248447D01*
X135089370Y-84212561D02*
X135632997Y-84619897D01*
X161987947Y-112225310D02*
X161962714Y-112410483D01*
X149685266Y-117790544D02*
X149593176Y-118279533D01*
X137331178Y-123824023D02*
X137092452Y-123593985D01*
X118818746Y-117748275D02*
X118589158Y-118059408D01*
X162891715Y-105745249D02*
X162873539Y-106036886D01*
X129579328Y-82916372D02*
X131288452Y-83102827D01*
X160454162Y-109027015D02*
X159753716Y-109477608D01*
X161223868Y-110592555D02*
X161471146Y-110696590D01*
X100000000Y-91339750D02*
G75*
G02*
X100500021Y-90473762I1000000J-50D01*
G01*
X139568304Y-125481383D02*
X139285275Y-125287285D01*
X128730251Y-82882653D02*
X129579328Y-82916372D01*
X132947149Y-119216988D02*
X132748375Y-119238889D01*
X158936680Y-114310834D02*
X157860973Y-114755393D01*
X100000000Y-106250000D02*
X100000000Y-108660243D01*
X162836139Y-105210017D02*
X162878748Y-105468303D01*
X121846424Y-79545583D02*
X122009039Y-79651745D01*
X125579456Y-118038092D02*
X125215834Y-117895365D01*
X161635984Y-104228716D02*
X162025189Y-104271844D01*
X135390614Y-118561168D02*
X135181956Y-118435419D01*
X117970079Y-118555438D02*
X117806319Y-118601897D01*
X135918920Y-119542538D02*
X135887733Y-119280435D01*
X145206262Y-122966165D02*
X144943288Y-123159409D01*
X141161476Y-104439891D02*
X141359003Y-104699329D01*
X124004125Y-80205224D02*
X124322659Y-80239690D01*
X134425051Y-118399043D02*
X134199467Y-118532560D01*
X124889801Y-117725763D02*
X124606583Y-117531054D01*
X129336107Y-118761932D02*
X128928288Y-118573361D01*
X120798092Y-114805020D02*
X120566483Y-115083269D01*
X141151839Y-125551702D02*
X140904532Y-125622683D01*
X142452148Y-94548256D02*
X142587389Y-95425154D01*
X134622449Y-83939009D02*
X135089370Y-84212561D01*
X147583245Y-107911190D02*
X148075906Y-107911844D01*
X142733503Y-97036714D02*
X142750601Y-97840015D01*
X123484373Y-80271904D02*
X124004125Y-80205224D01*
X148713411Y-120413056D02*
X148485944Y-120680580D01*
X139285275Y-125287285D02*
X138453194Y-124684923D01*
X162831383Y-106306716D02*
X162767768Y-106563689D01*
X140649094Y-125663208D02*
X140369354Y-125676865D01*
X162765389Y-104974360D02*
X162836139Y-105210017D01*
X162434396Y-107283868D02*
X162271173Y-107515817D01*
X118112001Y-118489641D02*
X117970079Y-118555438D01*
X118589158Y-118059408D02*
X118410661Y-118253755D01*
X125988075Y-80900536D02*
X126032316Y-81011834D01*
X153522023Y-116116154D02*
X152959997Y-116212048D01*
D11*
X100000000Y-106250000D02*
G75*
G02*
X100250000Y-106000000I250000J0D01*
G01*
D10*
X120001391Y-80510284D02*
X120876982Y-79751979D01*
X159105619Y-110074493D02*
X159083057Y-110176316D01*
X121685345Y-114248238D02*
X121441466Y-114334475D01*
X124606583Y-117531054D02*
X124371406Y-117313003D01*
X161889305Y-111492238D02*
X161950318Y-111770147D01*
X145123178Y-107775769D02*
X146415489Y-107847642D01*
X150065594Y-107426107D02*
X150387479Y-107184595D01*
X137843172Y-86715516D02*
X138587201Y-87517219D01*
X150291163Y-116389332D02*
X150141788Y-116408603D01*
X134224199Y-83764850D02*
X134622449Y-83939009D01*
X140904532Y-125622683D02*
X140649094Y-125663208D01*
X136165310Y-121121184D02*
X136006212Y-120239301D01*
X149857525Y-116582944D02*
X149805664Y-116698920D01*
X142108021Y-124965233D02*
X141908423Y-125143479D01*
X142525028Y-106091138D02*
X142654403Y-106314117D01*
X122794749Y-80452325D02*
X122940154Y-80401984D01*
X161699744Y-112843887D02*
X161546582Y-112960850D01*
X149769387Y-116853339D02*
X149729511Y-117300326D01*
X142110091Y-92995475D02*
X142296650Y-93758288D01*
X142751871Y-106523129D02*
X142817507Y-106718291D01*
X133769701Y-83605972D02*
X134224199Y-83764850D01*
X160067598Y-110457177D02*
X160816031Y-110502606D01*
X139290182Y-88322677D02*
X139938459Y-89114618D01*
X162570651Y-107049624D02*
X162434396Y-107283868D01*
X141418475Y-91236629D02*
X141711348Y-91801789D01*
X153395877Y-105058350D02*
X153907676Y-104780702D01*
X162399292Y-104442843D02*
X162545464Y-104586804D01*
X155096690Y-104317874D02*
X155459681Y-104255009D01*
X148901186Y-120121000D02*
X148713411Y-120413056D01*
X161565406Y-110766459D02*
X161644959Y-110854826D01*
X125204729Y-80507885D02*
X125756481Y-80738031D01*
X159083057Y-110176316D02*
X159110325Y-110264665D01*
X118648263Y-81868264D02*
X119091240Y-81356975D01*
X123003015Y-114469251D02*
X122833737Y-114356788D01*
X100500000Y-109526268D02*
G75*
G02*
X99999963Y-108660243I500000J866068D01*
G01*
X161906886Y-112572664D02*
X161819537Y-112715812D01*
X122940154Y-80401984D02*
X123484373Y-80271904D01*
X126843599Y-118287355D02*
X126398564Y-118235853D01*
X161950318Y-111770147D02*
X161983506Y-112013184D01*
X142733703Y-98611900D02*
X142674434Y-99294891D01*
X117669786Y-118619378D02*
X117536560Y-118610749D01*
X154537734Y-115867857D02*
X153522023Y-116116154D01*
X160816031Y-110502606D02*
X161023658Y-110537465D01*
X142296650Y-93758288D02*
X142452148Y-94548256D01*
X116975707Y-118208881D02*
X116895727Y-118063348D01*
X117408232Y-118576950D02*
X117286392Y-118518924D01*
X162681316Y-106810445D02*
X162570651Y-107049624D01*
X159110325Y-110264665D02*
X159193069Y-110345502D01*
X133121179Y-119178274D02*
X132947149Y-119216988D01*
X142684374Y-124292012D02*
X142541032Y-124429081D01*
X137630846Y-124075472D02*
X137331178Y-123824023D01*
X140518372Y-89875772D02*
X141016263Y-90588866D01*
X135887733Y-119280435D02*
X135829405Y-119076484D01*
X150387479Y-107184595D02*
X151034193Y-106670343D01*
X141909360Y-92322435D02*
X142110091Y-92995475D01*
X136641462Y-122926526D02*
X136546041Y-122676323D01*
X122582003Y-80205140D02*
X122794749Y-80452325D01*
X121891529Y-114198674D02*
X121685345Y-114248238D01*
X135584797Y-118729874D02*
X135390614Y-118561168D01*
X141905183Y-102299394D02*
X141617315Y-102917980D01*
X119624598Y-116495528D02*
X118818746Y-117748275D01*
X125291177Y-82618575D02*
X125379038Y-82708973D01*
X121546880Y-79454623D02*
X121694437Y-79479950D01*
X136757640Y-123155818D02*
X136641462Y-122926526D01*
X149593176Y-118279533D02*
X149445515Y-118799817D01*
X124371406Y-117313003D02*
X124166329Y-117043868D01*
X122833737Y-114356788D02*
X122657801Y-114271205D01*
X150141788Y-116408603D02*
X150022069Y-116443492D01*
X146794625Y-121902220D02*
X145786402Y-122546220D01*
X115499995Y-81813472D02*
G75*
G02*
X116499995Y-81813472I500000J-866022D01*
G01*
X125487857Y-82788891D02*
X125596171Y-82829345D01*
X124166329Y-117043868D02*
X123995108Y-116714117D01*
X161858316Y-107983389D02*
X161580692Y-108249450D01*
X142377333Y-100802544D02*
X142156268Y-101599761D01*
X135632997Y-84619897D02*
X136283677Y-85185747D01*
X136357994Y-121997191D02*
X136165310Y-121121184D01*
X147835025Y-121221405D02*
X146794625Y-121902220D01*
X148075906Y-107911844D02*
X148513565Y-107891311D01*
X118047592Y-82706977D02*
X118185845Y-82495481D01*
X116895727Y-118063348D02*
X116864385Y-117976142D01*
X149540102Y-107699280D02*
X149801324Y-107590690D01*
X122286765Y-114180881D02*
X122092070Y-114176238D01*
X152275589Y-116260339D02*
X150291163Y-116389332D01*
X143581698Y-107586697D02*
X143970833Y-107674648D01*
X119091240Y-81356975D02*
X120001391Y-80510284D01*
X144473504Y-107735807D02*
X145123178Y-107775769D01*
X142674434Y-99294891D02*
X142559932Y-99991076D01*
X142587389Y-95425154D02*
X142680136Y-96243200D01*
X143970833Y-107674648D02*
X144473504Y-107735807D01*
X126043846Y-81165465D02*
X126017514Y-81335340D01*
X122009039Y-79651745D02*
X122188480Y-79798655D01*
X122657801Y-114271205D02*
X122475409Y-114212553D01*
X134967682Y-118356907D02*
X134756650Y-118329910D01*
X134589206Y-118342053D02*
X134425051Y-118399043D01*
X141359003Y-104699329D02*
X141686999Y-105057231D01*
X123610902Y-115387702D02*
X123489015Y-115070522D01*
X159312142Y-109819454D02*
X159180988Y-109956453D01*
X121221612Y-114445860D02*
X121011811Y-114597629D01*
X161546582Y-112960850D02*
X160816707Y-113398927D01*
X123995108Y-116714117D02*
X123847859Y-116300688D01*
X124322659Y-80239690D02*
X124724825Y-80341175D01*
X141046140Y-103915084D02*
X141039079Y-104027716D01*
X133253916Y-83461352D02*
X133769701Y-83605972D01*
X125899878Y-80814843D02*
X125988075Y-80900536D01*
X161305862Y-108473622D02*
X160956221Y-108713584D01*
X125379038Y-82708973D02*
X125487857Y-82788891D01*
X155624278Y-115548540D02*
X154537734Y-115867857D01*
X142680136Y-96243200D02*
X142733503Y-97036714D01*
X138587201Y-87517219D02*
X139290182Y-88322677D01*
X131288452Y-83102827D02*
X132018331Y-83210801D01*
X141908423Y-125143479D02*
X141673397Y-125305068D01*
X125936194Y-81516102D02*
X125793380Y-81718879D01*
X162545464Y-104586804D02*
X162667997Y-104765299D01*
X149234558Y-119383917D02*
X149068492Y-119784568D01*
X152959997Y-116212048D02*
X152275589Y-116260339D01*
X131276892Y-119210168D02*
X130467098Y-119113916D01*
X125975442Y-118152177D02*
X125579456Y-118038092D01*
X143087790Y-107357556D02*
X143272631Y-107466358D01*
X159350085Y-110398479D02*
X159626540Y-110432676D01*
X117172630Y-118437610D02*
X117068539Y-118333948D01*
X143904017Y-123663748D02*
X143272080Y-123933143D01*
X120566483Y-115083269D02*
X120303012Y-115447612D01*
X143272080Y-123933143D02*
X142846747Y-124168584D01*
X128431421Y-118429280D02*
X127879199Y-118337270D01*
X145786402Y-122546220D02*
X145206262Y-122966165D01*
X123165431Y-114608546D02*
X123003015Y-114469251D01*
X155459681Y-104255009D02*
X155903453Y-104206546D01*
X161962714Y-112410483D02*
X161906886Y-112572664D01*
X159193069Y-110345502D02*
X159350085Y-110398479D01*
X150022069Y-116443492D02*
X149928487Y-116499703D01*
X161471146Y-110696590D02*
X161565406Y-110766459D01*
X98250000Y-104400000D02*
X98250000Y-95600000D01*
X104500000Y-94000000D02*
X100250000Y-94000000D01*
X104500000Y-95400000D02*
X98450000Y-95400000D01*
X104500000Y-104600000D02*
X98450000Y-104600000D01*
X104500000Y-106000000D02*
X100250000Y-106000000D01*
X98250000Y-95600000D02*
G75*
G02*
X98450000Y-95400000I200000J0D01*
G01*
X98450000Y-104600000D02*
G75*
G02*
X98250000Y-104400000I0J200000D01*
G01*
X104500000Y-94000000D02*
G75*
G02*
X105200000Y-94700000I0J-700000D01*
G01*
X104500000Y-104600000D02*
G75*
G02*
X105200000Y-105300000I0J-700000D01*
G01*
X105200000Y-94700000D02*
G75*
G02*
X104500000Y-95400000I-700000J0D01*
G01*
X105200000Y-105300000D02*
G75*
G02*
X104500000Y-106000000I-700000J0D01*
G01*
M02*
