M48
; DRILL file {KiCad 8.0.1} date 2024-04-18T14:38:22+0100
; FORMAT={-:-/ absolute / metric / decimal}
; #@! TF.CreationDate,2024-04-18T14:38:22+01:00
; #@! TF.GenerationSoftware,Kicad,Pcbnew,8.0.1
; #@! TF.FileFunction,Plated,1,2,PTH
FMAT,2
METRIC
; #@! TA.AperFunction,Plated,PTH,ViaDrill
T1C0.300
; #@! TA.AperFunction,Plated,PTH,ComponentDrill
T2C0.400
; #@! TA.AperFunction,Plated,PTH,ComponentDrill
T3C2.200
%
G90
G05
T1
X103.759Y-97.409
X103.759Y-98.171
X104.521Y-96.266
X104.521Y-99.06
X104.521Y-103.505
X106.553Y-97.917
X106.68Y-88.392
X107.569Y-92.583
X107.696Y-91.567
X107.696Y-106.299
X108.204Y-96.012
X109.117Y-100.076
X109.117Y-102.108
X109.474Y-97.028
X110.617Y-108.712
X110.871Y-93.091
X111.741Y-94.946
X112.008Y-95.658
X112.549Y-96.191
X113.073Y-91.468
X113.157Y-96.647
X113.919Y-93.98
X113.919Y-106.045
X114.427Y-90.805
X114.935Y-93.091
X114.935Y-94.869
X114.935Y-105.156
X114.935Y-106.934
X115.951Y-93.98
X115.951Y-106.045
X116.205Y-102.737
X116.713Y-97.663
X117.221Y-98.298
X117.348Y-102.737
X117.602Y-89.281
X118.237Y-95.123
X118.237Y-96.393
X118.491Y-107.027
X118.628Y-97.045
X118.693Y-95.731
X118.745Y-94.488
X119.281Y-106.014
X119.326Y-105.236
X119.38Y-107.027
X119.38Y-110.363
X119.914Y-104.754
X120.523Y-104.267
X121.158Y-103.759
X135.128Y-86.36
X135.128Y-87.884
X135.128Y-89.408
X135.128Y-90.932
X135.128Y-97.663
X135.128Y-99.187
X135.128Y-100.711
X135.128Y-109.22
X135.128Y-110.744
X135.128Y-112.268
X135.128Y-113.792
X135.89Y-87.122
X135.89Y-88.646
X135.89Y-90.17
X135.89Y-98.425
X135.89Y-99.949
X135.89Y-101.473
X135.89Y-109.982
X135.89Y-111.506
X135.89Y-113.03
X155.194Y-91.567
X155.321Y-108.458
T2
X110.85Y-87.5
X110.85Y-112.5
X111.333Y-86.333
X111.333Y-88.667
X111.333Y-111.333
X111.333Y-113.667
X112.5Y-85.85
X112.5Y-89.15
X112.5Y-110.85
X112.5Y-114.15
X113.667Y-86.333
X113.667Y-88.667
X113.667Y-111.333
X113.667Y-113.667
X114.15Y-87.5
X114.15Y-112.5
T3
X112.5Y-87.5
X112.5Y-112.5
M30
