%TF.GenerationSoftware,KiCad,Pcbnew,8.0.1*%
%TF.CreationDate,2024-04-20T17:08:21+01:00*%
%TF.ProjectId,makerspace-badge,6d616b65-7273-4706-9163-652d62616467,rev?*%
%TF.SameCoordinates,Original*%
%TF.FileFunction,Drillmap*%
%TF.FilePolarity,Positive*%
%FSLAX45Y45*%
G04 Gerber Fmt 4.5, Leading zero omitted, Abs format (unit mm)*
G04 Created by KiCad (PCBNEW 8.0.1) date 2024-04-20 17:08:21*
%MOMM*%
%LPD*%
G01*
G04 APERTURE LIST*
%ADD10C,0.050000*%
%ADD11C,0.100000*%
%ADD12C,0.200000*%
%ADD13C,0.220000*%
G04 APERTURE END LIST*
D10*
X10050000Y-9047373D02*
X11549999Y-8181347D01*
D11*
X10025000Y-9400000D02*
G75*
G02*
X10000000Y-9375000I0J25000D01*
G01*
D10*
X10050000Y-10952627D02*
X11549999Y-11818652D01*
X11549999Y-11818652D02*
X12909461Y-12452580D01*
X10000000Y-9375000D02*
X10000000Y-9133975D01*
X10000000Y-9133975D02*
G75*
G02*
X10050002Y-9047376I100000J-5D01*
G01*
X10000000Y-10625000D02*
X10000000Y-10866024D01*
X12909461Y-7547420D02*
G75*
G02*
X12909461Y-12452580I1037463J-2452580D01*
G01*
D11*
X10000000Y-10625000D02*
G75*
G02*
X10025000Y-10600000I25000J0D01*
G01*
D10*
X10050000Y-10952627D02*
G75*
G02*
X9999996Y-10866024I50000J86607D01*
G01*
X11549999Y-8181347D02*
X12909461Y-7547420D01*
X9825000Y-10440000D02*
X9825000Y-9560000D01*
X10450000Y-9400000D02*
X10025000Y-9400000D01*
X10450000Y-9540000D02*
X9845000Y-9540000D01*
X10450000Y-10460000D02*
X9845000Y-10460000D01*
X10450000Y-10600000D02*
X10025000Y-10600000D01*
X9825000Y-9560000D02*
G75*
G02*
X9845000Y-9540000I20000J0D01*
G01*
X9845000Y-10460000D02*
G75*
G02*
X9825000Y-10440000I0J20000D01*
G01*
X10450000Y-9400000D02*
G75*
G02*
X10520000Y-9470000I0J-70000D01*
G01*
X10450000Y-10460000D02*
G75*
G02*
X10520000Y-10530000I0J-70000D01*
G01*
X10520000Y-9470000D02*
G75*
G02*
X10450000Y-9540000I-70000J0D01*
G01*
X10520000Y-10530000D02*
G75*
G02*
X10450000Y-10600000I-70000J0D01*
G01*
D12*
D11*
X10360900Y-9725900D02*
X10390900Y-9755900D01*
X10390900Y-9725900D02*
X10360900Y-9755900D01*
X10360900Y-9802100D02*
X10390900Y-9832100D01*
X10390900Y-9802100D02*
X10360900Y-9832100D01*
X10437100Y-9611600D02*
X10467100Y-9641600D01*
X10467100Y-9611600D02*
X10437100Y-9641600D01*
X10437100Y-9891000D02*
X10467100Y-9921000D01*
X10467100Y-9891000D02*
X10437100Y-9921000D01*
X10437100Y-10335500D02*
X10467100Y-10365500D01*
X10467100Y-10335500D02*
X10437100Y-10365500D01*
X10640300Y-9776700D02*
X10670300Y-9806700D01*
X10670300Y-9776700D02*
X10640300Y-9806700D01*
X10653000Y-8824200D02*
X10683000Y-8854200D01*
X10683000Y-8824200D02*
X10653000Y-8854200D01*
X10741900Y-9243300D02*
X10771900Y-9273300D01*
X10771900Y-9243300D02*
X10741900Y-9273300D01*
X10754600Y-9141700D02*
X10784600Y-9171700D01*
X10784600Y-9141700D02*
X10754600Y-9171700D01*
X10754600Y-10614900D02*
X10784600Y-10644900D01*
X10784600Y-10614900D02*
X10754600Y-10644900D01*
X10805400Y-9586200D02*
X10835400Y-9616200D01*
X10835400Y-9586200D02*
X10805400Y-9616200D01*
X10896650Y-9992600D02*
X10926650Y-10022600D01*
X10926650Y-9992600D02*
X10896650Y-10022600D01*
X10896650Y-10195800D02*
X10926650Y-10225800D01*
X10926650Y-10195800D02*
X10896650Y-10225800D01*
X10932400Y-9687800D02*
X10962400Y-9717800D01*
X10962400Y-9687800D02*
X10932400Y-9717800D01*
X11046700Y-10856200D02*
X11076700Y-10886200D01*
X11076700Y-10856200D02*
X11046700Y-10886200D01*
X11072100Y-9294100D02*
X11102100Y-9324100D01*
X11102100Y-9294100D02*
X11072100Y-9324100D01*
X11159120Y-9479579D02*
X11189120Y-9509579D01*
X11189120Y-9479579D02*
X11159120Y-9509579D01*
X11185767Y-9550755D02*
X11215767Y-9580755D01*
X11215767Y-9550755D02*
X11185767Y-9580755D01*
X11239900Y-9604100D02*
X11269900Y-9634100D01*
X11269900Y-9604100D02*
X11239900Y-9634100D01*
X11292332Y-9131800D02*
X11322332Y-9161800D01*
X11322332Y-9131800D02*
X11292332Y-9161800D01*
X11300700Y-9649700D02*
X11330700Y-9679700D01*
X11330700Y-9649700D02*
X11300700Y-9679700D01*
X11376900Y-9383000D02*
X11406900Y-9413000D01*
X11406900Y-9383000D02*
X11376900Y-9413000D01*
X11376900Y-10589500D02*
X11406900Y-10619500D01*
X11406900Y-10589500D02*
X11376900Y-10619500D01*
X11427700Y-9065500D02*
X11457700Y-9095500D01*
X11457700Y-9065500D02*
X11427700Y-9095500D01*
X11478500Y-9294100D02*
X11508500Y-9324100D01*
X11508500Y-9294100D02*
X11478500Y-9324100D01*
X11478500Y-9471900D02*
X11508500Y-9501900D01*
X11508500Y-9471900D02*
X11478500Y-9501900D01*
X11478500Y-10500600D02*
X11508500Y-10530600D01*
X11508500Y-10500600D02*
X11478500Y-10530600D01*
X11478500Y-10678400D02*
X11508500Y-10708400D01*
X11508500Y-10678400D02*
X11478500Y-10708400D01*
X11580100Y-9383000D02*
X11610100Y-9413000D01*
X11610100Y-9383000D02*
X11580100Y-9413000D01*
X11580100Y-10589500D02*
X11610100Y-10619500D01*
X11610100Y-10589500D02*
X11580100Y-10619500D01*
X11605500Y-10258721D02*
X11635500Y-10288721D01*
X11635500Y-10258721D02*
X11605500Y-10288721D01*
X11656300Y-9751300D02*
X11686300Y-9781300D01*
X11686300Y-9751300D02*
X11656300Y-9781300D01*
X11707100Y-9814800D02*
X11737100Y-9844800D01*
X11737100Y-9814800D02*
X11707100Y-9844800D01*
X11719800Y-10258721D02*
X11749800Y-10288721D01*
X11749800Y-10258721D02*
X11719800Y-10288721D01*
X11745200Y-8913100D02*
X11775200Y-8943100D01*
X11775200Y-8913100D02*
X11745200Y-8943100D01*
X11808700Y-9497300D02*
X11838700Y-9527300D01*
X11838700Y-9497300D02*
X11808700Y-9527300D01*
X11808700Y-9624300D02*
X11838700Y-9654300D01*
X11838700Y-9624300D02*
X11808700Y-9654300D01*
X11834100Y-10687742D02*
X11864100Y-10717742D01*
X11864100Y-10687742D02*
X11834100Y-10717742D01*
X11847802Y-9689470D02*
X11877802Y-9719470D01*
X11877802Y-9689470D02*
X11847802Y-9719470D01*
X11854300Y-9558100D02*
X11884300Y-9588100D01*
X11884300Y-9558100D02*
X11854300Y-9588100D01*
X11859500Y-9433800D02*
X11889500Y-9463800D01*
X11889500Y-9433800D02*
X11859500Y-9463800D01*
X11913115Y-10586376D02*
X11943115Y-10616376D01*
X11943115Y-10586376D02*
X11913115Y-10616376D01*
X11917562Y-10508572D02*
X11947562Y-10538572D01*
X11947562Y-10508572D02*
X11917562Y-10538572D01*
X11923000Y-10687742D02*
X11953000Y-10717742D01*
X11953000Y-10687742D02*
X11923000Y-10717742D01*
X11923000Y-11021300D02*
X11953000Y-11051300D01*
X11953000Y-11021300D02*
X11923000Y-11051300D01*
X11976353Y-10460409D02*
X12006353Y-10490409D01*
X12006353Y-10460409D02*
X11976353Y-10490409D01*
X12037300Y-10411700D02*
X12067300Y-10441700D01*
X12067300Y-10411700D02*
X12037300Y-10441700D01*
X12100800Y-10360900D02*
X12130800Y-10390900D01*
X12130800Y-10360900D02*
X12100800Y-10390900D01*
X13497800Y-8621000D02*
X13527800Y-8651000D01*
X13527800Y-8621000D02*
X13497800Y-8651000D01*
X13497800Y-8773400D02*
X13527800Y-8803400D01*
X13527800Y-8773400D02*
X13497800Y-8803400D01*
X13497800Y-8925800D02*
X13527800Y-8955800D01*
X13527800Y-8925800D02*
X13497800Y-8955800D01*
X13497800Y-9078200D02*
X13527800Y-9108200D01*
X13527800Y-9078200D02*
X13497800Y-9108200D01*
X13497800Y-9751300D02*
X13527800Y-9781300D01*
X13527800Y-9751300D02*
X13497800Y-9781300D01*
X13497800Y-9903700D02*
X13527800Y-9933700D01*
X13527800Y-9903700D02*
X13497800Y-9933700D01*
X13497800Y-10056100D02*
X13527800Y-10086100D01*
X13527800Y-10056100D02*
X13497800Y-10086100D01*
X13497800Y-10907000D02*
X13527800Y-10937000D01*
X13527800Y-10907000D02*
X13497800Y-10937000D01*
X13497800Y-11059400D02*
X13527800Y-11089400D01*
X13527800Y-11059400D02*
X13497800Y-11089400D01*
X13497800Y-11211800D02*
X13527800Y-11241800D01*
X13527800Y-11211800D02*
X13497800Y-11241800D01*
X13497800Y-11364200D02*
X13527800Y-11394200D01*
X13527800Y-11364200D02*
X13497800Y-11394200D01*
X13574000Y-8697200D02*
X13604000Y-8727200D01*
X13604000Y-8697200D02*
X13574000Y-8727200D01*
X13574000Y-8849600D02*
X13604000Y-8879600D01*
X13604000Y-8849600D02*
X13574000Y-8879600D01*
X13574000Y-9002000D02*
X13604000Y-9032000D01*
X13604000Y-9002000D02*
X13574000Y-9032000D01*
X13574000Y-9827500D02*
X13604000Y-9857500D01*
X13604000Y-9827500D02*
X13574000Y-9857500D01*
X13574000Y-9979900D02*
X13604000Y-10009900D01*
X13604000Y-9979900D02*
X13574000Y-10009900D01*
X13574000Y-10132300D02*
X13604000Y-10162300D01*
X13604000Y-10132300D02*
X13574000Y-10162300D01*
X13574000Y-10983200D02*
X13604000Y-11013200D01*
X13604000Y-10983200D02*
X13574000Y-11013200D01*
X13574000Y-11135600D02*
X13604000Y-11165600D01*
X13604000Y-11135600D02*
X13574000Y-11165600D01*
X13574000Y-11288000D02*
X13604000Y-11318000D01*
X13604000Y-11288000D02*
X13574000Y-11318000D01*
X15504400Y-9141700D02*
X15534400Y-9171700D01*
X15534400Y-9141700D02*
X15504400Y-9171700D01*
X15517100Y-10830800D02*
X15547100Y-10860800D01*
X15547100Y-10830800D02*
X15517100Y-10860800D01*
X11105000Y-8750000D02*
G75*
G02*
X11065000Y-8750000I-20000J0D01*
G01*
X11065000Y-8750000D02*
G75*
G02*
X11105000Y-8750000I20000J0D01*
G01*
X11105000Y-11250000D02*
G75*
G02*
X11065000Y-11250000I-20000J0D01*
G01*
X11065000Y-11250000D02*
G75*
G02*
X11105000Y-11250000I20000J0D01*
G01*
X11153327Y-8633327D02*
G75*
G02*
X11113327Y-8633327I-20000J0D01*
G01*
X11113327Y-8633327D02*
G75*
G02*
X11153327Y-8633327I20000J0D01*
G01*
X11153327Y-8866673D02*
G75*
G02*
X11113327Y-8866673I-20000J0D01*
G01*
X11113327Y-8866673D02*
G75*
G02*
X11153327Y-8866673I20000J0D01*
G01*
X11153327Y-11133327D02*
G75*
G02*
X11113327Y-11133327I-20000J0D01*
G01*
X11113327Y-11133327D02*
G75*
G02*
X11153327Y-11133327I20000J0D01*
G01*
X11153327Y-11366673D02*
G75*
G02*
X11113327Y-11366673I-20000J0D01*
G01*
X11113327Y-11366673D02*
G75*
G02*
X11153327Y-11366673I20000J0D01*
G01*
X11270000Y-8585000D02*
G75*
G02*
X11230000Y-8585000I-20000J0D01*
G01*
X11230000Y-8585000D02*
G75*
G02*
X11270000Y-8585000I20000J0D01*
G01*
X11270000Y-8915000D02*
G75*
G02*
X11230000Y-8915000I-20000J0D01*
G01*
X11230000Y-8915000D02*
G75*
G02*
X11270000Y-8915000I20000J0D01*
G01*
X11270000Y-11085000D02*
G75*
G02*
X11230000Y-11085000I-20000J0D01*
G01*
X11230000Y-11085000D02*
G75*
G02*
X11270000Y-11085000I20000J0D01*
G01*
X11270000Y-11415000D02*
G75*
G02*
X11230000Y-11415000I-20000J0D01*
G01*
X11230000Y-11415000D02*
G75*
G02*
X11270000Y-11415000I20000J0D01*
G01*
X11386673Y-8633327D02*
G75*
G02*
X11346673Y-8633327I-20000J0D01*
G01*
X11346673Y-8633327D02*
G75*
G02*
X11386673Y-8633327I20000J0D01*
G01*
X11386673Y-8866673D02*
G75*
G02*
X11346673Y-8866673I-20000J0D01*
G01*
X11346673Y-8866673D02*
G75*
G02*
X11386673Y-8866673I20000J0D01*
G01*
X11386673Y-11133327D02*
G75*
G02*
X11346673Y-11133327I-20000J0D01*
G01*
X11346673Y-11133327D02*
G75*
G02*
X11386673Y-11133327I20000J0D01*
G01*
X11386673Y-11366673D02*
G75*
G02*
X11346673Y-11366673I-20000J0D01*
G01*
X11346673Y-11366673D02*
G75*
G02*
X11386673Y-11366673I20000J0D01*
G01*
X11435000Y-8750000D02*
G75*
G02*
X11395000Y-8750000I-20000J0D01*
G01*
X11395000Y-8750000D02*
G75*
G02*
X11435000Y-8750000I20000J0D01*
G01*
X11435000Y-11250000D02*
G75*
G02*
X11395000Y-11250000I-20000J0D01*
G01*
X11395000Y-11250000D02*
G75*
G02*
X11435000Y-11250000I20000J0D01*
G01*
D13*
X11250000Y-8640000D02*
X11250000Y-8860000D01*
X11140000Y-8750000D02*
X11360000Y-8750000D01*
X11250000Y-11140000D02*
X11250000Y-11360000D01*
X11140000Y-11250000D02*
X11360000Y-11250000D01*
D12*
X10083277Y-12976967D02*
X10083277Y-12776967D01*
X10083277Y-12776967D02*
X10130896Y-12776967D01*
X10130896Y-12776967D02*
X10159467Y-12786491D01*
X10159467Y-12786491D02*
X10178515Y-12805538D01*
X10178515Y-12805538D02*
X10188039Y-12824586D01*
X10188039Y-12824586D02*
X10197563Y-12862681D01*
X10197563Y-12862681D02*
X10197563Y-12891252D01*
X10197563Y-12891252D02*
X10188039Y-12929348D01*
X10188039Y-12929348D02*
X10178515Y-12948395D01*
X10178515Y-12948395D02*
X10159467Y-12967443D01*
X10159467Y-12967443D02*
X10130896Y-12976967D01*
X10130896Y-12976967D02*
X10083277Y-12976967D01*
X10283277Y-12976967D02*
X10283277Y-12843633D01*
X10283277Y-12881729D02*
X10292801Y-12862681D01*
X10292801Y-12862681D02*
X10302324Y-12853157D01*
X10302324Y-12853157D02*
X10321372Y-12843633D01*
X10321372Y-12843633D02*
X10340420Y-12843633D01*
X10407086Y-12976967D02*
X10407086Y-12843633D01*
X10407086Y-12776967D02*
X10397563Y-12786491D01*
X10397563Y-12786491D02*
X10407086Y-12796014D01*
X10407086Y-12796014D02*
X10416610Y-12786491D01*
X10416610Y-12786491D02*
X10407086Y-12776967D01*
X10407086Y-12776967D02*
X10407086Y-12796014D01*
X10530896Y-12976967D02*
X10511848Y-12967443D01*
X10511848Y-12967443D02*
X10502324Y-12948395D01*
X10502324Y-12948395D02*
X10502324Y-12776967D01*
X10635658Y-12976967D02*
X10616610Y-12967443D01*
X10616610Y-12967443D02*
X10607086Y-12948395D01*
X10607086Y-12948395D02*
X10607086Y-12776967D01*
X10864229Y-12976967D02*
X10864229Y-12776967D01*
X10864229Y-12776967D02*
X10930896Y-12919824D01*
X10930896Y-12919824D02*
X10997563Y-12776967D01*
X10997563Y-12776967D02*
X10997563Y-12976967D01*
X11178515Y-12976967D02*
X11178515Y-12872205D01*
X11178515Y-12872205D02*
X11168991Y-12853157D01*
X11168991Y-12853157D02*
X11149944Y-12843633D01*
X11149944Y-12843633D02*
X11111848Y-12843633D01*
X11111848Y-12843633D02*
X11092801Y-12853157D01*
X11178515Y-12967443D02*
X11159467Y-12976967D01*
X11159467Y-12976967D02*
X11111848Y-12976967D01*
X11111848Y-12976967D02*
X11092801Y-12967443D01*
X11092801Y-12967443D02*
X11083277Y-12948395D01*
X11083277Y-12948395D02*
X11083277Y-12929348D01*
X11083277Y-12929348D02*
X11092801Y-12910300D01*
X11092801Y-12910300D02*
X11111848Y-12900776D01*
X11111848Y-12900776D02*
X11159467Y-12900776D01*
X11159467Y-12900776D02*
X11178515Y-12891252D01*
X11273753Y-12843633D02*
X11273753Y-13043633D01*
X11273753Y-12853157D02*
X11292801Y-12843633D01*
X11292801Y-12843633D02*
X11330896Y-12843633D01*
X11330896Y-12843633D02*
X11349943Y-12853157D01*
X11349943Y-12853157D02*
X11359467Y-12862681D01*
X11359467Y-12862681D02*
X11368991Y-12881729D01*
X11368991Y-12881729D02*
X11368991Y-12938871D01*
X11368991Y-12938871D02*
X11359467Y-12957919D01*
X11359467Y-12957919D02*
X11349943Y-12967443D01*
X11349943Y-12967443D02*
X11330896Y-12976967D01*
X11330896Y-12976967D02*
X11292801Y-12976967D01*
X11292801Y-12976967D02*
X11273753Y-12967443D01*
X11454705Y-12957919D02*
X11464229Y-12967443D01*
X11464229Y-12967443D02*
X11454705Y-12976967D01*
X11454705Y-12976967D02*
X11445182Y-12967443D01*
X11445182Y-12967443D02*
X11454705Y-12957919D01*
X11454705Y-12957919D02*
X11454705Y-12976967D01*
X11454705Y-12853157D02*
X11464229Y-12862681D01*
X11464229Y-12862681D02*
X11454705Y-12872205D01*
X11454705Y-12872205D02*
X11445182Y-12862681D01*
X11445182Y-12862681D02*
X11454705Y-12853157D01*
X11454705Y-12853157D02*
X11454705Y-12872205D01*
D11*
X9792500Y-13290483D02*
X9822500Y-13320483D01*
X9822500Y-13290483D02*
X9792500Y-13320483D01*
D12*
X10121372Y-13196967D02*
X10140420Y-13196967D01*
X10140420Y-13196967D02*
X10159467Y-13206491D01*
X10159467Y-13206491D02*
X10168991Y-13216014D01*
X10168991Y-13216014D02*
X10178515Y-13235062D01*
X10178515Y-13235062D02*
X10188039Y-13273157D01*
X10188039Y-13273157D02*
X10188039Y-13320776D01*
X10188039Y-13320776D02*
X10178515Y-13358871D01*
X10178515Y-13358871D02*
X10168991Y-13377919D01*
X10168991Y-13377919D02*
X10159467Y-13387443D01*
X10159467Y-13387443D02*
X10140420Y-13396967D01*
X10140420Y-13396967D02*
X10121372Y-13396967D01*
X10121372Y-13396967D02*
X10102324Y-13387443D01*
X10102324Y-13387443D02*
X10092801Y-13377919D01*
X10092801Y-13377919D02*
X10083277Y-13358871D01*
X10083277Y-13358871D02*
X10073753Y-13320776D01*
X10073753Y-13320776D02*
X10073753Y-13273157D01*
X10073753Y-13273157D02*
X10083277Y-13235062D01*
X10083277Y-13235062D02*
X10092801Y-13216014D01*
X10092801Y-13216014D02*
X10102324Y-13206491D01*
X10102324Y-13206491D02*
X10121372Y-13196967D01*
X10273753Y-13377919D02*
X10283277Y-13387443D01*
X10283277Y-13387443D02*
X10273753Y-13396967D01*
X10273753Y-13396967D02*
X10264229Y-13387443D01*
X10264229Y-13387443D02*
X10273753Y-13377919D01*
X10273753Y-13377919D02*
X10273753Y-13396967D01*
X10349944Y-13196967D02*
X10473753Y-13196967D01*
X10473753Y-13196967D02*
X10407086Y-13273157D01*
X10407086Y-13273157D02*
X10435658Y-13273157D01*
X10435658Y-13273157D02*
X10454705Y-13282681D01*
X10454705Y-13282681D02*
X10464229Y-13292205D01*
X10464229Y-13292205D02*
X10473753Y-13311252D01*
X10473753Y-13311252D02*
X10473753Y-13358871D01*
X10473753Y-13358871D02*
X10464229Y-13377919D01*
X10464229Y-13377919D02*
X10454705Y-13387443D01*
X10454705Y-13387443D02*
X10435658Y-13396967D01*
X10435658Y-13396967D02*
X10378515Y-13396967D01*
X10378515Y-13396967D02*
X10359467Y-13387443D01*
X10359467Y-13387443D02*
X10349944Y-13377919D01*
X10597563Y-13196967D02*
X10616610Y-13196967D01*
X10616610Y-13196967D02*
X10635658Y-13206491D01*
X10635658Y-13206491D02*
X10645182Y-13216014D01*
X10645182Y-13216014D02*
X10654705Y-13235062D01*
X10654705Y-13235062D02*
X10664229Y-13273157D01*
X10664229Y-13273157D02*
X10664229Y-13320776D01*
X10664229Y-13320776D02*
X10654705Y-13358871D01*
X10654705Y-13358871D02*
X10645182Y-13377919D01*
X10645182Y-13377919D02*
X10635658Y-13387443D01*
X10635658Y-13387443D02*
X10616610Y-13396967D01*
X10616610Y-13396967D02*
X10597563Y-13396967D01*
X10597563Y-13396967D02*
X10578515Y-13387443D01*
X10578515Y-13387443D02*
X10568991Y-13377919D01*
X10568991Y-13377919D02*
X10559467Y-13358871D01*
X10559467Y-13358871D02*
X10549944Y-13320776D01*
X10549944Y-13320776D02*
X10549944Y-13273157D01*
X10549944Y-13273157D02*
X10559467Y-13235062D01*
X10559467Y-13235062D02*
X10568991Y-13216014D01*
X10568991Y-13216014D02*
X10578515Y-13206491D01*
X10578515Y-13206491D02*
X10597563Y-13196967D01*
X10788039Y-13196967D02*
X10807086Y-13196967D01*
X10807086Y-13196967D02*
X10826134Y-13206491D01*
X10826134Y-13206491D02*
X10835658Y-13216014D01*
X10835658Y-13216014D02*
X10845182Y-13235062D01*
X10845182Y-13235062D02*
X10854705Y-13273157D01*
X10854705Y-13273157D02*
X10854705Y-13320776D01*
X10854705Y-13320776D02*
X10845182Y-13358871D01*
X10845182Y-13358871D02*
X10835658Y-13377919D01*
X10835658Y-13377919D02*
X10826134Y-13387443D01*
X10826134Y-13387443D02*
X10807086Y-13396967D01*
X10807086Y-13396967D02*
X10788039Y-13396967D01*
X10788039Y-13396967D02*
X10768991Y-13387443D01*
X10768991Y-13387443D02*
X10759467Y-13377919D01*
X10759467Y-13377919D02*
X10749944Y-13358871D01*
X10749944Y-13358871D02*
X10740420Y-13320776D01*
X10740420Y-13320776D02*
X10740420Y-13273157D01*
X10740420Y-13273157D02*
X10749944Y-13235062D01*
X10749944Y-13235062D02*
X10759467Y-13216014D01*
X10759467Y-13216014D02*
X10768991Y-13206491D01*
X10768991Y-13206491D02*
X10788039Y-13196967D01*
X10940420Y-13396967D02*
X10940420Y-13263633D01*
X10940420Y-13282681D02*
X10949944Y-13273157D01*
X10949944Y-13273157D02*
X10968991Y-13263633D01*
X10968991Y-13263633D02*
X10997563Y-13263633D01*
X10997563Y-13263633D02*
X11016610Y-13273157D01*
X11016610Y-13273157D02*
X11026134Y-13292205D01*
X11026134Y-13292205D02*
X11026134Y-13396967D01*
X11026134Y-13292205D02*
X11035658Y-13273157D01*
X11035658Y-13273157D02*
X11054705Y-13263633D01*
X11054705Y-13263633D02*
X11083277Y-13263633D01*
X11083277Y-13263633D02*
X11102325Y-13273157D01*
X11102325Y-13273157D02*
X11111848Y-13292205D01*
X11111848Y-13292205D02*
X11111848Y-13396967D01*
X11207086Y-13396967D02*
X11207086Y-13263633D01*
X11207086Y-13282681D02*
X11216610Y-13273157D01*
X11216610Y-13273157D02*
X11235658Y-13263633D01*
X11235658Y-13263633D02*
X11264229Y-13263633D01*
X11264229Y-13263633D02*
X11283277Y-13273157D01*
X11283277Y-13273157D02*
X11292801Y-13292205D01*
X11292801Y-13292205D02*
X11292801Y-13396967D01*
X11292801Y-13292205D02*
X11302324Y-13273157D01*
X11302324Y-13273157D02*
X11321372Y-13263633D01*
X11321372Y-13263633D02*
X11349943Y-13263633D01*
X11349943Y-13263633D02*
X11368991Y-13273157D01*
X11368991Y-13273157D02*
X11378515Y-13292205D01*
X11378515Y-13292205D02*
X11378515Y-13396967D01*
X11768991Y-13187443D02*
X11597563Y-13444586D01*
X12026134Y-13196967D02*
X12045182Y-13196967D01*
X12045182Y-13196967D02*
X12064229Y-13206491D01*
X12064229Y-13206491D02*
X12073753Y-13216014D01*
X12073753Y-13216014D02*
X12083277Y-13235062D01*
X12083277Y-13235062D02*
X12092801Y-13273157D01*
X12092801Y-13273157D02*
X12092801Y-13320776D01*
X12092801Y-13320776D02*
X12083277Y-13358871D01*
X12083277Y-13358871D02*
X12073753Y-13377919D01*
X12073753Y-13377919D02*
X12064229Y-13387443D01*
X12064229Y-13387443D02*
X12045182Y-13396967D01*
X12045182Y-13396967D02*
X12026134Y-13396967D01*
X12026134Y-13396967D02*
X12007086Y-13387443D01*
X12007086Y-13387443D02*
X11997563Y-13377919D01*
X11997563Y-13377919D02*
X11988039Y-13358871D01*
X11988039Y-13358871D02*
X11978515Y-13320776D01*
X11978515Y-13320776D02*
X11978515Y-13273157D01*
X11978515Y-13273157D02*
X11988039Y-13235062D01*
X11988039Y-13235062D02*
X11997563Y-13216014D01*
X11997563Y-13216014D02*
X12007086Y-13206491D01*
X12007086Y-13206491D02*
X12026134Y-13196967D01*
X12178515Y-13377919D02*
X12188039Y-13387443D01*
X12188039Y-13387443D02*
X12178515Y-13396967D01*
X12178515Y-13396967D02*
X12168991Y-13387443D01*
X12168991Y-13387443D02*
X12178515Y-13377919D01*
X12178515Y-13377919D02*
X12178515Y-13396967D01*
X12311848Y-13196967D02*
X12330896Y-13196967D01*
X12330896Y-13196967D02*
X12349944Y-13206491D01*
X12349944Y-13206491D02*
X12359467Y-13216014D01*
X12359467Y-13216014D02*
X12368991Y-13235062D01*
X12368991Y-13235062D02*
X12378515Y-13273157D01*
X12378515Y-13273157D02*
X12378515Y-13320776D01*
X12378515Y-13320776D02*
X12368991Y-13358871D01*
X12368991Y-13358871D02*
X12359467Y-13377919D01*
X12359467Y-13377919D02*
X12349944Y-13387443D01*
X12349944Y-13387443D02*
X12330896Y-13396967D01*
X12330896Y-13396967D02*
X12311848Y-13396967D01*
X12311848Y-13396967D02*
X12292801Y-13387443D01*
X12292801Y-13387443D02*
X12283277Y-13377919D01*
X12283277Y-13377919D02*
X12273753Y-13358871D01*
X12273753Y-13358871D02*
X12264229Y-13320776D01*
X12264229Y-13320776D02*
X12264229Y-13273157D01*
X12264229Y-13273157D02*
X12273753Y-13235062D01*
X12273753Y-13235062D02*
X12283277Y-13216014D01*
X12283277Y-13216014D02*
X12292801Y-13206491D01*
X12292801Y-13206491D02*
X12311848Y-13196967D01*
X12568991Y-13396967D02*
X12454706Y-13396967D01*
X12511848Y-13396967D02*
X12511848Y-13196967D01*
X12511848Y-13196967D02*
X12492801Y-13225538D01*
X12492801Y-13225538D02*
X12473753Y-13244586D01*
X12473753Y-13244586D02*
X12454706Y-13254110D01*
X12759467Y-13396967D02*
X12645182Y-13396967D01*
X12702325Y-13396967D02*
X12702325Y-13196967D01*
X12702325Y-13196967D02*
X12683277Y-13225538D01*
X12683277Y-13225538D02*
X12664229Y-13244586D01*
X12664229Y-13244586D02*
X12645182Y-13254110D01*
X12873753Y-13282681D02*
X12854706Y-13273157D01*
X12854706Y-13273157D02*
X12845182Y-13263633D01*
X12845182Y-13263633D02*
X12835658Y-13244586D01*
X12835658Y-13244586D02*
X12835658Y-13235062D01*
X12835658Y-13235062D02*
X12845182Y-13216014D01*
X12845182Y-13216014D02*
X12854706Y-13206491D01*
X12854706Y-13206491D02*
X12873753Y-13196967D01*
X12873753Y-13196967D02*
X12911848Y-13196967D01*
X12911848Y-13196967D02*
X12930896Y-13206491D01*
X12930896Y-13206491D02*
X12940420Y-13216014D01*
X12940420Y-13216014D02*
X12949944Y-13235062D01*
X12949944Y-13235062D02*
X12949944Y-13244586D01*
X12949944Y-13244586D02*
X12940420Y-13263633D01*
X12940420Y-13263633D02*
X12930896Y-13273157D01*
X12930896Y-13273157D02*
X12911848Y-13282681D01*
X12911848Y-13282681D02*
X12873753Y-13282681D01*
X12873753Y-13282681D02*
X12854706Y-13292205D01*
X12854706Y-13292205D02*
X12845182Y-13301729D01*
X12845182Y-13301729D02*
X12835658Y-13320776D01*
X12835658Y-13320776D02*
X12835658Y-13358871D01*
X12835658Y-13358871D02*
X12845182Y-13377919D01*
X12845182Y-13377919D02*
X12854706Y-13387443D01*
X12854706Y-13387443D02*
X12873753Y-13396967D01*
X12873753Y-13396967D02*
X12911848Y-13396967D01*
X12911848Y-13396967D02*
X12930896Y-13387443D01*
X12930896Y-13387443D02*
X12940420Y-13377919D01*
X12940420Y-13377919D02*
X12949944Y-13358871D01*
X12949944Y-13358871D02*
X12949944Y-13320776D01*
X12949944Y-13320776D02*
X12940420Y-13301729D01*
X12940420Y-13301729D02*
X12930896Y-13292205D01*
X12930896Y-13292205D02*
X12911848Y-13282681D01*
X13026134Y-13196967D02*
X13026134Y-13235062D01*
X13102325Y-13196967D02*
X13102325Y-13235062D01*
X13397563Y-13473157D02*
X13388039Y-13463633D01*
X13388039Y-13463633D02*
X13368991Y-13435062D01*
X13368991Y-13435062D02*
X13359468Y-13416014D01*
X13359468Y-13416014D02*
X13349944Y-13387443D01*
X13349944Y-13387443D02*
X13340420Y-13339824D01*
X13340420Y-13339824D02*
X13340420Y-13301729D01*
X13340420Y-13301729D02*
X13349944Y-13254110D01*
X13349944Y-13254110D02*
X13359468Y-13225538D01*
X13359468Y-13225538D02*
X13368991Y-13206491D01*
X13368991Y-13206491D02*
X13388039Y-13177919D01*
X13388039Y-13177919D02*
X13397563Y-13168395D01*
X13454706Y-13196967D02*
X13588039Y-13196967D01*
X13588039Y-13196967D02*
X13502325Y-13396967D01*
X13702325Y-13196967D02*
X13721372Y-13196967D01*
X13721372Y-13196967D02*
X13740420Y-13206491D01*
X13740420Y-13206491D02*
X13749944Y-13216014D01*
X13749944Y-13216014D02*
X13759468Y-13235062D01*
X13759468Y-13235062D02*
X13768991Y-13273157D01*
X13768991Y-13273157D02*
X13768991Y-13320776D01*
X13768991Y-13320776D02*
X13759468Y-13358871D01*
X13759468Y-13358871D02*
X13749944Y-13377919D01*
X13749944Y-13377919D02*
X13740420Y-13387443D01*
X13740420Y-13387443D02*
X13721372Y-13396967D01*
X13721372Y-13396967D02*
X13702325Y-13396967D01*
X13702325Y-13396967D02*
X13683277Y-13387443D01*
X13683277Y-13387443D02*
X13673753Y-13377919D01*
X13673753Y-13377919D02*
X13664229Y-13358871D01*
X13664229Y-13358871D02*
X13654706Y-13320776D01*
X13654706Y-13320776D02*
X13654706Y-13273157D01*
X13654706Y-13273157D02*
X13664229Y-13235062D01*
X13664229Y-13235062D02*
X13673753Y-13216014D01*
X13673753Y-13216014D02*
X13683277Y-13206491D01*
X13683277Y-13206491D02*
X13702325Y-13196967D01*
X14007087Y-13396967D02*
X14007087Y-13196967D01*
X14092801Y-13396967D02*
X14092801Y-13292205D01*
X14092801Y-13292205D02*
X14083277Y-13273157D01*
X14083277Y-13273157D02*
X14064230Y-13263633D01*
X14064230Y-13263633D02*
X14035658Y-13263633D01*
X14035658Y-13263633D02*
X14016610Y-13273157D01*
X14016610Y-13273157D02*
X14007087Y-13282681D01*
X14216610Y-13396967D02*
X14197563Y-13387443D01*
X14197563Y-13387443D02*
X14188039Y-13377919D01*
X14188039Y-13377919D02*
X14178515Y-13358871D01*
X14178515Y-13358871D02*
X14178515Y-13301729D01*
X14178515Y-13301729D02*
X14188039Y-13282681D01*
X14188039Y-13282681D02*
X14197563Y-13273157D01*
X14197563Y-13273157D02*
X14216610Y-13263633D01*
X14216610Y-13263633D02*
X14245182Y-13263633D01*
X14245182Y-13263633D02*
X14264230Y-13273157D01*
X14264230Y-13273157D02*
X14273753Y-13282681D01*
X14273753Y-13282681D02*
X14283277Y-13301729D01*
X14283277Y-13301729D02*
X14283277Y-13358871D01*
X14283277Y-13358871D02*
X14273753Y-13377919D01*
X14273753Y-13377919D02*
X14264230Y-13387443D01*
X14264230Y-13387443D02*
X14245182Y-13396967D01*
X14245182Y-13396967D02*
X14216610Y-13396967D01*
X14397563Y-13396967D02*
X14378515Y-13387443D01*
X14378515Y-13387443D02*
X14368991Y-13368395D01*
X14368991Y-13368395D02*
X14368991Y-13196967D01*
X14549944Y-13387443D02*
X14530896Y-13396967D01*
X14530896Y-13396967D02*
X14492801Y-13396967D01*
X14492801Y-13396967D02*
X14473753Y-13387443D01*
X14473753Y-13387443D02*
X14464230Y-13368395D01*
X14464230Y-13368395D02*
X14464230Y-13292205D01*
X14464230Y-13292205D02*
X14473753Y-13273157D01*
X14473753Y-13273157D02*
X14492801Y-13263633D01*
X14492801Y-13263633D02*
X14530896Y-13263633D01*
X14530896Y-13263633D02*
X14549944Y-13273157D01*
X14549944Y-13273157D02*
X14559468Y-13292205D01*
X14559468Y-13292205D02*
X14559468Y-13311252D01*
X14559468Y-13311252D02*
X14464230Y-13330300D01*
X14635658Y-13387443D02*
X14654706Y-13396967D01*
X14654706Y-13396967D02*
X14692801Y-13396967D01*
X14692801Y-13396967D02*
X14711849Y-13387443D01*
X14711849Y-13387443D02*
X14721372Y-13368395D01*
X14721372Y-13368395D02*
X14721372Y-13358871D01*
X14721372Y-13358871D02*
X14711849Y-13339824D01*
X14711849Y-13339824D02*
X14692801Y-13330300D01*
X14692801Y-13330300D02*
X14664230Y-13330300D01*
X14664230Y-13330300D02*
X14645182Y-13320776D01*
X14645182Y-13320776D02*
X14635658Y-13301729D01*
X14635658Y-13301729D02*
X14635658Y-13292205D01*
X14635658Y-13292205D02*
X14645182Y-13273157D01*
X14645182Y-13273157D02*
X14664230Y-13263633D01*
X14664230Y-13263633D02*
X14692801Y-13263633D01*
X14692801Y-13263633D02*
X14711849Y-13273157D01*
X14788039Y-13473157D02*
X14797563Y-13463633D01*
X14797563Y-13463633D02*
X14816611Y-13435062D01*
X14816611Y-13435062D02*
X14826134Y-13416014D01*
X14826134Y-13416014D02*
X14835658Y-13387443D01*
X14835658Y-13387443D02*
X14845182Y-13339824D01*
X14845182Y-13339824D02*
X14845182Y-13301729D01*
X14845182Y-13301729D02*
X14835658Y-13254110D01*
X14835658Y-13254110D02*
X14826134Y-13225538D01*
X14826134Y-13225538D02*
X14816611Y-13206491D01*
X14816611Y-13206491D02*
X14797563Y-13177919D01*
X14797563Y-13177919D02*
X14788039Y-13168395D01*
D11*
X9822500Y-13569483D02*
G75*
G02*
X9782500Y-13569483I-20000J0D01*
G01*
X9782500Y-13569483D02*
G75*
G02*
X9822500Y-13569483I20000J0D01*
G01*
D12*
X10121372Y-13460967D02*
X10140420Y-13460967D01*
X10140420Y-13460967D02*
X10159467Y-13470491D01*
X10159467Y-13470491D02*
X10168991Y-13480014D01*
X10168991Y-13480014D02*
X10178515Y-13499062D01*
X10178515Y-13499062D02*
X10188039Y-13537157D01*
X10188039Y-13537157D02*
X10188039Y-13584776D01*
X10188039Y-13584776D02*
X10178515Y-13622871D01*
X10178515Y-13622871D02*
X10168991Y-13641919D01*
X10168991Y-13641919D02*
X10159467Y-13651443D01*
X10159467Y-13651443D02*
X10140420Y-13660967D01*
X10140420Y-13660967D02*
X10121372Y-13660967D01*
X10121372Y-13660967D02*
X10102324Y-13651443D01*
X10102324Y-13651443D02*
X10092801Y-13641919D01*
X10092801Y-13641919D02*
X10083277Y-13622871D01*
X10083277Y-13622871D02*
X10073753Y-13584776D01*
X10073753Y-13584776D02*
X10073753Y-13537157D01*
X10073753Y-13537157D02*
X10083277Y-13499062D01*
X10083277Y-13499062D02*
X10092801Y-13480014D01*
X10092801Y-13480014D02*
X10102324Y-13470491D01*
X10102324Y-13470491D02*
X10121372Y-13460967D01*
X10273753Y-13641919D02*
X10283277Y-13651443D01*
X10283277Y-13651443D02*
X10273753Y-13660967D01*
X10273753Y-13660967D02*
X10264229Y-13651443D01*
X10264229Y-13651443D02*
X10273753Y-13641919D01*
X10273753Y-13641919D02*
X10273753Y-13660967D01*
X10454705Y-13527633D02*
X10454705Y-13660967D01*
X10407086Y-13451443D02*
X10359467Y-13594300D01*
X10359467Y-13594300D02*
X10483277Y-13594300D01*
X10597563Y-13460967D02*
X10616610Y-13460967D01*
X10616610Y-13460967D02*
X10635658Y-13470491D01*
X10635658Y-13470491D02*
X10645182Y-13480014D01*
X10645182Y-13480014D02*
X10654705Y-13499062D01*
X10654705Y-13499062D02*
X10664229Y-13537157D01*
X10664229Y-13537157D02*
X10664229Y-13584776D01*
X10664229Y-13584776D02*
X10654705Y-13622871D01*
X10654705Y-13622871D02*
X10645182Y-13641919D01*
X10645182Y-13641919D02*
X10635658Y-13651443D01*
X10635658Y-13651443D02*
X10616610Y-13660967D01*
X10616610Y-13660967D02*
X10597563Y-13660967D01*
X10597563Y-13660967D02*
X10578515Y-13651443D01*
X10578515Y-13651443D02*
X10568991Y-13641919D01*
X10568991Y-13641919D02*
X10559467Y-13622871D01*
X10559467Y-13622871D02*
X10549944Y-13584776D01*
X10549944Y-13584776D02*
X10549944Y-13537157D01*
X10549944Y-13537157D02*
X10559467Y-13499062D01*
X10559467Y-13499062D02*
X10568991Y-13480014D01*
X10568991Y-13480014D02*
X10578515Y-13470491D01*
X10578515Y-13470491D02*
X10597563Y-13460967D01*
X10788039Y-13460967D02*
X10807086Y-13460967D01*
X10807086Y-13460967D02*
X10826134Y-13470491D01*
X10826134Y-13470491D02*
X10835658Y-13480014D01*
X10835658Y-13480014D02*
X10845182Y-13499062D01*
X10845182Y-13499062D02*
X10854705Y-13537157D01*
X10854705Y-13537157D02*
X10854705Y-13584776D01*
X10854705Y-13584776D02*
X10845182Y-13622871D01*
X10845182Y-13622871D02*
X10835658Y-13641919D01*
X10835658Y-13641919D02*
X10826134Y-13651443D01*
X10826134Y-13651443D02*
X10807086Y-13660967D01*
X10807086Y-13660967D02*
X10788039Y-13660967D01*
X10788039Y-13660967D02*
X10768991Y-13651443D01*
X10768991Y-13651443D02*
X10759467Y-13641919D01*
X10759467Y-13641919D02*
X10749944Y-13622871D01*
X10749944Y-13622871D02*
X10740420Y-13584776D01*
X10740420Y-13584776D02*
X10740420Y-13537157D01*
X10740420Y-13537157D02*
X10749944Y-13499062D01*
X10749944Y-13499062D02*
X10759467Y-13480014D01*
X10759467Y-13480014D02*
X10768991Y-13470491D01*
X10768991Y-13470491D02*
X10788039Y-13460967D01*
X10940420Y-13660967D02*
X10940420Y-13527633D01*
X10940420Y-13546681D02*
X10949944Y-13537157D01*
X10949944Y-13537157D02*
X10968991Y-13527633D01*
X10968991Y-13527633D02*
X10997563Y-13527633D01*
X10997563Y-13527633D02*
X11016610Y-13537157D01*
X11016610Y-13537157D02*
X11026134Y-13556205D01*
X11026134Y-13556205D02*
X11026134Y-13660967D01*
X11026134Y-13556205D02*
X11035658Y-13537157D01*
X11035658Y-13537157D02*
X11054705Y-13527633D01*
X11054705Y-13527633D02*
X11083277Y-13527633D01*
X11083277Y-13527633D02*
X11102325Y-13537157D01*
X11102325Y-13537157D02*
X11111848Y-13556205D01*
X11111848Y-13556205D02*
X11111848Y-13660967D01*
X11207086Y-13660967D02*
X11207086Y-13527633D01*
X11207086Y-13546681D02*
X11216610Y-13537157D01*
X11216610Y-13537157D02*
X11235658Y-13527633D01*
X11235658Y-13527633D02*
X11264229Y-13527633D01*
X11264229Y-13527633D02*
X11283277Y-13537157D01*
X11283277Y-13537157D02*
X11292801Y-13556205D01*
X11292801Y-13556205D02*
X11292801Y-13660967D01*
X11292801Y-13556205D02*
X11302324Y-13537157D01*
X11302324Y-13537157D02*
X11321372Y-13527633D01*
X11321372Y-13527633D02*
X11349943Y-13527633D01*
X11349943Y-13527633D02*
X11368991Y-13537157D01*
X11368991Y-13537157D02*
X11378515Y-13556205D01*
X11378515Y-13556205D02*
X11378515Y-13660967D01*
X11768991Y-13451443D02*
X11597563Y-13708586D01*
X12026134Y-13460967D02*
X12045182Y-13460967D01*
X12045182Y-13460967D02*
X12064229Y-13470491D01*
X12064229Y-13470491D02*
X12073753Y-13480014D01*
X12073753Y-13480014D02*
X12083277Y-13499062D01*
X12083277Y-13499062D02*
X12092801Y-13537157D01*
X12092801Y-13537157D02*
X12092801Y-13584776D01*
X12092801Y-13584776D02*
X12083277Y-13622871D01*
X12083277Y-13622871D02*
X12073753Y-13641919D01*
X12073753Y-13641919D02*
X12064229Y-13651443D01*
X12064229Y-13651443D02*
X12045182Y-13660967D01*
X12045182Y-13660967D02*
X12026134Y-13660967D01*
X12026134Y-13660967D02*
X12007086Y-13651443D01*
X12007086Y-13651443D02*
X11997563Y-13641919D01*
X11997563Y-13641919D02*
X11988039Y-13622871D01*
X11988039Y-13622871D02*
X11978515Y-13584776D01*
X11978515Y-13584776D02*
X11978515Y-13537157D01*
X11978515Y-13537157D02*
X11988039Y-13499062D01*
X11988039Y-13499062D02*
X11997563Y-13480014D01*
X11997563Y-13480014D02*
X12007086Y-13470491D01*
X12007086Y-13470491D02*
X12026134Y-13460967D01*
X12178515Y-13641919D02*
X12188039Y-13651443D01*
X12188039Y-13651443D02*
X12178515Y-13660967D01*
X12178515Y-13660967D02*
X12168991Y-13651443D01*
X12168991Y-13651443D02*
X12178515Y-13641919D01*
X12178515Y-13641919D02*
X12178515Y-13660967D01*
X12311848Y-13460967D02*
X12330896Y-13460967D01*
X12330896Y-13460967D02*
X12349944Y-13470491D01*
X12349944Y-13470491D02*
X12359467Y-13480014D01*
X12359467Y-13480014D02*
X12368991Y-13499062D01*
X12368991Y-13499062D02*
X12378515Y-13537157D01*
X12378515Y-13537157D02*
X12378515Y-13584776D01*
X12378515Y-13584776D02*
X12368991Y-13622871D01*
X12368991Y-13622871D02*
X12359467Y-13641919D01*
X12359467Y-13641919D02*
X12349944Y-13651443D01*
X12349944Y-13651443D02*
X12330896Y-13660967D01*
X12330896Y-13660967D02*
X12311848Y-13660967D01*
X12311848Y-13660967D02*
X12292801Y-13651443D01*
X12292801Y-13651443D02*
X12283277Y-13641919D01*
X12283277Y-13641919D02*
X12273753Y-13622871D01*
X12273753Y-13622871D02*
X12264229Y-13584776D01*
X12264229Y-13584776D02*
X12264229Y-13537157D01*
X12264229Y-13537157D02*
X12273753Y-13499062D01*
X12273753Y-13499062D02*
X12283277Y-13480014D01*
X12283277Y-13480014D02*
X12292801Y-13470491D01*
X12292801Y-13470491D02*
X12311848Y-13460967D01*
X12568991Y-13660967D02*
X12454706Y-13660967D01*
X12511848Y-13660967D02*
X12511848Y-13460967D01*
X12511848Y-13460967D02*
X12492801Y-13489538D01*
X12492801Y-13489538D02*
X12473753Y-13508586D01*
X12473753Y-13508586D02*
X12454706Y-13518110D01*
X12749944Y-13460967D02*
X12654706Y-13460967D01*
X12654706Y-13460967D02*
X12645182Y-13556205D01*
X12645182Y-13556205D02*
X12654706Y-13546681D01*
X12654706Y-13546681D02*
X12673753Y-13537157D01*
X12673753Y-13537157D02*
X12721372Y-13537157D01*
X12721372Y-13537157D02*
X12740420Y-13546681D01*
X12740420Y-13546681D02*
X12749944Y-13556205D01*
X12749944Y-13556205D02*
X12759467Y-13575252D01*
X12759467Y-13575252D02*
X12759467Y-13622871D01*
X12759467Y-13622871D02*
X12749944Y-13641919D01*
X12749944Y-13641919D02*
X12740420Y-13651443D01*
X12740420Y-13651443D02*
X12721372Y-13660967D01*
X12721372Y-13660967D02*
X12673753Y-13660967D01*
X12673753Y-13660967D02*
X12654706Y-13651443D01*
X12654706Y-13651443D02*
X12645182Y-13641919D01*
X12826134Y-13460967D02*
X12959467Y-13460967D01*
X12959467Y-13460967D02*
X12873753Y-13660967D01*
X13026134Y-13460967D02*
X13026134Y-13499062D01*
X13102325Y-13460967D02*
X13102325Y-13499062D01*
X13397563Y-13737157D02*
X13388039Y-13727633D01*
X13388039Y-13727633D02*
X13368991Y-13699062D01*
X13368991Y-13699062D02*
X13359468Y-13680014D01*
X13359468Y-13680014D02*
X13349944Y-13651443D01*
X13349944Y-13651443D02*
X13340420Y-13603824D01*
X13340420Y-13603824D02*
X13340420Y-13565729D01*
X13340420Y-13565729D02*
X13349944Y-13518110D01*
X13349944Y-13518110D02*
X13359468Y-13489538D01*
X13359468Y-13489538D02*
X13368991Y-13470491D01*
X13368991Y-13470491D02*
X13388039Y-13441919D01*
X13388039Y-13441919D02*
X13397563Y-13432395D01*
X13578515Y-13660967D02*
X13464229Y-13660967D01*
X13521372Y-13660967D02*
X13521372Y-13460967D01*
X13521372Y-13460967D02*
X13502325Y-13489538D01*
X13502325Y-13489538D02*
X13483277Y-13508586D01*
X13483277Y-13508586D02*
X13464229Y-13518110D01*
X13749944Y-13460967D02*
X13711848Y-13460967D01*
X13711848Y-13460967D02*
X13692801Y-13470491D01*
X13692801Y-13470491D02*
X13683277Y-13480014D01*
X13683277Y-13480014D02*
X13664229Y-13508586D01*
X13664229Y-13508586D02*
X13654706Y-13546681D01*
X13654706Y-13546681D02*
X13654706Y-13622871D01*
X13654706Y-13622871D02*
X13664229Y-13641919D01*
X13664229Y-13641919D02*
X13673753Y-13651443D01*
X13673753Y-13651443D02*
X13692801Y-13660967D01*
X13692801Y-13660967D02*
X13730896Y-13660967D01*
X13730896Y-13660967D02*
X13749944Y-13651443D01*
X13749944Y-13651443D02*
X13759468Y-13641919D01*
X13759468Y-13641919D02*
X13768991Y-13622871D01*
X13768991Y-13622871D02*
X13768991Y-13575252D01*
X13768991Y-13575252D02*
X13759468Y-13556205D01*
X13759468Y-13556205D02*
X13749944Y-13546681D01*
X13749944Y-13546681D02*
X13730896Y-13537157D01*
X13730896Y-13537157D02*
X13692801Y-13537157D01*
X13692801Y-13537157D02*
X13673753Y-13546681D01*
X13673753Y-13546681D02*
X13664229Y-13556205D01*
X13664229Y-13556205D02*
X13654706Y-13575252D01*
X14007087Y-13660967D02*
X14007087Y-13460967D01*
X14092801Y-13660967D02*
X14092801Y-13556205D01*
X14092801Y-13556205D02*
X14083277Y-13537157D01*
X14083277Y-13537157D02*
X14064230Y-13527633D01*
X14064230Y-13527633D02*
X14035658Y-13527633D01*
X14035658Y-13527633D02*
X14016610Y-13537157D01*
X14016610Y-13537157D02*
X14007087Y-13546681D01*
X14216610Y-13660967D02*
X14197563Y-13651443D01*
X14197563Y-13651443D02*
X14188039Y-13641919D01*
X14188039Y-13641919D02*
X14178515Y-13622871D01*
X14178515Y-13622871D02*
X14178515Y-13565729D01*
X14178515Y-13565729D02*
X14188039Y-13546681D01*
X14188039Y-13546681D02*
X14197563Y-13537157D01*
X14197563Y-13537157D02*
X14216610Y-13527633D01*
X14216610Y-13527633D02*
X14245182Y-13527633D01*
X14245182Y-13527633D02*
X14264230Y-13537157D01*
X14264230Y-13537157D02*
X14273753Y-13546681D01*
X14273753Y-13546681D02*
X14283277Y-13565729D01*
X14283277Y-13565729D02*
X14283277Y-13622871D01*
X14283277Y-13622871D02*
X14273753Y-13641919D01*
X14273753Y-13641919D02*
X14264230Y-13651443D01*
X14264230Y-13651443D02*
X14245182Y-13660967D01*
X14245182Y-13660967D02*
X14216610Y-13660967D01*
X14397563Y-13660967D02*
X14378515Y-13651443D01*
X14378515Y-13651443D02*
X14368991Y-13632395D01*
X14368991Y-13632395D02*
X14368991Y-13460967D01*
X14549944Y-13651443D02*
X14530896Y-13660967D01*
X14530896Y-13660967D02*
X14492801Y-13660967D01*
X14492801Y-13660967D02*
X14473753Y-13651443D01*
X14473753Y-13651443D02*
X14464230Y-13632395D01*
X14464230Y-13632395D02*
X14464230Y-13556205D01*
X14464230Y-13556205D02*
X14473753Y-13537157D01*
X14473753Y-13537157D02*
X14492801Y-13527633D01*
X14492801Y-13527633D02*
X14530896Y-13527633D01*
X14530896Y-13527633D02*
X14549944Y-13537157D01*
X14549944Y-13537157D02*
X14559468Y-13556205D01*
X14559468Y-13556205D02*
X14559468Y-13575252D01*
X14559468Y-13575252D02*
X14464230Y-13594300D01*
X14635658Y-13651443D02*
X14654706Y-13660967D01*
X14654706Y-13660967D02*
X14692801Y-13660967D01*
X14692801Y-13660967D02*
X14711849Y-13651443D01*
X14711849Y-13651443D02*
X14721372Y-13632395D01*
X14721372Y-13632395D02*
X14721372Y-13622871D01*
X14721372Y-13622871D02*
X14711849Y-13603824D01*
X14711849Y-13603824D02*
X14692801Y-13594300D01*
X14692801Y-13594300D02*
X14664230Y-13594300D01*
X14664230Y-13594300D02*
X14645182Y-13584776D01*
X14645182Y-13584776D02*
X14635658Y-13565729D01*
X14635658Y-13565729D02*
X14635658Y-13556205D01*
X14635658Y-13556205D02*
X14645182Y-13537157D01*
X14645182Y-13537157D02*
X14664230Y-13527633D01*
X14664230Y-13527633D02*
X14692801Y-13527633D01*
X14692801Y-13527633D02*
X14711849Y-13537157D01*
X14788039Y-13737157D02*
X14797563Y-13727633D01*
X14797563Y-13727633D02*
X14816611Y-13699062D01*
X14816611Y-13699062D02*
X14826134Y-13680014D01*
X14826134Y-13680014D02*
X14835658Y-13651443D01*
X14835658Y-13651443D02*
X14845182Y-13603824D01*
X14845182Y-13603824D02*
X14845182Y-13565729D01*
X14845182Y-13565729D02*
X14835658Y-13518110D01*
X14835658Y-13518110D02*
X14826134Y-13489538D01*
X14826134Y-13489538D02*
X14816611Y-13470491D01*
X14816611Y-13470491D02*
X14797563Y-13441919D01*
X14797563Y-13441919D02*
X14788039Y-13432395D01*
X9722500Y-13733483D02*
X9722500Y-13933483D01*
X9622500Y-13833483D02*
X9822500Y-13833483D01*
X10073753Y-13744014D02*
X10083277Y-13734491D01*
X10083277Y-13734491D02*
X10102324Y-13724967D01*
X10102324Y-13724967D02*
X10149944Y-13724967D01*
X10149944Y-13724967D02*
X10168991Y-13734491D01*
X10168991Y-13734491D02*
X10178515Y-13744014D01*
X10178515Y-13744014D02*
X10188039Y-13763062D01*
X10188039Y-13763062D02*
X10188039Y-13782110D01*
X10188039Y-13782110D02*
X10178515Y-13810681D01*
X10178515Y-13810681D02*
X10064229Y-13924967D01*
X10064229Y-13924967D02*
X10188039Y-13924967D01*
X10273753Y-13905919D02*
X10283277Y-13915443D01*
X10283277Y-13915443D02*
X10273753Y-13924967D01*
X10273753Y-13924967D02*
X10264229Y-13915443D01*
X10264229Y-13915443D02*
X10273753Y-13905919D01*
X10273753Y-13905919D02*
X10273753Y-13924967D01*
X10359467Y-13744014D02*
X10368991Y-13734491D01*
X10368991Y-13734491D02*
X10388039Y-13724967D01*
X10388039Y-13724967D02*
X10435658Y-13724967D01*
X10435658Y-13724967D02*
X10454705Y-13734491D01*
X10454705Y-13734491D02*
X10464229Y-13744014D01*
X10464229Y-13744014D02*
X10473753Y-13763062D01*
X10473753Y-13763062D02*
X10473753Y-13782110D01*
X10473753Y-13782110D02*
X10464229Y-13810681D01*
X10464229Y-13810681D02*
X10349944Y-13924967D01*
X10349944Y-13924967D02*
X10473753Y-13924967D01*
X10597563Y-13724967D02*
X10616610Y-13724967D01*
X10616610Y-13724967D02*
X10635658Y-13734491D01*
X10635658Y-13734491D02*
X10645182Y-13744014D01*
X10645182Y-13744014D02*
X10654705Y-13763062D01*
X10654705Y-13763062D02*
X10664229Y-13801157D01*
X10664229Y-13801157D02*
X10664229Y-13848776D01*
X10664229Y-13848776D02*
X10654705Y-13886871D01*
X10654705Y-13886871D02*
X10645182Y-13905919D01*
X10645182Y-13905919D02*
X10635658Y-13915443D01*
X10635658Y-13915443D02*
X10616610Y-13924967D01*
X10616610Y-13924967D02*
X10597563Y-13924967D01*
X10597563Y-13924967D02*
X10578515Y-13915443D01*
X10578515Y-13915443D02*
X10568991Y-13905919D01*
X10568991Y-13905919D02*
X10559467Y-13886871D01*
X10559467Y-13886871D02*
X10549944Y-13848776D01*
X10549944Y-13848776D02*
X10549944Y-13801157D01*
X10549944Y-13801157D02*
X10559467Y-13763062D01*
X10559467Y-13763062D02*
X10568991Y-13744014D01*
X10568991Y-13744014D02*
X10578515Y-13734491D01*
X10578515Y-13734491D02*
X10597563Y-13724967D01*
X10788039Y-13724967D02*
X10807086Y-13724967D01*
X10807086Y-13724967D02*
X10826134Y-13734491D01*
X10826134Y-13734491D02*
X10835658Y-13744014D01*
X10835658Y-13744014D02*
X10845182Y-13763062D01*
X10845182Y-13763062D02*
X10854705Y-13801157D01*
X10854705Y-13801157D02*
X10854705Y-13848776D01*
X10854705Y-13848776D02*
X10845182Y-13886871D01*
X10845182Y-13886871D02*
X10835658Y-13905919D01*
X10835658Y-13905919D02*
X10826134Y-13915443D01*
X10826134Y-13915443D02*
X10807086Y-13924967D01*
X10807086Y-13924967D02*
X10788039Y-13924967D01*
X10788039Y-13924967D02*
X10768991Y-13915443D01*
X10768991Y-13915443D02*
X10759467Y-13905919D01*
X10759467Y-13905919D02*
X10749944Y-13886871D01*
X10749944Y-13886871D02*
X10740420Y-13848776D01*
X10740420Y-13848776D02*
X10740420Y-13801157D01*
X10740420Y-13801157D02*
X10749944Y-13763062D01*
X10749944Y-13763062D02*
X10759467Y-13744014D01*
X10759467Y-13744014D02*
X10768991Y-13734491D01*
X10768991Y-13734491D02*
X10788039Y-13724967D01*
X10940420Y-13924967D02*
X10940420Y-13791633D01*
X10940420Y-13810681D02*
X10949944Y-13801157D01*
X10949944Y-13801157D02*
X10968991Y-13791633D01*
X10968991Y-13791633D02*
X10997563Y-13791633D01*
X10997563Y-13791633D02*
X11016610Y-13801157D01*
X11016610Y-13801157D02*
X11026134Y-13820205D01*
X11026134Y-13820205D02*
X11026134Y-13924967D01*
X11026134Y-13820205D02*
X11035658Y-13801157D01*
X11035658Y-13801157D02*
X11054705Y-13791633D01*
X11054705Y-13791633D02*
X11083277Y-13791633D01*
X11083277Y-13791633D02*
X11102325Y-13801157D01*
X11102325Y-13801157D02*
X11111848Y-13820205D01*
X11111848Y-13820205D02*
X11111848Y-13924967D01*
X11207086Y-13924967D02*
X11207086Y-13791633D01*
X11207086Y-13810681D02*
X11216610Y-13801157D01*
X11216610Y-13801157D02*
X11235658Y-13791633D01*
X11235658Y-13791633D02*
X11264229Y-13791633D01*
X11264229Y-13791633D02*
X11283277Y-13801157D01*
X11283277Y-13801157D02*
X11292801Y-13820205D01*
X11292801Y-13820205D02*
X11292801Y-13924967D01*
X11292801Y-13820205D02*
X11302324Y-13801157D01*
X11302324Y-13801157D02*
X11321372Y-13791633D01*
X11321372Y-13791633D02*
X11349943Y-13791633D01*
X11349943Y-13791633D02*
X11368991Y-13801157D01*
X11368991Y-13801157D02*
X11378515Y-13820205D01*
X11378515Y-13820205D02*
X11378515Y-13924967D01*
X11768991Y-13715443D02*
X11597563Y-13972586D01*
X12026134Y-13724967D02*
X12045182Y-13724967D01*
X12045182Y-13724967D02*
X12064229Y-13734491D01*
X12064229Y-13734491D02*
X12073753Y-13744014D01*
X12073753Y-13744014D02*
X12083277Y-13763062D01*
X12083277Y-13763062D02*
X12092801Y-13801157D01*
X12092801Y-13801157D02*
X12092801Y-13848776D01*
X12092801Y-13848776D02*
X12083277Y-13886871D01*
X12083277Y-13886871D02*
X12073753Y-13905919D01*
X12073753Y-13905919D02*
X12064229Y-13915443D01*
X12064229Y-13915443D02*
X12045182Y-13924967D01*
X12045182Y-13924967D02*
X12026134Y-13924967D01*
X12026134Y-13924967D02*
X12007086Y-13915443D01*
X12007086Y-13915443D02*
X11997563Y-13905919D01*
X11997563Y-13905919D02*
X11988039Y-13886871D01*
X11988039Y-13886871D02*
X11978515Y-13848776D01*
X11978515Y-13848776D02*
X11978515Y-13801157D01*
X11978515Y-13801157D02*
X11988039Y-13763062D01*
X11988039Y-13763062D02*
X11997563Y-13744014D01*
X11997563Y-13744014D02*
X12007086Y-13734491D01*
X12007086Y-13734491D02*
X12026134Y-13724967D01*
X12178515Y-13905919D02*
X12188039Y-13915443D01*
X12188039Y-13915443D02*
X12178515Y-13924967D01*
X12178515Y-13924967D02*
X12168991Y-13915443D01*
X12168991Y-13915443D02*
X12178515Y-13905919D01*
X12178515Y-13905919D02*
X12178515Y-13924967D01*
X12311848Y-13724967D02*
X12330896Y-13724967D01*
X12330896Y-13724967D02*
X12349944Y-13734491D01*
X12349944Y-13734491D02*
X12359467Y-13744014D01*
X12359467Y-13744014D02*
X12368991Y-13763062D01*
X12368991Y-13763062D02*
X12378515Y-13801157D01*
X12378515Y-13801157D02*
X12378515Y-13848776D01*
X12378515Y-13848776D02*
X12368991Y-13886871D01*
X12368991Y-13886871D02*
X12359467Y-13905919D01*
X12359467Y-13905919D02*
X12349944Y-13915443D01*
X12349944Y-13915443D02*
X12330896Y-13924967D01*
X12330896Y-13924967D02*
X12311848Y-13924967D01*
X12311848Y-13924967D02*
X12292801Y-13915443D01*
X12292801Y-13915443D02*
X12283277Y-13905919D01*
X12283277Y-13905919D02*
X12273753Y-13886871D01*
X12273753Y-13886871D02*
X12264229Y-13848776D01*
X12264229Y-13848776D02*
X12264229Y-13801157D01*
X12264229Y-13801157D02*
X12273753Y-13763062D01*
X12273753Y-13763062D02*
X12283277Y-13744014D01*
X12283277Y-13744014D02*
X12292801Y-13734491D01*
X12292801Y-13734491D02*
X12311848Y-13724967D01*
X12492801Y-13810681D02*
X12473753Y-13801157D01*
X12473753Y-13801157D02*
X12464229Y-13791633D01*
X12464229Y-13791633D02*
X12454706Y-13772586D01*
X12454706Y-13772586D02*
X12454706Y-13763062D01*
X12454706Y-13763062D02*
X12464229Y-13744014D01*
X12464229Y-13744014D02*
X12473753Y-13734491D01*
X12473753Y-13734491D02*
X12492801Y-13724967D01*
X12492801Y-13724967D02*
X12530896Y-13724967D01*
X12530896Y-13724967D02*
X12549944Y-13734491D01*
X12549944Y-13734491D02*
X12559467Y-13744014D01*
X12559467Y-13744014D02*
X12568991Y-13763062D01*
X12568991Y-13763062D02*
X12568991Y-13772586D01*
X12568991Y-13772586D02*
X12559467Y-13791633D01*
X12559467Y-13791633D02*
X12549944Y-13801157D01*
X12549944Y-13801157D02*
X12530896Y-13810681D01*
X12530896Y-13810681D02*
X12492801Y-13810681D01*
X12492801Y-13810681D02*
X12473753Y-13820205D01*
X12473753Y-13820205D02*
X12464229Y-13829729D01*
X12464229Y-13829729D02*
X12454706Y-13848776D01*
X12454706Y-13848776D02*
X12454706Y-13886871D01*
X12454706Y-13886871D02*
X12464229Y-13905919D01*
X12464229Y-13905919D02*
X12473753Y-13915443D01*
X12473753Y-13915443D02*
X12492801Y-13924967D01*
X12492801Y-13924967D02*
X12530896Y-13924967D01*
X12530896Y-13924967D02*
X12549944Y-13915443D01*
X12549944Y-13915443D02*
X12559467Y-13905919D01*
X12559467Y-13905919D02*
X12568991Y-13886871D01*
X12568991Y-13886871D02*
X12568991Y-13848776D01*
X12568991Y-13848776D02*
X12559467Y-13829729D01*
X12559467Y-13829729D02*
X12549944Y-13820205D01*
X12549944Y-13820205D02*
X12530896Y-13810681D01*
X12740420Y-13724967D02*
X12702325Y-13724967D01*
X12702325Y-13724967D02*
X12683277Y-13734491D01*
X12683277Y-13734491D02*
X12673753Y-13744014D01*
X12673753Y-13744014D02*
X12654706Y-13772586D01*
X12654706Y-13772586D02*
X12645182Y-13810681D01*
X12645182Y-13810681D02*
X12645182Y-13886871D01*
X12645182Y-13886871D02*
X12654706Y-13905919D01*
X12654706Y-13905919D02*
X12664229Y-13915443D01*
X12664229Y-13915443D02*
X12683277Y-13924967D01*
X12683277Y-13924967D02*
X12721372Y-13924967D01*
X12721372Y-13924967D02*
X12740420Y-13915443D01*
X12740420Y-13915443D02*
X12749944Y-13905919D01*
X12749944Y-13905919D02*
X12759467Y-13886871D01*
X12759467Y-13886871D02*
X12759467Y-13839252D01*
X12759467Y-13839252D02*
X12749944Y-13820205D01*
X12749944Y-13820205D02*
X12740420Y-13810681D01*
X12740420Y-13810681D02*
X12721372Y-13801157D01*
X12721372Y-13801157D02*
X12683277Y-13801157D01*
X12683277Y-13801157D02*
X12664229Y-13810681D01*
X12664229Y-13810681D02*
X12654706Y-13820205D01*
X12654706Y-13820205D02*
X12645182Y-13839252D01*
X12930896Y-13724967D02*
X12892801Y-13724967D01*
X12892801Y-13724967D02*
X12873753Y-13734491D01*
X12873753Y-13734491D02*
X12864229Y-13744014D01*
X12864229Y-13744014D02*
X12845182Y-13772586D01*
X12845182Y-13772586D02*
X12835658Y-13810681D01*
X12835658Y-13810681D02*
X12835658Y-13886871D01*
X12835658Y-13886871D02*
X12845182Y-13905919D01*
X12845182Y-13905919D02*
X12854706Y-13915443D01*
X12854706Y-13915443D02*
X12873753Y-13924967D01*
X12873753Y-13924967D02*
X12911848Y-13924967D01*
X12911848Y-13924967D02*
X12930896Y-13915443D01*
X12930896Y-13915443D02*
X12940420Y-13905919D01*
X12940420Y-13905919D02*
X12949944Y-13886871D01*
X12949944Y-13886871D02*
X12949944Y-13839252D01*
X12949944Y-13839252D02*
X12940420Y-13820205D01*
X12940420Y-13820205D02*
X12930896Y-13810681D01*
X12930896Y-13810681D02*
X12911848Y-13801157D01*
X12911848Y-13801157D02*
X12873753Y-13801157D01*
X12873753Y-13801157D02*
X12854706Y-13810681D01*
X12854706Y-13810681D02*
X12845182Y-13820205D01*
X12845182Y-13820205D02*
X12835658Y-13839252D01*
X13026134Y-13724967D02*
X13026134Y-13763062D01*
X13102325Y-13724967D02*
X13102325Y-13763062D01*
X13397563Y-14001157D02*
X13388039Y-13991633D01*
X13388039Y-13991633D02*
X13368991Y-13963062D01*
X13368991Y-13963062D02*
X13359468Y-13944014D01*
X13359468Y-13944014D02*
X13349944Y-13915443D01*
X13349944Y-13915443D02*
X13340420Y-13867824D01*
X13340420Y-13867824D02*
X13340420Y-13829729D01*
X13340420Y-13829729D02*
X13349944Y-13782110D01*
X13349944Y-13782110D02*
X13359468Y-13753538D01*
X13359468Y-13753538D02*
X13368991Y-13734491D01*
X13368991Y-13734491D02*
X13388039Y-13705919D01*
X13388039Y-13705919D02*
X13397563Y-13696395D01*
X13464229Y-13744014D02*
X13473753Y-13734491D01*
X13473753Y-13734491D02*
X13492801Y-13724967D01*
X13492801Y-13724967D02*
X13540420Y-13724967D01*
X13540420Y-13724967D02*
X13559468Y-13734491D01*
X13559468Y-13734491D02*
X13568991Y-13744014D01*
X13568991Y-13744014D02*
X13578515Y-13763062D01*
X13578515Y-13763062D02*
X13578515Y-13782110D01*
X13578515Y-13782110D02*
X13568991Y-13810681D01*
X13568991Y-13810681D02*
X13454706Y-13924967D01*
X13454706Y-13924967D02*
X13578515Y-13924967D01*
X13816610Y-13924967D02*
X13816610Y-13724967D01*
X13902325Y-13924967D02*
X13902325Y-13820205D01*
X13902325Y-13820205D02*
X13892801Y-13801157D01*
X13892801Y-13801157D02*
X13873753Y-13791633D01*
X13873753Y-13791633D02*
X13845182Y-13791633D01*
X13845182Y-13791633D02*
X13826134Y-13801157D01*
X13826134Y-13801157D02*
X13816610Y-13810681D01*
X14026134Y-13924967D02*
X14007087Y-13915443D01*
X14007087Y-13915443D02*
X13997563Y-13905919D01*
X13997563Y-13905919D02*
X13988039Y-13886871D01*
X13988039Y-13886871D02*
X13988039Y-13829729D01*
X13988039Y-13829729D02*
X13997563Y-13810681D01*
X13997563Y-13810681D02*
X14007087Y-13801157D01*
X14007087Y-13801157D02*
X14026134Y-13791633D01*
X14026134Y-13791633D02*
X14054706Y-13791633D01*
X14054706Y-13791633D02*
X14073753Y-13801157D01*
X14073753Y-13801157D02*
X14083277Y-13810681D01*
X14083277Y-13810681D02*
X14092801Y-13829729D01*
X14092801Y-13829729D02*
X14092801Y-13886871D01*
X14092801Y-13886871D02*
X14083277Y-13905919D01*
X14083277Y-13905919D02*
X14073753Y-13915443D01*
X14073753Y-13915443D02*
X14054706Y-13924967D01*
X14054706Y-13924967D02*
X14026134Y-13924967D01*
X14207087Y-13924967D02*
X14188039Y-13915443D01*
X14188039Y-13915443D02*
X14178515Y-13896395D01*
X14178515Y-13896395D02*
X14178515Y-13724967D01*
X14359468Y-13915443D02*
X14340420Y-13924967D01*
X14340420Y-13924967D02*
X14302325Y-13924967D01*
X14302325Y-13924967D02*
X14283277Y-13915443D01*
X14283277Y-13915443D02*
X14273753Y-13896395D01*
X14273753Y-13896395D02*
X14273753Y-13820205D01*
X14273753Y-13820205D02*
X14283277Y-13801157D01*
X14283277Y-13801157D02*
X14302325Y-13791633D01*
X14302325Y-13791633D02*
X14340420Y-13791633D01*
X14340420Y-13791633D02*
X14359468Y-13801157D01*
X14359468Y-13801157D02*
X14368991Y-13820205D01*
X14368991Y-13820205D02*
X14368991Y-13839252D01*
X14368991Y-13839252D02*
X14273753Y-13858300D01*
X14445182Y-13915443D02*
X14464230Y-13924967D01*
X14464230Y-13924967D02*
X14502325Y-13924967D01*
X14502325Y-13924967D02*
X14521372Y-13915443D01*
X14521372Y-13915443D02*
X14530896Y-13896395D01*
X14530896Y-13896395D02*
X14530896Y-13886871D01*
X14530896Y-13886871D02*
X14521372Y-13867824D01*
X14521372Y-13867824D02*
X14502325Y-13858300D01*
X14502325Y-13858300D02*
X14473753Y-13858300D01*
X14473753Y-13858300D02*
X14454706Y-13848776D01*
X14454706Y-13848776D02*
X14445182Y-13829729D01*
X14445182Y-13829729D02*
X14445182Y-13820205D01*
X14445182Y-13820205D02*
X14454706Y-13801157D01*
X14454706Y-13801157D02*
X14473753Y-13791633D01*
X14473753Y-13791633D02*
X14502325Y-13791633D01*
X14502325Y-13791633D02*
X14521372Y-13801157D01*
X14597563Y-14001157D02*
X14607087Y-13991633D01*
X14607087Y-13991633D02*
X14626134Y-13963062D01*
X14626134Y-13963062D02*
X14635658Y-13944014D01*
X14635658Y-13944014D02*
X14645182Y-13915443D01*
X14645182Y-13915443D02*
X14654706Y-13867824D01*
X14654706Y-13867824D02*
X14654706Y-13829729D01*
X14654706Y-13829729D02*
X14645182Y-13782110D01*
X14645182Y-13782110D02*
X14635658Y-13753538D01*
X14635658Y-13753538D02*
X14626134Y-13734491D01*
X14626134Y-13734491D02*
X14607087Y-13705919D01*
X14607087Y-13705919D02*
X14597563Y-13696395D01*
M02*
