%TF.GenerationSoftware,KiCad,Pcbnew,8.0.1*%
%TF.CreationDate,2024-04-18T14:38:25+01:00*%
%TF.ProjectId,makerspace-badge,6d616b65-7273-4706-9163-652d62616467,rev?*%
%TF.SameCoordinates,Original*%
%TF.FileFunction,Drillmap*%
%TF.FilePolarity,Positive*%
%FSLAX45Y45*%
G04 Gerber Fmt 4.5, Leading zero omitted, Abs format (unit mm)*
G04 Created by KiCad (PCBNEW 8.0.1) date 2024-04-18 14:38:25*
%MOMM*%
%LPD*%
G01*
G04 APERTURE LIST*
%ADD10C,0.050000*%
%ADD11C,0.100000*%
%ADD12C,0.200000*%
G04 APERTURE END LIST*
D10*
X10050000Y-9047373D02*
X11549999Y-8181347D01*
D11*
X10025000Y-9400000D02*
G75*
G02*
X10000000Y-9375000I0J25000D01*
G01*
D10*
X10050000Y-10952627D02*
X11549999Y-11818652D01*
X11549999Y-11818652D02*
X12909461Y-12452580D01*
X10000000Y-9375000D02*
X10000000Y-9133975D01*
X10000000Y-9133975D02*
G75*
G02*
X10050002Y-9047376I100000J-5D01*
G01*
X10000000Y-10625000D02*
X10000000Y-10866024D01*
X12909461Y-7547420D02*
G75*
G02*
X12909461Y-12452580I1037463J-2452580D01*
G01*
D11*
X10000000Y-10625000D02*
G75*
G02*
X10025000Y-10600000I25000J0D01*
G01*
D10*
X10050000Y-10952627D02*
G75*
G02*
X9999996Y-10866024I50000J86607D01*
G01*
X11549999Y-8181347D02*
X12909461Y-7547420D01*
X9825000Y-10440000D02*
X9825000Y-9560000D01*
X10450000Y-9400000D02*
X10025000Y-9400000D01*
X10450000Y-9540000D02*
X9845000Y-9540000D01*
X10450000Y-10460000D02*
X9845000Y-10460000D01*
X10450000Y-10600000D02*
X10025000Y-10600000D01*
X9825000Y-9560000D02*
G75*
G02*
X9845000Y-9540000I20000J0D01*
G01*
X9845000Y-10460000D02*
G75*
G02*
X9825000Y-10440000I0J20000D01*
G01*
X10450000Y-9400000D02*
G75*
G02*
X10520000Y-9470000I0J-70000D01*
G01*
X10450000Y-10460000D02*
G75*
G02*
X10520000Y-10530000I0J-70000D01*
G01*
X10520000Y-9470000D02*
G75*
G02*
X10450000Y-9540000I-70000J0D01*
G01*
X10520000Y-10530000D02*
G75*
G02*
X10450000Y-10600000I-70000J0D01*
G01*
D12*
X10083277Y-12976967D02*
X10083277Y-12776967D01*
X10083277Y-12776967D02*
X10130896Y-12776967D01*
X10130896Y-12776967D02*
X10159467Y-12786491D01*
X10159467Y-12786491D02*
X10178515Y-12805538D01*
X10178515Y-12805538D02*
X10188039Y-12824586D01*
X10188039Y-12824586D02*
X10197563Y-12862681D01*
X10197563Y-12862681D02*
X10197563Y-12891252D01*
X10197563Y-12891252D02*
X10188039Y-12929348D01*
X10188039Y-12929348D02*
X10178515Y-12948395D01*
X10178515Y-12948395D02*
X10159467Y-12967443D01*
X10159467Y-12967443D02*
X10130896Y-12976967D01*
X10130896Y-12976967D02*
X10083277Y-12976967D01*
X10283277Y-12976967D02*
X10283277Y-12843633D01*
X10283277Y-12881729D02*
X10292801Y-12862681D01*
X10292801Y-12862681D02*
X10302324Y-12853157D01*
X10302324Y-12853157D02*
X10321372Y-12843633D01*
X10321372Y-12843633D02*
X10340420Y-12843633D01*
X10407086Y-12976967D02*
X10407086Y-12843633D01*
X10407086Y-12776967D02*
X10397563Y-12786491D01*
X10397563Y-12786491D02*
X10407086Y-12796014D01*
X10407086Y-12796014D02*
X10416610Y-12786491D01*
X10416610Y-12786491D02*
X10407086Y-12776967D01*
X10407086Y-12776967D02*
X10407086Y-12796014D01*
X10530896Y-12976967D02*
X10511848Y-12967443D01*
X10511848Y-12967443D02*
X10502324Y-12948395D01*
X10502324Y-12948395D02*
X10502324Y-12776967D01*
X10635658Y-12976967D02*
X10616610Y-12967443D01*
X10616610Y-12967443D02*
X10607086Y-12948395D01*
X10607086Y-12948395D02*
X10607086Y-12776967D01*
X10864229Y-12976967D02*
X10864229Y-12776967D01*
X10864229Y-12776967D02*
X10930896Y-12919824D01*
X10930896Y-12919824D02*
X10997563Y-12776967D01*
X10997563Y-12776967D02*
X10997563Y-12976967D01*
X11178515Y-12976967D02*
X11178515Y-12872205D01*
X11178515Y-12872205D02*
X11168991Y-12853157D01*
X11168991Y-12853157D02*
X11149944Y-12843633D01*
X11149944Y-12843633D02*
X11111848Y-12843633D01*
X11111848Y-12843633D02*
X11092801Y-12853157D01*
X11178515Y-12967443D02*
X11159467Y-12976967D01*
X11159467Y-12976967D02*
X11111848Y-12976967D01*
X11111848Y-12976967D02*
X11092801Y-12967443D01*
X11092801Y-12967443D02*
X11083277Y-12948395D01*
X11083277Y-12948395D02*
X11083277Y-12929348D01*
X11083277Y-12929348D02*
X11092801Y-12910300D01*
X11092801Y-12910300D02*
X11111848Y-12900776D01*
X11111848Y-12900776D02*
X11159467Y-12900776D01*
X11159467Y-12900776D02*
X11178515Y-12891252D01*
X11273753Y-12843633D02*
X11273753Y-13043633D01*
X11273753Y-12853157D02*
X11292801Y-12843633D01*
X11292801Y-12843633D02*
X11330896Y-12843633D01*
X11330896Y-12843633D02*
X11349943Y-12853157D01*
X11349943Y-12853157D02*
X11359467Y-12862681D01*
X11359467Y-12862681D02*
X11368991Y-12881729D01*
X11368991Y-12881729D02*
X11368991Y-12938871D01*
X11368991Y-12938871D02*
X11359467Y-12957919D01*
X11359467Y-12957919D02*
X11349943Y-12967443D01*
X11349943Y-12967443D02*
X11330896Y-12976967D01*
X11330896Y-12976967D02*
X11292801Y-12976967D01*
X11292801Y-12976967D02*
X11273753Y-12967443D01*
X11454705Y-12957919D02*
X11464229Y-12967443D01*
X11464229Y-12967443D02*
X11454705Y-12976967D01*
X11454705Y-12976967D02*
X11445182Y-12967443D01*
X11445182Y-12967443D02*
X11454705Y-12957919D01*
X11454705Y-12957919D02*
X11454705Y-12976967D01*
X11454705Y-12853157D02*
X11464229Y-12862681D01*
X11464229Y-12862681D02*
X11454705Y-12872205D01*
X11454705Y-12872205D02*
X11445182Y-12862681D01*
X11445182Y-12862681D02*
X11454705Y-12853157D01*
X11454705Y-12853157D02*
X11454705Y-12872205D01*
M02*
