G04 #@! TF.GenerationSoftware,KiCad,Pcbnew,8.0.1*
G04 #@! TF.CreationDate,2024-04-20T17:08:18+01:00*
G04 #@! TF.ProjectId,makerspace-badge,6d616b65-7273-4706-9163-652d62616467,rev?*
G04 #@! TF.SameCoordinates,Original*
G04 #@! TF.FileFunction,Legend,Top*
G04 #@! TF.FilePolarity,Positive*
%FSLAX46Y46*%
G04 Gerber Fmt 4.6, Leading zero omitted, Abs format (unit mm)*
G04 Created by KiCad (PCBNEW 8.0.1) date 2024-04-20 17:08:18*
%MOMM*%
%LPD*%
G01*
G04 APERTURE LIST*
G04 Aperture macros list*
%AMRoundRect*
0 Rectangle with rounded corners*
0 $1 Rounding radius*
0 $2 $3 $4 $5 $6 $7 $8 $9 X,Y pos of 4 corners*
0 Add a 4 corners polygon primitive as box body*
4,1,4,$2,$3,$4,$5,$6,$7,$8,$9,$2,$3,0*
0 Add four circle primitives for the rounded corners*
1,1,$1+$1,$2,$3*
1,1,$1+$1,$4,$5*
1,1,$1+$1,$6,$7*
1,1,$1+$1,$8,$9*
0 Add four rect primitives between the rounded corners*
20,1,$1+$1,$2,$3,$4,$5,0*
20,1,$1+$1,$4,$5,$6,$7,0*
20,1,$1+$1,$6,$7,$8,$9,0*
20,1,$1+$1,$8,$9,$2,$3,0*%
%AMRotRect*
0 Rectangle, with rotation*
0 The origin of the aperture is its center*
0 $1 length*
0 $2 width*
0 $3 Rotation angle, in degrees counterclockwise*
0 Add horizontal line*
21,1,$1,$2,0,0,$3*%
%AMFreePoly0*
4,1,254,-0.411096,1.760877,-0.361932,1.752184,-0.329492,1.743147,-0.284591,1.725170,-0.243738,1.701936,-0.207033,1.673569,-0.174579,1.640187,-0.146476,1.601908,-0.122825,1.558854,-0.103727,1.511142,-0.089470,1.459730,-0.086640,1.446184,-0.084582,1.433686,-0.083180,1.420741,-0.082318,1.405854,-0.081882,1.387531,-0.081755,1.364277,-0.081755,1.360000,-0.081902,1.335032,-0.082383,1.315117,
-0.083321,1.298647,-0.084834,1.284013,-0.087045,1.269605,-0.089494,1.256667,-0.098306,1.218316,-0.109239,1.181281,-0.122754,1.144497,-0.139304,1.106895,-0.159348,1.067407,-0.183343,1.024965,-0.201452,0.995000,-0.232958,0.941986,-0.259452,0.893059,-0.281024,0.848017,-0.297762,0.806658,-0.309762,0.768778,-0.316856,0.735797,-0.319600,0.708092,-0.319686,0.678386,-0.317266,0.648994,
-0.312490,0.622224,-0.308550,0.608366,-0.295112,0.576326,-0.277339,0.547301,-0.254977,0.521130,-0.227773,0.497659,-0.195472,0.476729,-0.157821,0.458181,-0.114565,0.441859,-0.065450,0.427605,-0.010223,0.415261,0.008335,0.411769,0.046840,0.405076,0.081148,0.399755,0.113034,0.395636,0.144272,0.392547,0.176633,0.390317,0.211892,0.388770,0.251823,0.387740,0.257068,0.387641,
0.288740,0.387197,0.318704,0.387095,0.347576,0.387385,0.375972,0.388130,0.404510,0.389381,0.433803,0.391196,0.464471,0.393631,0.497128,0.396742,0.532392,0.400585,0.570879,0.405217,0.613205,0.410693,0.659987,0.417069,0.711840,0.424402,0.769383,0.432748,0.796772,0.436772,0.834898,0.442541,0.867198,0.447815,0.894474,0.452800,0.917531,0.457705,0.937171,0.462737,
0.954198,0.468104,0.969415,0.474014,0.983626,0.480674,0.997634,0.488294,0.999025,0.489100,1.022443,0.504984,1.044947,0.524408,1.064999,0.545810,1.081062,0.567626,1.087559,0.579075,1.097364,0.601879,1.103180,0.624049,1.105262,0.647473,1.103862,0.674042,1.102132,0.687751,1.099830,0.706359,1.098027,0.725950,1.096966,0.743601,1.096788,0.751863,1.097523,0.769183,
1.099837,0.781270,1.103939,0.788043,1.110040,0.789420,1.118352,0.785319,1.129086,0.775658,1.142452,0.760355,1.158661,0.739329,1.170266,0.723333,1.209963,0.663602,1.244576,0.603009,1.273854,0.542134,1.297544,0.481555,1.315394,0.421853,1.327151,0.363606,1.327228,0.363098,1.329436,0.342205,1.330727,0.316375,1.331117,0.287270,1.330623,0.256554,1.329263,0.225890,
1.327052,0.196941,1.325397,0.181667,1.312955,0.102786,1.295518,0.028270,1.273037,-0.041986,1.245466,-0.108084,1.212757,-0.170129,1.174865,-0.228223,1.131740,-0.282471,1.096721,-0.319909,1.043950,-0.367976,0.986113,-0.411718,0.923226,-0.451128,0.855305,-0.486198,0.782364,-0.516920,0.704418,-0.543286,0.621483,-0.565288,0.610080,-0.567885,0.540577,-0.581404,0.466399,-0.592073,
0.388954,-0.599782,0.309649,-0.604413,0.229892,-0.605852,0.161688,-0.604436,0.074430,-0.599250,-0.011315,-0.590736,-0.094295,-0.579065,-0.173256,-0.564402,-0.222188,-0.553259,-0.305549,-0.530181,-0.383662,-0.503277,-0.456487,-0.472581,-0.523983,-0.438130,-0.586107,-0.399957,-0.642820,-0.358098,-0.694082,-0.312589,-0.739847,-0.263464,-0.780078,-0.210758,-0.814734,-0.154507,-0.843771,-0.094746,
-0.867150,-0.031510,-0.878262,0.007373,-0.889696,0.059508,-0.897244,0.112072,-0.900879,0.165770,-0.900576,0.221307,-0.896311,0.279385,-0.888054,0.340711,-0.875783,0.405987,-0.861374,0.468334,-0.848479,0.518874,-0.836243,0.564328,-0.824760,0.604369,-0.814128,0.638667,-0.804442,0.666896,-0.799596,0.679609,-0.788607,0.708344,-0.780701,0.732070,-0.775742,0.751616,-0.773595,0.767813,
-0.774126,0.781491,-0.777199,0.793478,-0.780027,0.799853,-0.786200,0.809897,-0.793970,0.818087,-0.804183,0.824770,-0.817687,0.830297,-0.835327,0.835009,-0.857951,0.839259,-0.885929,0.843330,-0.907695,0.846453,-0.930689,0.850147,-0.952503,0.854001,-0.970727,0.857603,-0.974570,0.858446,-1.020728,0.870601,-1.067275,0.886135,-1.112687,0.904402,-1.155437,0.924754,-1.194003,0.946544,
-1.215159,0.960504,-1.235184,0.975723,-1.255556,0.993153,-1.275208,1.011713,-1.293077,1.030321,-1.308098,1.047896,-1.319205,1.063357,-1.322994,1.070027,-1.329144,1.082832,-1.332361,1.091649,-1.332907,1.098339,-1.331047,1.104763,-1.328635,1.109753,-1.320123,1.119305,-1.305753,1.126308,-1.285481,1.130763,-1.259259,1.132672,-1.227040,1.132036,-1.188779,1.128858,-1.144429,1.123139,
-1.113026,1.118180,-1.084643,1.113784,-1.061829,1.111195,-1.043712,1.110492,-1.029422,1.111752,-1.018083,1.115054,-1.008829,1.120476,-1.000787,1.128097,-1.000631,1.128274,-0.995004,1.135856,-0.991061,1.144464,-0.988712,1.155096,-0.987865,1.168750,-0.988431,1.186422,-0.990314,1.209111,-0.991874,1.224046,-0.995662,1.273245,-0.995657,1.318092,-0.991817,1.359751,-0.985549,1.393334,
-0.970071,1.446156,-0.948914,1.496285,-0.922471,1.543285,-0.891135,1.586715,-0.855301,1.626139,-0.815360,1.661118,-0.771708,1.691216,-0.724736,1.715992,-0.680275,1.733273,-0.626663,1.748177,-0.571937,1.758417,-0.517099,1.763967,-0.463152,1.764798,-0.411096,1.760877,-0.411096,1.760877,$1*%
%AMFreePoly1*
4,1,6,1.000000,0.000000,0.500000,-0.750000,-0.500000,-0.750000,-0.500000,0.750000,0.500000,0.750000,1.000000,0.000000,1.000000,0.000000,$1*%
%AMFreePoly2*
4,1,6,0.500000,-0.750000,-0.650000,-0.750000,-0.150000,0.000000,-0.650000,0.750000,0.500000,0.750000,0.500000,-0.750000,0.500000,-0.750000,$1*%
%AMFreePoly3*
4,1,621,0.623792,1.916541,0.652864,1.912672,0.680612,1.904477,0.707267,1.891840,0.733059,1.874649,0.758220,1.852787,0.763949,1.847080,0.778211,1.831568,0.791854,1.814609,0.805564,1.795279,0.820023,1.772651,0.825067,1.764318,0.841078,1.738245,0.855322,1.716527,0.867879,1.699061,0.878829,1.685747,0.888251,1.676484,0.896225,1.671169,0.899359,1.670039,0.904453,1.669512,
0.908557,1.671009,0.911803,1.674959,0.914321,1.681791,0.916243,1.691932,0.917700,1.705812,0.918823,1.723858,0.919327,1.735246,0.920732,1.760573,0.922823,1.781564,0.925728,1.798676,0.929577,1.812363,0.934499,1.823083,0.940623,1.831290,0.948079,1.837441,0.948392,1.837641,0.959327,1.843131,0.973637,1.848242,0.989875,1.852609,1.006594,1.855870,1.022344,1.857659,
1.028957,1.857889,1.041934,1.857396,1.052672,1.855501,1.061874,1.851690,1.070245,1.845451,1.078486,1.836272,1.087301,1.823641,1.096363,1.808803,1.120348,1.765784,1.144178,1.718692,1.167557,1.668276,1.190189,1.615286,1.211777,1.560470,1.232027,1.504577,1.250643,1.448356,1.267328,1.392556,1.280742,1.342140,1.285943,1.320466,1.290002,1.301380,1.293109,1.283539,
1.295452,1.265599,1.297221,1.246218,1.298606,1.224053,1.299234,1.211047,1.300547,1.184273,1.301978,1.159593,1.303493,1.137413,1.305056,1.118138,1.306632,1.102172,1.308185,1.089921,1.309682,1.081791,1.310720,1.078687,1.314027,1.074146,1.318777,1.070659,1.325652,1.068035,1.335332,1.066084,1.348497,1.064616,1.365117,1.063479,1.403048,1.059268,1.442056,1.051000,
1.481113,1.038960,1.519193,1.023430,1.531674,1.017437,1.544149,1.011023,1.555292,1.004779,1.565429,0.998331,1.574889,0.991304,1.584001,0.983325,1.593093,0.974020,1.602494,0.963015,1.612531,0.949937,1.623533,0.934411,1.635829,0.916063,1.649746,0.894521,1.665613,0.869410,1.675325,0.853886,1.685130,0.838378,1.695051,0.823044,1.704514,0.808747,1.712944,0.796347,
1.719767,0.786707,1.722746,0.782741,1.735100,0.766313,1.745480,0.751031,1.754594,0.735643,1.763149,0.718897,1.771853,0.699543,1.777702,0.685517,1.783615,0.671185,1.789364,0.657536,1.794532,0.645538,1.798702,0.636160,1.801295,0.630689,1.812461,0.613464,1.827772,0.597132,1.842637,0.585147,1.861390,0.569597,1.876593,0.551936,1.889203,0.531018,1.891112,0.527151,
1.901679,0.500993,1.907701,0.476040,1.909179,0.452383,1.906117,0.430112,1.898520,0.409316,1.886389,0.390085,1.885943,0.389519,1.881627,0.383853,1.875130,0.375050,1.867039,0.363920,1.857943,0.351275,1.848433,0.337925,1.846542,0.335256,1.832568,0.315629,1.820781,0.299398,1.810691,0.285944,1.801811,0.274651,1.793650,0.264900,1.785720,0.256074,1.777530,0.247555,
1.775206,0.245223,1.762898,0.233699,1.751511,0.224981,1.739262,0.217880,1.724371,0.211209,1.723974,0.211047,1.710004,0.206057,1.692043,0.200712,1.670894,0.195186,1.647361,0.189648,1.622247,0.184271,1.596355,0.179225,1.570490,0.174681,1.545455,0.170812,1.522053,0.167787,1.519737,0.167527,1.502846,0.165448,1.489816,0.163192,1.479688,0.160378,1.471504,0.156628,
1.464306,0.151561,1.457136,0.144799,1.454051,0.141524,1.442185,0.126027,1.434939,0.110163,1.432409,0.097743,1.431999,0.089620,1.432813,0.082147,1.435211,0.074452,1.439552,0.065666,1.446196,0.054918,1.455503,0.041339,1.456039,0.040579,1.466803,0.024996,1.475249,0.011685,1.481634,-0.000279,1.486214,-0.011824,1.489246,-0.023877,1.490987,-0.037364,1.491692,-0.053213,
1.491618,-0.072350,1.491279,-0.086791,1.489850,-0.119280,1.487451,-0.149619,1.484156,-0.177364,1.480038,-0.202068,1.475170,-0.223288,1.469627,-0.240578,1.463855,-0.252867,1.455944,-0.267198,1.449389,-0.281290,1.444031,-0.295850,1.439710,-0.311585,1.436265,-0.329201,1.433535,-0.349404,1.431361,-0.372902,1.429583,-0.400401,1.429329,-0.405135,1.427928,-0.427476,1.426167,-0.446156,
1.423847,-0.462339,1.420771,-0.477185,1.416740,-0.491855,1.412069,-0.506044,1.403025,-0.528654,1.392457,-0.548370,1.379340,-0.567095,1.379060,-0.567454,1.369159,-0.578803,1.358257,-0.588535,1.345699,-0.596988,1.330833,-0.604499,1.313006,-0.611407,1.291566,-0.618049,1.270469,-0.623624,1.256012,-0.627376,1.242363,-0.631184,1.230558,-0.634739,1.221630,-0.637733,1.217411,-0.639440,
1.207825,-0.645441,1.197150,-0.654316,1.186696,-0.664754,1.177774,-0.675445,1.171693,-0.685076,1.171602,-0.685265,1.168013,-0.694344,1.164828,-0.705061,1.163578,-0.710680,1.162583,-0.727295,1.165045,-0.745547,1.170546,-0.764195,1.178672,-0.781997,1.189007,-0.797715,1.195032,-0.804565,1.202659,-0.811812,1.212096,-0.819785,1.223685,-0.828726,1.237768,-0.838875,1.254689,-0.850472,
1.274789,-0.863760,1.298413,-0.878977,1.323979,-0.895158,1.347374,-0.909909,1.367051,-0.922448,1.383406,-0.933081,1.396832,-0.942116,1.407726,-0.949859,1.416482,-0.956619,1.423494,-0.962701,1.429159,-0.968414,1.433870,-0.974065,1.438023,-0.979961,1.442013,-0.986409,1.442634,-0.987464,1.447756,-0.999501,1.450325,-1.012818,1.450146,-1.025652,1.447809,-1.034588,1.441011,-1.045468,
1.430624,-1.055855,1.417842,-1.064632,1.413100,-1.067080,1.397688,-1.073090,1.378129,-1.078665,1.355081,-1.083755,1.329205,-1.088313,1.301159,-1.092287,1.271605,-1.095630,1.241201,-1.098292,1.210607,-1.100223,1.180484,-1.101375,1.151490,-1.101699,1.124287,-1.101144,1.099532,-1.099663,1.077887,-1.097205,1.060011,-1.093722,1.059103,-1.093487,1.045045,-1.089028,1.029546,-1.082586,
1.012269,-1.073968,0.992877,-1.062979,0.971034,-1.049424,0.946404,-1.033109,0.918651,-1.013840,0.907166,-1.005667,0.884904,-0.989880,0.865748,-0.976645,0.849020,-0.965526,0.834039,-0.956088,0.820127,-0.947893,0.806605,-0.940506,0.802006,-0.938117,0.791585,-0.932455,0.782156,-0.926520,0.773054,-0.919732,0.763614,-0.911510,0.753170,-0.901274,0.741057,-0.888444,0.726610,-0.872439,
0.726289,-0.872078,0.715778,-0.861348,0.706865,-0.854656,0.702172,-0.852460,0.690855,-0.849750,0.677953,-0.849094,0.663126,-0.850582,0.646033,-0.854308,0.626331,-0.860362,0.603681,-0.868836,0.577740,-0.879822,0.548167,-0.893412,0.546032,-0.894425,0.530389,-0.901692,0.517443,-0.907150,0.505906,-0.911125,0.494492,-0.913947,0.481915,-0.915944,0.466887,-0.917442,0.451355,-0.918561,
0.431311,-0.920175,0.415526,-0.922170,0.403442,-0.924687,0.394502,-0.927864,0.388148,-0.931839,0.385029,-0.935056,0.381683,-0.940838,0.380415,-0.947462,0.381397,-0.955352,0.384799,-0.964935,0.390792,-0.976636,0.399547,-0.990878,0.411236,-1.008089,0.418561,-1.018395,0.429851,-1.034362,0.438441,-1.047219,0.444661,-1.057606,0.448843,-1.066165,0.451320,-1.073537,0.452421,-1.080361,
0.452561,-1.084122,0.451846,-1.092967,0.449288,-1.100699,0.444267,-1.108408,0.436162,-1.117187,0.430947,-1.122144,0.417509,-1.134039,0.404984,-1.143700,0.392641,-1.151361,0.379752,-1.157254,0.365588,-1.161610,0.349418,-1.164664,0.330513,-1.166646,0.308144,-1.167790,0.286154,-1.168272,0.269253,-1.168445,0.252885,-1.168516,0.238043,-1.168489,0.225721,-1.168366,0.216912,-1.168151,
0.215009,-1.168064,0.189508,-1.166631,0.161496,-1.165007,0.131373,-1.163217,0.099539,-1.161289,0.066395,-1.159249,0.032340,-1.157122,-0.002226,-1.154935,-0.036902,-1.152715,-0.071287,-1.150488,-0.104983,-1.148279,-0.137589,-1.146116,-0.168704,-1.144024,-0.197928,-1.142030,-0.224862,-1.140160,-0.249105,-1.138440,-0.270256,-1.136897,-0.287917,-1.135557,-0.301686,-1.134446,-0.311164,-1.133590,
-0.313153,-1.133382,-0.358989,-1.127040,-0.403453,-1.118331,-0.445792,-1.107453,-0.485254,-1.094608,-0.521085,-1.079993,-0.529703,-1.075933,-0.545931,-1.068327,-0.560785,-1.062087,-0.575004,-1.057081,-0.589330,-1.053174,-0.604501,-1.050234,-0.621259,-1.048128,-0.640344,-1.046720,-0.662494,-1.045879,-0.688451,-1.045471,-0.720930,-1.045268,-0.738723,-1.045016,-0.753114,-1.044550,-0.764814,-1.043773,
-0.774534,-1.042586,-0.782985,-1.040892,-0.790877,-1.038594,-0.798922,-1.035593,-0.807831,-1.031791,-0.812203,-1.029842,-0.833350,-1.019345,-0.856693,-1.005997,-0.881168,-0.990503,-0.905713,-0.973569,-0.929265,-0.955900,-0.950759,-0.938200,-0.952063,-0.937063,-0.958375,-0.931122,-0.967284,-0.922164,-0.978220,-0.910809,-0.990615,-0.897679,-1.003899,-0.883396,-1.017503,-0.868580,-1.030859,-0.853854,
-1.043396,-0.839837,-1.054545,-0.827153,-1.063738,-0.816421,-1.070406,-0.808263,-1.072181,-0.805936,-1.081342,-0.792091,-1.087621,-0.779446,-1.090649,-0.768792,-1.090873,-0.765843,-1.088883,-0.755688,-1.082970,-0.743580,-1.073417,-0.729920,-1.060510,-0.715110,-1.044534,-0.699551,-1.042692,-0.697892,-1.035654,-0.691162,-1.030342,-0.685246,-1.027581,-0.681098,-1.027374,-0.680163,-1.028108,-0.676362,
-1.029799,-0.669078,-1.032168,-0.659491,-1.034003,-0.652334,-1.039173,-0.626357,-1.040508,-0.602216,-1.038013,-0.578825,-1.034244,-0.563184,-1.031117,-0.553331,-1.026927,-0.541353,-1.022054,-0.528209,-1.016879,-0.514861,-1.011783,-0.502272,-1.007144,-0.491402,-1.003345,-0.483213,-1.000855,-0.478788,-0.995718,-0.475099,-0.987568,-0.472614,-0.978141,-0.471685,-0.969795,-0.472514,-0.955674,-0.477839,
-0.941415,-0.487188,-0.928175,-0.499733,-0.915894,-0.511834,-0.904635,-0.519611,-0.894561,-0.523030,-0.885836,-0.522054,-0.878623,-0.516650,-0.875041,-0.511177,-0.871634,-0.503113,-0.869355,-0.493840,-0.868143,-0.482577,-0.867937,-0.468546,-0.868677,-0.450968,-0.869449,-0.439711,-0.870518,-0.418751,-0.870936,-0.393785,-0.870737,-0.365585,-0.869959,-0.334919,-0.868638,-0.302558,-0.866809,-0.269269,
-0.864509,-0.235823,-0.861775,-0.202989,-0.858642,-0.171538,-0.855617,-0.145878,-0.848594,-0.096683,-0.840674,-0.051944,-0.831871,-0.011720,-0.822199,0.023932,-0.811673,0.054954,-0.800307,0.081289,-0.798970,0.083968,-0.789527,0.100943,-0.777777,0.119034,-0.763495,0.138516,-0.746454,0.159659,-0.726429,0.182737,-0.703193,0.208022,-0.676521,0.235787,-0.655631,0.256897,-0.615345,0.296268,
-0.574888,0.334022,-0.534610,0.369880,-0.494861,0.403566,-0.455989,0.434801,-0.418344,0.463308,-0.382275,0.488810,-0.348133,0.511029,-0.316266,0.529687,-0.304059,0.536182,-0.279935,0.547193,-0.251620,0.557678,-0.219725,0.567538,-0.184863,0.576670,-0.147647,0.584976,-0.108689,0.592355,-0.068602,0.598706,-0.027999,0.603930,0.012509,0.607925,0.052308,0.610592,0.090786,0.611831,
0.127330,0.611540,0.149632,0.610491,0.181115,0.607954,0.210746,0.604414,0.240009,0.599622,0.270383,0.593328,0.303350,0.585283,0.310271,0.583472,0.342210,0.574207,0.372966,0.563681,0.401799,0.552207,0.427971,0.540101,0.450742,0.527678,0.467940,0.516322,0.479607,0.508348,0.490117,0.502857,0.500000,0.500000,0.509786,0.499928,0.520002,0.502792,0.531178,0.508744,
0.543844,0.517935,0.558529,0.530515,0.575761,0.546636,0.576476,0.547324,0.598532,0.567629,0.618620,0.584103,0.637252,0.597053,0.654934,0.606787,0.672178,0.613612,0.689492,0.617837,0.694435,0.618598,0.705195,0.621639,0.714481,0.627795,0.722382,0.637295,0.728987,0.650367,0.734385,0.667240,0.738664,0.688143,0.741912,0.713305,0.744220,0.742955,0.745496,0.765851,
0.746741,0.787002,0.748104,0.809257,0.749474,0.830760,0.750521,0.846536,0.752879,0.887987,0.753988,0.925024,0.753829,0.957898,0.752382,0.986859,0.749628,1.012157,0.745548,1.034043,0.740122,1.052766,0.733417,1.068412,0.730021,1.073965,0.724221,1.082358,0.716669,1.092692,0.708013,1.104074,0.701933,1.111822,0.666723,1.157102,0.635217,1.199705,0.607434,1.239601,
0.583395,1.276755,0.563119,1.311137,0.546626,1.342714,0.533936,1.371453,0.525068,1.397322,0.523568,1.402876,0.521240,1.412360,0.519234,1.421540,0.517527,1.430843,0.516096,1.440698,0.514920,1.451531,0.513976,1.463771,0.513242,1.477845,0.512695,1.494181,0.512313,1.513207,0.512074,1.535350,0.511954,1.561039,0.511933,1.590701,0.511986,1.624308,0.512087,1.652117,
0.512260,1.679746,0.512494,1.706598,0.512783,1.732075,0.513117,1.755578,0.513489,1.776509,0.513889,1.794270,0.514311,1.808262,0.514642,1.816038,0.515524,1.832092,0.516350,1.844172,0.517246,1.853121,0.518340,1.859785,0.519757,1.865010,0.521625,1.869639,0.523132,1.872713,0.533622,1.888100,0.547616,1.900275,0.564965,1.909170,0.585517,1.914722,0.609123,1.916865,
0.623792,1.916541,0.623792,1.916541,$1*%
G04 Aperture macros list end*
%ADD10C,0.150000*%
%ADD11C,0.080000*%
%ADD12C,0.250000*%
%ADD13C,0.120000*%
%ADD14C,0.000000*%
%ADD15RoundRect,0.218750X-0.317568X-0.112544X0.061318X-0.331294X0.317568X0.112544X-0.061318X0.331294X0*%
%ADD16FreePoly0,130.000000*%
%ADD17FreePoly1,270.000000*%
%ADD18FreePoly2,270.000000*%
%ADD19RoundRect,0.218750X-0.218750X-0.256250X0.218750X-0.256250X0.218750X0.256250X-0.218750X0.256250X0*%
%ADD20RoundRect,0.218750X0.218750X0.256250X-0.218750X0.256250X-0.218750X-0.256250X0.218750X-0.256250X0*%
%ADD21RoundRect,0.150000X1.600000X0.150000X-1.600000X0.150000X-1.600000X-0.150000X1.600000X-0.150000X0*%
%ADD22RoundRect,0.150000X1.200000X0.150000X-1.200000X0.150000X-1.200000X-0.150000X1.200000X-0.150000X0*%
%ADD23RotRect,2.700000X2.600000X135.000000*%
%ADD24RoundRect,0.062500X0.282843X0.194454X0.194454X0.282843X-0.282843X-0.194454X-0.194454X-0.282843X0*%
%ADD25RoundRect,0.062500X0.282843X-0.194454X-0.194454X0.282843X-0.282843X0.194454X0.194454X-0.282843X0*%
%ADD26FreePoly0,45.000000*%
%ADD27RoundRect,0.218750X-0.315613X0.117915X-0.165979X-0.293200X0.315613X-0.117915X0.165979X0.293200X0*%
%ADD28RoundRect,0.218750X-0.256250X0.218750X-0.256250X-0.218750X0.256250X-0.218750X0.256250X0.218750X0*%
%ADD29RoundRect,0.218750X0.165979X-0.293200X0.315613X0.117915X-0.165979X0.293200X-0.315613X-0.117915X0*%
%ADD30RoundRect,0.250000X-0.262500X-0.450000X0.262500X-0.450000X0.262500X0.450000X-0.262500X0.450000X0*%
%ADD31RoundRect,0.218750X0.335378X-0.032211X0.084438X0.326168X-0.335378X0.032211X-0.084438X-0.326168X0*%
%ADD32RoundRect,0.218750X-0.336909X0.002858X-0.055689X-0.332287X0.336909X-0.002858X0.055689X0.332287X0*%
%ADD33RoundRect,0.100000X-0.100000X0.637500X-0.100000X-0.637500X0.100000X-0.637500X0.100000X0.637500X0*%
%ADD34C,0.700000*%
%ADD35C,4.400000*%
%ADD36RoundRect,0.225000X-0.225000X-0.250000X0.225000X-0.250000X0.225000X0.250000X-0.225000X0.250000X0*%
%ADD37RoundRect,0.218750X0.256250X-0.218750X0.256250X0.218750X-0.256250X0.218750X-0.256250X-0.218750X0*%
%ADD38RoundRect,0.218750X0.326168X0.084438X-0.032211X0.335378X-0.326168X-0.084438X0.032211X-0.335378X0*%
%ADD39RoundRect,0.250000X0.450000X-0.262500X0.450000X0.262500X-0.450000X0.262500X-0.450000X-0.262500X0*%
%ADD40RoundRect,0.218750X0.061318X0.331294X-0.317568X0.112544X-0.061318X-0.331294X0.317568X-0.112544X0*%
%ADD41RoundRect,0.218750X0.026517X-0.335876X0.335876X-0.026517X-0.026517X0.335876X-0.335876X0.026517X0*%
%ADD42RoundRect,0.225000X0.225000X0.250000X-0.225000X0.250000X-0.225000X-0.250000X0.225000X-0.250000X0*%
%ADD43RoundRect,0.218750X-0.061318X-0.331294X0.317568X-0.112544X0.061318X0.331294X-0.317568X0.112544X0*%
%ADD44RoundRect,0.218750X-0.084438X0.326168X-0.335378X-0.032211X0.084438X-0.326168X0.335378X0.032211X0*%
%ADD45RoundRect,0.218750X0.032211X0.335378X-0.326168X0.084438X-0.032211X-0.335378X0.326168X-0.084438X0*%
%ADD46FreePoly3,90.000000*%
%ADD47RotRect,2.700000X2.600000X45.000000*%
%ADD48RoundRect,0.062500X0.194454X-0.282843X0.282843X-0.194454X-0.194454X0.282843X-0.282843X0.194454X0*%
%ADD49RoundRect,0.062500X-0.194454X-0.282843X0.282843X0.194454X0.194454X0.282843X-0.282843X-0.194454X0*%
%ADD50RoundRect,0.218750X0.317568X0.112544X-0.061318X0.331294X-0.317568X-0.112544X0.061318X-0.331294X0*%
%ADD51RoundRect,0.218750X0.055689X-0.332287X0.336909X0.002858X-0.055689X0.332287X-0.336909X-0.002858X0*%
%ADD52RoundRect,0.218750X-0.335876X-0.026517X-0.026517X-0.335876X0.335876X0.026517X0.026517X0.335876X0*%
G04 APERTURE END LIST*
D10*
G36*
X118369930Y-101817474D02*
G01*
X116997708Y-101817474D01*
X116997708Y-101107904D01*
X117108819Y-101107904D01*
X117110207Y-101580946D01*
X117109169Y-101591334D01*
X117110248Y-101594912D01*
X117110260Y-101598726D01*
X117114454Y-101608852D01*
X117117622Y-101619350D01*
X117120013Y-101622273D01*
X117121459Y-101625762D01*
X117129212Y-101633515D01*
X117136153Y-101641998D01*
X117139479Y-101643782D01*
X117142151Y-101646454D01*
X117152280Y-101650649D01*
X117161940Y-101655832D01*
X117167464Y-101656939D01*
X117169187Y-101657653D01*
X117171024Y-101657653D01*
X117176356Y-101658722D01*
X117642124Y-101703924D01*
X117645377Y-101705272D01*
X117656007Y-101705272D01*
X117667249Y-101706363D01*
X117670865Y-101705272D01*
X117674640Y-101705272D01*
X117684764Y-101701078D01*
X117695265Y-101697910D01*
X117698189Y-101695517D01*
X117701676Y-101694073D01*
X117709424Y-101686324D01*
X117717913Y-101679379D01*
X117719698Y-101676050D01*
X117722369Y-101673380D01*
X117726562Y-101663255D01*
X117731747Y-101653592D01*
X117732122Y-101649832D01*
X117733568Y-101646344D01*
X117733568Y-101635382D01*
X117734659Y-101624473D01*
X117733568Y-101620857D01*
X117733568Y-101617081D01*
X117729373Y-101606954D01*
X117726206Y-101596457D01*
X117723814Y-101593533D01*
X117722369Y-101590045D01*
X117713042Y-101578680D01*
X117675085Y-101542035D01*
X117639682Y-101473284D01*
X117638526Y-101270548D01*
X117671823Y-101201926D01*
X117702067Y-101170599D01*
X117770818Y-101135196D01*
X117973554Y-101134040D01*
X118042176Y-101167337D01*
X118073504Y-101197582D01*
X118108907Y-101266332D01*
X118110063Y-101469068D01*
X118076767Y-101537689D01*
X118026220Y-101590045D01*
X118015021Y-101617081D01*
X118015021Y-101646344D01*
X118026219Y-101673380D01*
X118046912Y-101694073D01*
X118073948Y-101705272D01*
X118103211Y-101705272D01*
X118130247Y-101694074D01*
X118141612Y-101684747D01*
X118188953Y-101635711D01*
X118195450Y-101630078D01*
X118197429Y-101626932D01*
X118198560Y-101625762D01*
X118199317Y-101623934D01*
X118203282Y-101617635D01*
X118244957Y-101531745D01*
X118246179Y-101530524D01*
X118249848Y-101521664D01*
X118256156Y-101508666D01*
X118256347Y-101505976D01*
X118257378Y-101503488D01*
X118258819Y-101488856D01*
X118257526Y-101262250D01*
X118258230Y-101260141D01*
X118257452Y-101249198D01*
X118257378Y-101236129D01*
X118256347Y-101233640D01*
X118256156Y-101230951D01*
X118250901Y-101217220D01*
X118202209Y-101122665D01*
X118198560Y-101113855D01*
X118196177Y-101110952D01*
X118195450Y-101109539D01*
X118193950Y-101108238D01*
X118189232Y-101102489D01*
X118140195Y-101055147D01*
X118134564Y-101048654D01*
X118131418Y-101046674D01*
X118130247Y-101045543D01*
X118128417Y-101044785D01*
X118122121Y-101040822D01*
X118036232Y-100999147D01*
X118035010Y-100997925D01*
X118026144Y-100994252D01*
X118013151Y-100987948D01*
X118010463Y-100987757D01*
X118007974Y-100986726D01*
X117993342Y-100985285D01*
X117766736Y-100986577D01*
X117764627Y-100985874D01*
X117753684Y-100986651D01*
X117740615Y-100986726D01*
X117738126Y-100987756D01*
X117735437Y-100987948D01*
X117721706Y-100993203D01*
X117627151Y-101041894D01*
X117618341Y-101045544D01*
X117615438Y-101047926D01*
X117614025Y-101048654D01*
X117612725Y-101050152D01*
X117606976Y-101054871D01*
X117559634Y-101103906D01*
X117553140Y-101109539D01*
X117551160Y-101112684D01*
X117550030Y-101113855D01*
X117549272Y-101115682D01*
X117545308Y-101121982D01*
X117503633Y-101207870D01*
X117502411Y-101209093D01*
X117498738Y-101217958D01*
X117492434Y-101230952D01*
X117492243Y-101233639D01*
X117491212Y-101236129D01*
X117489771Y-101250761D01*
X117491063Y-101477365D01*
X117490360Y-101479475D01*
X117491137Y-101490417D01*
X117491212Y-101503488D01*
X117492243Y-101505977D01*
X117492434Y-101508665D01*
X117497689Y-101522397D01*
X117507559Y-101541565D01*
X117258623Y-101517406D01*
X117257378Y-101093272D01*
X117246179Y-101066236D01*
X117225487Y-101045544D01*
X117198451Y-101034345D01*
X117169187Y-101034345D01*
X117142151Y-101045544D01*
X117121459Y-101066236D01*
X117110260Y-101093272D01*
X117108819Y-101107904D01*
X116997708Y-101107904D01*
X116997708Y-100874174D01*
X118369930Y-100874174D01*
X118369930Y-101817474D01*
G37*
G36*
X113415661Y-99959002D02*
G01*
X112044708Y-99959002D01*
X112044708Y-99107666D01*
X112155819Y-99107666D01*
X112157260Y-99788964D01*
X112168459Y-99816000D01*
X112189151Y-99836692D01*
X112216187Y-99847891D01*
X112245451Y-99847891D01*
X112272487Y-99836692D01*
X112293179Y-99816000D01*
X112304378Y-99788964D01*
X112305819Y-99774332D01*
X112304648Y-99220744D01*
X113215291Y-99609612D01*
X113244553Y-99609969D01*
X113271723Y-99599101D01*
X113292666Y-99578662D01*
X113304194Y-99551764D01*
X113304550Y-99522503D01*
X113293682Y-99495333D01*
X113273244Y-99474389D01*
X113260363Y-99467301D01*
X112272745Y-99045564D01*
X112272487Y-99045306D01*
X112260935Y-99040521D01*
X112246346Y-99034291D01*
X112245881Y-99034285D01*
X112245451Y-99034107D01*
X112231265Y-99034107D01*
X112217085Y-99033934D01*
X112216653Y-99034107D01*
X112216187Y-99034107D01*
X112203097Y-99039528D01*
X112189915Y-99044802D01*
X112189581Y-99045127D01*
X112189151Y-99045306D01*
X112179131Y-99055325D01*
X112168971Y-99065241D01*
X112168787Y-99065669D01*
X112168459Y-99065998D01*
X112163032Y-99079098D01*
X112157444Y-99092139D01*
X112157438Y-99092603D01*
X112157260Y-99093034D01*
X112155819Y-99107666D01*
X112044708Y-99107666D01*
X112044708Y-98922823D01*
X113415661Y-98922823D01*
X113415661Y-99959002D01*
G37*
D11*
X102157411Y-108016570D02*
X101557411Y-108016570D01*
X101843125Y-108016570D02*
X101843125Y-107673713D01*
X102157411Y-107673713D02*
X101557411Y-107673713D01*
X102128840Y-107416571D02*
X102157411Y-107330857D01*
X102157411Y-107330857D02*
X102157411Y-107187999D01*
X102157411Y-107187999D02*
X102128840Y-107130857D01*
X102128840Y-107130857D02*
X102100268Y-107102285D01*
X102100268Y-107102285D02*
X102043125Y-107073714D01*
X102043125Y-107073714D02*
X101985982Y-107073714D01*
X101985982Y-107073714D02*
X101928840Y-107102285D01*
X101928840Y-107102285D02*
X101900268Y-107130857D01*
X101900268Y-107130857D02*
X101871697Y-107187999D01*
X101871697Y-107187999D02*
X101843125Y-107302285D01*
X101843125Y-107302285D02*
X101814554Y-107359428D01*
X101814554Y-107359428D02*
X101785982Y-107387999D01*
X101785982Y-107387999D02*
X101728840Y-107416571D01*
X101728840Y-107416571D02*
X101671697Y-107416571D01*
X101671697Y-107416571D02*
X101614554Y-107387999D01*
X101614554Y-107387999D02*
X101585982Y-107359428D01*
X101585982Y-107359428D02*
X101557411Y-107302285D01*
X101557411Y-107302285D02*
X101557411Y-107159428D01*
X101557411Y-107159428D02*
X101585982Y-107073714D01*
X102157411Y-106359427D02*
X101557411Y-106359427D01*
X105399411Y-111339142D02*
X104799411Y-111339142D01*
X104799411Y-110939143D02*
X104799411Y-110824857D01*
X104799411Y-110824857D02*
X104827982Y-110767714D01*
X104827982Y-110767714D02*
X104885125Y-110710571D01*
X104885125Y-110710571D02*
X104999411Y-110682000D01*
X104999411Y-110682000D02*
X105199411Y-110682000D01*
X105199411Y-110682000D02*
X105313697Y-110710571D01*
X105313697Y-110710571D02*
X105370840Y-110767714D01*
X105370840Y-110767714D02*
X105399411Y-110824857D01*
X105399411Y-110824857D02*
X105399411Y-110939143D01*
X105399411Y-110939143D02*
X105370840Y-110996286D01*
X105370840Y-110996286D02*
X105313697Y-111053428D01*
X105313697Y-111053428D02*
X105199411Y-111082000D01*
X105199411Y-111082000D02*
X104999411Y-111082000D01*
X104999411Y-111082000D02*
X104885125Y-111053428D01*
X104885125Y-111053428D02*
X104827982Y-110996286D01*
X104827982Y-110996286D02*
X104799411Y-110939143D01*
X105399411Y-109624857D02*
X105113697Y-109824857D01*
X105399411Y-109967714D02*
X104799411Y-109967714D01*
X104799411Y-109967714D02*
X104799411Y-109739143D01*
X104799411Y-109739143D02*
X104827982Y-109682000D01*
X104827982Y-109682000D02*
X104856554Y-109653429D01*
X104856554Y-109653429D02*
X104913697Y-109624857D01*
X104913697Y-109624857D02*
X104999411Y-109624857D01*
X104999411Y-109624857D02*
X105056554Y-109653429D01*
X105056554Y-109653429D02*
X105085125Y-109682000D01*
X105085125Y-109682000D02*
X105113697Y-109739143D01*
X105113697Y-109739143D02*
X105113697Y-109967714D01*
X105370840Y-109396286D02*
X105399411Y-109310572D01*
X105399411Y-109310572D02*
X105399411Y-109167714D01*
X105399411Y-109167714D02*
X105370840Y-109110572D01*
X105370840Y-109110572D02*
X105342268Y-109082000D01*
X105342268Y-109082000D02*
X105285125Y-109053429D01*
X105285125Y-109053429D02*
X105227982Y-109053429D01*
X105227982Y-109053429D02*
X105170840Y-109082000D01*
X105170840Y-109082000D02*
X105142268Y-109110572D01*
X105142268Y-109110572D02*
X105113697Y-109167714D01*
X105113697Y-109167714D02*
X105085125Y-109282000D01*
X105085125Y-109282000D02*
X105056554Y-109339143D01*
X105056554Y-109339143D02*
X105027982Y-109367714D01*
X105027982Y-109367714D02*
X104970840Y-109396286D01*
X104970840Y-109396286D02*
X104913697Y-109396286D01*
X104913697Y-109396286D02*
X104856554Y-109367714D01*
X104856554Y-109367714D02*
X104827982Y-109339143D01*
X104827982Y-109339143D02*
X104799411Y-109282000D01*
X104799411Y-109282000D02*
X104799411Y-109139143D01*
X104799411Y-109139143D02*
X104827982Y-109053429D01*
X104799411Y-108882000D02*
X104799411Y-108539143D01*
X105399411Y-108710571D02*
X104799411Y-108710571D01*
D10*
G36*
X122360176Y-102564337D02*
G01*
X122391504Y-102594582D01*
X122426928Y-102663372D01*
X122428018Y-102818541D01*
X122394767Y-102887070D01*
X122364521Y-102918397D01*
X122295833Y-102953769D01*
X122092115Y-102954511D01*
X122024413Y-102921661D01*
X121993085Y-102891416D01*
X121957661Y-102822625D01*
X121956571Y-102667456D01*
X121989823Y-102598926D01*
X122020067Y-102567599D01*
X122088818Y-102532196D01*
X122291554Y-102531040D01*
X122360176Y-102564337D01*
G37*
G36*
X122687930Y-103214824D02*
G01*
X121315708Y-103214824D01*
X121315708Y-102552523D01*
X121426819Y-102552523D01*
X121428077Y-102731610D01*
X121427408Y-102733618D01*
X121428166Y-102744290D01*
X121428260Y-102757631D01*
X121429291Y-102760120D01*
X121429482Y-102762808D01*
X121434737Y-102776540D01*
X121483429Y-102871096D01*
X121487078Y-102879905D01*
X121489460Y-102882807D01*
X121490188Y-102884221D01*
X121491686Y-102885520D01*
X121496405Y-102891270D01*
X121540958Y-102934283D01*
X121544079Y-102938944D01*
X121555325Y-102948155D01*
X121555389Y-102948216D01*
X121555411Y-102948225D01*
X121555454Y-102948260D01*
X121699367Y-103042602D01*
X121707878Y-103048908D01*
X121710315Y-103049779D01*
X121711286Y-103050415D01*
X121713100Y-103050773D01*
X121721724Y-103053855D01*
X121908089Y-103099095D01*
X121915758Y-103102272D01*
X121924872Y-103103169D01*
X121926744Y-103103624D01*
X121927836Y-103103461D01*
X121930390Y-103103713D01*
X122299692Y-103102367D01*
X122301961Y-103103124D01*
X122313302Y-103102318D01*
X122325974Y-103102272D01*
X122328463Y-103101240D01*
X122331151Y-103101050D01*
X122344883Y-103095795D01*
X122439435Y-103047104D01*
X122448247Y-103043455D01*
X122451151Y-103041071D01*
X122452564Y-103040344D01*
X122453863Y-103038845D01*
X122459612Y-103034128D01*
X122506953Y-102985092D01*
X122513450Y-102979459D01*
X122515429Y-102976313D01*
X122516560Y-102975143D01*
X122517317Y-102973315D01*
X122521282Y-102967016D01*
X122562957Y-102881126D01*
X122564179Y-102879905D01*
X122567848Y-102871045D01*
X122574156Y-102858047D01*
X122574347Y-102855357D01*
X122575378Y-102852869D01*
X122576819Y-102838237D01*
X122575560Y-102659148D01*
X122576230Y-102657141D01*
X122575471Y-102646468D01*
X122575378Y-102633129D01*
X122574347Y-102630640D01*
X122574156Y-102627951D01*
X122568901Y-102614220D01*
X122520209Y-102519665D01*
X122516560Y-102510855D01*
X122514177Y-102507952D01*
X122513450Y-102506539D01*
X122511950Y-102505238D01*
X122507232Y-102499489D01*
X122458195Y-102452147D01*
X122452564Y-102445654D01*
X122449418Y-102443674D01*
X122448247Y-102442543D01*
X122446417Y-102441785D01*
X122440121Y-102437822D01*
X122354232Y-102396147D01*
X122353010Y-102394925D01*
X122344144Y-102391252D01*
X122331151Y-102384948D01*
X122328463Y-102384757D01*
X122325974Y-102383726D01*
X122311342Y-102382285D01*
X122084736Y-102383577D01*
X122082627Y-102382874D01*
X122071684Y-102383651D01*
X122058615Y-102383726D01*
X122056126Y-102384756D01*
X122053437Y-102384948D01*
X122039706Y-102390203D01*
X121945151Y-102438894D01*
X121936341Y-102442544D01*
X121933438Y-102444926D01*
X121932025Y-102445654D01*
X121930725Y-102447152D01*
X121924976Y-102451871D01*
X121877634Y-102500906D01*
X121871140Y-102506539D01*
X121869160Y-102509684D01*
X121868030Y-102510855D01*
X121867272Y-102512682D01*
X121863308Y-102518982D01*
X121821633Y-102604870D01*
X121820411Y-102606093D01*
X121816738Y-102614958D01*
X121810434Y-102627952D01*
X121810243Y-102630639D01*
X121809212Y-102633129D01*
X121807771Y-102647761D01*
X121809029Y-102826848D01*
X121808360Y-102828856D01*
X121809118Y-102839528D01*
X121809212Y-102852869D01*
X121810243Y-102855358D01*
X121810434Y-102858046D01*
X121815689Y-102871778D01*
X121846241Y-102931109D01*
X121773540Y-102913460D01*
X121649154Y-102831919D01*
X121612133Y-102796178D01*
X121576709Y-102727387D01*
X121575378Y-102537891D01*
X121564179Y-102510855D01*
X121543487Y-102490163D01*
X121516451Y-102478964D01*
X121487187Y-102478964D01*
X121460151Y-102490163D01*
X121439459Y-102510855D01*
X121428260Y-102537891D01*
X121426819Y-102552523D01*
X121315708Y-102552523D01*
X121315708Y-102271174D01*
X122687930Y-102271174D01*
X122687930Y-103214824D01*
G37*
D12*
G36*
X103706378Y-99891473D02*
G01*
X103762565Y-99945988D01*
X103789921Y-99998278D01*
X103791391Y-100129751D01*
X103767304Y-100180219D01*
X103710169Y-100239105D01*
X103573476Y-100274863D01*
X103271346Y-100276892D01*
X103122858Y-100241482D01*
X103066673Y-100186969D01*
X103039316Y-100134677D01*
X103037846Y-100003203D01*
X103061934Y-99952735D01*
X103119066Y-99893851D01*
X103255760Y-99858092D01*
X103557890Y-99856063D01*
X103706378Y-99891473D01*
G37*
G36*
X103266982Y-98880710D02*
G01*
X103287147Y-98899847D01*
X103313586Y-98950384D01*
X103314953Y-99180979D01*
X103038890Y-99181626D01*
X103037554Y-98956197D01*
X103062184Y-98904590D01*
X103081321Y-98884425D01*
X103132302Y-98857754D01*
X103216352Y-98856547D01*
X103266982Y-98880710D01*
G37*
G36*
X104164619Y-102840103D02*
G01*
X102617185Y-102840103D01*
X102617185Y-102406616D01*
X102742185Y-102406616D01*
X102746579Y-102423767D01*
X102749083Y-102441292D01*
X102752584Y-102447205D01*
X102754290Y-102453862D01*
X102767000Y-102474812D01*
X102926410Y-102683356D01*
X102968377Y-102708205D01*
X103016661Y-102715103D01*
X103063907Y-102702998D01*
X103102925Y-102673735D01*
X103127774Y-102631768D01*
X103134672Y-102583484D01*
X103122567Y-102536238D01*
X103109857Y-102515288D01*
X103021892Y-102400210D01*
X103122567Y-102263386D01*
X103134672Y-102216140D01*
X103127774Y-102167856D01*
X103102925Y-102125889D01*
X103063907Y-102096626D01*
X103016661Y-102084521D01*
X102968377Y-102091419D01*
X102926410Y-102116268D01*
X102909857Y-102134336D01*
X102778368Y-102313037D01*
X102773932Y-102316365D01*
X102765738Y-102330202D01*
X102754290Y-102345762D01*
X102752584Y-102352418D01*
X102749083Y-102358332D01*
X102746579Y-102375856D01*
X102742185Y-102393008D01*
X102743157Y-102399812D01*
X102742185Y-102406616D01*
X102617185Y-102406616D01*
X102617185Y-100685526D01*
X102789619Y-100685526D01*
X102792021Y-101281340D01*
X102810685Y-101326400D01*
X102845173Y-101360888D01*
X102890233Y-101379552D01*
X102939005Y-101379552D01*
X102984065Y-101360888D01*
X103018553Y-101326400D01*
X103037217Y-101281340D01*
X103039619Y-101256954D01*
X103038969Y-101095948D01*
X103939005Y-101093838D01*
X103984065Y-101075174D01*
X104018553Y-101040686D01*
X104037217Y-100995626D01*
X104037217Y-100946854D01*
X104018553Y-100901794D01*
X103984065Y-100867306D01*
X103939005Y-100848642D01*
X103914619Y-100846240D01*
X103037971Y-100848295D01*
X103037217Y-100661140D01*
X103018553Y-100616080D01*
X102984065Y-100581592D01*
X102939005Y-100562928D01*
X102890233Y-100562928D01*
X102845173Y-100581592D01*
X102810685Y-100616080D01*
X102792021Y-100661140D01*
X102789619Y-100685526D01*
X102617185Y-100685526D01*
X102617185Y-99971240D01*
X102789619Y-99971240D01*
X102791542Y-100143256D01*
X102790600Y-100146082D01*
X102791755Y-100162335D01*
X102792021Y-100186102D01*
X102793739Y-100190250D01*
X102794058Y-100194732D01*
X102802816Y-100217618D01*
X102852901Y-100313354D01*
X102858305Y-100326400D01*
X102862224Y-100331176D01*
X102863489Y-100333593D01*
X102865983Y-100335756D01*
X102873850Y-100345342D01*
X102961305Y-100430195D01*
X102964896Y-100436180D01*
X102975800Y-100444259D01*
X102988030Y-100456125D01*
X102996615Y-100459681D01*
X103004084Y-100465215D01*
X103027159Y-100473460D01*
X103211547Y-100517430D01*
X103223566Y-100522409D01*
X103238655Y-100523895D01*
X103241875Y-100524663D01*
X103243697Y-100524391D01*
X103247952Y-100524811D01*
X103573657Y-100522623D01*
X103587361Y-100524663D01*
X103602460Y-100522430D01*
X103605671Y-100522409D01*
X103607372Y-100521704D01*
X103611602Y-100521079D01*
X103788551Y-100474790D01*
X103796147Y-100474790D01*
X103809168Y-100469396D01*
X103825153Y-100465215D01*
X103832619Y-100459682D01*
X103841207Y-100456126D01*
X103860149Y-100440581D01*
X103954428Y-100343411D01*
X103965749Y-100333593D01*
X103969063Y-100328327D01*
X103970933Y-100326401D01*
X103972196Y-100323350D01*
X103978803Y-100312856D01*
X104017099Y-100232615D01*
X104018553Y-100231162D01*
X104023544Y-100219112D01*
X104035180Y-100194732D01*
X104035498Y-100190251D01*
X104037217Y-100186102D01*
X104039619Y-100161716D01*
X104037695Y-99989696D01*
X104038637Y-99986873D01*
X104037482Y-99970630D01*
X104037217Y-99946854D01*
X104035498Y-99942704D01*
X104035180Y-99938224D01*
X104026422Y-99915338D01*
X103976338Y-99819604D01*
X103970933Y-99806555D01*
X103967011Y-99801777D01*
X103965749Y-99799363D01*
X103963257Y-99797201D01*
X103955388Y-99787613D01*
X103867930Y-99702757D01*
X103864341Y-99696776D01*
X103853441Y-99688700D01*
X103841207Y-99676830D01*
X103832619Y-99673273D01*
X103825153Y-99667741D01*
X103802078Y-99659496D01*
X103617690Y-99615525D01*
X103605671Y-99610547D01*
X103590579Y-99609060D01*
X103587361Y-99608293D01*
X103585539Y-99608564D01*
X103581285Y-99608145D01*
X103255579Y-99610332D01*
X103241875Y-99608293D01*
X103226776Y-99610525D01*
X103223566Y-99610547D01*
X103221864Y-99611251D01*
X103217635Y-99611877D01*
X103040686Y-99658166D01*
X103033089Y-99658166D01*
X103020068Y-99663559D01*
X103004084Y-99667741D01*
X102996615Y-99673274D01*
X102988030Y-99676831D01*
X102969088Y-99692376D01*
X102874814Y-99789540D01*
X102863489Y-99799363D01*
X102860172Y-99804631D01*
X102858305Y-99806556D01*
X102857043Y-99809602D01*
X102850434Y-99820101D01*
X102812138Y-99900340D01*
X102810685Y-99901794D01*
X102805694Y-99913842D01*
X102794058Y-99938224D01*
X102793739Y-99942705D01*
X102792021Y-99946854D01*
X102789619Y-99971240D01*
X102617185Y-99971240D01*
X102617185Y-98923621D01*
X102789619Y-98923621D01*
X102792021Y-99328959D01*
X102810685Y-99374019D01*
X102845173Y-99408507D01*
X102890233Y-99427171D01*
X102914619Y-99429573D01*
X103939005Y-99427171D01*
X103984065Y-99408507D01*
X104018553Y-99374019D01*
X104037217Y-99328959D01*
X104037217Y-99280187D01*
X104018553Y-99235127D01*
X103984065Y-99200639D01*
X103939005Y-99181975D01*
X103914619Y-99179573D01*
X103562692Y-99180398D01*
X103561283Y-98942740D01*
X103562446Y-98939254D01*
X103561155Y-98921093D01*
X103561026Y-98899235D01*
X103559307Y-98895085D01*
X103558989Y-98890605D01*
X103550231Y-98867719D01*
X103500147Y-98771985D01*
X103494742Y-98758936D01*
X103490820Y-98754158D01*
X103489558Y-98751744D01*
X103487066Y-98749582D01*
X103479197Y-98739994D01*
X103427875Y-98691292D01*
X103419829Y-98682015D01*
X103414689Y-98678779D01*
X103412636Y-98676831D01*
X103409589Y-98675569D01*
X103399091Y-98668960D01*
X103318851Y-98630664D01*
X103317398Y-98629211D01*
X103305349Y-98624220D01*
X103280968Y-98612584D01*
X103276486Y-98612265D01*
X103272338Y-98610547D01*
X103247952Y-98608145D01*
X103123159Y-98609937D01*
X103120728Y-98609127D01*
X103105820Y-98610186D01*
X103080709Y-98610547D01*
X103076559Y-98612265D01*
X103072079Y-98612584D01*
X103049193Y-98621342D01*
X102953459Y-98671425D01*
X102940410Y-98676831D01*
X102935632Y-98680752D01*
X102933218Y-98682015D01*
X102931056Y-98684506D01*
X102921468Y-98692376D01*
X102872766Y-98743697D01*
X102863489Y-98751744D01*
X102860253Y-98756883D01*
X102858305Y-98758937D01*
X102857043Y-98761983D01*
X102850434Y-98772482D01*
X102812138Y-98852721D01*
X102810685Y-98854175D01*
X102805694Y-98866223D01*
X102794058Y-98890605D01*
X102793739Y-98895086D01*
X102792021Y-98899235D01*
X102789619Y-98923621D01*
X102617185Y-98923621D01*
X102617185Y-97501853D01*
X102742185Y-97501853D01*
X102746579Y-97519004D01*
X102749083Y-97536529D01*
X102752584Y-97542442D01*
X102754290Y-97549099D01*
X102767000Y-97570049D01*
X102926410Y-97778593D01*
X102968377Y-97803442D01*
X103016661Y-97810340D01*
X103063907Y-97798235D01*
X103102925Y-97768972D01*
X103127774Y-97727005D01*
X103134672Y-97678721D01*
X103122567Y-97631475D01*
X103109857Y-97610525D01*
X103021892Y-97495447D01*
X103122567Y-97358623D01*
X103134672Y-97311377D01*
X103127774Y-97263093D01*
X103102925Y-97221126D01*
X103063907Y-97191863D01*
X103016661Y-97179758D01*
X102968377Y-97186656D01*
X102926410Y-97211505D01*
X102909857Y-97229573D01*
X102778368Y-97408274D01*
X102773932Y-97411602D01*
X102765738Y-97425439D01*
X102754290Y-97440999D01*
X102752584Y-97447655D01*
X102749083Y-97453569D01*
X102746579Y-97471093D01*
X102742185Y-97488245D01*
X102743157Y-97495049D01*
X102742185Y-97501853D01*
X102617185Y-97501853D01*
X102617185Y-97054758D01*
X104164619Y-97054758D01*
X104164619Y-102840103D01*
G37*
D13*
X102505000Y-107148000D02*
X104505000Y-107148000D01*
X102505000Y-109948000D02*
X102505000Y-107148000D01*
X104505000Y-107148000D02*
X104505000Y-109948000D01*
X104505000Y-109948000D02*
X102505000Y-109948000D01*
X114871360Y-109432041D02*
X114531949Y-109092630D01*
X114935000Y-109028991D01*
X114871360Y-109432041D01*
G36*
X114871360Y-109432041D02*
G01*
X114531949Y-109092630D01*
X114935000Y-109028991D01*
X114871360Y-109432041D01*
G37*
X117918991Y-106045000D02*
X117583115Y-106380876D01*
X117583115Y-105709124D02*
X117918991Y-106045000D01*
X115270876Y-108693115D02*
X115104706Y-108859285D01*
X115270876Y-103396885D02*
X114935000Y-103061009D01*
X114935000Y-103061009D02*
X114599124Y-103396885D01*
X114599124Y-108693115D02*
X114722868Y-108816859D01*
X112286885Y-106380876D02*
X111951009Y-106045000D01*
X111951009Y-106045000D02*
X112286885Y-105709124D01*
D14*
G36*
X126537725Y-113114841D02*
G01*
X126767313Y-113204107D01*
X126955389Y-113359263D01*
X127086547Y-113565907D01*
X127145377Y-113809638D01*
X127116472Y-114076055D01*
X127077599Y-114184129D01*
X126935178Y-114385330D01*
X126725697Y-114528612D01*
X126479200Y-114604908D01*
X126225732Y-114605154D01*
X125995336Y-114520287D01*
X125985105Y-114513741D01*
X125788553Y-114328572D01*
X125671168Y-114098684D01*
X125632397Y-113847980D01*
X125671688Y-113600364D01*
X125788488Y-113379739D01*
X125982245Y-113210008D01*
X126015651Y-113191580D01*
X126282035Y-113105864D01*
X126537725Y-113114841D01*
G37*
G36*
X126562986Y-85340276D02*
G01*
X126805954Y-85445888D01*
X126981918Y-85632285D01*
X127081508Y-85890854D01*
X127100849Y-86094674D01*
X127091080Y-86264537D01*
X127047173Y-86387578D01*
X126947714Y-86512565D01*
X126892528Y-86569088D01*
X126745237Y-86696112D01*
X126600875Y-86788784D01*
X126537115Y-86814480D01*
X126276766Y-86829140D01*
X126033118Y-86753285D01*
X125824350Y-86604918D01*
X125668640Y-86402041D01*
X125584166Y-86162656D01*
X125589108Y-85904766D01*
X125594601Y-85881099D01*
X125652596Y-85756473D01*
X125757791Y-85605656D01*
X125808840Y-85545966D01*
X125946835Y-85417606D01*
X126088599Y-85351869D01*
X126262385Y-85324060D01*
X126562986Y-85340276D01*
G37*
G36*
X152067721Y-111598716D02*
G01*
X152451210Y-111682931D01*
X152787714Y-111852504D01*
X153067476Y-112092650D01*
X153280740Y-112388585D01*
X153417753Y-112725524D01*
X153468758Y-113088683D01*
X153423999Y-113463279D01*
X153384131Y-113593718D01*
X153203881Y-113954788D01*
X152956484Y-114242818D01*
X152657600Y-114454133D01*
X152322886Y-114585054D01*
X151993056Y-114628598D01*
X151968001Y-114631906D01*
X151608603Y-114591009D01*
X151260350Y-114458688D01*
X150938901Y-114231264D01*
X150885629Y-114180477D01*
X150630765Y-113857085D01*
X150475671Y-113503667D01*
X150433431Y-113222010D01*
X151142483Y-113222010D01*
X151225491Y-113486291D01*
X151388897Y-113713847D01*
X151530984Y-113826949D01*
X151740270Y-113904105D01*
X151993056Y-113920659D01*
X152243316Y-113878618D01*
X152435039Y-113787532D01*
X152610814Y-113599967D01*
X152731730Y-113355200D01*
X152774002Y-113113301D01*
X152748019Y-112930841D01*
X152684834Y-112745060D01*
X152678495Y-112732024D01*
X152512083Y-112508638D01*
X152291606Y-112363695D01*
X152039724Y-112297867D01*
X151779096Y-112311825D01*
X151532383Y-112406244D01*
X151322246Y-112581795D01*
X151244414Y-112689468D01*
X151146561Y-112947554D01*
X151142483Y-113222010D01*
X150433431Y-113222010D01*
X150420334Y-113134680D01*
X150464743Y-112764581D01*
X150608886Y-112407827D01*
X150852752Y-112078874D01*
X150887378Y-112043292D01*
X151201030Y-111789946D01*
X151536141Y-111640843D01*
X151904963Y-111591369D01*
X152067721Y-111598716D01*
G37*
G36*
X152172769Y-98457338D02*
G01*
X152545385Y-98562075D01*
X152892565Y-98763514D01*
X152892879Y-98763753D01*
X153125613Y-99002202D01*
X153306781Y-99308111D01*
X153425463Y-99650531D01*
X153470738Y-99998510D01*
X153436336Y-100304054D01*
X153284004Y-100680210D01*
X153047465Y-100996628D01*
X152740662Y-101241543D01*
X152377538Y-101403191D01*
X152061386Y-101464160D01*
X151955365Y-101460382D01*
X151677457Y-101450479D01*
X151331805Y-101346198D01*
X151031639Y-101165456D01*
X150784168Y-100922388D01*
X150596601Y-100631134D01*
X150476147Y-100305830D01*
X150430016Y-99960613D01*
X150431187Y-99949000D01*
X151135870Y-99949000D01*
X151181479Y-100228884D01*
X151305475Y-100455653D01*
X151488617Y-100624560D01*
X151711661Y-100730858D01*
X151955365Y-100769801D01*
X152200486Y-100736642D01*
X152427782Y-100626636D01*
X152618008Y-100435035D01*
X152681605Y-100330277D01*
X152749838Y-100103454D01*
X152754395Y-99844110D01*
X152698230Y-99599551D01*
X152627701Y-99466974D01*
X152503248Y-99340835D01*
X152345461Y-99231708D01*
X152333299Y-99225321D01*
X152055936Y-99137463D01*
X151784612Y-99145831D01*
X151538169Y-99239039D01*
X151335450Y-99405698D01*
X151195298Y-99634422D01*
X151136555Y-99913823D01*
X151135870Y-99949000D01*
X150431187Y-99949000D01*
X150465417Y-99609621D01*
X150589559Y-99266991D01*
X150789499Y-98969959D01*
X151083080Y-98705613D01*
X151423538Y-98530879D01*
X151792793Y-98447530D01*
X152172769Y-98457338D01*
G37*
G36*
X152287358Y-85312430D02*
G01*
X152626287Y-85434669D01*
X152942473Y-85650277D01*
X153018157Y-85721358D01*
X153233727Y-86002264D01*
X153385204Y-86334937D01*
X153463305Y-86687879D01*
X153458748Y-87029589D01*
X153436158Y-87139753D01*
X153283757Y-87521266D01*
X153051963Y-87838119D01*
X152754084Y-88080739D01*
X152403426Y-88239553D01*
X152013298Y-88304989D01*
X151917312Y-88302945D01*
X151821956Y-88300915D01*
X151483748Y-88243552D01*
X151199258Y-88120062D01*
X150927948Y-87912175D01*
X150898683Y-87884809D01*
X150649395Y-87586184D01*
X150497664Y-87249214D01*
X150438532Y-86916698D01*
X150443366Y-86801948D01*
X151144642Y-86801948D01*
X151148325Y-86860669D01*
X151168826Y-87052684D01*
X151211518Y-87182490D01*
X151298352Y-87297125D01*
X151396851Y-87393249D01*
X151540878Y-87517001D01*
X151661073Y-87579897D01*
X151806988Y-87602006D01*
X151917312Y-87604054D01*
X152215342Y-87557365D01*
X152460771Y-87428761D01*
X152642418Y-87235429D01*
X152749099Y-86994562D01*
X152769631Y-86723348D01*
X152692833Y-86438979D01*
X152685502Y-86423169D01*
X152525365Y-86198941D01*
X152308811Y-86051369D01*
X152058414Y-85981643D01*
X151796751Y-85990953D01*
X151546398Y-86080491D01*
X151329931Y-86251446D01*
X151254620Y-86347710D01*
X151178955Y-86481518D01*
X151145533Y-86617309D01*
X151144642Y-86801948D01*
X150443366Y-86801948D01*
X150455001Y-86525715D01*
X150560817Y-86176161D01*
X150741968Y-85874529D01*
X150984442Y-85627312D01*
X151274229Y-85441000D01*
X151597318Y-85322088D01*
X151939698Y-85277068D01*
X152287358Y-85312430D01*
G37*
G36*
X134914973Y-82415803D02*
G01*
X136131316Y-82416053D01*
X137447764Y-82416375D01*
X138868485Y-82416667D01*
X139156922Y-82416712D01*
X140612225Y-82417011D01*
X141962120Y-82417484D01*
X143210449Y-82418154D01*
X144361051Y-82419041D01*
X145417767Y-82420167D01*
X146384437Y-82421554D01*
X147264900Y-82423223D01*
X148062998Y-82425197D01*
X148782570Y-82427495D01*
X149427457Y-82430141D01*
X150001499Y-82433154D01*
X150508535Y-82436558D01*
X150952407Y-82440374D01*
X151336955Y-82444622D01*
X151666018Y-82449325D01*
X151943437Y-82454504D01*
X152173052Y-82460181D01*
X152358703Y-82466377D01*
X152504231Y-82473114D01*
X152613475Y-82480413D01*
X152690277Y-82488296D01*
X152719548Y-82492792D01*
X153376206Y-82664412D01*
X153984754Y-82927779D01*
X154538216Y-83274132D01*
X155029617Y-83694710D01*
X155451981Y-84180752D01*
X155798333Y-84723497D01*
X156061699Y-85314184D01*
X156235102Y-85944052D01*
X156311568Y-86604341D01*
X156308601Y-87000690D01*
X156267096Y-87473277D01*
X156190633Y-87882191D01*
X156068839Y-88270199D01*
X155911816Y-88637055D01*
X155566272Y-89247789D01*
X155143371Y-89783861D01*
X154648923Y-90240515D01*
X154088740Y-90612994D01*
X153468632Y-90896543D01*
X152965354Y-91048555D01*
X152895645Y-91064505D01*
X152822088Y-91078764D01*
X152738471Y-91091429D01*
X152638587Y-91102596D01*
X152516224Y-91112363D01*
X152365173Y-91120826D01*
X152179224Y-91128083D01*
X151952166Y-91134231D01*
X151741710Y-91138170D01*
X151677790Y-91139366D01*
X151349886Y-91143585D01*
X150962244Y-91146985D01*
X150508654Y-91149664D01*
X149982905Y-91151717D01*
X149378789Y-91153243D01*
X148690095Y-91154338D01*
X147910613Y-91155098D01*
X147034133Y-91155622D01*
X146082774Y-91155996D01*
X145244936Y-91156683D01*
X144432523Y-91158137D01*
X143652798Y-91160304D01*
X142913026Y-91163131D01*
X142220471Y-91166564D01*
X141582396Y-91170549D01*
X141006066Y-91175032D01*
X140498743Y-91179960D01*
X140067693Y-91185279D01*
X139720178Y-91190935D01*
X139463463Y-91196874D01*
X139304812Y-91203043D01*
X139262491Y-91206449D01*
X138821724Y-91313273D01*
X138406607Y-91508872D01*
X138036198Y-91778826D01*
X137729556Y-92108719D01*
X137505742Y-92484132D01*
X137474214Y-92559262D01*
X137374911Y-92922828D01*
X137338077Y-93321532D01*
X137363299Y-93717588D01*
X137450165Y-94073211D01*
X137491845Y-94174305D01*
X137736985Y-94596780D01*
X138048284Y-94944201D01*
X138437504Y-95227416D01*
X138857090Y-95433492D01*
X139145569Y-95551796D01*
X145946215Y-95581256D01*
X146952976Y-95585692D01*
X147856398Y-95589882D01*
X148662388Y-95593932D01*
X149376853Y-95597948D01*
X150005700Y-95602036D01*
X150554838Y-95606302D01*
X151030172Y-95610852D01*
X151437610Y-95615793D01*
X151783060Y-95621229D01*
X152072428Y-95627267D01*
X152311623Y-95634014D01*
X152506551Y-95641574D01*
X152663120Y-95650054D01*
X152787237Y-95659561D01*
X152884809Y-95670199D01*
X152961744Y-95682075D01*
X153023948Y-95695295D01*
X153074602Y-95709142D01*
X153741618Y-95962957D01*
X154348291Y-96302567D01*
X154887926Y-96721323D01*
X155353828Y-97212578D01*
X155739302Y-97769685D01*
X156037652Y-98385996D01*
X156173372Y-98785981D01*
X156228020Y-98997916D01*
X156264204Y-99203960D01*
X156285264Y-99435833D01*
X156294542Y-99725259D01*
X156295841Y-99949000D01*
X156286675Y-100381627D01*
X156254288Y-100740815D01*
X156190913Y-101061270D01*
X156088784Y-101377702D01*
X155940136Y-101724819D01*
X155861947Y-101888140D01*
X155512717Y-102481908D01*
X155082473Y-103002847D01*
X154572872Y-103449554D01*
X153985565Y-103820623D01*
X153322208Y-104114651D01*
X153183849Y-104162985D01*
X152801483Y-104291101D01*
X151741202Y-104295600D01*
X145946215Y-104320190D01*
X144798512Y-104325458D01*
X143758442Y-104331076D01*
X142824390Y-104337063D01*
X141994740Y-104343440D01*
X141267877Y-104350227D01*
X140642188Y-104357444D01*
X140116057Y-104365112D01*
X139687870Y-104373252D01*
X139356012Y-104381882D01*
X139118867Y-104391024D01*
X138974822Y-104400698D01*
X138926572Y-104408436D01*
X138442655Y-104632561D01*
X138040564Y-104925443D01*
X137723634Y-105283290D01*
X137495197Y-105702313D01*
X137358586Y-106178721D01*
X137355816Y-106194592D01*
X137327541Y-106664300D01*
X137401532Y-107113981D01*
X137571242Y-107533389D01*
X137830128Y-107912277D01*
X138171646Y-108240400D01*
X138589251Y-108507512D01*
X138926572Y-108653865D01*
X139000791Y-108663958D01*
X139166879Y-108673503D01*
X139426452Y-108682522D01*
X139781124Y-108691033D01*
X140232510Y-108699058D01*
X140782224Y-108706617D01*
X141431881Y-108713730D01*
X142183096Y-108720418D01*
X143037484Y-108726700D01*
X143996659Y-108732597D01*
X145062237Y-108738130D01*
X145946215Y-108742111D01*
X152801483Y-108771200D01*
X153183849Y-108899316D01*
X153829418Y-109165158D01*
X154420428Y-109508480D01*
X154941982Y-109919324D01*
X155342898Y-110342521D01*
X155551708Y-110634237D01*
X155762537Y-110990243D01*
X155955533Y-111371970D01*
X156110843Y-111740847D01*
X156192701Y-111993516D01*
X156249063Y-112287757D01*
X156286145Y-112651440D01*
X156303130Y-113047757D01*
X156299201Y-113439901D01*
X156273542Y-113791065D01*
X156237530Y-114014591D01*
X156036880Y-114674184D01*
X155744370Y-115283694D01*
X155368020Y-115835225D01*
X154915847Y-116320881D01*
X154395869Y-116732767D01*
X153816102Y-117062988D01*
X153184566Y-117303647D01*
X152801483Y-117398327D01*
X152747349Y-117407727D01*
X152679661Y-117416417D01*
X152594316Y-117424418D01*
X152487211Y-117431751D01*
X152354244Y-117438438D01*
X152191310Y-117444501D01*
X151994307Y-117449961D01*
X151962719Y-117450616D01*
X151759132Y-117454839D01*
X151481681Y-117459158D01*
X151157852Y-117462939D01*
X150783541Y-117466202D01*
X150354646Y-117468971D01*
X149867062Y-117471266D01*
X149316687Y-117473109D01*
X148699419Y-117474521D01*
X148011153Y-117475524D01*
X147247786Y-117476140D01*
X146405216Y-117476390D01*
X145479340Y-117476295D01*
X144466053Y-117475878D01*
X143361254Y-117475159D01*
X142160839Y-117474161D01*
X140860704Y-117472904D01*
X139456748Y-117471411D01*
X138981698Y-117470883D01*
X126390946Y-117456770D01*
X125598903Y-117455882D01*
X125128170Y-117287352D01*
X124546263Y-117024936D01*
X124026141Y-116679584D01*
X123577195Y-116259330D01*
X123208819Y-115772210D01*
X123067156Y-115524323D01*
X122979681Y-115355898D01*
X122905516Y-115208699D01*
X122843504Y-115072334D01*
X122792489Y-114936412D01*
X122751312Y-114790541D01*
X122718815Y-114624329D01*
X122693843Y-114427386D01*
X122675238Y-114189320D01*
X122665968Y-113988953D01*
X124282559Y-113988953D01*
X124358363Y-114423713D01*
X124527380Y-114832604D01*
X124781620Y-115200890D01*
X125113098Y-115513836D01*
X125506004Y-115753022D01*
X125693352Y-115836670D01*
X125849633Y-115888182D01*
X126013753Y-115915180D01*
X126224618Y-115925289D01*
X126390946Y-115926419D01*
X126655609Y-115922113D01*
X126848456Y-115904823D01*
X127006730Y-115867990D01*
X127167672Y-115805055D01*
X127222212Y-115780025D01*
X127615004Y-115538760D01*
X127959396Y-115214765D01*
X128235289Y-114830829D01*
X128417938Y-114424269D01*
X128436726Y-114308796D01*
X128448714Y-114118329D01*
X128452121Y-113887001D01*
X128450776Y-113794658D01*
X128440016Y-113537045D01*
X128415625Y-113346256D01*
X128412520Y-113335371D01*
X149044919Y-113335371D01*
X149132417Y-113865674D01*
X149315357Y-114368215D01*
X149485269Y-114672343D01*
X149838247Y-115124037D01*
X150251733Y-115485510D01*
X150721196Y-115754320D01*
X151242105Y-115928026D01*
X151809931Y-116004186D01*
X151962719Y-116007706D01*
X152516448Y-115957295D01*
X153032693Y-115810511D01*
X153502387Y-115576372D01*
X153916464Y-115263898D01*
X154265858Y-114882107D01*
X154541504Y-114440020D01*
X154734335Y-113946655D01*
X154835285Y-113411031D01*
X154848460Y-113136871D01*
X154835828Y-112805651D01*
X154799190Y-112508886D01*
X154761793Y-112344828D01*
X154547408Y-111804985D01*
X154246796Y-111329598D01*
X153866100Y-110924792D01*
X153411462Y-110596691D01*
X152889028Y-110351421D01*
X152699350Y-110288673D01*
X152390494Y-110228876D01*
X152021446Y-110207016D01*
X151634134Y-110222213D01*
X151270483Y-110273587D01*
X151076898Y-110322717D01*
X150659519Y-110499031D01*
X150251625Y-110754790D01*
X149878877Y-111068725D01*
X149566940Y-111419566D01*
X149362069Y-111744007D01*
X149159047Y-112257927D01*
X149053563Y-112793919D01*
X149044919Y-113335371D01*
X128412520Y-113335371D01*
X128368191Y-113179952D01*
X128288302Y-112995791D01*
X128260489Y-112938613D01*
X128012109Y-112541593D01*
X127708382Y-112228323D01*
X127361772Y-111996896D01*
X126984741Y-111845408D01*
X126589752Y-111771951D01*
X126189268Y-111774621D01*
X125795751Y-111851511D01*
X125466936Y-111982660D01*
X125421665Y-112000716D01*
X125079473Y-112220329D01*
X124781636Y-112508445D01*
X124540618Y-112863158D01*
X124368882Y-113282562D01*
X124307955Y-113543057D01*
X124282559Y-113988953D01*
X122665968Y-113988953D01*
X122661841Y-113899739D01*
X122652496Y-113548252D01*
X122646046Y-113124467D01*
X122641334Y-112617994D01*
X122637201Y-112018440D01*
X122634731Y-111641617D01*
X122630760Y-110993769D01*
X122628340Y-110445219D01*
X122627687Y-109986024D01*
X122629015Y-109606244D01*
X122632540Y-109295937D01*
X122638477Y-109045160D01*
X122647040Y-108843973D01*
X122652197Y-108770941D01*
X124166206Y-108770941D01*
X124217152Y-109114649D01*
X124358667Y-109448143D01*
X124515030Y-109667254D01*
X124794804Y-109917383D01*
X125118271Y-110080534D01*
X125466936Y-110158232D01*
X125822304Y-110152001D01*
X126165879Y-110063366D01*
X126479165Y-109893851D01*
X126743668Y-109644981D01*
X126862268Y-109473775D01*
X126981517Y-109190463D01*
X127045005Y-108864876D01*
X127050765Y-108533716D01*
X126996834Y-108233683D01*
X126936540Y-108086724D01*
X126800089Y-107890916D01*
X126607539Y-107685163D01*
X126398656Y-107508633D01*
X126262067Y-107422426D01*
X126077576Y-107352675D01*
X125850754Y-107299055D01*
X125731444Y-107282751D01*
X125353098Y-107296705D01*
X125014148Y-107400757D01*
X124721905Y-107580579D01*
X124483679Y-107821838D01*
X124306780Y-108110205D01*
X124198519Y-108431350D01*
X124166206Y-108770941D01*
X122652197Y-108770941D01*
X122658446Y-108682433D01*
X122672908Y-108550600D01*
X122690642Y-108438530D01*
X122705622Y-108364197D01*
X122835960Y-107920514D01*
X123025315Y-107483212D01*
X123254669Y-107092688D01*
X123386722Y-106917552D01*
X123487353Y-106799794D01*
X123587818Y-106690982D01*
X123695439Y-106586870D01*
X123817539Y-106483210D01*
X123961439Y-106375756D01*
X124134461Y-106260261D01*
X124343927Y-106132478D01*
X124597159Y-105988162D01*
X124901479Y-105823065D01*
X125264208Y-105632941D01*
X125692669Y-105413543D01*
X126194184Y-105160624D01*
X126776074Y-104869938D01*
X127445661Y-104537238D01*
X127756537Y-104383093D01*
X131225139Y-102663878D01*
X131609732Y-102276009D01*
X132003929Y-101808813D01*
X132295579Y-101306607D01*
X132483732Y-100771633D01*
X132567434Y-100206132D01*
X132568525Y-100158810D01*
X149039462Y-100158810D01*
X149123985Y-100673340D01*
X149302458Y-101170965D01*
X149575390Y-101638764D01*
X149843346Y-101963282D01*
X150256545Y-102322595D01*
X150720118Y-102592244D01*
X151219769Y-102770610D01*
X151741202Y-102856077D01*
X152270121Y-102847030D01*
X152792228Y-102741852D01*
X153293229Y-102538926D01*
X153557422Y-102383197D01*
X153979574Y-102039693D01*
X154325639Y-101627431D01*
X154590001Y-101161131D01*
X154767047Y-100655512D01*
X154851164Y-100125293D01*
X154836736Y-99585194D01*
X154766231Y-99213850D01*
X154579590Y-98708208D01*
X154300403Y-98246815D01*
X153940507Y-97841681D01*
X153511737Y-97504814D01*
X153025929Y-97248224D01*
X152723290Y-97141092D01*
X152443025Y-97086252D01*
X152100521Y-97059758D01*
X151739103Y-97061831D01*
X151402097Y-97092692D01*
X151197264Y-97133294D01*
X150687511Y-97324917D01*
X150213241Y-97616838D01*
X150008247Y-97784764D01*
X149630669Y-98190026D01*
X149344492Y-98642982D01*
X149150226Y-99130711D01*
X149048379Y-99640293D01*
X149039462Y-100158810D01*
X132568525Y-100158810D01*
X132571952Y-100010133D01*
X132522570Y-99418224D01*
X132380967Y-98881557D01*
X132143577Y-98391535D01*
X131806832Y-97939562D01*
X131640030Y-97764054D01*
X131225139Y-97354376D01*
X127740006Y-95579107D01*
X126965591Y-95183259D01*
X126270898Y-94825312D01*
X125658466Y-94506618D01*
X125476243Y-94410577D01*
X125130834Y-94228529D01*
X124690538Y-93992396D01*
X124340117Y-93799573D01*
X124082109Y-93651410D01*
X123919052Y-93549260D01*
X123889039Y-93527797D01*
X123463967Y-93144879D01*
X123114826Y-92700561D01*
X122852124Y-92211271D01*
X122686372Y-91693435D01*
X122672882Y-91626930D01*
X122662886Y-91520166D01*
X122653540Y-91315769D01*
X122649620Y-91181903D01*
X124151376Y-91181903D01*
X124200878Y-91550666D01*
X124339223Y-91881342D01*
X124551172Y-92163966D01*
X124821485Y-92388570D01*
X125134922Y-92545192D01*
X125476243Y-92623863D01*
X125830208Y-92614620D01*
X126179806Y-92508314D01*
X126486663Y-92324841D01*
X126747113Y-92087735D01*
X126920291Y-91842688D01*
X127015563Y-91566024D01*
X127053152Y-91238672D01*
X127033207Y-90902627D01*
X126955875Y-90599886D01*
X126915589Y-90510165D01*
X126727460Y-90248431D01*
X126458986Y-90015398D01*
X126336322Y-89944806D01*
X126180139Y-89854925D01*
X125827801Y-89748720D01*
X125473198Y-89740384D01*
X125131567Y-89819947D01*
X124818149Y-89977443D01*
X124548183Y-90202904D01*
X124336907Y-90486363D01*
X124199562Y-90817850D01*
X124151376Y-91181903D01*
X122649620Y-91181903D01*
X122645036Y-91025350D01*
X122637569Y-90660522D01*
X122631333Y-90232897D01*
X122626523Y-89754088D01*
X122623332Y-89235708D01*
X122621954Y-88689368D01*
X122621914Y-88577521D01*
X122622363Y-87893462D01*
X122624353Y-87308402D01*
X122628840Y-86812092D01*
X122636784Y-86394287D01*
X122648088Y-86074591D01*
X124287935Y-86074591D01*
X124290800Y-86344759D01*
X124303102Y-86538192D01*
X124330406Y-86687330D01*
X124378275Y-86824618D01*
X124439034Y-86955709D01*
X124655049Y-87296735D01*
X124944456Y-87612597D01*
X125274077Y-87869977D01*
X125447040Y-87968017D01*
X125602538Y-88039274D01*
X125740084Y-88084702D01*
X125892355Y-88109996D01*
X126092029Y-88120850D01*
X126336322Y-88122978D01*
X126610007Y-88119776D01*
X126807096Y-88106627D01*
X126960142Y-88078223D01*
X127101699Y-88029252D01*
X127210301Y-87980407D01*
X127620205Y-87729413D01*
X127953249Y-87409116D01*
X128204098Y-87032788D01*
X128215989Y-87002275D01*
X149039650Y-87002275D01*
X149122155Y-87514619D01*
X149296432Y-88008339D01*
X149562873Y-88469877D01*
X149868725Y-88833449D01*
X150294977Y-89192434D01*
X150756938Y-89455623D01*
X151243039Y-89625704D01*
X151741710Y-89705370D01*
X152241381Y-89697310D01*
X152730484Y-89604214D01*
X153197448Y-89428773D01*
X153630705Y-89173677D01*
X154018684Y-88841617D01*
X154349816Y-88435282D01*
X154612532Y-87957364D01*
X154709412Y-87707814D01*
X154812981Y-87271732D01*
X154850318Y-86793841D01*
X154819840Y-86320403D01*
X154766231Y-86049549D01*
X154591999Y-85578493D01*
X154328809Y-85130988D01*
X153994589Y-84729900D01*
X153607270Y-84398096D01*
X153342915Y-84234314D01*
X152829362Y-84020546D01*
X152295305Y-83907887D01*
X151755113Y-83894618D01*
X151223154Y-83979017D01*
X150713796Y-84159365D01*
X150241408Y-84433942D01*
X149990003Y-84635713D01*
X149619521Y-85037811D01*
X149338853Y-85489074D01*
X149148391Y-85975945D01*
X149048526Y-86484864D01*
X149039650Y-87002275D01*
X128215989Y-87002275D01*
X128367419Y-86613702D01*
X128437877Y-86165131D01*
X128410140Y-85700347D01*
X128296337Y-85277882D01*
X128148798Y-84994630D01*
X127927707Y-84706139D01*
X127662272Y-84444252D01*
X127381701Y-84240813D01*
X127308195Y-84200569D01*
X126866715Y-84034341D01*
X126416825Y-83970140D01*
X125972583Y-84003081D01*
X125548044Y-84128279D01*
X125157266Y-84340850D01*
X124814306Y-84635908D01*
X124533220Y-85008569D01*
X124430507Y-85200613D01*
X124364152Y-85353320D01*
X124322047Y-85494939D01*
X124298882Y-85658021D01*
X124289345Y-85875120D01*
X124287935Y-86074591D01*
X122648088Y-86074591D01*
X122649143Y-86044739D01*
X122666877Y-85753199D01*
X122690944Y-85509422D01*
X122722304Y-85303160D01*
X122761914Y-85124166D01*
X122810734Y-84962191D01*
X122869722Y-84806990D01*
X122939838Y-84648315D01*
X123001773Y-84517817D01*
X123317617Y-83973064D01*
X123702904Y-83509628D01*
X124164780Y-83120467D01*
X124710389Y-82798537D01*
X124779548Y-82765165D01*
X124855390Y-82728117D01*
X124923023Y-82693765D01*
X124986613Y-82662009D01*
X125050326Y-82632747D01*
X125118327Y-82605880D01*
X125194783Y-82581305D01*
X125283860Y-82558922D01*
X125389723Y-82538629D01*
X125516539Y-82520327D01*
X125668473Y-82503914D01*
X125849692Y-82489288D01*
X126064361Y-82476350D01*
X126316647Y-82464997D01*
X126610715Y-82455130D01*
X126950731Y-82446647D01*
X127340862Y-82439446D01*
X127785273Y-82433428D01*
X128288131Y-82428491D01*
X128853600Y-82424535D01*
X129485848Y-82421457D01*
X130189040Y-82419158D01*
X130967343Y-82417536D01*
X131824921Y-82416491D01*
X132765942Y-82415921D01*
X133794570Y-82415725D01*
X134914973Y-82415803D01*
G37*
D13*
X107976936Y-99341000D02*
X108431064Y-99341000D01*
X107976936Y-100811000D02*
X108431064Y-100811000D01*
X106213000Y-91437500D02*
X106213000Y-89237500D01*
X106213000Y-91437500D02*
X106213000Y-93637500D01*
X109433000Y-91437500D02*
X109433000Y-89237500D01*
X109433000Y-91437500D02*
X109433000Y-93637500D01*
X109588000Y-88777500D02*
X109258000Y-88537500D01*
X109588000Y-88297500D01*
X109588000Y-88777500D01*
G36*
X109588000Y-88777500D02*
G01*
X109258000Y-88537500D01*
X109588000Y-88297500D01*
X109588000Y-88777500D01*
G37*
X116712420Y-88771000D02*
X116993580Y-88771000D01*
X116712420Y-89791000D02*
X116993580Y-89791000D01*
X107469000Y-110717064D02*
X107469000Y-110262936D01*
X108939000Y-110717064D02*
X108939000Y-110262936D01*
X108585580Y-105789000D02*
X108304420Y-105789000D01*
X108585580Y-106809000D02*
X108304420Y-106809000D01*
X107976936Y-101373000D02*
X108431064Y-101373000D01*
X107976936Y-102843000D02*
X108431064Y-102843000D01*
X111951009Y-93980000D02*
X111547959Y-93916360D01*
X111887370Y-93576949D01*
X111951009Y-93980000D01*
G36*
X111951009Y-93980000D02*
G01*
X111547959Y-93916360D01*
X111887370Y-93576949D01*
X111951009Y-93980000D01*
G37*
X117918991Y-93980000D02*
X117583115Y-93644124D01*
X117583115Y-94315876D02*
X117918991Y-93980000D01*
X115270876Y-96628115D02*
X114935000Y-96963991D01*
X114935000Y-96963991D02*
X114599124Y-96628115D01*
X114935000Y-90996009D02*
X115270876Y-91331885D01*
X114599124Y-91331885D02*
X114935000Y-90996009D01*
X112286885Y-94315876D02*
X112120715Y-94149706D01*
X112286885Y-93644124D02*
X112163141Y-93767868D01*
%LPC*%
D15*
X128218005Y-95806250D03*
X129581995Y-96593750D03*
D16*
X119382022Y-101024606D03*
D17*
X103505000Y-107823000D03*
D18*
X103505000Y-109273000D03*
D19*
X143075000Y-82500000D03*
X141500000Y-82500000D03*
D20*
X147425000Y-108800000D03*
X149000000Y-108800000D03*
D21*
X100500000Y-96600000D03*
D22*
X100900000Y-97400000D03*
X100900000Y-98200000D03*
D21*
X100500000Y-99000000D03*
D22*
X100900000Y-99800000D03*
X100900000Y-100600000D03*
D21*
X100500000Y-101400000D03*
D22*
X100900000Y-102200000D03*
X100900000Y-103000000D03*
D21*
X100500000Y-103800000D03*
D19*
X152000000Y-91200000D03*
X150425000Y-91200000D03*
X134075000Y-117500000D03*
X132500000Y-117500000D03*
X146000000Y-95600000D03*
X144425000Y-95600000D03*
D23*
X114935000Y-106045000D03*
D24*
X114422348Y-108325419D03*
X114068794Y-107971866D03*
X113715241Y-107618313D03*
X113361687Y-107264759D03*
X113008134Y-106911206D03*
X112654581Y-106557652D03*
D25*
X112654581Y-105532348D03*
X113008134Y-105178794D03*
X113361687Y-104825241D03*
X113715241Y-104471687D03*
X114068794Y-104118134D03*
X114422348Y-103764581D03*
D24*
X115447652Y-103764581D03*
X115801206Y-104118134D03*
X116154759Y-104471687D03*
X116508313Y-104825241D03*
X116861866Y-105178794D03*
X117215419Y-105532348D03*
D25*
X117215419Y-106557652D03*
X116861866Y-106911206D03*
X116508313Y-107264759D03*
X116154759Y-107618313D03*
X115801206Y-107971866D03*
X115447652Y-108325419D03*
D26*
X113411000Y-101219000D03*
D27*
X156352341Y-86211008D03*
X155813659Y-84730992D03*
D28*
X137000000Y-94175000D03*
X137000000Y-92600000D03*
D19*
X152000000Y-108800000D03*
X150425000Y-108800000D03*
D29*
X156362424Y-113884684D03*
X155823742Y-115364700D03*
D19*
X152000000Y-104400000D03*
X150425000Y-104400000D03*
D30*
X107291500Y-100076000D03*
X109116500Y-100076000D03*
D28*
X122600000Y-111187500D03*
X122600000Y-109612500D03*
D20*
X144500000Y-117500000D03*
X146075000Y-117500000D03*
X135500000Y-82500000D03*
X137075000Y-82500000D03*
D29*
X156352341Y-100732992D03*
X155813659Y-102213008D03*
D31*
X132251691Y-98845082D03*
X131348309Y-97554918D03*
D32*
X123706195Y-93503260D03*
X122693805Y-92296740D03*
D20*
X147425000Y-104400000D03*
X149000000Y-104400000D03*
D33*
X108798000Y-88575000D03*
X108148000Y-88575000D03*
X107498000Y-88575000D03*
X106848000Y-88575000D03*
X106848000Y-94300000D03*
X107498000Y-94300000D03*
X108148000Y-94300000D03*
X108798000Y-94300000D03*
D19*
X152000000Y-95600000D03*
X150425000Y-95600000D03*
D34*
X110850000Y-87500000D03*
X111333274Y-86333274D03*
X111333274Y-88666726D03*
X112500000Y-85850000D03*
D35*
X112500000Y-87500000D03*
D34*
X112500000Y-89150000D03*
X113666726Y-86333274D03*
X113666726Y-88666726D03*
X114150000Y-87500000D03*
D20*
X147500000Y-117500000D03*
X149075000Y-117500000D03*
X141425000Y-95600000D03*
X143000000Y-95600000D03*
D36*
X116078000Y-89281000D03*
X117628000Y-89281000D03*
D19*
X140000000Y-108800000D03*
X138425000Y-108800000D03*
X140000000Y-95600000D03*
X138425000Y-95600000D03*
X146000000Y-91200000D03*
X144425000Y-91200000D03*
D37*
X122600000Y-90387500D03*
X122600000Y-88812500D03*
D38*
X153532917Y-95814308D03*
X154823083Y-96717692D03*
D19*
X152075000Y-82500000D03*
X150500000Y-82500000D03*
D28*
X137000000Y-107375000D03*
X137000000Y-105800000D03*
D38*
X153543000Y-108966000D03*
X154833166Y-109869384D03*
D39*
X108204000Y-111402500D03*
X108204000Y-109577500D03*
D40*
X125318005Y-105687501D03*
X126681995Y-104900001D03*
D20*
X147425000Y-95600000D03*
X149000000Y-95600000D03*
D38*
X153532917Y-82733308D03*
X154823083Y-83636692D03*
D20*
X126500000Y-82500000D03*
X128075000Y-82500000D03*
D41*
X124556847Y-82743153D03*
X123443153Y-83856847D03*
D28*
X122600000Y-87087500D03*
X122600000Y-85512500D03*
D19*
X146000000Y-104400000D03*
X144425000Y-104400000D03*
D42*
X109220000Y-106299000D03*
X107670000Y-106299000D03*
D20*
X129500000Y-117500000D03*
X131075000Y-117500000D03*
D30*
X107291500Y-102108000D03*
X109116500Y-102108000D03*
D19*
X140000000Y-91200000D03*
X138425000Y-91200000D03*
D20*
X141425000Y-104400000D03*
X143000000Y-104400000D03*
D43*
X129581995Y-103506250D03*
X128218005Y-104293750D03*
D44*
X131348309Y-102545082D03*
X132251691Y-101254918D03*
D19*
X140000000Y-104400000D03*
X138425000Y-104400000D03*
D45*
X153532917Y-91129692D03*
X154823083Y-90226308D03*
D20*
X138500000Y-82500000D03*
X140075000Y-82500000D03*
D46*
X123571000Y-102489000D03*
D20*
X144500000Y-82500000D03*
X146075000Y-82500000D03*
D27*
X156352341Y-99292008D03*
X155813659Y-97811992D03*
X156362424Y-112443700D03*
X155823742Y-110963684D03*
D19*
X143075000Y-117500000D03*
X141500000Y-117500000D03*
D37*
X122600000Y-112912500D03*
X122600000Y-114487500D03*
D47*
X114935000Y-93980000D03*
D48*
X112654581Y-93467348D03*
X113008134Y-93113794D03*
X113361687Y-92760241D03*
X113715241Y-92406687D03*
X114068794Y-92053134D03*
X114422348Y-91699581D03*
D49*
X115447652Y-91699581D03*
X115801206Y-92053134D03*
X116154759Y-92406687D03*
X116508313Y-92760241D03*
X116861866Y-93113794D03*
X117215419Y-93467348D03*
D48*
X117215419Y-94492652D03*
X116861866Y-94846206D03*
X116508313Y-95199759D03*
X116154759Y-95553313D03*
X115801206Y-95906866D03*
X115447652Y-96260419D03*
D49*
X114422348Y-96260419D03*
X114068794Y-95906866D03*
X113715241Y-95553313D03*
X113361687Y-95199759D03*
X113008134Y-94846206D03*
X112654581Y-94492652D03*
D50*
X126681995Y-95093750D03*
X125318005Y-94306250D03*
D20*
X135500000Y-117500000D03*
X137075000Y-117500000D03*
D51*
X123806195Y-106496740D03*
X122793805Y-107703260D03*
D45*
X153532917Y-104210692D03*
X154823083Y-103307308D03*
D20*
X129500000Y-82500000D03*
X131075000Y-82500000D03*
D19*
X134075000Y-82500000D03*
X132500000Y-82500000D03*
D45*
X153532917Y-117418692D03*
X154823083Y-116515308D03*
D20*
X138500000Y-117500000D03*
X140075000Y-117500000D03*
D34*
X110850000Y-112500000D03*
X111333274Y-111333274D03*
X111333274Y-113666726D03*
X112500000Y-110850000D03*
D35*
X112500000Y-112500000D03*
D34*
X112500000Y-114150000D03*
X113666726Y-111333274D03*
X113666726Y-113666726D03*
X114150000Y-112500000D03*
D19*
X152075000Y-117500000D03*
X150500000Y-117500000D03*
X146000000Y-108800000D03*
X144425000Y-108800000D03*
D20*
X147500000Y-82500000D03*
X149075000Y-82500000D03*
X141425000Y-108800000D03*
X143000000Y-108800000D03*
X147425000Y-91200000D03*
X149000000Y-91200000D03*
D29*
X156352341Y-87651992D03*
X155813659Y-89132008D03*
D20*
X126500000Y-117500000D03*
X128075000Y-117500000D03*
D52*
X124556847Y-117256847D03*
X123443153Y-116143153D03*
D20*
X141425000Y-91200000D03*
X143000000Y-91200000D03*
%LPD*%
M02*
