G04 #@! TF.GenerationSoftware,KiCad,Pcbnew,8.0.1*
G04 #@! TF.CreationDate,2024-04-20T17:08:18+01:00*
G04 #@! TF.ProjectId,makerspace-badge,6d616b65-7273-4706-9163-652d62616467,rev?*
G04 #@! TF.SameCoordinates,Original*
G04 #@! TF.FileFunction,Paste,Top*
G04 #@! TF.FilePolarity,Positive*
%FSLAX46Y46*%
G04 Gerber Fmt 4.6, Leading zero omitted, Abs format (unit mm)*
G04 Created by KiCad (PCBNEW 8.0.1) date 2024-04-20 17:08:18*
%MOMM*%
%LPD*%
G01*
G04 APERTURE LIST*
G04 Aperture macros list*
%AMRoundRect*
0 Rectangle with rounded corners*
0 $1 Rounding radius*
0 $2 $3 $4 $5 $6 $7 $8 $9 X,Y pos of 4 corners*
0 Add a 4 corners polygon primitive as box body*
4,1,4,$2,$3,$4,$5,$6,$7,$8,$9,$2,$3,0*
0 Add four circle primitives for the rounded corners*
1,1,$1+$1,$2,$3*
1,1,$1+$1,$4,$5*
1,1,$1+$1,$6,$7*
1,1,$1+$1,$8,$9*
0 Add four rect primitives between the rounded corners*
20,1,$1+$1,$2,$3,$4,$5,0*
20,1,$1+$1,$4,$5,$6,$7,0*
20,1,$1+$1,$6,$7,$8,$9,0*
20,1,$1+$1,$8,$9,$2,$3,0*%
G04 Aperture macros list end*
%ADD10RoundRect,0.218750X-0.317568X-0.112544X0.061318X-0.331294X0.317568X0.112544X-0.061318X0.331294X0*%
%ADD11RoundRect,0.218750X-0.218750X-0.256250X0.218750X-0.256250X0.218750X0.256250X-0.218750X0.256250X0*%
%ADD12RoundRect,0.218750X0.218750X0.256250X-0.218750X0.256250X-0.218750X-0.256250X0.218750X-0.256250X0*%
%ADD13RoundRect,0.062500X0.282843X0.194454X0.194454X0.282843X-0.282843X-0.194454X-0.194454X-0.282843X0*%
%ADD14RoundRect,0.062500X0.282843X-0.194454X-0.194454X0.282843X-0.282843X0.194454X0.194454X-0.282843X0*%
%ADD15RoundRect,0.250000X0.403051X-0.014142X-0.014142X0.403051X-0.403051X0.014142X0.014142X-0.403051X0*%
%ADD16RoundRect,0.218750X-0.315613X0.117915X-0.165979X-0.293200X0.315613X-0.117915X0.165979X0.293200X0*%
%ADD17RoundRect,0.218750X-0.256250X0.218750X-0.256250X-0.218750X0.256250X-0.218750X0.256250X0.218750X0*%
%ADD18RoundRect,0.218750X0.165979X-0.293200X0.315613X0.117915X-0.165979X0.293200X-0.315613X-0.117915X0*%
%ADD19RoundRect,0.250000X-0.262500X-0.450000X0.262500X-0.450000X0.262500X0.450000X-0.262500X0.450000X0*%
%ADD20RoundRect,0.218750X0.335378X-0.032211X0.084438X0.326168X-0.335378X0.032211X-0.084438X-0.326168X0*%
%ADD21RoundRect,0.218750X-0.336909X0.002858X-0.055689X-0.332287X0.336909X-0.002858X0.055689X0.332287X0*%
%ADD22RoundRect,0.100000X-0.100000X0.637500X-0.100000X-0.637500X0.100000X-0.637500X0.100000X0.637500X0*%
%ADD23RoundRect,0.225000X-0.225000X-0.250000X0.225000X-0.250000X0.225000X0.250000X-0.225000X0.250000X0*%
%ADD24RoundRect,0.218750X0.256250X-0.218750X0.256250X0.218750X-0.256250X0.218750X-0.256250X-0.218750X0*%
%ADD25RoundRect,0.218750X0.326168X0.084438X-0.032211X0.335378X-0.326168X-0.084438X0.032211X-0.335378X0*%
%ADD26RoundRect,0.250000X0.450000X-0.262500X0.450000X0.262500X-0.450000X0.262500X-0.450000X-0.262500X0*%
%ADD27RoundRect,0.218750X0.061318X0.331294X-0.317568X0.112544X-0.061318X-0.331294X0.317568X-0.112544X0*%
%ADD28RoundRect,0.218750X0.026517X-0.335876X0.335876X-0.026517X-0.026517X0.335876X-0.335876X0.026517X0*%
%ADD29RoundRect,0.225000X0.225000X0.250000X-0.225000X0.250000X-0.225000X-0.250000X0.225000X-0.250000X0*%
%ADD30RoundRect,0.218750X-0.061318X-0.331294X0.317568X-0.112544X0.061318X0.331294X-0.317568X0.112544X0*%
%ADD31RoundRect,0.218750X-0.084438X0.326168X-0.335378X-0.032211X0.084438X-0.326168X0.335378X0.032211X0*%
%ADD32RoundRect,0.218750X0.032211X0.335378X-0.326168X0.084438X-0.032211X-0.335378X0.326168X-0.084438X0*%
%ADD33RoundRect,0.062500X0.194454X-0.282843X0.282843X-0.194454X-0.194454X0.282843X-0.282843X0.194454X0*%
%ADD34RoundRect,0.062500X-0.194454X-0.282843X0.282843X0.194454X0.194454X0.282843X-0.282843X-0.194454X0*%
%ADD35RoundRect,0.250000X-0.014142X-0.403051X0.403051X0.014142X0.014142X0.403051X-0.403051X-0.014142X0*%
%ADD36RoundRect,0.218750X0.317568X0.112544X-0.061318X0.331294X-0.317568X-0.112544X0.061318X-0.331294X0*%
%ADD37RoundRect,0.218750X0.055689X-0.332287X0.336909X0.002858X-0.055689X0.332287X-0.336909X-0.002858X0*%
%ADD38RoundRect,0.218750X-0.335876X-0.026517X-0.026517X-0.335876X0.335876X0.026517X0.026517X0.335876X0*%
G04 APERTURE END LIST*
D10*
X128218005Y-95806250D03*
X129581995Y-96593750D03*
D11*
X143075000Y-82500000D03*
X141500000Y-82500000D03*
D12*
X147425000Y-108800000D03*
X149000000Y-108800000D03*
D11*
X152000000Y-91200000D03*
X150425000Y-91200000D03*
X134075000Y-117500000D03*
X132500000Y-117500000D03*
X146000000Y-95600000D03*
X144425000Y-95600000D03*
D13*
X114422348Y-108325419D03*
X114068794Y-107971866D03*
X113715241Y-107618313D03*
X113361687Y-107264759D03*
X113008134Y-106911206D03*
X112654581Y-106557652D03*
D14*
X112654581Y-105532348D03*
X113008134Y-105178794D03*
X113361687Y-104825241D03*
X113715241Y-104471687D03*
X114068794Y-104118134D03*
X114422348Y-103764581D03*
D13*
X115447652Y-103764581D03*
X115801206Y-104118134D03*
X116154759Y-104471687D03*
X116508313Y-104825241D03*
X116861866Y-105178794D03*
X117215419Y-105532348D03*
D14*
X117215419Y-106557652D03*
X116861866Y-106911206D03*
X116508313Y-107264759D03*
X116154759Y-107618313D03*
X115801206Y-107971866D03*
X115447652Y-108325419D03*
D15*
X114917322Y-105108084D03*
X113998084Y-106027322D03*
X115871916Y-106062678D03*
X114952678Y-106981916D03*
D16*
X156352341Y-86211008D03*
X155813659Y-84730992D03*
D17*
X137000000Y-94175000D03*
X137000000Y-92600000D03*
D11*
X152000000Y-108800000D03*
X150425000Y-108800000D03*
D18*
X156362424Y-113884684D03*
X155823742Y-115364700D03*
D11*
X152000000Y-104400000D03*
X150425000Y-104400000D03*
D19*
X107291500Y-100076000D03*
X109116500Y-100076000D03*
D17*
X122600000Y-111187500D03*
X122600000Y-109612500D03*
D12*
X144500000Y-117500000D03*
X146075000Y-117500000D03*
X135500000Y-82500000D03*
X137075000Y-82500000D03*
D18*
X156352341Y-100732992D03*
X155813659Y-102213008D03*
D20*
X132251691Y-98845082D03*
X131348309Y-97554918D03*
D21*
X123706195Y-93503260D03*
X122693805Y-92296740D03*
D12*
X147425000Y-104400000D03*
X149000000Y-104400000D03*
D22*
X108798000Y-88575000D03*
X108148000Y-88575000D03*
X107498000Y-88575000D03*
X106848000Y-88575000D03*
X106848000Y-94300000D03*
X107498000Y-94300000D03*
X108148000Y-94300000D03*
X108798000Y-94300000D03*
D11*
X152000000Y-95600000D03*
X150425000Y-95600000D03*
D12*
X147500000Y-117500000D03*
X149075000Y-117500000D03*
X141425000Y-95600000D03*
X143000000Y-95600000D03*
D23*
X116078000Y-89281000D03*
X117628000Y-89281000D03*
D11*
X140000000Y-108800000D03*
X138425000Y-108800000D03*
X140000000Y-95600000D03*
X138425000Y-95600000D03*
X146000000Y-91200000D03*
X144425000Y-91200000D03*
D24*
X122600000Y-90387500D03*
X122600000Y-88812500D03*
D25*
X153532917Y-95814308D03*
X154823083Y-96717692D03*
D11*
X152075000Y-82500000D03*
X150500000Y-82500000D03*
D17*
X137000000Y-107375000D03*
X137000000Y-105800000D03*
D25*
X153543000Y-108966000D03*
X154833166Y-109869384D03*
D26*
X108204000Y-111402500D03*
X108204000Y-109577500D03*
D27*
X125318005Y-105687501D03*
X126681995Y-104900001D03*
D12*
X147425000Y-95600000D03*
X149000000Y-95600000D03*
D25*
X153532917Y-82733308D03*
X154823083Y-83636692D03*
D12*
X126500000Y-82500000D03*
X128075000Y-82500000D03*
D28*
X124556847Y-82743153D03*
X123443153Y-83856847D03*
D17*
X122600000Y-87087500D03*
X122600000Y-85512500D03*
D11*
X146000000Y-104400000D03*
X144425000Y-104400000D03*
D29*
X109220000Y-106299000D03*
X107670000Y-106299000D03*
D12*
X129500000Y-117500000D03*
X131075000Y-117500000D03*
D19*
X107291500Y-102108000D03*
X109116500Y-102108000D03*
D11*
X140000000Y-91200000D03*
X138425000Y-91200000D03*
D12*
X141425000Y-104400000D03*
X143000000Y-104400000D03*
D30*
X129581995Y-103506250D03*
X128218005Y-104293750D03*
D31*
X131348309Y-102545082D03*
X132251691Y-101254918D03*
D11*
X140000000Y-104400000D03*
X138425000Y-104400000D03*
D32*
X153532917Y-91129692D03*
X154823083Y-90226308D03*
D12*
X138500000Y-82500000D03*
X140075000Y-82500000D03*
X144500000Y-82500000D03*
X146075000Y-82500000D03*
D16*
X156352341Y-99292008D03*
X155813659Y-97811992D03*
X156362424Y-112443700D03*
X155823742Y-110963684D03*
D11*
X143075000Y-117500000D03*
X141500000Y-117500000D03*
D24*
X122600000Y-112912500D03*
X122600000Y-114487500D03*
D33*
X112654581Y-93467348D03*
X113008134Y-93113794D03*
X113361687Y-92760241D03*
X113715241Y-92406687D03*
X114068794Y-92053134D03*
X114422348Y-91699581D03*
D34*
X115447652Y-91699581D03*
X115801206Y-92053134D03*
X116154759Y-92406687D03*
X116508313Y-92760241D03*
X116861866Y-93113794D03*
X117215419Y-93467348D03*
D33*
X117215419Y-94492652D03*
X116861866Y-94846206D03*
X116508313Y-95199759D03*
X116154759Y-95553313D03*
X115801206Y-95906866D03*
X115447652Y-96260419D03*
D34*
X114422348Y-96260419D03*
X114068794Y-95906866D03*
X113715241Y-95553313D03*
X113361687Y-95199759D03*
X113008134Y-94846206D03*
X112654581Y-94492652D03*
D35*
X115871916Y-93962322D03*
X114952678Y-93043084D03*
X114917322Y-94916916D03*
X113998084Y-93997678D03*
D36*
X126681995Y-95093750D03*
X125318005Y-94306250D03*
D12*
X135500000Y-117500000D03*
X137075000Y-117500000D03*
D37*
X123806195Y-106496740D03*
X122793805Y-107703260D03*
D32*
X153532917Y-104210692D03*
X154823083Y-103307308D03*
D12*
X129500000Y-82500000D03*
X131075000Y-82500000D03*
D11*
X134075000Y-82500000D03*
X132500000Y-82500000D03*
D32*
X153532917Y-117418692D03*
X154823083Y-116515308D03*
D12*
X138500000Y-117500000D03*
X140075000Y-117500000D03*
D11*
X152075000Y-117500000D03*
X150500000Y-117500000D03*
X146000000Y-108800000D03*
X144425000Y-108800000D03*
D12*
X147500000Y-82500000D03*
X149075000Y-82500000D03*
X141425000Y-108800000D03*
X143000000Y-108800000D03*
X147425000Y-91200000D03*
X149000000Y-91200000D03*
D18*
X156352341Y-87651992D03*
X155813659Y-89132008D03*
D12*
X126500000Y-117500000D03*
X128075000Y-117500000D03*
D38*
X124556847Y-117256847D03*
X123443153Y-116143153D03*
D12*
X141425000Y-91200000D03*
X143000000Y-91200000D03*
M02*
