<?xml version="1.0" encoding="UTF-8" standalone="no"?>
<svg
   width="100%"
   height="100%"
   viewBox="0 0 1200 800"
   version="1.1"
   xml:space="preserve"
   style="fill-rule:evenodd;clip-rule:evenodd;stroke-linejoin:round;stroke-miterlimit:1.41421;"
   id="svg10"
   sodipodi:docname="rustacean-flat-gesture.svg"
   inkscape:version="1.3.2 (091e20ef0f, 2023-11-25)"
   xmlns:inkscape="http://www.inkscape.org/namespaces/inkscape"
   xmlns:sodipodi="http://sodipodi.sourceforge.net/DTD/sodipodi-0.dtd"
   xmlns="http://www.w3.org/2000/svg"
   xmlns:svg="http://www.w3.org/2000/svg"
   xmlns:serif="http://www.serif.com/"><defs
   id="defs10" /><sodipodi:namedview
   id="namedview10"
   pagecolor="#ffffff"
   bordercolor="#000000"
   borderopacity="0.25"
   inkscape:showpageshadow="2"
   inkscape:pageopacity="0.0"
   inkscape:pagecheckerboard="0"
   inkscape:deskcolor="#d1d1d1"
   showgrid="false"
   inkscape:zoom="1.4424978"
   inkscape:cx="827.03764"
   inkscape:cy="370.53782"
   inkscape:window-width="1900"
   inkscape:window-height="1031"
   inkscape:window-x="0"
   inkscape:window-y="0"
   inkscape:window-maximized="0"
   inkscape:current-layer="svg10" />
    <g
   id="Layer-1"
   serif:id="Layer 1">
        <g
   transform="matrix(1,0,0,1,654.172,668.359)"
   id="g1">
            <path
   d="M0,-322.648C-114.597,-322.648 -218.172,-308.869 -296.172,-286.419L-296.172,-291.49C-374.172,-266.395 -423.853,-231.531 -423.853,-192.984C-423.853,-186.907 -422.508,-180.922 -420.15,-175.053L-428.134,-160.732C-428.134,-160.732 -434.547,-152.373 -423.199,-134.733C-413.189,-119.179 -363.035,-58.295 -336.571,-26.413C-325.204,-10.065 -317.488,0 -316.814,-0.973C-315.753,-2.516 -323.878,-33.202 -346.453,-68.215C-356.986,-87.02 -369.811,-111.934 -377.361,-130.335C-356.28,-116.993 -328.172,-104.89 -296.172,-94.474L-296.172,-94.633C-218.172,-72.18 -114.597,-58.404 0,-58.404C131.156,-58.404 248.828,-76.45 327.828,-104.895L327.828,-276.153C248.828,-304.6 131.156,-322.648 0,-322.648"
   style="fill:rgb(165,43,0);fill-rule:nonzero;"
   id="path1" />
        </g>
        <g
   transform="matrix(1,0,0,1,1099.87,554.94)"
   id="g2">
            <path
   d="M0,-50.399L-13.433,-78.227C-13.362,-79.283 -13.309,-80.341 -13.309,-81.402C-13.309,-112.95 -46.114,-142.022 -101.306,-165.303L-101.306,2.499C-75.555,-8.365 -54.661,-20.485 -39.72,-33.538C-44.118,-15.855 -59.157,19.917 -71.148,45.073C-90.855,81.054 -97.993,112.376 -97.077,113.926C-96.493,114.904 -89.77,104.533 -79.855,87.726C-56.783,54.85 -13.063,-7.914 -4.325,-23.901C5.574,-42.024 0,-50.399 0,-50.399"
   style="fill:rgb(165,43,0);fill-rule:nonzero;"
   id="path2" />
        </g>
        <g
   transform="matrix(1,0,0,1,1177.87,277.21)"
   id="g3">
            <path
   d="M0,227.175L-88.296,162.132C-89.126,159.237 -89.956,156.345 -90.812,153.474L-61.81,111.458C-58.849,107.184 -58.252,101.629 -60.175,96.755C-62.1,91.905 -66.311,88.428 -71.292,87.576L-120.335,79.255C-122.233,75.376 -124.225,71.557 -126.224,67.771L-105.62,20.599C-103.501,15.793 -103.947,10.209 -106.759,5.848C-109.556,1.465 -114.31,-1.094 -119.376,-0.895L-169.146,0.914C-171.723,-2.442 -174.34,-5.766 -177.012,-9.032L-165.574,-59.592C-164.415,-64.724 -165.876,-70.1 -169.453,-73.83C-173.008,-77.546 -178.175,-79.084 -183.089,-77.88L-231.567,-65.961C-234.707,-68.736 -237.897,-71.474 -241.126,-74.157L-239.381,-126.064C-239.193,-131.318 -241.643,-136.311 -245.849,-139.227C-250.053,-142.161 -255.389,-142.603 -259.987,-140.423L-305.213,-118.921C-308.853,-121.011 -312.515,-123.081 -316.218,-125.084L-324.209,-176.232C-325.021,-181.413 -328.355,-185.816 -333.024,-187.826C-337.679,-189.848 -343.014,-189.193 -347.101,-186.116L-387.422,-155.863C-391.392,-157.181 -395.38,-158.446 -399.418,-159.655L-416.798,-208.159C-418.564,-213.104 -422.64,-216.735 -427.608,-217.756C-432.561,-218.768 -437.656,-217.053 -441.091,-213.217L-475.029,-175.246C-479.133,-175.717 -483.239,-176.147 -487.356,-176.505L-513.564,-220.659C-516.22,-225.131 -520.908,-227.852 -525.961,-227.852C-531.002,-227.852 -535.7,-225.131 -538.333,-220.659L-564.547,-176.505C-568.666,-176.147 -572.791,-175.717 -576.888,-175.246L-610.831,-213.217C-614.268,-217.053 -619.382,-218.768 -624.318,-217.756C-629.284,-216.721 -633.363,-213.104 -635.124,-208.159L-652.517,-159.655C-656.544,-158.446 -660.534,-157.173 -664.514,-155.863L-704.822,-186.116C-708.92,-189.204 -714.254,-189.857 -718.92,-187.826C-723.57,-185.816 -726.917,-181.413 -727.723,-176.232L-735.72,-125.084C-739.42,-123.081 -743.083,-121.022 -746.734,-118.921L-791.956,-140.423C-796.548,-142.612 -801.908,-142.161 -806.091,-139.227C-810.292,-136.311 -812.747,-131.318 -812.557,-126.064L-810.821,-74.157C-814.04,-71.474 -817.224,-68.736 -820.379,-65.961L-868.849,-77.88C-873.774,-79.075 -878.935,-77.546 -882.499,-73.83C-886.084,-70.1 -887.538,-64.724 -886.384,-59.592L-874.969,-9.032C-877.618,-5.753 -880.239,-2.442 -882.808,0.914L-932.579,-0.895C-937.602,-1.043 -942.396,1.465 -945.202,5.848C-948.014,10.209 -948.439,15.793 -946.348,20.599L-925.729,67.771C-927.732,71.557 -929.721,75.376 -931.635,79.255L-980.675,87.576C-985.657,88.417 -989.858,91.892 -991.795,96.755C-993.72,101.629 -993.095,107.184 -990.156,111.458L-961.146,153.474C-961.37,154.215 -961.576,154.964 -961.799,155.707L-1043.82,242.829C-1043.82,242.829 -1056.38,252.68 -1038.09,275.831C-1021.95,296.252 -939.097,377.207 -895.338,419.62C-876.855,441.152 -864.195,454.486 -862.872,453.332C-860.784,451.5 -871.743,412.326 -908.147,366.362C-936.207,325.123 -972.625,261.696 -964.086,254.385C-964.086,254.385 -954.372,242.054 -934.882,233.178C-934.169,233.749 -935.619,232.613 -934.882,233.178C-934.882,233.178 -523.568,422.914 -142.036,236.388C-98.452,228.571 -72.068,251.917 -72.068,251.917C-62.969,257.193 -86.531,322.412 -105.906,365.583C-132.259,414.606 -136.123,452.859 -133.888,454.185C-132.479,455.027 -122.89,440.438 -109.214,417.219C-75.469,370.196 -11.675,280.554 0,258.781C13.239,234.094 0,227.175 0,227.175"
   style="fill:rgb(247,76,0);fill-rule:nonzero;"
   id="path3" />
        </g>
        <g
   transform="matrix(1,0,0,1,795.856,464.937)"
   id="g4">
            <path
   d="M0,159.631C1.575,158.289 2.4,157.492 2.4,157.492L-132.25,144.985C-22.348,0 65.618,116.967 74.988,129.879L74.988,159.631L0,159.631Z"
   style="fill-rule:nonzero;"
   id="path4" />
        </g>
        <g
   transform="matrix(1,0,0,1,278.418,211.791)"
   id="g5">
            <path
   d="M0,253.04C0,253.04 -111.096,209.79 -129.876,163.242C-129.876,163.242 0.515,59.525 -155.497,-50.644L-159.726,89.773C-159.726,89.773 -205.952,45.179 -203.912,-32.91C-203.912,-32.91 -347.685,36.268 -179.436,158.667C-179.436,158.667 -173.76,224.365 -22.459,303.684L0,253.04Z"
   style="fill:rgb(247,76,0);fill-rule:nonzero;"
   id="path5" />
        </g>
        <g
   transform="matrix(1,0,0,1,729.948,492.523)"
   id="g6">
            <path
   d="M0,-87.016C0,-87.016 41.104,-132.025 82.21,-87.016C82.21,-87.016 114.507,-27.003 82.21,3C82.21,3 29.36,45.009 0,3C0,3 -35.232,-30.006 0,-87.016"
   style="fill-rule:nonzero;"
   id="path6" />
        </g>
        <g
   transform="matrix(1,0,0,1,777.536,422.196)"
   id="g7">
            <path
   d="M0,0.008C0,17.531 -10.329,31.738 -23.07,31.738C-35.809,31.738 -46.139,17.531 -46.139,0.008C-46.139,-17.521 -35.809,-31.73 -23.07,-31.73C-10.329,-31.73 0,-17.521 0,0.008"
   style="fill:white;fill-rule:nonzero;"
   id="path7" />
        </g>
        <g
   transform="matrix(1,0,0,1,546.49,486.263)"
   id="g8">
            <path
   d="M0,-93.046C0,-93.046 70.508,-124.265 89.753,-54.583C89.753,-54.583 109.912,26.635 31.851,31.219C31.851,31.219 -67.69,12.047 0,-93.046"
   style="fill-rule:nonzero;"
   id="path8" />
        </g>
        <g
   transform="matrix(1,0,0,1,581.903,423.351)"
   id="g9">
            <path
   d="M0,0.002C0,18.074 -10.653,32.731 -23.794,32.731C-36.931,32.731 -47.586,18.074 -47.586,0.002C-47.586,-18.076 -36.931,-32.729 -23.794,-32.729C-10.653,-32.729 0,-18.076 0,0.002"
   style="fill:white;fill-rule:nonzero;"
   id="path9" />
        </g>
        <g
   transform="matrix(1,0,0,1,1002.23,778.679)"
   id="g10">
            <path
   d="M0,-296.808C0,-296.808 -14.723,-238.165 -106.292,-176.541L-131.97,-170.523C-131.97,-170.523 -215.036,-322.004 -332.719,-151.302C-332.719,-151.302 -296.042,-172.656 -197.719,-146.652C-197.719,-146.652 -242.949,-77.426 -334.061,-79.553C-334.061,-79.553 -246.748,25.196 -113.881,-126.107C-113.881,-126.107 26.574,-180.422 37.964,-296.808L0,-296.808Z"
   style="fill:rgb(247,76,0);fill-rule:nonzero;"
   id="path10" />
        </g>
    </g>
<path
   style="fill:#000000;stroke:#ffffff;stroke-width:0"
   d="m 569.24943,514.22598 c -29.69994,-10.4734 -45.72091,-30.47441 -45.55578,-56.87304 0.0664,-10.61185 1.87115,-19.38483 6.45393,-31.37255 l 3.18575,-8.33333 0.65394,7.84314 c 1.54302,18.50642 11.21267,30.79609 24.28163,30.86082 18.82343,0.0932 30.29168,-28.60328 20.22606,-50.61079 -3.96377,-8.66641 -9.19755,-13.37701 -16.73025,-15.0579 l -2.94118,-0.6563 3.92157,-1.17062 c 2.15686,-0.64384 8.36414,-1.43961 13.79394,-1.76837 28.3375,-1.71579 48.39106,12.27571 57.85233,40.36394 2.24577,6.66715 2.70956,9.97462 3.09321,22.05882 0.66886,21.06802 -2.72573,33.75706 -12.49076,46.69076 -7.26633,9.62419 -22.87276,17.63451 -38.86001,19.94569 -8.71318,1.25962 -7.46418,1.40167 -16.88438,-1.92027 z"
   id="path11" /><path
   style="fill:#000000;stroke:#ffffff;stroke-width:0"
   d="m 750.76847,511.32388 c -7.50706,-2.70206 -13.4549,-7.39874 -20.54825,-16.22584 -11.74508,-14.6158 -15.46598,-25.70808 -14.79923,-44.11765 0.3616,-9.98419 0.9051,-13.17427 3.59113,-21.07843 3.91482,-11.52007 10.96857,-24.67389 14.45718,-26.95972 2.52527,-1.65462 2.59089,-1.65028 1.84447,0.12203 -3.50075,8.31218 -3.88677,10.2405 -3.90057,19.48475 -0.013,8.68882 0.29658,10.47298 2.72152,15.68627 11.04418,23.74351 35.75195,20.58405 42.42316,-5.42476 4.63784,-18.08141 -3.72746,-38.3765 -17.40039,-42.21517 l -4.25553,-1.19473 4.41177,-1.35313 c 15.29211,-4.69022 29.89982,-1.22162 44.80526,10.63901 7.23811,5.75953 10.27191,10.97909 15.48164,26.63556 11.41932,34.31786 7.05246,59.91309 -12.46906,73.08413 -6.76359,4.56334 -21.92394,11.61842 -28.66108,13.33783 -8.17,2.08509 -21.29484,1.88603 -27.70202,-0.42015 z"
   id="path12" /><path
   style="fill:#808080;stroke:#ffffff;stroke-width:0"
   d="m 553.06367,454.80231 c -19.00791,-5.94097 -24.66788,-39.587 -9.49774,-56.45984 15.1284,-16.82643 37.75352,-1.91346 37.70719,24.85407 -0.006,3.25612 -0.48137,7.91892 -1.05719,10.36178 -2.26601,9.61326 -8.78547,18.13399 -15.91615,20.80192 -4.39382,1.64394 -7.0557,1.74867 -11.23611,0.44207 z"
   id="path13" /><path
   style="fill:#666666;stroke:#ffffff;stroke-width:0"
   d="m 749.65955,452.80943 c -7.83399,-2.92334 -12.68068,-8.63519 -16.28045,-19.18659 -1.81883,-5.33124 -1.81883,-17.54576 0,-22.87699 6.50738,-19.074 21.2029,-25.53602 33.1796,-14.58998 6.83961,6.25101 10.43638,15.37543 10.39686,26.37509 -0.059,16.42315 -9.25374,29.68226 -21.41535,30.8817 -1.96435,0.19374 -4.41996,-0.0582 -5.88066,-0.60323 z"
   id="path14" /><path
   style="fill:#000000;stroke:#ffffff;stroke-width:0"
   d="m 671.12952,610.33109 c -3.01104,-0.31749 -5.74237,-0.66651 -6.06963,-0.7756 -1.12609,-0.37536 12.19518,-16.15817 22.56812,-26.73833 28.2456,-28.80983 54.75647,-42.79874 83.95027,-44.29778 22.86354,-1.17399 47.94154,8.21307 70.29112,26.31099 7.28914,5.90249 18.33574,17.038 23.86806,24.06016 l 4.6278,5.87406 v 6.21942 6.21943 l -4.82069,-7.10636 c -20.17147,-29.73549 -45.81559,-48.57592 -72.46502,-53.23918 -8.0963,-1.41674 -21.82838,-0.89428 -30.14519,1.14692 -25.71594,6.31147 -52.29449,25.9388 -77.21705,57.02209 -5.43819,6.78248 -4.34333,6.38438 -14.58779,5.30418 z"
   id="path15" /><path
   style="fill:#803300;stroke:#ffffff;stroke-width:0"
   d="m 334.02113,663.52376 c -1.49529,-1.69872 -5.80331,-7.40553 -9.5734,-12.68178 -3.77008,-5.27625 -13.2972,-17.39216 -21.17139,-26.92423 -48.01155,-58.12033 -70.45837,-86.84528 -74.75829,-95.66739 -3.43428,-7.04606 -3.45915,-6.8258 1.12166,-9.93657 2.22906,-1.51372 6.16211,-3.87122 8.7401,-5.23887 l 4.68727,-2.48665 2.55677,1.2874 c 4.1324,2.08077 22.92304,9.54373 38.60535,15.33263 84.68338,31.2597 181.35479,53.55052 273.48394,63.06087 33.11373,3.41828 57.57032,4.89539 90.57151,5.47028 l 25.7534,0.44862 -5.30276,6.80346 -5.30275,6.80347 -27.03644,-0.40029 C 535.2388,607.89702 450.65782,597.52296 370.996,576.84275 c -30.44106,-7.90249 -67.23148,-22.91158 -89.78939,-36.63062 -2.42499,-1.47481 -4.51402,-2.57651 -4.6423,-2.44824 -0.42714,0.42714 6.99751,16.65127 14.20534,31.04112 8.20368,16.37798 13.24394,25.66969 21.05866,38.82155 6.59613,11.10103 16.01642,30.2681 19.45787,39.59014 2.78489,7.54362 6.12937,18.71993 5.72337,19.12593 -0.14836,0.14835 -1.49315,-1.12014 -2.98842,-2.81887 z"
   id="path16" /><path
   style="fill:#803300;stroke:#ffffff;stroke-width:0"
   d="m 865.82583,587.69586 c -1.82675,-2.19238 -4.88796,-5.61621 -6.8027,-7.60851 -1.91473,-1.99231 -3.34363,-3.72282 -3.17533,-3.84558 0.1683,-0.12277 6.07724,-1.56563 13.13097,-3.20637 26.83609,-6.24222 56.68127,-14.84539 80.71471,-23.26684 6.05423,-2.12143 11.16131,-3.70353 11.34907,-3.51578 0.87759,0.8776 -29.79616,29.73305 -35.21794,33.13026 -2.4588,1.54066 -51.16854,12.29896 -55.68527,12.29896 -0.54568,0 -2.48676,-1.79377 -4.31351,-3.98614 z"
   id="path17" /><path
   style="fill:#ff6600;stroke:#ffffff;stroke-width:0"
   d="m 731.71687,732.81965 c -16.4369,-2.90652 -30.55883,-8.62485 -44.7141,-18.10588 -5.91834,-3.96404 -17.67767,-13.91079 -17.67767,-14.95285 0,-0.34453 3.44384,-0.62642 7.65298,-0.62642 38.1493,0 79.34784,-17.07851 108.40092,-44.93671 10.99363,-10.54149 19.87226,-21.14785 18.69139,-22.32868 -0.97074,-0.97074 -23.19761,-6.01182 -36.65156,-8.31262 -20.11109,-3.43924 -30.4772,-4.3927 -48.18031,-4.43157 -20.81678,-0.0457 -30.36303,1.23565 -46.39277,6.2271 -1.49282,0.46484 -1.28437,-0.0461 1.88289,-4.61523 6.41831,-9.25912 18.11246,-23.39914 26.71032,-32.2969 42.28202,-43.75675 84.22849,-53.31066 123.51895,-28.13322 15.14394,9.70428 31.02903,26.02791 41.66045,42.81067 1.81262,2.86135 3.63113,5.20014 4.04118,5.19729 0.41005,-0.003 6.38843,-1.34625 13.28522,-2.98533 l 12.53971,-2.98014 8.25692,-5.85351 c 10.13784,-7.18689 19.24523,-14.2697 28.36226,-22.05724 7.84397,-6.70014 25.76004,-24.05678 28.90001,-27.99759 l 2.07709,-2.6068 -1.97033,0.77636 c -21.05819,8.29747 -64.30567,21.19393 -93.98614,28.02682 l -13.25409,3.0513 -5.25075,-5.01392 c -14.92668,-14.2534 -34.02016,-25.33532 -51.4572,-29.86585 -31.43859,-8.16842 -62.35469,0.13479 -93.46825,25.10299 -7.599,6.0981 -20.14222,18.1487 -25.66351,24.65561 l -3.81283,4.49347 -18.71753,0.0398 c -115.94201,0.24684 -255.65698,-25.49928 -372.38077,-68.62085 -14.73876,-5.44498 -35.55807,-13.75042 -39.23647,-15.6526 -1.88811,-0.97638 -2.2261,-0.88313 -7.78844,2.14891 -7.36693,4.01571 -15.63606,10.13467 -20.68646,15.30748 -3.79965,3.89174 -3.92932,4.14869 -3.92932,7.78597 0,9.71716 13.10447,37.41047 34.18884,72.25025 9.40691,15.54398 21.43768,33.80554 27.70465,42.053 14.11992,18.58214 27.31642,41.35934 34.74255,59.9658 3.27276,8.20002 6.40876,19.08462 5.70213,19.79125 -0.65811,0.65811 -10.52207,-9.29373 -21.44553,-21.63658 -5.73641,-6.48182 -24.00601,-25.04337 -40.59909,-41.2479 -39.66173,-38.733 -86.39122,-85.56693 -99.4603,-99.6826 -16.08503,-17.37315 -20.8856,-24.45942 -22.70405,-33.51416 -0.64077,-3.19061 -0.58298,-4.53611 0.32685,-7.61004 1.16805,-3.94634 0.72104,-3.44523 41.45701,-46.47478 l 9.6168,-10.15827 -7.12198,-5.39595 c -19.11148,-14.47974 -39.90232,-34.04527 -51.13121,-48.11778 -11.45546,-14.35645 -20.727,-30.73862 -23.34972,-41.2573 l -1.212303,-4.86209 -7.299436,-5.53654 C 13.777314,305.3854 -3.1192567,248.20298 43.799343,201.8714 c 3.39817,-3.35566 9.177549,-8.34701 12.843064,-11.09188 6.398836,-4.79168 16.430946,-11.19401 16.844363,-10.74979 0.109115,0.11724 0.550076,6.0728 0.979913,13.23457 1.17295,19.54319 4.00239,34.0354 10.112763,51.7969 3.550981,10.32191 12.413185,28.02792 18.910374,37.78151 5.53664,8.3116 14.53301,19.47015 15.17769,18.82548 0.31462,-0.31461 4.32274,-124.45329 4.36449,-135.17586 l 0.0184,-4.73842 3.63952,2.62668 c 28.6128,20.6502 50.19239,44.42662 61.51367,67.77582 7.98855,16.47573 10.67459,27.85732 10.65307,45.14037 -0.0162,13.05256 -1.18645,20.39365 -5.16603,32.40839 -6.64649,20.06638 -22.78119,44.32568 -40.02418,60.17825 l -5.69759,5.23816 2.14561,4.16025 c 6.55289,12.70582 21.74035,27.52829 42.60675,41.58282 11.76755,7.92603 21.65006,13.67155 22.77382,13.24032 0.52779,-0.20253 1.10043,-1.10485 1.27254,-2.00515 0.24181,-1.26495 -3.06415,-6.51569 -14.54874,-23.10725 -8.17391,-11.80867 -15.29253,-22.47417 -15.81915,-23.70109 -1.32333,-3.08304 -1.17241,-8.32104 0.33537,-11.64002 1.50793,-3.31931 5.33137,-6.84523 8.52636,-7.86289 1.27187,-0.40512 12.60714,-2.46777 25.18948,-4.58368 12.58234,-2.11591 23.55338,-4.00073 24.38008,-4.18849 1.02068,-0.23181 2.51344,-2.19489 4.65116,-6.11657 l 3.14806,-5.7752 -10.74404,-24.55516 c -5.90922,-13.50533 -10.92002,-25.80623 -11.1351,-27.3353 -0.21509,-1.52908 -0.0273,-4.13101 0.41727,-5.78208 1.01234,-3.75953 5.52166,-8.76195 8.90475,-9.87847 2.4993,-0.82484 18.68568,-0.63793 45.21936,0.52216 l 10.07543,0.44051 3.95926,-5.16915 3.95926,-5.16917 -5.8891,-26.04949 c -3.239,-14.32722 -5.88735,-26.94206 -5.88522,-28.03297 0.015,-7.69833 6.67424,-14.79418 13.86097,-14.76975 1.33449,0.005 13.64759,2.77264 27.36244,6.15135 l 24.93609,6.14311 4.65363,-3.91354 4.65364,-3.91355 0.0515,-5.54593 c 0.0283,-3.05027 -0.3033,-15.60325 -0.73698,-27.89552 l -0.78851,-22.34958 1.99652,-3.99361 c 2.61372,-5.22818 6.99843,-8.1112 12.30074,-8.08793 3.15653,0.0139 6.26518,1.30584 27.39156,11.3842 l 23.83092,11.36857 5.15776,-2.74343 c 2.83676,-1.50888 5.43224,-3.06706 5.76774,-3.46261 0.33548,-0.39555 2.35986,-11.93803 4.49861,-25.64996 4.41954,-28.334532 4.52932,-28.84675 6.94,-32.381065 3.49661,-5.126398 11.54135,-7.220564 16.89708,-4.398562 1.29113,0.680318 11.47567,8.084593 22.63231,16.453947 l 20.28478,15.217 6.20056,-1.8561 6.20056,-1.85611 8.55076,-23.999503 c 4.70291,-13.199725 9.11078,-25.139172 9.79525,-26.532103 3.60285,-7.331982 13.73051,-10.177811 19.9471,-5.60505 0.98355,0.72347 9.70036,10.124518 19.3707,20.891218 l 17.58244,19.575818 4.60131,-0.43563 c 2.53071,-0.23959 5.4378,-0.59271 6.46019,-0.7847 1.59934,-0.30034 3.72213,-3.493256 15.2029,-22.866945 8.56709,-14.456902 14.27789,-23.361593 15.95279,-24.874766 5.79675,-5.237018 13.89747,-4.728983 19.04897,1.194654 1.10513,1.270771 7.78056,12.08213 14.8343,24.025243 7.87166,13.327985 13.36047,21.916424 14.21146,22.236924 0.76256,0.2872 3.76234,0.73151 6.66616,0.98737 l 5.27968,0.46519 17.49254,-19.604572 c 9.8561,-11.046101 18.69243,-20.327643 20.24121,-21.260884 5.45137,-3.284943 13.53118,-1.639229 17.46006,3.556329 0.93969,1.242689 5.33935,12.398099 9.777,24.789799 4.43765,12.391698 8.54607,23.807728 9.12985,25.368948 1.03945,2.7797 1.18947,2.8769 7.2328,4.68595 l 6.17138,1.84737 21.32295,-15.96865 c 13.99198,-10.478564 22.25771,-16.220375 24.04197,-16.70082 6.16008,-1.658733 13.53881,2.104686 16.12481,8.224196 0.65595,1.55218 9.25048,52.829324 9.25048,55.190524 0,0.067 2.58385,1.49413 5.74199,3.17131 l 5.74191,3.04943 23.54756,-11.15795 c 12.95108,-6.13688 24.5409,-11.3579 25.75512,-11.60227 6.28701,-1.26529 13.94393,4.29521 15.50948,11.26306 0.35813,1.594 0.20493,13.43125 -0.37955,29.32351 l -0.9801,26.65045 2.2199,1.96542 c 1.22093,1.08099 3.46773,3.00191 4.99286,4.26871 l 2.77297,2.30328 24.95671,-6.19755 c 18.92017,-4.69848 25.76496,-6.13176 28.29835,-5.92558 6.13015,0.49893 11.64565,6.00158 12.62725,12.59786 0.3092,2.07739 -1.0768,9.33451 -5.5251,28.93073 -3.2658,14.38677 -5.9378,26.49182 -5.9378,26.90011 0,0.40829 1.7875,2.95461 3.9721,5.65849 l 3.9721,4.91614 9.7194,-0.43902 c 5.3458,-0.24147 17.3625,-0.6456 26.7039,-0.89808 16.2545,-0.43933 17.1036,-0.39788 19.7574,0.96437 5.3242,2.73301 8.2053,7.43286 8.1798,13.34347 -0.015,3.38727 -1.228,6.57748 -10.8716,28.58311 l -10.855,24.77029 2.8678,5.73236 c 1.5774,3.1528 2.9612,5.83587 3.0751,5.96238 0.114,0.12651 11.7126,2.19137 25.7748,4.58858 14.0622,2.39721 26.4891,4.83772 27.6153,5.42335 5.6802,2.95393 8.9999,10.63061 7.3103,16.90521 -0.4639,1.72295 -6.5673,11.25883 -15.6416,24.43845 -8.1844,11.88715 -15.0355,21.8634 -15.2246,22.16944 -0.1892,0.30604 0.2163,2.55388 0.9011,4.99521 l 1.2451,4.43877 45.3508,33.41265 c 40.2805,29.67701 45.5333,33.76084 46.9829,36.52691 3.0653,5.84923 1.936,14.17953 -3.3659,24.8279 -6.318,12.68922 -38.6933,60.20141 -90.8381,133.30914 -10.0623,14.10747 -21.449,30.80499 -25.3038,37.10559 -8.696,14.21359 -14.9106,23.47232 -16.9726,25.28619 l -1.5761,1.38648 0.4542,-5.54594 c 1.5363,-18.7552 10.5996,-46.77062 23.9972,-74.17688 20.969,-42.89474 41.2976,-102.45103 40.0608,-117.36528 -0.3736,-4.50503 -1.4388,-5.68784 -9.4451,-10.48753 -6.6303,-3.97472 -14.1966,-7.05156 -23.6688,-9.62479 -6.1158,-1.66144 -7.6494,-1.78986 -21.4905,-1.7996 -20.1675,-0.0142 -19.1827,-0.45244 -23.5622,10.48623 -6.5012,16.23808 -15.2229,31.06944 -27.0204,45.94855 -7.88314,9.94236 -27.50008,29.33303 -38.84554,38.39755 -20.45778,16.34482 -51.62358,35.08145 -72.7904,43.76097 -2.17852,0.8933 -4.4789,2.82365 -7.62566,6.39892 -8.05527,9.15223 -27.87401,28.08867 -37.44602,35.77886 -25.64552,20.60386 -49.23259,32.86901 -73.74313,38.34607 -6.42663,1.43608 -9.99745,1.76497 -21.56669,1.98635 -9.54233,0.1826 -15.48577,-0.0213 -19.06415,-0.65408 z M 589.699,516.43386 c 19.68542,-3.63848 33.4852,-12.85479 41.18358,-27.50482 5.15018,-9.80081 7.23423,-18.43278 7.74583,-32.0826 1.21693,-32.46831 -12.36258,-57.8732 -35.85454,-67.0776 -7.03305,-2.75563 -12.07454,-3.56432 -22.18374,-3.55842 -10.48481,0.006 -18.07281,1.22786 -28.05115,4.51651 -6.18267,2.03767 -6.30884,2.12466 -9.67823,6.67243 -4.91969,6.64023 -14.15752,27.76694 -17.33565,39.64621 -4.87001,18.20325 -3.34803,35.5159 4.26731,48.54111 3.18612,5.4495 10.63113,13.46967 16.77444,18.07035 9.32838,6.98595 25.73386,13.76942 33.42676,13.82158 2.15026,0.0146 6.51768,-0.45556 9.70539,-1.04475 z m 189.67957,-4.15498 c 12.71177,-3.22461 31.32539,-13.60334 36.9577,-20.6072 3.48701,-4.33611 7.08313,-11.6464 8.77637,-17.84081 1.92763,-7.05174 1.72042,-24.4089 -0.40547,-33.96331 -1.99619,-8.97195 -5.28396,-19.0795 -9.00695,-27.6901 -3.24319,-7.50103 -6.93055,-11.73839 -15.18748,-17.45276 -8.83169,-6.11224 -18.97521,-9.63731 -27.69203,-9.62357 -10.43731,0.0165 -23.62527,4.6133 -32.77059,11.42258 -7.69554,5.72984 -10.76736,9.07619 -14.3282,15.60862 -11.42906,20.96687 -14.57361,42.91518 -8.78157,61.2927 3.01179,9.55616 5.92888,14.51464 14.5935,24.80601 12.56633,14.92564 27.31422,19.25582 47.84472,14.04784 z"
   id="path18" /><path
   style="fill:#803300;stroke:#ffffff;stroke-width:0"
   d="m 1003.7639,664.72374 c 0.6549,-4.83514 5.1085,-19.28609 9.1261,-29.61257 2.0985,-5.39382 7.9894,-18.38581 13.0908,-28.87109 9.4382,-19.39905 18.8075,-40.68047 25.332,-57.53908 4.0961,-10.5837 9.0008,-25.1591 9.0008,-26.74782 0,-0.67241 -2.0814,0.56569 -5.7193,3.40212 -7.3233,5.70988 -19.8162,13.82363 -28.3119,18.38772 -3.6565,1.96432 -6.8197,3.57149 -7.0293,3.57149 -0.2096,0 1.5877,-3.82149 3.994,-8.49221 2.4063,-4.67072 5.6696,-11.76778 7.2518,-15.77125 1.5822,-4.00348 3.2446,-7.65241 3.6941,-8.10875 2.3047,-2.33981 24.0578,-3.09989 34.8686,-1.21836 11.7954,2.0529 28.687,8.69048 28.687,11.27259 0,3.70002 -22.3008,37.54107 -66.5584,101.00094 -6.3818,9.1508 -14.5104,21.38747 -18.0634,27.1926 -3.553,5.80514 -7.2006,11.4204 -8.1057,12.47835 l -1.6457,1.92357 z"
   id="path19" /></svg>
