%TF.GenerationSoftware,KiCad,Pcbnew,8.0.1*%
%TF.CreationDate,2024-04-19T19:32:59+01:00*%
%TF.ProjectId,le-carnard-bleu,6c652d63-6172-46e6-9172-642d626c6575,rev?*%
%TF.SameCoordinates,Original*%
%TF.FileFunction,Drillmap*%
%TF.FilePolarity,Positive*%
%FSLAX45Y45*%
G04 Gerber Fmt 4.5, Leading zero omitted, Abs format (unit mm)*
G04 Created by KiCad (PCBNEW 8.0.1) date 2024-04-19 19:32:59*
%MOMM*%
%LPD*%
G01*
G04 APERTURE LIST*
%ADD10C,0.050000*%
%ADD11C,0.100000*%
%ADD12C,0.200000*%
%ADD13C,0.220000*%
G04 APERTURE END LIST*
D10*
X14062362Y-11954187D02*
X13969174Y-12017915D01*
X13539312Y-7927927D02*
X13744995Y-7982254D01*
X15982345Y-8109788D02*
X16011429Y-8161501D01*
X16011429Y-8161501D02*
X16036590Y-8215497D01*
X16093503Y-8400858D02*
X16108487Y-8476580D01*
X13537757Y-11478174D02*
X13551874Y-11525647D01*
X13271338Y-7872823D02*
X13359603Y-7887603D01*
X14183028Y-11851274D02*
X14171638Y-11865920D01*
X14800575Y-6998886D02*
X14816168Y-6999422D01*
X12113350Y-8171475D02*
X12179888Y-8117483D01*
X12848353Y-7860675D02*
X12929211Y-7854865D01*
X14240381Y-8082381D02*
X14259191Y-8061102D01*
X14047946Y-8085048D02*
X14085411Y-8096157D01*
X13874914Y-12074548D02*
X13763503Y-12131912D01*
X14882621Y-7667105D02*
X14910846Y-7677166D01*
X14871594Y-7193538D02*
X14861194Y-7323810D01*
X14837861Y-7473988D02*
X14831992Y-7556670D01*
X10050000Y-9047373D02*
X11549999Y-8181347D01*
X15815912Y-7908412D02*
X15866597Y-7958670D01*
X15573794Y-9443232D02*
X15501091Y-9458841D01*
X16036590Y-8215497D02*
X16058325Y-8272744D01*
D11*
X10025000Y-9400000D02*
G75*
G02*
X10000000Y-9375000I0J25000D01*
G01*
D10*
X16123478Y-8616052D02*
X16124870Y-8692682D01*
X15222797Y-7664190D02*
X15292091Y-7668617D01*
X14631380Y-7119253D02*
X14671601Y-7079312D01*
X14086927Y-11817587D02*
X14145554Y-11816194D01*
X14274524Y-8032312D02*
X14286816Y-7995371D01*
X14817338Y-9350680D02*
X14727156Y-9304119D01*
X13748369Y-9058532D02*
X13691419Y-9098772D01*
X13985616Y-8057293D02*
X14021061Y-8073111D01*
X11974929Y-11785083D02*
X11887200Y-11684000D01*
X13825372Y-11818928D02*
X13875754Y-11830600D01*
X13097311Y-7855609D02*
X13183778Y-7862158D01*
X14186855Y-11829994D02*
X14188093Y-11839341D01*
X14074231Y-9003125D02*
X13970943Y-8997780D01*
X13387231Y-12259076D02*
X13302786Y-12269390D01*
X14286816Y-7995371D02*
X14296503Y-7949641D01*
X13636627Y-11680530D02*
X13666623Y-11714492D01*
X14125118Y-8104352D02*
X14158728Y-8107547D01*
X12141940Y-11934874D02*
X12054763Y-11862767D01*
X14910846Y-7677166D02*
X14948099Y-7681094D01*
X12479386Y-12131408D02*
X12394405Y-12093902D01*
X12054763Y-11862767D02*
X11974929Y-11785083D01*
X14862274Y-7055927D02*
X14868754Y-7092531D01*
X13392803Y-10214431D02*
X13394686Y-10364435D01*
X14003640Y-11826263D02*
X14086927Y-11817587D01*
X16102616Y-8910812D02*
X16084167Y-8977216D01*
X12394405Y-12093902D02*
X12317398Y-12053004D01*
X14829754Y-7004839D02*
X14841700Y-7015095D01*
X12048202Y-8230931D02*
X12113350Y-8171475D01*
X12770142Y-7870607D02*
X12848353Y-7860675D01*
X13394686Y-10364435D02*
X13400315Y-10486250D01*
X14467636Y-9151374D02*
X14348073Y-9089590D01*
X11549999Y-8181347D02*
G75*
G02*
X11649999Y-8181347I50000J-86602D01*
G01*
X15948843Y-8059390D02*
X15982345Y-8109788D01*
X15971140Y-9194653D02*
X15931268Y-9239223D01*
X14816168Y-6999422D02*
X14829754Y-7004839D01*
X15691083Y-7814349D02*
X15757312Y-7860233D01*
X10050000Y-10952627D02*
X11549999Y-11818652D01*
X16036032Y-9094899D02*
X16005909Y-9146734D01*
X15204192Y-9467177D02*
X15127871Y-9455711D01*
X15001643Y-7679037D02*
X15078743Y-7671147D01*
X14552186Y-7214545D02*
X14631380Y-7119253D01*
X16108487Y-8476580D02*
X16118248Y-8546164D01*
X13515578Y-11367133D02*
X13537757Y-11478174D01*
X15757312Y-7860233D02*
X15815912Y-7908412D01*
X13483215Y-9462263D02*
X13459835Y-9557089D01*
X15279559Y-9473218D02*
X15204192Y-9467177D01*
X14348073Y-9089590D02*
X14264845Y-9052755D01*
X14176663Y-9021976D02*
X14074231Y-9003125D01*
X14727156Y-9304119D02*
X14644357Y-9256271D01*
X13744995Y-7982254D02*
X13923347Y-8035632D01*
X13496642Y-11254126D02*
X13515578Y-11367133D01*
X13400282Y-9958356D02*
X13394668Y-10068364D01*
X15050480Y-9438815D02*
X14971906Y-9416483D01*
X14902917Y-9390089D02*
X14817338Y-9350680D01*
X10000000Y-9375000D02*
X10000000Y-9133975D01*
X13552497Y-9282909D02*
X13515740Y-9366677D01*
X16061966Y-9038581D02*
X16036032Y-9094899D01*
X14347488Y-7664969D02*
X14383264Y-7546891D01*
X14710830Y-7046401D02*
X14761909Y-7012629D01*
X14264845Y-9052755D02*
X14223372Y-9035973D01*
X14671601Y-7079312D02*
X14710830Y-7046401D01*
X16118248Y-8546164D02*
X16123478Y-8616052D01*
X13720142Y-11765203D02*
X13772240Y-11796515D01*
X13970943Y-8997780D02*
X13923163Y-9000664D01*
X13515740Y-9366677D02*
X13483215Y-9462263D01*
X16077130Y-8334208D02*
X16093503Y-8400858D01*
X14834399Y-7598878D02*
X14842619Y-7629128D01*
X13880191Y-9007515D02*
X13811183Y-9028238D01*
X15292091Y-7668617D02*
X15359771Y-7678353D01*
X12605107Y-7909403D02*
X12694966Y-7884663D01*
X15617514Y-7770977D02*
X15691083Y-7814349D01*
X12501456Y-7945627D02*
X12605107Y-7909403D01*
X13394668Y-10068364D02*
X13392803Y-10214431D01*
X13568472Y-11568820D02*
X13587899Y-11608493D01*
X13012326Y-7853177D02*
X13097311Y-7855609D01*
X12240216Y-12004769D02*
X12141940Y-11934874D01*
X14644357Y-9256271D02*
X14467636Y-9151374D01*
X10000000Y-9133975D02*
G75*
G02*
X10050002Y-9047376I100000J-5D01*
G01*
X12930146Y-12255301D02*
X12828532Y-12237937D01*
X14129788Y-11903861D02*
X14062362Y-11954187D01*
X10000000Y-10625000D02*
X10000000Y-10866024D01*
X14021061Y-8073111D02*
X14047946Y-8085048D01*
X12580485Y-12169464D02*
X12479386Y-12131408D01*
X13587899Y-11608493D02*
X13610501Y-11645463D01*
X14190586Y-8104964D02*
X14217658Y-8096788D01*
X14428294Y-7427009D02*
X14452319Y-7374708D01*
X14223372Y-9035973D02*
X14176663Y-9021976D01*
X12828532Y-12237937D02*
X12705801Y-12210029D01*
X12317398Y-12053004D02*
X12240216Y-12004769D01*
X13593811Y-9210586D02*
X13552497Y-9282909D01*
X13473731Y-11113634D02*
X13496642Y-11254126D01*
X15866597Y-7958670D02*
X15910426Y-8009340D01*
X15078743Y-7671147D02*
X15151734Y-7665043D01*
X15630080Y-9427358D02*
X15573794Y-9443232D01*
X14858183Y-7650758D02*
X14882621Y-7667105D01*
X15554711Y-7739711D02*
X15617514Y-7770977D01*
X14145554Y-11816194D02*
X14179337Y-11823106D01*
X13459835Y-9557089D02*
X13436595Y-9681099D01*
X14321046Y-7780936D02*
X14347488Y-7664969D01*
X14296503Y-7949641D02*
X14304022Y-7894481D01*
X16115161Y-8843968D02*
X16102616Y-8910812D01*
X14782611Y-7003275D02*
X14800575Y-6998886D01*
X16058325Y-8272744D02*
X16077130Y-8334208D01*
X14383264Y-7546891D02*
X14428294Y-7427009D01*
X15679096Y-9409418D02*
X15630080Y-9427358D01*
X16084167Y-8977216D02*
X16061966Y-9038581D01*
X13923347Y-8035632D02*
X13985616Y-8057293D01*
X13551874Y-11525647D02*
X13568472Y-11568820D01*
X14841700Y-7015095D02*
X14852369Y-7030149D01*
X13640009Y-9149332D02*
X13593811Y-9210586D01*
X11649999Y-8181347D02*
X11936000Y-8351000D01*
X15354088Y-9473839D02*
X15279559Y-9473218D01*
D11*
X10000000Y-10625000D02*
G75*
G02*
X10025000Y-10600000I25000J0D01*
G01*
D10*
X14179337Y-11823106D02*
X14186855Y-11829994D01*
X14481679Y-7320917D02*
X14552186Y-7214545D01*
X14452319Y-7374708D02*
X14481679Y-7320917D01*
X15127871Y-9455711D02*
X15050480Y-9438815D01*
X13302786Y-12269390D02*
X13214802Y-12274171D01*
X15490924Y-7713871D02*
X15554711Y-7739711D01*
X14085411Y-8096157D02*
X14125118Y-8104352D01*
X14188093Y-11839341D02*
X14183028Y-11851274D01*
X15885837Y-9281010D02*
X15834389Y-9320578D01*
X14868754Y-7092531D02*
X14871594Y-7193538D01*
X14217658Y-8096788D02*
X14240381Y-8082381D01*
X14761909Y-7012629D02*
X14782611Y-7003275D01*
X14158728Y-8107547D02*
X14190586Y-8104964D01*
X10050000Y-10952627D02*
G75*
G02*
X9999996Y-10866024I50000J86607D01*
G01*
X16124870Y-8692682D02*
X16122385Y-8772615D01*
X13415932Y-9819713D02*
X13400282Y-9958356D01*
X12399157Y-7987586D02*
X12501456Y-7945627D01*
X14171638Y-11865920D02*
X14129788Y-11903861D01*
X11936000Y-8351000D02*
X11985388Y-8294940D01*
X12705801Y-12210029D02*
X12580485Y-12169464D01*
X14259191Y-8061102D02*
X14274524Y-8032312D01*
X13923163Y-9000664D02*
X13880191Y-9007515D01*
X15501091Y-9458841D02*
X15427894Y-9469045D01*
X13610501Y-11645463D02*
X13636627Y-11680530D01*
X13772240Y-11796515D02*
X13825372Y-11818928D01*
X13811183Y-9028238D02*
X13748369Y-9058532D01*
X13400315Y-10486250D02*
X13418406Y-10672610D01*
X13436595Y-9681099D02*
X13415932Y-9819713D01*
X14831992Y-7556670D02*
X14834399Y-7598878D01*
X12929211Y-7854865D02*
X13012326Y-7853177D01*
X11649999Y-11818652D02*
G75*
G02*
X11549999Y-11818652I-50000J86602D01*
G01*
X13875754Y-11830600D02*
X13932229Y-11832666D01*
X13123333Y-12273417D02*
X13028430Y-12267128D01*
X15427894Y-9469045D02*
X15354088Y-9473839D01*
X13183778Y-7862158D02*
X13271338Y-7872823D01*
X15726129Y-9387200D02*
X15679096Y-9409418D01*
X13666623Y-11714492D02*
X13720142Y-11765203D01*
X13214802Y-12274171D02*
X13123333Y-12273417D01*
X13445265Y-10900767D02*
X13473731Y-11113634D01*
X15359771Y-7678353D02*
X15425997Y-7693429D01*
X13932229Y-11832666D02*
X14003640Y-11826263D01*
X13969174Y-12017915D02*
X13874914Y-12074548D01*
X13418406Y-10672610D02*
X13445265Y-10900767D01*
X13691419Y-9098772D02*
X13640009Y-9149332D01*
X12313356Y-8029531D02*
X12399157Y-7987586D01*
X13359603Y-7887603D02*
X13539312Y-7927927D01*
X12246871Y-8069864D02*
X12313356Y-8029531D01*
X15834389Y-9320578D02*
X15776467Y-9358496D01*
X15910426Y-8009340D02*
X15948843Y-8059390D01*
X16005909Y-9146734D02*
X15971140Y-9194653D01*
X15776467Y-9358496D02*
X15726129Y-9387200D01*
X14948099Y-7681094D02*
X15001643Y-7679037D01*
X11649999Y-11818652D02*
X11887200Y-11684000D01*
X14971906Y-9416483D02*
X14902917Y-9390089D01*
X15151734Y-7665043D02*
X15222797Y-7664190D01*
X14842619Y-7629128D02*
X14858183Y-7650758D01*
X13545300Y-12221851D02*
X13468087Y-12243229D01*
X12694966Y-7884663D02*
X12770142Y-7870607D01*
X12179888Y-8117483D02*
X12246871Y-8069864D01*
X14861194Y-7323810D02*
X14837861Y-7473988D01*
X15425997Y-7693429D02*
X15490924Y-7713871D01*
X15931268Y-9239223D02*
X15885837Y-9281010D01*
X13028430Y-12267128D02*
X12930146Y-12255301D01*
X13648958Y-12183261D02*
X13545300Y-12221851D01*
X14852369Y-7030149D02*
X14862274Y-7055927D01*
X16122385Y-8772615D02*
X16115161Y-8843968D01*
X13468087Y-12243229D02*
X13387231Y-12259076D01*
X11985388Y-8294940D02*
X12048202Y-8230931D01*
X14304022Y-7894481D02*
X14321046Y-7780936D01*
X13763503Y-12131912D02*
X13648958Y-12183261D01*
X9825000Y-10440000D02*
X9825000Y-9560000D01*
X10450000Y-9400000D02*
X10025000Y-9400000D01*
X10450000Y-9540000D02*
X9845000Y-9540000D01*
X10450000Y-10460000D02*
X9845000Y-10460000D01*
X10450000Y-10600000D02*
X10025000Y-10600000D01*
X9825000Y-9560000D02*
G75*
G02*
X9845000Y-9540000I20000J0D01*
G01*
X9845000Y-10460000D02*
G75*
G02*
X9825000Y-10440000I0J20000D01*
G01*
X10450000Y-9400000D02*
G75*
G02*
X10520000Y-9470000I0J-70000D01*
G01*
X10450000Y-10460000D02*
G75*
G02*
X10520000Y-10530000I0J-70000D01*
G01*
X10520000Y-9470000D02*
G75*
G02*
X10450000Y-9540000I-70000J0D01*
G01*
X10520000Y-10530000D02*
G75*
G02*
X10450000Y-10600000I-70000J0D01*
G01*
D12*
D11*
X10437100Y-9611600D02*
X10467100Y-9641600D01*
X10467100Y-9611600D02*
X10437100Y-9641600D01*
X10437100Y-9878300D02*
X10467100Y-9908300D01*
X10467100Y-9878300D02*
X10437100Y-9908300D01*
X10437100Y-10157700D02*
X10467100Y-10187700D01*
X10467100Y-10157700D02*
X10437100Y-10187700D01*
X10437100Y-10335500D02*
X10467100Y-10365500D01*
X10467100Y-10335500D02*
X10437100Y-10365500D01*
X10691100Y-9901350D02*
X10721100Y-9931350D01*
X10721100Y-9901350D02*
X10691100Y-9931350D01*
X10767300Y-9586200D02*
X10797300Y-9616200D01*
X10797300Y-9586200D02*
X10767300Y-9616200D01*
X10792700Y-10221200D02*
X10822700Y-10251200D01*
X10822700Y-10221200D02*
X10792700Y-10251200D01*
X10881600Y-10564100D02*
X10911600Y-10594100D01*
X10911600Y-10564100D02*
X10881600Y-10594100D01*
X10230800Y-9220200D02*
G75*
G02*
X10190800Y-9220200I-20000J0D01*
G01*
X10190800Y-9220200D02*
G75*
G02*
X10230800Y-9220200I20000J0D01*
G01*
X10230800Y-10795000D02*
G75*
G02*
X10190800Y-10795000I-20000J0D01*
G01*
X10190800Y-10795000D02*
G75*
G02*
X10230800Y-10795000I20000J0D01*
G01*
X11085000Y-8730000D02*
X11085000Y-8770000D01*
X11065000Y-8750000D02*
X11105000Y-8750000D01*
X11085000Y-11230000D02*
X11085000Y-11270000D01*
X11065000Y-11250000D02*
X11105000Y-11250000D01*
X11133327Y-8613327D02*
X11133327Y-8653327D01*
X11113327Y-8633327D02*
X11153327Y-8633327D01*
X11133327Y-8846673D02*
X11133327Y-8886673D01*
X11113327Y-8866673D02*
X11153327Y-8866673D01*
X11133327Y-11113327D02*
X11133327Y-11153327D01*
X11113327Y-11133327D02*
X11153327Y-11133327D01*
X11133327Y-11346673D02*
X11133327Y-11386673D01*
X11113327Y-11366673D02*
X11153327Y-11366673D01*
X11250000Y-8565000D02*
X11250000Y-8605000D01*
X11230000Y-8585000D02*
X11270000Y-8585000D01*
X11250000Y-8895000D02*
X11250000Y-8935000D01*
X11230000Y-8915000D02*
X11270000Y-8915000D01*
X11250000Y-11065000D02*
X11250000Y-11105000D01*
X11230000Y-11085000D02*
X11270000Y-11085000D01*
X11250000Y-11395000D02*
X11250000Y-11435000D01*
X11230000Y-11415000D02*
X11270000Y-11415000D01*
X11366673Y-8613327D02*
X11366673Y-8653327D01*
X11346673Y-8633327D02*
X11386673Y-8633327D01*
X11366673Y-8846673D02*
X11366673Y-8886673D01*
X11346673Y-8866673D02*
X11386673Y-8866673D01*
X11366673Y-11113327D02*
X11366673Y-11153327D01*
X11346673Y-11133327D02*
X11386673Y-11133327D01*
X11366673Y-11346673D02*
X11366673Y-11386673D01*
X11346673Y-11366673D02*
X11386673Y-11366673D01*
X11415000Y-8730000D02*
X11415000Y-8770000D01*
X11395000Y-8750000D02*
X11435000Y-8750000D01*
X11415000Y-11230000D02*
X11415000Y-11270000D01*
X11395000Y-11250000D02*
X11435000Y-11250000D01*
X15271820Y-8083620D02*
X15271820Y-8019980D01*
X15208180Y-8019980D01*
X15208180Y-8083620D01*
X15271820Y-8083620D01*
X15271820Y-8210620D02*
X15271820Y-8146980D01*
X15208180Y-8146980D01*
X15208180Y-8210620D01*
X15271820Y-8210620D01*
X15271820Y-8337620D02*
X15271820Y-8273980D01*
X15208180Y-8273980D01*
X15208180Y-8337620D01*
X15271820Y-8337620D01*
X15271820Y-8464620D02*
X15271820Y-8400980D01*
X15208180Y-8400980D01*
X15208180Y-8464620D01*
X15271820Y-8464620D01*
D13*
X11250000Y-8860000D02*
X11360000Y-8750000D01*
X11250000Y-8640000D01*
X11140000Y-8750000D01*
X11250000Y-8860000D01*
X11250000Y-11360000D02*
X11360000Y-11250000D01*
X11250000Y-11140000D01*
X11140000Y-11250000D01*
X11250000Y-11360000D01*
D12*
X10083277Y-12588155D02*
X10083277Y-12388155D01*
X10083277Y-12388155D02*
X10130896Y-12388155D01*
X10130896Y-12388155D02*
X10159467Y-12397678D01*
X10159467Y-12397678D02*
X10178515Y-12416726D01*
X10178515Y-12416726D02*
X10188039Y-12435774D01*
X10188039Y-12435774D02*
X10197563Y-12473869D01*
X10197563Y-12473869D02*
X10197563Y-12502440D01*
X10197563Y-12502440D02*
X10188039Y-12540536D01*
X10188039Y-12540536D02*
X10178515Y-12559583D01*
X10178515Y-12559583D02*
X10159467Y-12578631D01*
X10159467Y-12578631D02*
X10130896Y-12588155D01*
X10130896Y-12588155D02*
X10083277Y-12588155D01*
X10283277Y-12588155D02*
X10283277Y-12454821D01*
X10283277Y-12492917D02*
X10292801Y-12473869D01*
X10292801Y-12473869D02*
X10302324Y-12464345D01*
X10302324Y-12464345D02*
X10321372Y-12454821D01*
X10321372Y-12454821D02*
X10340420Y-12454821D01*
X10407086Y-12588155D02*
X10407086Y-12454821D01*
X10407086Y-12388155D02*
X10397563Y-12397678D01*
X10397563Y-12397678D02*
X10407086Y-12407202D01*
X10407086Y-12407202D02*
X10416610Y-12397678D01*
X10416610Y-12397678D02*
X10407086Y-12388155D01*
X10407086Y-12388155D02*
X10407086Y-12407202D01*
X10530896Y-12588155D02*
X10511848Y-12578631D01*
X10511848Y-12578631D02*
X10502324Y-12559583D01*
X10502324Y-12559583D02*
X10502324Y-12388155D01*
X10635658Y-12588155D02*
X10616610Y-12578631D01*
X10616610Y-12578631D02*
X10607086Y-12559583D01*
X10607086Y-12559583D02*
X10607086Y-12388155D01*
X10864229Y-12588155D02*
X10864229Y-12388155D01*
X10864229Y-12388155D02*
X10930896Y-12531012D01*
X10930896Y-12531012D02*
X10997563Y-12388155D01*
X10997563Y-12388155D02*
X10997563Y-12588155D01*
X11178515Y-12588155D02*
X11178515Y-12483393D01*
X11178515Y-12483393D02*
X11168991Y-12464345D01*
X11168991Y-12464345D02*
X11149944Y-12454821D01*
X11149944Y-12454821D02*
X11111848Y-12454821D01*
X11111848Y-12454821D02*
X11092801Y-12464345D01*
X11178515Y-12578631D02*
X11159467Y-12588155D01*
X11159467Y-12588155D02*
X11111848Y-12588155D01*
X11111848Y-12588155D02*
X11092801Y-12578631D01*
X11092801Y-12578631D02*
X11083277Y-12559583D01*
X11083277Y-12559583D02*
X11083277Y-12540536D01*
X11083277Y-12540536D02*
X11092801Y-12521488D01*
X11092801Y-12521488D02*
X11111848Y-12511964D01*
X11111848Y-12511964D02*
X11159467Y-12511964D01*
X11159467Y-12511964D02*
X11178515Y-12502440D01*
X11273753Y-12454821D02*
X11273753Y-12654821D01*
X11273753Y-12464345D02*
X11292801Y-12454821D01*
X11292801Y-12454821D02*
X11330896Y-12454821D01*
X11330896Y-12454821D02*
X11349943Y-12464345D01*
X11349943Y-12464345D02*
X11359467Y-12473869D01*
X11359467Y-12473869D02*
X11368991Y-12492917D01*
X11368991Y-12492917D02*
X11368991Y-12550059D01*
X11368991Y-12550059D02*
X11359467Y-12569107D01*
X11359467Y-12569107D02*
X11349943Y-12578631D01*
X11349943Y-12578631D02*
X11330896Y-12588155D01*
X11330896Y-12588155D02*
X11292801Y-12588155D01*
X11292801Y-12588155D02*
X11273753Y-12578631D01*
X11454705Y-12569107D02*
X11464229Y-12578631D01*
X11464229Y-12578631D02*
X11454705Y-12588155D01*
X11454705Y-12588155D02*
X11445182Y-12578631D01*
X11445182Y-12578631D02*
X11454705Y-12569107D01*
X11454705Y-12569107D02*
X11454705Y-12588155D01*
X11454705Y-12464345D02*
X11464229Y-12473869D01*
X11464229Y-12473869D02*
X11454705Y-12483393D01*
X11454705Y-12483393D02*
X11445182Y-12473869D01*
X11445182Y-12473869D02*
X11454705Y-12464345D01*
X11454705Y-12464345D02*
X11454705Y-12483393D01*
D11*
X9792500Y-12901671D02*
X9822500Y-12931671D01*
X9822500Y-12901671D02*
X9792500Y-12931671D01*
D12*
X10121372Y-12808155D02*
X10140420Y-12808155D01*
X10140420Y-12808155D02*
X10159467Y-12817678D01*
X10159467Y-12817678D02*
X10168991Y-12827202D01*
X10168991Y-12827202D02*
X10178515Y-12846250D01*
X10178515Y-12846250D02*
X10188039Y-12884345D01*
X10188039Y-12884345D02*
X10188039Y-12931964D01*
X10188039Y-12931964D02*
X10178515Y-12970059D01*
X10178515Y-12970059D02*
X10168991Y-12989107D01*
X10168991Y-12989107D02*
X10159467Y-12998631D01*
X10159467Y-12998631D02*
X10140420Y-13008155D01*
X10140420Y-13008155D02*
X10121372Y-13008155D01*
X10121372Y-13008155D02*
X10102324Y-12998631D01*
X10102324Y-12998631D02*
X10092801Y-12989107D01*
X10092801Y-12989107D02*
X10083277Y-12970059D01*
X10083277Y-12970059D02*
X10073753Y-12931964D01*
X10073753Y-12931964D02*
X10073753Y-12884345D01*
X10073753Y-12884345D02*
X10083277Y-12846250D01*
X10083277Y-12846250D02*
X10092801Y-12827202D01*
X10092801Y-12827202D02*
X10102324Y-12817678D01*
X10102324Y-12817678D02*
X10121372Y-12808155D01*
X10273753Y-12989107D02*
X10283277Y-12998631D01*
X10283277Y-12998631D02*
X10273753Y-13008155D01*
X10273753Y-13008155D02*
X10264229Y-12998631D01*
X10264229Y-12998631D02*
X10273753Y-12989107D01*
X10273753Y-12989107D02*
X10273753Y-13008155D01*
X10349944Y-12808155D02*
X10473753Y-12808155D01*
X10473753Y-12808155D02*
X10407086Y-12884345D01*
X10407086Y-12884345D02*
X10435658Y-12884345D01*
X10435658Y-12884345D02*
X10454705Y-12893869D01*
X10454705Y-12893869D02*
X10464229Y-12903393D01*
X10464229Y-12903393D02*
X10473753Y-12922440D01*
X10473753Y-12922440D02*
X10473753Y-12970059D01*
X10473753Y-12970059D02*
X10464229Y-12989107D01*
X10464229Y-12989107D02*
X10454705Y-12998631D01*
X10454705Y-12998631D02*
X10435658Y-13008155D01*
X10435658Y-13008155D02*
X10378515Y-13008155D01*
X10378515Y-13008155D02*
X10359467Y-12998631D01*
X10359467Y-12998631D02*
X10349944Y-12989107D01*
X10597563Y-12808155D02*
X10616610Y-12808155D01*
X10616610Y-12808155D02*
X10635658Y-12817678D01*
X10635658Y-12817678D02*
X10645182Y-12827202D01*
X10645182Y-12827202D02*
X10654705Y-12846250D01*
X10654705Y-12846250D02*
X10664229Y-12884345D01*
X10664229Y-12884345D02*
X10664229Y-12931964D01*
X10664229Y-12931964D02*
X10654705Y-12970059D01*
X10654705Y-12970059D02*
X10645182Y-12989107D01*
X10645182Y-12989107D02*
X10635658Y-12998631D01*
X10635658Y-12998631D02*
X10616610Y-13008155D01*
X10616610Y-13008155D02*
X10597563Y-13008155D01*
X10597563Y-13008155D02*
X10578515Y-12998631D01*
X10578515Y-12998631D02*
X10568991Y-12989107D01*
X10568991Y-12989107D02*
X10559467Y-12970059D01*
X10559467Y-12970059D02*
X10549944Y-12931964D01*
X10549944Y-12931964D02*
X10549944Y-12884345D01*
X10549944Y-12884345D02*
X10559467Y-12846250D01*
X10559467Y-12846250D02*
X10568991Y-12827202D01*
X10568991Y-12827202D02*
X10578515Y-12817678D01*
X10578515Y-12817678D02*
X10597563Y-12808155D01*
X10788039Y-12808155D02*
X10807086Y-12808155D01*
X10807086Y-12808155D02*
X10826134Y-12817678D01*
X10826134Y-12817678D02*
X10835658Y-12827202D01*
X10835658Y-12827202D02*
X10845182Y-12846250D01*
X10845182Y-12846250D02*
X10854705Y-12884345D01*
X10854705Y-12884345D02*
X10854705Y-12931964D01*
X10854705Y-12931964D02*
X10845182Y-12970059D01*
X10845182Y-12970059D02*
X10835658Y-12989107D01*
X10835658Y-12989107D02*
X10826134Y-12998631D01*
X10826134Y-12998631D02*
X10807086Y-13008155D01*
X10807086Y-13008155D02*
X10788039Y-13008155D01*
X10788039Y-13008155D02*
X10768991Y-12998631D01*
X10768991Y-12998631D02*
X10759467Y-12989107D01*
X10759467Y-12989107D02*
X10749944Y-12970059D01*
X10749944Y-12970059D02*
X10740420Y-12931964D01*
X10740420Y-12931964D02*
X10740420Y-12884345D01*
X10740420Y-12884345D02*
X10749944Y-12846250D01*
X10749944Y-12846250D02*
X10759467Y-12827202D01*
X10759467Y-12827202D02*
X10768991Y-12817678D01*
X10768991Y-12817678D02*
X10788039Y-12808155D01*
X10940420Y-13008155D02*
X10940420Y-12874821D01*
X10940420Y-12893869D02*
X10949944Y-12884345D01*
X10949944Y-12884345D02*
X10968991Y-12874821D01*
X10968991Y-12874821D02*
X10997563Y-12874821D01*
X10997563Y-12874821D02*
X11016610Y-12884345D01*
X11016610Y-12884345D02*
X11026134Y-12903393D01*
X11026134Y-12903393D02*
X11026134Y-13008155D01*
X11026134Y-12903393D02*
X11035658Y-12884345D01*
X11035658Y-12884345D02*
X11054705Y-12874821D01*
X11054705Y-12874821D02*
X11083277Y-12874821D01*
X11083277Y-12874821D02*
X11102325Y-12884345D01*
X11102325Y-12884345D02*
X11111848Y-12903393D01*
X11111848Y-12903393D02*
X11111848Y-13008155D01*
X11207086Y-13008155D02*
X11207086Y-12874821D01*
X11207086Y-12893869D02*
X11216610Y-12884345D01*
X11216610Y-12884345D02*
X11235658Y-12874821D01*
X11235658Y-12874821D02*
X11264229Y-12874821D01*
X11264229Y-12874821D02*
X11283277Y-12884345D01*
X11283277Y-12884345D02*
X11292801Y-12903393D01*
X11292801Y-12903393D02*
X11292801Y-13008155D01*
X11292801Y-12903393D02*
X11302324Y-12884345D01*
X11302324Y-12884345D02*
X11321372Y-12874821D01*
X11321372Y-12874821D02*
X11349943Y-12874821D01*
X11349943Y-12874821D02*
X11368991Y-12884345D01*
X11368991Y-12884345D02*
X11378515Y-12903393D01*
X11378515Y-12903393D02*
X11378515Y-13008155D01*
X11768991Y-12798631D02*
X11597563Y-13055774D01*
X12026134Y-12808155D02*
X12045182Y-12808155D01*
X12045182Y-12808155D02*
X12064229Y-12817678D01*
X12064229Y-12817678D02*
X12073753Y-12827202D01*
X12073753Y-12827202D02*
X12083277Y-12846250D01*
X12083277Y-12846250D02*
X12092801Y-12884345D01*
X12092801Y-12884345D02*
X12092801Y-12931964D01*
X12092801Y-12931964D02*
X12083277Y-12970059D01*
X12083277Y-12970059D02*
X12073753Y-12989107D01*
X12073753Y-12989107D02*
X12064229Y-12998631D01*
X12064229Y-12998631D02*
X12045182Y-13008155D01*
X12045182Y-13008155D02*
X12026134Y-13008155D01*
X12026134Y-13008155D02*
X12007086Y-12998631D01*
X12007086Y-12998631D02*
X11997563Y-12989107D01*
X11997563Y-12989107D02*
X11988039Y-12970059D01*
X11988039Y-12970059D02*
X11978515Y-12931964D01*
X11978515Y-12931964D02*
X11978515Y-12884345D01*
X11978515Y-12884345D02*
X11988039Y-12846250D01*
X11988039Y-12846250D02*
X11997563Y-12827202D01*
X11997563Y-12827202D02*
X12007086Y-12817678D01*
X12007086Y-12817678D02*
X12026134Y-12808155D01*
X12178515Y-12989107D02*
X12188039Y-12998631D01*
X12188039Y-12998631D02*
X12178515Y-13008155D01*
X12178515Y-13008155D02*
X12168991Y-12998631D01*
X12168991Y-12998631D02*
X12178515Y-12989107D01*
X12178515Y-12989107D02*
X12178515Y-13008155D01*
X12311848Y-12808155D02*
X12330896Y-12808155D01*
X12330896Y-12808155D02*
X12349944Y-12817678D01*
X12349944Y-12817678D02*
X12359467Y-12827202D01*
X12359467Y-12827202D02*
X12368991Y-12846250D01*
X12368991Y-12846250D02*
X12378515Y-12884345D01*
X12378515Y-12884345D02*
X12378515Y-12931964D01*
X12378515Y-12931964D02*
X12368991Y-12970059D01*
X12368991Y-12970059D02*
X12359467Y-12989107D01*
X12359467Y-12989107D02*
X12349944Y-12998631D01*
X12349944Y-12998631D02*
X12330896Y-13008155D01*
X12330896Y-13008155D02*
X12311848Y-13008155D01*
X12311848Y-13008155D02*
X12292801Y-12998631D01*
X12292801Y-12998631D02*
X12283277Y-12989107D01*
X12283277Y-12989107D02*
X12273753Y-12970059D01*
X12273753Y-12970059D02*
X12264229Y-12931964D01*
X12264229Y-12931964D02*
X12264229Y-12884345D01*
X12264229Y-12884345D02*
X12273753Y-12846250D01*
X12273753Y-12846250D02*
X12283277Y-12827202D01*
X12283277Y-12827202D02*
X12292801Y-12817678D01*
X12292801Y-12817678D02*
X12311848Y-12808155D01*
X12568991Y-13008155D02*
X12454706Y-13008155D01*
X12511848Y-13008155D02*
X12511848Y-12808155D01*
X12511848Y-12808155D02*
X12492801Y-12836726D01*
X12492801Y-12836726D02*
X12473753Y-12855774D01*
X12473753Y-12855774D02*
X12454706Y-12865297D01*
X12759467Y-13008155D02*
X12645182Y-13008155D01*
X12702325Y-13008155D02*
X12702325Y-12808155D01*
X12702325Y-12808155D02*
X12683277Y-12836726D01*
X12683277Y-12836726D02*
X12664229Y-12855774D01*
X12664229Y-12855774D02*
X12645182Y-12865297D01*
X12873753Y-12893869D02*
X12854706Y-12884345D01*
X12854706Y-12884345D02*
X12845182Y-12874821D01*
X12845182Y-12874821D02*
X12835658Y-12855774D01*
X12835658Y-12855774D02*
X12835658Y-12846250D01*
X12835658Y-12846250D02*
X12845182Y-12827202D01*
X12845182Y-12827202D02*
X12854706Y-12817678D01*
X12854706Y-12817678D02*
X12873753Y-12808155D01*
X12873753Y-12808155D02*
X12911848Y-12808155D01*
X12911848Y-12808155D02*
X12930896Y-12817678D01*
X12930896Y-12817678D02*
X12940420Y-12827202D01*
X12940420Y-12827202D02*
X12949944Y-12846250D01*
X12949944Y-12846250D02*
X12949944Y-12855774D01*
X12949944Y-12855774D02*
X12940420Y-12874821D01*
X12940420Y-12874821D02*
X12930896Y-12884345D01*
X12930896Y-12884345D02*
X12911848Y-12893869D01*
X12911848Y-12893869D02*
X12873753Y-12893869D01*
X12873753Y-12893869D02*
X12854706Y-12903393D01*
X12854706Y-12903393D02*
X12845182Y-12912917D01*
X12845182Y-12912917D02*
X12835658Y-12931964D01*
X12835658Y-12931964D02*
X12835658Y-12970059D01*
X12835658Y-12970059D02*
X12845182Y-12989107D01*
X12845182Y-12989107D02*
X12854706Y-12998631D01*
X12854706Y-12998631D02*
X12873753Y-13008155D01*
X12873753Y-13008155D02*
X12911848Y-13008155D01*
X12911848Y-13008155D02*
X12930896Y-12998631D01*
X12930896Y-12998631D02*
X12940420Y-12989107D01*
X12940420Y-12989107D02*
X12949944Y-12970059D01*
X12949944Y-12970059D02*
X12949944Y-12931964D01*
X12949944Y-12931964D02*
X12940420Y-12912917D01*
X12940420Y-12912917D02*
X12930896Y-12903393D01*
X12930896Y-12903393D02*
X12911848Y-12893869D01*
X13026134Y-12808155D02*
X13026134Y-12846250D01*
X13102325Y-12808155D02*
X13102325Y-12846250D01*
X13397563Y-13084345D02*
X13388039Y-13074821D01*
X13388039Y-13074821D02*
X13368991Y-13046250D01*
X13368991Y-13046250D02*
X13359468Y-13027202D01*
X13359468Y-13027202D02*
X13349944Y-12998631D01*
X13349944Y-12998631D02*
X13340420Y-12951012D01*
X13340420Y-12951012D02*
X13340420Y-12912917D01*
X13340420Y-12912917D02*
X13349944Y-12865297D01*
X13349944Y-12865297D02*
X13359468Y-12836726D01*
X13359468Y-12836726D02*
X13368991Y-12817678D01*
X13368991Y-12817678D02*
X13388039Y-12789107D01*
X13388039Y-12789107D02*
X13397563Y-12779583D01*
X13502325Y-12893869D02*
X13483277Y-12884345D01*
X13483277Y-12884345D02*
X13473753Y-12874821D01*
X13473753Y-12874821D02*
X13464229Y-12855774D01*
X13464229Y-12855774D02*
X13464229Y-12846250D01*
X13464229Y-12846250D02*
X13473753Y-12827202D01*
X13473753Y-12827202D02*
X13483277Y-12817678D01*
X13483277Y-12817678D02*
X13502325Y-12808155D01*
X13502325Y-12808155D02*
X13540420Y-12808155D01*
X13540420Y-12808155D02*
X13559468Y-12817678D01*
X13559468Y-12817678D02*
X13568991Y-12827202D01*
X13568991Y-12827202D02*
X13578515Y-12846250D01*
X13578515Y-12846250D02*
X13578515Y-12855774D01*
X13578515Y-12855774D02*
X13568991Y-12874821D01*
X13568991Y-12874821D02*
X13559468Y-12884345D01*
X13559468Y-12884345D02*
X13540420Y-12893869D01*
X13540420Y-12893869D02*
X13502325Y-12893869D01*
X13502325Y-12893869D02*
X13483277Y-12903393D01*
X13483277Y-12903393D02*
X13473753Y-12912917D01*
X13473753Y-12912917D02*
X13464229Y-12931964D01*
X13464229Y-12931964D02*
X13464229Y-12970059D01*
X13464229Y-12970059D02*
X13473753Y-12989107D01*
X13473753Y-12989107D02*
X13483277Y-12998631D01*
X13483277Y-12998631D02*
X13502325Y-13008155D01*
X13502325Y-13008155D02*
X13540420Y-13008155D01*
X13540420Y-13008155D02*
X13559468Y-12998631D01*
X13559468Y-12998631D02*
X13568991Y-12989107D01*
X13568991Y-12989107D02*
X13578515Y-12970059D01*
X13578515Y-12970059D02*
X13578515Y-12931964D01*
X13578515Y-12931964D02*
X13568991Y-12912917D01*
X13568991Y-12912917D02*
X13559468Y-12903393D01*
X13559468Y-12903393D02*
X13540420Y-12893869D01*
X13816610Y-13008155D02*
X13816610Y-12808155D01*
X13902325Y-13008155D02*
X13902325Y-12903393D01*
X13902325Y-12903393D02*
X13892801Y-12884345D01*
X13892801Y-12884345D02*
X13873753Y-12874821D01*
X13873753Y-12874821D02*
X13845182Y-12874821D01*
X13845182Y-12874821D02*
X13826134Y-12884345D01*
X13826134Y-12884345D02*
X13816610Y-12893869D01*
X14026134Y-13008155D02*
X14007087Y-12998631D01*
X14007087Y-12998631D02*
X13997563Y-12989107D01*
X13997563Y-12989107D02*
X13988039Y-12970059D01*
X13988039Y-12970059D02*
X13988039Y-12912917D01*
X13988039Y-12912917D02*
X13997563Y-12893869D01*
X13997563Y-12893869D02*
X14007087Y-12884345D01*
X14007087Y-12884345D02*
X14026134Y-12874821D01*
X14026134Y-12874821D02*
X14054706Y-12874821D01*
X14054706Y-12874821D02*
X14073753Y-12884345D01*
X14073753Y-12884345D02*
X14083277Y-12893869D01*
X14083277Y-12893869D02*
X14092801Y-12912917D01*
X14092801Y-12912917D02*
X14092801Y-12970059D01*
X14092801Y-12970059D02*
X14083277Y-12989107D01*
X14083277Y-12989107D02*
X14073753Y-12998631D01*
X14073753Y-12998631D02*
X14054706Y-13008155D01*
X14054706Y-13008155D02*
X14026134Y-13008155D01*
X14207087Y-13008155D02*
X14188039Y-12998631D01*
X14188039Y-12998631D02*
X14178515Y-12979583D01*
X14178515Y-12979583D02*
X14178515Y-12808155D01*
X14359468Y-12998631D02*
X14340420Y-13008155D01*
X14340420Y-13008155D02*
X14302325Y-13008155D01*
X14302325Y-13008155D02*
X14283277Y-12998631D01*
X14283277Y-12998631D02*
X14273753Y-12979583D01*
X14273753Y-12979583D02*
X14273753Y-12903393D01*
X14273753Y-12903393D02*
X14283277Y-12884345D01*
X14283277Y-12884345D02*
X14302325Y-12874821D01*
X14302325Y-12874821D02*
X14340420Y-12874821D01*
X14340420Y-12874821D02*
X14359468Y-12884345D01*
X14359468Y-12884345D02*
X14368991Y-12903393D01*
X14368991Y-12903393D02*
X14368991Y-12922440D01*
X14368991Y-12922440D02*
X14273753Y-12941488D01*
X14445182Y-12998631D02*
X14464230Y-13008155D01*
X14464230Y-13008155D02*
X14502325Y-13008155D01*
X14502325Y-13008155D02*
X14521372Y-12998631D01*
X14521372Y-12998631D02*
X14530896Y-12979583D01*
X14530896Y-12979583D02*
X14530896Y-12970059D01*
X14530896Y-12970059D02*
X14521372Y-12951012D01*
X14521372Y-12951012D02*
X14502325Y-12941488D01*
X14502325Y-12941488D02*
X14473753Y-12941488D01*
X14473753Y-12941488D02*
X14454706Y-12931964D01*
X14454706Y-12931964D02*
X14445182Y-12912917D01*
X14445182Y-12912917D02*
X14445182Y-12903393D01*
X14445182Y-12903393D02*
X14454706Y-12884345D01*
X14454706Y-12884345D02*
X14473753Y-12874821D01*
X14473753Y-12874821D02*
X14502325Y-12874821D01*
X14502325Y-12874821D02*
X14521372Y-12884345D01*
X14597563Y-13084345D02*
X14607087Y-13074821D01*
X14607087Y-13074821D02*
X14626134Y-13046250D01*
X14626134Y-13046250D02*
X14635658Y-13027202D01*
X14635658Y-13027202D02*
X14645182Y-12998631D01*
X14645182Y-12998631D02*
X14654706Y-12951012D01*
X14654706Y-12951012D02*
X14654706Y-12912917D01*
X14654706Y-12912917D02*
X14645182Y-12865297D01*
X14645182Y-12865297D02*
X14635658Y-12836726D01*
X14635658Y-12836726D02*
X14626134Y-12817678D01*
X14626134Y-12817678D02*
X14607087Y-12789107D01*
X14607087Y-12789107D02*
X14597563Y-12779583D01*
D11*
X9822500Y-13180671D02*
G75*
G02*
X9782500Y-13180671I-20000J0D01*
G01*
X9782500Y-13180671D02*
G75*
G02*
X9822500Y-13180671I20000J0D01*
G01*
D12*
X10121372Y-13072155D02*
X10140420Y-13072155D01*
X10140420Y-13072155D02*
X10159467Y-13081678D01*
X10159467Y-13081678D02*
X10168991Y-13091202D01*
X10168991Y-13091202D02*
X10178515Y-13110250D01*
X10178515Y-13110250D02*
X10188039Y-13148345D01*
X10188039Y-13148345D02*
X10188039Y-13195964D01*
X10188039Y-13195964D02*
X10178515Y-13234059D01*
X10178515Y-13234059D02*
X10168991Y-13253107D01*
X10168991Y-13253107D02*
X10159467Y-13262631D01*
X10159467Y-13262631D02*
X10140420Y-13272155D01*
X10140420Y-13272155D02*
X10121372Y-13272155D01*
X10121372Y-13272155D02*
X10102324Y-13262631D01*
X10102324Y-13262631D02*
X10092801Y-13253107D01*
X10092801Y-13253107D02*
X10083277Y-13234059D01*
X10083277Y-13234059D02*
X10073753Y-13195964D01*
X10073753Y-13195964D02*
X10073753Y-13148345D01*
X10073753Y-13148345D02*
X10083277Y-13110250D01*
X10083277Y-13110250D02*
X10092801Y-13091202D01*
X10092801Y-13091202D02*
X10102324Y-13081678D01*
X10102324Y-13081678D02*
X10121372Y-13072155D01*
X10273753Y-13253107D02*
X10283277Y-13262631D01*
X10283277Y-13262631D02*
X10273753Y-13272155D01*
X10273753Y-13272155D02*
X10264229Y-13262631D01*
X10264229Y-13262631D02*
X10273753Y-13253107D01*
X10273753Y-13253107D02*
X10273753Y-13272155D01*
X10454705Y-13138821D02*
X10454705Y-13272155D01*
X10407086Y-13062631D02*
X10359467Y-13205488D01*
X10359467Y-13205488D02*
X10483277Y-13205488D01*
X10597563Y-13072155D02*
X10616610Y-13072155D01*
X10616610Y-13072155D02*
X10635658Y-13081678D01*
X10635658Y-13081678D02*
X10645182Y-13091202D01*
X10645182Y-13091202D02*
X10654705Y-13110250D01*
X10654705Y-13110250D02*
X10664229Y-13148345D01*
X10664229Y-13148345D02*
X10664229Y-13195964D01*
X10664229Y-13195964D02*
X10654705Y-13234059D01*
X10654705Y-13234059D02*
X10645182Y-13253107D01*
X10645182Y-13253107D02*
X10635658Y-13262631D01*
X10635658Y-13262631D02*
X10616610Y-13272155D01*
X10616610Y-13272155D02*
X10597563Y-13272155D01*
X10597563Y-13272155D02*
X10578515Y-13262631D01*
X10578515Y-13262631D02*
X10568991Y-13253107D01*
X10568991Y-13253107D02*
X10559467Y-13234059D01*
X10559467Y-13234059D02*
X10549944Y-13195964D01*
X10549944Y-13195964D02*
X10549944Y-13148345D01*
X10549944Y-13148345D02*
X10559467Y-13110250D01*
X10559467Y-13110250D02*
X10568991Y-13091202D01*
X10568991Y-13091202D02*
X10578515Y-13081678D01*
X10578515Y-13081678D02*
X10597563Y-13072155D01*
X10788039Y-13072155D02*
X10807086Y-13072155D01*
X10807086Y-13072155D02*
X10826134Y-13081678D01*
X10826134Y-13081678D02*
X10835658Y-13091202D01*
X10835658Y-13091202D02*
X10845182Y-13110250D01*
X10845182Y-13110250D02*
X10854705Y-13148345D01*
X10854705Y-13148345D02*
X10854705Y-13195964D01*
X10854705Y-13195964D02*
X10845182Y-13234059D01*
X10845182Y-13234059D02*
X10835658Y-13253107D01*
X10835658Y-13253107D02*
X10826134Y-13262631D01*
X10826134Y-13262631D02*
X10807086Y-13272155D01*
X10807086Y-13272155D02*
X10788039Y-13272155D01*
X10788039Y-13272155D02*
X10768991Y-13262631D01*
X10768991Y-13262631D02*
X10759467Y-13253107D01*
X10759467Y-13253107D02*
X10749944Y-13234059D01*
X10749944Y-13234059D02*
X10740420Y-13195964D01*
X10740420Y-13195964D02*
X10740420Y-13148345D01*
X10740420Y-13148345D02*
X10749944Y-13110250D01*
X10749944Y-13110250D02*
X10759467Y-13091202D01*
X10759467Y-13091202D02*
X10768991Y-13081678D01*
X10768991Y-13081678D02*
X10788039Y-13072155D01*
X10940420Y-13272155D02*
X10940420Y-13138821D01*
X10940420Y-13157869D02*
X10949944Y-13148345D01*
X10949944Y-13148345D02*
X10968991Y-13138821D01*
X10968991Y-13138821D02*
X10997563Y-13138821D01*
X10997563Y-13138821D02*
X11016610Y-13148345D01*
X11016610Y-13148345D02*
X11026134Y-13167393D01*
X11026134Y-13167393D02*
X11026134Y-13272155D01*
X11026134Y-13167393D02*
X11035658Y-13148345D01*
X11035658Y-13148345D02*
X11054705Y-13138821D01*
X11054705Y-13138821D02*
X11083277Y-13138821D01*
X11083277Y-13138821D02*
X11102325Y-13148345D01*
X11102325Y-13148345D02*
X11111848Y-13167393D01*
X11111848Y-13167393D02*
X11111848Y-13272155D01*
X11207086Y-13272155D02*
X11207086Y-13138821D01*
X11207086Y-13157869D02*
X11216610Y-13148345D01*
X11216610Y-13148345D02*
X11235658Y-13138821D01*
X11235658Y-13138821D02*
X11264229Y-13138821D01*
X11264229Y-13138821D02*
X11283277Y-13148345D01*
X11283277Y-13148345D02*
X11292801Y-13167393D01*
X11292801Y-13167393D02*
X11292801Y-13272155D01*
X11292801Y-13167393D02*
X11302324Y-13148345D01*
X11302324Y-13148345D02*
X11321372Y-13138821D01*
X11321372Y-13138821D02*
X11349943Y-13138821D01*
X11349943Y-13138821D02*
X11368991Y-13148345D01*
X11368991Y-13148345D02*
X11378515Y-13167393D01*
X11378515Y-13167393D02*
X11378515Y-13272155D01*
X11768991Y-13062631D02*
X11597563Y-13319774D01*
X12026134Y-13072155D02*
X12045182Y-13072155D01*
X12045182Y-13072155D02*
X12064229Y-13081678D01*
X12064229Y-13081678D02*
X12073753Y-13091202D01*
X12073753Y-13091202D02*
X12083277Y-13110250D01*
X12083277Y-13110250D02*
X12092801Y-13148345D01*
X12092801Y-13148345D02*
X12092801Y-13195964D01*
X12092801Y-13195964D02*
X12083277Y-13234059D01*
X12083277Y-13234059D02*
X12073753Y-13253107D01*
X12073753Y-13253107D02*
X12064229Y-13262631D01*
X12064229Y-13262631D02*
X12045182Y-13272155D01*
X12045182Y-13272155D02*
X12026134Y-13272155D01*
X12026134Y-13272155D02*
X12007086Y-13262631D01*
X12007086Y-13262631D02*
X11997563Y-13253107D01*
X11997563Y-13253107D02*
X11988039Y-13234059D01*
X11988039Y-13234059D02*
X11978515Y-13195964D01*
X11978515Y-13195964D02*
X11978515Y-13148345D01*
X11978515Y-13148345D02*
X11988039Y-13110250D01*
X11988039Y-13110250D02*
X11997563Y-13091202D01*
X11997563Y-13091202D02*
X12007086Y-13081678D01*
X12007086Y-13081678D02*
X12026134Y-13072155D01*
X12178515Y-13253107D02*
X12188039Y-13262631D01*
X12188039Y-13262631D02*
X12178515Y-13272155D01*
X12178515Y-13272155D02*
X12168991Y-13262631D01*
X12168991Y-13262631D02*
X12178515Y-13253107D01*
X12178515Y-13253107D02*
X12178515Y-13272155D01*
X12311848Y-13072155D02*
X12330896Y-13072155D01*
X12330896Y-13072155D02*
X12349944Y-13081678D01*
X12349944Y-13081678D02*
X12359467Y-13091202D01*
X12359467Y-13091202D02*
X12368991Y-13110250D01*
X12368991Y-13110250D02*
X12378515Y-13148345D01*
X12378515Y-13148345D02*
X12378515Y-13195964D01*
X12378515Y-13195964D02*
X12368991Y-13234059D01*
X12368991Y-13234059D02*
X12359467Y-13253107D01*
X12359467Y-13253107D02*
X12349944Y-13262631D01*
X12349944Y-13262631D02*
X12330896Y-13272155D01*
X12330896Y-13272155D02*
X12311848Y-13272155D01*
X12311848Y-13272155D02*
X12292801Y-13262631D01*
X12292801Y-13262631D02*
X12283277Y-13253107D01*
X12283277Y-13253107D02*
X12273753Y-13234059D01*
X12273753Y-13234059D02*
X12264229Y-13195964D01*
X12264229Y-13195964D02*
X12264229Y-13148345D01*
X12264229Y-13148345D02*
X12273753Y-13110250D01*
X12273753Y-13110250D02*
X12283277Y-13091202D01*
X12283277Y-13091202D02*
X12292801Y-13081678D01*
X12292801Y-13081678D02*
X12311848Y-13072155D01*
X12568991Y-13272155D02*
X12454706Y-13272155D01*
X12511848Y-13272155D02*
X12511848Y-13072155D01*
X12511848Y-13072155D02*
X12492801Y-13100726D01*
X12492801Y-13100726D02*
X12473753Y-13119774D01*
X12473753Y-13119774D02*
X12454706Y-13129297D01*
X12749944Y-13072155D02*
X12654706Y-13072155D01*
X12654706Y-13072155D02*
X12645182Y-13167393D01*
X12645182Y-13167393D02*
X12654706Y-13157869D01*
X12654706Y-13157869D02*
X12673753Y-13148345D01*
X12673753Y-13148345D02*
X12721372Y-13148345D01*
X12721372Y-13148345D02*
X12740420Y-13157869D01*
X12740420Y-13157869D02*
X12749944Y-13167393D01*
X12749944Y-13167393D02*
X12759467Y-13186440D01*
X12759467Y-13186440D02*
X12759467Y-13234059D01*
X12759467Y-13234059D02*
X12749944Y-13253107D01*
X12749944Y-13253107D02*
X12740420Y-13262631D01*
X12740420Y-13262631D02*
X12721372Y-13272155D01*
X12721372Y-13272155D02*
X12673753Y-13272155D01*
X12673753Y-13272155D02*
X12654706Y-13262631D01*
X12654706Y-13262631D02*
X12645182Y-13253107D01*
X12826134Y-13072155D02*
X12959467Y-13072155D01*
X12959467Y-13072155D02*
X12873753Y-13272155D01*
X13026134Y-13072155D02*
X13026134Y-13110250D01*
X13102325Y-13072155D02*
X13102325Y-13110250D01*
X13397563Y-13348345D02*
X13388039Y-13338821D01*
X13388039Y-13338821D02*
X13368991Y-13310250D01*
X13368991Y-13310250D02*
X13359468Y-13291202D01*
X13359468Y-13291202D02*
X13349944Y-13262631D01*
X13349944Y-13262631D02*
X13340420Y-13215012D01*
X13340420Y-13215012D02*
X13340420Y-13176917D01*
X13340420Y-13176917D02*
X13349944Y-13129297D01*
X13349944Y-13129297D02*
X13359468Y-13100726D01*
X13359468Y-13100726D02*
X13368991Y-13081678D01*
X13368991Y-13081678D02*
X13388039Y-13053107D01*
X13388039Y-13053107D02*
X13397563Y-13043583D01*
X13464229Y-13091202D02*
X13473753Y-13081678D01*
X13473753Y-13081678D02*
X13492801Y-13072155D01*
X13492801Y-13072155D02*
X13540420Y-13072155D01*
X13540420Y-13072155D02*
X13559468Y-13081678D01*
X13559468Y-13081678D02*
X13568991Y-13091202D01*
X13568991Y-13091202D02*
X13578515Y-13110250D01*
X13578515Y-13110250D02*
X13578515Y-13129297D01*
X13578515Y-13129297D02*
X13568991Y-13157869D01*
X13568991Y-13157869D02*
X13454706Y-13272155D01*
X13454706Y-13272155D02*
X13578515Y-13272155D01*
X13816610Y-13272155D02*
X13816610Y-13072155D01*
X13902325Y-13272155D02*
X13902325Y-13167393D01*
X13902325Y-13167393D02*
X13892801Y-13148345D01*
X13892801Y-13148345D02*
X13873753Y-13138821D01*
X13873753Y-13138821D02*
X13845182Y-13138821D01*
X13845182Y-13138821D02*
X13826134Y-13148345D01*
X13826134Y-13148345D02*
X13816610Y-13157869D01*
X14026134Y-13272155D02*
X14007087Y-13262631D01*
X14007087Y-13262631D02*
X13997563Y-13253107D01*
X13997563Y-13253107D02*
X13988039Y-13234059D01*
X13988039Y-13234059D02*
X13988039Y-13176917D01*
X13988039Y-13176917D02*
X13997563Y-13157869D01*
X13997563Y-13157869D02*
X14007087Y-13148345D01*
X14007087Y-13148345D02*
X14026134Y-13138821D01*
X14026134Y-13138821D02*
X14054706Y-13138821D01*
X14054706Y-13138821D02*
X14073753Y-13148345D01*
X14073753Y-13148345D02*
X14083277Y-13157869D01*
X14083277Y-13157869D02*
X14092801Y-13176917D01*
X14092801Y-13176917D02*
X14092801Y-13234059D01*
X14092801Y-13234059D02*
X14083277Y-13253107D01*
X14083277Y-13253107D02*
X14073753Y-13262631D01*
X14073753Y-13262631D02*
X14054706Y-13272155D01*
X14054706Y-13272155D02*
X14026134Y-13272155D01*
X14207087Y-13272155D02*
X14188039Y-13262631D01*
X14188039Y-13262631D02*
X14178515Y-13243583D01*
X14178515Y-13243583D02*
X14178515Y-13072155D01*
X14359468Y-13262631D02*
X14340420Y-13272155D01*
X14340420Y-13272155D02*
X14302325Y-13272155D01*
X14302325Y-13272155D02*
X14283277Y-13262631D01*
X14283277Y-13262631D02*
X14273753Y-13243583D01*
X14273753Y-13243583D02*
X14273753Y-13167393D01*
X14273753Y-13167393D02*
X14283277Y-13148345D01*
X14283277Y-13148345D02*
X14302325Y-13138821D01*
X14302325Y-13138821D02*
X14340420Y-13138821D01*
X14340420Y-13138821D02*
X14359468Y-13148345D01*
X14359468Y-13148345D02*
X14368991Y-13167393D01*
X14368991Y-13167393D02*
X14368991Y-13186440D01*
X14368991Y-13186440D02*
X14273753Y-13205488D01*
X14445182Y-13262631D02*
X14464230Y-13272155D01*
X14464230Y-13272155D02*
X14502325Y-13272155D01*
X14502325Y-13272155D02*
X14521372Y-13262631D01*
X14521372Y-13262631D02*
X14530896Y-13243583D01*
X14530896Y-13243583D02*
X14530896Y-13234059D01*
X14530896Y-13234059D02*
X14521372Y-13215012D01*
X14521372Y-13215012D02*
X14502325Y-13205488D01*
X14502325Y-13205488D02*
X14473753Y-13205488D01*
X14473753Y-13205488D02*
X14454706Y-13195964D01*
X14454706Y-13195964D02*
X14445182Y-13176917D01*
X14445182Y-13176917D02*
X14445182Y-13167393D01*
X14445182Y-13167393D02*
X14454706Y-13148345D01*
X14454706Y-13148345D02*
X14473753Y-13138821D01*
X14473753Y-13138821D02*
X14502325Y-13138821D01*
X14502325Y-13138821D02*
X14521372Y-13148345D01*
X14597563Y-13348345D02*
X14607087Y-13338821D01*
X14607087Y-13338821D02*
X14626134Y-13310250D01*
X14626134Y-13310250D02*
X14635658Y-13291202D01*
X14635658Y-13291202D02*
X14645182Y-13262631D01*
X14645182Y-13262631D02*
X14654706Y-13215012D01*
X14654706Y-13215012D02*
X14654706Y-13176917D01*
X14654706Y-13176917D02*
X14645182Y-13129297D01*
X14645182Y-13129297D02*
X14635658Y-13100726D01*
X14635658Y-13100726D02*
X14626134Y-13081678D01*
X14626134Y-13081678D02*
X14607087Y-13053107D01*
X14607087Y-13053107D02*
X14597563Y-13043583D01*
D11*
X9802500Y-13424671D02*
X9802500Y-13464671D01*
X9782500Y-13444671D02*
X9822500Y-13444671D01*
D12*
X10121372Y-13336155D02*
X10140420Y-13336155D01*
X10140420Y-13336155D02*
X10159467Y-13345678D01*
X10159467Y-13345678D02*
X10168991Y-13355202D01*
X10168991Y-13355202D02*
X10178515Y-13374250D01*
X10178515Y-13374250D02*
X10188039Y-13412345D01*
X10188039Y-13412345D02*
X10188039Y-13459964D01*
X10188039Y-13459964D02*
X10178515Y-13498059D01*
X10178515Y-13498059D02*
X10168991Y-13517107D01*
X10168991Y-13517107D02*
X10159467Y-13526631D01*
X10159467Y-13526631D02*
X10140420Y-13536155D01*
X10140420Y-13536155D02*
X10121372Y-13536155D01*
X10121372Y-13536155D02*
X10102324Y-13526631D01*
X10102324Y-13526631D02*
X10092801Y-13517107D01*
X10092801Y-13517107D02*
X10083277Y-13498059D01*
X10083277Y-13498059D02*
X10073753Y-13459964D01*
X10073753Y-13459964D02*
X10073753Y-13412345D01*
X10073753Y-13412345D02*
X10083277Y-13374250D01*
X10083277Y-13374250D02*
X10092801Y-13355202D01*
X10092801Y-13355202D02*
X10102324Y-13345678D01*
X10102324Y-13345678D02*
X10121372Y-13336155D01*
X10273753Y-13517107D02*
X10283277Y-13526631D01*
X10283277Y-13526631D02*
X10273753Y-13536155D01*
X10273753Y-13536155D02*
X10264229Y-13526631D01*
X10264229Y-13526631D02*
X10273753Y-13517107D01*
X10273753Y-13517107D02*
X10273753Y-13536155D01*
X10454705Y-13402821D02*
X10454705Y-13536155D01*
X10407086Y-13326631D02*
X10359467Y-13469488D01*
X10359467Y-13469488D02*
X10483277Y-13469488D01*
X10597563Y-13336155D02*
X10616610Y-13336155D01*
X10616610Y-13336155D02*
X10635658Y-13345678D01*
X10635658Y-13345678D02*
X10645182Y-13355202D01*
X10645182Y-13355202D02*
X10654705Y-13374250D01*
X10654705Y-13374250D02*
X10664229Y-13412345D01*
X10664229Y-13412345D02*
X10664229Y-13459964D01*
X10664229Y-13459964D02*
X10654705Y-13498059D01*
X10654705Y-13498059D02*
X10645182Y-13517107D01*
X10645182Y-13517107D02*
X10635658Y-13526631D01*
X10635658Y-13526631D02*
X10616610Y-13536155D01*
X10616610Y-13536155D02*
X10597563Y-13536155D01*
X10597563Y-13536155D02*
X10578515Y-13526631D01*
X10578515Y-13526631D02*
X10568991Y-13517107D01*
X10568991Y-13517107D02*
X10559467Y-13498059D01*
X10559467Y-13498059D02*
X10549944Y-13459964D01*
X10549944Y-13459964D02*
X10549944Y-13412345D01*
X10549944Y-13412345D02*
X10559467Y-13374250D01*
X10559467Y-13374250D02*
X10568991Y-13355202D01*
X10568991Y-13355202D02*
X10578515Y-13345678D01*
X10578515Y-13345678D02*
X10597563Y-13336155D01*
X10788039Y-13336155D02*
X10807086Y-13336155D01*
X10807086Y-13336155D02*
X10826134Y-13345678D01*
X10826134Y-13345678D02*
X10835658Y-13355202D01*
X10835658Y-13355202D02*
X10845182Y-13374250D01*
X10845182Y-13374250D02*
X10854705Y-13412345D01*
X10854705Y-13412345D02*
X10854705Y-13459964D01*
X10854705Y-13459964D02*
X10845182Y-13498059D01*
X10845182Y-13498059D02*
X10835658Y-13517107D01*
X10835658Y-13517107D02*
X10826134Y-13526631D01*
X10826134Y-13526631D02*
X10807086Y-13536155D01*
X10807086Y-13536155D02*
X10788039Y-13536155D01*
X10788039Y-13536155D02*
X10768991Y-13526631D01*
X10768991Y-13526631D02*
X10759467Y-13517107D01*
X10759467Y-13517107D02*
X10749944Y-13498059D01*
X10749944Y-13498059D02*
X10740420Y-13459964D01*
X10740420Y-13459964D02*
X10740420Y-13412345D01*
X10740420Y-13412345D02*
X10749944Y-13374250D01*
X10749944Y-13374250D02*
X10759467Y-13355202D01*
X10759467Y-13355202D02*
X10768991Y-13345678D01*
X10768991Y-13345678D02*
X10788039Y-13336155D01*
X10940420Y-13536155D02*
X10940420Y-13402821D01*
X10940420Y-13421869D02*
X10949944Y-13412345D01*
X10949944Y-13412345D02*
X10968991Y-13402821D01*
X10968991Y-13402821D02*
X10997563Y-13402821D01*
X10997563Y-13402821D02*
X11016610Y-13412345D01*
X11016610Y-13412345D02*
X11026134Y-13431393D01*
X11026134Y-13431393D02*
X11026134Y-13536155D01*
X11026134Y-13431393D02*
X11035658Y-13412345D01*
X11035658Y-13412345D02*
X11054705Y-13402821D01*
X11054705Y-13402821D02*
X11083277Y-13402821D01*
X11083277Y-13402821D02*
X11102325Y-13412345D01*
X11102325Y-13412345D02*
X11111848Y-13431393D01*
X11111848Y-13431393D02*
X11111848Y-13536155D01*
X11207086Y-13536155D02*
X11207086Y-13402821D01*
X11207086Y-13421869D02*
X11216610Y-13412345D01*
X11216610Y-13412345D02*
X11235658Y-13402821D01*
X11235658Y-13402821D02*
X11264229Y-13402821D01*
X11264229Y-13402821D02*
X11283277Y-13412345D01*
X11283277Y-13412345D02*
X11292801Y-13431393D01*
X11292801Y-13431393D02*
X11292801Y-13536155D01*
X11292801Y-13431393D02*
X11302324Y-13412345D01*
X11302324Y-13412345D02*
X11321372Y-13402821D01*
X11321372Y-13402821D02*
X11349943Y-13402821D01*
X11349943Y-13402821D02*
X11368991Y-13412345D01*
X11368991Y-13412345D02*
X11378515Y-13431393D01*
X11378515Y-13431393D02*
X11378515Y-13536155D01*
X11768991Y-13326631D02*
X11597563Y-13583774D01*
X12026134Y-13336155D02*
X12045182Y-13336155D01*
X12045182Y-13336155D02*
X12064229Y-13345678D01*
X12064229Y-13345678D02*
X12073753Y-13355202D01*
X12073753Y-13355202D02*
X12083277Y-13374250D01*
X12083277Y-13374250D02*
X12092801Y-13412345D01*
X12092801Y-13412345D02*
X12092801Y-13459964D01*
X12092801Y-13459964D02*
X12083277Y-13498059D01*
X12083277Y-13498059D02*
X12073753Y-13517107D01*
X12073753Y-13517107D02*
X12064229Y-13526631D01*
X12064229Y-13526631D02*
X12045182Y-13536155D01*
X12045182Y-13536155D02*
X12026134Y-13536155D01*
X12026134Y-13536155D02*
X12007086Y-13526631D01*
X12007086Y-13526631D02*
X11997563Y-13517107D01*
X11997563Y-13517107D02*
X11988039Y-13498059D01*
X11988039Y-13498059D02*
X11978515Y-13459964D01*
X11978515Y-13459964D02*
X11978515Y-13412345D01*
X11978515Y-13412345D02*
X11988039Y-13374250D01*
X11988039Y-13374250D02*
X11997563Y-13355202D01*
X11997563Y-13355202D02*
X12007086Y-13345678D01*
X12007086Y-13345678D02*
X12026134Y-13336155D01*
X12178515Y-13517107D02*
X12188039Y-13526631D01*
X12188039Y-13526631D02*
X12178515Y-13536155D01*
X12178515Y-13536155D02*
X12168991Y-13526631D01*
X12168991Y-13526631D02*
X12178515Y-13517107D01*
X12178515Y-13517107D02*
X12178515Y-13536155D01*
X12311848Y-13336155D02*
X12330896Y-13336155D01*
X12330896Y-13336155D02*
X12349944Y-13345678D01*
X12349944Y-13345678D02*
X12359467Y-13355202D01*
X12359467Y-13355202D02*
X12368991Y-13374250D01*
X12368991Y-13374250D02*
X12378515Y-13412345D01*
X12378515Y-13412345D02*
X12378515Y-13459964D01*
X12378515Y-13459964D02*
X12368991Y-13498059D01*
X12368991Y-13498059D02*
X12359467Y-13517107D01*
X12359467Y-13517107D02*
X12349944Y-13526631D01*
X12349944Y-13526631D02*
X12330896Y-13536155D01*
X12330896Y-13536155D02*
X12311848Y-13536155D01*
X12311848Y-13536155D02*
X12292801Y-13526631D01*
X12292801Y-13526631D02*
X12283277Y-13517107D01*
X12283277Y-13517107D02*
X12273753Y-13498059D01*
X12273753Y-13498059D02*
X12264229Y-13459964D01*
X12264229Y-13459964D02*
X12264229Y-13412345D01*
X12264229Y-13412345D02*
X12273753Y-13374250D01*
X12273753Y-13374250D02*
X12283277Y-13355202D01*
X12283277Y-13355202D02*
X12292801Y-13345678D01*
X12292801Y-13345678D02*
X12311848Y-13336155D01*
X12568991Y-13536155D02*
X12454706Y-13536155D01*
X12511848Y-13536155D02*
X12511848Y-13336155D01*
X12511848Y-13336155D02*
X12492801Y-13364726D01*
X12492801Y-13364726D02*
X12473753Y-13383774D01*
X12473753Y-13383774D02*
X12454706Y-13393297D01*
X12749944Y-13336155D02*
X12654706Y-13336155D01*
X12654706Y-13336155D02*
X12645182Y-13431393D01*
X12645182Y-13431393D02*
X12654706Y-13421869D01*
X12654706Y-13421869D02*
X12673753Y-13412345D01*
X12673753Y-13412345D02*
X12721372Y-13412345D01*
X12721372Y-13412345D02*
X12740420Y-13421869D01*
X12740420Y-13421869D02*
X12749944Y-13431393D01*
X12749944Y-13431393D02*
X12759467Y-13450440D01*
X12759467Y-13450440D02*
X12759467Y-13498059D01*
X12759467Y-13498059D02*
X12749944Y-13517107D01*
X12749944Y-13517107D02*
X12740420Y-13526631D01*
X12740420Y-13526631D02*
X12721372Y-13536155D01*
X12721372Y-13536155D02*
X12673753Y-13536155D01*
X12673753Y-13536155D02*
X12654706Y-13526631D01*
X12654706Y-13526631D02*
X12645182Y-13517107D01*
X12826134Y-13336155D02*
X12959467Y-13336155D01*
X12959467Y-13336155D02*
X12873753Y-13536155D01*
X13026134Y-13336155D02*
X13026134Y-13374250D01*
X13102325Y-13336155D02*
X13102325Y-13374250D01*
X13397563Y-13612345D02*
X13388039Y-13602821D01*
X13388039Y-13602821D02*
X13368991Y-13574250D01*
X13368991Y-13574250D02*
X13359468Y-13555202D01*
X13359468Y-13555202D02*
X13349944Y-13526631D01*
X13349944Y-13526631D02*
X13340420Y-13479012D01*
X13340420Y-13479012D02*
X13340420Y-13440917D01*
X13340420Y-13440917D02*
X13349944Y-13393297D01*
X13349944Y-13393297D02*
X13359468Y-13364726D01*
X13359468Y-13364726D02*
X13368991Y-13345678D01*
X13368991Y-13345678D02*
X13388039Y-13317107D01*
X13388039Y-13317107D02*
X13397563Y-13307583D01*
X13578515Y-13536155D02*
X13464229Y-13536155D01*
X13521372Y-13536155D02*
X13521372Y-13336155D01*
X13521372Y-13336155D02*
X13502325Y-13364726D01*
X13502325Y-13364726D02*
X13483277Y-13383774D01*
X13483277Y-13383774D02*
X13464229Y-13393297D01*
X13749944Y-13336155D02*
X13711848Y-13336155D01*
X13711848Y-13336155D02*
X13692801Y-13345678D01*
X13692801Y-13345678D02*
X13683277Y-13355202D01*
X13683277Y-13355202D02*
X13664229Y-13383774D01*
X13664229Y-13383774D02*
X13654706Y-13421869D01*
X13654706Y-13421869D02*
X13654706Y-13498059D01*
X13654706Y-13498059D02*
X13664229Y-13517107D01*
X13664229Y-13517107D02*
X13673753Y-13526631D01*
X13673753Y-13526631D02*
X13692801Y-13536155D01*
X13692801Y-13536155D02*
X13730896Y-13536155D01*
X13730896Y-13536155D02*
X13749944Y-13526631D01*
X13749944Y-13526631D02*
X13759468Y-13517107D01*
X13759468Y-13517107D02*
X13768991Y-13498059D01*
X13768991Y-13498059D02*
X13768991Y-13450440D01*
X13768991Y-13450440D02*
X13759468Y-13431393D01*
X13759468Y-13431393D02*
X13749944Y-13421869D01*
X13749944Y-13421869D02*
X13730896Y-13412345D01*
X13730896Y-13412345D02*
X13692801Y-13412345D01*
X13692801Y-13412345D02*
X13673753Y-13421869D01*
X13673753Y-13421869D02*
X13664229Y-13431393D01*
X13664229Y-13431393D02*
X13654706Y-13450440D01*
X14007087Y-13536155D02*
X14007087Y-13336155D01*
X14092801Y-13536155D02*
X14092801Y-13431393D01*
X14092801Y-13431393D02*
X14083277Y-13412345D01*
X14083277Y-13412345D02*
X14064230Y-13402821D01*
X14064230Y-13402821D02*
X14035658Y-13402821D01*
X14035658Y-13402821D02*
X14016610Y-13412345D01*
X14016610Y-13412345D02*
X14007087Y-13421869D01*
X14216610Y-13536155D02*
X14197563Y-13526631D01*
X14197563Y-13526631D02*
X14188039Y-13517107D01*
X14188039Y-13517107D02*
X14178515Y-13498059D01*
X14178515Y-13498059D02*
X14178515Y-13440917D01*
X14178515Y-13440917D02*
X14188039Y-13421869D01*
X14188039Y-13421869D02*
X14197563Y-13412345D01*
X14197563Y-13412345D02*
X14216610Y-13402821D01*
X14216610Y-13402821D02*
X14245182Y-13402821D01*
X14245182Y-13402821D02*
X14264230Y-13412345D01*
X14264230Y-13412345D02*
X14273753Y-13421869D01*
X14273753Y-13421869D02*
X14283277Y-13440917D01*
X14283277Y-13440917D02*
X14283277Y-13498059D01*
X14283277Y-13498059D02*
X14273753Y-13517107D01*
X14273753Y-13517107D02*
X14264230Y-13526631D01*
X14264230Y-13526631D02*
X14245182Y-13536155D01*
X14245182Y-13536155D02*
X14216610Y-13536155D01*
X14397563Y-13536155D02*
X14378515Y-13526631D01*
X14378515Y-13526631D02*
X14368991Y-13507583D01*
X14368991Y-13507583D02*
X14368991Y-13336155D01*
X14549944Y-13526631D02*
X14530896Y-13536155D01*
X14530896Y-13536155D02*
X14492801Y-13536155D01*
X14492801Y-13536155D02*
X14473753Y-13526631D01*
X14473753Y-13526631D02*
X14464230Y-13507583D01*
X14464230Y-13507583D02*
X14464230Y-13431393D01*
X14464230Y-13431393D02*
X14473753Y-13412345D01*
X14473753Y-13412345D02*
X14492801Y-13402821D01*
X14492801Y-13402821D02*
X14530896Y-13402821D01*
X14530896Y-13402821D02*
X14549944Y-13412345D01*
X14549944Y-13412345D02*
X14559468Y-13431393D01*
X14559468Y-13431393D02*
X14559468Y-13450440D01*
X14559468Y-13450440D02*
X14464230Y-13469488D01*
X14635658Y-13526631D02*
X14654706Y-13536155D01*
X14654706Y-13536155D02*
X14692801Y-13536155D01*
X14692801Y-13536155D02*
X14711849Y-13526631D01*
X14711849Y-13526631D02*
X14721372Y-13507583D01*
X14721372Y-13507583D02*
X14721372Y-13498059D01*
X14721372Y-13498059D02*
X14711849Y-13479012D01*
X14711849Y-13479012D02*
X14692801Y-13469488D01*
X14692801Y-13469488D02*
X14664230Y-13469488D01*
X14664230Y-13469488D02*
X14645182Y-13459964D01*
X14645182Y-13459964D02*
X14635658Y-13440917D01*
X14635658Y-13440917D02*
X14635658Y-13431393D01*
X14635658Y-13431393D02*
X14645182Y-13412345D01*
X14645182Y-13412345D02*
X14664230Y-13402821D01*
X14664230Y-13402821D02*
X14692801Y-13402821D01*
X14692801Y-13402821D02*
X14711849Y-13412345D01*
X14788039Y-13612345D02*
X14797563Y-13602821D01*
X14797563Y-13602821D02*
X14816611Y-13574250D01*
X14816611Y-13574250D02*
X14826134Y-13555202D01*
X14826134Y-13555202D02*
X14835658Y-13526631D01*
X14835658Y-13526631D02*
X14845182Y-13479012D01*
X14845182Y-13479012D02*
X14845182Y-13440917D01*
X14845182Y-13440917D02*
X14835658Y-13393297D01*
X14835658Y-13393297D02*
X14826134Y-13364726D01*
X14826134Y-13364726D02*
X14816611Y-13345678D01*
X14816611Y-13345678D02*
X14797563Y-13317107D01*
X14797563Y-13317107D02*
X14788039Y-13307583D01*
D11*
X9809320Y-13740491D02*
X9809320Y-13676851D01*
X9745680Y-13676851D01*
X9745680Y-13740491D01*
X9809320Y-13740491D01*
D12*
X10121372Y-13600155D02*
X10140420Y-13600155D01*
X10140420Y-13600155D02*
X10159467Y-13609678D01*
X10159467Y-13609678D02*
X10168991Y-13619202D01*
X10168991Y-13619202D02*
X10178515Y-13638250D01*
X10178515Y-13638250D02*
X10188039Y-13676345D01*
X10188039Y-13676345D02*
X10188039Y-13723964D01*
X10188039Y-13723964D02*
X10178515Y-13762059D01*
X10178515Y-13762059D02*
X10168991Y-13781107D01*
X10168991Y-13781107D02*
X10159467Y-13790631D01*
X10159467Y-13790631D02*
X10140420Y-13800155D01*
X10140420Y-13800155D02*
X10121372Y-13800155D01*
X10121372Y-13800155D02*
X10102324Y-13790631D01*
X10102324Y-13790631D02*
X10092801Y-13781107D01*
X10092801Y-13781107D02*
X10083277Y-13762059D01*
X10083277Y-13762059D02*
X10073753Y-13723964D01*
X10073753Y-13723964D02*
X10073753Y-13676345D01*
X10073753Y-13676345D02*
X10083277Y-13638250D01*
X10083277Y-13638250D02*
X10092801Y-13619202D01*
X10092801Y-13619202D02*
X10102324Y-13609678D01*
X10102324Y-13609678D02*
X10121372Y-13600155D01*
X10273753Y-13781107D02*
X10283277Y-13790631D01*
X10283277Y-13790631D02*
X10273753Y-13800155D01*
X10273753Y-13800155D02*
X10264229Y-13790631D01*
X10264229Y-13790631D02*
X10273753Y-13781107D01*
X10273753Y-13781107D02*
X10273753Y-13800155D01*
X10378515Y-13800155D02*
X10416610Y-13800155D01*
X10416610Y-13800155D02*
X10435658Y-13790631D01*
X10435658Y-13790631D02*
X10445182Y-13781107D01*
X10445182Y-13781107D02*
X10464229Y-13752536D01*
X10464229Y-13752536D02*
X10473753Y-13714440D01*
X10473753Y-13714440D02*
X10473753Y-13638250D01*
X10473753Y-13638250D02*
X10464229Y-13619202D01*
X10464229Y-13619202D02*
X10454705Y-13609678D01*
X10454705Y-13609678D02*
X10435658Y-13600155D01*
X10435658Y-13600155D02*
X10397563Y-13600155D01*
X10397563Y-13600155D02*
X10378515Y-13609678D01*
X10378515Y-13609678D02*
X10368991Y-13619202D01*
X10368991Y-13619202D02*
X10359467Y-13638250D01*
X10359467Y-13638250D02*
X10359467Y-13685869D01*
X10359467Y-13685869D02*
X10368991Y-13704917D01*
X10368991Y-13704917D02*
X10378515Y-13714440D01*
X10378515Y-13714440D02*
X10397563Y-13723964D01*
X10397563Y-13723964D02*
X10435658Y-13723964D01*
X10435658Y-13723964D02*
X10454705Y-13714440D01*
X10454705Y-13714440D02*
X10464229Y-13704917D01*
X10464229Y-13704917D02*
X10473753Y-13685869D01*
X10597563Y-13600155D02*
X10616610Y-13600155D01*
X10616610Y-13600155D02*
X10635658Y-13609678D01*
X10635658Y-13609678D02*
X10645182Y-13619202D01*
X10645182Y-13619202D02*
X10654705Y-13638250D01*
X10654705Y-13638250D02*
X10664229Y-13676345D01*
X10664229Y-13676345D02*
X10664229Y-13723964D01*
X10664229Y-13723964D02*
X10654705Y-13762059D01*
X10654705Y-13762059D02*
X10645182Y-13781107D01*
X10645182Y-13781107D02*
X10635658Y-13790631D01*
X10635658Y-13790631D02*
X10616610Y-13800155D01*
X10616610Y-13800155D02*
X10597563Y-13800155D01*
X10597563Y-13800155D02*
X10578515Y-13790631D01*
X10578515Y-13790631D02*
X10568991Y-13781107D01*
X10568991Y-13781107D02*
X10559467Y-13762059D01*
X10559467Y-13762059D02*
X10549944Y-13723964D01*
X10549944Y-13723964D02*
X10549944Y-13676345D01*
X10549944Y-13676345D02*
X10559467Y-13638250D01*
X10559467Y-13638250D02*
X10568991Y-13619202D01*
X10568991Y-13619202D02*
X10578515Y-13609678D01*
X10578515Y-13609678D02*
X10597563Y-13600155D01*
X10788039Y-13600155D02*
X10807086Y-13600155D01*
X10807086Y-13600155D02*
X10826134Y-13609678D01*
X10826134Y-13609678D02*
X10835658Y-13619202D01*
X10835658Y-13619202D02*
X10845182Y-13638250D01*
X10845182Y-13638250D02*
X10854705Y-13676345D01*
X10854705Y-13676345D02*
X10854705Y-13723964D01*
X10854705Y-13723964D02*
X10845182Y-13762059D01*
X10845182Y-13762059D02*
X10835658Y-13781107D01*
X10835658Y-13781107D02*
X10826134Y-13790631D01*
X10826134Y-13790631D02*
X10807086Y-13800155D01*
X10807086Y-13800155D02*
X10788039Y-13800155D01*
X10788039Y-13800155D02*
X10768991Y-13790631D01*
X10768991Y-13790631D02*
X10759467Y-13781107D01*
X10759467Y-13781107D02*
X10749944Y-13762059D01*
X10749944Y-13762059D02*
X10740420Y-13723964D01*
X10740420Y-13723964D02*
X10740420Y-13676345D01*
X10740420Y-13676345D02*
X10749944Y-13638250D01*
X10749944Y-13638250D02*
X10759467Y-13619202D01*
X10759467Y-13619202D02*
X10768991Y-13609678D01*
X10768991Y-13609678D02*
X10788039Y-13600155D01*
X10940420Y-13800155D02*
X10940420Y-13666821D01*
X10940420Y-13685869D02*
X10949944Y-13676345D01*
X10949944Y-13676345D02*
X10968991Y-13666821D01*
X10968991Y-13666821D02*
X10997563Y-13666821D01*
X10997563Y-13666821D02*
X11016610Y-13676345D01*
X11016610Y-13676345D02*
X11026134Y-13695393D01*
X11026134Y-13695393D02*
X11026134Y-13800155D01*
X11026134Y-13695393D02*
X11035658Y-13676345D01*
X11035658Y-13676345D02*
X11054705Y-13666821D01*
X11054705Y-13666821D02*
X11083277Y-13666821D01*
X11083277Y-13666821D02*
X11102325Y-13676345D01*
X11102325Y-13676345D02*
X11111848Y-13695393D01*
X11111848Y-13695393D02*
X11111848Y-13800155D01*
X11207086Y-13800155D02*
X11207086Y-13666821D01*
X11207086Y-13685869D02*
X11216610Y-13676345D01*
X11216610Y-13676345D02*
X11235658Y-13666821D01*
X11235658Y-13666821D02*
X11264229Y-13666821D01*
X11264229Y-13666821D02*
X11283277Y-13676345D01*
X11283277Y-13676345D02*
X11292801Y-13695393D01*
X11292801Y-13695393D02*
X11292801Y-13800155D01*
X11292801Y-13695393D02*
X11302324Y-13676345D01*
X11302324Y-13676345D02*
X11321372Y-13666821D01*
X11321372Y-13666821D02*
X11349943Y-13666821D01*
X11349943Y-13666821D02*
X11368991Y-13676345D01*
X11368991Y-13676345D02*
X11378515Y-13695393D01*
X11378515Y-13695393D02*
X11378515Y-13800155D01*
X11768991Y-13590631D02*
X11597563Y-13847774D01*
X12026134Y-13600155D02*
X12045182Y-13600155D01*
X12045182Y-13600155D02*
X12064229Y-13609678D01*
X12064229Y-13609678D02*
X12073753Y-13619202D01*
X12073753Y-13619202D02*
X12083277Y-13638250D01*
X12083277Y-13638250D02*
X12092801Y-13676345D01*
X12092801Y-13676345D02*
X12092801Y-13723964D01*
X12092801Y-13723964D02*
X12083277Y-13762059D01*
X12083277Y-13762059D02*
X12073753Y-13781107D01*
X12073753Y-13781107D02*
X12064229Y-13790631D01*
X12064229Y-13790631D02*
X12045182Y-13800155D01*
X12045182Y-13800155D02*
X12026134Y-13800155D01*
X12026134Y-13800155D02*
X12007086Y-13790631D01*
X12007086Y-13790631D02*
X11997563Y-13781107D01*
X11997563Y-13781107D02*
X11988039Y-13762059D01*
X11988039Y-13762059D02*
X11978515Y-13723964D01*
X11978515Y-13723964D02*
X11978515Y-13676345D01*
X11978515Y-13676345D02*
X11988039Y-13638250D01*
X11988039Y-13638250D02*
X11997563Y-13619202D01*
X11997563Y-13619202D02*
X12007086Y-13609678D01*
X12007086Y-13609678D02*
X12026134Y-13600155D01*
X12178515Y-13781107D02*
X12188039Y-13790631D01*
X12188039Y-13790631D02*
X12178515Y-13800155D01*
X12178515Y-13800155D02*
X12168991Y-13790631D01*
X12168991Y-13790631D02*
X12178515Y-13781107D01*
X12178515Y-13781107D02*
X12178515Y-13800155D01*
X12311848Y-13600155D02*
X12330896Y-13600155D01*
X12330896Y-13600155D02*
X12349944Y-13609678D01*
X12349944Y-13609678D02*
X12359467Y-13619202D01*
X12359467Y-13619202D02*
X12368991Y-13638250D01*
X12368991Y-13638250D02*
X12378515Y-13676345D01*
X12378515Y-13676345D02*
X12378515Y-13723964D01*
X12378515Y-13723964D02*
X12368991Y-13762059D01*
X12368991Y-13762059D02*
X12359467Y-13781107D01*
X12359467Y-13781107D02*
X12349944Y-13790631D01*
X12349944Y-13790631D02*
X12330896Y-13800155D01*
X12330896Y-13800155D02*
X12311848Y-13800155D01*
X12311848Y-13800155D02*
X12292801Y-13790631D01*
X12292801Y-13790631D02*
X12283277Y-13781107D01*
X12283277Y-13781107D02*
X12273753Y-13762059D01*
X12273753Y-13762059D02*
X12264229Y-13723964D01*
X12264229Y-13723964D02*
X12264229Y-13676345D01*
X12264229Y-13676345D02*
X12273753Y-13638250D01*
X12273753Y-13638250D02*
X12283277Y-13619202D01*
X12283277Y-13619202D02*
X12292801Y-13609678D01*
X12292801Y-13609678D02*
X12311848Y-13600155D01*
X12445182Y-13600155D02*
X12568991Y-13600155D01*
X12568991Y-13600155D02*
X12502325Y-13676345D01*
X12502325Y-13676345D02*
X12530896Y-13676345D01*
X12530896Y-13676345D02*
X12549944Y-13685869D01*
X12549944Y-13685869D02*
X12559467Y-13695393D01*
X12559467Y-13695393D02*
X12568991Y-13714440D01*
X12568991Y-13714440D02*
X12568991Y-13762059D01*
X12568991Y-13762059D02*
X12559467Y-13781107D01*
X12559467Y-13781107D02*
X12549944Y-13790631D01*
X12549944Y-13790631D02*
X12530896Y-13800155D01*
X12530896Y-13800155D02*
X12473753Y-13800155D01*
X12473753Y-13800155D02*
X12454706Y-13790631D01*
X12454706Y-13790631D02*
X12445182Y-13781107D01*
X12749944Y-13600155D02*
X12654706Y-13600155D01*
X12654706Y-13600155D02*
X12645182Y-13695393D01*
X12645182Y-13695393D02*
X12654706Y-13685869D01*
X12654706Y-13685869D02*
X12673753Y-13676345D01*
X12673753Y-13676345D02*
X12721372Y-13676345D01*
X12721372Y-13676345D02*
X12740420Y-13685869D01*
X12740420Y-13685869D02*
X12749944Y-13695393D01*
X12749944Y-13695393D02*
X12759467Y-13714440D01*
X12759467Y-13714440D02*
X12759467Y-13762059D01*
X12759467Y-13762059D02*
X12749944Y-13781107D01*
X12749944Y-13781107D02*
X12740420Y-13790631D01*
X12740420Y-13790631D02*
X12721372Y-13800155D01*
X12721372Y-13800155D02*
X12673753Y-13800155D01*
X12673753Y-13800155D02*
X12654706Y-13790631D01*
X12654706Y-13790631D02*
X12645182Y-13781107D01*
X12930896Y-13666821D02*
X12930896Y-13800155D01*
X12883277Y-13590631D02*
X12835658Y-13733488D01*
X12835658Y-13733488D02*
X12959467Y-13733488D01*
X13026134Y-13600155D02*
X13026134Y-13638250D01*
X13102325Y-13600155D02*
X13102325Y-13638250D01*
X13397563Y-13876345D02*
X13388039Y-13866821D01*
X13388039Y-13866821D02*
X13368991Y-13838250D01*
X13368991Y-13838250D02*
X13359468Y-13819202D01*
X13359468Y-13819202D02*
X13349944Y-13790631D01*
X13349944Y-13790631D02*
X13340420Y-13743012D01*
X13340420Y-13743012D02*
X13340420Y-13704917D01*
X13340420Y-13704917D02*
X13349944Y-13657297D01*
X13349944Y-13657297D02*
X13359468Y-13628726D01*
X13359468Y-13628726D02*
X13368991Y-13609678D01*
X13368991Y-13609678D02*
X13388039Y-13581107D01*
X13388039Y-13581107D02*
X13397563Y-13571583D01*
X13559468Y-13666821D02*
X13559468Y-13800155D01*
X13511848Y-13590631D02*
X13464229Y-13733488D01*
X13464229Y-13733488D02*
X13588039Y-13733488D01*
X13816610Y-13800155D02*
X13816610Y-13600155D01*
X13902325Y-13800155D02*
X13902325Y-13695393D01*
X13902325Y-13695393D02*
X13892801Y-13676345D01*
X13892801Y-13676345D02*
X13873753Y-13666821D01*
X13873753Y-13666821D02*
X13845182Y-13666821D01*
X13845182Y-13666821D02*
X13826134Y-13676345D01*
X13826134Y-13676345D02*
X13816610Y-13685869D01*
X14026134Y-13800155D02*
X14007087Y-13790631D01*
X14007087Y-13790631D02*
X13997563Y-13781107D01*
X13997563Y-13781107D02*
X13988039Y-13762059D01*
X13988039Y-13762059D02*
X13988039Y-13704917D01*
X13988039Y-13704917D02*
X13997563Y-13685869D01*
X13997563Y-13685869D02*
X14007087Y-13676345D01*
X14007087Y-13676345D02*
X14026134Y-13666821D01*
X14026134Y-13666821D02*
X14054706Y-13666821D01*
X14054706Y-13666821D02*
X14073753Y-13676345D01*
X14073753Y-13676345D02*
X14083277Y-13685869D01*
X14083277Y-13685869D02*
X14092801Y-13704917D01*
X14092801Y-13704917D02*
X14092801Y-13762059D01*
X14092801Y-13762059D02*
X14083277Y-13781107D01*
X14083277Y-13781107D02*
X14073753Y-13790631D01*
X14073753Y-13790631D02*
X14054706Y-13800155D01*
X14054706Y-13800155D02*
X14026134Y-13800155D01*
X14207087Y-13800155D02*
X14188039Y-13790631D01*
X14188039Y-13790631D02*
X14178515Y-13771583D01*
X14178515Y-13771583D02*
X14178515Y-13600155D01*
X14359468Y-13790631D02*
X14340420Y-13800155D01*
X14340420Y-13800155D02*
X14302325Y-13800155D01*
X14302325Y-13800155D02*
X14283277Y-13790631D01*
X14283277Y-13790631D02*
X14273753Y-13771583D01*
X14273753Y-13771583D02*
X14273753Y-13695393D01*
X14273753Y-13695393D02*
X14283277Y-13676345D01*
X14283277Y-13676345D02*
X14302325Y-13666821D01*
X14302325Y-13666821D02*
X14340420Y-13666821D01*
X14340420Y-13666821D02*
X14359468Y-13676345D01*
X14359468Y-13676345D02*
X14368991Y-13695393D01*
X14368991Y-13695393D02*
X14368991Y-13714440D01*
X14368991Y-13714440D02*
X14273753Y-13733488D01*
X14445182Y-13790631D02*
X14464230Y-13800155D01*
X14464230Y-13800155D02*
X14502325Y-13800155D01*
X14502325Y-13800155D02*
X14521372Y-13790631D01*
X14521372Y-13790631D02*
X14530896Y-13771583D01*
X14530896Y-13771583D02*
X14530896Y-13762059D01*
X14530896Y-13762059D02*
X14521372Y-13743012D01*
X14521372Y-13743012D02*
X14502325Y-13733488D01*
X14502325Y-13733488D02*
X14473753Y-13733488D01*
X14473753Y-13733488D02*
X14454706Y-13723964D01*
X14454706Y-13723964D02*
X14445182Y-13704917D01*
X14445182Y-13704917D02*
X14445182Y-13695393D01*
X14445182Y-13695393D02*
X14454706Y-13676345D01*
X14454706Y-13676345D02*
X14473753Y-13666821D01*
X14473753Y-13666821D02*
X14502325Y-13666821D01*
X14502325Y-13666821D02*
X14521372Y-13676345D01*
X14597563Y-13876345D02*
X14607087Y-13866821D01*
X14607087Y-13866821D02*
X14626134Y-13838250D01*
X14626134Y-13838250D02*
X14635658Y-13819202D01*
X14635658Y-13819202D02*
X14645182Y-13790631D01*
X14645182Y-13790631D02*
X14654706Y-13743012D01*
X14654706Y-13743012D02*
X14654706Y-13704917D01*
X14654706Y-13704917D02*
X14645182Y-13657297D01*
X14645182Y-13657297D02*
X14635658Y-13628726D01*
X14635658Y-13628726D02*
X14626134Y-13609678D01*
X14626134Y-13609678D02*
X14607087Y-13581107D01*
X14607087Y-13581107D02*
X14597563Y-13571583D01*
X9722500Y-14072671D02*
X9822500Y-13972671D01*
X9722500Y-13872671D01*
X9622500Y-13972671D01*
X9722500Y-14072671D01*
X10073753Y-13883202D02*
X10083277Y-13873678D01*
X10083277Y-13873678D02*
X10102324Y-13864155D01*
X10102324Y-13864155D02*
X10149944Y-13864155D01*
X10149944Y-13864155D02*
X10168991Y-13873678D01*
X10168991Y-13873678D02*
X10178515Y-13883202D01*
X10178515Y-13883202D02*
X10188039Y-13902250D01*
X10188039Y-13902250D02*
X10188039Y-13921297D01*
X10188039Y-13921297D02*
X10178515Y-13949869D01*
X10178515Y-13949869D02*
X10064229Y-14064155D01*
X10064229Y-14064155D02*
X10188039Y-14064155D01*
X10273753Y-14045107D02*
X10283277Y-14054631D01*
X10283277Y-14054631D02*
X10273753Y-14064155D01*
X10273753Y-14064155D02*
X10264229Y-14054631D01*
X10264229Y-14054631D02*
X10273753Y-14045107D01*
X10273753Y-14045107D02*
X10273753Y-14064155D01*
X10359467Y-13883202D02*
X10368991Y-13873678D01*
X10368991Y-13873678D02*
X10388039Y-13864155D01*
X10388039Y-13864155D02*
X10435658Y-13864155D01*
X10435658Y-13864155D02*
X10454705Y-13873678D01*
X10454705Y-13873678D02*
X10464229Y-13883202D01*
X10464229Y-13883202D02*
X10473753Y-13902250D01*
X10473753Y-13902250D02*
X10473753Y-13921297D01*
X10473753Y-13921297D02*
X10464229Y-13949869D01*
X10464229Y-13949869D02*
X10349944Y-14064155D01*
X10349944Y-14064155D02*
X10473753Y-14064155D01*
X10597563Y-13864155D02*
X10616610Y-13864155D01*
X10616610Y-13864155D02*
X10635658Y-13873678D01*
X10635658Y-13873678D02*
X10645182Y-13883202D01*
X10645182Y-13883202D02*
X10654705Y-13902250D01*
X10654705Y-13902250D02*
X10664229Y-13940345D01*
X10664229Y-13940345D02*
X10664229Y-13987964D01*
X10664229Y-13987964D02*
X10654705Y-14026059D01*
X10654705Y-14026059D02*
X10645182Y-14045107D01*
X10645182Y-14045107D02*
X10635658Y-14054631D01*
X10635658Y-14054631D02*
X10616610Y-14064155D01*
X10616610Y-14064155D02*
X10597563Y-14064155D01*
X10597563Y-14064155D02*
X10578515Y-14054631D01*
X10578515Y-14054631D02*
X10568991Y-14045107D01*
X10568991Y-14045107D02*
X10559467Y-14026059D01*
X10559467Y-14026059D02*
X10549944Y-13987964D01*
X10549944Y-13987964D02*
X10549944Y-13940345D01*
X10549944Y-13940345D02*
X10559467Y-13902250D01*
X10559467Y-13902250D02*
X10568991Y-13883202D01*
X10568991Y-13883202D02*
X10578515Y-13873678D01*
X10578515Y-13873678D02*
X10597563Y-13864155D01*
X10788039Y-13864155D02*
X10807086Y-13864155D01*
X10807086Y-13864155D02*
X10826134Y-13873678D01*
X10826134Y-13873678D02*
X10835658Y-13883202D01*
X10835658Y-13883202D02*
X10845182Y-13902250D01*
X10845182Y-13902250D02*
X10854705Y-13940345D01*
X10854705Y-13940345D02*
X10854705Y-13987964D01*
X10854705Y-13987964D02*
X10845182Y-14026059D01*
X10845182Y-14026059D02*
X10835658Y-14045107D01*
X10835658Y-14045107D02*
X10826134Y-14054631D01*
X10826134Y-14054631D02*
X10807086Y-14064155D01*
X10807086Y-14064155D02*
X10788039Y-14064155D01*
X10788039Y-14064155D02*
X10768991Y-14054631D01*
X10768991Y-14054631D02*
X10759467Y-14045107D01*
X10759467Y-14045107D02*
X10749944Y-14026059D01*
X10749944Y-14026059D02*
X10740420Y-13987964D01*
X10740420Y-13987964D02*
X10740420Y-13940345D01*
X10740420Y-13940345D02*
X10749944Y-13902250D01*
X10749944Y-13902250D02*
X10759467Y-13883202D01*
X10759467Y-13883202D02*
X10768991Y-13873678D01*
X10768991Y-13873678D02*
X10788039Y-13864155D01*
X10940420Y-14064155D02*
X10940420Y-13930821D01*
X10940420Y-13949869D02*
X10949944Y-13940345D01*
X10949944Y-13940345D02*
X10968991Y-13930821D01*
X10968991Y-13930821D02*
X10997563Y-13930821D01*
X10997563Y-13930821D02*
X11016610Y-13940345D01*
X11016610Y-13940345D02*
X11026134Y-13959393D01*
X11026134Y-13959393D02*
X11026134Y-14064155D01*
X11026134Y-13959393D02*
X11035658Y-13940345D01*
X11035658Y-13940345D02*
X11054705Y-13930821D01*
X11054705Y-13930821D02*
X11083277Y-13930821D01*
X11083277Y-13930821D02*
X11102325Y-13940345D01*
X11102325Y-13940345D02*
X11111848Y-13959393D01*
X11111848Y-13959393D02*
X11111848Y-14064155D01*
X11207086Y-14064155D02*
X11207086Y-13930821D01*
X11207086Y-13949869D02*
X11216610Y-13940345D01*
X11216610Y-13940345D02*
X11235658Y-13930821D01*
X11235658Y-13930821D02*
X11264229Y-13930821D01*
X11264229Y-13930821D02*
X11283277Y-13940345D01*
X11283277Y-13940345D02*
X11292801Y-13959393D01*
X11292801Y-13959393D02*
X11292801Y-14064155D01*
X11292801Y-13959393D02*
X11302324Y-13940345D01*
X11302324Y-13940345D02*
X11321372Y-13930821D01*
X11321372Y-13930821D02*
X11349943Y-13930821D01*
X11349943Y-13930821D02*
X11368991Y-13940345D01*
X11368991Y-13940345D02*
X11378515Y-13959393D01*
X11378515Y-13959393D02*
X11378515Y-14064155D01*
X11768991Y-13854631D02*
X11597563Y-14111774D01*
X12026134Y-13864155D02*
X12045182Y-13864155D01*
X12045182Y-13864155D02*
X12064229Y-13873678D01*
X12064229Y-13873678D02*
X12073753Y-13883202D01*
X12073753Y-13883202D02*
X12083277Y-13902250D01*
X12083277Y-13902250D02*
X12092801Y-13940345D01*
X12092801Y-13940345D02*
X12092801Y-13987964D01*
X12092801Y-13987964D02*
X12083277Y-14026059D01*
X12083277Y-14026059D02*
X12073753Y-14045107D01*
X12073753Y-14045107D02*
X12064229Y-14054631D01*
X12064229Y-14054631D02*
X12045182Y-14064155D01*
X12045182Y-14064155D02*
X12026134Y-14064155D01*
X12026134Y-14064155D02*
X12007086Y-14054631D01*
X12007086Y-14054631D02*
X11997563Y-14045107D01*
X11997563Y-14045107D02*
X11988039Y-14026059D01*
X11988039Y-14026059D02*
X11978515Y-13987964D01*
X11978515Y-13987964D02*
X11978515Y-13940345D01*
X11978515Y-13940345D02*
X11988039Y-13902250D01*
X11988039Y-13902250D02*
X11997563Y-13883202D01*
X11997563Y-13883202D02*
X12007086Y-13873678D01*
X12007086Y-13873678D02*
X12026134Y-13864155D01*
X12178515Y-14045107D02*
X12188039Y-14054631D01*
X12188039Y-14054631D02*
X12178515Y-14064155D01*
X12178515Y-14064155D02*
X12168991Y-14054631D01*
X12168991Y-14054631D02*
X12178515Y-14045107D01*
X12178515Y-14045107D02*
X12178515Y-14064155D01*
X12311848Y-13864155D02*
X12330896Y-13864155D01*
X12330896Y-13864155D02*
X12349944Y-13873678D01*
X12349944Y-13873678D02*
X12359467Y-13883202D01*
X12359467Y-13883202D02*
X12368991Y-13902250D01*
X12368991Y-13902250D02*
X12378515Y-13940345D01*
X12378515Y-13940345D02*
X12378515Y-13987964D01*
X12378515Y-13987964D02*
X12368991Y-14026059D01*
X12368991Y-14026059D02*
X12359467Y-14045107D01*
X12359467Y-14045107D02*
X12349944Y-14054631D01*
X12349944Y-14054631D02*
X12330896Y-14064155D01*
X12330896Y-14064155D02*
X12311848Y-14064155D01*
X12311848Y-14064155D02*
X12292801Y-14054631D01*
X12292801Y-14054631D02*
X12283277Y-14045107D01*
X12283277Y-14045107D02*
X12273753Y-14026059D01*
X12273753Y-14026059D02*
X12264229Y-13987964D01*
X12264229Y-13987964D02*
X12264229Y-13940345D01*
X12264229Y-13940345D02*
X12273753Y-13902250D01*
X12273753Y-13902250D02*
X12283277Y-13883202D01*
X12283277Y-13883202D02*
X12292801Y-13873678D01*
X12292801Y-13873678D02*
X12311848Y-13864155D01*
X12492801Y-13949869D02*
X12473753Y-13940345D01*
X12473753Y-13940345D02*
X12464229Y-13930821D01*
X12464229Y-13930821D02*
X12454706Y-13911774D01*
X12454706Y-13911774D02*
X12454706Y-13902250D01*
X12454706Y-13902250D02*
X12464229Y-13883202D01*
X12464229Y-13883202D02*
X12473753Y-13873678D01*
X12473753Y-13873678D02*
X12492801Y-13864155D01*
X12492801Y-13864155D02*
X12530896Y-13864155D01*
X12530896Y-13864155D02*
X12549944Y-13873678D01*
X12549944Y-13873678D02*
X12559467Y-13883202D01*
X12559467Y-13883202D02*
X12568991Y-13902250D01*
X12568991Y-13902250D02*
X12568991Y-13911774D01*
X12568991Y-13911774D02*
X12559467Y-13930821D01*
X12559467Y-13930821D02*
X12549944Y-13940345D01*
X12549944Y-13940345D02*
X12530896Y-13949869D01*
X12530896Y-13949869D02*
X12492801Y-13949869D01*
X12492801Y-13949869D02*
X12473753Y-13959393D01*
X12473753Y-13959393D02*
X12464229Y-13968917D01*
X12464229Y-13968917D02*
X12454706Y-13987964D01*
X12454706Y-13987964D02*
X12454706Y-14026059D01*
X12454706Y-14026059D02*
X12464229Y-14045107D01*
X12464229Y-14045107D02*
X12473753Y-14054631D01*
X12473753Y-14054631D02*
X12492801Y-14064155D01*
X12492801Y-14064155D02*
X12530896Y-14064155D01*
X12530896Y-14064155D02*
X12549944Y-14054631D01*
X12549944Y-14054631D02*
X12559467Y-14045107D01*
X12559467Y-14045107D02*
X12568991Y-14026059D01*
X12568991Y-14026059D02*
X12568991Y-13987964D01*
X12568991Y-13987964D02*
X12559467Y-13968917D01*
X12559467Y-13968917D02*
X12549944Y-13959393D01*
X12549944Y-13959393D02*
X12530896Y-13949869D01*
X12740420Y-13864155D02*
X12702325Y-13864155D01*
X12702325Y-13864155D02*
X12683277Y-13873678D01*
X12683277Y-13873678D02*
X12673753Y-13883202D01*
X12673753Y-13883202D02*
X12654706Y-13911774D01*
X12654706Y-13911774D02*
X12645182Y-13949869D01*
X12645182Y-13949869D02*
X12645182Y-14026059D01*
X12645182Y-14026059D02*
X12654706Y-14045107D01*
X12654706Y-14045107D02*
X12664229Y-14054631D01*
X12664229Y-14054631D02*
X12683277Y-14064155D01*
X12683277Y-14064155D02*
X12721372Y-14064155D01*
X12721372Y-14064155D02*
X12740420Y-14054631D01*
X12740420Y-14054631D02*
X12749944Y-14045107D01*
X12749944Y-14045107D02*
X12759467Y-14026059D01*
X12759467Y-14026059D02*
X12759467Y-13978440D01*
X12759467Y-13978440D02*
X12749944Y-13959393D01*
X12749944Y-13959393D02*
X12740420Y-13949869D01*
X12740420Y-13949869D02*
X12721372Y-13940345D01*
X12721372Y-13940345D02*
X12683277Y-13940345D01*
X12683277Y-13940345D02*
X12664229Y-13949869D01*
X12664229Y-13949869D02*
X12654706Y-13959393D01*
X12654706Y-13959393D02*
X12645182Y-13978440D01*
X12930896Y-13864155D02*
X12892801Y-13864155D01*
X12892801Y-13864155D02*
X12873753Y-13873678D01*
X12873753Y-13873678D02*
X12864229Y-13883202D01*
X12864229Y-13883202D02*
X12845182Y-13911774D01*
X12845182Y-13911774D02*
X12835658Y-13949869D01*
X12835658Y-13949869D02*
X12835658Y-14026059D01*
X12835658Y-14026059D02*
X12845182Y-14045107D01*
X12845182Y-14045107D02*
X12854706Y-14054631D01*
X12854706Y-14054631D02*
X12873753Y-14064155D01*
X12873753Y-14064155D02*
X12911848Y-14064155D01*
X12911848Y-14064155D02*
X12930896Y-14054631D01*
X12930896Y-14054631D02*
X12940420Y-14045107D01*
X12940420Y-14045107D02*
X12949944Y-14026059D01*
X12949944Y-14026059D02*
X12949944Y-13978440D01*
X12949944Y-13978440D02*
X12940420Y-13959393D01*
X12940420Y-13959393D02*
X12930896Y-13949869D01*
X12930896Y-13949869D02*
X12911848Y-13940345D01*
X12911848Y-13940345D02*
X12873753Y-13940345D01*
X12873753Y-13940345D02*
X12854706Y-13949869D01*
X12854706Y-13949869D02*
X12845182Y-13959393D01*
X12845182Y-13959393D02*
X12835658Y-13978440D01*
X13026134Y-13864155D02*
X13026134Y-13902250D01*
X13102325Y-13864155D02*
X13102325Y-13902250D01*
X13397563Y-14140345D02*
X13388039Y-14130821D01*
X13388039Y-14130821D02*
X13368991Y-14102250D01*
X13368991Y-14102250D02*
X13359468Y-14083202D01*
X13359468Y-14083202D02*
X13349944Y-14054631D01*
X13349944Y-14054631D02*
X13340420Y-14007012D01*
X13340420Y-14007012D02*
X13340420Y-13968917D01*
X13340420Y-13968917D02*
X13349944Y-13921297D01*
X13349944Y-13921297D02*
X13359468Y-13892726D01*
X13359468Y-13892726D02*
X13368991Y-13873678D01*
X13368991Y-13873678D02*
X13388039Y-13845107D01*
X13388039Y-13845107D02*
X13397563Y-13835583D01*
X13464229Y-13883202D02*
X13473753Y-13873678D01*
X13473753Y-13873678D02*
X13492801Y-13864155D01*
X13492801Y-13864155D02*
X13540420Y-13864155D01*
X13540420Y-13864155D02*
X13559468Y-13873678D01*
X13559468Y-13873678D02*
X13568991Y-13883202D01*
X13568991Y-13883202D02*
X13578515Y-13902250D01*
X13578515Y-13902250D02*
X13578515Y-13921297D01*
X13578515Y-13921297D02*
X13568991Y-13949869D01*
X13568991Y-13949869D02*
X13454706Y-14064155D01*
X13454706Y-14064155D02*
X13578515Y-14064155D01*
X13816610Y-14064155D02*
X13816610Y-13864155D01*
X13902325Y-14064155D02*
X13902325Y-13959393D01*
X13902325Y-13959393D02*
X13892801Y-13940345D01*
X13892801Y-13940345D02*
X13873753Y-13930821D01*
X13873753Y-13930821D02*
X13845182Y-13930821D01*
X13845182Y-13930821D02*
X13826134Y-13940345D01*
X13826134Y-13940345D02*
X13816610Y-13949869D01*
X14026134Y-14064155D02*
X14007087Y-14054631D01*
X14007087Y-14054631D02*
X13997563Y-14045107D01*
X13997563Y-14045107D02*
X13988039Y-14026059D01*
X13988039Y-14026059D02*
X13988039Y-13968917D01*
X13988039Y-13968917D02*
X13997563Y-13949869D01*
X13997563Y-13949869D02*
X14007087Y-13940345D01*
X14007087Y-13940345D02*
X14026134Y-13930821D01*
X14026134Y-13930821D02*
X14054706Y-13930821D01*
X14054706Y-13930821D02*
X14073753Y-13940345D01*
X14073753Y-13940345D02*
X14083277Y-13949869D01*
X14083277Y-13949869D02*
X14092801Y-13968917D01*
X14092801Y-13968917D02*
X14092801Y-14026059D01*
X14092801Y-14026059D02*
X14083277Y-14045107D01*
X14083277Y-14045107D02*
X14073753Y-14054631D01*
X14073753Y-14054631D02*
X14054706Y-14064155D01*
X14054706Y-14064155D02*
X14026134Y-14064155D01*
X14207087Y-14064155D02*
X14188039Y-14054631D01*
X14188039Y-14054631D02*
X14178515Y-14035583D01*
X14178515Y-14035583D02*
X14178515Y-13864155D01*
X14359468Y-14054631D02*
X14340420Y-14064155D01*
X14340420Y-14064155D02*
X14302325Y-14064155D01*
X14302325Y-14064155D02*
X14283277Y-14054631D01*
X14283277Y-14054631D02*
X14273753Y-14035583D01*
X14273753Y-14035583D02*
X14273753Y-13959393D01*
X14273753Y-13959393D02*
X14283277Y-13940345D01*
X14283277Y-13940345D02*
X14302325Y-13930821D01*
X14302325Y-13930821D02*
X14340420Y-13930821D01*
X14340420Y-13930821D02*
X14359468Y-13940345D01*
X14359468Y-13940345D02*
X14368991Y-13959393D01*
X14368991Y-13959393D02*
X14368991Y-13978440D01*
X14368991Y-13978440D02*
X14273753Y-13997488D01*
X14445182Y-14054631D02*
X14464230Y-14064155D01*
X14464230Y-14064155D02*
X14502325Y-14064155D01*
X14502325Y-14064155D02*
X14521372Y-14054631D01*
X14521372Y-14054631D02*
X14530896Y-14035583D01*
X14530896Y-14035583D02*
X14530896Y-14026059D01*
X14530896Y-14026059D02*
X14521372Y-14007012D01*
X14521372Y-14007012D02*
X14502325Y-13997488D01*
X14502325Y-13997488D02*
X14473753Y-13997488D01*
X14473753Y-13997488D02*
X14454706Y-13987964D01*
X14454706Y-13987964D02*
X14445182Y-13968917D01*
X14445182Y-13968917D02*
X14445182Y-13959393D01*
X14445182Y-13959393D02*
X14454706Y-13940345D01*
X14454706Y-13940345D02*
X14473753Y-13930821D01*
X14473753Y-13930821D02*
X14502325Y-13930821D01*
X14502325Y-13930821D02*
X14521372Y-13940345D01*
X14597563Y-14140345D02*
X14607087Y-14130821D01*
X14607087Y-14130821D02*
X14626134Y-14102250D01*
X14626134Y-14102250D02*
X14635658Y-14083202D01*
X14635658Y-14083202D02*
X14645182Y-14054631D01*
X14645182Y-14054631D02*
X14654706Y-14007012D01*
X14654706Y-14007012D02*
X14654706Y-13968917D01*
X14654706Y-13968917D02*
X14645182Y-13921297D01*
X14645182Y-13921297D02*
X14635658Y-13892726D01*
X14635658Y-13892726D02*
X14626134Y-13873678D01*
X14626134Y-13873678D02*
X14607087Y-13845107D01*
X14607087Y-13845107D02*
X14597563Y-13835583D01*
M02*
