G04 #@! TF.GenerationSoftware,KiCad,Pcbnew,8.0.1*
G04 #@! TF.CreationDate,2024-04-19T19:32:53+01:00*
G04 #@! TF.ProjectId,le-carnard-bleu,6c652d63-6172-46e6-9172-642d626c6575,rev?*
G04 #@! TF.SameCoordinates,Original*
G04 #@! TF.FileFunction,Legend,Bot*
G04 #@! TF.FilePolarity,Positive*
%FSLAX46Y46*%
G04 Gerber Fmt 4.6, Leading zero omitted, Abs format (unit mm)*
G04 Created by KiCad (PCBNEW 8.0.1) date 2024-04-19 19:32:53*
%MOMM*%
%LPD*%
G01*
G04 APERTURE LIST*
G04 Aperture macros list*
%AMRoundRect*
0 Rectangle with rounded corners*
0 $1 Rounding radius*
0 $2 $3 $4 $5 $6 $7 $8 $9 X,Y pos of 4 corners*
0 Add a 4 corners polygon primitive as box body*
4,1,4,$2,$3,$4,$5,$6,$7,$8,$9,$2,$3,0*
0 Add four circle primitives for the rounded corners*
1,1,$1+$1,$2,$3*
1,1,$1+$1,$4,$5*
1,1,$1+$1,$6,$7*
1,1,$1+$1,$8,$9*
0 Add four rect primitives between the rounded corners*
20,1,$1+$1,$2,$3,$4,$5,0*
20,1,$1+$1,$4,$5,$6,$7,0*
20,1,$1+$1,$6,$7,$8,$9,0*
20,1,$1+$1,$8,$9,$2,$3,0*%
G04 Aperture macros list end*
%ADD10C,0.200000*%
%ADD11C,0.100000*%
%ADD12C,0.152400*%
%ADD13C,0.150000*%
%ADD14C,0.250000*%
%ADD15C,0.120000*%
%ADD16RoundRect,0.150000X-1.600000X-0.150000X1.600000X-0.150000X1.600000X0.150000X-1.600000X0.150000X0*%
%ADD17RoundRect,0.150000X-1.200000X-0.150000X1.200000X-0.150000X1.200000X0.150000X-1.200000X0.150000X0*%
%ADD18C,0.700000*%
%ADD19C,4.400000*%
%ADD20R,1.800000X1.070000*%
%ADD21O,1.800000X1.070000*%
%ADD22R,1.000000X1.000000*%
%ADD23RoundRect,0.100000X0.637500X0.100000X-0.637500X0.100000X-0.637500X-0.100000X0.637500X-0.100000X0*%
%ADD24RoundRect,0.250000X-0.450000X0.262500X-0.450000X-0.262500X0.450000X-0.262500X0.450000X0.262500X0*%
G04 APERTURE END LIST*
D10*
X137470815Y-118455321D02*
X138074516Y-118709986D01*
X124958535Y-120894338D02*
X124138062Y-120532227D01*
X159372280Y-81402488D02*
X159644648Y-81886786D01*
X140925876Y-118717387D02*
X140308352Y-119178286D01*
X114923424Y-104216436D02*
X114844807Y-102921289D01*
X143181877Y-80564266D02*
X143326989Y-80128172D01*
X142818974Y-90110382D02*
X142375142Y-89930778D01*
X133403507Y-102187562D02*
X133422521Y-103702331D01*
X135020557Y-115460985D02*
X135201467Y-115931552D01*
X148010524Y-70525291D02*
X148020135Y-70533543D01*
X147942957Y-76553102D02*
X148204262Y-76916248D01*
X115894451Y-91848684D02*
X116286428Y-90501429D01*
X139647317Y-81081493D02*
X139982793Y-81231206D01*
X149198801Y-93483112D02*
X148368265Y-93100652D01*
X159056968Y-80928157D02*
X159372280Y-81402488D01*
X135250014Y-79808391D02*
X137289912Y-80347181D01*
X134085018Y-95508216D02*
X133848300Y-96771349D01*
X148020135Y-70533543D02*
X148054984Y-70582714D01*
X139397146Y-119801430D02*
X138481203Y-120351747D01*
X121435347Y-82137161D02*
X122077081Y-81616419D01*
X150809238Y-77252647D02*
X151516718Y-77193480D01*
X139311038Y-118870779D02*
X140060143Y-118803618D01*
X118603234Y-85361270D02*
X119083100Y-84670400D01*
X148575349Y-77164476D02*
X148972258Y-77305958D01*
X160567179Y-84892422D02*
X160660598Y-85558386D01*
X123399555Y-120140007D02*
X122655312Y-119674891D01*
X141152285Y-81582001D02*
X141559312Y-81620694D01*
X133769335Y-122139930D02*
X132959449Y-122238851D01*
X157246980Y-79044917D02*
X157799114Y-79498864D01*
X125945523Y-121265857D02*
X124958535Y-120894338D01*
X138481203Y-120351747D02*
X137393673Y-120911696D01*
X158029646Y-92841163D02*
X157479177Y-93201519D01*
X147965277Y-70550775D02*
X148032980Y-70534237D01*
X160264598Y-83518270D02*
X160422266Y-84160105D01*
X115068940Y-96408045D02*
X115303394Y-94585056D01*
X133479769Y-99586039D02*
X133422357Y-100711000D01*
X135953256Y-117164006D02*
X136281706Y-117535884D01*
X115919776Y-109888170D02*
X115642175Y-108875442D01*
X149852564Y-93733233D02*
X149198801Y-93483112D01*
X159891605Y-90761588D02*
X159615032Y-91237513D01*
X144281956Y-75672779D02*
X144720251Y-74505901D01*
X137393673Y-120911696D02*
X136275404Y-121413009D01*
X115303394Y-94585056D02*
X115577670Y-93097965D01*
X160724076Y-86966896D02*
X160700154Y-87736461D01*
X156122304Y-93840814D02*
X155593002Y-93990095D01*
X129290629Y-79091593D02*
X130096702Y-79075222D01*
X124138062Y-120532227D02*
X123399555Y-120140007D01*
X132959449Y-122238851D02*
X132112023Y-122284900D01*
X160514200Y-89038183D02*
X160340534Y-89663269D01*
X120195770Y-83333226D02*
X120804762Y-82712654D01*
X135998668Y-91206041D02*
X135495257Y-91873508D01*
X122655312Y-119674891D02*
X121699556Y-118995142D01*
X143933991Y-76821221D02*
X144281956Y-75672779D01*
X152190528Y-77185391D02*
X152844801Y-77227193D01*
X148190892Y-71965777D02*
X148090523Y-73223049D01*
X151516718Y-77193480D02*
X152190528Y-77185391D01*
X124171977Y-80375548D02*
X125167547Y-79967203D01*
X143677657Y-77945437D02*
X143933991Y-76821221D01*
X114836886Y-99699276D02*
X114898042Y-98354458D01*
X147383349Y-70908674D02*
X147836965Y-70608750D01*
X122719110Y-81159999D02*
X123349031Y-80777853D01*
X116693022Y-89254422D02*
X117051609Y-88306613D01*
X120804762Y-82712654D02*
X121435347Y-82137161D01*
X144945858Y-74014780D02*
X145220917Y-73510839D01*
X152074617Y-94218050D02*
X151344785Y-94108405D01*
X131227454Y-122277611D02*
X130306249Y-122216560D01*
X138665665Y-89629952D02*
X137905720Y-89858170D01*
X141859505Y-89776260D02*
X140776245Y-89576911D01*
X150602106Y-93946260D02*
X149852564Y-93733233D01*
X139055095Y-80875474D02*
X139647317Y-81081493D01*
X139682800Y-89520323D02*
X139152596Y-89552324D01*
X136281706Y-117535884D02*
X136872624Y-118095787D01*
X145220917Y-73510839D02*
X145899195Y-72487531D01*
X160085467Y-82932797D02*
X160264598Y-83518270D01*
X149439802Y-77355251D02*
X150027031Y-77332699D01*
X141559312Y-81620694D02*
X141974899Y-81586998D01*
X136275404Y-121413009D02*
X135274300Y-121785701D01*
X125167547Y-79967203D02*
X126175590Y-79614913D01*
X148032980Y-70534237D02*
X148032960Y-70534236D01*
X114898042Y-98354458D02*
X115068940Y-96408045D01*
X159880469Y-82392866D02*
X160085467Y-82932797D01*
X160700154Y-87736461D02*
X160631805Y-88411562D01*
X150027031Y-77332699D02*
X150809238Y-77252647D01*
X160710639Y-86227035D02*
X160724076Y-86966896D01*
X115203438Y-106660184D02*
X115043200Y-105464377D01*
X143672389Y-90488080D02*
X142818974Y-90110382D01*
X134327364Y-94525287D02*
X134085018Y-95508216D01*
X135274300Y-121785701D02*
X134541426Y-121988610D01*
X138666894Y-118847215D02*
X139311038Y-118870779D01*
X114808000Y-101583834D02*
X114815702Y-99699276D01*
X135053228Y-92647315D02*
X134666462Y-93528752D01*
X155317040Y-77896601D02*
X155911975Y-78192782D01*
X119618550Y-83989110D02*
X120195770Y-83333226D01*
X148054984Y-70582714D02*
X148114287Y-70737054D01*
X160422266Y-84160105D02*
X160567179Y-84892422D01*
X142362093Y-81470070D02*
X142706969Y-81251403D01*
X148164289Y-71019496D02*
X148190892Y-71965777D01*
X160340534Y-89663269D02*
X160132183Y-90239156D01*
X130096702Y-79075222D02*
X130922583Y-79098851D01*
X143326989Y-80128172D02*
X143433492Y-79625399D01*
X130922583Y-79098851D02*
X131764162Y-79162594D01*
X115043200Y-105464377D02*
X114923424Y-104216436D01*
X121699556Y-118995142D02*
X120857375Y-118298555D01*
X148368265Y-93100652D02*
X147486985Y-92645653D01*
X159297230Y-91675517D02*
X158931790Y-92084016D01*
X158931790Y-92084016D02*
X158511608Y-92470485D01*
X114815702Y-99699276D02*
X114836886Y-99699276D01*
X134666462Y-93528752D02*
X134327364Y-94525287D01*
X156573369Y-93675718D02*
X156122304Y-93840814D01*
X126175590Y-79614913D02*
X127037681Y-79377567D01*
X154899314Y-94139019D02*
X154203662Y-94235993D01*
X152793194Y-94275646D02*
X152074617Y-94218050D01*
X153481993Y-77318860D02*
X154104701Y-77460609D01*
X117798853Y-86784443D02*
X118603234Y-85361270D01*
X142706969Y-81251403D02*
X142981054Y-80941342D01*
X159615032Y-91237513D02*
X159297230Y-91675517D01*
X157799114Y-79498864D02*
X158275841Y-79971578D01*
X118515080Y-115610274D02*
X117713886Y-114293533D01*
X133662412Y-106822792D02*
X133932059Y-109113341D01*
X154715545Y-77652938D02*
X155317040Y-77896601D01*
X151344785Y-94108405D02*
X150602106Y-93946260D01*
X158275841Y-79971578D02*
X158692050Y-80452744D01*
X153502257Y-94281553D02*
X152793194Y-94275646D01*
X132112023Y-122284900D02*
X131227454Y-122277611D01*
X140060143Y-118803618D02*
X140876678Y-118718555D01*
X123349031Y-80777853D02*
X124171977Y-80375548D01*
X154104701Y-77460609D02*
X154715545Y-77652938D01*
X140776245Y-89576911D02*
X139682800Y-89520323D01*
X139982793Y-81231206D02*
X140281729Y-81363933D01*
X145899195Y-72487531D02*
X146658590Y-71573780D01*
X122077081Y-81616419D02*
X122719110Y-81159999D01*
X133422357Y-100711000D02*
X133403507Y-102187562D01*
X147856854Y-74727005D02*
X147794428Y-75606525D01*
X133848300Y-96771349D02*
X133638983Y-98175511D01*
X146658590Y-71573780D02*
X147028952Y-71205987D01*
X128508495Y-79147786D02*
X129290629Y-79091593D01*
X140707808Y-81490268D02*
X141152285Y-81582001D01*
X115577670Y-93097965D02*
X115894451Y-91848684D01*
X148032960Y-70534236D02*
X148010524Y-70525291D01*
X119083100Y-84670400D02*
X119618550Y-83989110D01*
X135495257Y-91873508D02*
X135053228Y-92647315D01*
X138074516Y-118709986D02*
X138666894Y-118847215D01*
X116286428Y-90501429D02*
X116693022Y-89254422D01*
X148972258Y-77305958D02*
X149439802Y-77355251D01*
X160631805Y-88411562D02*
X160514200Y-89038183D01*
X147836965Y-70608750D02*
X147965277Y-70550775D01*
X127166219Y-121661005D02*
X125945523Y-121265857D01*
X160660598Y-85558386D02*
X160710639Y-86227035D01*
X142981054Y-80941342D02*
X143181877Y-80564266D01*
X139152596Y-89552324D02*
X138665665Y-89629952D01*
X117051609Y-88306613D02*
X117798853Y-86784443D01*
X137905720Y-89858170D02*
X137204589Y-90196310D01*
X134448627Y-112666116D02*
X134639454Y-113804939D01*
X135415724Y-116369103D02*
X135665885Y-116778285D01*
X143433492Y-79625399D02*
X143510700Y-79058951D01*
X134541426Y-121988610D02*
X133769335Y-122139930D01*
X132617349Y-79266516D02*
X133475456Y-79410201D01*
X127037681Y-79377567D02*
X127754449Y-79243543D01*
X143510700Y-79058951D02*
X143677657Y-77945437D01*
X158511608Y-92470485D02*
X158029646Y-92841163D01*
X128358448Y-121932102D02*
X127166219Y-121661005D01*
X140308352Y-119178286D02*
X139397146Y-119801430D01*
X137289912Y-80347181D02*
X139055095Y-80875474D01*
X133422521Y-103702331D02*
X133479785Y-104941519D01*
X148090523Y-73223049D02*
X147856854Y-74727005D01*
X155593002Y-93990095D02*
X154899314Y-94139019D01*
X117713886Y-114293533D02*
X117201538Y-113334237D01*
X115642175Y-108875442D02*
X115403380Y-107798880D01*
X130306249Y-122216560D02*
X129348994Y-122101375D01*
X148114287Y-70737054D02*
X148164289Y-71019496D01*
X157005845Y-93471429D02*
X156573369Y-93675718D01*
X154203662Y-94235993D02*
X153502257Y-94281553D01*
X142375142Y-89930778D02*
X141859505Y-89776260D01*
X115403380Y-107798880D02*
X115203438Y-106660184D01*
X157479177Y-93201519D02*
X157005845Y-93471429D01*
X144720251Y-74505901D02*
X144945858Y-74014780D01*
X133479785Y-104941519D02*
X133662412Y-106822792D01*
X135201467Y-115931552D02*
X135415724Y-116369103D01*
X147486985Y-92645653D02*
X146671793Y-92174557D01*
X127754449Y-79243543D02*
X128508495Y-79147786D01*
X160132183Y-90239156D02*
X159891605Y-90761588D01*
X131764162Y-79162594D02*
X132617349Y-79266516D01*
X147794428Y-75606525D02*
X147823293Y-76112745D01*
X114844807Y-102921289D02*
X114808000Y-101583834D01*
X133932059Y-109113341D02*
X134218187Y-111253035D01*
X136872624Y-118095787D02*
X137470815Y-118455321D01*
X134639454Y-113804939D02*
X134867276Y-114945519D01*
X141974899Y-81586998D02*
X142362093Y-81470070D01*
X140876678Y-118718555D02*
X140925876Y-118717387D01*
X117201538Y-113334237D02*
X116770445Y-112375619D01*
X148204262Y-76916248D02*
X148575349Y-77164476D01*
X158692050Y-80452744D02*
X159056968Y-80928157D01*
X120087368Y-117549274D02*
X119349774Y-116711200D01*
X144894462Y-91119585D02*
X143672389Y-90488080D01*
X116361542Y-111273094D02*
X115919776Y-109888170D01*
X147028952Y-71205987D02*
X147383349Y-70908674D01*
X159644648Y-81886786D02*
X159880469Y-82392866D01*
X140281729Y-81363933D02*
X140707808Y-81490268D01*
X137204589Y-90196310D02*
X136568043Y-90646087D01*
X133475456Y-79410201D02*
X135250014Y-79808391D01*
X120857375Y-118298555D02*
X120087368Y-117549274D01*
X152844801Y-77227193D02*
X153481993Y-77318860D01*
X129348994Y-122101375D02*
X128358448Y-121932102D01*
X134218187Y-111253035D02*
X134448627Y-112666116D01*
X156616646Y-78608214D02*
X157246980Y-79044917D01*
X119349774Y-116711200D02*
X118515080Y-115610274D01*
X116770445Y-112375619D02*
X116361542Y-111273094D01*
X135665885Y-116778285D02*
X135953256Y-117164006D01*
X155911975Y-78192782D02*
X156616646Y-78608214D01*
X133638983Y-98175511D02*
X133479769Y-99586039D01*
X146671793Y-92174557D02*
X144894462Y-91119585D01*
X134867276Y-114945519D02*
X135020557Y-115460985D01*
X136568043Y-90646087D02*
X135998668Y-91206041D01*
X147823293Y-76112745D02*
X147942957Y-76553102D01*
D11*
X150068438Y-85494211D02*
X149839866Y-86103734D01*
X149839866Y-86103734D02*
X149611295Y-85494211D01*
X148666197Y-85837068D02*
X148628102Y-85722782D01*
X148628102Y-85722782D02*
X148590006Y-85684687D01*
X148590006Y-85684687D02*
X148513816Y-85646591D01*
X148513816Y-85646591D02*
X148399530Y-85646591D01*
X148399530Y-85646591D02*
X148323340Y-85684687D01*
X148323340Y-85684687D02*
X148285245Y-85722782D01*
X148285245Y-85722782D02*
X148247149Y-85798972D01*
X148247149Y-85798972D02*
X148247149Y-86103734D01*
X148247149Y-86103734D02*
X149047149Y-86103734D01*
X149047149Y-86103734D02*
X149047149Y-85837068D01*
X149047149Y-85837068D02*
X149009054Y-85760877D01*
X149009054Y-85760877D02*
X148970959Y-85722782D01*
X148970959Y-85722782D02*
X148894768Y-85684687D01*
X148894768Y-85684687D02*
X148818578Y-85684687D01*
X148818578Y-85684687D02*
X148742387Y-85722782D01*
X148742387Y-85722782D02*
X148704292Y-85760877D01*
X148704292Y-85760877D02*
X148666197Y-85837068D01*
X148666197Y-85837068D02*
X148666197Y-86103734D01*
X148247149Y-85303734D02*
X148780483Y-85303734D01*
X149047149Y-85303734D02*
X149009054Y-85341830D01*
X149009054Y-85341830D02*
X148970959Y-85303734D01*
X148970959Y-85303734D02*
X149009054Y-85265639D01*
X149009054Y-85265639D02*
X149047149Y-85303734D01*
X149047149Y-85303734D02*
X148970959Y-85303734D01*
X148780483Y-84579925D02*
X148132864Y-84579925D01*
X148132864Y-84579925D02*
X148056673Y-84618020D01*
X148056673Y-84618020D02*
X148018578Y-84656116D01*
X148018578Y-84656116D02*
X147980483Y-84732306D01*
X147980483Y-84732306D02*
X147980483Y-84846592D01*
X147980483Y-84846592D02*
X148018578Y-84922782D01*
X148285245Y-84579925D02*
X148247149Y-84656116D01*
X148247149Y-84656116D02*
X148247149Y-84808497D01*
X148247149Y-84808497D02*
X148285245Y-84884687D01*
X148285245Y-84884687D02*
X148323340Y-84922782D01*
X148323340Y-84922782D02*
X148399530Y-84960878D01*
X148399530Y-84960878D02*
X148628102Y-84960878D01*
X148628102Y-84960878D02*
X148704292Y-84922782D01*
X148704292Y-84922782D02*
X148742387Y-84884687D01*
X148742387Y-84884687D02*
X148780483Y-84808497D01*
X148780483Y-84808497D02*
X148780483Y-84656116D01*
X148780483Y-84656116D02*
X148742387Y-84579925D01*
X148247149Y-83246591D02*
X149047149Y-83246591D01*
X148285245Y-83246591D02*
X148247149Y-83322782D01*
X148247149Y-83322782D02*
X148247149Y-83475163D01*
X148247149Y-83475163D02*
X148285245Y-83551353D01*
X148285245Y-83551353D02*
X148323340Y-83589448D01*
X148323340Y-83589448D02*
X148399530Y-83627544D01*
X148399530Y-83627544D02*
X148628102Y-83627544D01*
X148628102Y-83627544D02*
X148704292Y-83589448D01*
X148704292Y-83589448D02*
X148742387Y-83551353D01*
X148742387Y-83551353D02*
X148780483Y-83475163D01*
X148780483Y-83475163D02*
X148780483Y-83322782D01*
X148780483Y-83322782D02*
X148742387Y-83246591D01*
X148780483Y-82522781D02*
X148247149Y-82522781D01*
X148780483Y-82865638D02*
X148361435Y-82865638D01*
X148361435Y-82865638D02*
X148285245Y-82827543D01*
X148285245Y-82827543D02*
X148247149Y-82751353D01*
X148247149Y-82751353D02*
X148247149Y-82637067D01*
X148247149Y-82637067D02*
X148285245Y-82560876D01*
X148285245Y-82560876D02*
X148323340Y-82522781D01*
X148285245Y-81798971D02*
X148247149Y-81875162D01*
X148247149Y-81875162D02*
X148247149Y-82027543D01*
X148247149Y-82027543D02*
X148285245Y-82103733D01*
X148285245Y-82103733D02*
X148323340Y-82141828D01*
X148323340Y-82141828D02*
X148399530Y-82179924D01*
X148399530Y-82179924D02*
X148628102Y-82179924D01*
X148628102Y-82179924D02*
X148704292Y-82141828D01*
X148704292Y-82141828D02*
X148742387Y-82103733D01*
X148742387Y-82103733D02*
X148780483Y-82027543D01*
X148780483Y-82027543D02*
X148780483Y-81875162D01*
X148780483Y-81875162D02*
X148742387Y-81798971D01*
X148247149Y-81456114D02*
X149047149Y-81456114D01*
X148551911Y-81379924D02*
X148247149Y-81151352D01*
X148780483Y-81151352D02*
X148475721Y-81456114D01*
X148780483Y-80884686D02*
X148247149Y-80694210D01*
X148780483Y-80503733D02*
X148247149Y-80694210D01*
X148247149Y-80694210D02*
X148056673Y-80770400D01*
X148056673Y-80770400D02*
X148018578Y-80808495D01*
X148018578Y-80808495D02*
X147980483Y-80884686D01*
X149047149Y-80160876D02*
X148894768Y-80237067D01*
X148285245Y-79856115D02*
X148247149Y-79779924D01*
X148247149Y-79779924D02*
X148247149Y-79627543D01*
X148247149Y-79627543D02*
X148285245Y-79551353D01*
X148285245Y-79551353D02*
X148361435Y-79513257D01*
X148361435Y-79513257D02*
X148399530Y-79513257D01*
X148399530Y-79513257D02*
X148475721Y-79551353D01*
X148475721Y-79551353D02*
X148513816Y-79627543D01*
X148513816Y-79627543D02*
X148513816Y-79741829D01*
X148513816Y-79741829D02*
X148551911Y-79818019D01*
X148551911Y-79818019D02*
X148628102Y-79856115D01*
X148628102Y-79856115D02*
X148666197Y-79856115D01*
X148666197Y-79856115D02*
X148742387Y-79818019D01*
X148742387Y-79818019D02*
X148780483Y-79741829D01*
X148780483Y-79741829D02*
X148780483Y-79627543D01*
X148780483Y-79627543D02*
X148742387Y-79551353D01*
X146959194Y-85989449D02*
X146997290Y-86065639D01*
X146997290Y-86065639D02*
X147073480Y-86103734D01*
X147073480Y-86103734D02*
X147759194Y-86103734D01*
X146959194Y-85684686D02*
X147492528Y-85684686D01*
X147759194Y-85684686D02*
X147721099Y-85722782D01*
X147721099Y-85722782D02*
X147683004Y-85684686D01*
X147683004Y-85684686D02*
X147721099Y-85646591D01*
X147721099Y-85646591D02*
X147759194Y-85684686D01*
X147759194Y-85684686D02*
X147683004Y-85684686D01*
X147492528Y-85418020D02*
X147492528Y-85113258D01*
X147759194Y-85303734D02*
X147073480Y-85303734D01*
X147073480Y-85303734D02*
X146997290Y-85265639D01*
X146997290Y-85265639D02*
X146959194Y-85189449D01*
X146959194Y-85189449D02*
X146959194Y-85113258D01*
X147492528Y-84960877D02*
X147492528Y-84656115D01*
X147759194Y-84846591D02*
X147073480Y-84846591D01*
X147073480Y-84846591D02*
X146997290Y-84808496D01*
X146997290Y-84808496D02*
X146959194Y-84732306D01*
X146959194Y-84732306D02*
X146959194Y-84656115D01*
X146959194Y-84275163D02*
X146997290Y-84351353D01*
X146997290Y-84351353D02*
X147073480Y-84389448D01*
X147073480Y-84389448D02*
X147759194Y-84389448D01*
X146997290Y-83665638D02*
X146959194Y-83741829D01*
X146959194Y-83741829D02*
X146959194Y-83894210D01*
X146959194Y-83894210D02*
X146997290Y-83970400D01*
X146997290Y-83970400D02*
X147073480Y-84008496D01*
X147073480Y-84008496D02*
X147378242Y-84008496D01*
X147378242Y-84008496D02*
X147454432Y-83970400D01*
X147454432Y-83970400D02*
X147492528Y-83894210D01*
X147492528Y-83894210D02*
X147492528Y-83741829D01*
X147492528Y-83741829D02*
X147454432Y-83665638D01*
X147454432Y-83665638D02*
X147378242Y-83627543D01*
X147378242Y-83627543D02*
X147302051Y-83627543D01*
X147302051Y-83627543D02*
X147225861Y-84008496D01*
X146959194Y-82675162D02*
X147759194Y-82675162D01*
X147454432Y-82675162D02*
X147492528Y-82598972D01*
X147492528Y-82598972D02*
X147492528Y-82446591D01*
X147492528Y-82446591D02*
X147454432Y-82370400D01*
X147454432Y-82370400D02*
X147416337Y-82332305D01*
X147416337Y-82332305D02*
X147340147Y-82294210D01*
X147340147Y-82294210D02*
X147111575Y-82294210D01*
X147111575Y-82294210D02*
X147035385Y-82332305D01*
X147035385Y-82332305D02*
X146997290Y-82370400D01*
X146997290Y-82370400D02*
X146959194Y-82446591D01*
X146959194Y-82446591D02*
X146959194Y-82598972D01*
X146959194Y-82598972D02*
X146997290Y-82675162D01*
X146959194Y-81951352D02*
X147492528Y-81951352D01*
X147340147Y-81951352D02*
X147416337Y-81913257D01*
X147416337Y-81913257D02*
X147454432Y-81875162D01*
X147454432Y-81875162D02*
X147492528Y-81798971D01*
X147492528Y-81798971D02*
X147492528Y-81722781D01*
X146959194Y-81113257D02*
X147378242Y-81113257D01*
X147378242Y-81113257D02*
X147454432Y-81151352D01*
X147454432Y-81151352D02*
X147492528Y-81227543D01*
X147492528Y-81227543D02*
X147492528Y-81379924D01*
X147492528Y-81379924D02*
X147454432Y-81456114D01*
X146997290Y-81113257D02*
X146959194Y-81189448D01*
X146959194Y-81189448D02*
X146959194Y-81379924D01*
X146959194Y-81379924D02*
X146997290Y-81456114D01*
X146997290Y-81456114D02*
X147073480Y-81494210D01*
X147073480Y-81494210D02*
X147149670Y-81494210D01*
X147149670Y-81494210D02*
X147225861Y-81456114D01*
X147225861Y-81456114D02*
X147263956Y-81379924D01*
X147263956Y-81379924D02*
X147263956Y-81189448D01*
X147263956Y-81189448D02*
X147302051Y-81113257D01*
X146959194Y-80732304D02*
X147492528Y-80732304D01*
X147759194Y-80732304D02*
X147721099Y-80770400D01*
X147721099Y-80770400D02*
X147683004Y-80732304D01*
X147683004Y-80732304D02*
X147721099Y-80694209D01*
X147721099Y-80694209D02*
X147759194Y-80732304D01*
X147759194Y-80732304D02*
X147683004Y-80732304D01*
X147492528Y-80351352D02*
X146959194Y-80351352D01*
X147416337Y-80351352D02*
X147454432Y-80313257D01*
X147454432Y-80313257D02*
X147492528Y-80237067D01*
X147492528Y-80237067D02*
X147492528Y-80122781D01*
X147492528Y-80122781D02*
X147454432Y-80046590D01*
X147454432Y-80046590D02*
X147378242Y-80008495D01*
X147378242Y-80008495D02*
X146959194Y-80008495D01*
G36*
X120128224Y-100520538D02*
G01*
X120227227Y-100550567D01*
X120289693Y-100609395D01*
X120289791Y-100609751D01*
X120323930Y-100672226D01*
X120324100Y-100675707D01*
X120361418Y-100812364D01*
X120360703Y-100815961D01*
X120363536Y-100915282D01*
X120362196Y-100918120D01*
X120330738Y-101056591D01*
X120327886Y-101060267D01*
X120299082Y-101123543D01*
X120236834Y-101189640D01*
X120144579Y-101223212D01*
X120144036Y-101223104D01*
X120003339Y-101225658D01*
X120000071Y-100522259D01*
X120127194Y-100519951D01*
X120128224Y-100520538D01*
G37*
G36*
X120549592Y-101411993D02*
G01*
X118138480Y-101411993D01*
X118138480Y-100815961D01*
X118227369Y-100815961D01*
X118230305Y-100918901D01*
X118227914Y-100922888D01*
X118228862Y-100942374D01*
X118266986Y-101081985D01*
X118265591Y-101086172D01*
X118270744Y-101104988D01*
X118307366Y-101172006D01*
X118307366Y-101177953D01*
X118318205Y-101194174D01*
X118392821Y-101264444D01*
X118396990Y-101272782D01*
X118408856Y-101279545D01*
X118410616Y-101281203D01*
X118411764Y-101281203D01*
X118413939Y-101282443D01*
X118520310Y-101314706D01*
X118524902Y-101319298D01*
X118544036Y-101323104D01*
X118652925Y-101319997D01*
X118661867Y-101322978D01*
X118675054Y-101319366D01*
X118677456Y-101319298D01*
X118678267Y-101318486D01*
X118680683Y-101317825D01*
X118772285Y-101267769D01*
X118784386Y-101231464D01*
X118767272Y-101197236D01*
X118730967Y-101185135D01*
X118712151Y-101190288D01*
X118651755Y-101223291D01*
X118560253Y-101225901D01*
X118559847Y-101225670D01*
X118460843Y-101195641D01*
X118398379Y-101136814D01*
X118398282Y-101136459D01*
X118364141Y-101073982D01*
X118363972Y-101070501D01*
X118326653Y-100933843D01*
X118327369Y-100930247D01*
X118324535Y-100830925D01*
X118325876Y-100828088D01*
X118357333Y-100689616D01*
X118360186Y-100685941D01*
X118388989Y-100622665D01*
X118451237Y-100556568D01*
X118543493Y-100522996D01*
X118544036Y-100523104D01*
X118604867Y-100520675D01*
X118703707Y-100550655D01*
X118722855Y-100567905D01*
X118725507Y-100767006D01*
X118601093Y-100769767D01*
X118574033Y-100796827D01*
X118574033Y-100835095D01*
X118601093Y-100862155D01*
X118620227Y-100865961D01*
X118791742Y-100862155D01*
X118818802Y-100835095D01*
X118822608Y-100815961D01*
X118818802Y-100530161D01*
X118818801Y-100530160D01*
X118807963Y-100513939D01*
X118770778Y-100480440D01*
X118767272Y-100473427D01*
X118766705Y-100473104D01*
X119065465Y-100473104D01*
X119069126Y-101261035D01*
X119065864Y-101266798D01*
X119069209Y-101279066D01*
X119069271Y-101292238D01*
X119074126Y-101297093D01*
X119075933Y-101303718D01*
X119087175Y-101310142D01*
X119096331Y-101319298D01*
X119103197Y-101319298D01*
X119109159Y-101322705D01*
X119121651Y-101319298D01*
X119134599Y-101319298D01*
X119139454Y-101314442D01*
X119146079Y-101312636D01*
X119158877Y-101297911D01*
X119523447Y-100653876D01*
X119526414Y-101292238D01*
X119553474Y-101319298D01*
X119591742Y-101319298D01*
X119618802Y-101292238D01*
X119622608Y-101273104D01*
X119618946Y-100485172D01*
X119622209Y-100479410D01*
X119620489Y-100473104D01*
X119903560Y-100473104D01*
X119907366Y-101292238D01*
X119934426Y-101319298D01*
X119953560Y-101323104D01*
X120134184Y-101319824D01*
X120140492Y-101322978D01*
X120159847Y-101320538D01*
X120267941Y-101281203D01*
X120277456Y-101281203D01*
X120288834Y-101273599D01*
X120291082Y-101272782D01*
X120291595Y-101271754D01*
X120293677Y-101270364D01*
X120361268Y-101198592D01*
X120367272Y-101196591D01*
X120379233Y-101181179D01*
X120380697Y-101177962D01*
X120380706Y-101177953D01*
X120380706Y-101177943D01*
X120409703Y-101114241D01*
X120412781Y-101112395D01*
X120421114Y-101094755D01*
X120453328Y-100952949D01*
X120456897Y-100949381D01*
X120460703Y-100930247D01*
X120457766Y-100827306D01*
X120460158Y-100823320D01*
X120459210Y-100803834D01*
X120421085Y-100664222D01*
X120422481Y-100660035D01*
X120417328Y-100641219D01*
X120380706Y-100574201D01*
X120380706Y-100568256D01*
X120369867Y-100552035D01*
X120295250Y-100481764D01*
X120291082Y-100473427D01*
X120279215Y-100466663D01*
X120277456Y-100465006D01*
X120276308Y-100465006D01*
X120274133Y-100463766D01*
X120167761Y-100431501D01*
X120163170Y-100426910D01*
X120144036Y-100423104D01*
X119934426Y-100426910D01*
X119907366Y-100453970D01*
X119903560Y-100473104D01*
X119620489Y-100473104D01*
X119618863Y-100467141D01*
X119618802Y-100453970D01*
X119613947Y-100449115D01*
X119612140Y-100442489D01*
X119600895Y-100436063D01*
X119591742Y-100426910D01*
X119584876Y-100426910D01*
X119578914Y-100423503D01*
X119566422Y-100426910D01*
X119553474Y-100426910D01*
X119548618Y-100431765D01*
X119541994Y-100433572D01*
X119529196Y-100448297D01*
X119164625Y-101092331D01*
X119161659Y-100453970D01*
X119134599Y-100426910D01*
X119096331Y-100426910D01*
X119069271Y-100453970D01*
X119065465Y-100473104D01*
X118766705Y-100473104D01*
X118755622Y-100466786D01*
X118753646Y-100465006D01*
X118752498Y-100465006D01*
X118750323Y-100463766D01*
X118643952Y-100431501D01*
X118639361Y-100426910D01*
X118620227Y-100423104D01*
X118616728Y-100423243D01*
X118616683Y-100423230D01*
X118616649Y-100423246D01*
X118552718Y-100425799D01*
X118547580Y-100423230D01*
X118528224Y-100425670D01*
X118420131Y-100465006D01*
X118410616Y-100465006D01*
X118399237Y-100472609D01*
X118396990Y-100473427D01*
X118396476Y-100474454D01*
X118394395Y-100475845D01*
X118326804Y-100547615D01*
X118320800Y-100549617D01*
X118308839Y-100565029D01*
X118307373Y-100568247D01*
X118307366Y-100568256D01*
X118307366Y-100568264D01*
X118278368Y-100631966D01*
X118275291Y-100633813D01*
X118266958Y-100651453D01*
X118234743Y-100793258D01*
X118231175Y-100796827D01*
X118227369Y-100815961D01*
X118138480Y-100815961D01*
X118138480Y-100334215D01*
X120549592Y-100334215D01*
X120549592Y-101411993D01*
G37*
X106607104Y-96151238D02*
X106035676Y-96151238D01*
X106035676Y-96151238D02*
X105921390Y-96189333D01*
X105921390Y-96189333D02*
X105845200Y-96265524D01*
X105845200Y-96265524D02*
X105807104Y-96379809D01*
X105807104Y-96379809D02*
X105807104Y-96456000D01*
X105807104Y-95389333D02*
X105807104Y-95770285D01*
X105807104Y-95770285D02*
X106607104Y-95770285D01*
X105883295Y-94665523D02*
X105845200Y-94703619D01*
X105845200Y-94703619D02*
X105807104Y-94817904D01*
X105807104Y-94817904D02*
X105807104Y-94894095D01*
X105807104Y-94894095D02*
X105845200Y-95008381D01*
X105845200Y-95008381D02*
X105921390Y-95084571D01*
X105921390Y-95084571D02*
X105997580Y-95122666D01*
X105997580Y-95122666D02*
X106149961Y-95160762D01*
X106149961Y-95160762D02*
X106264247Y-95160762D01*
X106264247Y-95160762D02*
X106416628Y-95122666D01*
X106416628Y-95122666D02*
X106492819Y-95084571D01*
X106492819Y-95084571D02*
X106569009Y-95008381D01*
X106569009Y-95008381D02*
X106607104Y-94894095D01*
X106607104Y-94894095D02*
X106607104Y-94817904D01*
X106607104Y-94817904D02*
X106569009Y-94703619D01*
X106569009Y-94703619D02*
X106530914Y-94665523D01*
X106607104Y-94094095D02*
X106035676Y-94094095D01*
X106035676Y-94094095D02*
X105921390Y-94132190D01*
X105921390Y-94132190D02*
X105845200Y-94208381D01*
X105845200Y-94208381D02*
X105807104Y-94322666D01*
X105807104Y-94322666D02*
X105807104Y-94398857D01*
X105807104Y-93332190D02*
X105807104Y-93713142D01*
X105807104Y-93713142D02*
X106607104Y-93713142D01*
X105883295Y-92608380D02*
X105845200Y-92646476D01*
X105845200Y-92646476D02*
X105807104Y-92760761D01*
X105807104Y-92760761D02*
X105807104Y-92836952D01*
X105807104Y-92836952D02*
X105845200Y-92951238D01*
X105845200Y-92951238D02*
X105921390Y-93027428D01*
X105921390Y-93027428D02*
X105997580Y-93065523D01*
X105997580Y-93065523D02*
X106149961Y-93103619D01*
X106149961Y-93103619D02*
X106264247Y-93103619D01*
X106264247Y-93103619D02*
X106416628Y-93065523D01*
X106416628Y-93065523D02*
X106492819Y-93027428D01*
X106492819Y-93027428D02*
X106569009Y-92951238D01*
X106569009Y-92951238D02*
X106607104Y-92836952D01*
X106607104Y-92836952D02*
X106607104Y-92760761D01*
X106607104Y-92760761D02*
X106569009Y-92646476D01*
X106569009Y-92646476D02*
X106530914Y-92608380D01*
X106607104Y-92036952D02*
X106035676Y-92036952D01*
X106035676Y-92036952D02*
X105921390Y-92075047D01*
X105921390Y-92075047D02*
X105845200Y-92151238D01*
X105845200Y-92151238D02*
X105807104Y-92265523D01*
X105807104Y-92265523D02*
X105807104Y-92341714D01*
X105807104Y-91275047D02*
X105807104Y-91655999D01*
X105807104Y-91655999D02*
X106607104Y-91655999D01*
X105883295Y-90551237D02*
X105845200Y-90589333D01*
X105845200Y-90589333D02*
X105807104Y-90703618D01*
X105807104Y-90703618D02*
X105807104Y-90779809D01*
X105807104Y-90779809D02*
X105845200Y-90894095D01*
X105845200Y-90894095D02*
X105921390Y-90970285D01*
X105921390Y-90970285D02*
X105997580Y-91008380D01*
X105997580Y-91008380D02*
X106149961Y-91046476D01*
X106149961Y-91046476D02*
X106264247Y-91046476D01*
X106264247Y-91046476D02*
X106416628Y-91008380D01*
X106416628Y-91008380D02*
X106492819Y-90970285D01*
X106492819Y-90970285D02*
X106569009Y-90894095D01*
X106569009Y-90894095D02*
X106607104Y-90779809D01*
X106607104Y-90779809D02*
X106607104Y-90703618D01*
X106607104Y-90703618D02*
X106569009Y-90589333D01*
X106569009Y-90589333D02*
X106530914Y-90551237D01*
X106607104Y-89979809D02*
X106035676Y-89979809D01*
X106035676Y-89979809D02*
X105921390Y-90017904D01*
X105921390Y-90017904D02*
X105845200Y-90094095D01*
X105845200Y-90094095D02*
X105807104Y-90208380D01*
X105807104Y-90208380D02*
X105807104Y-90284571D01*
X105807104Y-89217904D02*
X105807104Y-89598856D01*
X105807104Y-89598856D02*
X106607104Y-89598856D01*
X105883295Y-88494094D02*
X105845200Y-88532190D01*
X105845200Y-88532190D02*
X105807104Y-88646475D01*
X105807104Y-88646475D02*
X105807104Y-88722666D01*
X105807104Y-88722666D02*
X105845200Y-88836952D01*
X105845200Y-88836952D02*
X105921390Y-88913142D01*
X105921390Y-88913142D02*
X105997580Y-88951237D01*
X105997580Y-88951237D02*
X106149961Y-88989333D01*
X106149961Y-88989333D02*
X106264247Y-88989333D01*
X106264247Y-88989333D02*
X106416628Y-88951237D01*
X106416628Y-88951237D02*
X106492819Y-88913142D01*
X106492819Y-88913142D02*
X106569009Y-88836952D01*
X106569009Y-88836952D02*
X106607104Y-88722666D01*
X106607104Y-88722666D02*
X106607104Y-88646475D01*
X106607104Y-88646475D02*
X106569009Y-88532190D01*
X106569009Y-88532190D02*
X106530914Y-88494094D01*
G36*
X118418335Y-105819868D02*
G01*
X118293243Y-105450041D01*
X118540572Y-105447688D01*
X118418335Y-105819868D01*
G37*
G36*
X118822475Y-106110867D02*
G01*
X118011616Y-106110867D01*
X118011616Y-105168560D01*
X118100505Y-105168560D01*
X118102945Y-105187915D01*
X118180375Y-105416832D01*
X118180375Y-105419810D01*
X118181896Y-105421331D01*
X118368265Y-105972319D01*
X118367172Y-105975648D01*
X118374031Y-105989366D01*
X118379273Y-106004864D01*
X118382615Y-106006534D01*
X118384286Y-106009877D01*
X118399325Y-106014890D01*
X118413502Y-106021978D01*
X118417046Y-106020796D01*
X118420590Y-106021978D01*
X118434766Y-106014890D01*
X118449806Y-106009877D01*
X118451476Y-106006534D01*
X118454819Y-106004864D01*
X118464480Y-105987915D01*
X118649770Y-105423755D01*
X118653716Y-105419810D01*
X118653716Y-105411742D01*
X118733586Y-105168560D01*
X118716472Y-105134331D01*
X118680168Y-105122230D01*
X118645939Y-105139344D01*
X118636278Y-105156292D01*
X118572325Y-105351010D01*
X118260749Y-105353974D01*
X118188152Y-105139344D01*
X118153923Y-105122230D01*
X118117619Y-105134331D01*
X118100505Y-105168560D01*
X118011616Y-105168560D01*
X118011616Y-105033341D01*
X118822475Y-105033341D01*
X118822475Y-106110867D01*
G37*
D12*
X131552446Y-118070213D02*
X131552446Y-117586403D01*
X131262161Y-118166975D02*
X132278161Y-117828308D01*
X132278161Y-117828308D02*
X131262161Y-117489641D01*
X131310542Y-116715546D02*
X131262161Y-116812308D01*
X131262161Y-116812308D02*
X131262161Y-117005832D01*
X131262161Y-117005832D02*
X131310542Y-117102594D01*
X131310542Y-117102594D02*
X131358922Y-117150975D01*
X131358922Y-117150975D02*
X131455684Y-117199356D01*
X131455684Y-117199356D02*
X131745970Y-117199356D01*
X131745970Y-117199356D02*
X131842732Y-117150975D01*
X131842732Y-117150975D02*
X131891113Y-117102594D01*
X131891113Y-117102594D02*
X131939494Y-117005832D01*
X131939494Y-117005832D02*
X131939494Y-116812308D01*
X131939494Y-116812308D02*
X131891113Y-116715546D01*
X131310542Y-115844689D02*
X131262161Y-115941451D01*
X131262161Y-115941451D02*
X131262161Y-116134975D01*
X131262161Y-116134975D02*
X131310542Y-116231737D01*
X131310542Y-116231737D02*
X131358922Y-116280118D01*
X131358922Y-116280118D02*
X131455684Y-116328499D01*
X131455684Y-116328499D02*
X131745970Y-116328499D01*
X131745970Y-116328499D02*
X131842732Y-116280118D01*
X131842732Y-116280118D02*
X131891113Y-116231737D01*
X131891113Y-116231737D02*
X131939494Y-116134975D01*
X131939494Y-116134975D02*
X131939494Y-115941451D01*
X131939494Y-115941451D02*
X131891113Y-115844689D01*
X131262161Y-115264118D02*
X131310542Y-115360880D01*
X131310542Y-115360880D02*
X131358922Y-115409261D01*
X131358922Y-115409261D02*
X131455684Y-115457642D01*
X131455684Y-115457642D02*
X131745970Y-115457642D01*
X131745970Y-115457642D02*
X131842732Y-115409261D01*
X131842732Y-115409261D02*
X131891113Y-115360880D01*
X131891113Y-115360880D02*
X131939494Y-115264118D01*
X131939494Y-115264118D02*
X131939494Y-115118975D01*
X131939494Y-115118975D02*
X131891113Y-115022213D01*
X131891113Y-115022213D02*
X131842732Y-114973832D01*
X131842732Y-114973832D02*
X131745970Y-114925451D01*
X131745970Y-114925451D02*
X131455684Y-114925451D01*
X131455684Y-114925451D02*
X131358922Y-114973832D01*
X131358922Y-114973832D02*
X131310542Y-115022213D01*
X131310542Y-115022213D02*
X131262161Y-115118975D01*
X131262161Y-115118975D02*
X131262161Y-115264118D01*
X131262161Y-114490023D02*
X131939494Y-114490023D01*
X131745970Y-114490023D02*
X131842732Y-114441642D01*
X131842732Y-114441642D02*
X131891113Y-114393261D01*
X131891113Y-114393261D02*
X131939494Y-114296499D01*
X131939494Y-114296499D02*
X131939494Y-114199737D01*
X131262161Y-113425642D02*
X132278161Y-113425642D01*
X131310542Y-113425642D02*
X131262161Y-113522404D01*
X131262161Y-113522404D02*
X131262161Y-113715928D01*
X131262161Y-113715928D02*
X131310542Y-113812690D01*
X131310542Y-113812690D02*
X131358922Y-113861071D01*
X131358922Y-113861071D02*
X131455684Y-113909452D01*
X131455684Y-113909452D02*
X131745970Y-113909452D01*
X131745970Y-113909452D02*
X131842732Y-113861071D01*
X131842732Y-113861071D02*
X131891113Y-113812690D01*
X131891113Y-113812690D02*
X131939494Y-113715928D01*
X131939494Y-113715928D02*
X131939494Y-113522404D01*
X131939494Y-113522404D02*
X131891113Y-113425642D01*
X131262161Y-112941833D02*
X131939494Y-112941833D01*
X132278161Y-112941833D02*
X132229780Y-112990214D01*
X132229780Y-112990214D02*
X132181399Y-112941833D01*
X132181399Y-112941833D02*
X132229780Y-112893452D01*
X132229780Y-112893452D02*
X132278161Y-112941833D01*
X132278161Y-112941833D02*
X132181399Y-112941833D01*
X131939494Y-112458023D02*
X131262161Y-112458023D01*
X131842732Y-112458023D02*
X131891113Y-112409642D01*
X131891113Y-112409642D02*
X131939494Y-112312880D01*
X131939494Y-112312880D02*
X131939494Y-112167737D01*
X131939494Y-112167737D02*
X131891113Y-112070975D01*
X131891113Y-112070975D02*
X131794351Y-112022594D01*
X131794351Y-112022594D02*
X131262161Y-112022594D01*
X131939494Y-111103356D02*
X131117018Y-111103356D01*
X131117018Y-111103356D02*
X131020256Y-111151737D01*
X131020256Y-111151737D02*
X130971875Y-111200118D01*
X130971875Y-111200118D02*
X130923494Y-111296880D01*
X130923494Y-111296880D02*
X130923494Y-111442023D01*
X130923494Y-111442023D02*
X130971875Y-111538785D01*
X131310542Y-111103356D02*
X131262161Y-111200118D01*
X131262161Y-111200118D02*
X131262161Y-111393642D01*
X131262161Y-111393642D02*
X131310542Y-111490404D01*
X131310542Y-111490404D02*
X131358922Y-111538785D01*
X131358922Y-111538785D02*
X131455684Y-111587166D01*
X131455684Y-111587166D02*
X131745970Y-111587166D01*
X131745970Y-111587166D02*
X131842732Y-111538785D01*
X131842732Y-111538785D02*
X131891113Y-111490404D01*
X131891113Y-111490404D02*
X131939494Y-111393642D01*
X131939494Y-111393642D02*
X131939494Y-111200118D01*
X131939494Y-111200118D02*
X131891113Y-111103356D01*
X131939494Y-109990595D02*
X131939494Y-109603547D01*
X132278161Y-109845452D02*
X131407303Y-109845452D01*
X131407303Y-109845452D02*
X131310542Y-109797071D01*
X131310542Y-109797071D02*
X131262161Y-109700309D01*
X131262161Y-109700309D02*
X131262161Y-109603547D01*
X131262161Y-109119738D02*
X131310542Y-109216500D01*
X131310542Y-109216500D02*
X131358922Y-109264881D01*
X131358922Y-109264881D02*
X131455684Y-109313262D01*
X131455684Y-109313262D02*
X131745970Y-109313262D01*
X131745970Y-109313262D02*
X131842732Y-109264881D01*
X131842732Y-109264881D02*
X131891113Y-109216500D01*
X131891113Y-109216500D02*
X131939494Y-109119738D01*
X131939494Y-109119738D02*
X131939494Y-108974595D01*
X131939494Y-108974595D02*
X131891113Y-108877833D01*
X131891113Y-108877833D02*
X131842732Y-108829452D01*
X131842732Y-108829452D02*
X131745970Y-108781071D01*
X131745970Y-108781071D02*
X131455684Y-108781071D01*
X131455684Y-108781071D02*
X131358922Y-108829452D01*
X131358922Y-108829452D02*
X131310542Y-108877833D01*
X131310542Y-108877833D02*
X131262161Y-108974595D01*
X131262161Y-108974595D02*
X131262161Y-109119738D01*
X131310542Y-107136119D02*
X131262161Y-107232881D01*
X131262161Y-107232881D02*
X131262161Y-107426405D01*
X131262161Y-107426405D02*
X131310542Y-107523167D01*
X131310542Y-107523167D02*
X131358922Y-107571548D01*
X131358922Y-107571548D02*
X131455684Y-107619929D01*
X131455684Y-107619929D02*
X131745970Y-107619929D01*
X131745970Y-107619929D02*
X131842732Y-107571548D01*
X131842732Y-107571548D02*
X131891113Y-107523167D01*
X131891113Y-107523167D02*
X131939494Y-107426405D01*
X131939494Y-107426405D02*
X131939494Y-107232881D01*
X131939494Y-107232881D02*
X131891113Y-107136119D01*
X131262161Y-106555548D02*
X131310542Y-106652310D01*
X131310542Y-106652310D02*
X131358922Y-106700691D01*
X131358922Y-106700691D02*
X131455684Y-106749072D01*
X131455684Y-106749072D02*
X131745970Y-106749072D01*
X131745970Y-106749072D02*
X131842732Y-106700691D01*
X131842732Y-106700691D02*
X131891113Y-106652310D01*
X131891113Y-106652310D02*
X131939494Y-106555548D01*
X131939494Y-106555548D02*
X131939494Y-106410405D01*
X131939494Y-106410405D02*
X131891113Y-106313643D01*
X131891113Y-106313643D02*
X131842732Y-106265262D01*
X131842732Y-106265262D02*
X131745970Y-106216881D01*
X131745970Y-106216881D02*
X131455684Y-106216881D01*
X131455684Y-106216881D02*
X131358922Y-106265262D01*
X131358922Y-106265262D02*
X131310542Y-106313643D01*
X131310542Y-106313643D02*
X131262161Y-106410405D01*
X131262161Y-106410405D02*
X131262161Y-106555548D01*
X131262161Y-105781453D02*
X131939494Y-105781453D01*
X131842732Y-105781453D02*
X131891113Y-105733072D01*
X131891113Y-105733072D02*
X131939494Y-105636310D01*
X131939494Y-105636310D02*
X131939494Y-105491167D01*
X131939494Y-105491167D02*
X131891113Y-105394405D01*
X131891113Y-105394405D02*
X131794351Y-105346024D01*
X131794351Y-105346024D02*
X131262161Y-105346024D01*
X131794351Y-105346024D02*
X131891113Y-105297643D01*
X131891113Y-105297643D02*
X131939494Y-105200881D01*
X131939494Y-105200881D02*
X131939494Y-105055738D01*
X131939494Y-105055738D02*
X131891113Y-104958977D01*
X131891113Y-104958977D02*
X131794351Y-104910596D01*
X131794351Y-104910596D02*
X131262161Y-104910596D01*
X131262161Y-104426786D02*
X131939494Y-104426786D01*
X131842732Y-104426786D02*
X131891113Y-104378405D01*
X131891113Y-104378405D02*
X131939494Y-104281643D01*
X131939494Y-104281643D02*
X131939494Y-104136500D01*
X131939494Y-104136500D02*
X131891113Y-104039738D01*
X131891113Y-104039738D02*
X131794351Y-103991357D01*
X131794351Y-103991357D02*
X131262161Y-103991357D01*
X131794351Y-103991357D02*
X131891113Y-103942976D01*
X131891113Y-103942976D02*
X131939494Y-103846214D01*
X131939494Y-103846214D02*
X131939494Y-103701071D01*
X131939494Y-103701071D02*
X131891113Y-103604310D01*
X131891113Y-103604310D02*
X131794351Y-103555929D01*
X131794351Y-103555929D02*
X131262161Y-103555929D01*
X131310542Y-102685071D02*
X131262161Y-102781833D01*
X131262161Y-102781833D02*
X131262161Y-102975357D01*
X131262161Y-102975357D02*
X131310542Y-103072119D01*
X131310542Y-103072119D02*
X131407303Y-103120500D01*
X131407303Y-103120500D02*
X131794351Y-103120500D01*
X131794351Y-103120500D02*
X131891113Y-103072119D01*
X131891113Y-103072119D02*
X131939494Y-102975357D01*
X131939494Y-102975357D02*
X131939494Y-102781833D01*
X131939494Y-102781833D02*
X131891113Y-102685071D01*
X131891113Y-102685071D02*
X131794351Y-102636690D01*
X131794351Y-102636690D02*
X131697589Y-102636690D01*
X131697589Y-102636690D02*
X131600827Y-103120500D01*
X131939494Y-102201262D02*
X131262161Y-102201262D01*
X131842732Y-102201262D02*
X131891113Y-102152881D01*
X131891113Y-102152881D02*
X131939494Y-102056119D01*
X131939494Y-102056119D02*
X131939494Y-101910976D01*
X131939494Y-101910976D02*
X131891113Y-101814214D01*
X131891113Y-101814214D02*
X131794351Y-101765833D01*
X131794351Y-101765833D02*
X131262161Y-101765833D01*
X131939494Y-101427167D02*
X131939494Y-101040119D01*
X132278161Y-101282024D02*
X131407303Y-101282024D01*
X131407303Y-101282024D02*
X131310542Y-101233643D01*
X131310542Y-101233643D02*
X131262161Y-101136881D01*
X131262161Y-101136881D02*
X131262161Y-101040119D01*
X131310542Y-100749834D02*
X131262161Y-100653072D01*
X131262161Y-100653072D02*
X131262161Y-100459548D01*
X131262161Y-100459548D02*
X131310542Y-100362786D01*
X131310542Y-100362786D02*
X131407303Y-100314405D01*
X131407303Y-100314405D02*
X131455684Y-100314405D01*
X131455684Y-100314405D02*
X131552446Y-100362786D01*
X131552446Y-100362786D02*
X131600827Y-100459548D01*
X131600827Y-100459548D02*
X131600827Y-100604691D01*
X131600827Y-100604691D02*
X131649208Y-100701453D01*
X131649208Y-100701453D02*
X131745970Y-100749834D01*
X131745970Y-100749834D02*
X131794351Y-100749834D01*
X131794351Y-100749834D02*
X131891113Y-100701453D01*
X131891113Y-100701453D02*
X131939494Y-100604691D01*
X131939494Y-100604691D02*
X131939494Y-100459548D01*
X131939494Y-100459548D02*
X131891113Y-100362786D01*
X131939494Y-99250025D02*
X131939494Y-98862977D01*
X131262161Y-99104882D02*
X132133018Y-99104882D01*
X132133018Y-99104882D02*
X132229780Y-99056501D01*
X132229780Y-99056501D02*
X132278161Y-98959739D01*
X132278161Y-98959739D02*
X132278161Y-98862977D01*
X131262161Y-98524311D02*
X131939494Y-98524311D01*
X131745970Y-98524311D02*
X131842732Y-98475930D01*
X131842732Y-98475930D02*
X131891113Y-98427549D01*
X131891113Y-98427549D02*
X131939494Y-98330787D01*
X131939494Y-98330787D02*
X131939494Y-98234025D01*
X131262161Y-97750216D02*
X131310542Y-97846978D01*
X131310542Y-97846978D02*
X131358922Y-97895359D01*
X131358922Y-97895359D02*
X131455684Y-97943740D01*
X131455684Y-97943740D02*
X131745970Y-97943740D01*
X131745970Y-97943740D02*
X131842732Y-97895359D01*
X131842732Y-97895359D02*
X131891113Y-97846978D01*
X131891113Y-97846978D02*
X131939494Y-97750216D01*
X131939494Y-97750216D02*
X131939494Y-97605073D01*
X131939494Y-97605073D02*
X131891113Y-97508311D01*
X131891113Y-97508311D02*
X131842732Y-97459930D01*
X131842732Y-97459930D02*
X131745970Y-97411549D01*
X131745970Y-97411549D02*
X131455684Y-97411549D01*
X131455684Y-97411549D02*
X131358922Y-97459930D01*
X131358922Y-97459930D02*
X131310542Y-97508311D01*
X131310542Y-97508311D02*
X131262161Y-97605073D01*
X131262161Y-97605073D02*
X131262161Y-97750216D01*
X131262161Y-96976121D02*
X131939494Y-96976121D01*
X131842732Y-96976121D02*
X131891113Y-96927740D01*
X131891113Y-96927740D02*
X131939494Y-96830978D01*
X131939494Y-96830978D02*
X131939494Y-96685835D01*
X131939494Y-96685835D02*
X131891113Y-96589073D01*
X131891113Y-96589073D02*
X131794351Y-96540692D01*
X131794351Y-96540692D02*
X131262161Y-96540692D01*
X131794351Y-96540692D02*
X131891113Y-96492311D01*
X131891113Y-96492311D02*
X131939494Y-96395549D01*
X131939494Y-96395549D02*
X131939494Y-96250406D01*
X131939494Y-96250406D02*
X131891113Y-96153645D01*
X131891113Y-96153645D02*
X131794351Y-96105264D01*
X131794351Y-96105264D02*
X131262161Y-96105264D01*
X131262161Y-94702216D02*
X131310542Y-94798978D01*
X131310542Y-94798978D02*
X131358922Y-94847359D01*
X131358922Y-94847359D02*
X131455684Y-94895740D01*
X131455684Y-94895740D02*
X131745970Y-94895740D01*
X131745970Y-94895740D02*
X131842732Y-94847359D01*
X131842732Y-94847359D02*
X131891113Y-94798978D01*
X131891113Y-94798978D02*
X131939494Y-94702216D01*
X131939494Y-94702216D02*
X131939494Y-94557073D01*
X131939494Y-94557073D02*
X131891113Y-94460311D01*
X131891113Y-94460311D02*
X131842732Y-94411930D01*
X131842732Y-94411930D02*
X131745970Y-94363549D01*
X131745970Y-94363549D02*
X131455684Y-94363549D01*
X131455684Y-94363549D02*
X131358922Y-94411930D01*
X131358922Y-94411930D02*
X131310542Y-94460311D01*
X131310542Y-94460311D02*
X131262161Y-94557073D01*
X131262161Y-94557073D02*
X131262161Y-94702216D01*
X131939494Y-93492692D02*
X131262161Y-93492692D01*
X131939494Y-93928121D02*
X131407303Y-93928121D01*
X131407303Y-93928121D02*
X131310542Y-93879740D01*
X131310542Y-93879740D02*
X131262161Y-93782978D01*
X131262161Y-93782978D02*
X131262161Y-93637835D01*
X131262161Y-93637835D02*
X131310542Y-93541073D01*
X131310542Y-93541073D02*
X131358922Y-93492692D01*
X131262161Y-93008883D02*
X131939494Y-93008883D01*
X131745970Y-93008883D02*
X131842732Y-92960502D01*
X131842732Y-92960502D02*
X131891113Y-92912121D01*
X131891113Y-92912121D02*
X131939494Y-92815359D01*
X131939494Y-92815359D02*
X131939494Y-92718597D01*
X131939494Y-91750979D02*
X131939494Y-91363931D01*
X131262161Y-91605836D02*
X132133018Y-91605836D01*
X132133018Y-91605836D02*
X132229780Y-91557455D01*
X132229780Y-91557455D02*
X132278161Y-91460693D01*
X132278161Y-91460693D02*
X132278161Y-91363931D01*
X131262161Y-90880122D02*
X131310542Y-90976884D01*
X131310542Y-90976884D02*
X131358922Y-91025265D01*
X131358922Y-91025265D02*
X131455684Y-91073646D01*
X131455684Y-91073646D02*
X131745970Y-91073646D01*
X131745970Y-91073646D02*
X131842732Y-91025265D01*
X131842732Y-91025265D02*
X131891113Y-90976884D01*
X131891113Y-90976884D02*
X131939494Y-90880122D01*
X131939494Y-90880122D02*
X131939494Y-90734979D01*
X131939494Y-90734979D02*
X131891113Y-90638217D01*
X131891113Y-90638217D02*
X131842732Y-90589836D01*
X131842732Y-90589836D02*
X131745970Y-90541455D01*
X131745970Y-90541455D02*
X131455684Y-90541455D01*
X131455684Y-90541455D02*
X131358922Y-90589836D01*
X131358922Y-90589836D02*
X131310542Y-90638217D01*
X131310542Y-90638217D02*
X131262161Y-90734979D01*
X131262161Y-90734979D02*
X131262161Y-90880122D01*
X131310542Y-89670598D02*
X131262161Y-89767360D01*
X131262161Y-89767360D02*
X131262161Y-89960884D01*
X131262161Y-89960884D02*
X131310542Y-90057646D01*
X131310542Y-90057646D02*
X131358922Y-90106027D01*
X131358922Y-90106027D02*
X131455684Y-90154408D01*
X131455684Y-90154408D02*
X131745970Y-90154408D01*
X131745970Y-90154408D02*
X131842732Y-90106027D01*
X131842732Y-90106027D02*
X131891113Y-90057646D01*
X131891113Y-90057646D02*
X131939494Y-89960884D01*
X131939494Y-89960884D02*
X131939494Y-89767360D01*
X131939494Y-89767360D02*
X131891113Y-89670598D01*
X131939494Y-88799741D02*
X131262161Y-88799741D01*
X131939494Y-89235170D02*
X131407303Y-89235170D01*
X131407303Y-89235170D02*
X131310542Y-89186789D01*
X131310542Y-89186789D02*
X131262161Y-89090027D01*
X131262161Y-89090027D02*
X131262161Y-88944884D01*
X131262161Y-88944884D02*
X131310542Y-88848122D01*
X131310542Y-88848122D02*
X131358922Y-88799741D01*
X131310542Y-88364313D02*
X131262161Y-88267551D01*
X131262161Y-88267551D02*
X131262161Y-88074027D01*
X131262161Y-88074027D02*
X131310542Y-87977265D01*
X131310542Y-87977265D02*
X131407303Y-87928884D01*
X131407303Y-87928884D02*
X131455684Y-87928884D01*
X131455684Y-87928884D02*
X131552446Y-87977265D01*
X131552446Y-87977265D02*
X131600827Y-88074027D01*
X131600827Y-88074027D02*
X131600827Y-88219170D01*
X131600827Y-88219170D02*
X131649208Y-88315932D01*
X131649208Y-88315932D02*
X131745970Y-88364313D01*
X131745970Y-88364313D02*
X131794351Y-88364313D01*
X131794351Y-88364313D02*
X131891113Y-88315932D01*
X131891113Y-88315932D02*
X131939494Y-88219170D01*
X131939494Y-88219170D02*
X131939494Y-88074027D01*
X131939494Y-88074027D02*
X131891113Y-87977265D01*
X131939494Y-86283932D02*
X131117018Y-86283932D01*
X131117018Y-86283932D02*
X131020256Y-86332313D01*
X131020256Y-86332313D02*
X130971875Y-86380694D01*
X130971875Y-86380694D02*
X130923494Y-86477456D01*
X130923494Y-86477456D02*
X130923494Y-86622599D01*
X130923494Y-86622599D02*
X130971875Y-86719361D01*
X131310542Y-86283932D02*
X131262161Y-86380694D01*
X131262161Y-86380694D02*
X131262161Y-86574218D01*
X131262161Y-86574218D02*
X131310542Y-86670980D01*
X131310542Y-86670980D02*
X131358922Y-86719361D01*
X131358922Y-86719361D02*
X131455684Y-86767742D01*
X131455684Y-86767742D02*
X131745970Y-86767742D01*
X131745970Y-86767742D02*
X131842732Y-86719361D01*
X131842732Y-86719361D02*
X131891113Y-86670980D01*
X131891113Y-86670980D02*
X131939494Y-86574218D01*
X131939494Y-86574218D02*
X131939494Y-86380694D01*
X131939494Y-86380694D02*
X131891113Y-86283932D01*
X131262161Y-85800123D02*
X131939494Y-85800123D01*
X131745970Y-85800123D02*
X131842732Y-85751742D01*
X131842732Y-85751742D02*
X131891113Y-85703361D01*
X131891113Y-85703361D02*
X131939494Y-85606599D01*
X131939494Y-85606599D02*
X131939494Y-85509837D01*
X131262161Y-85026028D02*
X131310542Y-85122790D01*
X131310542Y-85122790D02*
X131358922Y-85171171D01*
X131358922Y-85171171D02*
X131455684Y-85219552D01*
X131455684Y-85219552D02*
X131745970Y-85219552D01*
X131745970Y-85219552D02*
X131842732Y-85171171D01*
X131842732Y-85171171D02*
X131891113Y-85122790D01*
X131891113Y-85122790D02*
X131939494Y-85026028D01*
X131939494Y-85026028D02*
X131939494Y-84880885D01*
X131939494Y-84880885D02*
X131891113Y-84784123D01*
X131891113Y-84784123D02*
X131842732Y-84735742D01*
X131842732Y-84735742D02*
X131745970Y-84687361D01*
X131745970Y-84687361D02*
X131455684Y-84687361D01*
X131455684Y-84687361D02*
X131358922Y-84735742D01*
X131358922Y-84735742D02*
X131310542Y-84784123D01*
X131310542Y-84784123D02*
X131262161Y-84880885D01*
X131262161Y-84880885D02*
X131262161Y-85026028D01*
X131939494Y-83816504D02*
X131262161Y-83816504D01*
X131939494Y-84251933D02*
X131407303Y-84251933D01*
X131407303Y-84251933D02*
X131310542Y-84203552D01*
X131310542Y-84203552D02*
X131262161Y-84106790D01*
X131262161Y-84106790D02*
X131262161Y-83961647D01*
X131262161Y-83961647D02*
X131310542Y-83864885D01*
X131310542Y-83864885D02*
X131358922Y-83816504D01*
X131939494Y-83332695D02*
X130923494Y-83332695D01*
X131891113Y-83332695D02*
X131939494Y-83235933D01*
X131939494Y-83235933D02*
X131939494Y-83042409D01*
X131939494Y-83042409D02*
X131891113Y-82945647D01*
X131891113Y-82945647D02*
X131842732Y-82897266D01*
X131842732Y-82897266D02*
X131745970Y-82848885D01*
X131745970Y-82848885D02*
X131455684Y-82848885D01*
X131455684Y-82848885D02*
X131358922Y-82897266D01*
X131358922Y-82897266D02*
X131310542Y-82945647D01*
X131310542Y-82945647D02*
X131262161Y-83042409D01*
X131262161Y-83042409D02*
X131262161Y-83235933D01*
X131262161Y-83235933D02*
X131310542Y-83332695D01*
X131358922Y-82413457D02*
X131310542Y-82365076D01*
X131310542Y-82365076D02*
X131262161Y-82413457D01*
X131262161Y-82413457D02*
X131310542Y-82461838D01*
X131310542Y-82461838D02*
X131358922Y-82413457D01*
X131358922Y-82413457D02*
X131262161Y-82413457D01*
X131891113Y-82413457D02*
X131842732Y-82365076D01*
X131842732Y-82365076D02*
X131794351Y-82413457D01*
X131794351Y-82413457D02*
X131842732Y-82461838D01*
X131842732Y-82461838D02*
X131891113Y-82413457D01*
X131891113Y-82413457D02*
X131794351Y-82413457D01*
X130013505Y-118021832D02*
X130013505Y-117247737D01*
X130642458Y-116038213D02*
X130448934Y-116038213D01*
X130642458Y-115651165D02*
X130448934Y-115651165D01*
X129626458Y-115215737D02*
X130642458Y-115215737D01*
X129626458Y-113812689D02*
X129674839Y-113909451D01*
X129674839Y-113909451D02*
X129771600Y-113957832D01*
X129771600Y-113957832D02*
X130642458Y-113957832D01*
X129626458Y-113425642D02*
X130303791Y-113425642D01*
X130642458Y-113425642D02*
X130594077Y-113474023D01*
X130594077Y-113474023D02*
X130545696Y-113425642D01*
X130545696Y-113425642D02*
X130594077Y-113377261D01*
X130594077Y-113377261D02*
X130642458Y-113425642D01*
X130642458Y-113425642D02*
X130545696Y-113425642D01*
X129626458Y-112941832D02*
X130642458Y-112941832D01*
X130013505Y-112845070D02*
X129626458Y-112554784D01*
X130303791Y-112554784D02*
X129916743Y-112941832D01*
X129674839Y-111732308D02*
X129626458Y-111829070D01*
X129626458Y-111829070D02*
X129626458Y-112022594D01*
X129626458Y-112022594D02*
X129674839Y-112119356D01*
X129674839Y-112119356D02*
X129771600Y-112167737D01*
X129771600Y-112167737D02*
X130158648Y-112167737D01*
X130158648Y-112167737D02*
X130255410Y-112119356D01*
X130255410Y-112119356D02*
X130303791Y-112022594D01*
X130303791Y-112022594D02*
X130303791Y-111829070D01*
X130303791Y-111829070D02*
X130255410Y-111732308D01*
X130255410Y-111732308D02*
X130158648Y-111683927D01*
X130158648Y-111683927D02*
X130061886Y-111683927D01*
X130061886Y-111683927D02*
X129965124Y-112167737D01*
X129626458Y-110329261D02*
X129674839Y-110426023D01*
X129674839Y-110426023D02*
X129771600Y-110474404D01*
X129771600Y-110474404D02*
X130642458Y-110474404D01*
X129626458Y-109797071D02*
X129674839Y-109893833D01*
X129674839Y-109893833D02*
X129723219Y-109942214D01*
X129723219Y-109942214D02*
X129819981Y-109990595D01*
X129819981Y-109990595D02*
X130110267Y-109990595D01*
X130110267Y-109990595D02*
X130207029Y-109942214D01*
X130207029Y-109942214D02*
X130255410Y-109893833D01*
X130255410Y-109893833D02*
X130303791Y-109797071D01*
X130303791Y-109797071D02*
X130303791Y-109651928D01*
X130303791Y-109651928D02*
X130255410Y-109555166D01*
X130255410Y-109555166D02*
X130207029Y-109506785D01*
X130207029Y-109506785D02*
X130110267Y-109458404D01*
X130110267Y-109458404D02*
X129819981Y-109458404D01*
X129819981Y-109458404D02*
X129723219Y-109506785D01*
X129723219Y-109506785D02*
X129674839Y-109555166D01*
X129674839Y-109555166D02*
X129626458Y-109651928D01*
X129626458Y-109651928D02*
X129626458Y-109797071D01*
X129626458Y-108877833D02*
X129674839Y-108974595D01*
X129674839Y-108974595D02*
X129723219Y-109022976D01*
X129723219Y-109022976D02*
X129819981Y-109071357D01*
X129819981Y-109071357D02*
X130110267Y-109071357D01*
X130110267Y-109071357D02*
X130207029Y-109022976D01*
X130207029Y-109022976D02*
X130255410Y-108974595D01*
X130255410Y-108974595D02*
X130303791Y-108877833D01*
X130303791Y-108877833D02*
X130303791Y-108732690D01*
X130303791Y-108732690D02*
X130255410Y-108635928D01*
X130255410Y-108635928D02*
X130207029Y-108587547D01*
X130207029Y-108587547D02*
X130110267Y-108539166D01*
X130110267Y-108539166D02*
X129819981Y-108539166D01*
X129819981Y-108539166D02*
X129723219Y-108587547D01*
X129723219Y-108587547D02*
X129674839Y-108635928D01*
X129674839Y-108635928D02*
X129626458Y-108732690D01*
X129626458Y-108732690D02*
X129626458Y-108877833D01*
X129626458Y-108103738D02*
X130642458Y-108103738D01*
X130013505Y-108006976D02*
X129626458Y-107716690D01*
X130303791Y-107716690D02*
X129916743Y-108103738D01*
X129626458Y-107281262D02*
X130303791Y-107281262D01*
X130642458Y-107281262D02*
X130594077Y-107329643D01*
X130594077Y-107329643D02*
X130545696Y-107281262D01*
X130545696Y-107281262D02*
X130594077Y-107232881D01*
X130594077Y-107232881D02*
X130642458Y-107281262D01*
X130642458Y-107281262D02*
X130545696Y-107281262D01*
X130303791Y-106797452D02*
X129626458Y-106797452D01*
X130207029Y-106797452D02*
X130255410Y-106749071D01*
X130255410Y-106749071D02*
X130303791Y-106652309D01*
X130303791Y-106652309D02*
X130303791Y-106507166D01*
X130303791Y-106507166D02*
X130255410Y-106410404D01*
X130255410Y-106410404D02*
X130158648Y-106362023D01*
X130158648Y-106362023D02*
X129626458Y-106362023D01*
X130303791Y-105442785D02*
X129481315Y-105442785D01*
X129481315Y-105442785D02*
X129384553Y-105491166D01*
X129384553Y-105491166D02*
X129336172Y-105539547D01*
X129336172Y-105539547D02*
X129287791Y-105636309D01*
X129287791Y-105636309D02*
X129287791Y-105781452D01*
X129287791Y-105781452D02*
X129336172Y-105878214D01*
X129674839Y-105442785D02*
X129626458Y-105539547D01*
X129626458Y-105539547D02*
X129626458Y-105733071D01*
X129626458Y-105733071D02*
X129674839Y-105829833D01*
X129674839Y-105829833D02*
X129723219Y-105878214D01*
X129723219Y-105878214D02*
X129819981Y-105926595D01*
X129819981Y-105926595D02*
X130110267Y-105926595D01*
X130110267Y-105926595D02*
X130207029Y-105878214D01*
X130207029Y-105878214D02*
X130255410Y-105829833D01*
X130255410Y-105829833D02*
X130303791Y-105733071D01*
X130303791Y-105733071D02*
X130303791Y-105539547D01*
X130303791Y-105539547D02*
X130255410Y-105442785D01*
X129626458Y-103749452D02*
X130158648Y-103749452D01*
X130158648Y-103749452D02*
X130255410Y-103797833D01*
X130255410Y-103797833D02*
X130303791Y-103894595D01*
X130303791Y-103894595D02*
X130303791Y-104088119D01*
X130303791Y-104088119D02*
X130255410Y-104184881D01*
X129674839Y-103749452D02*
X129626458Y-103846214D01*
X129626458Y-103846214D02*
X129626458Y-104088119D01*
X129626458Y-104088119D02*
X129674839Y-104184881D01*
X129674839Y-104184881D02*
X129771600Y-104233262D01*
X129771600Y-104233262D02*
X129868362Y-104233262D01*
X129868362Y-104233262D02*
X129965124Y-104184881D01*
X129965124Y-104184881D02*
X130013505Y-104088119D01*
X130013505Y-104088119D02*
X130013505Y-103846214D01*
X130013505Y-103846214D02*
X130061886Y-103749452D01*
X130303791Y-103410786D02*
X130303791Y-103023738D01*
X130642458Y-103265643D02*
X129771600Y-103265643D01*
X129771600Y-103265643D02*
X129674839Y-103217262D01*
X129674839Y-103217262D02*
X129626458Y-103120500D01*
X129626458Y-103120500D02*
X129626458Y-103023738D01*
X129674839Y-101959358D02*
X129626458Y-101862596D01*
X129626458Y-101862596D02*
X129626458Y-101669072D01*
X129626458Y-101669072D02*
X129674839Y-101572310D01*
X129674839Y-101572310D02*
X129771600Y-101523929D01*
X129771600Y-101523929D02*
X129819981Y-101523929D01*
X129819981Y-101523929D02*
X129916743Y-101572310D01*
X129916743Y-101572310D02*
X129965124Y-101669072D01*
X129965124Y-101669072D02*
X129965124Y-101814215D01*
X129965124Y-101814215D02*
X130013505Y-101910977D01*
X130013505Y-101910977D02*
X130110267Y-101959358D01*
X130110267Y-101959358D02*
X130158648Y-101959358D01*
X130158648Y-101959358D02*
X130255410Y-101910977D01*
X130255410Y-101910977D02*
X130303791Y-101814215D01*
X130303791Y-101814215D02*
X130303791Y-101669072D01*
X130303791Y-101669072D02*
X130255410Y-101572310D01*
X129626458Y-101088501D02*
X130642458Y-101088501D01*
X129626458Y-100653072D02*
X130158648Y-100653072D01*
X130158648Y-100653072D02*
X130255410Y-100701453D01*
X130255410Y-100701453D02*
X130303791Y-100798215D01*
X130303791Y-100798215D02*
X130303791Y-100943358D01*
X130303791Y-100943358D02*
X130255410Y-101040120D01*
X130255410Y-101040120D02*
X130207029Y-101088501D01*
X129626458Y-100024120D02*
X129674839Y-100120882D01*
X129674839Y-100120882D02*
X129723219Y-100169263D01*
X129723219Y-100169263D02*
X129819981Y-100217644D01*
X129819981Y-100217644D02*
X130110267Y-100217644D01*
X130110267Y-100217644D02*
X130207029Y-100169263D01*
X130207029Y-100169263D02*
X130255410Y-100120882D01*
X130255410Y-100120882D02*
X130303791Y-100024120D01*
X130303791Y-100024120D02*
X130303791Y-99878977D01*
X130303791Y-99878977D02*
X130255410Y-99782215D01*
X130255410Y-99782215D02*
X130207029Y-99733834D01*
X130207029Y-99733834D02*
X130110267Y-99685453D01*
X130110267Y-99685453D02*
X129819981Y-99685453D01*
X129819981Y-99685453D02*
X129723219Y-99733834D01*
X129723219Y-99733834D02*
X129674839Y-99782215D01*
X129674839Y-99782215D02*
X129626458Y-99878977D01*
X129626458Y-99878977D02*
X129626458Y-100024120D01*
X129626458Y-99104882D02*
X129674839Y-99201644D01*
X129674839Y-99201644D02*
X129723219Y-99250025D01*
X129723219Y-99250025D02*
X129819981Y-99298406D01*
X129819981Y-99298406D02*
X130110267Y-99298406D01*
X130110267Y-99298406D02*
X130207029Y-99250025D01*
X130207029Y-99250025D02*
X130255410Y-99201644D01*
X130255410Y-99201644D02*
X130303791Y-99104882D01*
X130303791Y-99104882D02*
X130303791Y-98959739D01*
X130303791Y-98959739D02*
X130255410Y-98862977D01*
X130255410Y-98862977D02*
X130207029Y-98814596D01*
X130207029Y-98814596D02*
X130110267Y-98766215D01*
X130110267Y-98766215D02*
X129819981Y-98766215D01*
X129819981Y-98766215D02*
X129723219Y-98814596D01*
X129723219Y-98814596D02*
X129674839Y-98862977D01*
X129674839Y-98862977D02*
X129626458Y-98959739D01*
X129626458Y-98959739D02*
X129626458Y-99104882D01*
X130303791Y-98475930D02*
X130303791Y-98088882D01*
X130642458Y-98330787D02*
X129771600Y-98330787D01*
X129771600Y-98330787D02*
X129674839Y-98282406D01*
X129674839Y-98282406D02*
X129626458Y-98185644D01*
X129626458Y-98185644D02*
X129626458Y-98088882D01*
X129626458Y-97314787D02*
X130158648Y-97314787D01*
X130158648Y-97314787D02*
X130255410Y-97363168D01*
X130255410Y-97363168D02*
X130303791Y-97459930D01*
X130303791Y-97459930D02*
X130303791Y-97653454D01*
X130303791Y-97653454D02*
X130255410Y-97750216D01*
X129674839Y-97314787D02*
X129626458Y-97411549D01*
X129626458Y-97411549D02*
X129626458Y-97653454D01*
X129626458Y-97653454D02*
X129674839Y-97750216D01*
X129674839Y-97750216D02*
X129771600Y-97798597D01*
X129771600Y-97798597D02*
X129868362Y-97798597D01*
X129868362Y-97798597D02*
X129965124Y-97750216D01*
X129965124Y-97750216D02*
X130013505Y-97653454D01*
X130013505Y-97653454D02*
X130013505Y-97411549D01*
X130013505Y-97411549D02*
X130061886Y-97314787D01*
X129626458Y-96830978D02*
X130642458Y-96830978D01*
X130255410Y-96830978D02*
X130303791Y-96734216D01*
X130303791Y-96734216D02*
X130303791Y-96540692D01*
X130303791Y-96540692D02*
X130255410Y-96443930D01*
X130255410Y-96443930D02*
X130207029Y-96395549D01*
X130207029Y-96395549D02*
X130110267Y-96347168D01*
X130110267Y-96347168D02*
X129819981Y-96347168D01*
X129819981Y-96347168D02*
X129723219Y-96395549D01*
X129723219Y-96395549D02*
X129674839Y-96443930D01*
X129674839Y-96443930D02*
X129626458Y-96540692D01*
X129626458Y-96540692D02*
X129626458Y-96734216D01*
X129626458Y-96734216D02*
X129674839Y-96830978D01*
X129626458Y-95766597D02*
X129674839Y-95863359D01*
X129674839Y-95863359D02*
X129771600Y-95911740D01*
X129771600Y-95911740D02*
X130642458Y-95911740D01*
X129674839Y-94992502D02*
X129626458Y-95089264D01*
X129626458Y-95089264D02*
X129626458Y-95282788D01*
X129626458Y-95282788D02*
X129674839Y-95379550D01*
X129674839Y-95379550D02*
X129771600Y-95427931D01*
X129771600Y-95427931D02*
X130158648Y-95427931D01*
X130158648Y-95427931D02*
X130255410Y-95379550D01*
X130255410Y-95379550D02*
X130303791Y-95282788D01*
X130303791Y-95282788D02*
X130303791Y-95089264D01*
X130303791Y-95089264D02*
X130255410Y-94992502D01*
X130255410Y-94992502D02*
X130158648Y-94944121D01*
X130158648Y-94944121D02*
X130061886Y-94944121D01*
X130061886Y-94944121D02*
X129965124Y-95427931D01*
X129626458Y-93299169D02*
X130158648Y-93299169D01*
X130158648Y-93299169D02*
X130255410Y-93347550D01*
X130255410Y-93347550D02*
X130303791Y-93444312D01*
X130303791Y-93444312D02*
X130303791Y-93637836D01*
X130303791Y-93637836D02*
X130255410Y-93734598D01*
X129674839Y-93299169D02*
X129626458Y-93395931D01*
X129626458Y-93395931D02*
X129626458Y-93637836D01*
X129626458Y-93637836D02*
X129674839Y-93734598D01*
X129674839Y-93734598D02*
X129771600Y-93782979D01*
X129771600Y-93782979D02*
X129868362Y-93782979D01*
X129868362Y-93782979D02*
X129965124Y-93734598D01*
X129965124Y-93734598D02*
X130013505Y-93637836D01*
X130013505Y-93637836D02*
X130013505Y-93395931D01*
X130013505Y-93395931D02*
X130061886Y-93299169D01*
X130303791Y-92815360D02*
X129626458Y-92815360D01*
X130207029Y-92815360D02*
X130255410Y-92766979D01*
X130255410Y-92766979D02*
X130303791Y-92670217D01*
X130303791Y-92670217D02*
X130303791Y-92525074D01*
X130303791Y-92525074D02*
X130255410Y-92428312D01*
X130255410Y-92428312D02*
X130158648Y-92379931D01*
X130158648Y-92379931D02*
X129626458Y-92379931D01*
X129626458Y-91896122D02*
X130303791Y-91896122D01*
X130642458Y-91896122D02*
X130594077Y-91944503D01*
X130594077Y-91944503D02*
X130545696Y-91896122D01*
X130545696Y-91896122D02*
X130594077Y-91847741D01*
X130594077Y-91847741D02*
X130642458Y-91896122D01*
X130642458Y-91896122D02*
X130545696Y-91896122D01*
X129626458Y-91412312D02*
X130303791Y-91412312D01*
X130207029Y-91412312D02*
X130255410Y-91363931D01*
X130255410Y-91363931D02*
X130303791Y-91267169D01*
X130303791Y-91267169D02*
X130303791Y-91122026D01*
X130303791Y-91122026D02*
X130255410Y-91025264D01*
X130255410Y-91025264D02*
X130158648Y-90976883D01*
X130158648Y-90976883D02*
X129626458Y-90976883D01*
X130158648Y-90976883D02*
X130255410Y-90928502D01*
X130255410Y-90928502D02*
X130303791Y-90831740D01*
X130303791Y-90831740D02*
X130303791Y-90686597D01*
X130303791Y-90686597D02*
X130255410Y-90589836D01*
X130255410Y-90589836D02*
X130158648Y-90541455D01*
X130158648Y-90541455D02*
X129626458Y-90541455D01*
X129626458Y-89622216D02*
X130158648Y-89622216D01*
X130158648Y-89622216D02*
X130255410Y-89670597D01*
X130255410Y-89670597D02*
X130303791Y-89767359D01*
X130303791Y-89767359D02*
X130303791Y-89960883D01*
X130303791Y-89960883D02*
X130255410Y-90057645D01*
X129674839Y-89622216D02*
X129626458Y-89718978D01*
X129626458Y-89718978D02*
X129626458Y-89960883D01*
X129626458Y-89960883D02*
X129674839Y-90057645D01*
X129674839Y-90057645D02*
X129771600Y-90106026D01*
X129771600Y-90106026D02*
X129868362Y-90106026D01*
X129868362Y-90106026D02*
X129965124Y-90057645D01*
X129965124Y-90057645D02*
X130013505Y-89960883D01*
X130013505Y-89960883D02*
X130013505Y-89718978D01*
X130013505Y-89718978D02*
X130061886Y-89622216D01*
X129626458Y-88993264D02*
X129674839Y-89090026D01*
X129674839Y-89090026D02*
X129771600Y-89138407D01*
X129771600Y-89138407D02*
X130642458Y-89138407D01*
X129674839Y-88654598D02*
X129626458Y-88557836D01*
X129626458Y-88557836D02*
X129626458Y-88364312D01*
X129626458Y-88364312D02*
X129674839Y-88267550D01*
X129674839Y-88267550D02*
X129771600Y-88219169D01*
X129771600Y-88219169D02*
X129819981Y-88219169D01*
X129819981Y-88219169D02*
X129916743Y-88267550D01*
X129916743Y-88267550D02*
X129965124Y-88364312D01*
X129965124Y-88364312D02*
X129965124Y-88509455D01*
X129965124Y-88509455D02*
X130013505Y-88606217D01*
X130013505Y-88606217D02*
X130110267Y-88654598D01*
X130110267Y-88654598D02*
X130158648Y-88654598D01*
X130158648Y-88654598D02*
X130255410Y-88606217D01*
X130255410Y-88606217D02*
X130303791Y-88509455D01*
X130303791Y-88509455D02*
X130303791Y-88364312D01*
X130303791Y-88364312D02*
X130255410Y-88267550D01*
X130642458Y-87832122D02*
X130448934Y-87832122D01*
X130642458Y-87445074D02*
X130448934Y-87445074D01*
X128377802Y-118021832D02*
X128377802Y-117247737D01*
X129006755Y-116038213D02*
X128813231Y-116038213D01*
X129006755Y-115651165D02*
X128813231Y-115651165D01*
X127990755Y-115215737D02*
X129006755Y-115215737D01*
X128668088Y-114877070D02*
X128668088Y-114490022D01*
X127990755Y-114731927D02*
X128861612Y-114731927D01*
X128861612Y-114731927D02*
X128958374Y-114683546D01*
X128958374Y-114683546D02*
X129006755Y-114586784D01*
X129006755Y-114586784D02*
X129006755Y-114490022D01*
X128668088Y-113522404D02*
X128668088Y-113135356D01*
X129006755Y-113377261D02*
X128135897Y-113377261D01*
X128135897Y-113377261D02*
X128039136Y-113328880D01*
X128039136Y-113328880D02*
X127990755Y-113232118D01*
X127990755Y-113232118D02*
X127990755Y-113135356D01*
X127990755Y-112796690D02*
X129006755Y-112796690D01*
X127990755Y-112361261D02*
X128522945Y-112361261D01*
X128522945Y-112361261D02*
X128619707Y-112409642D01*
X128619707Y-112409642D02*
X128668088Y-112506404D01*
X128668088Y-112506404D02*
X128668088Y-112651547D01*
X128668088Y-112651547D02*
X128619707Y-112748309D01*
X128619707Y-112748309D02*
X128571326Y-112796690D01*
X128039136Y-111490404D02*
X127990755Y-111587166D01*
X127990755Y-111587166D02*
X127990755Y-111780690D01*
X127990755Y-111780690D02*
X128039136Y-111877452D01*
X128039136Y-111877452D02*
X128135897Y-111925833D01*
X128135897Y-111925833D02*
X128522945Y-111925833D01*
X128522945Y-111925833D02*
X128619707Y-111877452D01*
X128619707Y-111877452D02*
X128668088Y-111780690D01*
X128668088Y-111780690D02*
X128668088Y-111587166D01*
X128668088Y-111587166D02*
X128619707Y-111490404D01*
X128619707Y-111490404D02*
X128522945Y-111442023D01*
X128522945Y-111442023D02*
X128426183Y-111442023D01*
X128426183Y-111442023D02*
X128329421Y-111925833D01*
X128668088Y-110232500D02*
X127652088Y-110232500D01*
X128619707Y-110232500D02*
X128668088Y-110135738D01*
X128668088Y-110135738D02*
X128668088Y-109942214D01*
X128668088Y-109942214D02*
X128619707Y-109845452D01*
X128619707Y-109845452D02*
X128571326Y-109797071D01*
X128571326Y-109797071D02*
X128474564Y-109748690D01*
X128474564Y-109748690D02*
X128184278Y-109748690D01*
X128184278Y-109748690D02*
X128087516Y-109797071D01*
X128087516Y-109797071D02*
X128039136Y-109845452D01*
X128039136Y-109845452D02*
X127990755Y-109942214D01*
X127990755Y-109942214D02*
X127990755Y-110135738D01*
X127990755Y-110135738D02*
X128039136Y-110232500D01*
X127990755Y-109313262D02*
X128668088Y-109313262D01*
X128474564Y-109313262D02*
X128571326Y-109264881D01*
X128571326Y-109264881D02*
X128619707Y-109216500D01*
X128619707Y-109216500D02*
X128668088Y-109119738D01*
X128668088Y-109119738D02*
X128668088Y-109022976D01*
X127990755Y-108684310D02*
X128668088Y-108684310D01*
X129006755Y-108684310D02*
X128958374Y-108732691D01*
X128958374Y-108732691D02*
X128909993Y-108684310D01*
X128909993Y-108684310D02*
X128958374Y-108635929D01*
X128958374Y-108635929D02*
X129006755Y-108684310D01*
X129006755Y-108684310D02*
X128909993Y-108684310D01*
X128039136Y-107765071D02*
X127990755Y-107861833D01*
X127990755Y-107861833D02*
X127990755Y-108055357D01*
X127990755Y-108055357D02*
X128039136Y-108152119D01*
X128039136Y-108152119D02*
X128087516Y-108200500D01*
X128087516Y-108200500D02*
X128184278Y-108248881D01*
X128184278Y-108248881D02*
X128474564Y-108248881D01*
X128474564Y-108248881D02*
X128571326Y-108200500D01*
X128571326Y-108200500D02*
X128619707Y-108152119D01*
X128619707Y-108152119D02*
X128668088Y-108055357D01*
X128668088Y-108055357D02*
X128668088Y-107861833D01*
X128668088Y-107861833D02*
X128619707Y-107765071D01*
X128039136Y-106942595D02*
X127990755Y-107039357D01*
X127990755Y-107039357D02*
X127990755Y-107232881D01*
X127990755Y-107232881D02*
X128039136Y-107329643D01*
X128039136Y-107329643D02*
X128135897Y-107378024D01*
X128135897Y-107378024D02*
X128522945Y-107378024D01*
X128522945Y-107378024D02*
X128619707Y-107329643D01*
X128619707Y-107329643D02*
X128668088Y-107232881D01*
X128668088Y-107232881D02*
X128668088Y-107039357D01*
X128668088Y-107039357D02*
X128619707Y-106942595D01*
X128619707Y-106942595D02*
X128522945Y-106894214D01*
X128522945Y-106894214D02*
X128426183Y-106894214D01*
X128426183Y-106894214D02*
X128329421Y-107378024D01*
X127990755Y-105684691D02*
X128668088Y-105684691D01*
X129006755Y-105684691D02*
X128958374Y-105733072D01*
X128958374Y-105733072D02*
X128909993Y-105684691D01*
X128909993Y-105684691D02*
X128958374Y-105636310D01*
X128958374Y-105636310D02*
X129006755Y-105684691D01*
X129006755Y-105684691D02*
X128909993Y-105684691D01*
X128039136Y-105249262D02*
X127990755Y-105152500D01*
X127990755Y-105152500D02*
X127990755Y-104958976D01*
X127990755Y-104958976D02*
X128039136Y-104862214D01*
X128039136Y-104862214D02*
X128135897Y-104813833D01*
X128135897Y-104813833D02*
X128184278Y-104813833D01*
X128184278Y-104813833D02*
X128281040Y-104862214D01*
X128281040Y-104862214D02*
X128329421Y-104958976D01*
X128329421Y-104958976D02*
X128329421Y-105104119D01*
X128329421Y-105104119D02*
X128377802Y-105200881D01*
X128377802Y-105200881D02*
X128474564Y-105249262D01*
X128474564Y-105249262D02*
X128522945Y-105249262D01*
X128522945Y-105249262D02*
X128619707Y-105200881D01*
X128619707Y-105200881D02*
X128668088Y-105104119D01*
X128668088Y-105104119D02*
X128668088Y-104958976D01*
X128668088Y-104958976D02*
X128619707Y-104862214D01*
X128668088Y-103749453D02*
X128668088Y-103362405D01*
X129006755Y-103604310D02*
X128135897Y-103604310D01*
X128135897Y-103604310D02*
X128039136Y-103555929D01*
X128039136Y-103555929D02*
X127990755Y-103459167D01*
X127990755Y-103459167D02*
X127990755Y-103362405D01*
X127990755Y-103023739D02*
X129006755Y-103023739D01*
X127990755Y-102588310D02*
X128522945Y-102588310D01*
X128522945Y-102588310D02*
X128619707Y-102636691D01*
X128619707Y-102636691D02*
X128668088Y-102733453D01*
X128668088Y-102733453D02*
X128668088Y-102878596D01*
X128668088Y-102878596D02*
X128619707Y-102975358D01*
X128619707Y-102975358D02*
X128571326Y-103023739D01*
X128039136Y-101717453D02*
X127990755Y-101814215D01*
X127990755Y-101814215D02*
X127990755Y-102007739D01*
X127990755Y-102007739D02*
X128039136Y-102104501D01*
X128039136Y-102104501D02*
X128135897Y-102152882D01*
X128135897Y-102152882D02*
X128522945Y-102152882D01*
X128522945Y-102152882D02*
X128619707Y-102104501D01*
X128619707Y-102104501D02*
X128668088Y-102007739D01*
X128668088Y-102007739D02*
X128668088Y-101814215D01*
X128668088Y-101814215D02*
X128619707Y-101717453D01*
X128619707Y-101717453D02*
X128522945Y-101669072D01*
X128522945Y-101669072D02*
X128426183Y-101669072D01*
X128426183Y-101669072D02*
X128329421Y-102152882D01*
X128039136Y-100507930D02*
X127990755Y-100411168D01*
X127990755Y-100411168D02*
X127990755Y-100217644D01*
X127990755Y-100217644D02*
X128039136Y-100120882D01*
X128039136Y-100120882D02*
X128135897Y-100072501D01*
X128135897Y-100072501D02*
X128184278Y-100072501D01*
X128184278Y-100072501D02*
X128281040Y-100120882D01*
X128281040Y-100120882D02*
X128329421Y-100217644D01*
X128329421Y-100217644D02*
X128329421Y-100362787D01*
X128329421Y-100362787D02*
X128377802Y-100459549D01*
X128377802Y-100459549D02*
X128474564Y-100507930D01*
X128474564Y-100507930D02*
X128522945Y-100507930D01*
X128522945Y-100507930D02*
X128619707Y-100459549D01*
X128619707Y-100459549D02*
X128668088Y-100362787D01*
X128668088Y-100362787D02*
X128668088Y-100217644D01*
X128668088Y-100217644D02*
X128619707Y-100120882D01*
X127990755Y-99201644D02*
X128522945Y-99201644D01*
X128522945Y-99201644D02*
X128619707Y-99250025D01*
X128619707Y-99250025D02*
X128668088Y-99346787D01*
X128668088Y-99346787D02*
X128668088Y-99540311D01*
X128668088Y-99540311D02*
X128619707Y-99637073D01*
X128039136Y-99201644D02*
X127990755Y-99298406D01*
X127990755Y-99298406D02*
X127990755Y-99540311D01*
X127990755Y-99540311D02*
X128039136Y-99637073D01*
X128039136Y-99637073D02*
X128135897Y-99685454D01*
X128135897Y-99685454D02*
X128232659Y-99685454D01*
X128232659Y-99685454D02*
X128329421Y-99637073D01*
X128329421Y-99637073D02*
X128377802Y-99540311D01*
X128377802Y-99540311D02*
X128377802Y-99298406D01*
X128377802Y-99298406D02*
X128426183Y-99201644D01*
X127990755Y-98717835D02*
X128668088Y-98717835D01*
X128571326Y-98717835D02*
X128619707Y-98669454D01*
X128619707Y-98669454D02*
X128668088Y-98572692D01*
X128668088Y-98572692D02*
X128668088Y-98427549D01*
X128668088Y-98427549D02*
X128619707Y-98330787D01*
X128619707Y-98330787D02*
X128522945Y-98282406D01*
X128522945Y-98282406D02*
X127990755Y-98282406D01*
X128522945Y-98282406D02*
X128619707Y-98234025D01*
X128619707Y-98234025D02*
X128668088Y-98137263D01*
X128668088Y-98137263D02*
X128668088Y-97992120D01*
X128668088Y-97992120D02*
X128619707Y-97895359D01*
X128619707Y-97895359D02*
X128522945Y-97846978D01*
X128522945Y-97846978D02*
X127990755Y-97846978D01*
X128039136Y-96976120D02*
X127990755Y-97072882D01*
X127990755Y-97072882D02*
X127990755Y-97266406D01*
X127990755Y-97266406D02*
X128039136Y-97363168D01*
X128039136Y-97363168D02*
X128135897Y-97411549D01*
X128135897Y-97411549D02*
X128522945Y-97411549D01*
X128522945Y-97411549D02*
X128619707Y-97363168D01*
X128619707Y-97363168D02*
X128668088Y-97266406D01*
X128668088Y-97266406D02*
X128668088Y-97072882D01*
X128668088Y-97072882D02*
X128619707Y-96976120D01*
X128619707Y-96976120D02*
X128522945Y-96927739D01*
X128522945Y-96927739D02*
X128426183Y-96927739D01*
X128426183Y-96927739D02*
X128329421Y-97411549D01*
X128039136Y-96443930D02*
X127990755Y-96443930D01*
X127990755Y-96443930D02*
X127893993Y-96492311D01*
X127893993Y-96492311D02*
X127845612Y-96540692D01*
X127990755Y-95234406D02*
X129006755Y-95234406D01*
X127990755Y-93831358D02*
X128039136Y-93928120D01*
X128039136Y-93928120D02*
X128135897Y-93976501D01*
X128135897Y-93976501D02*
X129006755Y-93976501D01*
X127990755Y-93444311D02*
X128668088Y-93444311D01*
X129006755Y-93444311D02*
X128958374Y-93492692D01*
X128958374Y-93492692D02*
X128909993Y-93444311D01*
X128909993Y-93444311D02*
X128958374Y-93395930D01*
X128958374Y-93395930D02*
X129006755Y-93444311D01*
X129006755Y-93444311D02*
X128909993Y-93444311D01*
X127990755Y-92960501D02*
X129006755Y-92960501D01*
X128377802Y-92863739D02*
X127990755Y-92573453D01*
X128668088Y-92573453D02*
X128281040Y-92960501D01*
X128039136Y-91750977D02*
X127990755Y-91847739D01*
X127990755Y-91847739D02*
X127990755Y-92041263D01*
X127990755Y-92041263D02*
X128039136Y-92138025D01*
X128039136Y-92138025D02*
X128135897Y-92186406D01*
X128135897Y-92186406D02*
X128522945Y-92186406D01*
X128522945Y-92186406D02*
X128619707Y-92138025D01*
X128619707Y-92138025D02*
X128668088Y-92041263D01*
X128668088Y-92041263D02*
X128668088Y-91847739D01*
X128668088Y-91847739D02*
X128619707Y-91750977D01*
X128619707Y-91750977D02*
X128522945Y-91702596D01*
X128522945Y-91702596D02*
X128426183Y-91702596D01*
X128426183Y-91702596D02*
X128329421Y-92186406D01*
X127990755Y-90493073D02*
X129006755Y-90493073D01*
X128619707Y-90493073D02*
X128668088Y-90396311D01*
X128668088Y-90396311D02*
X128668088Y-90202787D01*
X128668088Y-90202787D02*
X128619707Y-90106025D01*
X128619707Y-90106025D02*
X128571326Y-90057644D01*
X128571326Y-90057644D02*
X128474564Y-90009263D01*
X128474564Y-90009263D02*
X128184278Y-90009263D01*
X128184278Y-90009263D02*
X128087516Y-90057644D01*
X128087516Y-90057644D02*
X128039136Y-90106025D01*
X128039136Y-90106025D02*
X127990755Y-90202787D01*
X127990755Y-90202787D02*
X127990755Y-90396311D01*
X127990755Y-90396311D02*
X128039136Y-90493073D01*
X127990755Y-89573835D02*
X128668088Y-89573835D01*
X129006755Y-89573835D02*
X128958374Y-89622216D01*
X128958374Y-89622216D02*
X128909993Y-89573835D01*
X128909993Y-89573835D02*
X128958374Y-89525454D01*
X128958374Y-89525454D02*
X129006755Y-89573835D01*
X129006755Y-89573835D02*
X128909993Y-89573835D01*
X128668088Y-88654596D02*
X127845612Y-88654596D01*
X127845612Y-88654596D02*
X127748850Y-88702977D01*
X127748850Y-88702977D02*
X127700469Y-88751358D01*
X127700469Y-88751358D02*
X127652088Y-88848120D01*
X127652088Y-88848120D02*
X127652088Y-88993263D01*
X127652088Y-88993263D02*
X127700469Y-89090025D01*
X128039136Y-88654596D02*
X127990755Y-88751358D01*
X127990755Y-88751358D02*
X127990755Y-88944882D01*
X127990755Y-88944882D02*
X128039136Y-89041644D01*
X128039136Y-89041644D02*
X128087516Y-89090025D01*
X128087516Y-89090025D02*
X128184278Y-89138406D01*
X128184278Y-89138406D02*
X128474564Y-89138406D01*
X128474564Y-89138406D02*
X128571326Y-89090025D01*
X128571326Y-89090025D02*
X128619707Y-89041644D01*
X128619707Y-89041644D02*
X128668088Y-88944882D01*
X128668088Y-88944882D02*
X128668088Y-88751358D01*
X128668088Y-88751358D02*
X128619707Y-88654596D01*
X128668088Y-87735358D02*
X127845612Y-87735358D01*
X127845612Y-87735358D02*
X127748850Y-87783739D01*
X127748850Y-87783739D02*
X127700469Y-87832120D01*
X127700469Y-87832120D02*
X127652088Y-87928882D01*
X127652088Y-87928882D02*
X127652088Y-88074025D01*
X127652088Y-88074025D02*
X127700469Y-88170787D01*
X128039136Y-87735358D02*
X127990755Y-87832120D01*
X127990755Y-87832120D02*
X127990755Y-88025644D01*
X127990755Y-88025644D02*
X128039136Y-88122406D01*
X128039136Y-88122406D02*
X128087516Y-88170787D01*
X128087516Y-88170787D02*
X128184278Y-88219168D01*
X128184278Y-88219168D02*
X128474564Y-88219168D01*
X128474564Y-88219168D02*
X128571326Y-88170787D01*
X128571326Y-88170787D02*
X128619707Y-88122406D01*
X128619707Y-88122406D02*
X128668088Y-88025644D01*
X128668088Y-88025644D02*
X128668088Y-87832120D01*
X128668088Y-87832120D02*
X128619707Y-87735358D01*
X128039136Y-86864501D02*
X127990755Y-86961263D01*
X127990755Y-86961263D02*
X127990755Y-87154787D01*
X127990755Y-87154787D02*
X128039136Y-87251549D01*
X128039136Y-87251549D02*
X128135897Y-87299930D01*
X128135897Y-87299930D02*
X128522945Y-87299930D01*
X128522945Y-87299930D02*
X128619707Y-87251549D01*
X128619707Y-87251549D02*
X128668088Y-87154787D01*
X128668088Y-87154787D02*
X128668088Y-86961263D01*
X128668088Y-86961263D02*
X128619707Y-86864501D01*
X128619707Y-86864501D02*
X128522945Y-86816120D01*
X128522945Y-86816120D02*
X128426183Y-86816120D01*
X128426183Y-86816120D02*
X128329421Y-87299930D01*
X127990755Y-86380692D02*
X128668088Y-86380692D01*
X128474564Y-86380692D02*
X128571326Y-86332311D01*
X128571326Y-86332311D02*
X128619707Y-86283930D01*
X128619707Y-86283930D02*
X128668088Y-86187168D01*
X128668088Y-86187168D02*
X128668088Y-86090406D01*
X127990755Y-84832502D02*
X128039136Y-84929264D01*
X128039136Y-84929264D02*
X128087516Y-84977645D01*
X128087516Y-84977645D02*
X128184278Y-85026026D01*
X128184278Y-85026026D02*
X128474564Y-85026026D01*
X128474564Y-85026026D02*
X128571326Y-84977645D01*
X128571326Y-84977645D02*
X128619707Y-84929264D01*
X128619707Y-84929264D02*
X128668088Y-84832502D01*
X128668088Y-84832502D02*
X128668088Y-84687359D01*
X128668088Y-84687359D02*
X128619707Y-84590597D01*
X128619707Y-84590597D02*
X128571326Y-84542216D01*
X128571326Y-84542216D02*
X128474564Y-84493835D01*
X128474564Y-84493835D02*
X128184278Y-84493835D01*
X128184278Y-84493835D02*
X128087516Y-84542216D01*
X128087516Y-84542216D02*
X128039136Y-84590597D01*
X128039136Y-84590597D02*
X127990755Y-84687359D01*
X127990755Y-84687359D02*
X127990755Y-84832502D01*
X128668088Y-84058407D02*
X127990755Y-84058407D01*
X128571326Y-84058407D02*
X128619707Y-84010026D01*
X128619707Y-84010026D02*
X128668088Y-83913264D01*
X128668088Y-83913264D02*
X128668088Y-83768121D01*
X128668088Y-83768121D02*
X128619707Y-83671359D01*
X128619707Y-83671359D02*
X128522945Y-83622978D01*
X128522945Y-83622978D02*
X127990755Y-83622978D01*
X128039136Y-82752121D02*
X127990755Y-82848883D01*
X127990755Y-82848883D02*
X127990755Y-83042407D01*
X127990755Y-83042407D02*
X128039136Y-83139169D01*
X128039136Y-83139169D02*
X128135897Y-83187550D01*
X128135897Y-83187550D02*
X128522945Y-83187550D01*
X128522945Y-83187550D02*
X128619707Y-83139169D01*
X128619707Y-83139169D02*
X128668088Y-83042407D01*
X128668088Y-83042407D02*
X128668088Y-82848883D01*
X128668088Y-82848883D02*
X128619707Y-82752121D01*
X128619707Y-82752121D02*
X128522945Y-82703740D01*
X128522945Y-82703740D02*
X128426183Y-82703740D01*
X128426183Y-82703740D02*
X128329421Y-83187550D01*
X128039136Y-82316693D02*
X127990755Y-82219931D01*
X127990755Y-82219931D02*
X127990755Y-82026407D01*
X127990755Y-82026407D02*
X128039136Y-81929645D01*
X128039136Y-81929645D02*
X128135897Y-81881264D01*
X128135897Y-81881264D02*
X128184278Y-81881264D01*
X128184278Y-81881264D02*
X128281040Y-81929645D01*
X128281040Y-81929645D02*
X128329421Y-82026407D01*
X128329421Y-82026407D02*
X128329421Y-82171550D01*
X128329421Y-82171550D02*
X128377802Y-82268312D01*
X128377802Y-82268312D02*
X128474564Y-82316693D01*
X128474564Y-82316693D02*
X128522945Y-82316693D01*
X128522945Y-82316693D02*
X128619707Y-82268312D01*
X128619707Y-82268312D02*
X128668088Y-82171550D01*
X128668088Y-82171550D02*
X128668088Y-82026407D01*
X128668088Y-82026407D02*
X128619707Y-81929645D01*
X129006755Y-81494217D02*
X128813231Y-81494217D01*
X129006755Y-81107169D02*
X128813231Y-81107169D01*
X126742099Y-118021832D02*
X126742099Y-117247737D01*
X127371052Y-116038213D02*
X127177528Y-116038213D01*
X127371052Y-115651165D02*
X127177528Y-115651165D01*
X126355052Y-115215737D02*
X127371052Y-115215737D01*
X126355052Y-113812689D02*
X126403433Y-113909451D01*
X126403433Y-113909451D02*
X126500194Y-113957832D01*
X126500194Y-113957832D02*
X127371052Y-113957832D01*
X126355052Y-113425642D02*
X127032385Y-113425642D01*
X127371052Y-113425642D02*
X127322671Y-113474023D01*
X127322671Y-113474023D02*
X127274290Y-113425642D01*
X127274290Y-113425642D02*
X127322671Y-113377261D01*
X127322671Y-113377261D02*
X127371052Y-113425642D01*
X127371052Y-113425642D02*
X127274290Y-113425642D01*
X126355052Y-112941832D02*
X127371052Y-112941832D01*
X126742099Y-112845070D02*
X126355052Y-112554784D01*
X127032385Y-112554784D02*
X126645337Y-112941832D01*
X126403433Y-111732308D02*
X126355052Y-111829070D01*
X126355052Y-111829070D02*
X126355052Y-112022594D01*
X126355052Y-112022594D02*
X126403433Y-112119356D01*
X126403433Y-112119356D02*
X126500194Y-112167737D01*
X126500194Y-112167737D02*
X126887242Y-112167737D01*
X126887242Y-112167737D02*
X126984004Y-112119356D01*
X126984004Y-112119356D02*
X127032385Y-112022594D01*
X127032385Y-112022594D02*
X127032385Y-111829070D01*
X127032385Y-111829070D02*
X126984004Y-111732308D01*
X126984004Y-111732308D02*
X126887242Y-111683927D01*
X126887242Y-111683927D02*
X126790480Y-111683927D01*
X126790480Y-111683927D02*
X126693718Y-112167737D01*
X127032385Y-110619547D02*
X127032385Y-110232499D01*
X127371052Y-110474404D02*
X126500194Y-110474404D01*
X126500194Y-110474404D02*
X126403433Y-110426023D01*
X126403433Y-110426023D02*
X126355052Y-110329261D01*
X126355052Y-110329261D02*
X126355052Y-110232499D01*
X126355052Y-109893833D02*
X127371052Y-109893833D01*
X126355052Y-109458404D02*
X126887242Y-109458404D01*
X126887242Y-109458404D02*
X126984004Y-109506785D01*
X126984004Y-109506785D02*
X127032385Y-109603547D01*
X127032385Y-109603547D02*
X127032385Y-109748690D01*
X127032385Y-109748690D02*
X126984004Y-109845452D01*
X126984004Y-109845452D02*
X126935623Y-109893833D01*
X126355052Y-108974595D02*
X127032385Y-108974595D01*
X127371052Y-108974595D02*
X127322671Y-109022976D01*
X127322671Y-109022976D02*
X127274290Y-108974595D01*
X127274290Y-108974595D02*
X127322671Y-108926214D01*
X127322671Y-108926214D02*
X127371052Y-108974595D01*
X127371052Y-108974595D02*
X127274290Y-108974595D01*
X127032385Y-108490785D02*
X126355052Y-108490785D01*
X126935623Y-108490785D02*
X126984004Y-108442404D01*
X126984004Y-108442404D02*
X127032385Y-108345642D01*
X127032385Y-108345642D02*
X127032385Y-108200499D01*
X127032385Y-108200499D02*
X126984004Y-108103737D01*
X126984004Y-108103737D02*
X126887242Y-108055356D01*
X126887242Y-108055356D02*
X126355052Y-108055356D01*
X127032385Y-107136118D02*
X126209909Y-107136118D01*
X126209909Y-107136118D02*
X126113147Y-107184499D01*
X126113147Y-107184499D02*
X126064766Y-107232880D01*
X126064766Y-107232880D02*
X126016385Y-107329642D01*
X126016385Y-107329642D02*
X126016385Y-107474785D01*
X126016385Y-107474785D02*
X126064766Y-107571547D01*
X126403433Y-107136118D02*
X126355052Y-107232880D01*
X126355052Y-107232880D02*
X126355052Y-107426404D01*
X126355052Y-107426404D02*
X126403433Y-107523166D01*
X126403433Y-107523166D02*
X126451813Y-107571547D01*
X126451813Y-107571547D02*
X126548575Y-107619928D01*
X126548575Y-107619928D02*
X126838861Y-107619928D01*
X126838861Y-107619928D02*
X126935623Y-107571547D01*
X126935623Y-107571547D02*
X126984004Y-107523166D01*
X126984004Y-107523166D02*
X127032385Y-107426404D01*
X127032385Y-107426404D02*
X127032385Y-107232880D01*
X127032385Y-107232880D02*
X126984004Y-107136118D01*
X126403433Y-106700690D02*
X126355052Y-106603928D01*
X126355052Y-106603928D02*
X126355052Y-106410404D01*
X126355052Y-106410404D02*
X126403433Y-106313642D01*
X126403433Y-106313642D02*
X126500194Y-106265261D01*
X126500194Y-106265261D02*
X126548575Y-106265261D01*
X126548575Y-106265261D02*
X126645337Y-106313642D01*
X126645337Y-106313642D02*
X126693718Y-106410404D01*
X126693718Y-106410404D02*
X126693718Y-106555547D01*
X126693718Y-106555547D02*
X126742099Y-106652309D01*
X126742099Y-106652309D02*
X126838861Y-106700690D01*
X126838861Y-106700690D02*
X126887242Y-106700690D01*
X126887242Y-106700690D02*
X126984004Y-106652309D01*
X126984004Y-106652309D02*
X127032385Y-106555547D01*
X127032385Y-106555547D02*
X127032385Y-106410404D01*
X127032385Y-106410404D02*
X126984004Y-106313642D01*
X127032385Y-105152500D02*
X126355052Y-104910595D01*
X127032385Y-104668690D02*
X126355052Y-104910595D01*
X126355052Y-104910595D02*
X126113147Y-105007357D01*
X126113147Y-105007357D02*
X126064766Y-105055738D01*
X126064766Y-105055738D02*
X126016385Y-105152500D01*
X126355052Y-104136500D02*
X126403433Y-104233262D01*
X126403433Y-104233262D02*
X126451813Y-104281643D01*
X126451813Y-104281643D02*
X126548575Y-104330024D01*
X126548575Y-104330024D02*
X126838861Y-104330024D01*
X126838861Y-104330024D02*
X126935623Y-104281643D01*
X126935623Y-104281643D02*
X126984004Y-104233262D01*
X126984004Y-104233262D02*
X127032385Y-104136500D01*
X127032385Y-104136500D02*
X127032385Y-103991357D01*
X127032385Y-103991357D02*
X126984004Y-103894595D01*
X126984004Y-103894595D02*
X126935623Y-103846214D01*
X126935623Y-103846214D02*
X126838861Y-103797833D01*
X126838861Y-103797833D02*
X126548575Y-103797833D01*
X126548575Y-103797833D02*
X126451813Y-103846214D01*
X126451813Y-103846214D02*
X126403433Y-103894595D01*
X126403433Y-103894595D02*
X126355052Y-103991357D01*
X126355052Y-103991357D02*
X126355052Y-104136500D01*
X127032385Y-102926976D02*
X126355052Y-102926976D01*
X127032385Y-103362405D02*
X126500194Y-103362405D01*
X126500194Y-103362405D02*
X126403433Y-103314024D01*
X126403433Y-103314024D02*
X126355052Y-103217262D01*
X126355052Y-103217262D02*
X126355052Y-103072119D01*
X126355052Y-103072119D02*
X126403433Y-102975357D01*
X126403433Y-102975357D02*
X126451813Y-102926976D01*
X126403433Y-101233643D02*
X126355052Y-101330405D01*
X126355052Y-101330405D02*
X126355052Y-101523929D01*
X126355052Y-101523929D02*
X126403433Y-101620691D01*
X126403433Y-101620691D02*
X126451813Y-101669072D01*
X126451813Y-101669072D02*
X126548575Y-101717453D01*
X126548575Y-101717453D02*
X126838861Y-101717453D01*
X126838861Y-101717453D02*
X126935623Y-101669072D01*
X126935623Y-101669072D02*
X126984004Y-101620691D01*
X126984004Y-101620691D02*
X127032385Y-101523929D01*
X127032385Y-101523929D02*
X127032385Y-101330405D01*
X127032385Y-101330405D02*
X126984004Y-101233643D01*
X126355052Y-100362786D02*
X126887242Y-100362786D01*
X126887242Y-100362786D02*
X126984004Y-100411167D01*
X126984004Y-100411167D02*
X127032385Y-100507929D01*
X127032385Y-100507929D02*
X127032385Y-100701453D01*
X127032385Y-100701453D02*
X126984004Y-100798215D01*
X126403433Y-100362786D02*
X126355052Y-100459548D01*
X126355052Y-100459548D02*
X126355052Y-100701453D01*
X126355052Y-100701453D02*
X126403433Y-100798215D01*
X126403433Y-100798215D02*
X126500194Y-100846596D01*
X126500194Y-100846596D02*
X126596956Y-100846596D01*
X126596956Y-100846596D02*
X126693718Y-100798215D01*
X126693718Y-100798215D02*
X126742099Y-100701453D01*
X126742099Y-100701453D02*
X126742099Y-100459548D01*
X126742099Y-100459548D02*
X126790480Y-100362786D01*
X127032385Y-99878977D02*
X126355052Y-99878977D01*
X126935623Y-99878977D02*
X126984004Y-99830596D01*
X126984004Y-99830596D02*
X127032385Y-99733834D01*
X127032385Y-99733834D02*
X127032385Y-99588691D01*
X127032385Y-99588691D02*
X126984004Y-99491929D01*
X126984004Y-99491929D02*
X126887242Y-99443548D01*
X126887242Y-99443548D02*
X126355052Y-99443548D01*
X126403433Y-97798596D02*
X126355052Y-97895358D01*
X126355052Y-97895358D02*
X126355052Y-98088882D01*
X126355052Y-98088882D02*
X126403433Y-98185644D01*
X126403433Y-98185644D02*
X126500194Y-98234025D01*
X126500194Y-98234025D02*
X126887242Y-98234025D01*
X126887242Y-98234025D02*
X126984004Y-98185644D01*
X126984004Y-98185644D02*
X127032385Y-98088882D01*
X127032385Y-98088882D02*
X127032385Y-97895358D01*
X127032385Y-97895358D02*
X126984004Y-97798596D01*
X126984004Y-97798596D02*
X126887242Y-97750215D01*
X126887242Y-97750215D02*
X126790480Y-97750215D01*
X126790480Y-97750215D02*
X126693718Y-98234025D01*
X126355052Y-96879358D02*
X126887242Y-96879358D01*
X126887242Y-96879358D02*
X126984004Y-96927739D01*
X126984004Y-96927739D02*
X127032385Y-97024501D01*
X127032385Y-97024501D02*
X127032385Y-97218025D01*
X127032385Y-97218025D02*
X126984004Y-97314787D01*
X126403433Y-96879358D02*
X126355052Y-96976120D01*
X126355052Y-96976120D02*
X126355052Y-97218025D01*
X126355052Y-97218025D02*
X126403433Y-97314787D01*
X126403433Y-97314787D02*
X126500194Y-97363168D01*
X126500194Y-97363168D02*
X126596956Y-97363168D01*
X126596956Y-97363168D02*
X126693718Y-97314787D01*
X126693718Y-97314787D02*
X126742099Y-97218025D01*
X126742099Y-97218025D02*
X126742099Y-96976120D01*
X126742099Y-96976120D02*
X126790480Y-96879358D01*
X127032385Y-96540692D02*
X127032385Y-96153644D01*
X127371052Y-96395549D02*
X126500194Y-96395549D01*
X126500194Y-96395549D02*
X126403433Y-96347168D01*
X126403433Y-96347168D02*
X126355052Y-96250406D01*
X126355052Y-96250406D02*
X126355052Y-96153644D01*
X127371052Y-95863359D02*
X127177528Y-95863359D01*
X127371052Y-95476311D02*
X127177528Y-95476311D01*
X125106396Y-118021832D02*
X125106396Y-117247737D01*
X125735349Y-116038213D02*
X125541825Y-116038213D01*
X125735349Y-115651165D02*
X125541825Y-115651165D01*
X124719349Y-115215737D02*
X125735349Y-115215737D01*
X124719349Y-113812689D02*
X124767730Y-113909451D01*
X124767730Y-113909451D02*
X124864491Y-113957832D01*
X124864491Y-113957832D02*
X125735349Y-113957832D01*
X124719349Y-113425642D02*
X125396682Y-113425642D01*
X125735349Y-113425642D02*
X125686968Y-113474023D01*
X125686968Y-113474023D02*
X125638587Y-113425642D01*
X125638587Y-113425642D02*
X125686968Y-113377261D01*
X125686968Y-113377261D02*
X125735349Y-113425642D01*
X125735349Y-113425642D02*
X125638587Y-113425642D01*
X124719349Y-112941832D02*
X125735349Y-112941832D01*
X125106396Y-112845070D02*
X124719349Y-112554784D01*
X125396682Y-112554784D02*
X125009634Y-112941832D01*
X124767730Y-111732308D02*
X124719349Y-111829070D01*
X124719349Y-111829070D02*
X124719349Y-112022594D01*
X124719349Y-112022594D02*
X124767730Y-112119356D01*
X124767730Y-112119356D02*
X124864491Y-112167737D01*
X124864491Y-112167737D02*
X125251539Y-112167737D01*
X125251539Y-112167737D02*
X125348301Y-112119356D01*
X125348301Y-112119356D02*
X125396682Y-112022594D01*
X125396682Y-112022594D02*
X125396682Y-111829070D01*
X125396682Y-111829070D02*
X125348301Y-111732308D01*
X125348301Y-111732308D02*
X125251539Y-111683927D01*
X125251539Y-111683927D02*
X125154777Y-111683927D01*
X125154777Y-111683927D02*
X125058015Y-112167737D01*
X124719349Y-110038975D02*
X125251539Y-110038975D01*
X125251539Y-110038975D02*
X125348301Y-110087356D01*
X125348301Y-110087356D02*
X125396682Y-110184118D01*
X125396682Y-110184118D02*
X125396682Y-110377642D01*
X125396682Y-110377642D02*
X125348301Y-110474404D01*
X124767730Y-110038975D02*
X124719349Y-110135737D01*
X124719349Y-110135737D02*
X124719349Y-110377642D01*
X124719349Y-110377642D02*
X124767730Y-110474404D01*
X124767730Y-110474404D02*
X124864491Y-110522785D01*
X124864491Y-110522785D02*
X124961253Y-110522785D01*
X124961253Y-110522785D02*
X125058015Y-110474404D01*
X125058015Y-110474404D02*
X125106396Y-110377642D01*
X125106396Y-110377642D02*
X125106396Y-110135737D01*
X125106396Y-110135737D02*
X125154777Y-110038975D01*
X124719349Y-108635928D02*
X124767730Y-108732690D01*
X124767730Y-108732690D02*
X124864491Y-108781071D01*
X124864491Y-108781071D02*
X125735349Y-108781071D01*
X124719349Y-108103738D02*
X124767730Y-108200500D01*
X124767730Y-108200500D02*
X124816110Y-108248881D01*
X124816110Y-108248881D02*
X124912872Y-108297262D01*
X124912872Y-108297262D02*
X125203158Y-108297262D01*
X125203158Y-108297262D02*
X125299920Y-108248881D01*
X125299920Y-108248881D02*
X125348301Y-108200500D01*
X125348301Y-108200500D02*
X125396682Y-108103738D01*
X125396682Y-108103738D02*
X125396682Y-107958595D01*
X125396682Y-107958595D02*
X125348301Y-107861833D01*
X125348301Y-107861833D02*
X125299920Y-107813452D01*
X125299920Y-107813452D02*
X125203158Y-107765071D01*
X125203158Y-107765071D02*
X124912872Y-107765071D01*
X124912872Y-107765071D02*
X124816110Y-107813452D01*
X124816110Y-107813452D02*
X124767730Y-107861833D01*
X124767730Y-107861833D02*
X124719349Y-107958595D01*
X124719349Y-107958595D02*
X124719349Y-108103738D01*
X125396682Y-107474786D02*
X125396682Y-107087738D01*
X125735349Y-107329643D02*
X124864491Y-107329643D01*
X124864491Y-107329643D02*
X124767730Y-107281262D01*
X124767730Y-107281262D02*
X124719349Y-107184500D01*
X124719349Y-107184500D02*
X124719349Y-107087738D01*
X124719349Y-105829834D02*
X124767730Y-105926596D01*
X124767730Y-105926596D02*
X124816110Y-105974977D01*
X124816110Y-105974977D02*
X124912872Y-106023358D01*
X124912872Y-106023358D02*
X125203158Y-106023358D01*
X125203158Y-106023358D02*
X125299920Y-105974977D01*
X125299920Y-105974977D02*
X125348301Y-105926596D01*
X125348301Y-105926596D02*
X125396682Y-105829834D01*
X125396682Y-105829834D02*
X125396682Y-105684691D01*
X125396682Y-105684691D02*
X125348301Y-105587929D01*
X125348301Y-105587929D02*
X125299920Y-105539548D01*
X125299920Y-105539548D02*
X125203158Y-105491167D01*
X125203158Y-105491167D02*
X124912872Y-105491167D01*
X124912872Y-105491167D02*
X124816110Y-105539548D01*
X124816110Y-105539548D02*
X124767730Y-105587929D01*
X124767730Y-105587929D02*
X124719349Y-105684691D01*
X124719349Y-105684691D02*
X124719349Y-105829834D01*
X125396682Y-105200882D02*
X125396682Y-104813834D01*
X124719349Y-105055739D02*
X125590206Y-105055739D01*
X125590206Y-105055739D02*
X125686968Y-105007358D01*
X125686968Y-105007358D02*
X125735349Y-104910596D01*
X125735349Y-104910596D02*
X125735349Y-104813834D01*
X124719349Y-103701073D02*
X125735349Y-103701073D01*
X125348301Y-103701073D02*
X125396682Y-103604311D01*
X125396682Y-103604311D02*
X125396682Y-103410787D01*
X125396682Y-103410787D02*
X125348301Y-103314025D01*
X125348301Y-103314025D02*
X125299920Y-103265644D01*
X125299920Y-103265644D02*
X125203158Y-103217263D01*
X125203158Y-103217263D02*
X124912872Y-103217263D01*
X124912872Y-103217263D02*
X124816110Y-103265644D01*
X124816110Y-103265644D02*
X124767730Y-103314025D01*
X124767730Y-103314025D02*
X124719349Y-103410787D01*
X124719349Y-103410787D02*
X124719349Y-103604311D01*
X124719349Y-103604311D02*
X124767730Y-103701073D01*
X124719349Y-102636692D02*
X124767730Y-102733454D01*
X124767730Y-102733454D02*
X124864491Y-102781835D01*
X124864491Y-102781835D02*
X125735349Y-102781835D01*
X125396682Y-101814216D02*
X124719349Y-101814216D01*
X125396682Y-102249645D02*
X124864491Y-102249645D01*
X124864491Y-102249645D02*
X124767730Y-102201264D01*
X124767730Y-102201264D02*
X124719349Y-102104502D01*
X124719349Y-102104502D02*
X124719349Y-101959359D01*
X124719349Y-101959359D02*
X124767730Y-101862597D01*
X124767730Y-101862597D02*
X124816110Y-101814216D01*
X124767730Y-100943359D02*
X124719349Y-101040121D01*
X124719349Y-101040121D02*
X124719349Y-101233645D01*
X124719349Y-101233645D02*
X124767730Y-101330407D01*
X124767730Y-101330407D02*
X124864491Y-101378788D01*
X124864491Y-101378788D02*
X125251539Y-101378788D01*
X125251539Y-101378788D02*
X125348301Y-101330407D01*
X125348301Y-101330407D02*
X125396682Y-101233645D01*
X125396682Y-101233645D02*
X125396682Y-101040121D01*
X125396682Y-101040121D02*
X125348301Y-100943359D01*
X125348301Y-100943359D02*
X125251539Y-100894978D01*
X125251539Y-100894978D02*
X125154777Y-100894978D01*
X125154777Y-100894978D02*
X125058015Y-101378788D01*
X125735349Y-100507931D02*
X125541825Y-100507931D01*
X125735349Y-100120883D02*
X125541825Y-100120883D01*
X124099646Y-118166975D02*
X124099646Y-117586403D01*
X123083646Y-117876689D02*
X124099646Y-117876689D01*
X123083646Y-117247737D02*
X124099646Y-117247737D01*
X123083646Y-116812308D02*
X123615836Y-116812308D01*
X123615836Y-116812308D02*
X123712598Y-116860689D01*
X123712598Y-116860689D02*
X123760979Y-116957451D01*
X123760979Y-116957451D02*
X123760979Y-117102594D01*
X123760979Y-117102594D02*
X123712598Y-117199356D01*
X123712598Y-117199356D02*
X123664217Y-117247737D01*
X123083646Y-116328499D02*
X123760979Y-116328499D01*
X124099646Y-116328499D02*
X124051265Y-116376880D01*
X124051265Y-116376880D02*
X124002884Y-116328499D01*
X124002884Y-116328499D02*
X124051265Y-116280118D01*
X124051265Y-116280118D02*
X124099646Y-116328499D01*
X124099646Y-116328499D02*
X124002884Y-116328499D01*
X123132027Y-115893070D02*
X123083646Y-115796308D01*
X123083646Y-115796308D02*
X123083646Y-115602784D01*
X123083646Y-115602784D02*
X123132027Y-115506022D01*
X123132027Y-115506022D02*
X123228788Y-115457641D01*
X123228788Y-115457641D02*
X123277169Y-115457641D01*
X123277169Y-115457641D02*
X123373931Y-115506022D01*
X123373931Y-115506022D02*
X123422312Y-115602784D01*
X123422312Y-115602784D02*
X123422312Y-115747927D01*
X123422312Y-115747927D02*
X123470693Y-115844689D01*
X123470693Y-115844689D02*
X123567455Y-115893070D01*
X123567455Y-115893070D02*
X123615836Y-115893070D01*
X123615836Y-115893070D02*
X123712598Y-115844689D01*
X123712598Y-115844689D02*
X123760979Y-115747927D01*
X123760979Y-115747927D02*
X123760979Y-115602784D01*
X123760979Y-115602784D02*
X123712598Y-115506022D01*
X123083646Y-114248118D02*
X123760979Y-114248118D01*
X124099646Y-114248118D02*
X124051265Y-114296499D01*
X124051265Y-114296499D02*
X124002884Y-114248118D01*
X124002884Y-114248118D02*
X124051265Y-114199737D01*
X124051265Y-114199737D02*
X124099646Y-114248118D01*
X124099646Y-114248118D02*
X124002884Y-114248118D01*
X123132027Y-113812689D02*
X123083646Y-113715927D01*
X123083646Y-113715927D02*
X123083646Y-113522403D01*
X123083646Y-113522403D02*
X123132027Y-113425641D01*
X123132027Y-113425641D02*
X123228788Y-113377260D01*
X123228788Y-113377260D02*
X123277169Y-113377260D01*
X123277169Y-113377260D02*
X123373931Y-113425641D01*
X123373931Y-113425641D02*
X123422312Y-113522403D01*
X123422312Y-113522403D02*
X123422312Y-113667546D01*
X123422312Y-113667546D02*
X123470693Y-113764308D01*
X123470693Y-113764308D02*
X123567455Y-113812689D01*
X123567455Y-113812689D02*
X123615836Y-113812689D01*
X123615836Y-113812689D02*
X123712598Y-113764308D01*
X123712598Y-113764308D02*
X123760979Y-113667546D01*
X123760979Y-113667546D02*
X123760979Y-113522403D01*
X123760979Y-113522403D02*
X123712598Y-113425641D01*
X123083646Y-111732308D02*
X123615836Y-111732308D01*
X123615836Y-111732308D02*
X123712598Y-111780689D01*
X123712598Y-111780689D02*
X123760979Y-111877451D01*
X123760979Y-111877451D02*
X123760979Y-112070975D01*
X123760979Y-112070975D02*
X123712598Y-112167737D01*
X123132027Y-111732308D02*
X123083646Y-111829070D01*
X123083646Y-111829070D02*
X123083646Y-112070975D01*
X123083646Y-112070975D02*
X123132027Y-112167737D01*
X123132027Y-112167737D02*
X123228788Y-112216118D01*
X123228788Y-112216118D02*
X123325550Y-112216118D01*
X123325550Y-112216118D02*
X123422312Y-112167737D01*
X123422312Y-112167737D02*
X123470693Y-112070975D01*
X123470693Y-112070975D02*
X123470693Y-111829070D01*
X123470693Y-111829070D02*
X123519074Y-111732308D01*
X123083646Y-111248499D02*
X123760979Y-111248499D01*
X123567455Y-111248499D02*
X123664217Y-111200118D01*
X123664217Y-111200118D02*
X123712598Y-111151737D01*
X123712598Y-111151737D02*
X123760979Y-111054975D01*
X123760979Y-111054975D02*
X123760979Y-110958213D01*
X123760979Y-110764690D02*
X123760979Y-110377642D01*
X124099646Y-110619547D02*
X123228788Y-110619547D01*
X123228788Y-110619547D02*
X123132027Y-110571166D01*
X123132027Y-110571166D02*
X123083646Y-110474404D01*
X123083646Y-110474404D02*
X123083646Y-110377642D01*
X123180407Y-110038976D02*
X123132027Y-109990595D01*
X123132027Y-109990595D02*
X123083646Y-110038976D01*
X123083646Y-110038976D02*
X123132027Y-110087357D01*
X123132027Y-110087357D02*
X123180407Y-110038976D01*
X123180407Y-110038976D02*
X123083646Y-110038976D01*
D11*
G36*
X120778037Y-108142993D02*
G01*
X118104191Y-108142993D01*
X118104191Y-108023238D01*
X118193080Y-108023238D01*
X118220140Y-108050298D01*
X118239274Y-108054104D01*
X118735034Y-108050435D01*
X118750531Y-108051469D01*
X118751854Y-108050311D01*
X118753646Y-108050298D01*
X118766083Y-108037861D01*
X118779331Y-108026269D01*
X118779449Y-108024494D01*
X118780706Y-108023238D01*
X119335937Y-108023238D01*
X119362997Y-108050298D01*
X119382131Y-108054104D01*
X119877891Y-108050435D01*
X119893388Y-108051469D01*
X119894711Y-108050311D01*
X119896503Y-108050298D01*
X119908940Y-108037861D01*
X119922188Y-108026269D01*
X119922306Y-108024494D01*
X119923563Y-108023238D01*
X119923563Y-108007648D01*
X120056067Y-108007648D01*
X120073181Y-108041877D01*
X120109485Y-108053978D01*
X120143714Y-108036864D01*
X120153375Y-108019915D01*
X120371318Y-107356338D01*
X120601501Y-108036864D01*
X120635730Y-108053978D01*
X120672034Y-108041877D01*
X120689148Y-108007648D01*
X120686708Y-107988293D01*
X120421388Y-107203888D01*
X120422482Y-107200560D01*
X120415622Y-107186841D01*
X120410381Y-107171344D01*
X120407038Y-107169673D01*
X120405368Y-107166331D01*
X120390328Y-107161317D01*
X120376152Y-107154230D01*
X120372608Y-107155411D01*
X120369064Y-107154230D01*
X120354887Y-107161317D01*
X120339848Y-107166331D01*
X120338177Y-107169673D01*
X120334835Y-107171344D01*
X120325174Y-107188293D01*
X120056067Y-108007648D01*
X119923563Y-108007648D01*
X119923563Y-108005647D01*
X119924734Y-107988085D01*
X119923563Y-107986051D01*
X119923563Y-107984970D01*
X119922094Y-107983501D01*
X119914998Y-107971179D01*
X119714705Y-107746375D01*
X119719591Y-107746235D01*
X119728532Y-107749216D01*
X119741719Y-107745604D01*
X119744122Y-107745536D01*
X119744933Y-107744724D01*
X119747348Y-107744063D01*
X119814367Y-107707441D01*
X119820313Y-107707441D01*
X119836534Y-107696602D01*
X119838795Y-107694092D01*
X119838951Y-107694007D01*
X119838997Y-107693867D01*
X119867236Y-107662523D01*
X119872034Y-107660924D01*
X119883995Y-107645512D01*
X119885457Y-107642298D01*
X119885468Y-107642287D01*
X119885468Y-107642276D01*
X119917291Y-107572366D01*
X119923563Y-107566095D01*
X119926214Y-107552763D01*
X119927243Y-107550505D01*
X119926880Y-107549417D01*
X119927369Y-107546961D01*
X119924021Y-107362604D01*
X119927243Y-107352940D01*
X119923604Y-107339655D01*
X119923563Y-107337351D01*
X119922751Y-107336539D01*
X119922090Y-107334124D01*
X119885468Y-107267106D01*
X119885468Y-107261160D01*
X119874629Y-107244939D01*
X119872119Y-107242677D01*
X119872034Y-107242522D01*
X119871894Y-107242475D01*
X119840550Y-107214237D01*
X119838951Y-107209440D01*
X119823540Y-107197479D01*
X119820321Y-107196014D01*
X119820313Y-107196006D01*
X119820304Y-107196006D01*
X119750393Y-107164181D01*
X119744122Y-107157910D01*
X119730792Y-107155258D01*
X119728533Y-107154230D01*
X119727444Y-107154592D01*
X119724988Y-107154104D01*
X119502739Y-107157518D01*
X119492872Y-107154230D01*
X119479562Y-107157874D01*
X119477283Y-107157910D01*
X119476471Y-107158721D01*
X119474056Y-107159383D01*
X119407037Y-107196006D01*
X119401091Y-107196006D01*
X119384870Y-107206845D01*
X119382608Y-107209354D01*
X119382453Y-107209440D01*
X119382406Y-107209579D01*
X119335937Y-107261161D01*
X119335937Y-107299429D01*
X119362997Y-107326489D01*
X119401265Y-107326489D01*
X119417486Y-107315650D01*
X119444126Y-107286079D01*
X119502820Y-107254005D01*
X119707112Y-107250866D01*
X119765910Y-107277632D01*
X119795394Y-107304195D01*
X119827485Y-107362922D01*
X119830506Y-107529303D01*
X119803842Y-107587881D01*
X119777278Y-107617366D01*
X119718421Y-107649529D01*
X119606043Y-107652735D01*
X119594684Y-107651978D01*
X119593406Y-107653095D01*
X119591569Y-107653148D01*
X119579128Y-107665588D01*
X119565884Y-107677177D01*
X119565765Y-107678951D01*
X119564509Y-107680208D01*
X119564509Y-107697806D01*
X119563339Y-107715361D01*
X119564509Y-107717392D01*
X119564509Y-107718476D01*
X119565979Y-107719946D01*
X119573074Y-107732267D01*
X119771422Y-107954887D01*
X119362997Y-107957910D01*
X119335937Y-107984970D01*
X119335937Y-108023238D01*
X118780706Y-108023238D01*
X118780706Y-108005647D01*
X118781877Y-107988085D01*
X118780706Y-107986051D01*
X118780706Y-107984970D01*
X118779237Y-107983501D01*
X118772141Y-107971179D01*
X118571848Y-107746375D01*
X118576734Y-107746235D01*
X118585675Y-107749216D01*
X118598862Y-107745604D01*
X118601265Y-107745536D01*
X118602076Y-107744724D01*
X118604491Y-107744063D01*
X118671510Y-107707441D01*
X118677456Y-107707441D01*
X118693677Y-107696602D01*
X118695938Y-107694092D01*
X118696094Y-107694007D01*
X118696140Y-107693867D01*
X118724379Y-107662523D01*
X118729177Y-107660924D01*
X118741138Y-107645512D01*
X118742600Y-107642298D01*
X118742611Y-107642287D01*
X118742611Y-107642276D01*
X118774434Y-107572366D01*
X118780706Y-107566095D01*
X118783357Y-107552763D01*
X118784386Y-107550505D01*
X118784023Y-107549417D01*
X118784512Y-107546961D01*
X118781164Y-107362604D01*
X118784386Y-107352940D01*
X118780747Y-107339655D01*
X118780706Y-107337351D01*
X118779894Y-107336539D01*
X118779233Y-107334124D01*
X118742611Y-107267106D01*
X118742611Y-107261335D01*
X118993080Y-107261335D01*
X119003919Y-107277556D01*
X119058236Y-107326489D01*
X119096504Y-107326489D01*
X119112725Y-107315650D01*
X119161659Y-107261335D01*
X119161659Y-107223066D01*
X119150821Y-107206845D01*
X119096505Y-107157910D01*
X119096504Y-107157910D01*
X119058236Y-107157910D01*
X119042015Y-107168749D01*
X118993080Y-107223066D01*
X118993080Y-107261335D01*
X118742611Y-107261335D01*
X118742611Y-107261160D01*
X118731772Y-107244939D01*
X118729262Y-107242677D01*
X118729177Y-107242522D01*
X118729037Y-107242475D01*
X118697693Y-107214237D01*
X118696094Y-107209440D01*
X118680683Y-107197479D01*
X118677464Y-107196014D01*
X118677456Y-107196006D01*
X118677447Y-107196006D01*
X118607536Y-107164181D01*
X118601265Y-107157910D01*
X118587935Y-107155258D01*
X118585676Y-107154230D01*
X118584587Y-107154592D01*
X118582131Y-107154104D01*
X118359882Y-107157518D01*
X118350015Y-107154230D01*
X118336705Y-107157874D01*
X118334426Y-107157910D01*
X118333614Y-107158721D01*
X118331199Y-107159383D01*
X118264180Y-107196006D01*
X118258234Y-107196006D01*
X118242013Y-107206845D01*
X118239751Y-107209354D01*
X118239596Y-107209440D01*
X118239549Y-107209579D01*
X118193080Y-107261161D01*
X118193080Y-107299429D01*
X118220140Y-107326489D01*
X118258408Y-107326489D01*
X118274629Y-107315650D01*
X118301269Y-107286079D01*
X118359963Y-107254005D01*
X118564255Y-107250866D01*
X118623053Y-107277632D01*
X118652537Y-107304195D01*
X118684628Y-107362922D01*
X118687649Y-107529303D01*
X118660985Y-107587881D01*
X118634421Y-107617366D01*
X118575564Y-107649529D01*
X118463186Y-107652735D01*
X118451827Y-107651978D01*
X118450549Y-107653095D01*
X118448712Y-107653148D01*
X118436271Y-107665588D01*
X118423027Y-107677177D01*
X118422908Y-107678951D01*
X118421652Y-107680208D01*
X118421652Y-107697806D01*
X118420482Y-107715361D01*
X118421652Y-107717392D01*
X118421652Y-107718476D01*
X118423122Y-107719946D01*
X118430217Y-107732267D01*
X118628565Y-107954887D01*
X118220140Y-107957910D01*
X118193080Y-107984970D01*
X118193080Y-108023238D01*
X118104191Y-108023238D01*
X118104191Y-107065215D01*
X120778037Y-107065215D01*
X120778037Y-108142993D01*
G37*
D13*
G36*
X113166956Y-107639229D02*
G01*
X113168046Y-107794398D01*
X113134795Y-107862927D01*
X113104550Y-107894255D01*
X113035827Y-107929644D01*
X112785508Y-107930845D01*
X112716823Y-107897518D01*
X112685495Y-107867272D01*
X112650070Y-107798482D01*
X112648980Y-107643314D01*
X112668557Y-107602966D01*
X113147851Y-107602128D01*
X113166956Y-107639229D01*
G37*
G36*
X113100205Y-103825908D02*
G01*
X113131532Y-103856152D01*
X113166956Y-103924943D01*
X113168046Y-104080112D01*
X113148376Y-104120652D01*
X112669194Y-104121332D01*
X112650070Y-104084196D01*
X112648980Y-103929028D01*
X112682232Y-103860498D01*
X112712477Y-103829170D01*
X112781200Y-103793781D01*
X113031519Y-103792580D01*
X113100205Y-103825908D01*
G37*
G36*
X113100205Y-101587813D02*
G01*
X113131532Y-101618057D01*
X113166990Y-101686914D01*
X113167975Y-101794546D01*
X113134795Y-101862927D01*
X113104550Y-101894255D01*
X113035827Y-101929644D01*
X112785508Y-101930845D01*
X112716823Y-101897518D01*
X112685495Y-101867272D01*
X112650036Y-101798417D01*
X112649051Y-101690786D01*
X112682232Y-101622403D01*
X112712477Y-101591075D01*
X112781200Y-101555686D01*
X113031519Y-101554485D01*
X113100205Y-101587813D01*
G37*
G36*
X113305902Y-98215654D02*
G01*
X113385712Y-98254379D01*
X113461437Y-98328658D01*
X113500228Y-98441734D01*
X113501110Y-98596342D01*
X112649759Y-98597551D01*
X112648912Y-98448885D01*
X112686651Y-98332288D01*
X112759442Y-98258079D01*
X112834577Y-98219388D01*
X113008007Y-98174770D01*
X113132779Y-98173628D01*
X113305902Y-98215654D01*
G37*
G36*
X112883796Y-97318095D02*
G01*
X112883605Y-97320782D01*
X112882574Y-97323272D01*
X112881133Y-97337904D01*
X112882377Y-97556211D01*
X112853832Y-97615041D01*
X112797474Y-97644063D01*
X112737313Y-97644852D01*
X112678994Y-97616555D01*
X112650091Y-97560428D01*
X112648935Y-97357693D01*
X112668478Y-97317416D01*
X112884405Y-97316838D01*
X112883796Y-97318095D01*
G37*
G36*
X113100205Y-93159242D02*
G01*
X113131532Y-93189486D01*
X113166990Y-93258343D01*
X113167975Y-93365975D01*
X113134795Y-93434356D01*
X113104550Y-93465684D01*
X113035827Y-93501073D01*
X112785508Y-93502274D01*
X112716823Y-93468947D01*
X112685495Y-93438701D01*
X112650036Y-93369846D01*
X112649051Y-93262215D01*
X112682232Y-93193832D01*
X112712477Y-93162504D01*
X112781200Y-93127115D01*
X113031519Y-93125914D01*
X113100205Y-93159242D01*
G37*
G36*
X113808911Y-108190681D02*
G01*
X112055736Y-108190681D01*
X112055736Y-107718856D01*
X112166847Y-107718856D01*
X112168051Y-107850485D01*
X112167436Y-107852332D01*
X112168161Y-107862546D01*
X112168288Y-107876345D01*
X112169319Y-107878834D01*
X112169510Y-107881522D01*
X112174765Y-107895254D01*
X112230216Y-108002935D01*
X112252324Y-108022108D01*
X112280085Y-108031362D01*
X112309275Y-108029288D01*
X112335450Y-108016200D01*
X112354623Y-107994093D01*
X112363877Y-107966331D01*
X112361803Y-107937141D01*
X112356548Y-107923410D01*
X112316703Y-107846035D01*
X112315718Y-107738403D01*
X112348899Y-107670021D01*
X112379143Y-107638694D01*
X112447774Y-107603352D01*
X112503110Y-107603256D01*
X112502843Y-107603808D01*
X112502651Y-107606497D01*
X112501621Y-107608986D01*
X112500180Y-107623618D01*
X112501438Y-107802706D01*
X112500769Y-107804714D01*
X112501527Y-107815386D01*
X112501621Y-107828726D01*
X112502651Y-107831214D01*
X112502843Y-107833904D01*
X112508098Y-107847636D01*
X112556790Y-107942188D01*
X112560440Y-107951000D01*
X112562823Y-107953904D01*
X112563551Y-107955317D01*
X112565049Y-107956616D01*
X112569767Y-107962365D01*
X112618802Y-108009706D01*
X112624435Y-108016201D01*
X112627580Y-108018180D01*
X112628751Y-108019311D01*
X112630578Y-108020068D01*
X112636878Y-108024033D01*
X112722767Y-108065708D01*
X112723989Y-108066930D01*
X112732848Y-108070599D01*
X112745847Y-108076907D01*
X112748536Y-108077098D01*
X112751025Y-108078129D01*
X112765657Y-108079570D01*
X113039811Y-108078254D01*
X113041990Y-108078981D01*
X113053110Y-108078190D01*
X113066003Y-108078129D01*
X113068492Y-108077097D01*
X113071180Y-108076907D01*
X113084912Y-108071652D01*
X113179468Y-108022959D01*
X113188277Y-108019311D01*
X113191179Y-108016928D01*
X113192593Y-108016201D01*
X113193892Y-108014702D01*
X113199642Y-108009984D01*
X113246983Y-107960948D01*
X113253478Y-107955316D01*
X113255457Y-107952170D01*
X113256588Y-107951000D01*
X113257345Y-107949172D01*
X113261310Y-107942873D01*
X113302985Y-107856983D01*
X113304207Y-107855762D01*
X113307876Y-107846902D01*
X113314184Y-107833904D01*
X113314375Y-107831214D01*
X113315406Y-107828726D01*
X113316847Y-107814094D01*
X113315588Y-107635005D01*
X113316258Y-107632998D01*
X113315499Y-107622325D01*
X113315406Y-107608986D01*
X113314375Y-107606497D01*
X113314184Y-107603808D01*
X113308929Y-107590077D01*
X113300515Y-107573739D01*
X113304207Y-107570048D01*
X113315406Y-107543012D01*
X113315406Y-107513748D01*
X113304207Y-107486712D01*
X113283515Y-107466020D01*
X113256479Y-107454821D01*
X113241847Y-107453380D01*
X112620422Y-107454466D01*
X112613420Y-107453969D01*
X112611882Y-107454481D01*
X112444120Y-107454774D01*
X112441703Y-107453969D01*
X112430015Y-107454799D01*
X112417691Y-107454821D01*
X112415202Y-107455851D01*
X112412513Y-107456043D01*
X112398782Y-107461298D01*
X112304227Y-107509989D01*
X112295417Y-107513639D01*
X112292514Y-107516021D01*
X112291101Y-107516749D01*
X112289801Y-107518247D01*
X112284052Y-107522966D01*
X112236710Y-107572001D01*
X112230216Y-107577634D01*
X112228236Y-107580779D01*
X112227106Y-107581950D01*
X112226348Y-107583777D01*
X112222384Y-107590077D01*
X112180709Y-107675965D01*
X112179487Y-107677188D01*
X112175814Y-107686053D01*
X112169510Y-107699047D01*
X112169319Y-107701734D01*
X112168288Y-107704224D01*
X112166847Y-107718856D01*
X112055736Y-107718856D01*
X112055736Y-107066821D01*
X112501621Y-107066821D01*
X112512820Y-107093857D01*
X112533512Y-107114549D01*
X112560548Y-107125748D01*
X112575180Y-107127189D01*
X113256479Y-107125748D01*
X113283515Y-107114549D01*
X113304207Y-107093857D01*
X113315406Y-107066821D01*
X113315406Y-107066820D01*
X113406383Y-107066820D01*
X113417582Y-107093857D01*
X113426909Y-107105222D01*
X113485893Y-107162168D01*
X113512929Y-107173367D01*
X113512930Y-107173367D01*
X113542192Y-107173367D01*
X113569229Y-107162168D01*
X113580594Y-107152841D01*
X113637540Y-107093857D01*
X113648739Y-107066821D01*
X113648739Y-107037558D01*
X113641136Y-107019202D01*
X113637540Y-107010521D01*
X113628213Y-106999156D01*
X113569229Y-106942210D01*
X113542192Y-106931011D01*
X113512929Y-106931011D01*
X113485893Y-106942210D01*
X113474528Y-106951537D01*
X113417582Y-107010521D01*
X113406383Y-107037558D01*
X113406383Y-107066820D01*
X113315406Y-107066820D01*
X113315406Y-107037557D01*
X113304207Y-107010521D01*
X113283515Y-106989829D01*
X113256479Y-106978630D01*
X113241847Y-106977189D01*
X112560548Y-106978630D01*
X112533512Y-106989829D01*
X112512820Y-107010521D01*
X112501621Y-107037557D01*
X112501621Y-107066821D01*
X112055736Y-107066821D01*
X112055736Y-106337904D01*
X112500180Y-106337904D01*
X112501285Y-106422211D01*
X112500769Y-106423762D01*
X112501427Y-106433032D01*
X112501621Y-106447774D01*
X112502651Y-106450262D01*
X112502843Y-106452952D01*
X112508098Y-106466684D01*
X112555157Y-106558066D01*
X112557643Y-106565522D01*
X112560976Y-106569365D01*
X112563551Y-106574365D01*
X112570655Y-106580525D01*
X112576816Y-106587630D01*
X112584221Y-106592290D01*
X112585659Y-106593538D01*
X112586813Y-106593922D01*
X112589259Y-106595462D01*
X112675148Y-106637137D01*
X112676370Y-106638359D01*
X112685229Y-106642028D01*
X112698228Y-106648336D01*
X112700917Y-106648527D01*
X112703406Y-106649558D01*
X112718038Y-106650999D01*
X113167984Y-106650255D01*
X113168288Y-106733488D01*
X113179487Y-106760524D01*
X113200179Y-106781216D01*
X113227215Y-106792415D01*
X113256479Y-106792415D01*
X113283515Y-106781216D01*
X113304207Y-106760524D01*
X113315406Y-106733488D01*
X113316847Y-106718856D01*
X113316596Y-106650009D01*
X113589812Y-106649558D01*
X113616848Y-106638359D01*
X113637540Y-106617667D01*
X113648739Y-106590631D01*
X113648739Y-106561367D01*
X113637540Y-106534331D01*
X113616848Y-106513639D01*
X113589812Y-106502440D01*
X113575180Y-106500999D01*
X113316054Y-106501427D01*
X113315406Y-106323272D01*
X113304207Y-106296236D01*
X113283515Y-106275544D01*
X113256479Y-106264345D01*
X113227215Y-106264345D01*
X113200179Y-106275544D01*
X113179487Y-106296236D01*
X113168288Y-106323272D01*
X113166847Y-106337904D01*
X113167443Y-106501672D01*
X112738112Y-106502382D01*
X112678994Y-106473698D01*
X112649972Y-106417341D01*
X112648739Y-106323272D01*
X112637540Y-106296236D01*
X112616848Y-106275544D01*
X112589812Y-106264345D01*
X112560548Y-106264345D01*
X112533512Y-106275544D01*
X112512820Y-106296236D01*
X112501621Y-106323272D01*
X112500180Y-106337904D01*
X112055736Y-106337904D01*
X112055736Y-106019202D01*
X112501621Y-106019202D01*
X112512820Y-106046238D01*
X112533512Y-106066930D01*
X112560548Y-106078129D01*
X112575180Y-106079570D01*
X113589812Y-106078129D01*
X113616848Y-106066930D01*
X113637540Y-106046238D01*
X113648739Y-106019202D01*
X113648739Y-105989938D01*
X113637540Y-105962902D01*
X113616848Y-105942210D01*
X113589812Y-105931011D01*
X113575180Y-105929570D01*
X113290674Y-105929974D01*
X113302985Y-105904602D01*
X113304207Y-105903381D01*
X113307876Y-105894521D01*
X113314184Y-105881523D01*
X113314375Y-105878833D01*
X113315406Y-105876345D01*
X113316847Y-105861713D01*
X113315642Y-105730082D01*
X113316258Y-105728236D01*
X113315532Y-105718021D01*
X113315406Y-105704224D01*
X113314375Y-105701735D01*
X113314184Y-105699046D01*
X113308929Y-105685315D01*
X113261869Y-105593930D01*
X113259385Y-105586476D01*
X113256052Y-105582633D01*
X113253478Y-105577634D01*
X113246373Y-105571472D01*
X113240212Y-105564368D01*
X113232806Y-105559706D01*
X113231370Y-105558461D01*
X113230216Y-105558076D01*
X113227769Y-105556536D01*
X113141880Y-105514861D01*
X113140658Y-105513639D01*
X113131792Y-105509966D01*
X113118799Y-105503662D01*
X113116111Y-105503471D01*
X113113622Y-105502440D01*
X113098990Y-105500999D01*
X112560548Y-105502440D01*
X112533512Y-105513639D01*
X112512820Y-105534331D01*
X112501621Y-105561367D01*
X112501621Y-105590631D01*
X112512820Y-105617667D01*
X112533512Y-105638359D01*
X112560548Y-105649558D01*
X112575180Y-105650999D01*
X113078988Y-105649650D01*
X113138032Y-105678300D01*
X113166990Y-105734533D01*
X113167975Y-105842165D01*
X113134795Y-105910546D01*
X113115799Y-105930222D01*
X112560548Y-105931011D01*
X112533512Y-105942210D01*
X112512820Y-105962902D01*
X112501621Y-105989938D01*
X112501621Y-106019202D01*
X112055736Y-106019202D01*
X112055736Y-104814094D01*
X112500180Y-104814094D01*
X112501384Y-104945724D01*
X112500769Y-104947571D01*
X112501494Y-104957785D01*
X112501621Y-104971583D01*
X112502651Y-104974071D01*
X112502843Y-104976761D01*
X112508098Y-104990493D01*
X112555157Y-105081875D01*
X112557643Y-105089331D01*
X112560976Y-105093174D01*
X112563551Y-105098174D01*
X112570655Y-105104334D01*
X112576816Y-105111439D01*
X112584221Y-105116099D01*
X112585659Y-105117347D01*
X112586813Y-105117731D01*
X112589259Y-105119271D01*
X112675148Y-105160946D01*
X112676370Y-105162168D01*
X112685229Y-105165837D01*
X112698228Y-105172145D01*
X112700917Y-105172336D01*
X112703406Y-105173367D01*
X112718038Y-105174808D01*
X113256479Y-105173367D01*
X113283515Y-105162168D01*
X113304207Y-105141476D01*
X113315406Y-105114440D01*
X113315406Y-105085176D01*
X113304207Y-105058140D01*
X113283515Y-105037448D01*
X113256479Y-105026249D01*
X113241847Y-105024808D01*
X112738039Y-105026156D01*
X112678994Y-104997507D01*
X112650036Y-104941274D01*
X112649051Y-104833643D01*
X112682232Y-104765260D01*
X112700855Y-104745971D01*
X113256479Y-104744796D01*
X113283515Y-104733597D01*
X113304207Y-104712905D01*
X113315406Y-104685869D01*
X113315406Y-104656605D01*
X113304207Y-104629569D01*
X113283515Y-104608877D01*
X113256479Y-104597678D01*
X113241847Y-104596237D01*
X112560548Y-104597678D01*
X112533512Y-104608877D01*
X112512820Y-104629569D01*
X112501621Y-104656605D01*
X112501621Y-104685869D01*
X112512820Y-104712905D01*
X112532689Y-104732774D01*
X112514041Y-104771204D01*
X112512820Y-104772426D01*
X112509149Y-104781285D01*
X112502843Y-104794284D01*
X112502651Y-104796973D01*
X112501621Y-104799462D01*
X112500180Y-104814094D01*
X112055736Y-104814094D01*
X112055736Y-103909332D01*
X112500180Y-103909332D01*
X112501438Y-104088420D01*
X112500769Y-104090428D01*
X112501527Y-104101100D01*
X112501621Y-104114440D01*
X112502651Y-104116928D01*
X112502843Y-104119618D01*
X112508098Y-104133350D01*
X112516511Y-104149686D01*
X112512820Y-104153378D01*
X112501621Y-104180414D01*
X112501621Y-104209678D01*
X112512820Y-104236714D01*
X112533512Y-104257406D01*
X112560548Y-104268605D01*
X112575180Y-104270046D01*
X113199421Y-104269159D01*
X113203609Y-104269457D01*
X113204523Y-104269152D01*
X113589812Y-104268605D01*
X113616848Y-104257406D01*
X113637540Y-104236714D01*
X113648739Y-104209678D01*
X113648739Y-104180414D01*
X113637540Y-104153378D01*
X113616848Y-104132686D01*
X113589812Y-104121487D01*
X113575180Y-104120046D01*
X113313796Y-104120417D01*
X113314184Y-104119618D01*
X113314375Y-104116928D01*
X113315406Y-104114440D01*
X113316847Y-104099808D01*
X113315588Y-103920719D01*
X113316258Y-103918712D01*
X113315499Y-103908039D01*
X113315406Y-103894700D01*
X113314375Y-103892211D01*
X113314184Y-103889522D01*
X113308929Y-103875791D01*
X113260237Y-103781236D01*
X113256588Y-103772426D01*
X113254205Y-103769523D01*
X113253478Y-103768110D01*
X113251979Y-103766810D01*
X113247261Y-103761061D01*
X113198225Y-103713719D01*
X113192593Y-103707225D01*
X113189447Y-103705245D01*
X113188277Y-103704115D01*
X113186449Y-103703357D01*
X113180150Y-103699393D01*
X113094261Y-103657718D01*
X113093039Y-103656496D01*
X113084173Y-103652823D01*
X113071180Y-103646519D01*
X113068492Y-103646328D01*
X113066003Y-103645297D01*
X113051371Y-103643856D01*
X112777216Y-103645171D01*
X112775037Y-103644445D01*
X112763916Y-103645235D01*
X112751025Y-103645297D01*
X112748536Y-103646327D01*
X112745847Y-103646519D01*
X112732116Y-103651774D01*
X112637561Y-103700465D01*
X112628751Y-103704115D01*
X112625848Y-103706497D01*
X112624435Y-103707225D01*
X112623135Y-103708723D01*
X112617386Y-103713442D01*
X112570045Y-103762476D01*
X112563551Y-103768109D01*
X112561570Y-103771254D01*
X112560440Y-103772426D01*
X112559683Y-103774253D01*
X112555718Y-103780552D01*
X112514041Y-103866442D01*
X112512820Y-103867664D01*
X112509149Y-103876523D01*
X112502843Y-103889522D01*
X112502651Y-103892211D01*
X112501621Y-103894700D01*
X112500180Y-103909332D01*
X112055736Y-103909332D01*
X112055736Y-103304915D01*
X112501621Y-103304915D01*
X112512819Y-103331951D01*
X112512820Y-103331952D01*
X112522148Y-103343318D01*
X112581133Y-103400264D01*
X112608169Y-103411462D01*
X112637431Y-103411462D01*
X112637432Y-103411462D01*
X112664468Y-103400263D01*
X112675833Y-103390936D01*
X112732779Y-103331952D01*
X112743978Y-103304916D01*
X112743978Y-103275653D01*
X112736375Y-103257297D01*
X112732779Y-103248616D01*
X112723452Y-103237251D01*
X112664468Y-103180305D01*
X112664466Y-103180304D01*
X112637432Y-103169106D01*
X112608169Y-103169106D01*
X112581133Y-103180304D01*
X112569767Y-103189632D01*
X112512820Y-103248616D01*
X112512819Y-103248617D01*
X112509224Y-103257297D01*
X112501621Y-103275652D01*
X112501621Y-103304915D01*
X112055736Y-103304915D01*
X112055736Y-102480761D01*
X112500180Y-102480761D01*
X112501438Y-102659849D01*
X112500769Y-102661857D01*
X112501527Y-102672529D01*
X112501621Y-102685869D01*
X112502651Y-102688357D01*
X112502843Y-102691047D01*
X112508098Y-102704779D01*
X112556790Y-102799331D01*
X112560440Y-102808143D01*
X112562823Y-102811047D01*
X112563551Y-102812460D01*
X112565049Y-102813759D01*
X112569767Y-102819508D01*
X112618802Y-102866849D01*
X112624435Y-102873344D01*
X112627580Y-102875323D01*
X112628751Y-102876454D01*
X112630578Y-102877211D01*
X112636878Y-102881176D01*
X112722767Y-102922851D01*
X112723989Y-102924073D01*
X112732848Y-102927742D01*
X112745847Y-102934050D01*
X112748536Y-102934241D01*
X112751025Y-102935272D01*
X112765657Y-102936713D01*
X113039811Y-102935397D01*
X113041990Y-102936124D01*
X113053110Y-102935333D01*
X113066003Y-102935272D01*
X113068492Y-102934240D01*
X113071180Y-102934050D01*
X113084912Y-102928795D01*
X113179468Y-102880102D01*
X113188277Y-102876454D01*
X113191179Y-102874071D01*
X113192593Y-102873344D01*
X113193892Y-102871845D01*
X113199642Y-102867127D01*
X113246983Y-102818091D01*
X113253478Y-102812459D01*
X113255457Y-102809313D01*
X113256588Y-102808143D01*
X113257345Y-102806315D01*
X113261310Y-102800016D01*
X113302985Y-102714126D01*
X113304207Y-102712905D01*
X113307876Y-102704045D01*
X113314184Y-102691047D01*
X113314375Y-102688357D01*
X113315406Y-102685869D01*
X113316847Y-102671237D01*
X113315588Y-102492148D01*
X113316258Y-102490141D01*
X113315499Y-102479468D01*
X113315406Y-102466129D01*
X113314375Y-102463640D01*
X113314184Y-102460951D01*
X113308929Y-102447220D01*
X113253478Y-102339539D01*
X113231370Y-102320366D01*
X113203609Y-102311112D01*
X113174419Y-102313186D01*
X113148244Y-102326273D01*
X113129071Y-102348381D01*
X113119817Y-102376142D01*
X113121891Y-102405332D01*
X113127146Y-102419064D01*
X113166956Y-102496372D01*
X113168046Y-102651541D01*
X113134795Y-102720070D01*
X113104550Y-102751398D01*
X113035827Y-102786787D01*
X112785508Y-102787988D01*
X112716823Y-102754661D01*
X112685495Y-102724415D01*
X112650070Y-102655625D01*
X112648980Y-102500457D01*
X112695137Y-102405333D01*
X112697211Y-102376143D01*
X112687958Y-102348381D01*
X112668784Y-102326274D01*
X112642610Y-102313186D01*
X112613420Y-102311112D01*
X112585659Y-102320365D01*
X112563551Y-102339538D01*
X112555718Y-102351981D01*
X112514041Y-102437871D01*
X112512820Y-102439093D01*
X112509149Y-102447952D01*
X112502843Y-102460951D01*
X112502651Y-102463640D01*
X112501621Y-102466129D01*
X112500180Y-102480761D01*
X112055736Y-102480761D01*
X112055736Y-101671237D01*
X112500180Y-101671237D01*
X112501384Y-101802867D01*
X112500769Y-101804714D01*
X112501494Y-101814928D01*
X112501621Y-101828726D01*
X112502651Y-101831214D01*
X112502843Y-101833904D01*
X112508098Y-101847636D01*
X112556790Y-101942188D01*
X112560440Y-101951000D01*
X112562823Y-101953904D01*
X112563551Y-101955317D01*
X112565049Y-101956616D01*
X112569767Y-101962365D01*
X112618802Y-102009706D01*
X112624435Y-102016201D01*
X112627580Y-102018180D01*
X112628751Y-102019311D01*
X112630578Y-102020068D01*
X112636878Y-102024033D01*
X112722767Y-102065708D01*
X112723989Y-102066930D01*
X112732848Y-102070599D01*
X112745847Y-102076907D01*
X112748536Y-102077098D01*
X112751025Y-102078129D01*
X112765657Y-102079570D01*
X113039811Y-102078254D01*
X113041990Y-102078981D01*
X113053110Y-102078190D01*
X113066003Y-102078129D01*
X113068492Y-102077097D01*
X113071180Y-102076907D01*
X113084912Y-102071652D01*
X113179468Y-102022959D01*
X113188277Y-102019311D01*
X113191179Y-102016928D01*
X113192593Y-102016201D01*
X113193892Y-102014702D01*
X113199642Y-102009984D01*
X113246983Y-101960948D01*
X113253478Y-101955316D01*
X113255457Y-101952170D01*
X113256588Y-101951000D01*
X113257345Y-101949172D01*
X113261310Y-101942873D01*
X113302985Y-101856983D01*
X113304207Y-101855762D01*
X113307876Y-101846902D01*
X113314184Y-101833904D01*
X113314375Y-101831214D01*
X113315406Y-101828726D01*
X113316847Y-101814094D01*
X113315642Y-101682463D01*
X113316258Y-101680617D01*
X113315532Y-101670402D01*
X113315406Y-101656605D01*
X113314375Y-101654116D01*
X113314184Y-101651427D01*
X113308929Y-101637696D01*
X113260237Y-101543141D01*
X113256588Y-101534331D01*
X113254205Y-101531428D01*
X113253478Y-101530015D01*
X113251979Y-101528715D01*
X113247261Y-101522966D01*
X113198225Y-101475624D01*
X113192593Y-101469130D01*
X113189447Y-101467150D01*
X113188277Y-101466020D01*
X113186449Y-101465262D01*
X113180150Y-101461298D01*
X113094261Y-101419623D01*
X113093039Y-101418401D01*
X113084173Y-101414728D01*
X113071180Y-101408424D01*
X113068492Y-101408233D01*
X113066003Y-101407202D01*
X113051371Y-101405761D01*
X112777216Y-101407076D01*
X112775037Y-101406350D01*
X112763916Y-101407140D01*
X112751025Y-101407202D01*
X112748536Y-101408232D01*
X112745847Y-101408424D01*
X112732116Y-101413679D01*
X112637561Y-101462370D01*
X112628751Y-101466020D01*
X112625848Y-101468402D01*
X112624435Y-101469130D01*
X112623135Y-101470628D01*
X112617386Y-101475347D01*
X112570045Y-101524381D01*
X112563551Y-101530014D01*
X112561570Y-101533159D01*
X112560440Y-101534331D01*
X112559683Y-101536158D01*
X112555718Y-101542457D01*
X112514041Y-101628347D01*
X112512820Y-101629569D01*
X112509149Y-101638428D01*
X112502843Y-101651427D01*
X112502651Y-101654116D01*
X112501621Y-101656605D01*
X112500180Y-101671237D01*
X112055736Y-101671237D01*
X112055736Y-101066821D01*
X112501621Y-101066821D01*
X112512820Y-101093857D01*
X112533512Y-101114549D01*
X112560548Y-101125748D01*
X112575180Y-101127189D01*
X113256479Y-101125748D01*
X113283515Y-101114549D01*
X113304207Y-101093857D01*
X113315406Y-101066821D01*
X113315406Y-101037557D01*
X113304207Y-101010521D01*
X113284338Y-100990652D01*
X113302985Y-100952221D01*
X113304207Y-100951000D01*
X113307876Y-100942140D01*
X113314184Y-100929142D01*
X113314375Y-100926452D01*
X113315406Y-100923964D01*
X113316847Y-100909332D01*
X113315642Y-100777701D01*
X113316258Y-100775855D01*
X113315532Y-100765640D01*
X113315406Y-100751843D01*
X113314375Y-100749354D01*
X113314184Y-100746665D01*
X113308929Y-100732934D01*
X113261869Y-100641549D01*
X113259385Y-100634095D01*
X113256052Y-100630252D01*
X113253478Y-100625253D01*
X113251592Y-100623618D01*
X113253478Y-100621983D01*
X113258139Y-100614577D01*
X113259385Y-100613141D01*
X113259769Y-100611987D01*
X113261310Y-100609540D01*
X113302985Y-100523650D01*
X113304207Y-100522429D01*
X113307876Y-100513569D01*
X113314184Y-100500571D01*
X113314375Y-100497881D01*
X113315406Y-100495393D01*
X113316847Y-100480761D01*
X113315642Y-100349131D01*
X113316258Y-100347285D01*
X113315532Y-100337070D01*
X113315406Y-100323272D01*
X113314374Y-100320782D01*
X113314184Y-100318095D01*
X113308929Y-100304363D01*
X113261869Y-100212977D01*
X113259385Y-100205523D01*
X113256052Y-100201680D01*
X113253478Y-100196681D01*
X113246373Y-100190519D01*
X113240212Y-100183415D01*
X113232806Y-100178753D01*
X113231370Y-100177508D01*
X113230216Y-100177123D01*
X113227769Y-100175583D01*
X113141880Y-100133908D01*
X113140658Y-100132686D01*
X113131792Y-100129013D01*
X113118799Y-100122709D01*
X113116111Y-100122518D01*
X113113622Y-100121487D01*
X113098990Y-100120046D01*
X112560548Y-100121487D01*
X112533512Y-100132686D01*
X112512820Y-100153378D01*
X112501621Y-100180414D01*
X112501621Y-100209678D01*
X112512820Y-100236714D01*
X112533512Y-100257406D01*
X112560548Y-100268605D01*
X112575180Y-100270046D01*
X113078988Y-100268697D01*
X113138032Y-100297347D01*
X113166990Y-100353580D01*
X113167975Y-100461213D01*
X113139546Y-100519803D01*
X113083510Y-100548659D01*
X112560548Y-100550059D01*
X112533512Y-100561258D01*
X112512820Y-100581950D01*
X112501621Y-100608986D01*
X112501621Y-100638250D01*
X112512820Y-100665286D01*
X112533512Y-100685978D01*
X112560548Y-100697177D01*
X112575180Y-100698618D01*
X113078988Y-100697269D01*
X113138032Y-100725919D01*
X113166990Y-100782152D01*
X113167975Y-100889784D01*
X113134795Y-100958165D01*
X113116172Y-100977454D01*
X112560548Y-100978630D01*
X112533512Y-100989829D01*
X112512820Y-101010521D01*
X112501621Y-101037557D01*
X112501621Y-101066821D01*
X112055736Y-101066821D01*
X112055736Y-99861634D01*
X112262085Y-99861634D01*
X112267764Y-99890342D01*
X112283997Y-99914691D01*
X112308312Y-99930974D01*
X112337006Y-99936713D01*
X112365714Y-99931034D01*
X112378687Y-99924117D01*
X113675777Y-99057660D01*
X113692061Y-99033345D01*
X113697800Y-99004650D01*
X113692121Y-98975943D01*
X113675888Y-98951593D01*
X113651573Y-98935310D01*
X113622879Y-98929571D01*
X113594171Y-98935250D01*
X113581197Y-98942167D01*
X112284107Y-99808625D01*
X112267824Y-99832940D01*
X112262085Y-99861634D01*
X112055736Y-99861634D01*
X112055736Y-98433142D01*
X112500180Y-98433142D01*
X112501621Y-98685869D01*
X112512820Y-98712905D01*
X112533512Y-98733597D01*
X112560548Y-98744796D01*
X112575180Y-98746237D01*
X113589812Y-98744796D01*
X113616848Y-98733597D01*
X113637540Y-98712905D01*
X113648739Y-98685869D01*
X113650180Y-98671237D01*
X113648829Y-98434466D01*
X113649591Y-98423761D01*
X113648747Y-98420052D01*
X113648739Y-98418510D01*
X113647980Y-98416679D01*
X113646331Y-98409424D01*
X113601120Y-98277633D01*
X113601120Y-98275654D01*
X113597164Y-98266104D01*
X113592718Y-98253142D01*
X113590953Y-98251107D01*
X113589922Y-98248617D01*
X113580594Y-98237252D01*
X113484831Y-98143320D01*
X113478307Y-98135797D01*
X113475110Y-98133784D01*
X113473991Y-98132687D01*
X113472163Y-98131929D01*
X113465864Y-98127965D01*
X113374632Y-98083698D01*
X113369121Y-98079614D01*
X113358101Y-98075676D01*
X113356894Y-98075091D01*
X113356354Y-98075052D01*
X113355275Y-98074667D01*
X113168909Y-98029426D01*
X113161241Y-98026250D01*
X113152126Y-98025352D01*
X113150255Y-98024898D01*
X113149162Y-98025060D01*
X113146609Y-98024809D01*
X113008029Y-98026076D01*
X113000106Y-98024898D01*
X112991081Y-98026232D01*
X112989120Y-98026250D01*
X112988098Y-98026672D01*
X112985562Y-98027048D01*
X112800863Y-98074565D01*
X112793466Y-98075091D01*
X112782483Y-98079294D01*
X112781240Y-98079614D01*
X112780804Y-98079936D01*
X112779735Y-98080346D01*
X112685185Y-98129034D01*
X112676370Y-98132686D01*
X112673464Y-98135070D01*
X112672054Y-98135797D01*
X112670755Y-98137293D01*
X112665005Y-98142014D01*
X112578522Y-98230182D01*
X112576817Y-98231035D01*
X112570180Y-98238686D01*
X112560440Y-98248617D01*
X112559409Y-98251105D01*
X112557643Y-98253142D01*
X112551649Y-98266567D01*
X112505498Y-98409149D01*
X112501621Y-98418510D01*
X112501250Y-98422273D01*
X112500769Y-98423761D01*
X112500909Y-98425736D01*
X112500180Y-98433142D01*
X112055736Y-98433142D01*
X112055736Y-97337904D01*
X112500180Y-97337904D01*
X112501472Y-97564509D01*
X112500769Y-97566619D01*
X112501546Y-97577561D01*
X112501621Y-97590631D01*
X112502651Y-97593119D01*
X112502843Y-97595809D01*
X112508098Y-97609541D01*
X112555157Y-97700923D01*
X112557643Y-97708379D01*
X112560976Y-97712222D01*
X112563551Y-97717222D01*
X112570655Y-97723382D01*
X112576816Y-97730487D01*
X112584221Y-97735147D01*
X112585659Y-97736395D01*
X112586813Y-97736779D01*
X112589259Y-97738319D01*
X112675148Y-97779994D01*
X112676370Y-97781216D01*
X112685229Y-97784885D01*
X112698228Y-97791193D01*
X112700917Y-97791384D01*
X112703406Y-97792415D01*
X112718038Y-97793856D01*
X112802344Y-97792750D01*
X112803895Y-97793267D01*
X112813164Y-97792608D01*
X112827908Y-97792415D01*
X112830397Y-97791383D01*
X112833085Y-97791193D01*
X112846817Y-97785938D01*
X112938201Y-97738878D01*
X112945656Y-97736394D01*
X112949498Y-97733061D01*
X112954498Y-97730487D01*
X112960659Y-97723382D01*
X112967764Y-97717221D01*
X112972425Y-97709815D01*
X112973671Y-97708379D01*
X112974055Y-97707225D01*
X112975596Y-97704778D01*
X113017271Y-97618888D01*
X113018493Y-97617667D01*
X113022162Y-97608807D01*
X113028470Y-97595809D01*
X113028661Y-97593119D01*
X113029692Y-97590631D01*
X113031133Y-97575999D01*
X113029888Y-97357691D01*
X113049926Y-97316395D01*
X113078988Y-97316317D01*
X113138032Y-97344967D01*
X113166956Y-97401134D01*
X113168046Y-97556303D01*
X113121891Y-97651428D01*
X113119817Y-97680618D01*
X113129071Y-97708379D01*
X113148244Y-97730487D01*
X113174419Y-97743574D01*
X113203609Y-97745648D01*
X113231370Y-97736394D01*
X113253478Y-97717221D01*
X113261310Y-97704778D01*
X113302985Y-97618888D01*
X113304207Y-97617667D01*
X113307876Y-97608807D01*
X113314184Y-97595809D01*
X113314375Y-97593119D01*
X113315406Y-97590631D01*
X113316847Y-97575999D01*
X113315588Y-97396910D01*
X113316258Y-97394903D01*
X113315499Y-97384230D01*
X113315406Y-97370891D01*
X113314375Y-97368402D01*
X113314184Y-97365713D01*
X113308929Y-97351982D01*
X113261869Y-97260597D01*
X113259385Y-97253143D01*
X113256052Y-97249300D01*
X113253478Y-97244301D01*
X113246373Y-97238139D01*
X113240212Y-97231035D01*
X113232806Y-97226373D01*
X113231370Y-97225128D01*
X113230216Y-97224743D01*
X113227769Y-97223203D01*
X113141880Y-97181528D01*
X113140658Y-97180306D01*
X113131792Y-97176633D01*
X113118799Y-97170329D01*
X113116111Y-97170138D01*
X113113622Y-97169107D01*
X113098990Y-97167666D01*
X112623056Y-97168939D01*
X112613420Y-97168255D01*
X112611271Y-97168971D01*
X112560548Y-97169107D01*
X112533512Y-97180306D01*
X112512820Y-97200998D01*
X112501621Y-97228034D01*
X112501621Y-97257298D01*
X112512820Y-97284334D01*
X112517131Y-97288645D01*
X112514041Y-97295014D01*
X112512820Y-97296236D01*
X112509149Y-97305095D01*
X112502843Y-97318094D01*
X112502651Y-97320783D01*
X112501621Y-97323272D01*
X112500180Y-97337904D01*
X112055736Y-97337904D01*
X112055736Y-96781107D01*
X112501621Y-96781107D01*
X112512820Y-96808143D01*
X112533512Y-96828835D01*
X112560548Y-96840034D01*
X112575180Y-96841475D01*
X113256479Y-96840034D01*
X113283515Y-96828835D01*
X113304207Y-96808143D01*
X113315406Y-96781107D01*
X113315406Y-96751843D01*
X113304207Y-96724807D01*
X113284338Y-96704938D01*
X113302985Y-96666507D01*
X113304207Y-96665286D01*
X113307876Y-96656426D01*
X113314184Y-96643428D01*
X113314375Y-96640738D01*
X113315406Y-96638250D01*
X113316847Y-96623618D01*
X113315642Y-96491987D01*
X113316258Y-96490141D01*
X113315532Y-96479926D01*
X113315406Y-96466129D01*
X113314375Y-96463640D01*
X113314184Y-96460951D01*
X113308929Y-96447220D01*
X113261869Y-96355835D01*
X113259385Y-96348381D01*
X113256052Y-96344538D01*
X113253478Y-96339539D01*
X113246373Y-96333377D01*
X113240212Y-96326273D01*
X113232806Y-96321611D01*
X113231370Y-96320366D01*
X113230216Y-96319981D01*
X113227769Y-96318441D01*
X113141880Y-96276766D01*
X113140658Y-96275544D01*
X113131792Y-96271871D01*
X113118799Y-96265567D01*
X113116111Y-96265376D01*
X113113622Y-96264345D01*
X113098990Y-96262904D01*
X112560548Y-96264345D01*
X112533512Y-96275544D01*
X112512820Y-96296236D01*
X112501621Y-96323272D01*
X112501621Y-96352536D01*
X112512820Y-96379572D01*
X112533512Y-96400264D01*
X112560548Y-96411463D01*
X112575180Y-96412904D01*
X113078988Y-96411555D01*
X113138032Y-96440205D01*
X113166990Y-96496438D01*
X113167975Y-96604070D01*
X113134795Y-96672451D01*
X113116172Y-96691740D01*
X112560548Y-96692916D01*
X112533512Y-96704115D01*
X112512820Y-96724807D01*
X112501621Y-96751843D01*
X112501621Y-96781107D01*
X112055736Y-96781107D01*
X112055736Y-95295524D01*
X112500363Y-95295524D01*
X112501621Y-95300136D01*
X112501621Y-95304917D01*
X112505438Y-95314132D01*
X112508063Y-95323756D01*
X112510990Y-95327536D01*
X112512820Y-95331953D01*
X112519870Y-95339003D01*
X112525980Y-95346893D01*
X112532112Y-95351245D01*
X112533512Y-95352645D01*
X112534886Y-95353214D01*
X112537970Y-95355403D01*
X113295628Y-95787110D01*
X112560548Y-95788154D01*
X112533512Y-95799353D01*
X112512820Y-95820045D01*
X112501621Y-95847081D01*
X112501621Y-95876345D01*
X112512820Y-95903381D01*
X112533512Y-95924073D01*
X112560548Y-95935272D01*
X112575180Y-95936713D01*
X113570735Y-95935299D01*
X113580419Y-95936530D01*
X113585006Y-95935278D01*
X113589812Y-95935272D01*
X113599027Y-95931454D01*
X113608651Y-95928830D01*
X113612431Y-95925902D01*
X113616848Y-95924073D01*
X113623898Y-95917022D01*
X113631788Y-95910913D01*
X113634161Y-95906759D01*
X113637540Y-95903381D01*
X113641356Y-95894168D01*
X113646307Y-95885504D01*
X113646909Y-95880760D01*
X113648739Y-95876345D01*
X113648739Y-95866370D01*
X113649997Y-95856474D01*
X113648739Y-95851861D01*
X113648739Y-95847081D01*
X113644921Y-95837864D01*
X113642297Y-95828243D01*
X113639370Y-95824463D01*
X113637540Y-95820045D01*
X113630488Y-95812993D01*
X113624380Y-95805105D01*
X113618245Y-95800750D01*
X113616848Y-95799353D01*
X113615475Y-95798784D01*
X113612391Y-95796595D01*
X112854731Y-95364887D01*
X113589812Y-95363844D01*
X113616848Y-95352645D01*
X113637540Y-95331953D01*
X113648739Y-95304917D01*
X113648739Y-95275653D01*
X113637540Y-95248617D01*
X113616848Y-95227925D01*
X113589812Y-95216726D01*
X113575180Y-95215285D01*
X112579624Y-95216698D01*
X112569941Y-95215468D01*
X112565353Y-95216719D01*
X112560548Y-95216726D01*
X112551332Y-95220543D01*
X112541709Y-95223168D01*
X112537928Y-95226095D01*
X112533512Y-95227925D01*
X112526461Y-95234975D01*
X112518572Y-95241085D01*
X112516198Y-95245238D01*
X112512820Y-95248617D01*
X112509003Y-95257829D01*
X112504053Y-95266494D01*
X112503450Y-95271237D01*
X112501621Y-95275653D01*
X112501621Y-95285627D01*
X112500363Y-95295524D01*
X112055736Y-95295524D01*
X112055736Y-94828726D01*
X112501621Y-94828726D01*
X112512820Y-94855762D01*
X112533512Y-94876454D01*
X112560548Y-94887653D01*
X112575180Y-94889094D01*
X113256479Y-94887653D01*
X113283515Y-94876454D01*
X113304207Y-94855762D01*
X113315406Y-94828726D01*
X113315406Y-94828725D01*
X113406383Y-94828725D01*
X113417582Y-94855762D01*
X113426909Y-94867127D01*
X113485893Y-94924073D01*
X113512929Y-94935272D01*
X113512930Y-94935272D01*
X113542192Y-94935272D01*
X113569229Y-94924073D01*
X113580594Y-94914746D01*
X113637540Y-94855762D01*
X113648739Y-94828726D01*
X113648739Y-94799463D01*
X113641136Y-94781107D01*
X113637540Y-94772426D01*
X113628213Y-94761061D01*
X113569229Y-94704115D01*
X113542192Y-94692916D01*
X113512929Y-94692916D01*
X113485893Y-94704115D01*
X113474528Y-94713442D01*
X113417582Y-94772426D01*
X113406383Y-94799463D01*
X113406383Y-94828725D01*
X113315406Y-94828725D01*
X113315406Y-94799462D01*
X113304207Y-94772426D01*
X113283515Y-94751734D01*
X113256479Y-94740535D01*
X113241847Y-94739094D01*
X112560548Y-94740535D01*
X112533512Y-94751734D01*
X112512820Y-94772426D01*
X112501621Y-94799462D01*
X112501621Y-94828726D01*
X112055736Y-94828726D01*
X112055736Y-94438905D01*
X112500402Y-94438905D01*
X112508299Y-94467083D01*
X112526379Y-94490094D01*
X112551889Y-94504434D01*
X112580943Y-94507920D01*
X112609121Y-94500023D01*
X112621517Y-94492116D01*
X112908671Y-94265718D01*
X113207906Y-94500023D01*
X113236084Y-94507920D01*
X113265138Y-94504434D01*
X113290648Y-94490094D01*
X113308728Y-94467083D01*
X113316625Y-94438905D01*
X113313139Y-94409851D01*
X113298799Y-94384341D01*
X113288184Y-94374168D01*
X113028761Y-94171036D01*
X113298799Y-93958134D01*
X113313139Y-93932624D01*
X113316625Y-93903570D01*
X113308728Y-93875392D01*
X113290648Y-93852381D01*
X113265138Y-93838041D01*
X113236084Y-93834555D01*
X113207906Y-93842452D01*
X113195510Y-93850359D01*
X112908355Y-94076756D01*
X112609121Y-93842452D01*
X112580943Y-93834555D01*
X112551889Y-93838041D01*
X112526379Y-93852381D01*
X112508299Y-93875392D01*
X112500402Y-93903570D01*
X112503888Y-93932624D01*
X112518228Y-93958134D01*
X112528843Y-93968307D01*
X112788265Y-94171438D01*
X112518228Y-94384341D01*
X112503888Y-94409851D01*
X112500402Y-94438905D01*
X112055736Y-94438905D01*
X112055736Y-93242666D01*
X112500180Y-93242666D01*
X112501384Y-93374296D01*
X112500769Y-93376143D01*
X112501494Y-93386357D01*
X112501621Y-93400155D01*
X112502651Y-93402643D01*
X112502843Y-93405333D01*
X112508098Y-93419065D01*
X112556790Y-93513617D01*
X112560440Y-93522429D01*
X112562823Y-93525333D01*
X112563551Y-93526746D01*
X112565049Y-93528045D01*
X112569767Y-93533794D01*
X112618802Y-93581135D01*
X112624435Y-93587630D01*
X112627580Y-93589609D01*
X112628751Y-93590740D01*
X112630578Y-93591497D01*
X112636878Y-93595462D01*
X112722767Y-93637137D01*
X112723989Y-93638359D01*
X112732848Y-93642028D01*
X112745847Y-93648336D01*
X112748536Y-93648527D01*
X112751025Y-93649558D01*
X112765657Y-93650999D01*
X113039811Y-93649683D01*
X113041990Y-93650410D01*
X113053110Y-93649619D01*
X113066003Y-93649558D01*
X113068492Y-93648526D01*
X113071180Y-93648336D01*
X113084912Y-93643081D01*
X113179468Y-93594388D01*
X113188277Y-93590740D01*
X113191179Y-93588357D01*
X113192593Y-93587630D01*
X113193892Y-93586131D01*
X113199642Y-93581413D01*
X113246983Y-93532377D01*
X113253478Y-93526745D01*
X113255457Y-93523599D01*
X113256588Y-93522429D01*
X113257345Y-93520601D01*
X113261310Y-93514302D01*
X113302985Y-93428412D01*
X113304207Y-93427191D01*
X113307876Y-93418331D01*
X113314184Y-93405333D01*
X113314375Y-93402643D01*
X113315406Y-93400155D01*
X113316847Y-93385523D01*
X113315642Y-93253892D01*
X113316258Y-93252046D01*
X113315532Y-93241831D01*
X113315406Y-93228034D01*
X113314375Y-93225545D01*
X113314184Y-93222856D01*
X113308929Y-93209125D01*
X113260237Y-93114570D01*
X113256588Y-93105760D01*
X113254205Y-93102857D01*
X113253478Y-93101444D01*
X113251979Y-93100144D01*
X113247261Y-93094395D01*
X113198225Y-93047053D01*
X113192593Y-93040559D01*
X113189447Y-93038579D01*
X113188277Y-93037449D01*
X113186449Y-93036691D01*
X113180150Y-93032727D01*
X113094261Y-92991052D01*
X113093039Y-92989830D01*
X113084173Y-92986157D01*
X113071180Y-92979853D01*
X113068492Y-92979662D01*
X113066003Y-92978631D01*
X113051371Y-92977190D01*
X112777216Y-92978505D01*
X112775037Y-92977779D01*
X112763916Y-92978569D01*
X112751025Y-92978631D01*
X112748536Y-92979661D01*
X112745847Y-92979853D01*
X112732116Y-92985108D01*
X112637561Y-93033799D01*
X112628751Y-93037449D01*
X112625848Y-93039831D01*
X112624435Y-93040559D01*
X112623135Y-93042057D01*
X112617386Y-93046776D01*
X112570045Y-93095810D01*
X112563551Y-93101443D01*
X112561570Y-93104588D01*
X112560440Y-93105760D01*
X112559683Y-93107587D01*
X112555718Y-93113886D01*
X112514041Y-93199776D01*
X112512820Y-93200998D01*
X112509149Y-93209857D01*
X112502843Y-93222856D01*
X112502651Y-93225545D01*
X112501621Y-93228034D01*
X112500180Y-93242666D01*
X112055736Y-93242666D01*
X112055736Y-92638250D01*
X112501621Y-92638250D01*
X112512820Y-92665286D01*
X112533512Y-92685978D01*
X112560548Y-92697177D01*
X112575180Y-92698618D01*
X113256479Y-92697177D01*
X113283515Y-92685978D01*
X113304207Y-92665286D01*
X113315406Y-92638250D01*
X113315406Y-92608986D01*
X113304207Y-92581950D01*
X113284338Y-92562081D01*
X113302985Y-92523650D01*
X113304207Y-92522429D01*
X113307876Y-92513569D01*
X113314184Y-92500571D01*
X113314375Y-92497881D01*
X113315406Y-92495393D01*
X113316847Y-92480761D01*
X113315642Y-92349130D01*
X113316258Y-92347284D01*
X113315532Y-92337069D01*
X113315406Y-92323272D01*
X113314375Y-92320783D01*
X113314184Y-92318094D01*
X113308929Y-92304363D01*
X113261869Y-92212978D01*
X113259385Y-92205524D01*
X113256052Y-92201681D01*
X113253478Y-92196682D01*
X113246373Y-92190520D01*
X113240212Y-92183416D01*
X113232806Y-92178754D01*
X113231370Y-92177509D01*
X113230216Y-92177124D01*
X113227769Y-92175584D01*
X113141880Y-92133909D01*
X113140658Y-92132687D01*
X113131792Y-92129014D01*
X113118799Y-92122710D01*
X113116111Y-92122519D01*
X113113622Y-92121488D01*
X113098990Y-92120047D01*
X112560548Y-92121488D01*
X112533512Y-92132687D01*
X112512820Y-92153379D01*
X112501621Y-92180415D01*
X112501621Y-92209679D01*
X112512820Y-92236715D01*
X112533512Y-92257407D01*
X112560548Y-92268606D01*
X112575180Y-92270047D01*
X113078988Y-92268698D01*
X113138032Y-92297348D01*
X113166990Y-92353581D01*
X113167975Y-92461213D01*
X113134795Y-92529594D01*
X113116172Y-92548883D01*
X112560548Y-92550059D01*
X112533512Y-92561258D01*
X112512820Y-92581950D01*
X112501621Y-92608986D01*
X112501621Y-92638250D01*
X112055736Y-92638250D01*
X112055736Y-92008936D01*
X113808911Y-92008936D01*
X113808911Y-108190681D01*
G37*
D11*
G36*
X118572253Y-103251679D02*
G01*
X118601738Y-103278243D01*
X118633980Y-103337246D01*
X118636113Y-103390683D01*
X118610185Y-103447643D01*
X118583621Y-103477128D01*
X118524952Y-103509188D01*
X118314446Y-103511992D01*
X118313124Y-103227506D01*
X118513294Y-103224841D01*
X118572253Y-103251679D01*
G37*
G36*
X118610348Y-102832633D02*
G01*
X118639832Y-102859195D01*
X118671995Y-102918051D01*
X118674586Y-103008901D01*
X118648280Y-103066689D01*
X118622533Y-103095269D01*
X118531874Y-103128260D01*
X118531331Y-103128152D01*
X118312676Y-103131063D01*
X118311177Y-102808557D01*
X118551264Y-102805736D01*
X118610348Y-102832633D01*
G37*
G36*
X118860697Y-103697993D02*
G01*
X118125776Y-103697993D01*
X118125776Y-102759104D01*
X118214665Y-102759104D01*
X118218471Y-103578238D01*
X118245531Y-103605298D01*
X118264665Y-103609104D01*
X118524858Y-103605639D01*
X118534875Y-103608978D01*
X118548202Y-103605328D01*
X118550465Y-103605298D01*
X118551276Y-103604486D01*
X118553691Y-103603825D01*
X118620710Y-103567203D01*
X118626656Y-103567203D01*
X118642877Y-103556364D01*
X118645138Y-103553854D01*
X118645294Y-103553769D01*
X118645340Y-103553629D01*
X118673579Y-103522285D01*
X118678377Y-103520686D01*
X118690338Y-103505274D01*
X118691800Y-103502060D01*
X118691811Y-103502049D01*
X118691811Y-103502038D01*
X118723634Y-103432128D01*
X118729906Y-103425857D01*
X118732557Y-103412525D01*
X118733586Y-103410267D01*
X118733223Y-103409179D01*
X118733712Y-103406723D01*
X118730855Y-103335180D01*
X118733586Y-103326989D01*
X118730006Y-103313916D01*
X118729906Y-103311399D01*
X118729095Y-103310588D01*
X118728434Y-103308173D01*
X118691811Y-103241153D01*
X118691811Y-103235207D01*
X118680972Y-103218986D01*
X118678461Y-103216723D01*
X118678377Y-103216570D01*
X118678239Y-103216524D01*
X118647685Y-103188998D01*
X118655236Y-103186251D01*
X118664752Y-103186251D01*
X118676131Y-103178647D01*
X118678377Y-103177830D01*
X118678890Y-103176803D01*
X118680973Y-103175412D01*
X118711673Y-103141333D01*
X118716472Y-103139734D01*
X118728433Y-103124322D01*
X118729897Y-103121103D01*
X118729906Y-103121095D01*
X118729905Y-103121086D01*
X118761731Y-103051175D01*
X118768002Y-103044905D01*
X118770653Y-103031577D01*
X118771682Y-103029317D01*
X118771319Y-103028228D01*
X118771808Y-103025771D01*
X118768701Y-102916880D01*
X118771682Y-102907939D01*
X118768070Y-102894751D01*
X118768002Y-102892351D01*
X118767190Y-102891539D01*
X118766529Y-102889123D01*
X118729906Y-102822105D01*
X118729906Y-102816160D01*
X118719067Y-102799939D01*
X118716557Y-102797677D01*
X118716472Y-102797522D01*
X118716332Y-102797475D01*
X118684988Y-102769237D01*
X118683389Y-102764440D01*
X118667978Y-102752479D01*
X118664759Y-102751014D01*
X118664751Y-102751006D01*
X118664742Y-102751006D01*
X118594832Y-102719181D01*
X118588561Y-102712910D01*
X118575231Y-102710258D01*
X118572972Y-102709230D01*
X118571883Y-102709592D01*
X118569427Y-102709104D01*
X118245531Y-102712910D01*
X118218471Y-102739970D01*
X118214665Y-102759104D01*
X118125776Y-102759104D01*
X118125776Y-102620215D01*
X118860697Y-102620215D01*
X118860697Y-103697993D01*
G37*
D14*
X103290809Y-96435901D02*
X103338428Y-96578758D01*
X103338428Y-96578758D02*
X103386047Y-96626377D01*
X103386047Y-96626377D02*
X103481285Y-96673996D01*
X103481285Y-96673996D02*
X103624142Y-96673996D01*
X103624142Y-96673996D02*
X103719380Y-96626377D01*
X103719380Y-96626377D02*
X103767000Y-96578758D01*
X103767000Y-96578758D02*
X103814619Y-96483520D01*
X103814619Y-96483520D02*
X103814619Y-96102568D01*
X103814619Y-96102568D02*
X102814619Y-96102568D01*
X102814619Y-96102568D02*
X102814619Y-96435901D01*
X102814619Y-96435901D02*
X102862238Y-96531139D01*
X102862238Y-96531139D02*
X102909857Y-96578758D01*
X102909857Y-96578758D02*
X103005095Y-96626377D01*
X103005095Y-96626377D02*
X103100333Y-96626377D01*
X103100333Y-96626377D02*
X103195571Y-96578758D01*
X103195571Y-96578758D02*
X103243190Y-96531139D01*
X103243190Y-96531139D02*
X103290809Y-96435901D01*
X103290809Y-96435901D02*
X103290809Y-96102568D01*
X102814619Y-97293044D02*
X102814619Y-97483520D01*
X102814619Y-97483520D02*
X102862238Y-97578758D01*
X102862238Y-97578758D02*
X102957476Y-97673996D01*
X102957476Y-97673996D02*
X103147952Y-97721615D01*
X103147952Y-97721615D02*
X103481285Y-97721615D01*
X103481285Y-97721615D02*
X103671761Y-97673996D01*
X103671761Y-97673996D02*
X103767000Y-97578758D01*
X103767000Y-97578758D02*
X103814619Y-97483520D01*
X103814619Y-97483520D02*
X103814619Y-97293044D01*
X103814619Y-97293044D02*
X103767000Y-97197806D01*
X103767000Y-97197806D02*
X103671761Y-97102568D01*
X103671761Y-97102568D02*
X103481285Y-97054949D01*
X103481285Y-97054949D02*
X103147952Y-97054949D01*
X103147952Y-97054949D02*
X102957476Y-97102568D01*
X102957476Y-97102568D02*
X102862238Y-97197806D01*
X102862238Y-97197806D02*
X102814619Y-97293044D01*
X102814619Y-98007330D02*
X102814619Y-98578758D01*
X103814619Y-98293044D02*
X102814619Y-98293044D01*
X102814619Y-98769235D02*
X102814619Y-99340663D01*
X103814619Y-99054949D02*
X102814619Y-99054949D01*
X102814619Y-99864473D02*
X102814619Y-100054949D01*
X102814619Y-100054949D02*
X102862238Y-100150187D01*
X102862238Y-100150187D02*
X102957476Y-100245425D01*
X102957476Y-100245425D02*
X103147952Y-100293044D01*
X103147952Y-100293044D02*
X103481285Y-100293044D01*
X103481285Y-100293044D02*
X103671761Y-100245425D01*
X103671761Y-100245425D02*
X103767000Y-100150187D01*
X103767000Y-100150187D02*
X103814619Y-100054949D01*
X103814619Y-100054949D02*
X103814619Y-99864473D01*
X103814619Y-99864473D02*
X103767000Y-99769235D01*
X103767000Y-99769235D02*
X103671761Y-99673997D01*
X103671761Y-99673997D02*
X103481285Y-99626378D01*
X103481285Y-99626378D02*
X103147952Y-99626378D01*
X103147952Y-99626378D02*
X102957476Y-99673997D01*
X102957476Y-99673997D02*
X102862238Y-99769235D01*
X102862238Y-99769235D02*
X102814619Y-99864473D01*
X103814619Y-100721616D02*
X102814619Y-100721616D01*
X102814619Y-100721616D02*
X103528904Y-101054949D01*
X103528904Y-101054949D02*
X102814619Y-101388282D01*
X102814619Y-101388282D02*
X103814619Y-101388282D01*
X103719380Y-101864473D02*
X103767000Y-101912092D01*
X103767000Y-101912092D02*
X103814619Y-101864473D01*
X103814619Y-101864473D02*
X103767000Y-101816854D01*
X103767000Y-101816854D02*
X103719380Y-101864473D01*
X103719380Y-101864473D02*
X103814619Y-101864473D01*
X103433666Y-101864473D02*
X102862238Y-101816854D01*
X102862238Y-101816854D02*
X102814619Y-101864473D01*
X102814619Y-101864473D02*
X102862238Y-101912092D01*
X102862238Y-101912092D02*
X103433666Y-101864473D01*
X103433666Y-101864473D02*
X102814619Y-101864473D01*
D10*
X103341695Y-103791101D02*
X103341695Y-103333958D01*
X103341695Y-103562530D02*
X102541695Y-103562530D01*
X102541695Y-103562530D02*
X102655980Y-103486339D01*
X102655980Y-103486339D02*
X102732171Y-103410149D01*
X102732171Y-103410149D02*
X102770266Y-103333958D01*
D15*
X116394000Y-106996000D02*
X117794000Y-106996000D01*
X116394000Y-108396000D02*
X116394000Y-106996000D01*
X117794000Y-106996000D02*
X117794000Y-108396000D01*
X117794000Y-108396000D02*
X116394000Y-108396000D01*
X148861500Y-86965000D02*
X151061500Y-86965000D01*
X148861500Y-90185000D02*
X151061500Y-90185000D01*
X153261500Y-86965000D02*
X151061500Y-86965000D01*
X153261500Y-90185000D02*
X151061500Y-90185000D01*
X153961500Y-87140000D02*
X153721500Y-86810000D01*
X154201500Y-86810000D01*
X153961500Y-87140000D01*
G36*
X153961500Y-87140000D02*
G01*
X153721500Y-86810000D01*
X154201500Y-86810000D01*
X153961500Y-87140000D01*
G37*
X108358000Y-100303064D02*
X108358000Y-99848936D01*
X109828000Y-100303064D02*
X109828000Y-99848936D01*
X116394000Y-100138000D02*
X117794000Y-100138000D01*
X116394000Y-101538000D02*
X116394000Y-100138000D01*
X117794000Y-100138000D02*
X117794000Y-101538000D01*
X117794000Y-101538000D02*
X116394000Y-101538000D01*
X116394000Y-104710000D02*
X117794000Y-104710000D01*
X116394000Y-106110000D02*
X116394000Y-104710000D01*
X117794000Y-104710000D02*
X117794000Y-106110000D01*
X117794000Y-106110000D02*
X116394000Y-106110000D01*
X106326000Y-100303064D02*
X106326000Y-99848936D01*
X107796000Y-100303064D02*
X107796000Y-99848936D01*
X116394000Y-102424000D02*
X117794000Y-102424000D01*
X116394000Y-103824000D02*
X116394000Y-102424000D01*
X117794000Y-102424000D02*
X117794000Y-103824000D01*
X117794000Y-103824000D02*
X116394000Y-103824000D01*
%LPC*%
D16*
X100500000Y-103400000D03*
D17*
X100900000Y-102600000D03*
X100900000Y-101800000D03*
X100900000Y-101000000D03*
X100900000Y-100200000D03*
X100900000Y-99400000D03*
X100900000Y-98600000D03*
X100900000Y-97800000D03*
D16*
X100500000Y-97000000D03*
X100500000Y-96200000D03*
D18*
X110850000Y-87500000D03*
X111333274Y-86333274D03*
X111333274Y-88666726D03*
X112500000Y-85850000D03*
D19*
X112500000Y-87500000D03*
D18*
X112500000Y-89150000D03*
X113666726Y-86333274D03*
X113666726Y-88666726D03*
X114150000Y-87500000D03*
D20*
X152400000Y-80518000D03*
D21*
X152400000Y-81788000D03*
X152400000Y-83058000D03*
X152400000Y-84328000D03*
D18*
X110850000Y-112500000D03*
X111333274Y-111333274D03*
X111333274Y-113666726D03*
X112500000Y-110850000D03*
D19*
X112500000Y-112500000D03*
D18*
X112500000Y-114150000D03*
X113666726Y-111333274D03*
X113666726Y-113666726D03*
X114150000Y-112500000D03*
D22*
X117094000Y-107696000D03*
D23*
X153924000Y-87600000D03*
X153924000Y-88250000D03*
X153924000Y-88900000D03*
X153924000Y-89550000D03*
X148199000Y-89550000D03*
X148199000Y-88900000D03*
X148199000Y-88250000D03*
X148199000Y-87600000D03*
D24*
X109093000Y-99163500D03*
X109093000Y-100988500D03*
D22*
X117094000Y-100838000D03*
X117094000Y-105410000D03*
D24*
X107061000Y-99163500D03*
X107061000Y-100988500D03*
D22*
X117094000Y-103124000D03*
%LPD*%
M02*
