M48
; DRILL file {KiCad 8.0.1} date 2024-04-19T19:33:00+0100
; FORMAT={-:-/ absolute / metric / decimal}
; #@! TF.CreationDate,2024-04-19T19:33:00+01:00
; #@! TF.GenerationSoftware,Kicad,Pcbnew,8.0.1
; #@! TF.FileFunction,Plated,1,2,PTH
FMAT,2
METRIC
; #@! TA.AperFunction,Plated,PTH,ViaDrill
T1C0.300
; #@! TA.AperFunction,Plated,PTH,ViaDrill
T2C0.400
; #@! TA.AperFunction,Plated,PTH,ComponentDrill
T3C0.400
; #@! TA.AperFunction,Plated,PTH,ComponentDrill
T4C0.900
; #@! TA.AperFunction,Plated,PTH,ComponentDrill
T5C2.200
%
G90
G05
T1
X104.521Y-96.266
X104.521Y-98.933
X104.521Y-101.727
X104.521Y-103.505
X107.061Y-99.163
X107.823Y-96.012
X108.077Y-102.362
X108.966Y-105.791
T2
X102.108Y-92.202
X102.108Y-107.95
T3
X110.85Y-87.5
X110.85Y-112.5
X111.333Y-86.333
X111.333Y-88.667
X111.333Y-111.333
X111.333Y-113.667
X112.5Y-85.85
X112.5Y-89.15
X112.5Y-110.85
X112.5Y-114.15
X113.667Y-86.333
X113.667Y-88.667
X113.667Y-111.333
X113.667Y-113.667
X114.15Y-87.5
X114.15Y-112.5
T4
X152.4Y-80.518
X152.4Y-81.788
X152.4Y-83.058
X152.4Y-84.328
T5
X112.5Y-87.5
X112.5Y-112.5
M30
