G04 #@! TF.GenerationSoftware,KiCad,Pcbnew,8.0.1*
G04 #@! TF.CreationDate,2024-04-20T17:20:37+01:00*
G04 #@! TF.ProjectId,le-carnard-bleu,6c652d63-6172-46e6-9172-642d626c6575,rev?*
G04 #@! TF.SameCoordinates,Original*
G04 #@! TF.FileFunction,Profile,NP*
%FSLAX46Y46*%
G04 Gerber Fmt 4.6, Leading zero omitted, Abs format (unit mm)*
G04 Created by KiCad (PCBNEW 8.0.1) date 2024-04-20 17:20:37*
%MOMM*%
%LPD*%
G01*
G04 APERTURE LIST*
G04 #@! TA.AperFunction,Profile*
%ADD10C,0.050000*%
G04 #@! TD*
G04 #@! TA.AperFunction,Profile*
%ADD11C,0.100000*%
G04 #@! TD*
G04 APERTURE END LIST*
D10*
X140623617Y-119541866D02*
X139691740Y-120179146D01*
X135393119Y-79279272D02*
X137449955Y-79822536D01*
X159823455Y-81097876D02*
X160114289Y-81615010D01*
X160114289Y-81615010D02*
X160365898Y-82154972D01*
X160935030Y-84008576D02*
X161084871Y-84765795D01*
X135377573Y-114781737D02*
X135518741Y-115256469D01*
X132713384Y-78728232D02*
X133596035Y-78876028D01*
X141830281Y-118512736D02*
X141716378Y-118659196D01*
X148005754Y-69988864D02*
X148161682Y-69994217D01*
X121133504Y-81714753D02*
X121798879Y-81174826D01*
X128483534Y-78606746D02*
X129292107Y-78548654D01*
X142403811Y-80823807D02*
X142591911Y-80611017D01*
X140479458Y-80850482D02*
X140854111Y-80961569D01*
X138749145Y-120745477D02*
X137635026Y-121319117D01*
X148826214Y-76671052D02*
X149108463Y-76771662D01*
X148715938Y-71935381D02*
X148611941Y-73238103D01*
X148378609Y-74739882D02*
X148319923Y-75566704D01*
X100500000Y-90473725D02*
X115499995Y-81813472D01*
X158159123Y-79084124D02*
X158665967Y-79586701D01*
X155737945Y-94432324D02*
X155010907Y-94588408D01*
X160365898Y-82154972D02*
X160583249Y-82727437D01*
D11*
X100250000Y-94000000D02*
G75*
G02*
X100000000Y-93750000I0J250000D01*
G01*
D10*
X161234785Y-86160516D02*
X161248702Y-86926823D01*
X152227971Y-76641897D02*
X152920906Y-76686169D01*
X146313805Y-71192527D02*
X146716006Y-70793116D01*
X140869273Y-118175869D02*
X141455542Y-118161945D01*
X142745241Y-80323118D02*
X142868162Y-79953714D01*
X148173380Y-93506797D02*
X147271557Y-93041192D01*
X137483686Y-90585324D02*
X136914195Y-90987721D01*
X139856157Y-80572932D02*
X140210610Y-80731114D01*
X119749294Y-117850826D02*
X118872000Y-116840000D01*
X138253725Y-118189285D02*
X138757541Y-118305998D01*
X130973114Y-78556088D02*
X131837782Y-78621580D01*
X141868549Y-118299943D02*
X141880929Y-118393410D01*
X140742315Y-90031254D02*
X139709433Y-89977800D01*
X133872314Y-122590756D02*
X133027859Y-122693899D01*
X142868162Y-79953714D02*
X142965033Y-79496410D01*
X136366269Y-116805301D02*
X136666231Y-117144923D01*
X141251180Y-81043517D02*
X141587279Y-81075468D01*
X121419403Y-119348736D02*
X120547628Y-118627672D01*
X149108463Y-76771662D02*
X149480991Y-76810938D01*
X124793860Y-121314081D02*
X123944055Y-120939024D01*
X120547628Y-118627672D02*
X119749294Y-117850826D01*
X148622739Y-70559272D02*
X148687541Y-70925312D01*
X133928032Y-102144312D02*
X133946862Y-103644346D01*
X140036398Y-118262634D02*
X140869273Y-118175869D01*
X161026162Y-89108124D02*
X160841674Y-89772162D01*
X123944055Y-120939024D02*
X123173976Y-120530037D01*
X148297545Y-70048386D02*
X148416996Y-70150951D01*
X120482025Y-82309315D02*
X121133504Y-81714753D01*
X127701424Y-78706068D02*
X128483534Y-78606746D01*
X133946862Y-103644346D02*
X134003153Y-104862497D01*
X144676362Y-91513739D02*
X143480731Y-90895898D01*
X115499995Y-81813472D02*
G75*
G02*
X116499995Y-81813472I500000J-866022D01*
G01*
X159488433Y-80593897D02*
X159823455Y-81097876D01*
X159711402Y-91946534D02*
X159312684Y-92392233D01*
X148161682Y-69994217D02*
X148297545Y-70048386D01*
X156910829Y-78143486D02*
X157573117Y-78602329D01*
X100500000Y-109526269D02*
X115499995Y-118186522D01*
X160360321Y-90948985D02*
X160059092Y-91467338D01*
X152041919Y-94671767D02*
X151278706Y-94557108D01*
X150016434Y-76790374D02*
X150787432Y-76711470D01*
X145521859Y-72145447D02*
X146313805Y-71192527D01*
X161084871Y-84765795D02*
X161182482Y-85461641D01*
X135155778Y-113671331D02*
X135377573Y-114781737D01*
X157573117Y-78602329D02*
X158159123Y-79084124D01*
X134832146Y-94622627D02*
X134598346Y-95570893D01*
X152795594Y-94732176D02*
X152041919Y-94671767D01*
X143480731Y-90895898D02*
X142648452Y-90527553D01*
X141766631Y-90219756D02*
X140742315Y-90031254D01*
X147271557Y-93041192D02*
X146443575Y-92562705D01*
X137449955Y-79822536D02*
X139233475Y-80356317D01*
X134966417Y-112541260D02*
X135155778Y-113671331D01*
X134002822Y-99583558D02*
X133946680Y-100683637D01*
X150504804Y-94388146D02*
X149719062Y-94164831D01*
X149029172Y-93900888D02*
X148173380Y-93506797D01*
X100000000Y-93750000D02*
X100000000Y-91339750D01*
X135524966Y-92829094D02*
X135157403Y-93666768D01*
X160619659Y-90385813D02*
X160360321Y-90948985D01*
X143474880Y-76649692D02*
X143832645Y-75468907D01*
X147108304Y-70464006D02*
X147619086Y-70126286D01*
X142648452Y-90527553D02*
X142233724Y-90359727D01*
X146716006Y-70793116D02*
X147108304Y-70464006D01*
X161182482Y-85461641D02*
X161234785Y-86160516D01*
X137201424Y-117652026D02*
X137722398Y-117965150D01*
X139709433Y-89977800D02*
X139231632Y-90006639D01*
X135157403Y-93666768D02*
X134832146Y-94622627D01*
X160771305Y-83342080D02*
X160935030Y-84008576D01*
X148343990Y-75988779D02*
X148426194Y-76291281D01*
X138801912Y-90075146D02*
X138111835Y-90282381D01*
X152920906Y-76686169D02*
X153597715Y-76783535D01*
X126051068Y-79094031D02*
X126949660Y-78846635D01*
X156175139Y-77709768D02*
X156910829Y-78143486D01*
X125014559Y-79456269D02*
X126051068Y-79094031D01*
X133946680Y-100683637D02*
X133928032Y-102144312D01*
X135684722Y-115688203D02*
X135878988Y-116084928D01*
X130123261Y-78531774D02*
X130973114Y-78556088D01*
X122402162Y-120047691D02*
X121419403Y-119348736D01*
X146443575Y-92562705D02*
X144676362Y-91513739D01*
X100000000Y-91339750D02*
G75*
G02*
X100500021Y-90473762I1000000J-50D01*
G01*
X129301457Y-122553012D02*
X128285318Y-122379366D01*
X141297885Y-119038615D02*
X140623617Y-119541866D01*
X100000000Y-106250000D02*
X100000000Y-108660243D01*
X140210610Y-80731114D02*
X140479458Y-80850482D01*
X125804852Y-121694636D02*
X124793860Y-121314081D01*
X135878988Y-116084928D02*
X136105012Y-116454632D01*
X141905856Y-81049638D02*
X142176580Y-80967882D01*
X144282938Y-74270088D02*
X144523194Y-73747077D01*
X142233724Y-90359727D02*
X141766631Y-90219756D01*
X128285318Y-122379366D02*
X127058014Y-122100294D01*
X123173976Y-120530037D02*
X122402162Y-120047691D01*
X135938106Y-92105859D02*
X135524966Y-92829094D01*
X134737309Y-111136344D02*
X134966417Y-112541260D01*
X158665967Y-79586701D02*
X159104259Y-80093397D01*
X150787432Y-76711470D02*
X151517337Y-76650428D01*
X156300801Y-94273580D02*
X155737945Y-94432324D01*
X148581835Y-76507581D02*
X148826214Y-76671052D01*
X155547110Y-77397112D02*
X156175139Y-77709768D01*
X141455542Y-118161945D02*
X141793372Y-118231059D01*
X134598346Y-95570893D02*
X134365947Y-96810985D01*
X143210464Y-77809356D02*
X143474880Y-76649692D01*
X142965033Y-79496410D02*
X143040217Y-78944812D01*
X161151615Y-88439684D02*
X161026162Y-89108124D01*
X147826107Y-70032747D02*
X148005754Y-69988864D01*
X160583249Y-82727437D02*
X160771305Y-83342080D01*
X143832645Y-75468907D02*
X144282938Y-74270088D01*
X156790957Y-94094176D02*
X156300801Y-94273580D01*
X160841674Y-89772162D02*
X160619659Y-90385813D01*
X139233475Y-80356317D02*
X139856157Y-80572932D01*
X135518741Y-115256469D02*
X135684722Y-115688203D01*
X148416996Y-70150951D02*
X148523692Y-70301494D01*
X136400092Y-91493317D02*
X135938106Y-92105859D01*
X116499995Y-81813472D02*
X119360000Y-83510000D01*
X153540883Y-94738385D02*
X152795594Y-94732176D01*
D11*
X100000000Y-106250000D02*
G75*
G02*
X100250000Y-106000000I250000J0D01*
G01*
D10*
X141793372Y-118231059D02*
X141868549Y-118299943D01*
X144816794Y-73209167D02*
X145521859Y-72145447D01*
X144523194Y-73747077D02*
X144816794Y-73209167D01*
X151278706Y-94557108D02*
X150504804Y-94388146D01*
X133027859Y-122693899D02*
X132148025Y-122741709D01*
X154909245Y-77138715D02*
X155547110Y-77397112D01*
X140854111Y-80961569D02*
X141251180Y-81043517D01*
X141880929Y-118393410D02*
X141830281Y-118512736D01*
X158858369Y-92810096D02*
X158343889Y-93205784D01*
X148687541Y-70925312D02*
X148715938Y-71935381D01*
X142176580Y-80967882D02*
X142403811Y-80823807D01*
X147619086Y-70126286D02*
X147826107Y-70032747D01*
X141587279Y-81075468D02*
X141905856Y-81049638D01*
X100500000Y-109526268D02*
G75*
G02*
X99999963Y-108660243I500000J866068D01*
G01*
X161248702Y-86926823D02*
X161223855Y-87726148D01*
X134159316Y-98197130D02*
X134002822Y-99583558D01*
X123991575Y-79875858D02*
X125014559Y-79456269D01*
X141716378Y-118659196D02*
X141297885Y-119038615D01*
X119360000Y-83510000D02*
X119853879Y-82949405D01*
X127058014Y-122100294D02*
X125804852Y-121694636D01*
X142591911Y-80611017D02*
X142745241Y-80323118D01*
X139231632Y-90006639D02*
X138801912Y-90075146D01*
X155010907Y-94588408D02*
X154278937Y-94690445D01*
X136105012Y-116454632D02*
X136366269Y-116805301D01*
X137722398Y-117965150D02*
X138253725Y-118189285D01*
X138111835Y-90282381D02*
X137483686Y-90585324D01*
X134003153Y-104862497D02*
X134184065Y-106726100D01*
X134365947Y-96810985D02*
X134159316Y-98197130D01*
X148319923Y-75566704D02*
X148343990Y-75988779D01*
X129292107Y-78548654D02*
X130123261Y-78531774D01*
X116499995Y-118186522D02*
G75*
G02*
X115499995Y-118186522I-500000J866022D01*
G01*
X138757541Y-118305998D02*
X139322286Y-118326657D01*
X131233332Y-122734172D02*
X130284302Y-122671277D01*
X154278937Y-94690445D02*
X153540883Y-94738385D01*
X131837782Y-78621580D02*
X132713384Y-78728232D01*
X157261290Y-93872004D02*
X156790957Y-94094176D01*
X136666231Y-117144923D02*
X137201424Y-117652026D01*
X132148025Y-122741709D02*
X131233332Y-122734172D01*
X134452655Y-109007670D02*
X134737309Y-111136344D01*
X153597715Y-76783535D02*
X154259971Y-76934286D01*
X139322286Y-118326657D02*
X140036398Y-118262634D01*
X139691740Y-120179146D02*
X138749145Y-120745477D01*
X134184065Y-106726100D02*
X134452655Y-109007670D01*
X136914195Y-90987721D02*
X136400092Y-91493317D01*
X123133558Y-80295308D02*
X123991575Y-79875858D01*
X133596035Y-78876028D02*
X135393119Y-79279272D01*
X122468710Y-80698642D02*
X123133558Y-80295308D01*
X158343889Y-93205784D02*
X157764675Y-93584957D01*
X159104259Y-80093397D02*
X159488433Y-80593897D01*
X160059092Y-91467338D02*
X159711402Y-91946534D01*
X157764675Y-93584957D02*
X157261290Y-93872004D01*
X149480991Y-76810938D02*
X150016434Y-76790374D01*
X116499995Y-118186522D02*
X118872000Y-116840000D01*
X149719062Y-94164831D02*
X149029172Y-93900888D01*
X151517337Y-76650428D02*
X152227971Y-76641897D01*
X148426194Y-76291281D02*
X148581835Y-76507581D01*
X135453002Y-122218511D02*
X134680869Y-122432289D01*
X126949660Y-78846635D02*
X127701424Y-78706068D01*
X121798879Y-81174826D02*
X122468710Y-80698642D01*
X148611941Y-73238103D02*
X148378609Y-74739882D01*
X154259971Y-76934286D02*
X154909245Y-77138715D01*
X159312684Y-92392233D02*
X158858369Y-92810096D01*
X130284302Y-122671277D02*
X129301457Y-122553012D01*
X136489579Y-121832612D02*
X135453002Y-122218511D01*
X148523692Y-70301494D02*
X148622739Y-70559272D01*
X161223855Y-87726148D02*
X161151615Y-88439684D01*
X134680869Y-122432289D02*
X133872314Y-122590756D01*
X119853879Y-82949405D02*
X120482025Y-82309315D01*
X143040217Y-78944812D02*
X143210464Y-77809356D01*
X137635026Y-121319117D02*
X136489579Y-121832612D01*
X98250000Y-104400000D02*
X98250000Y-95600000D01*
X104500000Y-94000000D02*
X100250000Y-94000000D01*
X104500000Y-95400000D02*
X98450000Y-95400000D01*
X104500000Y-104600000D02*
X98450000Y-104600000D01*
X104500000Y-106000000D02*
X100250000Y-106000000D01*
X98250000Y-95600000D02*
G75*
G02*
X98450000Y-95400000I200000J0D01*
G01*
X98450000Y-104600000D02*
G75*
G02*
X98250000Y-104400000I0J200000D01*
G01*
X104500000Y-94000000D02*
G75*
G02*
X105200000Y-94700000I0J-700000D01*
G01*
X104500000Y-104600000D02*
G75*
G02*
X105200000Y-105300000I0J-700000D01*
G01*
X105200000Y-94700000D02*
G75*
G02*
X104500000Y-95400000I-700000J0D01*
G01*
X105200000Y-105300000D02*
G75*
G02*
X104500000Y-106000000I-700000J0D01*
G01*
M02*
