%TF.GenerationSoftware,KiCad,Pcbnew,8.0.1*%
%TF.CreationDate,2024-04-20T17:20:38+01:00*%
%TF.ProjectId,le-carnard-bleu,6c652d63-6172-46e6-9172-642d626c6575,rev?*%
%TF.SameCoordinates,Original*%
%TF.FileFunction,Drillmap*%
%TF.FilePolarity,Positive*%
%FSLAX45Y45*%
G04 Gerber Fmt 4.5, Leading zero omitted, Abs format (unit mm)*
G04 Created by KiCad (PCBNEW 8.0.1) date 2024-04-20 17:20:38*
%MOMM*%
%LPD*%
G01*
G04 APERTURE LIST*
%ADD10C,0.050000*%
%ADD11C,0.100000*%
%ADD12C,0.200000*%
G04 APERTURE END LIST*
D10*
X14062362Y-11954187D02*
X13969174Y-12017915D01*
X13539312Y-7927927D02*
X13744995Y-7982254D01*
X15982345Y-8109788D02*
X16011429Y-8161501D01*
X16011429Y-8161501D02*
X16036590Y-8215497D01*
X16093503Y-8400858D02*
X16108487Y-8476580D01*
X13537757Y-11478174D02*
X13551874Y-11525647D01*
X13271338Y-7872823D02*
X13359603Y-7887603D01*
X14183028Y-11851274D02*
X14171638Y-11865920D01*
X14800575Y-6998886D02*
X14816168Y-6999422D01*
X12113350Y-8171475D02*
X12179888Y-8117483D01*
X12848353Y-7860675D02*
X12929211Y-7854865D01*
X14240381Y-8082381D02*
X14259191Y-8061102D01*
X14047946Y-8085048D02*
X14085411Y-8096157D01*
X13874914Y-12074548D02*
X13763503Y-12131912D01*
X14882621Y-7667105D02*
X14910846Y-7677166D01*
X14871594Y-7193538D02*
X14861194Y-7323810D01*
X14837861Y-7473988D02*
X14831992Y-7556670D01*
X10050000Y-9047373D02*
X11549999Y-8181347D01*
X15815912Y-7908412D02*
X15866597Y-7958670D01*
X15573794Y-9443232D02*
X15501091Y-9458841D01*
X16036590Y-8215497D02*
X16058325Y-8272744D01*
D11*
X10025000Y-9400000D02*
G75*
G02*
X10000000Y-9375000I0J25000D01*
G01*
D10*
X16123478Y-8616052D02*
X16124870Y-8692682D01*
X15222797Y-7664190D02*
X15292091Y-7668617D01*
X14631380Y-7119253D02*
X14671601Y-7079312D01*
X14086927Y-11817587D02*
X14145554Y-11816194D01*
X14274524Y-8032312D02*
X14286816Y-7995371D01*
X14817338Y-9350680D02*
X14727156Y-9304119D01*
X13748369Y-9058532D02*
X13691419Y-9098772D01*
X13985616Y-8057293D02*
X14021061Y-8073111D01*
X11974929Y-11785083D02*
X11887200Y-11684000D01*
X13825372Y-11818928D02*
X13875754Y-11830600D01*
X13097311Y-7855609D02*
X13183778Y-7862158D01*
X14186855Y-11829994D02*
X14188093Y-11839341D01*
X14074231Y-9003125D02*
X13970943Y-8997780D01*
X13387231Y-12259076D02*
X13302786Y-12269390D01*
X14286816Y-7995371D02*
X14296503Y-7949641D01*
X13636627Y-11680530D02*
X13666623Y-11714492D01*
X14125118Y-8104352D02*
X14158728Y-8107547D01*
X12141940Y-11934874D02*
X12054763Y-11862767D01*
X14910846Y-7677166D02*
X14948099Y-7681094D01*
X12479386Y-12131408D02*
X12394405Y-12093902D01*
X12054763Y-11862767D02*
X11974929Y-11785083D01*
X14862274Y-7055927D02*
X14868754Y-7092531D01*
X13392803Y-10214431D02*
X13394686Y-10364435D01*
X14003640Y-11826263D02*
X14086927Y-11817587D01*
X16102616Y-8910812D02*
X16084167Y-8977216D01*
X12394405Y-12093902D02*
X12317398Y-12053004D01*
X14829754Y-7004839D02*
X14841700Y-7015095D01*
X12048202Y-8230931D02*
X12113350Y-8171475D01*
X12770142Y-7870607D02*
X12848353Y-7860675D01*
X13394686Y-10364435D02*
X13400315Y-10486250D01*
X14467636Y-9151374D02*
X14348073Y-9089590D01*
X11549999Y-8181347D02*
G75*
G02*
X11649999Y-8181347I50000J-86602D01*
G01*
X15948843Y-8059390D02*
X15982345Y-8109788D01*
X15971140Y-9194653D02*
X15931268Y-9239223D01*
X14816168Y-6999422D02*
X14829754Y-7004839D01*
X15691083Y-7814349D02*
X15757312Y-7860233D01*
X10050000Y-10952627D02*
X11549999Y-11818652D01*
X16036032Y-9094899D02*
X16005909Y-9146734D01*
X15204192Y-9467177D02*
X15127871Y-9455711D01*
X15001643Y-7679037D02*
X15078743Y-7671147D01*
X14552186Y-7214545D02*
X14631380Y-7119253D01*
X16108487Y-8476580D02*
X16118248Y-8546164D01*
X13515578Y-11367133D02*
X13537757Y-11478174D01*
X15757312Y-7860233D02*
X15815912Y-7908412D01*
X13483215Y-9462263D02*
X13459835Y-9557089D01*
X15279559Y-9473218D02*
X15204192Y-9467177D01*
X14348073Y-9089590D02*
X14264845Y-9052755D01*
X14176663Y-9021976D02*
X14074231Y-9003125D01*
X14727156Y-9304119D02*
X14644357Y-9256271D01*
X13744995Y-7982254D02*
X13923347Y-8035632D01*
X13496642Y-11254126D02*
X13515578Y-11367133D01*
X13400282Y-9958356D02*
X13394668Y-10068364D01*
X15050480Y-9438815D02*
X14971906Y-9416483D01*
X14902917Y-9390089D02*
X14817338Y-9350680D01*
X10000000Y-9375000D02*
X10000000Y-9133975D01*
X13552497Y-9282909D02*
X13515740Y-9366677D01*
X16061966Y-9038581D02*
X16036032Y-9094899D01*
X14347488Y-7664969D02*
X14383264Y-7546891D01*
X14710830Y-7046401D02*
X14761909Y-7012629D01*
X14264845Y-9052755D02*
X14223372Y-9035973D01*
X14671601Y-7079312D02*
X14710830Y-7046401D01*
X16118248Y-8546164D02*
X16123478Y-8616052D01*
X13720142Y-11765203D02*
X13772240Y-11796515D01*
X13970943Y-8997780D02*
X13923163Y-9000664D01*
X13515740Y-9366677D02*
X13483215Y-9462263D01*
X16077130Y-8334208D02*
X16093503Y-8400858D01*
X14834399Y-7598878D02*
X14842619Y-7629128D01*
X13880191Y-9007515D02*
X13811183Y-9028238D01*
X15292091Y-7668617D02*
X15359771Y-7678353D01*
X12605107Y-7909403D02*
X12694966Y-7884663D01*
X15617514Y-7770977D02*
X15691083Y-7814349D01*
X12501456Y-7945627D02*
X12605107Y-7909403D01*
X13394668Y-10068364D02*
X13392803Y-10214431D01*
X13568472Y-11568820D02*
X13587899Y-11608493D01*
X13012326Y-7853177D02*
X13097311Y-7855609D01*
X12240216Y-12004769D02*
X12141940Y-11934874D01*
X14644357Y-9256271D02*
X14467636Y-9151374D01*
X10000000Y-9133975D02*
G75*
G02*
X10050002Y-9047376I100000J-5D01*
G01*
X12930146Y-12255301D02*
X12828532Y-12237937D01*
X14129788Y-11903861D02*
X14062362Y-11954187D01*
X10000000Y-10625000D02*
X10000000Y-10866024D01*
X14021061Y-8073111D02*
X14047946Y-8085048D01*
X12580485Y-12169464D02*
X12479386Y-12131408D01*
X13587899Y-11608493D02*
X13610501Y-11645463D01*
X14190586Y-8104964D02*
X14217658Y-8096788D01*
X14428294Y-7427009D02*
X14452319Y-7374708D01*
X14223372Y-9035973D02*
X14176663Y-9021976D01*
X12828532Y-12237937D02*
X12705801Y-12210029D01*
X12317398Y-12053004D02*
X12240216Y-12004769D01*
X13593811Y-9210586D02*
X13552497Y-9282909D01*
X13473731Y-11113634D02*
X13496642Y-11254126D01*
X15866597Y-7958670D02*
X15910426Y-8009340D01*
X15078743Y-7671147D02*
X15151734Y-7665043D01*
X15630080Y-9427358D02*
X15573794Y-9443232D01*
X14858183Y-7650758D02*
X14882621Y-7667105D01*
X15554711Y-7739711D02*
X15617514Y-7770977D01*
X14145554Y-11816194D02*
X14179337Y-11823106D01*
X13459835Y-9557089D02*
X13436595Y-9681099D01*
X14321046Y-7780936D02*
X14347488Y-7664969D01*
X14296503Y-7949641D02*
X14304022Y-7894481D01*
X16115161Y-8843968D02*
X16102616Y-8910812D01*
X14782611Y-7003275D02*
X14800575Y-6998886D01*
X16058325Y-8272744D02*
X16077130Y-8334208D01*
X14383264Y-7546891D02*
X14428294Y-7427009D01*
X15679096Y-9409418D02*
X15630080Y-9427358D01*
X16084167Y-8977216D02*
X16061966Y-9038581D01*
X13923347Y-8035632D02*
X13985616Y-8057293D01*
X13551874Y-11525647D02*
X13568472Y-11568820D01*
X14841700Y-7015095D02*
X14852369Y-7030149D01*
X13640009Y-9149332D02*
X13593811Y-9210586D01*
X11649999Y-8181347D02*
X11936000Y-8351000D01*
X15354088Y-9473839D02*
X15279559Y-9473218D01*
D11*
X10000000Y-10625000D02*
G75*
G02*
X10025000Y-10600000I25000J0D01*
G01*
D10*
X14179337Y-11823106D02*
X14186855Y-11829994D01*
X14481679Y-7320917D02*
X14552186Y-7214545D01*
X14452319Y-7374708D02*
X14481679Y-7320917D01*
X15127871Y-9455711D02*
X15050480Y-9438815D01*
X13302786Y-12269390D02*
X13214802Y-12274171D01*
X15490924Y-7713871D02*
X15554711Y-7739711D01*
X14085411Y-8096157D02*
X14125118Y-8104352D01*
X14188093Y-11839341D02*
X14183028Y-11851274D01*
X15885837Y-9281010D02*
X15834389Y-9320578D01*
X14868754Y-7092531D02*
X14871594Y-7193538D01*
X14217658Y-8096788D02*
X14240381Y-8082381D01*
X14761909Y-7012629D02*
X14782611Y-7003275D01*
X14158728Y-8107547D02*
X14190586Y-8104964D01*
X10050000Y-10952627D02*
G75*
G02*
X9999996Y-10866024I50000J86607D01*
G01*
X16124870Y-8692682D02*
X16122385Y-8772615D01*
X13415932Y-9819713D02*
X13400282Y-9958356D01*
X12399157Y-7987586D02*
X12501456Y-7945627D01*
X14171638Y-11865920D02*
X14129788Y-11903861D01*
X11936000Y-8351000D02*
X11985388Y-8294940D01*
X12705801Y-12210029D02*
X12580485Y-12169464D01*
X14259191Y-8061102D02*
X14274524Y-8032312D01*
X13923163Y-9000664D02*
X13880191Y-9007515D01*
X15501091Y-9458841D02*
X15427894Y-9469045D01*
X13610501Y-11645463D02*
X13636627Y-11680530D01*
X13772240Y-11796515D02*
X13825372Y-11818928D01*
X13811183Y-9028238D02*
X13748369Y-9058532D01*
X13400315Y-10486250D02*
X13418406Y-10672610D01*
X13436595Y-9681099D02*
X13415932Y-9819713D01*
X14831992Y-7556670D02*
X14834399Y-7598878D01*
X12929211Y-7854865D02*
X13012326Y-7853177D01*
X11649999Y-11818652D02*
G75*
G02*
X11549999Y-11818652I-50000J86602D01*
G01*
X13875754Y-11830600D02*
X13932229Y-11832666D01*
X13123333Y-12273417D02*
X13028430Y-12267128D01*
X15427894Y-9469045D02*
X15354088Y-9473839D01*
X13183778Y-7862158D02*
X13271338Y-7872823D01*
X15726129Y-9387200D02*
X15679096Y-9409418D01*
X13666623Y-11714492D02*
X13720142Y-11765203D01*
X13214802Y-12274171D02*
X13123333Y-12273417D01*
X13445265Y-10900767D02*
X13473731Y-11113634D01*
X15359771Y-7678353D02*
X15425997Y-7693429D01*
X13932229Y-11832666D02*
X14003640Y-11826263D01*
X13969174Y-12017915D02*
X13874914Y-12074548D01*
X13418406Y-10672610D02*
X13445265Y-10900767D01*
X13691419Y-9098772D02*
X13640009Y-9149332D01*
X12313356Y-8029531D02*
X12399157Y-7987586D01*
X13359603Y-7887603D02*
X13539312Y-7927927D01*
X12246871Y-8069864D02*
X12313356Y-8029531D01*
X15834389Y-9320578D02*
X15776467Y-9358496D01*
X15910426Y-8009340D02*
X15948843Y-8059390D01*
X16005909Y-9146734D02*
X15971140Y-9194653D01*
X15776467Y-9358496D02*
X15726129Y-9387200D01*
X14948099Y-7681094D02*
X15001643Y-7679037D01*
X11649999Y-11818652D02*
X11887200Y-11684000D01*
X14971906Y-9416483D02*
X14902917Y-9390089D01*
X15151734Y-7665043D02*
X15222797Y-7664190D01*
X14842619Y-7629128D02*
X14858183Y-7650758D01*
X13545300Y-12221851D02*
X13468087Y-12243229D01*
X12694966Y-7884663D02*
X12770142Y-7870607D01*
X12179888Y-8117483D02*
X12246871Y-8069864D01*
X14861194Y-7323810D02*
X14837861Y-7473988D01*
X15425997Y-7693429D02*
X15490924Y-7713871D01*
X15931268Y-9239223D02*
X15885837Y-9281010D01*
X13028430Y-12267128D02*
X12930146Y-12255301D01*
X13648958Y-12183261D02*
X13545300Y-12221851D01*
X14852369Y-7030149D02*
X14862274Y-7055927D01*
X16122385Y-8772615D02*
X16115161Y-8843968D01*
X13468087Y-12243229D02*
X13387231Y-12259076D01*
X11985388Y-8294940D02*
X12048202Y-8230931D01*
X14304022Y-7894481D02*
X14321046Y-7780936D01*
X13763503Y-12131912D02*
X13648958Y-12183261D01*
X9825000Y-10440000D02*
X9825000Y-9560000D01*
X10450000Y-9400000D02*
X10025000Y-9400000D01*
X10450000Y-9540000D02*
X9845000Y-9540000D01*
X10450000Y-10460000D02*
X9845000Y-10460000D01*
X10450000Y-10600000D02*
X10025000Y-10600000D01*
X9825000Y-9560000D02*
G75*
G02*
X9845000Y-9540000I20000J0D01*
G01*
X9845000Y-10460000D02*
G75*
G02*
X9825000Y-10440000I0J20000D01*
G01*
X10450000Y-9400000D02*
G75*
G02*
X10520000Y-9470000I0J-70000D01*
G01*
X10450000Y-10460000D02*
G75*
G02*
X10520000Y-10530000I0J-70000D01*
G01*
X10520000Y-9470000D02*
G75*
G02*
X10450000Y-9540000I-70000J0D01*
G01*
X10520000Y-10530000D02*
G75*
G02*
X10450000Y-10600000I-70000J0D01*
G01*
D12*
X10083277Y-12588155D02*
X10083277Y-12388155D01*
X10083277Y-12388155D02*
X10130896Y-12388155D01*
X10130896Y-12388155D02*
X10159467Y-12397678D01*
X10159467Y-12397678D02*
X10178515Y-12416726D01*
X10178515Y-12416726D02*
X10188039Y-12435774D01*
X10188039Y-12435774D02*
X10197563Y-12473869D01*
X10197563Y-12473869D02*
X10197563Y-12502440D01*
X10197563Y-12502440D02*
X10188039Y-12540536D01*
X10188039Y-12540536D02*
X10178515Y-12559583D01*
X10178515Y-12559583D02*
X10159467Y-12578631D01*
X10159467Y-12578631D02*
X10130896Y-12588155D01*
X10130896Y-12588155D02*
X10083277Y-12588155D01*
X10283277Y-12588155D02*
X10283277Y-12454821D01*
X10283277Y-12492917D02*
X10292801Y-12473869D01*
X10292801Y-12473869D02*
X10302324Y-12464345D01*
X10302324Y-12464345D02*
X10321372Y-12454821D01*
X10321372Y-12454821D02*
X10340420Y-12454821D01*
X10407086Y-12588155D02*
X10407086Y-12454821D01*
X10407086Y-12388155D02*
X10397563Y-12397678D01*
X10397563Y-12397678D02*
X10407086Y-12407202D01*
X10407086Y-12407202D02*
X10416610Y-12397678D01*
X10416610Y-12397678D02*
X10407086Y-12388155D01*
X10407086Y-12388155D02*
X10407086Y-12407202D01*
X10530896Y-12588155D02*
X10511848Y-12578631D01*
X10511848Y-12578631D02*
X10502324Y-12559583D01*
X10502324Y-12559583D02*
X10502324Y-12388155D01*
X10635658Y-12588155D02*
X10616610Y-12578631D01*
X10616610Y-12578631D02*
X10607086Y-12559583D01*
X10607086Y-12559583D02*
X10607086Y-12388155D01*
X10864229Y-12588155D02*
X10864229Y-12388155D01*
X10864229Y-12388155D02*
X10930896Y-12531012D01*
X10930896Y-12531012D02*
X10997563Y-12388155D01*
X10997563Y-12388155D02*
X10997563Y-12588155D01*
X11178515Y-12588155D02*
X11178515Y-12483393D01*
X11178515Y-12483393D02*
X11168991Y-12464345D01*
X11168991Y-12464345D02*
X11149944Y-12454821D01*
X11149944Y-12454821D02*
X11111848Y-12454821D01*
X11111848Y-12454821D02*
X11092801Y-12464345D01*
X11178515Y-12578631D02*
X11159467Y-12588155D01*
X11159467Y-12588155D02*
X11111848Y-12588155D01*
X11111848Y-12588155D02*
X11092801Y-12578631D01*
X11092801Y-12578631D02*
X11083277Y-12559583D01*
X11083277Y-12559583D02*
X11083277Y-12540536D01*
X11083277Y-12540536D02*
X11092801Y-12521488D01*
X11092801Y-12521488D02*
X11111848Y-12511964D01*
X11111848Y-12511964D02*
X11159467Y-12511964D01*
X11159467Y-12511964D02*
X11178515Y-12502440D01*
X11273753Y-12454821D02*
X11273753Y-12654821D01*
X11273753Y-12464345D02*
X11292801Y-12454821D01*
X11292801Y-12454821D02*
X11330896Y-12454821D01*
X11330896Y-12454821D02*
X11349943Y-12464345D01*
X11349943Y-12464345D02*
X11359467Y-12473869D01*
X11359467Y-12473869D02*
X11368991Y-12492917D01*
X11368991Y-12492917D02*
X11368991Y-12550059D01*
X11368991Y-12550059D02*
X11359467Y-12569107D01*
X11359467Y-12569107D02*
X11349943Y-12578631D01*
X11349943Y-12578631D02*
X11330896Y-12588155D01*
X11330896Y-12588155D02*
X11292801Y-12588155D01*
X11292801Y-12588155D02*
X11273753Y-12578631D01*
X11454705Y-12569107D02*
X11464229Y-12578631D01*
X11464229Y-12578631D02*
X11454705Y-12588155D01*
X11454705Y-12588155D02*
X11445182Y-12578631D01*
X11445182Y-12578631D02*
X11454705Y-12569107D01*
X11454705Y-12569107D02*
X11454705Y-12588155D01*
X11454705Y-12464345D02*
X11464229Y-12473869D01*
X11464229Y-12473869D02*
X11454705Y-12483393D01*
X11454705Y-12483393D02*
X11445182Y-12473869D01*
X11445182Y-12473869D02*
X11454705Y-12464345D01*
X11454705Y-12464345D02*
X11454705Y-12483393D01*
M02*
